<?xml version="1.0" encoding="utf-8"?>
<!-- Generator: Adobe Illustrator 23.1.0, SVG Export Plug-In . SVG Version: 6.00 Build 0)  -->
<svg version="1.1" id="Capa_1" xmlns="http://www.w3.org/2000/svg" xmlns:xlink="http://www.w3.org/1999/xlink" x="0px" y="0px"
	 viewBox="0 0 89.2 89.2" enable-background="new 0 0 89.2 89.2" xml:space="preserve">
<g>
	<path fill="#F8E8A1" d="M71.8,38.3c1.3-11.6-5.6-23.8-17.2-27.1c0-0.1-0.1-0.2-0.2-0.2c-10.6-3.1-21.9,0.8-28.8,9.1
		c-0.9,1-1.7,2.1-2.4,3.3c-0.1,0-0.2,0.1-0.1,0.2c-0.3,0.4-0.5,0.8-0.7,1.2c-0.1,0-0.1,0.1-0.1,0.1c-1.7,3.1-2.9,6.5-3.3,10.1
		c-0.2,1.5-0.1,2.9,0,4.2c-0.1,0.1,0,0.2,0,0.3c0.5,3.6,2,7,4.2,10.1c3.2,4.7,7.2,8.6,12.5,10.7c0.6,0.2,1.2,0.4,1.8,0.6
		c0,0.1,0.3,0.2,0.4,0.1c4.2,1.3,8.7,1.5,12.9,0.8c5.6-1,10.3-3.4,14-7.7C68.5,49.8,71.1,44.2,71.8,38.3z"/>
</g>
<g>
	<g>
		<g>
			<g>
				<g>
					<g>
						<path fill="#808181" d="M70.1,56.5c0-0.7-0.2,0.3,0-0.4C70.2,56.2,70.2,56.3,70.1,56.5z"/>
						<path fill="#808181" d="M70,54c-0.6-2-0.6-4.8-1.4-7c-0.1-0.3,0.3,0,0.1-0.6c-0.8-2.1-1.6-5.4-2.3-8.1l0.1,0.1
							c-0.1-0.5-0.5-1-0.7-1.5c0,0,0.1,0.1,0.1,0c-0.2-0.1-0.4-0.9-0.6-1.1c0-0.2,0.1-0.2,0-0.5L65,35.1c-0.7-0.7-0.8-1.9-1.5-2.9
							c0.1,0,0.1,0.1,0.1,0c-1-1.6-2.1-3.7-3.3-5.5c0.1,0,0.2,0.1,0.2-0.1c-0.2,0-0.6-0.5-0.9-1c0-0.3-0.7-0.7-1-1.3l0.1,0
							c-0.4-0.3-0.3-0.7-0.7-0.8L58,23.3c-0.3,0-0.3-0.6-0.7-0.9l0,0c-0.3-0.3-0.3-0.5-0.6-0.7l0,0c-0.6-0.6-0.8-1-1-0.9
							c-0.1-0.3,0.6,0.5,0.4,0.1c-1-0.9-2.1-1.8-3.2-2.7c-1.1-0.8-2.3-1.5-3.6-2c-0.3-0.2-0.5-0.2-0.5-0.3c-0.3-0.1-1-0.2-1.3-0.2
							c0.1,0-0.2-0.1-0.3-0.2c-0.5-0.1-0.6,0.2-1.1,0c0.2,0,0.3-0.1,0.2-0.2c-0.5,0.1-1.1,0.1-1.6,0.2c0.1,0,0.2-0.1,0.2-0.1
							c-0.6,0.2-1.1,0.1-1.6,0.4c0.1-0.1,0.1-0.1,0.2-0.2c-0.9,0.1-0.2,0.3-0.9,0.4c0.2-0.1,0.1-0.1,0.1-0.2
							c-0.3,0.2-0.7,0.4-1.1,0.6c-0.4,0.2-0.8,0.4-1.1,0.6c0,0,0-0.1,0-0.1c-0.6,0.4-1.3,0.8-1.9,1.3c-0.3,0.1-0.1-0.3-0.7,0.3
							c0.1,0.1-1,0.9-0.4,0.8c-0.5,0.4-1.3,1.1-1.6,1.5c0.2-0.3-0.4,0.1,0-0.4l-0.4,0.2c0-0.1,0.3-0.3,0.2-0.3
							c-0.2,0.2-0.7,0.9-0.9,1.1c-0.3,0.5-0.4,1-0.9,1.7c0.2-0.4-0.3,0-0.2-0.2c-0.1,0.4-0.3,0.8-0.4,1.2c-0.2,0.2-0.2,0-0.4,0.3
							c0.1,0,0,0.2-0.1,0.3c-0.1,0.1-0.6,1-0.8,1c-0.1,0.1,0.2-0.4,0-0.2c-0.3,0.4-0.2,0.5-0.5,0.9l0,0c-0.2,0.3-0.5,0.9-0.2,0.7
							c0.1-0.2-0.2,0,0.1-0.3c0,0.3-0.3,0.8-0.6,1.2c0.1-0.2,0-0.2,0-0.3c-0.2,0.7-0.5,1.3-0.8,2.1c0.1,0.1,0-0.3,0.1-0.4
							c-0.6,0.8-0.8,1.9-1.3,2.6c0-0.1,0.2,0,0.1,0c-0.2,0.4-0.3,0.3-0.4,0.6c-0.1,0-0.1,0.4-0.2,0.7c0,0.2-0.1,0.1,0-0.2
							c-0.1,0.4-0.7,2.1-1.2,3c0.1,0,0,0.7-0.1,0.9l-0.1-0.1c-0.2,0.2-0.3,0.7-0.4,0.7c0,0.5,0.6-1.9,0.4-1.2
							c-0.2,0.1-0.2,1-0.3,0.8c-0.2,0.4-0.2,0.9-0.5,1.3c0.1-0.1,0-0.4-0.2-0.1c-0.2,0.6,0,0.2-0.2,0.7l-0.1,0.3
							c0.1,0.1-0.2,0.6,0,0.4c-0.1,0-0.3,1-0.4,0.8l-0.1-0.1c-0.1,0.3,0,0.5,0,0.8c0,0-0.1,0.1-0.1,0.1c0.2,0.1-0.2,0.7-0.1,1.1
							c-0.3,0.6-0.4,1.5-0.7,1.7c0,0.5-0.1,0.9-0.3,1.4c0-0.1,0-0.3,0-0.3C24,45.9,24,46,24,46.3c0-0.1-0.3,0.6-0.5,1
							c0,0.5,0.1,0.3,0.2,0.4c-0.3,0.4-0.1,1.3-0.4,1.8c0-0.2,0-0.7-0.1-0.3c-0.3,0.4,0,0.9-0.2,1.5l0.2-0.1c-0.2,0.3,0,1-0.2,0.9
							c0,0.2-0.2,0.8,0,0.7c-0.3,1.1-0.2,2.7-0.5,3.4c0,0.2,0,0.6,0.1,0.5c0.1-0.3-0.1-0.4,0-0.5c0,0.1,0.1,0.2,0.1,0.2
							c-0.1,0.3,0,0.6-0.2,0.3c-0.1,0.8,0.4,0.8,0.4,1.8c-0.1,0-0.1,0-0.1,0.3c0.1,0.2,0.1,0.4,0.2,0.5c0.1,0.6-0.1,0.4-0.3,0.4
							c0.1,0.3,0.1,0.8,0.3,0.9l-0.1,0.4c0.1-0.3,0.1,0.3,0.2,0.4c0,0-0.1-0.1-0.1-0.2c-0.1,0.1,0.1,0.5,0.2,0.6
							c0.1-0.1,0-0.5,0-0.7c0.1,0.2,0.2,0.4,0.3,0.6c-0.2,0,0,0.6,0.1,0.8c0,0.3,0.2,0.3,0.2,0.4c-0.1,0,0.1,0.5,0,0.3
							c0-0.1,0-0.3-0.1-0.4c0,0.2-0.1,0.2,0.1,0.6c0.2,0.3,0.2-0.2,0.4,0.4c-0.1-0.1-0.2-0.1-0.2-0.2l0.1,0.6l0.1,0c0,0.1,0,0,0,0.1
							c0.2,0.1,0.3,0.8,0.5,0.9c0.1,0.3,0.1,0.6,0.2,0.8l0,0c0.1,0.3,0.3,0.7,0.5,0.9l0,0c0.1,0.2,0.3,0.5,0.4,0.7
							c0.2,0.4-0.3,0.4,0.1,0.7c0.2,0.4,0.6,0.5,0.6,0.3c0.3,0.8,1.1,1.4,1.4,2.2c0.1,0.1,0.1,0,0.3,0.2c0.3,0.5,0.8,0.9,1.3,1.4
							c0.4,0.5,0.8,0.9,1.1,1.3c-0.3-0.2-0.1,0.1-0.1,0.1c0.3,0.1,0.2,0.3,0.4,0.3c0.1-0.1,0.1-0.1-0.1-0.4c0.3,0.2,0.6,0.5,1,0.8
							c0.3,0.3,0.6,0.5,0.7,0.7c-0.1-0.2,0-0.1,0.2,0c-0.2,0.1,0.3,0.5,0.6,0.7l0.1-0.1c0,0.1,0.1,0.2,0.2,0.2
							c0.2,0.1,0.3-0.1,0.6,0.2c0,0,0,0.1,0,0.2c0.4,0.1,1,0.3,1.3,0.6l0.3,0.3c0.2,0.1,0.5,0.1,0.2-0.1c0.7,0.4,1.1,0.7,1.3,0.9
							c0.7,0.1,1.5,0.3,2.3,0.5c0.8,0.2,1.7,0.4,2.4,0.6l-0.1,0.1c0.4,0.1,0.2-0.1,0.5,0c-0.1,0.1,0.3,0.2-0.1,0.3
							c0.6,0.2,0.8,0,1.2,0c0.1-0.1-0.3,0-0.2-0.1c0.1,0,0.8,0.2,0.9,0c0.1,0.1,0,0.2-0.1,0.3l0.4-0.1c0.4,0.2-1.1,0.3-0.6,0.6
							l0.3,0c0.3,0.2-0.9,0.2-0.1,0.3c0.4-0.1,0.7-0.3,0.4-0.4c0.8,0,0.4-0.4,1.2-0.3c0.2,0.1-0.7,0-0.5,0.1c0.4,0.1,0.8,0,1.1,0
							c-0.4-0.1-0.1-0.2,0.2-0.3c0.4,0.1-0.3,0.2,0.3,0.2c0.1-0.1,0.6-0.2,0.2-0.2c0.2-0.2,0.6,0,0.9-0.2c0.2,0.1-0.6,0.4,0.1,0.4
							c-0.1-0.1,0.8-0.2,0.4-0.4c0.3,0,0.3,0.1,0.1,0.2c0.4,0,0.8-0.4,1-0.1l0.1-0.2c0.1,0,0.3,0,0.5,0.1c0.3,0,1-0.4,1-0.2
							c0.1,0,0.8-0.2,0.5-0.3c-0.5,0-0.5,0.2-0.8,0.1c0.3,0.1,0.6-0.2,0.9-0.3l0.1,0.1c0.1-0.1,0.5-0.1,0.6-0.3
							c-0.1,0.1,0,0.1,0.1,0.1l0.1-0.2c0.6-0.2,0.2,0.2,0.8,0c-0.1,0.1-0.3,0.2-0.4,0.2c0.1,0,0.3,0,0.6-0.1
							c0.1-0.2,0.2-0.4,0.3-0.5c0.3-0.2,0.2,0.1,0.5-0.2l-0.4,0.3c-0.1,0.1,0.4,0.1,0.8-0.1c0.3-0.1,0.6-0.5,0.2-0.4
							c0.2-0.1,0.5-0.2,0.4,0c0.5-0.3-0.1-0.1,0.3-0.4c0.2,0,0.8-0.2,1.1-0.2l-0.3,0.4l0.3-0.1c-0.3,0.3,0.2,0,0.1,0.3
							c0.2-0.1,0.4-0.2,0.6-0.4c-0.4,0-0.2-0.1-0.1-0.3c0.2-0.2,0.4-0.4,0.2-0.5c0.7-0.5,0.8,0.2,1.4-0.6c-0.2,0,0.1-0.4-0.3,0
							c0.5-0.3,0.2-0.4,0.7-0.7c-0.3,0.4,0.6-0.1,0.1,0.4c0-0.1-0.3,0.2-0.4,0.2c0.2,0,0.1,0.3,0.6-0.1c0.3-0.2,0.6-0.5,0.5-0.6
							c-0.1-0.1-0.4,0.3-0.3,0.1c0.5-0.4,0.7-0.3,0.8-0.7c-0.3,0.3-0.5,0.2-0.6,0.1l0.4-0.3l0,0.1c0.7-0.4,0.1-0.3,0.7-0.7l0.4-0.1
							c0,0.3-0.9,0.7-0.6,0.8c0.4-0.3,0.4-0.5,0.8-0.8c-0.1,0.1-0.2,0.2-0.2,0.3c0.1-0.1,0.5,0,0.9-0.6c0.2-0.3,0-0.1-0.1-0.2
							c0.6-0.6,0.6-0.8,1-1.2c0.1,0.2,0.6-0.7,0.4-0.1c-0.3,0.1-1,1-1.1,1.3c0.4,0-0.5,0.4-0.5,0.7c0.5-0.4,0.6-0.2,0.8-0.2
							c0.1-0.1,0.2-0.3,0.3-0.4c0-0.2-0.2,0-0.3-0.1c0.5-0.5,0.9-1.1,1.1-1.5c0.2-0.1,0.3,0,0.1,0.2c0.6-0.6,1.1-1.4,1.6-2.1
							c-0.3,0.1-0.1,0,0-0.2c0.1-0.2,0.3-0.5,0.1-0.3c-0.3,0.4-0.6,0.5-0.6,0.3c0.2-0.2,0.1,0.1,0.2,0c0.1-0.3,0.5-0.3,0.5-0.7
							c-0.3,0.7,0.2,0.3,0.2,0.5c0.2-0.5,0.1,0.1,0.4-0.4c0.2-0.5,0.5-1.2,0.7-1.8c0.2-0.3,0.5-0.8,0.7-1.2c0.2-0.5,0.3-0.9,0.4-1.3
							c0.2-0.3,0.3,0,0.5-0.4c0.2-0.5-0.3,0.3,0-0.4l0,0.1c0.1-0.2,0.5-1.2,0.3-1.5l0.2,0.3c0.1-0.1,0-0.3,0-0.4
							c0.1,0,0.2-0.1,0.2,0.1c0.2-0.4,0.2-0.9,0.3-1.4c-0.1,0.1-0.1,0.2-0.2,0.3c0-0.8,0.2-1.3,0.3-2.1l0.1,0c0-0.2,0-0.3,0-0.5
							c0.1,0.1,0.2-0.3,0.1-0.6c0.1,0.4,0.2,0.8,0.2,1.3c-0.1,0.3-0.1-0.4-0.3-0.2c-0.1,0.2-0.2,0.9-0.1,1c0.1-0.3,0-0.3,0-0.5
							c0.2-0.1,0.1,0.4,0.2,0.6c0-0.1,0.1-0.3,0.1-0.4c0,0.3,0,0.6-0.1,1.1c0-0.3-0.1,0.2-0.2,0c0.2,0.1,0.1,0.5-0.1,1.1
							c-0.3,0.4-0.1,1.1-0.4,1.8c0-0.3-0.1-0.7,0-1.1c-0.2,0.4-0.1,0.5-0.3,0.9c0,0.2,0.2,0.4,0,1l-0.1,0c-0.1,0.5,0,0.6-0.2,1.2
							c-0.6,1-1,2.1-1.5,2.8l-0.1,0c0,0.5-0.7,1.4-1.1,2c-0.4,0.4-0.7,0.9-1,1.3c-0.3,0.4-0.7,0.8-0.9,0.9c-1.2,1.5-2.5,2.7-4.2,3.8
							l0.2-0.3c-0.2,0.3-0.2,0.1-0.5,0.3c0.4-0.1-0.3,0.4-0.5,0.6c-0.4,0.2-0.9,0.5-1.3,0.7c-0.4,0.2-0.9,0.5-1.2,0.8l-0.1-0.1
							c-0.6,0.6-1.6,0.7-2.6,1c-0.1,0-0.3,0-0.6,0.1c-0.5,0.3-0.8,0.4-1.5,0.7c-0.6,0.2-1.5,0.2-2.1,0.3c-1.1,0.4-2.2,0.3-3.3,0.4
							c-0.6,0-1.1,0-1.7-0.1l-0.9,0l-0.9-0.1l-0.1-0.2c-0.6,0-1.2,0-1.8-0.2c-0.6-0.1-1.2-0.3-1.8-0.4c-0.6-0.1-1.1-0.4-1.7-0.6
							c-0.5-0.2-1-0.4-1.5-0.5l0.3-0.1c-0.5-0.3-1.3-0.5-1.2-0.3c-0.5-0.3-1.4-0.6-1.6-1c-0.5-0.4-0.7-0.3-1.2-0.5
							c-0.9-0.8-1.3-1-2.3-1.8l0.2,0.2c0.1,0,0.2,0,0-0.2c-0.4-0.2-1.1-1.1-1-0.6c-0.2-0.2-0.5-0.5-0.7-0.7
							c-0.2-0.3-0.5-0.5-0.7-0.8c-0.3-0.3-0.5-0.5-0.7-0.8c-0.2-0.3-0.4-0.6-0.5-0.8c0,0.1-0.2-0.1-0.3-0.2
							c-0.7-0.9-1.1-1.9-1.7-2.6c-0.1-0.2,0.3,0.2,0-0.2c-0.2-0.2-0.1,0-0.3-0.2c-0.4-0.8-0.8-1.6-1.1-2.4c-0.2-0.9-0.5-1.7-0.7-2.4
							c-1-2.7-1.2-5.8-1.1-8.5l0.1,0c-0.2-0.9,0.4-2.1,0.2-2.9c0.1-0.2,0.1-0.8,0.2-0.6c-0.1-0.7,0.4-2,0.5-3c0,0.1,0,0.1,0,0.3
							c0.3-1,0.4-1.9,0.7-3c0,0.1,0,0.3,0,0.4c0.2-0.4,0-1,0.3-1.2c0.1-0.2-0.1-0.2-0.1-0.1c0.7-2.3,1.3-4.8,2.2-7.2
							c0.8-1.6,0.5,0.1,0.8-1.3c0.1-0.1-0.1-0.1,0-0.1c0.1-0.5,0.6-0.7,0.6-1.1c-0.2,0.1,0-0.3-0.1-0.3c0.5-1,0.8-1.1,1-1.9l0.1,0.1
							c0.2-1,0.8-2,1-2.9c1.3-2.5,2.7-4.9,4.3-7.1c1.7-2.2,3.5-4.3,5.9-6c2.3-1.6,5.3-2.6,8.3-2.3c1.5,0.2,2.9,0.6,4.2,1.3
							c1.3,0.7,2.5,1.5,3.5,2.5c0.8,1.1,0.9,1.1,2,2.1c-0.1,0-0.1-0.1-0.1,0c0.2-0.1,0.7,0.7,0.9,0.7c1.3,1.6,2.5,3.1,3.6,4.9
							c-0.2-0.3-0.4-0.3-0.2,0l0.3,0.3l0,0.1c0.2,0.2,0.4,0.4,0.3,0.1c2.9,4.5,4.6,9.4,6.3,14.3c0.3,1.2,0.9,2.8,1.2,4.1
							c0.7,3.9,1.2,7.4,1.4,11.4c0,0-0.1-0.1-0.3-0.5C70.2,55.3,70.1,54.8,70,54z"/>
						<path fill="#808181" d="M70.1,57.3c-0.1,0.1-0.2,0.6-0.3,0.2C69.9,57.5,70,57.3,70.1,57.3z"/>
						<path fill="#808181" d="M65.7,68.3c0,0-0.1,0.1-0.2,0.1c0.1-0.1,0.1-0.3,0.2-0.4C65.6,68.3,65.7,68.3,65.7,68.3z"/>
						<path fill="#808181" d="M63.9,70.8c0-0.1,0.3-0.6,0.5-0.9L63.9,70.8z"/>
						<path fill="#808181" d="M61.8,72.6c-0.2,0.1-0.2,0,0-0.2C61.9,72.4,61.8,72.5,61.8,72.6z"/>
						<path fill="#808181" d="M61.8,72.8c-0.2,0.2-0.3,0.2-0.4,0.2C61.4,73.1,61.7,72.7,61.8,72.8z"/>
						<path fill="#808181" d="M56.8,76.2c-0.1,0.1-0.4,0.3-0.5,0.2C56.5,76.4,56.9,76,56.8,76.2z"/>
						<path fill="#808181" d="M54.4,77.4c-0.1,0-0.1,0-0.2,0.1c-0.2,0,0-0.1,0.1-0.2L54.4,77.4z"/>
						<polygon fill="#808181" points="23.2,50.1 23.2,50.4 23.1,50.3 						"/>
						<path fill="#808181" d="M30.9,28.6c0.1-0.3,0.2-0.1,0.2-0.2C31,28.7,31.1,28.3,30.9,28.6z"/>
						<polygon fill="#808181" points="38.2,18.8 38.2,18.8 38.1,18.7 						"/>
					</g>
				</g>
			</g>
		</g>
	</g>
	<g>
		<g>
			<g>
				<g>
					<g>
						<path fill="#808181" d="M40.1,76.7C40.1,76.6,40.1,76.6,40.1,76.7L40.1,76.7L40.1,76.7z"/>
						<path fill="#808181" d="M39.7,76.3c-0.1,0-0.2,0.1-0.2,0.2C39.7,76.4,39.7,76.5,39.7,76.3c0.1,0.1,0.1,0.1,0.1,0.2
							c0,0,0.1,0.1,0.1,0C39.9,76.4,39.8,76.4,39.7,76.3C39.7,76.4,39.7,76.3,39.7,76.3z"/>
						<path fill="#808181" d="M34.6,73.6L34.6,73.6C34.7,73.6,34.6,73.6,34.6,73.6z"/>
						<path fill="#808181" d="M31.9,71.3C31.9,71.3,31.9,71.3,31.9,71.3C31.9,71.3,31.9,71.3,31.9,71.3z"/>
						<path fill="#808181" d="M31.5,70.8C31.5,70.8,31.5,70.8,31.5,70.8C31.5,70.8,31.5,70.8,31.5,70.8z"/>
						<path fill="#808181" d="M34.6,73.6L34.6,73.6C34.6,73.5,34.6,73.5,34.6,73.6z"/>
						<path fill="#808181" d="M38.9,76.2C38.9,76.2,39,76.2,38.9,76.2L38.9,76.2L38.9,76.2z"/>
						<path fill="#808181" d="M36,74.3L36,74.3C36.1,74.3,36.1,74.3,36,74.3L36,74.3z"/>
						<path fill="#808181" d="M37.1,74.9C37.1,74.9,37,74.9,37.1,74.9C37,74.9,37.1,74.9,37.1,74.9C37.1,74.9,37.1,74.9,37.1,74.9z"
							/>
						<path fill="#808181" d="M38.8,75.8L38.8,75.8L38.8,75.8z"/>
						<path fill="#808181" d="M35.3,73.9C35.3,73.8,35.3,73.8,35.3,73.9C35.3,73.8,35.3,73.8,35.3,73.9z"/>
						<path fill="#808181" d="M27.8,43.4C27.8,43.4,27.8,43.5,27.8,43.4C27.8,43.4,27.8,43.4,27.8,43.4z"/>
						<polygon fill="#808181" points="28.7,42.3 28.7,42.3 28.8,42.3 						"/>
						<path fill="#808181" d="M30.8,69.9L30.8,69.9C30.8,70,30.8,69.9,30.8,69.9z"/>
						<path fill="#808181" d="M26.4,60.9c0,0.1-0.1-0.2-0.2,0C26.2,60.9,26.3,61.1,26.4,60.9z"/>
						<path fill="#808181" d="M38.9,76.2L38.9,76.2C38.9,76.2,38.9,76.2,38.9,76.2z"/>
						<polygon fill="#808181" points="26.2,60.9 26.2,60.9 26.2,61 						"/>
						<path fill="#808181" d="M29.2,67.9C29.2,68,29.2,68,29.2,67.9C29.2,68,29.2,68,29.2,67.9z"/>
						<path fill="#808181" d="M30.3,69.5L30.3,69.5C30.2,69.5,30.2,69.5,30.3,69.5z"/>
						<path fill="#808181" d="M28.6,67.2C28.6,67.1,28.6,67.1,28.6,67.2C28.5,67.1,28.5,67.1,28.6,67.2
							C28.6,67.1,28.6,67.1,28.6,67.2z"/>
						<polygon fill="#808181" points="28.1,66.3 28.1,66.3 28.1,66.3 						"/>
						<path fill="#808181" d="M26.8,46.5C26.8,46.5,26.9,46.5,26.8,46.5C26.8,46.5,26.9,46.3,26.8,46.5z"/>
						<path fill="#808181" d="M38.9,76.2C38.9,76.2,38.9,76.2,38.9,76.2L38.9,76.2C38.9,76.2,38.9,76.2,38.9,76.2z"/>
						<path fill="#808181" d="M28,67.5l-0.1-0.2C27.9,67.4,28,67.4,28,67.5z"/>
						<path fill="#808181" d="M25.4,53.9L25.4,53.9C25.4,53.9,25.4,53.9,25.4,53.9z"/>
						<path fill="#808181" d="M27.7,66.9c0,0,0-0.1,0-0.1c0,0,0,0,0,0L27.7,66.9z"/>
						<path fill="#808181" d="M26.9,46.5L26.9,46.5L26.9,46.5z"/>
						<path fill="#808181" d="M27,45.4c-0.1,0.2,0.1,0.1,0.1,0.2c0,0.2-0.1,0.1-0.2,0.1c0,0.1,0.1,0.2,0,0.3c0,0,0,0,0,0
							c0,0.1-0.1,0.4,0,0.5c0,0,0,0,0,0c0.1,0,0.1,0,0.1,0c0,0.1,0,0.1,0,0.2c0,0,0-0.1,0-0.1l0,0.1c-0.1,0,0-0.1-0.1-0.1
							c0,0.1,0,0.3,0,0.4c-0.1,0,0-0.3-0.1-0.1l0.1-0.2c-0.2,0.1,0-0.1-0.2,0c-0.1,0.2,0,0.3-0.1,0.5c0,0.1,0.1,0,0.1,0.1
							c0,0.3-0.3,0.2-0.2,0.4c0,0.1,0.2,0.1,0.1,0.3l-0.1-0.1c-0.1,0.2,0.1,0.2,0,0.4c0-0.1,0-0.2,0-0.1c-0.1,0.1,0,0.1,0,0.2
							l-0.1,0c0,0.2,0,0.5-0.1,0.8c0,0,0-0.1-0.1,0c0,0.3-0.2,0.7-0.3,1l0.1,0.1c0,0,0,0-0.1,0c-0.1,0.1,0.1,0,0.1,0.1
							c0,0.1-0.1,0.1-0.1,0c0,0.2,0,0.6-0.1,0.9l0,0c-0.1,0.2,0.1,0.2,0,0.4l0,0c-0.1,0.4-0.1,0.8-0.2,1.1c0.1,0.1-0.1,0.4,0.1,0.4
							c-0.1,0.2-0.1,0.1-0.2,0.4c0,0.1,0.1,0.1,0.1,0.2l-0.1,0l0.1,0.1l-0.1,0.1l0,0.1c0,0,0-0.1,0.1-0.1c0,0.2-0.1,0.4-0.1,0.4
							l0,0.4c0,0,0-0.1-0.1-0.1c0.1,0.2-0.1,0,0,0.2c0,0,0.1,0,0.1,0c-0.1,0.1-0.1,0.3,0,0.4l-0.1,0c0,0.3,0,0.6,0,0.9
							c0-0.1,0.1-0.1,0.1,0l-0.1,0c0.1,0.1,0-0.1,0.1,0c0,0.1-0.1,0.1-0.1,0l0,0.1c0,0,0,0-0.1,0c0.1,0.1-0.1,0.2,0,0.3l0,0
							c0,0.3,0,0.4,0,0.7c0.1,0,0.1,0.1,0.1,0.2c0,0.2-0.1,0.4-0.1,0.6c0.1,0.1,0.1,0,0.1,0.1c-0.1,0-0.1,0.2-0.1,0.1
							c0,0.3,0,0.3,0.1,0.7c0,0,0-0.1,0.1-0.1c0,0.1,0,0.1-0.1,0.1l0,0c0.1,0.4-0.1,0.9,0.1,1.1l0,0l0.1,0.3c0,0.1-0.1-0.1-0.1,0
							c0.2,0.3,0.1,0.5,0.2,0.8c-0.2,0.2,0.1,0.7,0.1,1l0,0c0.1,0.1,0,0.1,0,0.1c0,0,0-0.1,0.1-0.1c0.2,0.6,0.2,1.3,0.4,1.9
							c0.1,0.2,0.3,0,0.3,0.4l-0.1,0c0.2,0.4,0.4,0.9,0.6,1.3c0,0-0.1,0-0.1,0c0,0.1,0.1,0.3,0.2,0.3c0,0.1,0,0,0,0.1
							c0,0.1,0.2,0.2,0.1,0.3c0,0,0,0,0,0c0.1,0,0.1,0.3,0.2,0.2c0,0.2,0.2,0.3,0.2,0.4c0.1,0,0.1,0.3,0.2,0.2
							c-0.1,0.1,0.1,0.3,0.2,0.4c-0.1,0,0,0.1-0.1,0.1c0.1,0.1,0.1,0.2,0.2,0.1c0,0.3,0.4,0.3,0.3,0.5c0.3,0.3,0.5,0.5,0.7,0.8
							c-0.1,0.1-0.2-0.3-0.3-0.2c0.2,0.2,0.4,0.3,0.6,0.6c0,0.1-0.1,0-0.1,0c0.2,0.2,0.4,0.5,0.6,0.7c0,0,0,0-0.1,0
							c0,0,0.1,0.1,0.1,0.1l0,0c0-0.1,0.3,0.1,0.3,0c-0.2,0,0.1,0.2-0.1,0.3c0,0,0.1,0,0.1,0c0,0,0,0.1,0,0.1c0.2,0.1,0.2,0,0.3,0.2
							c0,0-0.1,0-0.1,0c0.1,0,0.2,0.1,0.3,0.2c0,0,0,0-0.1,0c0.2,0.2,0.4,0.2,0.6,0.5c-0.1,0,0,0.1,0,0.2l0.1,0.1l0-0.1
							c0.1,0.1,0.2,0.1,0.3,0.2l-0.1,0l0.2,0.2l-0.1-0.1c0.1,0,0.1-0.1,0.2,0c0,0,0.1,0.1,0.1,0.2l0,0c0.1,0,0.1,0,0.2,0.1
							c0,0-0.1,0.1-0.1,0.1c0.1,0,0.3,0.2,0.4,0.2c0,0-0.1,0-0.1,0.1l0.1,0c0,0.1,0,0.1,0,0.1c0.1,0.1,0-0.1,0.2,0c0,0,0,0-0.1,0
							c0.1,0.2,0.3,0.2,0.5,0.4c0,0.1-0.2-0.1-0.2,0c0.2,0.2,0.6,0.3,0.8,0.4l0,0c0.1-0.1,0.1,0.2,0.3,0.2c0,0-0.1,0-0.1,0
							c0.1,0.1,0.3,0.2,0.6,0.3l-0.1,0c0.1,0.1,0.2,0.2,0.3,0.3c0.1,0,0.1,0,0.1,0c0.2,0.4,0.7,0.3,0.9,0.6c0,0-0.1,0-0.1,0l0.3,0.1
							c0-0.1,0-0.1,0-0.1c0.1,0,0.1,0,0.2,0c-0.1,0-0.1,0.1,0,0.2c0,0,0,0,0-0.1c0.1,0.2,0.1-0.1,0.2,0.1l0,0c0.1,0,0.2,0,0.2,0.1
							c0,0.1-0.1,0-0.1,0c0.1,0,0.3,0,0.3,0.1c-0.1,0-0.1,0-0.2,0c0.1,0.1,0.1,0.1,0.2,0.2l0,0l0.2,0.1l0,0c0.2-0.1,0.3,0.1,0.5,0.1
							c-0.2,0-0.1,0.1-0.1,0.1c0,0,0.1,0.1,0.1,0.1c0.1,0,0.1,0.1,0.3,0.1c0,0,0.1,0,0,0.1c0.1,0,0-0.1,0-0.1c0.2,0,0.3,0.3,0.6,0.3
							c0.2,0,0.3,0,0.5,0c0,0.1-0.1,0.1-0.1,0.1c0.1,0.1,0.2,0.1,0.3,0.1c0,0,0,0,0,0.1c0.1,0,0.1-0.1,0.2,0c0,0-0.1,0.1-0.1,0.1
							c0.1,0,0.2,0,0.3,0c0,0.1-0.1,0-0.1,0.1c0.1,0,0.3,0.1,0.4,0l-0.1-0.1c0,0,0,0.1,0,0.1c-0.1,0-0.1-0.1-0.1-0.1l0.1,0
							c0-0.2-0.3-0.1-0.4-0.2l0.1-0.1l-0.2,0c0,0,0-0.1,0.1-0.1c-0.1-0.1-0.1,0-0.2-0.1c0,0,0,0,0,0l-0.1,0c0,0,0-0.1,0.1,0
							c-0.1-0.1-0.3,0-0.4-0.1l0,0c-0.3-0.1-0.1,0.1-0.3,0.1l0-0.2L38,75.5c0,0-0.1,0,0-0.1c-0.1,0,0,0-0.1,0.1
							c-0.1-0.1-0.3-0.1-0.3-0.3c-0.1,0,0.1,0.1-0.1,0.1c0-0.2-0.2-0.1-0.2-0.2c0.1-0.1,0.2,0,0.1-0.1c-0.1,0.1-0.2-0.1-0.3-0.2
							c-0.1,0.1-0.2-0.1-0.4-0.1c0,0-0.3-0.2-0.4-0.3l0,0c-0.1,0.1-0.2,0-0.3-0.1c0-0.1,0.1-0.1,0.1-0.1l-0.1-0.1c0,0-0.1,0-0.1,0
							l0.1-0.1c-0.1-0.1-0.3-0.1-0.4-0.2c0,0.1,0,0.3-0.2,0.2c0,0,0-0.1,0.1-0.1c0,0-0.1,0-0.1,0l0.1,0c-0.1-0.1-0.1,0-0.1,0
							c0,0,0-0.1,0-0.1c0,0,0,0.1,0.1,0c-0.1,0-0.1-0.1-0.1-0.2c0,0,0,0.1-0.1,0c-0.1-0.1,0-0.1-0.1-0.2c-0.1,0-0.1-0.1-0.2,0
							c0,0,0-0.1,0-0.1c-0.1,0-0.3-0.2-0.3-0.1l0,0l0,0l0,0l0,0c-0.3-0.1-0.4-0.3-0.6-0.5l0,0c-0.1-0.1-0.3-0.2-0.4-0.2
							c0,0-0.1-0.1,0-0.1c-0.1-0.1-0.1,0-0.2-0.2c0.1,0,0-0.1,0.1,0c-0.1-0.1-0.1-0.2-0.3-0.2c0.1,0,0-0.1-0.1-0.2l0.1,0.1
							c-0.1,0-0.1-0.1-0.2-0.1l0.1-0.1c-0.2-0.3-0.5-0.2-0.6-0.5c-0.1,0,0.1,0.1,0,0.2c-0.1-0.1-0.1-0.3-0.1-0.3
							c-0.1-0.2-0.2,0-0.4-0.2c0,0,0,0.1-0.2,0.1c-0.1-0.1,0-0.2,0.1-0.2c0,0,0,0,0,0c0,0,0.1,0,0.1,0l0,0c0-0.1-0.2-0.2-0.1-0.2
							c-0.1,0-0.1,0,0,0.1c-0.1-0.1-0.2-0.2-0.3-0.3c0,0,0,0.1,0,0.1c-0.2-0.2-0.1,0-0.3-0.2c0-0.1,0.1-0.1,0-0.2
							c-0.1-0.1,0-0.1,0.1-0.1c-0.2-0.1-0.2-0.3-0.2-0.3l0.1,0c0,0-0.1-0.1-0.1-0.1l0,0.1c0,0-0.1-0.1,0-0.1c-0.1,0-0.1,0.1-0.2,0.1
							c0-0.1-0.2-0.1-0.1-0.2c0.1,0.2,0.1-0.1,0.2,0c0,0-0.1,0-0.1-0.1c0,0,0,0,0,0c-0.1-0.2-0.1,0-0.3-0.2c0.1,0,0-0.1,0-0.1
							c0.1,0.1,0,0.1-0.1,0.1c-0.1-0.1-0.1-0.1-0.2-0.2l0,0.1c-0.1,0-0.1,0-0.2-0.1c0,0,0.1,0.1,0.1,0c-0.1,0-0.1-0.2-0.2-0.3
							c0-0.1,0.1-0.1,0.1-0.1c-0.2-0.1-0.1-0.2-0.2-0.3c0,0.1,0,0.1-0.1,0l0.2,0.2l-0.2-0.1c0.1,0.1,0.1,0.1,0.2,0.2
							c-0.1,0-0.1,0-0.1,0c0-0.2-0.2-0.1-0.2-0.3l0.1-0.1c-0.1-0.2-0.3-0.2-0.4-0.5l0,0.1c-0.1,0-0.1-0.1-0.2-0.2c0.1,0,0-0.1,0-0.1
							c0,0-0.1-0.2-0.2-0.1l0-0.1c-0.1-0.2-0.3-0.1-0.4-0.3c0.1,0,0.1-0.1,0.2,0c0-0.1-0.1-0.1-0.1-0.1c0,0-0.2-0.1-0.1-0.2
							c0,0-0.1,0-0.1-0.1c0,0,0,0,0,0c0,0-0.1-0.1-0.1,0c0.1-0.3-0.3-0.5-0.3-0.8c-0.1-0.1-0.2-0.3-0.3-0.4c0,0,0,0,0,0
							c0-0.2-0.2,0-0.2-0.3c0-0.1,0.1,0.1,0.1,0c0.2-0.1-0.1-0.2-0.1-0.4l0,0c0-0.1-0.2-0.2-0.2-0.4c0,0,0,0,0,0
							c-0.1-0.1-0.3-0.3-0.3-0.4c0.1,0,0.1,0.1,0.1,0c0-0.1-0.1,0.1-0.2-0.1c0-0.1,0-0.2,0.1-0.2l0.1,0.1c0.1-0.1-0.1-0.2-0.1-0.3
							l0,0c-0.1-0.2-0.2-0.2-0.3-0.4l0,0c-0.2-0.1,0-0.1-0.1-0.2l0.1-0.1c-0.1-0.1-0.2-0.3-0.3-0.4c0.1,0.1,0.2,0.2,0.3,0.3
							c0-0.1-0.1-0.3-0.2-0.3c0,0,0.1,0.1,0,0.1c-0.1-0.1-0.2-0.2-0.2-0.4c0.2,0-0.1-0.5,0.1-0.6c-0.2-0.3-0.1-0.6-0.2-0.9
							c-0.1,0.2,0-0.1-0.2,0c0-0.1,0-0.1,0-0.1l0.1-0.3c0-0.1,0.1,0.1,0.1,0.1c0-0.2,0.1-0.1,0.1-0.2c-0.1,0-0.1,0-0.1-0.2l-0.1,0.2
							c-0.1-0.2,0.1-0.2,0-0.5l0.1,0.1c0-0.1-0.1-0.5-0.2-0.6c0,0,0.1-0.1,0.1,0c0-0.3-0.2-0.7-0.2-0.9l0,0c0-0.1-0.1-0.1,0-0.2
							c0,0,0,0,0,0c0,0-0.1-0.1-0.1-0.2l0.1,0.1c0-0.3-0.1-0.5-0.2-0.7c0.1,0,0.2-0.2,0.2-0.4l0,0c0-0.4-0.1-0.6-0.2-0.9
							c0.1-0.2,0.1-0.7,0.2-1c0,0-0.1,0-0.1-0.1c0-0.1-0.1-0.2,0-0.2l0,0c0.1-0.1,0.1-0.2,0.1-0.3l-0.2,0c0.2-0.3,0-0.9,0.2-1
							c0-0.1,0-0.2-0.1-0.3l0.1,0c0-0.2,0.1-0.3,0.1-0.6l0.1,0.1c0-0.1-0.2-0.2-0.2-0.4l0.1,0c0-0.3,0.2-0.5,0.1-0.8
							c0,0,0.1,0,0,0.1c0-0.1,0.2-0.5,0-0.4c0.1,0,0.1-0.3,0-0.4l0.1,0c-0.1-0.1-0.1-0.1-0.1-0.3c0,0,0.1,0,0,0
							c0.1-0.1-0.1-0.1,0-0.3l0,0.1c0-0.1,0-0.1,0-0.2c0-0.1,0.1-0.3,0.1-0.3c0,0-0.1-0.1,0-0.2c0,0,0,0,0,0c0.1-0.2,0-0.4,0.1-0.5
							c0,0,0,0,0.1,0c0,0.2-0.1,0.3-0.1,0.3c0.1,0,0.1-0.1,0.2,0c0-0.1-0.1-0.4,0-0.5c0,0,0,0,0,0l0,0c0,0,0-0.1,0-0.1
							c0,0,0-0.1,0-0.1c0.1,0,0.1-0.2,0.1-0.2c-0.1,0,0-0.1-0.1,0c0,0,0,0,0,0.1c0,0,0,0,0,0l0,0c0,0,0,0.1,0,0.2c0-0.1,0-0.1,0-0.2
							c0,0-0.1-0.1-0.1-0.1c0.1-0.1,0.2-0.2,0.3-0.3c0-0.2,0.1-0.5,0-0.7c0-0.1,0.1-0.1,0.1-0.1c0,0,0,0.1,0,0.1
							c0-0.1,0.1-0.4,0-0.4c0.1-0.1,0.1,0.1,0.1-0.1l0,0c0.3-0.4-0.1-0.8,0.3-1.2c0,0,0,0-0.1,0c0.3-0.5,0.3-1.1,0.6-1.6
							c0.1-0.1,0-0.2,0-0.3l0.1,0l0-0.2c0-0.2,0.3-0.3,0.3-0.6l-0.1,0c0-0.1,0.1-0.3,0.1-0.3c0,0,0-0.1,0-0.1l0,0l0-0.3
							c0.1-0.2,0.2,0.1,0.3-0.2c0-0.1,0-0.3,0-0.3c0,0-0.1,0.1-0.1,0.1l0-0.1c-0.1-0.1-0.2-0.2-0.4,0l0,0.2l-0.1,0l0.1-0.1
							c-0.1,0.1-0.1,0.1,0,0.2c0,0-0.1,0-0.1,0l0.1,0.2c-0.1,0-0.1-0.1-0.1,0c0,0.1,0.1,0,0.1,0.1c-0.1,0.1-0.1,0-0.1,0.1
							c0,0,0,0,0-0.1c0,0.1-0.1,0.2,0,0.3c-0.1,0.1-0.1,0.3-0.2,0.2c0,0,0,0.2,0,0.3c-0.1-0.2-0.1,0.3-0.3,0.2
							c0.1,0.1-0.1,0.4-0.1,0.6c0,0,0,0,0-0.1c0,0.1-0.1,0.1-0.1,0.2c0.1,0.1,0.1,0.2,0.1,0.3c-0.1,0.1-0.1-0.1-0.2-0.1
							c0.1,0,0,0.2,0.1,0.2c-0.1,0.1-0.1,0.1-0.2,0.1c0.1,0.1,0,0.1,0,0.2C27.1,45.4,27.1,45.3,27,45.4C27,45.5,27,45.4,27,45.4z
							 M26.3,49L26.3,49C26.3,49,26.3,49,26.3,49C26.3,49,26.3,49,26.3,49z M26.2,49.3c0,0,0-0.1,0-0.1
							C26.3,49.2,26.3,49.2,26.2,49.3C26.3,49.2,26.2,49.3,26.2,49.3z M26.9,48.8C26.9,48.9,26.9,48.9,26.9,48.8
							C26.9,48.9,26.9,48.8,26.9,48.8L26.9,48.8C26.9,48.8,26.9,48.8,26.9,48.8z"/>
						<path fill="#808181" d="M26.8,48.7C26.8,48.7,26.8,48.7,26.8,48.7L26.8,48.7L26.8,48.7L26.8,48.7z"/>
						<path fill="#808181" d="M34.7,73.6L34.7,73.6C34.7,73.6,34.7,73.6,34.7,73.6L34.7,73.6z"/>
						<polygon fill="#808181" points="25.4,53.6 25.4,53.6 25.4,53.6 						"/>
						<path fill="#808181" d="M36,74.7C36,74.7,36,74.7,36,74.7C36,74.8,36,74.7,36,74.7z"/>
						<path fill="#808181" d="M36.6,75.1L36.6,75.1C36.7,75.1,36.7,75.1,36.6,75.1z"/>
						<path fill="#808181" d="M37.1,75.4C37.1,75.4,37.2,75.4,37.1,75.4L37.1,75.4L37.1,75.4z"/>
						<path fill="#808181" d="M29.9,69.9L29.9,69.9C29.8,69.9,29.8,69.9,29.9,69.9z"/>
						<path fill="#808181" d="M31.9,71.7C31.9,71.7,31.8,71.7,31.9,71.7C31.8,71.8,31.9,71.8,31.9,71.7z"/>
						<polygon fill="#808181" points="28,67.5 28,67.5 28,67.5 						"/>
						<path fill="#808181" d="M31.7,71.6C31.7,71.7,31.8,71.7,31.7,71.6C31.8,71.7,31.7,71.6,31.7,71.6z"/>
						<path fill="#808181" d="M39.4,76.4L39.4,76.4C39.4,76.4,39.4,76.4,39.4,76.4L39.4,76.4z"/>
						<path fill="#808181" d="M39.4,76.4L39.4,76.4C39.4,76.4,39.4,76.4,39.4,76.4z"/>
						<path fill="#808181" d="M39.5,76.4L39.5,76.4C39.5,76.5,39.5,76.5,39.5,76.4z"/>
						<path fill="#808181" d="M38.7,76.1L38.7,76.1C38.7,76.1,38.7,76.1,38.7,76.1z"/>
						<path fill="#808181" d="M38.5,76c0,0,0.1,0.1,0.2,0.1l0,0C38.6,76.2,38.5,76,38.5,76z"/>
						<path fill="#808181" d="M37.8,75.3l0.2,0.1c0,0,0-0.1,0-0.1C37.8,75.1,38,75.4,37.8,75.3z"/>
						<path fill="#808181" d="M37.3,75C37.4,75,37.3,75,37.3,75C37.2,74.9,37.2,74.9,37.3,75z"/>
						<path fill="#808181" d="M33.6,72.8L33.6,72.8C33.6,72.7,33.7,72.7,33.6,72.8z"/>
						<path fill="#808181" d="M32.7,72.6L32.7,72.6l0.1,0.1C32.8,72.6,32.8,72.6,32.7,72.6z"/>
						<polygon fill="#808181" points="32.7,71.9 32.7,71.9 32.6,71.8 						"/>
						<path fill="#808181" d="M28.2,66.4L28.2,66.4C28.2,66.5,28.3,66.5,28.2,66.4z"/>
						<path fill="#808181" d="M26.9,63.6c0,0,0-0.1,0-0.2C26.9,63.5,26.9,63.6,26.9,63.6z"/>
						<polygon fill="#808181" points="26,54.5 26.1,54.5 26,54.4 						"/>
					</g>
				</g>
			</g>
		</g>
	</g>
</g>
</svg>
