<?xml version="1.0" encoding="utf-8"?>
<!-- Generator: Adobe Illustrator 23.1.0, SVG Export Plug-In . SVG Version: 6.00 Build 0)  -->
<svg version="1.1" id="Capa_1" xmlns="http://www.w3.org/2000/svg" xmlns:xlink="http://www.w3.org/1999/xlink" x="0px" y="0px"
	 viewBox="0 0 89.2 89.2" enable-background="new 0 0 89.2 89.2" xml:space="preserve">
<g>
	<path fill="#F8E8A1" d="M73.2,47.3c1.3-11.6-5.6-23.8-17.2-27.1c0-0.1-0.1-0.2-0.2-0.2c-10.6-3.1-21.9,0.8-28.8,9.1
		c-0.9,1-1.7,2.1-2.4,3.3c-0.1,0-0.2,0.1-0.1,0.2c-0.3,0.4-0.5,0.8-0.7,1.2c-0.1,0-0.1,0.1-0.1,0.1c-1.7,3.1-2.9,6.5-3.3,10.1
		c-0.2,1.5-0.1,2.9,0,4.2c-0.1,0.1,0,0.2,0,0.3c0.5,3.6,2,7,4.2,10.1c3.2,4.7,7.2,8.6,12.5,10.7c0.6,0.2,1.2,0.4,1.8,0.6
		c0,0.1,0.3,0.2,0.4,0.1c4.2,1.3,8.7,1.5,12.9,0.8c5.6-1,10.3-3.4,14-7.7C69.9,58.8,72.6,53.2,73.2,47.3z"/>
</g>
<g>
	<g>
		<g>
			<g>
				<g>
					<g>
						<path fill="#808181" d="M35.4,29.1C35.4,29.2,35.5,29.2,35.4,29.1C35.4,29.2,35.3,29.1,35.4,29.1z"/>
						<path fill="#808181" d="M45.4,28.6c-0.2-0.5,0.4-0.5,0.4-0.9c0,0,0.2,0.2,0.2,0.1c0-0.4,0.4-0.6,0.9-0.6l0,0.1
							c0.1,0,0-0.2,0.1-0.2c0,0,0,0.1,0.1,0.1C47,27,47.1,27,47,26.9c0.1,0,0.1,0.1,0.2,0.1l-0.1-0.1c-0.1-0.4,0.2-0.1,0.2-0.4
							c0,0,0,0.1,0.1,0.1c0.1-0.3,0.3-0.5,0.5-0.7c0,0,0.1,0.1,0.2,0.1C48,26,48,25.9,48,25.9c0.2,0.1-0.1-0.1,0.1-0.1l0,0
							c-0.2-0.1,0.2,0,0-0.1l0.2,0c-0.3-0.1,0.2,0,0.1-0.1l-0.1,0c0,0,0.1,0,0.1,0l0,0c0-0.1,0.2-0.1-0.1-0.1c0.3,0,0,0.1,0.4,0.1
							c0-0.2,0.3-0.4,0.6-0.5c0.1,0,0.1,0,0.1,0c0.1,0,0.2,0,0.3,0c-0.1,0,0-0.1-0.2,0c0,0,0.2,0,0.2,0c0.1,0-0.5,0-0.4,0
							c0.1,0,0.3,0,0.4-0.1c-0.4,0-0.4,0-0.6,0c0.1,0,0.1,0,0.3,0c-0.4,0-0.1-0.1-0.3,0l0.2,0c0.1-0.1-0.5,0.1-0.4,0
							c0.1,0,0.2,0,0.2-0.1c-0.5,0.1-0.4,0-0.6,0c0,0,0.1,0,0.1,0c-0.1,0-0.1-0.1-0.3-0.1c0,0,0.4-0.2,0.2-0.2
							c-0.3,0.1-0.3,0-0.5,0.2c0,0,0-0.1-0.2-0.1c0.1-0.1,0.3-0.2,0.3-0.2l0.1-0.1c0.1-0.1,0,0,0.1,0c-0.1,0-0.2,0-0.2,0
							c-0.2,0.1-0.5,0.3-0.6,0.3c0.1-0.1,0.2-0.2,0.2-0.2c-0.2,0.1-0.3,0.2-0.4,0.3c0,0,0.1-0.2,0-0.1c0,0.1-0.1,0.1-0.1,0.1
							c0,0-0.1,0,0-0.2c0-0.1,0.1,0,0.1-0.1c-0.1,0-0.1,0.1-0.1,0l0,0c0,0-0.1,0.1-0.1,0.2c0,0,0-0.1,0-0.1
							c-0.1,0.1-0.1,0.1-0.2,0.1c0,0,0-0.1,0.1-0.1c-0.1,0.1-0.2,0.2-0.3,0.2c0,0.1,0.1-0.2,0.1-0.1c-0.1-0.2-0.3,0.1-0.4-0.1
							c0,0,0,0.1,0,0.1c-0.1,0,0-0.2-0.1-0.1c0-0.1-0.1,0-0.1,0c0,0.1,0,0,0,0c-0.1,0.1-0.3,0.2-0.4,0c0,0.1-0.1,0.2-0.1,0.2l0-0.1
							c0-0.1-0.1,0-0.1-0.1c-0.1,0.2,0.2-0.1,0.2,0c0-0.1-0.1,0.2-0.1,0c-0.1,0-0.1,0.1-0.2,0c0,0,0.1-0.2,0-0.2
							c-0.1,0,0,0.1-0.1,0.1l0,0.1c0,0.1-0.1,0,0,0.1c0-0.1-0.1,0.1-0.1-0.2l0-0.2c0,0-0.1,0.2-0.1,0.2c0,0,0-0.1,0-0.1
							c0,0.3-0.1,0-0.1,0.2c-0.1-0.1-0.2,0-0.2-0.2c-0.1,0.1-0.1,0.2-0.2,0.1c0,0,0,0,0-0.1c0-0.1-0.1,0-0.1,0c0,0-0.1-0.1-0.1-0.2
							c-0.1,0.1,0,0.2,0,0.3c-0.1-0.3-0.1,0.2-0.2-0.1c0,0,0.1-0.1,0-0.2c-0.1-0.2-0.1,0.2-0.2,0.1l0,0.2c-0.1-0.1-0.1,0.1-0.1-0.1
							c0,0.1-0.1-0.1-0.1,0.1c-0.2-0.1-0.3,0.2-0.5-0.2c0,0-0.1,0,0,0.1c0.1,0.1,0-0.1,0.1,0c0,0,0,0.1,0,0.1c-0.1,0-0.1,0-0.1-0.2
							c-0.1-0.1,0,0.4-0.2,0.3c0-0.1,0-0.1-0.1-0.1l0,0.2c-0.1,0-0.1-0.2-0.1-0.3c0,0-0.1,0-0.1,0.1l-0.1-0.2c0.1,0.1,0,0.1,0,0.1
							l0,0c0-0.1-0.1,0-0.1,0c0,0.1,0.1,0.1,0.1,0.1c0,0.1,0,0.1-0.1,0.1c0-0.1-0.1-0.1-0.1-0.1c0,0,0,0.1,0,0.1
							c0-0.1-0.1,0-0.1-0.1c0,0,0,0.1,0.1,0c0,0-0.1-0.2-0.1-0.1c0,0.1,0.1,0.3,0,0.2c0,0,0-0.1,0-0.1l-0.1,0l0,0.1c0,0,0,0,0-0.1
							c0,0.1-0.1,0.1-0.1,0.2c0,0-0.1-0.1-0.1-0.1l0,0c-0.1-0.1-0.1,0-0.1,0.1l0,0c0,0-0.1,0-0.1,0.1c-0.1-0.1-0.2-0.5-0.2-0.3
							c-0.1,0,0,0.3,0,0.3c-0.1,0-0.2,0.2-0.3,0c0,0.1,0,0.1,0,0.1c-0.2,0-0.2,0.3-0.4,0.1c0-0.1-0.1-0.1-0.1-0.2
							c0,0.1-0.1-0.1,0,0.1c0.1,0.1,0.1,0.2,0.1,0.2c-0.1,0.1-0.2,0.2-0.3,0.1c0,0,0,0.1,0,0.1c-0.1-0.2-0.1-0.2-0.2-0.1l0,0.1
							l-0.1-0.1c0,0,0.1,0.2,0,0.1c0,0,0-0.1-0.1-0.1c0,0.1,0,0.3-0.1,0.2l-0.1-0.1c0,0,0,0.1,0.1,0.2c-0.1,0-0.2,0-0.3-0.1
							c0,0.4-0.2,0.5-0.3,0.6l0-0.1c-0.1,0,0.1,0.1,0,0.1c0-0.1-0.1-0.1-0.1-0.2c-0.1,0,0,0.2,0,0.2c0.1,0.1,0-0.1,0.1,0
							c0,0-0.1,0,0,0.1c-0.1,0-0.1-0.2-0.1-0.2l0,0.1c-0.2-0.1-0.1-0.4-0.3-0.5l0,0c-0.1-0.1,0-0.2-0.1-0.2c0,0.1,0.1,0.3,0.2,0.4
							c-0.1,0.1,0.2,0.4,0.1,0.4c-0.1-0.1,0.1-0.1,0-0.2c-0.1-0.1,0,0.1-0.1,0.1c0.1,0,0.1,0.2,0.1,0.2c-0.1,0-0.1-0.2-0.1-0.1
							c0,0.1,0,0.2,0.1,0.2c0.1,0.2-0.1,0,0,0.2c-0.1-0.1-0.2-0.3-0.3-0.3c0.1,0.1,0,0.2,0.2,0.4c-0.1,0-0.1-0.1-0.2-0.2
							c-0.1,0,0.1,0.3-0.1,0.1l0.1,0.1c0,0-0.1-0.1-0.2-0.1c0,0,0,0.2-0.1,0.1c0,0-0.1,0.1,0.1,0.2c0.1,0,0-0.1,0.1,0
							c-0.1-0.1,0,0.1,0,0.1l-0.1-0.1c0,0,0,0.1,0,0.1c0,0-0.1-0.1-0.1-0.1l0.1,0.1c0,0.1-0.2-0.2-0.2-0.1l0-0.1c0,0-0.1-0.1-0.1,0
							c0.1,0.1,0.1,0.2,0.2,0.3c0,0.1-0.1-0.1-0.1,0l-0.1-0.2c0,0-0.2-0.1-0.2-0.1c0,0.1,0.1,0.2,0.2,0.2c0,0-0.1,0-0.1-0.1
							c0,0.1,0.1,0.1,0.1,0.2c-0.1,0-0.2-0.1-0.3-0.2l-0.1-0.2l0,0c-0.1-0.2-0.1-0.1-0.2-0.2c0,0,0,0.1,0,0.1
							c0.2,0.2,0.2,0.3,0.4,0.5c0,0.1-0.5-0.4-0.3,0c0.1,0,0.2,0.2,0.2,0.1c-0.1,0,0.1,0.2,0,0.2c0-0.1-0.2-0.1-0.3-0.3
							c0.1,0.1,0.1,0,0.1,0c-0.1-0.1-0.2-0.2-0.2-0.1c0,0-0.1,0.1,0,0.2c0.1,0.1,0-0.1,0.1,0.1c0,0.1-0.2-0.1,0,0.2
							c0-0.1,0.1,0,0.2,0.1l0,0.1L38.2,28c-0.1,0,0.1,0.1,0,0.2L38,28.1c-0.1-0.1,0.2,0,0-0.2c-0.1,0,0,0.1-0.1,0.1c0,0,0,0,0-0.1
							c0,0-0.3-0.2-0.2,0c0,0.1,0.1,0.1,0.1,0.1c-0.1,0.1,0,0.2,0,0.2c-0.1-0.1-0.1,0.1-0.2-0.1c0.1,0.1,0.2-0.1,0.1-0.2
							c-0.2-0.1,0.1,0-0.1-0.2c-0.1,0.1-0.2-0.1-0.3-0.2c0,0,0,0.1,0,0.1c0.1,0.1,0.1,0.1,0.2,0.2c-0.1,0-0.1,0.2,0,0.3
							c-0.1,0-0.2-0.1-0.2-0.2c0,0.1-0.1,0.2-0.2,0.2c0.2,0.1,0,0.1,0.1,0.2c0.1,0,0.2,0.1,0.3,0.2c0,0-0.1-0.1-0.1-0.1
							c0.1,0.1-0.2-0.1-0.1,0.1c0-0.1-0.2-0.2-0.3-0.3c0,0.1-0.1-0.1-0.1,0c0,0.1,0,0.2,0,0.3c-0.2,0-0.2,0.2-0.2,0.3
							c-0.1,0-0.2-0.2-0.3-0.2c0,0,0.2,0.1,0.1,0.1l0,0c0,0-0.2,0,0,0.2l-0.2-0.2c0,0,0,0,0,0.1c-0.1,0-0.1-0.1-0.1-0.1
							c-0.2,0-0.1,0.1-0.1,0.2l0.1,0c0,0.1-0.1,0.1-0.1,0.2l-0.1-0.1l0,0.1c-0.1-0.1-0.2-0.1-0.1,0l-0.2-0.3c0.1,0,0.1,0.1,0.2,0.2
							c0.1,0,0.1,0,0-0.1c0,0,0,0,0,0.1c-0.2-0.1-0.1-0.1-0.2-0.2c0,0-0.1,0,0,0c0-0.1,0-0.1,0-0.2c0,0.1,0.1,0,0.1,0.1
							c-0.1-0.1-0.1-0.2,0-0.2c0.2,0.1,0-0.2,0.1-0.2c0.1,0.1,0.2,0.2,0.2,0.3c0.1,0,0-0.1,0.1,0c-0.1-0.1-0.2-0.2-0.2-0.3l0.1,0.1
							c0-0.1-0.1-0.2-0.1-0.2c0.1-0.1,0.2-0.2,0.3-0.3l0.1,0.1c-0.1-0.2,0.1-0.2,0-0.4c0.2,0,0.1-0.3,0.3-0.2
							c0.1-0.2,0.2-0.5,0.4-0.6l0.1,0.2c-0.1-0.1,0.1,0.1,0.1,0c-0.1-0.1-0.1-0.2-0.1-0.3c0.2,0,0.2-0.2,0.2-0.3l0.1,0.1
							c-0.1-0.2,0.2-0.2,0.3-0.2c0,0,0.1,0.1,0.2,0.1C38,26,38,26,38,25.8c0.1-0.1,0.2-0.1,0.3-0.1c0.1-0.4,0.4-0.4,0.6-0.7l0.1,0.1
							c0.1-0.4,0.6-0.4,0.7-0.6l0.1,0.2c0.1,0,0.1-0.1,0-0.3c0.1,0,0.1-0.2,0.3-0.1c0.1,0,0-0.1,0.1-0.2c0.2,0,0.2,0,0.4-0.1l0,0
							c0,0.1,0,0.1,0.1,0.1c0-0.1,0.2,0,0.1-0.3c0.2,0.1,0.3-0.3,0.5-0.1c0-0.1,0-0.1,0-0.1c0.1-0.1,0.3,0,0.4-0.1
							c0,0,0,0.1,0.1,0.1c0,0,0-0.1,0-0.2c0.2-0.2,0.5,0,0.7-0.1c0.3-0.2,0.8-0.2,1.1-0.3l0,0.1c0.1-0.2,0.3,0.2,0.4-0.2
							c0,0.1,0.1,0,0.1,0.1c0.1-0.2,0.3,0.1,0.4-0.1c0,0,0,0,0,0c0.2,0.1,0.3-0.1,0.4,0c0,0,0,0,0,0.1c0.1,0.1,0.1-0.2,0.2,0
							c0,0,0-0.1,0-0.1c0.3,0.1,0.7-0.1,1-0.1c0.2,0.2,0,0.5,0.2,0.3c0,0.1,0-0.1,0,0c0.1-0.1,0.1,0.3,0.2,0.2c0-0.2,0-0.1,0.1-0.2
							c0.1,0.1,0.2,0.3,0.3,0.2l0,0.1c0.2-0.2,0.3-0.1,0.5-0.3c0.2,0,1.1,0.1,1.7,0.3c0.6,0.1,1.2,0.3,1.9,0.6
							c0.7,0.3,1.6,0.6,2.3,0.8c-0.5,0.3-1,0.5-1.6,0.8c-0.7,0.1-0.7,0.1-0.9,0.3c0,0,0,0-0.1,0c0.3,0.1-0.2,0.1,0.1,0.2
							c-0.5,0.2-0.9,0.5-1.3,0.8c0.1-0.1-0.1-0.2-0.1-0.1l0,0.1l-0.1,0c0,0.1,0,0.2,0.1,0.2c-0.1,0.1-0.3,0.2-0.4,0.3
							c-0.1,0.1-0.3,0.2-0.3,0.2c-0.1,0.1-0.3,0.1-0.4,0.2c-0.3,0.1-0.6,0.2-0.8,0.5c-0.2,0-0.3,0.2-0.3,0.3
							c-0.5,0.1-0.9,0.3-0.9,0.7C45.8,29.1,45.4,28.9,45.4,28.6z"/>
						<path fill="#808181" d="M35.4,29c0.1,0,0.2,0,0.2,0.1C35.6,29.1,35.5,29.1,35.4,29z"/>
						<path fill="#808181" d="M37.2,28.4C37.1,28.4,37.2,28.4,37.2,28.4C37.2,28.5,37.3,28.5,37.2,28.4
							C37.2,28.5,37.2,28.5,37.2,28.4z"/>
						<path fill="#808181" d="M37.5,28.2c0.1,0.1,0.1,0.2,0,0.2L37.5,28.2z"/>
						<path fill="#808181" d="M38,28.2C38,28.2,38.1,28.3,38,28.2C38,28.3,38,28.2,38,28.2z"/>
						<path fill="#808181" d="M37.8,28c0,0,0.1,0,0.1,0C37.9,28,37.9,28.1,37.8,28z"/>
						<path fill="#808181" d="M38.6,27.7C38.6,27.7,38.5,27.6,38.6,27.7C38.6,27.6,38.6,27.8,38.6,27.7z"/>
						<path fill="#808181" d="M38.7,27.4C38.7,27.4,38.8,27.4,38.7,27.4C38.8,27.4,38.8,27.4,38.7,27.4L38.7,27.4z"/>
						<polygon fill="#808181" points="44.3,24.5 44.2,24.6 44.2,24.5 						"/>
						<path fill="#808181" d="M47.1,24.7C47.1,24.6,47.1,24.8,47.1,24.7C47,24.8,47.1,24.7,47.1,24.7z"/>
						<polygon fill="#808181" points="48.4,24.6 48.4,24.6 48.7,24.5 						"/>
					</g>
				</g>
			</g>
		</g>
	</g>
	<g>
		<g>
			<g>
				<g>
					<g>
						<path fill="#808181" d="M36.5,61.6C36.4,61.6,36.4,61.8,36.5,61.6C36.5,61.6,36.5,61.6,36.5,61.6z"/>
						<path fill="#808181" d="M45.8,62.8c0.5-0.1,0.4,0.4,0.8,0.4c0,0-0.2,0.2-0.1,0.2c0.4-0.1,0.6,0.3,0.7,0.7l-0.1,0
							c0,0.1,0.2-0.1,0.2,0c0,0-0.1,0-0.1,0.1c0.1-0.1,0.1,0,0.2-0.1c0,0.1-0.1,0.1-0.1,0.2l0.1-0.1c0.3-0.2,0.2,0.1,0.4,0.1
							c0,0-0.1,0-0.1,0.1c0.4,0,0.6,0.2,0.9,0.3c-0.1,0-0.2,0-0.3,0.1c0.2,0,0.4,0,0.5,0c-0.2,0.1,0.4,0,0.3,0.1l-0.1,0
							c0.4,0-0.1,0.1,0.3,0.1l-0.2,0c0.5,0-0.1,0.1,0.1,0.1l0.1,0c0.2,0-0.1,0,0.1,0.1l-0.1,0c0.2,0.1,0,0.1,0.4,0.1
							c-0.3,0-0.2-0.1-0.7,0c0.3,0.1,0.6,0.2,0.8,0.3c0.1,0,0.2,0.1,0.1,0.1L50,65.6c-0.2,0-0.2,0-0.4,0c0.1,0,0,0.1,0.1,0.1
							c0,0-0.2,0-0.2,0c-0.2,0,0.3,0.1,0.1,0.1c-0.1,0-0.1-0.1-0.3-0.1c0.2,0.1,0.1,0.1,0.1,0.1c0,0-0.1,0-0.1-0.1
							c0.2,0.1-0.2,0-0.1,0.1L49,65.8c-0.3,0,0.3,0.1,0.1,0.1c0,0-0.1,0-0.2-0.1c0.2,0.1,0,0.2,0,0.2c0,0,0,0,0,0
							c-0.1,0.1-0.2,0-0.2,0.1c-0.1,0-0.3-0.2-0.3-0.1c0.2,0.2-0.1,0.1,0.2,0.3c-0.1,0-0.3,0-0.3,0.1c0-0.1-0.2-0.2-0.2-0.2L47.9,66
							c-0.1-0.1,0.1,0,0-0.1c0,0,0,0.1-0.1,0.1c0.1,0.1,0.1,0.4,0,0.4c0-0.1-0.1-0.2-0.1-0.2c0,0.1,0,0.3,0,0.4c0,0-0.1-0.2-0.1-0.1
							c0,0.1,0,0.1,0,0.1c0,0-0.2,0.1-0.2-0.1c0-0.1,0-0.1,0-0.1c-0.1,0,0,0.1-0.1,0.1l0,0c-0.1,0-0.1,0.1,0,0.2c0,0,0-0.1,0-0.1
							c0,0.1-0.1,0.2-0.1,0.2c0,0,0-0.1,0-0.2c-0.1,0.2-0.1,0.2-0.2,0.3c0,0.1,0-0.2,0-0.1c-0.1-0.1-0.2,0.2-0.4,0c0,0,0,0.1,0,0.1
							c-0.1,0-0.1-0.1-0.1-0.1c0-0.1,0,0-0.1,0.1c0,0.1,0,0,0-0.1c0,0.1-0.3,0.2-0.4,0.1c0,0.1-0.1,0.2-0.1,0.2l0-0.1
							c0-0.1-0.1,0-0.1-0.1c-0.1,0.2,0.2-0.1,0.2,0c0-0.1-0.1,0.2-0.1,0c-0.1,0-0.1,0.2-0.2,0c0,0,0-0.2,0-0.2c-0.1,0,0,0.1-0.1,0.1
							l0,0.1c0,0.1-0.1,0,0,0.1c0-0.1-0.1,0.1-0.1-0.1l0-0.2c0,0-0.1,0.2-0.1,0.3c0,0,0,0,0-0.1c0,0.3-0.1,0-0.1,0.2
							c-0.1-0.1-0.2,0-0.2-0.2c-0.1,0.1-0.1,0.2-0.2,0.1c0,0,0,0,0-0.1c0-0.1-0.1,0-0.1,0c0,0-0.1-0.2-0.1-0.3
							c-0.1,0.1-0.1,0.2-0.1,0.3c0-0.3-0.2,0.2-0.2-0.1c0,0,0.1-0.1,0.1-0.2c0-0.3-0.1,0.2-0.2,0.1l0,0.2c0-0.1-0.1,0.1-0.1-0.1
							c0,0.1-0.1-0.1-0.1,0.1c-0.1-0.2-0.4,0-0.4-0.3c0,0-0.1,0-0.1,0.1c0,0.1,0.1-0.1,0.1,0c0,0,0,0.1,0,0.1c0-0.1-0.1-0.1,0-0.2
							c-0.1-0.1-0.2,0.3-0.3,0.2c0-0.1,0-0.1,0-0.1L43.1,67c-0.1,0,0-0.2,0-0.3c0,0-0.1,0-0.1,0.1l0-0.2c0,0.1-0.1,0.1-0.1,0.1l0,0
							c0-0.1-0.1,0-0.1,0c0,0.1,0,0.1,0,0.2c0,0.1-0.1,0-0.1,0.1c0-0.1,0-0.1-0.1-0.1c0,0-0.1,0.1-0.1,0.1c0-0.1-0.1,0,0-0.1
							c0,0,0,0.1,0,0c0-0.1,0-0.2-0.1-0.1c-0.1,0.1-0.1,0.3-0.1,0.2c0,0,0-0.1,0.1-0.1l0-0.1l0,0.1c0,0,0,0,0-0.1
							c-0.1,0.1-0.1,0-0.2,0.2c0,0,0-0.1-0.1-0.1l0,0c0-0.1-0.1-0.1-0.1,0l0,0c0,0-0.1,0-0.1,0.1c0-0.1,0.1-0.5,0-0.3
							c-0.1,0-0.2,0.2-0.2,0.3c-0.1-0.1-0.3,0-0.3-0.2c0,0,0,0.1-0.1,0.1c-0.1-0.1-0.4,0-0.4-0.3c0.1,0,0.1-0.1,0.1-0.2
							c-0.1,0.1,0-0.1-0.1,0.1c0,0.1-0.1,0.2,0,0.2c-0.1,0-0.2,0-0.3-0.2c0,0.1,0,0.1-0.1,0.1c0.1-0.2,0-0.2,0-0.2l-0.1,0.1l0-0.1
							c0,0-0.1,0.2-0.1,0.1c0,0,0-0.1,0-0.1c-0.1,0.1-0.2,0.2-0.2,0.1l0-0.2c0,0-0.1,0.1-0.1,0.1c0-0.1-0.1-0.2-0.1-0.3
							c-0.3,0.2-0.6,0.1-0.7,0l0-0.1c0-0.1-0.1,0.1-0.1,0c0.1-0.1,0.1-0.2,0.1-0.2c0-0.1-0.2,0.1-0.2,0.1c-0.1,0.1,0.1,0,0,0.1
							c0,0,0-0.1-0.1,0c0-0.1,0.1-0.2,0.1-0.2l-0.1,0c0.1-0.2,0.3-0.2,0.4-0.5l0,0c0.1-0.2,0.2-0.1,0.1-0.2c-0.1,0-0.2,0.2-0.2,0.3
							c-0.1,0-0.3,0.3-0.3,0.3c0-0.1,0.1,0,0.1-0.1c0-0.1-0.1,0-0.1-0.1c0,0.1-0.1,0.2-0.2,0.2c0-0.1,0.1-0.1,0.1-0.2
							c-0.1,0.1-0.2,0.1-0.1,0.2c-0.1,0.2,0-0.1-0.2,0c0.1-0.1,0.3-0.3,0.2-0.4c-0.1,0.1-0.2,0.1-0.3,0.3c0-0.1,0.1-0.2,0.1-0.2
							c0-0.1-0.2,0.2-0.1-0.1l-0.1,0.1c0-0.1,0-0.1,0-0.2c0,0-0.2,0.1-0.1-0.1c0,0-0.1-0.1-0.2,0.1c0,0.1,0.1-0.1,0,0.1
							c0.1-0.2-0.1,0-0.1,0l0-0.1c0,0-0.1,0-0.1,0c0,0,0.1-0.1,0.1-0.1l-0.1,0.1c-0.1,0,0.1-0.2,0-0.2l0.1,0c0,0,0-0.1,0-0.1
							c-0.1,0.1-0.2,0.2-0.3,0.3c-0.1,0,0.1-0.1,0-0.1l0.1-0.1c0,0,0.1-0.2,0-0.2c-0.1,0-0.2,0.1-0.2,0.2c0,0,0-0.1,0.1-0.2
							c-0.1,0-0.1,0.1-0.2,0.1c0-0.1,0-0.2,0.1-0.3l0.2-0.1l0,0c0.1-0.1,0.1-0.1,0.2-0.2c0,0-0.1,0-0.1,0c-0.1,0.3-0.3,0.2-0.5,0.5
							c-0.1,0,0.3-0.5,0-0.3c0,0.1-0.2,0.2-0.1,0.2c0-0.1-0.2,0.2-0.2,0c0.1,0,0.1-0.2,0.3-0.3c-0.1,0.1,0,0.1,0,0.1
							c0-0.1,0.2-0.2,0.1-0.2c0,0-0.1,0-0.2,0.1c-0.1,0.1,0.1,0-0.1,0.1c-0.1,0,0-0.2-0.2,0c0.1,0,0,0.1-0.1,0.2l-0.1,0l0.1-0.1
							c0-0.1-0.1,0.1-0.2,0l0.1-0.2c0.1-0.1,0.1,0.2,0.2-0.1c0-0.1-0.1,0-0.1-0.1c0,0,0,0,0.1,0c0,0,0.2-0.3,0-0.2
							c-0.1,0-0.1,0.1-0.1,0.1c-0.1,0-0.2,0-0.3,0c0.1-0.1-0.1-0.1,0.1-0.2C37,64,37.1,64.1,37.3,64c0.1-0.2,0,0.1,0.2-0.1
							c-0.1-0.1,0.1-0.2,0.2-0.3c0,0-0.1,0-0.1,0c-0.1,0.1-0.1,0.1-0.2,0.2c0-0.1-0.2-0.1-0.3,0c0-0.1,0.1-0.2,0.2-0.2
							c-0.1,0-0.2-0.1-0.2-0.2c-0.1,0.2-0.1,0-0.2,0.1c0,0.1-0.1,0.2-0.2,0.3c0,0,0.1-0.1,0.1-0.1c-0.1,0.1,0.1-0.2-0.1-0.1
							c0.1,0,0.2-0.2,0.4-0.3c-0.1,0,0.1-0.1,0-0.1c-0.1,0-0.2,0-0.3,0c0.1-0.2-0.2-0.2-0.2-0.2c0-0.1,0.2-0.2,0.2-0.3
							c0,0-0.1,0.2-0.1,0.1l0,0c-0.1,0,0-0.2-0.2,0l0.2-0.1c0,0,0,0-0.1,0c0.1,0,0.1-0.1,0.1-0.1c0.1-0.1-0.1-0.1-0.1-0.1l-0.1,0.1
							c-0.1,0-0.1-0.1-0.2-0.2l0.1-0.1l-0.1,0c0.1-0.1,0.1-0.2,0-0.1l0.3-0.1c0,0.1-0.1,0.1-0.2,0.2c-0.1,0.1,0,0.1,0.1,0.1
							c0,0,0,0-0.1,0c0.1-0.1,0.2-0.1,0.3-0.1c0,0,0-0.1,0,0c0.1,0,0.1,0,0.2,0c-0.1,0-0.1,0.1-0.1,0.1c0.1-0.1,0.2-0.1,0.2,0
							c-0.1,0.2,0.2,0,0.2,0.1c-0.1,0.1-0.3,0.1-0.3,0.1c0,0.1,0,0,0,0.1c0.1-0.1,0.3-0.2,0.3-0.2l-0.1,0.1c0.1,0,0.2-0.1,0.2,0
							c0,0.1,0.1,0.2,0.2,0.3l-0.1,0.1c0.2-0.1,0.2,0.1,0.3,0c0,0.2,0.3,0.1,0.2,0.3c0.2,0.1,0.4,0.1,0.6,0.3l-0.1,0.1
							c0.1-0.1,0,0.1,0,0.1c0.1-0.1,0.2-0.1,0.2-0.2c0,0.2,0.2,0.1,0.3,0.1l-0.1,0.1c0.2-0.1,0.2,0.1,0.2,0.2c0,0-0.1,0.1,0,0.2
							c0.2-0.1,0.2-0.1,0.3-0.1c0.1,0,0.1,0.1,0.1,0.2c0.3-0.1,0.5,0.2,0.8,0.2l-0.1,0.1c0.3-0.1,0.5,0.2,0.7,0.2l-0.1,0.2
							c0,0.1,0.2,0,0.2-0.1c0,0.1,0.2,0,0.1,0.2c0,0.1,0.1-0.1,0.2-0.1c0.1,0.1,0.1,0.1,0.3,0.1l0,0c0,0-0.1,0.1-0.1,0.2
							c0.1,0,0.1,0.1,0.2-0.2c0.1,0.2,0.3,0,0.4,0.2c0-0.1,0.1-0.1,0.1-0.1c0.1,0,0.2,0.2,0.3,0.1c0,0-0.1,0.1,0,0.1
							c0,0,0-0.1,0.1-0.1c0.2-0.1,0.3,0.2,0.5,0.3c0.3-0.1,0.6,0,0.9,0.1l0,0.1c0.1-0.2,0.2,0.3,0.3-0.1c0,0.1,0.1,0,0.1,0.1
							c0.1-0.1,0.2,0.2,0.3,0c0,0,0,0,0,0c0.1,0.1,0.2,0,0.3,0.1c0,0,0,0,0,0.1c0,0.1,0.1-0.2,0.1,0c0,0,0-0.1,0-0.1
							c0.3,0.1,0.5-0.1,0.8-0.1c0.2,0.2,0,0.5,0.2,0.3c0,0.1,0-0.1,0,0c0.1-0.1,0.1,0.3,0.1,0.2c0-0.2,0-0.1,0-0.2
							c0.1,0.1,0.2,0.2,0.2,0.1l0,0.1c0.1-0.3,0.2-0.2,0.3-0.4c0.1,0,0.3-0.1,0.4-0.1c0.1,0,0.1-0.1,0.1-0.1c0-0.1,0-0.1,0-0.1
							c0.1,0-0.1,0,0.1,0l0.1,0c0.5,0,0.4,0,0.2,0c0.1,0,0.1,0,0.2,0c-0.4,0-0.1,0-0.4,0c0,0-0.1,0-0.1,0c0,0,0.3,0,0.2,0l-0.2,0
							l0.1,0c0,0-0.2,0-0.2,0.1c-0.1,0,0,0,0,0c0,0,0,0,0,0l-0.2-0.2c-0.1-0.1-0.2-0.2-0.4-0.3c-0.1-0.2-0.3-0.2-0.4-0.3
							c-0.2-0.5-0.4-0.9-0.9-1.2C45.2,63,45.6,62.7,45.8,62.8z"/>
						<path fill="#808181" d="M36.6,61.7c-0.1,0.1-0.1,0.1-0.2,0.2C36.5,61.8,36.5,61.7,36.6,61.7z"/>
						<path fill="#808181" d="M36.8,63.4C36.9,63.4,36.8,63.4,36.8,63.4C36.8,63.5,36.7,63.5,36.8,63.4
							C36.8,63.5,36.8,63.4,36.8,63.4z"/>
						<path fill="#808181" d="M37.1,63.7c-0.1,0.1-0.2,0.1-0.2,0L37.1,63.7z"/>
						<path fill="#808181" d="M37.1,64.2C37.1,64.3,37,64.3,37.1,64.2C37,64.2,37.1,64.2,37.1,64.2z"/>
						<path fill="#808181" d="M37.2,64.1c0,0,0,0.1,0,0.1C37.3,64.1,37.1,64.2,37.2,64.1z"/>
						<path fill="#808181" d="M37.7,64.8C37.7,64.8,37.8,64.7,37.7,64.8C37.8,64.8,37.6,64.9,37.7,64.8z"/>
						<path fill="#808181" d="M38,64.9C38,64.9,38,64.9,38,64.9C38.1,65,38,65,38,64.9L38,64.9z"/>
						<polygon fill="#808181" points="44.2,67.1 44.2,67.1 44.2,67 						"/>
						<path fill="#808181" d="M47.1,67C47.1,66.9,47.1,67,47.1,67C47.1,67.1,47.1,66.9,47.1,67z"/>
						<polygon fill="#808181" points="48.6,66.1 48.6,66.2 48.4,66 						"/>
					</g>
				</g>
			</g>
		</g>
	</g>
	<g>
		<g>
			<g>
				<g>
					<g>
						<path fill="#808181" d="M20.5,35.4c0.4-0.3-0.3,0,0.2-0.2C20.8,35.3,20.7,35.4,20.5,35.4z"/>
						<path fill="#808181" d="M22.1,34.2c1.1-1.3,3.2-2,4.6-3c0.2-0.1,0.1,0.2,0.5,0c1.4-1.1,4-1.9,6.1-2.2l-0.1,0.1
							c0.4-0.1,0.8-0.4,1.2-0.5c0,0-0.1,0.1,0,0.1c0.1-0.2,0.7-0.2,0.9-0.4c0.2,0,0.2,0.1,0.4,0.2l0.2-0.2c0.6-0.4,1.6-0.2,2.5-0.5
							c0,0-0.1,0.1-0.1,0.1c0.7-0.1,1.6-0.2,2.4-0.3c0.9,0,1.7,0,2.6,0.1c-0.1,0-0.1,0.1-0.1,0.2c0.1-0.2,0.6-0.1,1-0.1
							c0.2,0.2,0.8,0,1.3,0.1l-0.1,0c0.4-0.1,0.5,0.2,0.9,0.1l0.2,0.2c0.2-0.2,0.5,0.2,0.9,0.2l0,0c0.3,0,0.4,0.2,0.7,0.2l0,0
							c0.6,0.1,1,0.4,1,0.2c0.2,0.2-0.6-0.1-0.3,0.2c2.1,0.4,4.1,1.3,6,2.4c0.2,0.2,0.3,0.3,0.3,0.4c0.2,0.1,0.7,0.4,0.9,0.4
							c-0.1,0,0.1,0.2,0.2,0.2c0.3,0.3,0.5,0.1,0.8,0.4c-0.2-0.1-0.3,0-0.2,0.1c0.4,0.1,0.8,0.4,1.1,0.6c-0.1,0-0.2-0.1-0.2,0
							c0.5,0.1,0.7,0.5,1.1,0.7l-0.2,0c0.4,0.5,0.3-0.1,0.7,0.4c-0.1-0.1-0.1,0-0.2,0c0.6,0.2,1.1,0.8,1.6,1.1c0,0,0,0,0,0
							c0.5,0.4,0.9,0.8,1.4,1.2c0.1,0.2-0.2,0.1,0.2,0.5c0.1-0.2,0.8,0.7,0.7,0.3c0.3,0.4,0.8,1.1,1.1,1.3c-0.2-0.1,0,0.4-0.3,0
							l0.1,0.3c-0.1,0-0.2-0.3-0.2-0.1c0.1,0.2,0.6,0.6,0.7,0.8c0.4,0.2,0.8,0.4,1.2,0.9c-0.3-0.2-0.1,0.3-0.2,0.1l0.9,0.5
							c0.1,0.2-0.1,0.1,0.1,0.4c0,0,0.1,0,0.2,0.1c0,0.1,0.6,0.7,0.5,0.9c0,0.1-0.2-0.3-0.2,0c0.2,0.3,0.3,0.3,0.6,0.6l0,0
							c0.1,0.2,0.5,0.6,0.5,0.3c-0.1-0.2-0.1,0.1-0.2-0.1c0.1,0,0.2,0.2,0.4,0.3c0.2,0.2,0.3,0.4,0.5,0.7c-0.1-0.1-0.2-0.1-0.3-0.2
							c0.1,0.1,0.3,0.3,0.4,0.4l0.1,0.1c0,0,0,0.1,0,0.1l-0.1,0.2c-0.2,0.3-0.4,0.6-0.6,1c0.1,0.1,0-0.3,0.1-0.3
							c-0.6,0.6-0.8,1.4-1.4,1.8c0.1-0.1,0.1,0,0.1,0c-0.2,0.3-0.3,0.2-0.5,0.4c-0.1,0-0.2,0.3-0.3,0.5c0,0.1-0.1,0,0.1-0.2
							c-0.2,0.3-0.9,1.5-1.5,2.1c0.1,0-0.1,0.5-0.3,0.7l-0.1-0.1c-0.2,0.1-0.4,0.5-0.5,0.5c-0.1,0.4,0.8-1.3,0.6-0.8
							c-0.2,0-0.3,0.7-0.4,0.5c-0.2,0.3-0.3,0.7-0.7,0.9c0.1-0.1,0-0.4-0.1-0.1c-0.3,0.4,0,0.2-0.3,0.5L62.9,53
							c0.1,0.1-0.3,0.4-0.1,0.3c-0.1,0-0.5,0.6-0.6,0.4l-0.1-0.2c-0.1,0.2-0.1,0.4-0.2,0.6c0,0-0.1,0-0.1,0c0.2,0.2-0.4,0.4-0.5,0.7
							c-0.4,0.3-0.9,0.9-1.2,0.9c-0.2,0.3-0.4,0.6-0.8,0.8c0.1-0.1,0.1-0.2,0.1-0.2c-0.3,0.1-0.3,0.2-0.4,0.4c0-0.1-0.5,0.2-0.8,0.3
							c-0.3,0.3-0.1,0.3-0.1,0.4c-0.4,0-0.8,0.8-1.3,0.8c0.1-0.1,0.4-0.4,0.1-0.3c-0.4,0-0.5,0.5-1,0.7l0.2,0.1
							c-0.3,0-0.6,0.5-0.7,0.3c-0.1,0.2-0.6,0.3-0.4,0.4c-0.9,0.3-1.9,1.1-2.6,1c-0.1,0.1-0.4,0.2-0.3,0.3c0.2,0,0.2-0.2,0.3-0.2
							c-0.1,0.1-0.1,0.1-0.1,0.1c-0.3,0.1-0.5,0.1-0.3-0.1c-0.6,0.1-0.4,0.6-1.2,0.8c0-0.1-0.1-0.1-0.3,0l-0.4,0.3
							c-0.5,0.2-0.3-0.1-0.4-0.2c-0.3,0.1-0.6,0.2-0.7,0.4l-0.4-0.1c0.3,0-0.2,0.2-0.3,0.2l0.1-0.1c-0.1,0-0.4,0.1-0.5,0.2
							c0.1,0.1,0.4,0,0.6,0c-0.1,0.1-0.3,0.2-0.5,0.3c0-0.2-0.5,0-0.7,0.1c-0.3,0-0.2,0.2-0.3,0.2c0-0.1-0.4,0.1-0.2-0.1
							c0.1,0,0.2,0,0.3-0.1c-0.2,0-0.2-0.1-0.5,0c-0.2,0.1,0.1,0.3-0.4,0.3c0.1-0.1,0.1-0.1,0.2-0.2l-0.5,0l0,0.1c-0.1,0,0,0-0.1,0
							c-0.1,0.2-0.7,0.2-0.8,0.4c-0.2,0.1-0.5,0-0.8,0l0,0c-0.3-0.1-0.6,0-0.9,0.1l0,0c-0.2,0-0.5,0-0.7,0.1
							c-0.4-0.1-0.2-0.5-0.6-0.3c-0.4,0-0.6,0.3-0.4,0.3c-0.7,0-1.5,0.1-2.1-0.1c-0.1,0,0,0.1-0.2,0.1c-1,0-2.1,0-2.9-0.4
							c0.3,0,0-0.1,0-0.2c-0.3,0.1-0.3-0.2-0.4,0c0,0.1,0,0.2,0.2,0.3c-0.3,0-0.7,0-1-0.1c-0.3-0.1-0.6-0.2-0.8-0.3
							c0.2,0.1,0,0.1-0.1,0.1c0.1-0.2-0.3-0.3-0.7-0.3L34,62.7l-0.2-0.2c-0.1,0-0.2,0.2-0.5,0c0,0,0-0.1-0.1-0.1
							c-0.4,0-0.9,0-1.2-0.2L31.9,62c-0.2,0-0.4,0-0.2,0.1c-0.6-0.3-1-0.4-1.1-0.6c-1.1-0.1-2.7-0.7-3.8-1.3l0.1-0.1
							c-0.3-0.2-0.2,0.1-0.4-0.1c0.1,0-0.2-0.3,0.1-0.2c-0.4-0.3-0.6-0.2-0.9-0.3c-0.1,0.1,0.3,0.1,0.1,0.2c-0.1,0-0.6-0.4-0.7-0.3
							c-0.1-0.1,0.1-0.2,0.2-0.2L24.9,59c-0.2-0.4,0.9,0.1,0.7-0.3l-0.3-0.1c-0.1-0.3,0.7,0.2,0.2-0.2c-0.3-0.1-0.6,0-0.5,0.2
							c-0.6-0.3-0.5,0.2-1-0.2c-0.1-0.2,0.5,0.3,0.4,0.1c-0.2-0.3-0.6-0.3-0.8-0.5c0.2,0.2-0.1,0.2-0.3,0.1c-0.2-0.3,0.3,0-0.1-0.3
							c-0.1,0-0.5-0.1-0.2,0.1c-0.3,0.1-0.4-0.3-0.7-0.3c0-0.2,0.6,0,0.2-0.4c0,0.2-0.7-0.2-0.6,0.1c-0.1-0.2-0.1-0.3,0.1-0.3
							c-0.2-0.2-0.8-0.2-0.7-0.5l-0.2,0.1c0-0.1-0.1-0.2-0.2-0.4c-0.2-0.1-0.8-0.4-0.6-0.5c-0.1,0-0.5-0.4-0.5-0.1
							c0.2,0.3,0.4,0.2,0.4,0.5c-0.1-0.3-0.4-0.3-0.7-0.4l0-0.1c-0.1-0.1-0.3-0.3-0.5-0.2c0.1,0,0.1-0.1,0-0.1l-0.2,0
							c-0.4-0.3,0.1-0.3-0.4-0.6l0.4,0.2c-0.1,0-0.1-0.2-0.3-0.4c-0.2,0-0.4,0-0.5,0c-0.3-0.1,0-0.2-0.3-0.3c0.1,0,0.3,0.1,0.4,0.1
							c0.1,0-0.1-0.3-0.3-0.6c-0.2-0.1-0.6-0.3-0.4,0.1c-0.1-0.1-0.3-0.4-0.1-0.3c-0.4-0.3-0.1,0.1-0.4-0.1
							c-0.1-0.2-0.3-0.6-0.4-0.9l0.4,0.1l-0.2-0.2c0.4,0.1,0-0.2,0.2-0.2c-0.1-0.1-0.3-0.3-0.4-0.4c0.1,0.3-0.1,0.2-0.3,0.2
							c-0.2-0.1-0.4-0.2-0.5-0.1c-0.5-0.6,0.2-0.8-0.6-1.2c0,0.1-0.4,0,0,0.3c-0.2-0.4-0.4-0.1-0.6-0.6c0.3,0.3,0-0.5,0.4-0.1
							c-0.1,0,0.1,0.3,0.2,0.4c0-0.2,0.2-0.1,0-0.5c-0.2-0.2-0.4-0.6-0.5-0.4c-0.1,0.1,0.2,0.4,0,0.3c-0.3-0.5-0.2-0.7-0.5-0.8
							c0.2,0.3,0.1,0.5,0,0.5l-0.3-0.4l0.1,0C14,49,14,49.6,13.7,48.9l0-0.4c0.2,0.1,0.4,0.9,0.6,0.7c-0.2-0.4-0.4-0.5-0.5-0.9
							c0,0.1,0.1,0.2,0.2,0.3c-0.1-0.1,0.2-0.4-0.1-0.9c-0.2-0.3-0.1-0.1-0.2,0c-0.2-0.7-0.4-0.8-0.5-1.3c0.2,0.1-0.1-0.8,0.2-0.3
							c0,0.1-0.1,0.4,0,0.8c0.1,0.3,0.2,0.6,0.4,0.7c0.2-0.3,0.1,0.5,0.4,0.6c-0.2-0.5,0.1-0.6,0.2-0.7c0-0.1-0.1-0.3-0.2-0.3
							c-0.2,0-0.1,0.2-0.2,0.2c-0.2-0.6-0.3-1.2-0.4-1.5c0-0.2,0.2-0.2,0.2,0.1c-0.2-0.7-0.1-1.5,0-2.2c-0.1,0.2-0.1,0-0.1-0.2
							c0-0.2,0.1-0.4,0-0.3c-0.2,0.3-0.3,0.7-0.4,0.4c0-0.2,0.1,0,0.2-0.1c-0.1-0.3,0.3-0.4,0.2-0.8c-0.1,0.7,0.2,0.2,0.4,0.3
							c0-0.5,0.1,0,0.2-0.4c0-0.2,0-0.5,0.1-0.8c0.1-0.3,0.1-0.5,0.2-0.8c0.1-0.1,0.2-0.3,0.3-0.5c0.1-0.2,0.2-0.3,0.3-0.5
							c0.2-0.4,0.3-0.7,0.5-1c0.3-0.2,0.3,0.1,0.5-0.2c0.2-0.3-0.3,0.1,0.1-0.3l0,0.1c0-0.2,0.8-0.7,0.6-1l0.1,0.3
							c0.1-0.1,0.1-0.2,0.1-0.3c0.1,0,0.2,0,0.1,0.2c0.3-0.2,0.5-0.5,0.7-0.8l-0.3,0.1c0.4-0.5,0.8-0.7,1.2-1.2l0.1,0.1l0.2-0.3
							c0,0.2,0.3,0,0.4-0.2c-0.2,0.3-0.4,0.6-0.5,0.8c-0.2,0.1,0.1-0.3-0.1-0.3c-0.2,0-0.6,0.4-0.6,0.6c0.2-0.1,0.2-0.2,0.3-0.3
							c0.2,0.1-0.1,0.3-0.1,0.5c0.1-0.1,0.2-0.1,0.2-0.2c-0.1,0.2-0.3,0.4-0.5,0.6c0.1-0.2-0.2,0-0.1-0.1c0.1,0.1-0.1,0.4-0.5,0.7
							c-0.3,0.1-0.5,0.7-0.8,1.1c0-0.3,0.1-0.6,0.2-0.8c-0.3,0.2-0.3,0.3-0.5,0.5c0,0.2,0.1,0.4-0.1,0.8l-0.1,0
							c-0.2,0.3,0,0.4-0.3,0.9c-0.5,0.7-0.8,1.5-1,2.1l-0.1,0c0.2,0.4-0.3,1.2-0.1,1.7c-0.3,0.8,0.1,1.7,0,2.2c0,0.4,0.2,0.7,0.3,1
							c0.1,0.3,0.2,0.6,0.4,0.9c0.2,0.3,0.3,0.6,0.5,0.9c0.1,0.2,0.2,0.3,0.2,0.5c0.1,0.1,0.2,0.3,0.3,0.5L16,49.9
							c0.3,0.2,0,0.2,0.2,0.4c-0.1-0.3,0.4,0.2,0.6,0.3c0.1,0.3,0.3,0.6,0.6,0.9c0.3,0.2,0.6,0.5,0.8,0.6l-0.1,0.1
							c0.6,0.3,1,0.9,1.5,1.4c0,0.1,0.1,0.3,0.2,0.4c0.4,0.1,0.6,0.3,1.1,0.5c0.3,0.3,0.9,0.7,1.2,1.1c1.5,0.8,2.8,1.8,4.4,2.5
							l0,0.2c0.8,0.2,1.6,0.7,2.4,1c0.8,0.3,1.6,0.7,2.3,0.9l-0.2,0.2c0.4,0.2,1,0.3,0.9,0.1c0.4,0.2,1.1,0.2,1.3,0.5
							c0.4,0.2,0.6,0,0.9,0.1c0.9,0.3,1.2,0.4,2,0.5l-0.2,0c-0.1,0-0.1,0.1,0.1,0.2c0.3,0,1.2,0.2,0.9-0.1c0.4,0.1,1,0.2,1.5,0.2
							c0.5,0,1,0,1.5,0.1c-0.1-0.1,0.2-0.1,0.2-0.1c0.4,0,0.8,0.1,1.2,0.1c0.4,0,0.8,0,1.1-0.1c0.1,0-0.2,0.1,0.1,0.1
							c0.2,0,0-0.1,0.2-0.2c0.3-0.1,0.6-0.1,1-0.1l0.5,0c0.1,0,0.3,0,0.4,0c0.6-0.1,1.2-0.2,1.8-0.3c2-0.7,4-1.4,5.8-2.3l0,0.1
							c0.5-0.5,1.5-0.5,1.8-1.1c0.2,0,0.5-0.3,0.5-0.1c0.4-0.4,1.4-0.7,1.9-1.3c-0.1,0-0.1,0.1-0.1,0.1c0.7-0.4,1.2-0.9,1.9-1.3
							c0,0.1-0.2,0.2-0.1,0.2c0.3-0.1,0.4-0.7,0.7-0.6c0.1-0.1,0-0.2-0.1-0.1c0.7-0.5,1.4-1.2,2-1.9c0.6-0.7,1.2-1.4,1.7-2.2
							c1-1,0.4,0.2,0.9-0.8c0.1,0,0-0.1,0-0.1c0.2-0.4,0.6-0.3,0.7-0.6c-0.2,0,0-0.2,0-0.3c0.6-0.6,0.8-0.6,1.1-1.2l0,0.1
							c0.3-0.8,1-1.4,1.1-2.1l0.2-0.3l0.1-0.2l0,0c0,0,0.1-0.1,0.1-0.1L67,45l-0.4-0.6c-0.6-0.8-1.3-1.6-1.9-2.4
							c-1.3-1.6-2.7-3.1-4.2-4.5c-0.4-0.4-0.7-0.6-1.1-1L58.7,36c-0.2-0.2-0.4-0.3-0.6-0.5c-0.8-0.6-1.6-1.2-2.4-1.7
							c-1.7-1.1-3.4-2-5.3-2.8c-0.8-0.6-0.9-0.6-1.9-0.8c0.1,0,0.1,0,0.1-0.1c-0.1,0.2-0.7-0.2-0.9-0.1c-0.7-0.2-1.4-0.4-2.1-0.5
							c-0.7-0.1-1.4-0.2-2.2-0.3c0.2,0,0.4-0.1,0.1-0.2l-0.3,0.1l0-0.1c-0.2,0-0.4,0.1-0.2,0.2c-1.9-0.1-3.8-0.1-5.7,0.1l-1.4,0.1
							c-0.5,0-0.9,0.1-1.4,0.2c-0.9,0.2-1.9,0.5-2.8,0.8c-0.9,0.2-2.1,0.8-3,1.2c-2.8,0.9-5.2,2.2-7.6,4.1
							C21.1,35.6,21.2,35,22.1,34.2z"/>
						<path fill="#808181" d="M20.1,35.8c-0.1,0-0.5,0.1-0.3-0.1C19.9,35.7,20.1,35.7,20.1,35.8z"/>
						<path fill="#808181" d="M13.7,42.7c0,0-0.1,0.1-0.1,0.2c0-0.1,0-0.3,0-0.3C13.7,42.6,13.7,42.6,13.7,42.7z"/>
						<path fill="#808181" d="M13.4,45.2c-0.1,0-0.2-0.6-0.1-0.9C13.3,44.6,13.3,44.9,13.4,45.2z"/>
						<path fill="#808181" d="M13.5,47.7c0,0.2-0.1,0.2-0.1-0.1C13.4,47.6,13.4,47.7,13.5,47.7z"/>
						<path fill="#808181" d="M13.7,47.8c0.1,0.2,0,0.3,0,0.4C13.8,48.2,13.5,47.8,13.7,47.8z"/>
						<path fill="#808181" d="M16.1,52.5c0.1,0.1,0.3,0.2,0.3,0.4C16.4,52.7,15.9,52.5,16.1,52.5z"/>
						<path fill="#808181" d="M17.9,54c0.1,0.1,0.1,0.1,0.1,0.1c0.1,0.1-0.1,0.1-0.2,0L17.9,54z"/>
						<polygon fill="#808181" points="56.5,58.6 56.3,58.7 56.3,58.6 						"/>
						<path fill="#808181" d="M69,45c-0.3-0.3-0.1-0.2-0.1-0.3C69.1,45,68.7,44.7,69,45z"/>
						<polygon fill="#808181" points="62.4,37.4 62.4,37.4 62.3,37.5 						"/>
					</g>
				</g>
			</g>
		</g>
	</g>
	<g>
		<g>
			<g>
				<g>
					<g>
						<path fill="#808181" d="M79.3,29.5C79.4,29.4,79.2,29.4,79.3,29.5C79.4,29.5,79.4,29.5,79.3,29.5z"/>
						<path fill="#808181" d="M79.1,29.7c0.5,0.5,0,1.2,0.4,1.8c0,0.1-0.2,0-0.2,0.1c0.4,0.6,0.1,1.4-0.2,2.1l-0.1,0
							c-0.1,0.1,0.2,0.3,0.1,0.4c0,0-0.1-0.1-0.1,0c0.1,0,0,0.3,0.1,0.3c-0.1,0-0.2,0-0.2,0.1l0.1,0.1c0.3,0.3-0.1,0.5,0,0.8
							c0,0-0.1-0.1-0.1,0c0.1,0.5,0,1.1-0.1,1.6c0,0-0.1-0.1-0.2-0.1c0.1,0.1,0.1,0.2,0.1,0.4c-0.2,0,0.1,0.3-0.1,0.4l0,0
							c0.1,0.2-0.2,0.1,0,0.3l-0.1,0c0.2,0.1-0.2,0.1-0.1,0.3l0,0c0,0.1-0.1,0.1-0.1,0.2l0,0c0,0.2-0.2,0.3,0,0.3
							c-0.2,0,0-0.2-0.2-0.2c-0.1,0.7-0.5,1.3-0.9,1.9c-0.1,0-0.2,0-0.2,0c0,0.1-0.1,0.2-0.1,0.3c0,0-0.1,0-0.1,0
							c-0.1,0.1,0.1,0.2-0.1,0.3c0-0.1,0-0.1-0.1-0.2c0.1,0.2-0.1,0.3-0.1,0.4c0,0,0-0.1,0-0.1c0,0.2-0.2,0.2-0.2,0.3l0-0.1
							c-0.2,0.1,0.1,0.2-0.1,0.3c0-0.1,0-0.1-0.1-0.1c0,0.3-0.2,0.4-0.3,0.6c0,0,0,0,0,0c-0.1,0.1-0.3,0.2-0.4,0.4
							c-0.1,0-0.1-0.2-0.3-0.1c0.1,0.2-0.2,0.3,0,0.4c-0.2,0.1-0.4,0.2-0.5,0.3c0-0.1-0.2-0.2-0.1-0.3l-0.2-0.1c0-0.1,0.1,0,0-0.1
							c-0.1,0-0.2,0.2-0.3,0.2c0,0.2,0,0.5-0.2,0.6c0-0.1-0.2-0.2-0.1-0.2L73.6,44c-0.1,0-0.1-0.1-0.2,0c0,0,0,0.1,0,0.2
							c0,0-0.3,0.2-0.4,0c-0.1-0.1,0.1-0.1,0-0.1c-0.1,0.1-0.1,0.1-0.2,0.2l0,0c-0.1,0-0.2,0.2-0.1,0.3c0.1,0-0.1-0.1,0-0.1
							c0,0.1-0.1,0.2-0.3,0.3c0-0.1,0-0.1,0-0.2c-0.1,0.2-0.3,0.3-0.4,0.5c0,0.1,0-0.2,0.1-0.2c-0.3,0-0.4,0.4-0.7,0.3
							c0,0,0.1,0.1,0.1,0.1c-0.1,0-0.2-0.1-0.2,0c0-0.1-0.1,0.1-0.2,0.1c0,0.1,0,0,0-0.1c-0.1,0.1-0.5,0.4-0.8,0.3
							c0,0.1-0.1,0.2-0.2,0.2l0-0.1c-0.1-0.1-0.2,0.1-0.2-0.1c-0.1,0.2,0.5-0.2,0.3-0.1c-0.1-0.1-0.2,0.3-0.2,0.1
							c-0.1,0-0.2,0.2-0.4,0.1c0.1,0,0.1-0.2,0-0.2c-0.2,0.1-0.1,0.1-0.2,0.1l-0.1,0.1c0,0.1-0.2,0-0.2,0.1c0-0.1-0.4,0.1-0.3-0.1
							l0.1-0.2c-0.1,0-0.2,0.2-0.3,0.3c0,0,0,0,0-0.1c-0.1,0.3-0.2,0-0.5,0.2c0-0.3-0.2-0.6-0.1-0.8c-0.1-0.1-0.2-0.2-0.3-0.4
							c0,0,0.1,0.1,0.1,0.1c0-0.2,0-0.1-0.1-0.2c0,0,0.1-0.3,0.1-0.4c-0.1-0.1-0.2,0-0.3,0c0.2-0.2-0.2-0.3,0-0.5c0,0,0.2,0.1,0.2,0
							c0.2-0.2-0.2-0.2-0.2-0.4l-0.2,0.1c0.1-0.1-0.2-0.2,0-0.3c-0.1,0,0-0.2-0.2-0.2c0.1-0.3-0.2-0.7,0.1-0.9c0,0,0-0.1-0.1-0.1
							c-0.1,0.1,0.1,0.1,0,0.1c0,0-0.1,0-0.1,0c0-0.1,0-0.2,0.2-0.1c0.1-0.2-0.4-0.2-0.3-0.5c0.1,0,0.1,0,0.1-0.1L67,41.1
							c0-0.2,0.2-0.1,0.3-0.1c0-0.1,0-0.2-0.1-0.2l0.2-0.1c-0.1,0.1-0.1-0.1-0.1-0.1l0,0c0.1,0,0-0.1,0-0.2c-0.1,0-0.1,0.1-0.2,0.2
							c-0.1,0,0-0.1-0.1-0.2c0.1,0,0.1-0.1,0.1-0.2c0-0.1-0.1-0.1-0.1-0.1c0.1,0,0-0.1,0.1-0.1c0,0-0.1,0.1,0,0.1
							c0.1-0.1,0.2,0,0.1-0.2c-0.1-0.1-0.3,0-0.2-0.2c0,0,0.1,0.1,0.1,0.1l0.1-0.1l-0.1,0c0,0,0,0,0.1,0c-0.1-0.1,0-0.2-0.2-0.3
							c0-0.1,0.1-0.2,0.1-0.2l0,0c0.1-0.1,0.1-0.2,0-0.3l0,0c0,0,0-0.2-0.1-0.2c0.1-0.1,0.5,0,0.4-0.1c0-0.1-0.2-0.2-0.3-0.2
							c0.1-0.2,0-0.5,0.2-0.7c0,0-0.1,0-0.1-0.1c0.2-0.3,0.1-0.8,0.4-0.9c0,0.1,0.1,0.1,0.2,0.1c-0.1-0.1,0.1,0,0-0.1
							c-0.1,0-0.2-0.1-0.2,0c0-0.2,0.1-0.5,0.3-0.6c-0.1,0-0.1,0-0.1-0.1c0.2,0.1,0.3,0,0.3-0.2l-0.1-0.1l0.1,0c0-0.1-0.2-0.2,0-0.2
							c0,0,0.1,0,0.1,0c0-0.1-0.1-0.4,0.1-0.4l0.2,0c0-0.1,0-0.2-0.1-0.1c0.2-0.1,0.3-0.2,0.4-0.2c-0.1-0.5,0.3-1,0.6-1.3l0.1,0.1
							c0.1,0-0.1-0.1,0-0.2c0,0.1,0.2,0.1,0.2,0.2c0.2-0.1,0-0.3,0.1-0.4c-0.1-0.1,0,0.1-0.1,0c0,0,0.2-0.1,0.1-0.2
							c0.1,0,0.1,0.1,0.2,0.2l0-0.1c0.2,0.1,0.1,0.4,0.3,0.5l0-0.1c0.2,0.1,0,0.3,0.2,0.2c0-0.1-0.1-0.4-0.2-0.3
							c0.1-0.2-0.2-0.4,0-0.5c0.1,0-0.1,0.1,0,0.2c0.2,0,0.1-0.2,0.2-0.2c-0.1,0-0.2-0.2-0.1-0.2c0.1,0,0.1,0.2,0.2,0.1
							c0-0.1,0-0.2-0.1-0.2c-0.1-0.2,0.2-0.1,0.1-0.3c0.1,0.1,0.1,0.4,0.3,0.3c-0.1-0.1,0-0.3-0.2-0.4c0.1,0,0.2,0.1,0.2,0.2
							c0.1,0,0-0.4,0.2-0.2L71,31.9c0.1,0,0.1,0,0.2,0.1c0.1-0.1,0.1-0.3,0.2-0.1c0,0,0.2-0.2,0-0.2c-0.2,0,0,0.2-0.2,0.1
							c0.2,0.1,0.1-0.1,0.2-0.2l0.1,0.1c0-0.1,0.1-0.1,0.1-0.2c0,0.1,0.1,0.1,0.1,0.1l0-0.1c0.1-0.2,0.2,0.2,0.3,0l0,0.2
							c0,0,0.1,0,0.2,0c0-0.1-0.1-0.3-0.1-0.4C72,30.9,72,31.1,72,31l0,0.2c0,0,0.2,0.1,0.3,0c0-0.1,0.1-0.3-0.1-0.3
							c0.1,0,0.2,0,0.2,0.1c0.1-0.1-0.1-0.1,0-0.2c0.1,0,0.3,0.1,0.4,0.1l0,0.2l0.1,0c0,0.2,0.1,0.1,0.2,0.3c0.1,0,0.1-0.1,0.1-0.2
							c-0.3-0.2,0-0.4-0.2-0.6c0.2-0.2,0.4,0.5,0.5,0c-0.1,0-0.1-0.3-0.2-0.1c0.1,0,0-0.3,0.2-0.3c-0.1,0.2,0.2,0.2,0.2,0.4
							c0-0.1-0.1,0-0.1,0c0.1,0.1,0.1,0.2,0.2,0.2c0.1-0.1,0.2-0.1,0.1-0.2c-0.1-0.1-0.1,0.1-0.1-0.1c0.1-0.1,0.3,0.1,0.2-0.2
							c-0.1,0.1-0.2-0.1-0.2-0.1l0.1-0.1l0,0.1c0.2,0,0-0.2,0.2-0.3l0.2,0.1c0,0.2-0.3,0.1-0.2,0.3c0.1-0.1,0.1-0.2,0.3-0.2
							c0,0,0,0.1-0.1,0.1c0,0,0.2,0.3,0.3,0c0.1-0.1,0-0.1-0.1-0.2c0.2-0.1,0.2-0.2,0.3-0.3c0.1,0.2,0.2-0.1,0.2,0.2
							c-0.1-0.1-0.4,0.1-0.4,0.3c0.2,0.2-0.2,0-0.1,0.3c0.2-0.1,0.2,0.1,0.3,0.3c0,0,0.1-0.1,0.1-0.1c0-0.1-0.1-0.1-0.2-0.2
							c0.2,0,0.3-0.2,0.4-0.4c0.1,0,0.1,0.2,0.1,0.2c0.2-0.1,0.4-0.2,0.6-0.3c-0.2-0.2,0.2-0.1,0-0.3c-0.1,0-0.3-0.1-0.3-0.2
							c0.1,0,0,0.1,0.1,0.1c0-0.2,0.2,0.1,0.2-0.1c-0.2,0.1,0.1,0.3,0.1,0.5c0.1-0.1,0,0.1,0.2,0.1c0.1-0.1,0.2-0.3,0.4-0.4
							c0.3,0.1,0.5-0.2,0.7-0.2c0.1,0.1,0.1,0.3,0.2,0.3c0.1,0-0.2-0.2,0-0.1l0,0c0-0.1,0.4,0,0.3-0.3l0,0.2c0,0,0.1,0,0.1-0.1
							c0,0.1,0.1,0.1,0,0.2c0.1,0.1,0.2-0.1,0.3-0.1l-0.1-0.1c0.2-0.2,0.3-0.1,0.5-0.2l0,0.1l0.1-0.1c0,0.1,0.1,0.2,0.2,0.1
							l-0.2,0.4c-0.1-0.1,0.1-0.2,0-0.3c-0.1-0.1-0.2,0-0.2,0.1c0.1,0,0.1,0,0.1-0.1c0.1,0.2,0,0.2-0.1,0.3c0,0,0.1,0,0.1,0
							c0,0.1-0.1,0.1-0.2,0.2c0.1-0.1-0.1-0.1-0.1-0.2c0,0.2-0.1,0.2-0.2,0.2c-0.2-0.1-0.2,0.2-0.4,0.2c0-0.2,0.1-0.3,0.1-0.4
							c-0.1,0-0.1,0-0.2,0c0,0.1,0,0.3-0.1,0.4l0-0.1c-0.1,0.1,0,0.3-0.2,0.3c-0.3,0-0.5,0.1-0.7,0.2l0-0.1c0,0.3-0.3,0.2-0.4,0.4
							c-0.3,0-0.5,0.3-0.7,0.2c-0.4,0.3-0.7,0.5-1.2,0.7l0-0.2c0,0.2-0.1-0.1-0.2,0c0.2,0.1,0,0.2,0,0.3c-0.3,0-0.4,0.3-0.5,0.5
							l-0.1-0.1c0,0.3-0.3,0.3-0.6,0.4c-0.1,0-0.2-0.1-0.2,0c0,0.2-0.1,0.3-0.1,0.5c-0.1,0.1-0.3,0.2-0.5,0.2
							c-0.2,0.5-0.7,0.8-1,1.3l-0.1-0.1c-0.1,0.6-0.7,0.9-0.8,1.3l-0.2-0.2c-0.1,0.1-0.1,0.3,0,0.4c-0.1,0.1-0.1,0.3-0.3,0.3
							c-0.1,0.1,0,0.2,0,0.3c-0.2,0.2-0.2,0.3-0.3,0.6l0-0.1c0,0-0.1-0.1-0.2,0c0,0.1-0.2,0.3,0.1,0.3c-0.3,0.2-0.1,0.6-0.4,0.8
							c0.1,0,0.1,0.1,0.1,0.1c0,0.2-0.3,0.4-0.2,0.7c0,0-0.1-0.1-0.1,0c0,0.1,0.1,0,0.1,0.1c0.1,0.4-0.3,0.8-0.2,1.1
							c0.1,0.6,0.1,1.3,0.2,1.9l-0.1,0c0.2,0.2-0.2,0.5,0.2,0.6c0,0.1,0,0.2-0.1,0.2c0.2,0.1,0,0.5,0.2,0.7c0,0,0,0,0-0.1
							c0,0.1,0,0.3,0,0.3c0,0,0.1,0.1,0,0.2c0,0,0,0-0.1,0c-0.1,0.1,0.2,0,0,0.2c0,0,0.1-0.1,0.1-0.1c0,0.2,0,0.3,0.2,0.2
							c0.1,0,0.1-0.1,0.2-0.1c0.1,0,0,0,0.2-0.1c0.4,0.1,0.1,0.4,0.4,0.2c0,0,0-0.1,0-0.1c0.1-0.1,0.3,0.3,0.3,0.1
							c-0.1-0.2,0-0.1,0-0.2c0.3,0,0.4,0.2,0.5,0l0,0.1c0.2-0.3,0.5-0.3,0.5-0.6c1.2-0.5,2.2-1.2,3-2.1c0.9-0.8,1.6-1.7,2.3-2.7
							c0.3-0.1,0.3-0.2,0.4-0.5c0,0,0,0,0.1,0c-0.2-0.1,0.1-0.2-0.1-0.3c0.2-0.4,0.3-0.8,0.4-1.3c0,0.1,0.1,0.2,0.1,0.1l-0.1-0.1
							l0.1,0c0-0.1-0.1-0.2-0.2-0.1c0.1-1.2,0.8-2.3,0.8-3.5c0.1-0.3,0.1-0.7,0-1c0.2-0.9,0.4-1.8,0.2-2.7
							C78.5,29.2,79,29.3,79.1,29.7z"/>
						<path fill="#808181" d="M79.1,29.6c-0.1-0.1-0.2-0.1-0.1-0.3C79,29.4,79.1,29.5,79.1,29.6z"/>
						<path fill="#808181" d="M75.9,29.5C75.9,29.6,75.9,29.5,75.9,29.5c0-0.1,0-0.1,0-0.1C75.9,29.4,75.9,29.5,75.9,29.5z"/>
						<path fill="#808181" d="M75.2,29.8c0-0.1,0.1-0.2,0.2-0.3L75.2,29.8z"/>
						<path fill="#808181" d="M74.3,29.8c-0.1,0-0.1-0.1,0-0.1C74.4,29.7,74.3,29.7,74.3,29.8z"/>
						<path fill="#808181" d="M74.4,30c-0.1,0-0.1,0-0.2,0C74.3,30,74.3,29.8,74.4,30z"/>
						<path fill="#808181" d="M72.8,30.5c0,0-0.1,0.1-0.1,0.1C72.7,30.6,72.8,30.4,72.8,30.5z"/>
						<path fill="#808181" d="M72.2,31.1C72.2,31.1,72.2,31.1,72.2,31.1C72.1,31.1,72.1,31,72.2,31.1L72.2,31.1z"/>
						<polygon fill="#808181" points="67.4,43.4 67.4,43.4 67.4,43.4 						"/>
						<path fill="#808181" d="M72.5,44.9c0.1-0.1,0.1,0.1,0.1,0.1C72.6,44.9,72.6,44.8,72.5,44.9z"/>
						<polygon fill="#808181" points="75.1,42.8 75.1,42.9 75,42.7 						"/>
					</g>
				</g>
			</g>
		</g>
	</g>
	<g>
		<g>
			<g>
				<g>
					<g>
						<path fill="#808181" d="M79.2,61.4c0.2,0-0.1-0.2,0.1,0C79.3,61.5,79.2,61.5,79.2,61.4z"/>
						<path fill="#808181" d="M79.6,60.6c-0.4-0.5,0.1-1.2-0.2-1.8c0-0.1,0.2,0,0.2-0.1c-0.3-0.6-0.2-1.4,0-2.1l0.1,0
							c0-0.1-0.2-0.3-0.2-0.4c0,0,0.1,0,0.1,0c-0.1,0-0.1-0.2-0.2-0.3c0-0.1,0.2-0.1,0.2-0.1l-0.2-0.1c-0.4-0.2-0.1-0.5-0.3-0.8
							c0,0,0.1,0,0.1,0c-0.3-0.4-0.3-1-0.6-1.5c0.1,0,0.2,0,0.2-0.1c-0.2,0-0.3-0.1-0.3-0.2c0.1-0.1-0.2-0.2-0.2-0.4l0,0
							c-0.2-0.1,0-0.2-0.2-0.2l0.1-0.1c-0.2,0,0.1-0.2-0.1-0.3l0,0C78,52.1,78.1,52,78,52l0,0c-0.2-0.2-0.1-0.3-0.3-0.2
							c0.1-0.1,0.2,0.1,0.3,0c-0.5-0.5-0.7-1.2-1.2-1.7c0-0.1,0-0.2,0.1-0.2c-0.1,0-0.2-0.2-0.3-0.2c0,0,0-0.1,0-0.1
							c0-0.1-0.2,0-0.3-0.1c0.1,0,0.1,0,0.2-0.1c-0.2,0-0.3-0.1-0.4-0.2c0,0,0.1,0,0.1,0c-0.2,0-0.2-0.2-0.3-0.3l0.1,0
							c-0.1-0.2-0.2,0.1-0.3-0.1c0.1,0,0.1,0,0.1-0.1c-0.3,0-0.4-0.2-0.6-0.3c0,0,0,0,0,0c-0.2-0.1-0.3-0.3-0.5-0.3
							c0-0.1,0.2-0.2,0-0.3c-0.1,0.2-0.3-0.1-0.4,0.1c-0.1-0.1-0.3-0.4-0.4-0.4c0.1,0,0.1-0.3,0.2-0.2l0-0.2c0.1-0.1,0.1,0.1,0.1,0
							c-0.1,0-0.3-0.1-0.3-0.1c-0.2,0-0.4,0.2-0.6,0.1c0.1,0,0.1-0.2,0.1-0.2l-0.5,0.2c-0.1,0,0.1-0.2,0-0.2c0,0.1-0.1,0.1-0.1,0.1
							c0,0-0.3-0.1-0.2-0.3c0-0.1,0.1,0,0.1-0.1c-0.1-0.1-0.2,0-0.3,0l0,0c-0.1-0.1-0.3,0-0.2,0.1c0,0,0-0.1,0.1,0
							c-0.1,0.1-0.2,0.1-0.4,0c0.1,0,0.1-0.1,0.1-0.1c-0.2,0.1-0.4,0.1-0.6,0.1c0,0.1,0.1-0.1,0.1-0.1c-0.2-0.2-0.5,0-0.7-0.2
							c0,0,0,0.1,0,0.1c-0.1,0-0.1-0.2-0.1-0.2c0-0.1-0.1,0-0.2,0c-0.1,0,0,0,0.1,0c-0.1,0-0.6,0-0.8-0.1c0,0.1-0.2,0.2-0.2,0.2
							l0-0.1c0-0.1-0.2,0-0.2-0.1c-0.2,0.1,0.5,0,0.3,0c0-0.1-0.3,0.2-0.2,0c-0.1,0-0.3,0.1-0.3,0c0,0,0.1-0.2,0-0.2
							c-0.1,0,0,0.1-0.1,0.1l0,0c0,0.1-0.1,0,0,0.1c0-0.1-0.1,0.1-0.2-0.2l0-0.2c-0.1,0,0,0.2,0,0.3c0,0,0-0.1-0.1-0.1
							c0.1,0.3-0.1,0,0,0.2c-0.1,0-0.1,0.2-0.2,0.1c0,0.1,0.1,0.2,0,0.3c0,0,0-0.1-0.1-0.1c-0.1,0,0,0.1,0,0.1c0,0-0.2,0-0.3,0.1
							c0,0.1,0.2,0.1,0.3,0.2c-0.3,0,0.1,0.4-0.2,0.4c0,0-0.1-0.2-0.2-0.1c-0.3,0,0.1,0.2,0,0.4l0.2,0c-0.1,0,0.1,0.3-0.1,0.2
							c0.1,0.1-0.1,0.2,0.1,0.2c-0.2,0.2,0,0.7-0.4,0.8c0,0,0,0.1,0.1,0.1c0.1-0.1-0.1-0.1,0-0.1c0,0,0.1,0,0.1,0.1
							c-0.1,0.1-0.1,0.1-0.2,0c-0.1,0.2,0.3,0.2,0.2,0.5c-0.1,0-0.1,0-0.1,0.1l0.1,0.1c0,0.2-0.2,0.1-0.3,0.1c0,0.1,0,0.2,0.1,0.2
							l-0.2,0.1c0.1-0.1,0.1,0.1,0.1,0.1l0,0c-0.1,0,0,0.1,0,0.2c0.1,0,0.1-0.1,0.1-0.2c0.1,0,0.1,0.1,0.1,0.2
							c-0.1,0-0.1,0.1-0.1,0.2c0,0.1,0.1,0.1,0.1,0.1c-0.1,0,0,0.1-0.1,0.1c0,0,0.1-0.1,0-0.1c-0.1,0.1-0.2,0.1-0.1,0.2
							c0.1,0.1,0.3,0,0.2,0.1c0,0-0.1,0-0.1-0.1l-0.1,0.1l0.1,0c0,0,0,0-0.1,0c0.1,0,0.1,0.2,0.2,0.2c0,0.1-0.1,0.2-0.1,0.2l0,0
							c-0.1,0.1,0,0.2,0.1,0.2l0,0c0,0,0,0.1,0.1,0.2c-0.1,0.1-0.5,0.1-0.3,0.2c0,0.1,0.3,0.1,0.3,0.1c0,0.2,0.2,0.4,0.1,0.6
							c0.1,0,0.1,0,0.1,0c0.1,0.3,0.3,0.5,0.2,0.8c-0.1-0.1-0.1,0-0.2,0.1c0.1,0-0.1,0.1,0.1,0.1c0.1-0.1,0.2-0.1,0.2-0.2
							c0.1,0.1,0.2,0.4,0.2,0.5c0-0.1,0.1,0,0.1,0c-0.2,0.1-0.1,0.2,0,0.3l0.1,0L69.5,54c0.1,0,0.2-0.1,0.2,0.1c0,0-0.1,0.1-0.1,0.1
							c0.1,0,0.3,0.1,0.3,0.2l-0.1,0.2c0,0,0.2,0,0.2-0.1c0,0.2,0.1,0.3,0,0.4c0.5,0.1,0.8,0.4,1,0.7l-0.1,0c0,0.1,0.1-0.1,0.1,0
							c-0.1,0-0.1,0.2-0.2,0.2c0,0.2,0.2,0,0.3,0.1c0.1-0.1-0.1,0,0-0.1c0,0,0.1,0.2,0.2,0.1c0,0.1-0.1,0.1-0.2,0.2l0.1,0
							c-0.1,0.2-0.4,0.1-0.5,0.3l0.1,0c-0.1,0.2-0.3,0-0.2,0.2c0.1,0,0.4-0.1,0.4-0.2c0.2,0.1,0.3-0.2,0.5-0.1c0,0.1-0.1-0.1-0.2,0
							c0,0.2,0.2,0.1,0.2,0.2c0-0.1,0.1-0.2,0.2-0.2c0,0.1-0.2,0.1-0.1,0.2c0.1-0.1,0.2,0,0.2-0.1c0.2-0.1,0.1,0.1,0.2,0.1
							c-0.1,0.1-0.3,0.2-0.3,0.3c0.1-0.1,0.3,0,0.4-0.3c0,0.1-0.1,0.2-0.1,0.2c0,0.1,0.3-0.1,0.2,0.2l0.1-0.1c0,0.1,0,0.1,0,0.2
							c0.1,0.1,0.3,0,0.2,0.2c0,0,0.2,0.1,0.2-0.1c0-0.1-0.2,0-0.1-0.2c0,0.2,0.1,0.1,0.2,0.1l0,0.1c0.1,0,0.1,0.1,0.2,0
							c-0.1,0-0.1,0.1-0.1,0.1l0.1-0.1c0.2,0-0.1,0.2,0,0.3l-0.2,0c0,0,0,0.1,0.1,0.1c0.1-0.1,0.2-0.2,0.3-0.2c0.1,0,0,0.1,0.1,0.1
							l-0.2,0.1c0,0-0.1,0.2,0,0.3c0.1,0,0.3-0.1,0.2-0.2c0,0,0.1,0.1,0,0.2c0.1,0,0.1-0.1,0.2-0.1c0,0.1,0.1,0.3,0.1,0.4l-0.2,0.1
							l0.1,0c-0.2,0.1,0,0.1-0.2,0.3c0,0.1,0.1,0,0.2,0c0-0.3,0.3-0.2,0.4-0.5c0.2,0-0.2,0.6,0.2,0.4c0-0.1,0.2-0.2,0-0.2
							c0.1,0.1,0.2-0.2,0.3,0c-0.2,0,0,0.3-0.2,0.3c0.1-0.1-0.1-0.1-0.1-0.1c0,0.1-0.1,0.2,0,0.3c0.1,0,0.2,0.1,0.2-0.1
							c0.1-0.1-0.1,0,0-0.2c0.2,0,0.1,0.2,0.3,0c-0.1,0-0.1-0.2,0-0.3l0.1,0l-0.1,0.1c0.1,0.2,0.1-0.1,0.3,0l0,0.2
							c-0.1,0.1-0.2-0.2-0.3,0.1c0.1,0.1,0.2,0,0.3,0.1c0,0-0.1,0-0.1,0c0,0-0.1,0.4,0.2,0.3c0.1,0,0.1-0.1,0.1-0.2
							c0.2,0.1,0.3,0,0.4,0c-0.1,0.2,0.2,0.1,0,0.2c0-0.1-0.3-0.2-0.4-0.1c0,0.2-0.1-0.1-0.3,0.1c0.1,0.1,0,0.3,0,0.4
							c0,0,0.1,0,0.1,0c0.1-0.1,0-0.1,0.1-0.3c0.1,0.1,0.3,0.1,0.5,0c0,0.1,0,0.2-0.1,0.2c0.2,0.1,0.4,0.2,0.6,0.3
							c0-0.3,0.2,0,0.2-0.2c-0.1-0.1-0.1-0.3,0-0.4c0.1,0,0,0.1,0,0.2c0.1-0.1,0,0.2,0.2,0.1c-0.2,0-0.1,0.2-0.2,0.4
							c0.2,0-0.1,0.1,0.1,0.2c0.2,0,0.4,0,0.5,0c0.1,0.2,0.5,0.2,0.6,0.2c0.1,0.1-0.1,0.3,0,0.4c0.1,0,0-0.2,0.1-0.1l0,0
							c0.1,0,0.3,0.2,0.4,0l-0.1,0.2c0,0,0.1,0,0.1,0c0,0.1,0,0.1-0.1,0.2c0.1,0.2,0.2,0,0.3,0.1l0-0.1c0.2,0,0.3,0.1,0.5,0.1l0,0.1
							l0.1,0c-0.1,0.1,0,0.2,0.1,0.1l-0.4,0.2c-0.1-0.1,0.1-0.1,0.1-0.3c0-0.1-0.2-0.1-0.3,0c0.1,0,0.1,0,0.1,0
							c0,0.2-0.1,0.1-0.2,0.2c0,0,0.1,0.1,0.1,0c-0.1,0.1-0.2,0.1-0.3,0c0.1,0,0-0.1,0-0.2c-0.1,0.1-0.2,0.2-0.3,0.1
							c-0.1-0.2-0.3,0-0.5-0.1c0.1-0.1,0.2-0.2,0.4-0.3c-0.1-0.1-0.1,0-0.2-0.1c-0.1,0.1-0.2,0.3-0.3,0.3l0-0.1
							c-0.1,0-0.2,0.2-0.3,0.1c-0.3-0.2-0.5-0.2-0.7-0.3l0-0.1c-0.2,0.2-0.4-0.1-0.6,0c-0.2-0.2-0.6-0.1-0.6-0.4
							c-0.5-0.1-0.9-0.2-1.3-0.5l0.2-0.1c-0.1,0.1,0-0.1-0.1-0.1c0,0.2-0.2,0.1-0.3,0.2c-0.1-0.2-0.5-0.3-0.7-0.3l0.1-0.1
							c-0.3,0.1-0.4-0.2-0.6-0.4c0-0.1,0-0.2,0-0.2c-0.2,0.1-0.3,0-0.5,0c-0.1-0.1-0.3-0.3-0.4-0.4c-0.6-0.2-0.9-0.7-1.5-1l0.1-0.1
							c-0.6-0.2-0.9-1-1.3-1.3l0.2-0.1c0-0.2-0.2-0.3-0.4-0.1c0-0.2-0.3-0.3-0.2-0.5c0-0.2-0.2-0.1-0.3-0.2
							c-0.1-0.3-0.1-0.4-0.3-0.7l0,0.1c0.1,0,0.2,0,0.1-0.1c-0.1-0.1-0.1-0.4-0.3-0.2c0-0.4-0.4-0.7-0.3-1.1c-0.1,0-0.1,0-0.2,0
							c-0.1-0.3,0-0.6-0.2-0.8c0-0.1,0.1,0,0.1-0.1c0-0.1-0.1,0-0.2-0.1c-0.2-0.5,0-1,0-1.4c-0.2-0.7-0.1-1.5,0-2.2l0.1,0
							c-0.2-0.3,0.3-0.5,0-0.8c0.1,0,0.1-0.2,0.2-0.1c-0.1-0.2,0.3-0.5,0.1-0.8c0,0,0,0,0,0.1c0.1-0.1,0.1-0.2,0.1-0.4
							c0-0.2,0.1-0.4,0.2-0.6c0,0.1,0,0.1,0,0.2c0.1-0.1-0.1-0.5,0.2-0.4c0-0.1-0.1-0.2-0.1-0.1c0.1-0.2,0.2-0.4,0.2-0.6l0.1-0.2
							c0,0,0.1,0,0.2,0l0.4,0c0.2,0,0.5,0,0.8,0c0.2,0,0.6,0,0.7,0c0.4,0.3-0.1,0.5,0.3,0.3c0,0.1,0-0.1,0,0c0.2,0,0.2,0.3,0.3,0.2
							c0-0.2,0.1-0.1,0.1-0.2c0.3,0.2,0.3,0.3,0.5,0.3l0,0.1c0.3-0.2,0.6,0.1,0.9-0.1c1.4,0.5,2.8,1,4,2c0.3,0.2,0.5,0.5,0.8,0.8
							c0.2,0.3,0.5,0.5,0.7,0.8c0.4,0.6,0.9,1.2,1.1,1.9c0,0.4,0,0.4,0.2,0.7c0,0-0.1,0-0.1,0c0.2-0.1,0.1,0.2,0.3,0.2
							c0.2,0.5,0.4,1,0.6,1.5c0-0.1-0.2-0.1-0.2,0l0.2,0.1l0,0c0,0.1,0.2,0.1,0.2,0c0.5,1.3,0.4,2.8,0.5,4.1c-0.1,0.3,0,0.8,0.1,1.1
							c-0.3,1-0.5,1.9-0.4,2.9C80.2,61.2,79.7,61.1,79.6,60.6z"/>
						<path fill="#808181" d="M79,61.4c0-0.1-0.1-0.2,0-0.3C79,61.2,79,61.3,79,61.4z"/>
						<path fill="#808181" d="M76.4,59.6C76.4,59.6,76.4,59.5,76.4,59.6C76.4,59.5,76.5,59.5,76.4,59.6
							C76.4,59.5,76.4,59.6,76.4,59.6z"/>
						<path fill="#808181" d="M75.7,59.3c0-0.1,0.2-0.1,0.3,0L75.7,59.3z"/>
						<path fill="#808181" d="M75.2,58.7C75.2,58.6,75.3,58.5,75.2,58.7C75.3,58.6,75.3,58.6,75.2,58.7z"/>
						<path fill="#808181" d="M75.1,58.8c-0.1,0-0.1-0.1-0.1-0.1C75,58.7,75.2,58.7,75.1,58.8z"/>
						<path fill="#808181" d="M73.9,57.9c0,0-0.1,0-0.1-0.1C73.8,57.9,74,57.8,73.9,57.9z"/>
						<path fill="#808181" d="M73.3,57.6C73.3,57.6,73.3,57.6,73.3,57.6C73.2,57.5,73.3,57.5,73.3,57.6L73.3,57.6z"/>
						<polygon fill="#808181" points="68.7,47.2 68.7,47.2 68.6,47.2 						"/>
						<path fill="#808181" d="M72.1,46.6c0.1,0,0,0.1,0,0.1C72,46.7,72.1,46.7,72.1,46.6z"/>
						<polygon fill="#808181" points="74.8,47.8 74.8,47.8 74.9,47.7 						"/>
					</g>
				</g>
			</g>
		</g>
	</g>
	<g>
		<g>
			<g>
				<g>
					<g>
						<path fill="#808181" d="M30.9,55.5C30.9,55.5,30.9,55.5,30.9,55.5L30.9,55.5L30.9,55.5z"/>
						<path fill="#808181" d="M31.1,55.3c0-0.1,0-0.1-0.1-0.1C31,55.3,31,55.3,31.1,55.3c-0.1,0.1-0.1,0.1-0.1,0c0,0,0,0,0,0.1
							C31,55.5,31.1,55.4,31.1,55.3C31.1,55.3,31.1,55.3,31.1,55.3z"/>
						<path fill="#808181" d="M33.4,51.9L33.4,51.9C33.4,52,33.4,51.9,33.4,51.9z"/>
						<path fill="#808181" d="M34.6,49.7C34.6,49.7,34.6,49.7,34.6,49.7C34.6,49.7,34.6,49.7,34.6,49.7z"/>
						<path fill="#808181" d="M34.8,49.3C34.8,49.3,34.8,49.3,34.8,49.3C34.8,49.3,34.8,49.3,34.8,49.3z"/>
						<path fill="#808181" d="M33.4,51.9L33.4,51.9C33.4,51.9,33.4,51.9,33.4,51.9z"/>
						<path fill="#808181" d="M31.3,54.8C31.3,54.8,31.3,54.8,31.3,54.8L31.3,54.8L31.3,54.8z"/>
						<polygon fill="#808181" points="32.9,52.9 32.9,53 32.9,53 						"/>
						<path fill="#808181" d="M32.4,53.7C32.4,53.7,32.4,53.6,32.4,53.7C32.4,53.6,32.4,53.6,32.4,53.7
							C32.4,53.7,32.4,53.7,32.4,53.7z"/>
						<path fill="#808181" d="M31.6,54.8L31.6,54.8L31.6,54.8z"/>
						<path fill="#808181" d="M33.2,52.4C33.2,52.4,33.2,52.4,33.2,52.4C33.2,52.4,33.2,52.4,33.2,52.4z"/>
						<path fill="#808181" d="M32.4,30.1L32.4,30.1C32.4,30.1,32.4,30.1,32.4,30.1z"/>
						<polygon fill="#808181" points="31.9,29.2 31.9,29.2 31.9,29.1 						"/>
						<path fill="#808181" d="M35.1,48.6L35.1,48.6C35.1,48.6,35.1,48.6,35.1,48.6z"/>
						<path fill="#808181" d="M36.7,41.4c0,0.1-0.1-0.1-0.1,0C36.6,41.4,36.6,41.5,36.7,41.4z"/>
						<path fill="#808181" d="M31.3,54.8L31.3,54.8C31.3,54.8,31.3,54.8,31.3,54.8z"/>
						<path fill="#808181" d="M36.5,41.4L36.5,41.4L36.5,41.4C36.5,41.4,36.5,41.4,36.5,41.4z"/>
						<path fill="#808181" d="M35.7,46.9C35.7,46.9,35.7,46.9,35.7,46.9C35.7,46.9,35.7,46.9,35.7,46.9z"/>
						<path fill="#808181" d="M35.2,48.1L35.2,48.1C35.2,48.1,35.2,48.1,35.2,48.1z"/>
						<path fill="#808181" d="M35.9,46.1C35.9,46.1,35.9,46.1,35.9,46.1L35.9,46.1C35.9,46.1,35.9,46.1,35.9,46.1z"/>
						<polygon fill="#808181" points="36,45.4 36,45.4 36,45.5 						"/>
						<path fill="#808181" d="M33.7,31.8C33.7,31.8,33.7,31.8,33.7,31.8C33.7,31.8,33.6,31.7,33.7,31.8z"/>
						<path fill="#808181" d="M31.3,54.8C31.3,54.8,31.3,54.8,31.3,54.8L31.3,54.8C31.3,54.8,31.3,54.8,31.3,54.8z"/>
						<path fill="#808181" d="M35.4,46l0-0.1C35.5,45.9,35.5,46,35.4,46z"/>
						<path fill="#808181" d="M35.7,36.6L35.7,36.6C35.7,36.6,35.7,36.6,35.7,36.6z"/>
						<path fill="#808181" d="M35.6,45.6C35.6,45.5,35.6,45.5,35.6,45.6C35.6,45.5,35.6,45.5,35.6,45.6L35.6,45.6z"/>
						<path fill="#808181" d="M33.7,31.8L33.7,31.8L33.7,31.8z"/>
						<path fill="#808181" d="M33.2,31.2c0.1,0.1,0.1,0,0.1,0c0.1,0.1,0,0.1,0,0.1c0.1,0.1,0.1,0.1,0.2,0.1c0,0,0,0,0,0
							c0.1,0,0.1,0.2,0.3,0.3c0,0,0,0,0,0c0,0,0.1-0.1,0.1-0.1c0,0,0.1,0.1,0.1,0.1c0,0,0,0-0.1,0l0,0c0,0.1-0.1,0-0.1,0
							c0.1,0.1,0.2,0.1,0.2,0.2c0,0-0.1-0.1-0.1,0l0-0.1c0,0.1,0-0.1-0.1,0.1c0.1,0.1,0.1,0.1,0.2,0.3c0,0,0,0,0.1,0
							c0.2,0.2-0.1,0.2,0.1,0.3c0.1,0,0.1,0,0.2,0.1l-0.1,0c0.1,0.1,0.1,0,0.2,0.2c0,0-0.1-0.1-0.1-0.1c0,0.1,0.1,0,0.1,0.1l-0.1,0
							c0.1,0.1,0.2,0.3,0.3,0.4c0,0-0.1,0-0.1,0c0.1,0.2,0.2,0.4,0.2,0.7l0.1,0.1c0,0,0,0,0,0c0,0.1,0,0,0.1,0c0,0,0,0.1,0,0
							c0.1,0.1,0.3,0.4,0.3,0.5l0,0c0,0.1,0.2,0.1,0.1,0.2l0,0c0.1,0.3,0.2,0.5,0.2,0.7c0.1,0,0,0.3,0.2,0.2c0,0.2,0,0.1,0,0.3
							c0,0.1,0.1,0.1,0.1,0.1l-0.1,0l0.1,0.1l-0.1,0.1l0,0.1c0,0,0-0.1,0-0.1c0,0.1,0,0.3,0,0.3l0.1,0.2c0,0,0,0-0.1-0.1
							c0.1,0.1-0.1,0,0,0.1c0,0,0,0,0,0c0,0.1,0,0.2,0,0.3l0,0c0,0.2,0.1,0.4,0.1,0.6c0-0.1,0.1-0.1,0.1,0L36,38c0,0,0-0.1,0.1,0
							c0,0.1-0.1,0.1-0.1,0l0,0.1c0,0,0,0-0.1,0c0.1,0,0,0.2,0,0.2l0,0c0,0.2,0.1,0.3,0.1,0.5c0.1,0,0,0.1,0.1,0.1
							c0,0.1,0,0.3,0,0.4c0,0.1,0,0,0.1,0.1c0,0,0,0.2-0.1,0.1c0,0.2,0,0.2,0.1,0.4c0,0,0-0.1,0,0c0,0,0,0.1,0,0.1l0,0
							c0.1,0.2-0.1,0.6,0,0.8l0,0l0.1,0.2c0,0.1,0-0.1-0.1,0c0.1,0.2,0,0.4,0,0.5c-0.1,0.1,0,0.5-0.1,0.7l0,0c0,0.1,0,0.1,0,0.1
							c0,0,0-0.1,0,0c0,0.4-0.2,0.9-0.3,1.3c0,0.2,0.2,0.1,0.1,0.3l-0.1-0.1c0,0.3-0.1,0.6-0.1,1c0,0,0,0,0-0.1
							c-0.1,0.1-0.1,0.2,0,0.2c0,0,0,0-0.1,0c0,0.1,0,0.2,0,0.2c0,0,0,0,0,0c0,0-0.1,0.2,0,0.2c-0.1,0.1,0,0.2-0.1,0.3
							c0,0.1-0.1,0.2,0,0.2c-0.1,0-0.1,0.2-0.1,0.3c0,0,0,0.1-0.1,0c0,0.1,0,0.2,0,0.2c-0.1,0.1,0,0.3-0.1,0.4c0,0.3,0,0.5-0.1,0.7
							c-0.1,0,0.1-0.2,0-0.3c0,0.2,0,0.4-0.1,0.5c0,0,0,0,0-0.1c0,0.2-0.2,0.4-0.2,0.6c0,0,0,0,0,0c0,0,0,0.1,0,0.1l0,0
							c0.1,0,0.1,0.2,0.1,0.2c-0.1-0.1-0.1,0.2-0.2,0c0,0,0,0.1,0,0.1c0,0,0,0-0.1,0c0,0.1,0,0.1,0,0.2c0,0,0,0,0-0.1
							c0,0.1,0,0.1,0,0.2c0,0,0,0,0,0c-0.1,0.2,0,0.3-0.1,0.5c-0.1-0.1,0,0.1-0.1,0l0,0.1l0,0c0,0.1,0,0.2-0.1,0.2l0-0.1l-0.1,0.2
							l0.1-0.1c0,0.1,0.1,0,0,0.1c0,0,0,0.1-0.1,0.1l0,0c0,0.1,0,0.1,0,0.2c0,0-0.1,0-0.1,0c0,0.1-0.1,0.2-0.1,0.3c0,0,0,0,0,0
							l0,0.1c0,0,0,0-0.1,0c-0.1,0.1,0.1,0,0,0.1c0,0,0,0,0,0c-0.1,0.1-0.1,0.3-0.2,0.4c-0.1,0,0-0.1,0-0.1
							c-0.1,0.2-0.1,0.4-0.2,0.6l0,0c0.1,0.1-0.1,0.1-0.1,0.2c0,0,0-0.1,0,0c-0.1,0.1-0.1,0.3-0.2,0.5l0,0c-0.1,0.1-0.1,0.2-0.2,0.2
							c0,0,0,0.1,0,0.1c-0.3,0.2-0.1,0.5-0.4,0.6c0,0,0-0.1,0,0l-0.1,0.2c0,0,0,0,0.1,0c0,0,0,0.1,0,0.1c0-0.1-0.1,0-0.1,0
							c0,0,0,0,0,0c-0.1,0,0.1,0.1-0.1,0.2l0,0c0,0.1,0,0.1-0.1,0.2c-0.1,0,0-0.1,0-0.1c0,0.1,0,0.2-0.1,0.2c0,0,0-0.1,0-0.1
							c-0.1,0-0.1,0.1-0.1,0.1l0,0l-0.1,0.1l0,0c0.1,0.2-0.1,0.2-0.1,0.3c0-0.2,0,0-0.1-0.1c0,0-0.1,0.1-0.1,0
							c0,0.1-0.1,0.1-0.1,0.2c0,0,0,0.1-0.1,0c0,0.1,0,0,0.1,0c0,0.1-0.2,0.2-0.3,0.4c-0.1,0.2,0,0.2-0.1,0.4c-0.1,0,0-0.1,0-0.1
							c-0.1,0.1-0.1,0.1-0.1,0.2c0,0,0,0-0.1,0c0,0.1,0,0.1,0,0.1c0,0,0-0.1,0-0.1c0,0.1,0,0.2-0.1,0.2c0,0,0-0.1,0-0.1
							c0,0.1-0.1,0.2-0.1,0.3l0,0c0,0,0,0,0,0c0-0.1,0.1-0.1,0.1-0.1l0,0.1c0.1,0,0.1-0.2,0.2-0.3l0,0.1l0-0.1c0,0,0.1,0,0.1,0.1
							c0.1,0,0-0.1,0.1-0.1c0,0,0,0,0,0l0-0.1c0,0,0.1,0,0,0.1c0.1-0.1,0.1-0.2,0.1-0.2l0,0c0.1-0.2,0,0,0-0.2l0.2,0l0,0
							c0,0,0,0,0.1,0c0-0.1,0,0,0-0.1c0.1,0,0.1-0.2,0.2-0.2c0-0.1-0.1,0.1,0,0c0.1,0,0-0.1,0.1-0.2c0,0,0,0.1,0,0.1
							c0-0.1,0.1-0.1,0.1-0.2c-0.1,0,0.1-0.1,0.1-0.3c0,0,0.2-0.2,0.2-0.2l0,0c0-0.1,0-0.1,0.1-0.2c0,0,0,0,0,0.1l0-0.1
							c0,0,0-0.1,0-0.1l0,0c0.1-0.1,0.1-0.2,0.2-0.3c0,0-0.2,0-0.1-0.1c0,0,0.1,0,0.1,0.1c0,0,0,0,0-0.1l0,0.1c0,0,0,0,0-0.1
							c0,0,0,0,0.1,0c0,0,0,0,0,0.1c0,0,0.1-0.1,0.1-0.1c0,0,0,0,0-0.1c0-0.1,0.1,0,0.1-0.1c0,0,0-0.1,0-0.1c0,0,0,0,0.1,0
							c0-0.1,0.1-0.2,0-0.2l0,0l0,0l0,0l0,0c0-0.2,0.2-0.3,0.3-0.5l0,0c0-0.1,0.1-0.2,0.1-0.3c0,0,0.1,0,0.1,0c0-0.1,0-0.1,0.1-0.2
							c0,0.1,0,0,0,0.1C33.9,51,34,51,34,50.8c0,0.1,0.1,0,0.1-0.1l-0.1,0c0-0.1,0-0.1,0.1-0.1l0,0.1c0.2-0.2,0.1-0.4,0.3-0.5
							c0-0.1-0.1,0.1-0.1,0c0.1-0.1,0.2-0.1,0.2-0.2c0.1-0.1,0-0.2,0.1-0.3c0,0-0.1,0-0.1-0.1c0-0.1,0.1-0.1,0.1,0c0,0,0,0,0,0
							c0,0,0,0.1,0,0.1l0,0c0,0,0.1-0.2,0.1-0.1c0-0.1,0,0-0.1,0c0.1-0.1,0.1-0.2,0.1-0.3c0,0-0.1,0,0,0c0.1-0.2,0-0.1,0-0.2
							c0.1-0.1,0.1,0.1,0.1-0.1c0.1-0.1,0.1,0,0.1,0c0-0.1,0.1-0.2,0.1-0.3l0,0.1c0,0,0-0.1,0-0.1l-0.1,0c0,0,0-0.1,0-0.1
							c0,0-0.1,0-0.1-0.1c0,0,0-0.1,0.1-0.1c-0.1,0.1,0.1,0,0,0.1c0,0,0-0.1,0-0.1c0,0,0,0,0,0c0.1-0.1,0-0.1,0-0.2c0,0,0.1,0,0.1,0
							c0,0.1-0.1,0-0.1-0.1c0.1-0.1,0-0.1,0-0.2l0,0.1c0,0,0-0.1,0-0.1c0,0,0,0.1,0,0c0-0.1,0.1-0.1,0.1-0.3c0,0,0.1,0,0.1,0
							c0-0.1,0.1-0.1,0.1-0.2c-0.1,0,0,0-0.1-0.1l0,0.2l0-0.1c0,0.1,0,0.1,0,0.2c0-0.1,0-0.1-0.1,0c0.1-0.1,0-0.2,0.1-0.2l0.1,0
							c0.1-0.1,0.1-0.3,0.1-0.4l0,0.1c0,0,0-0.1,0-0.2c0,0,0.1,0,0.1,0c0,0,0-0.1,0-0.2l0.1-0.1c0.1-0.1-0.1-0.2,0-0.3
							c0,0.1,0.1,0,0.1,0.1c0,0,0-0.1,0-0.1c0,0,0-0.1,0-0.2c0,0,0,0,0-0.1c0,0,0,0,0,0c0,0,0-0.1-0.1-0.1c0.2-0.1,0.1-0.4,0.2-0.5
							c0-0.1,0-0.2,0.1-0.3c0,0,0,0,0,0c0.1-0.1-0.1-0.1,0-0.2c0.1-0.1,0,0.1,0,0c0.1,0,0-0.2,0.1-0.3l0,0c0.1-0.1,0-0.2,0-0.3
							c0,0,0,0,0,0c-0.1-0.1,0-0.3,0-0.4c0,0,0,0.1,0.1,0c0-0.1-0.1,0-0.1-0.1c0,0,0.1-0.1,0.1-0.1l0,0.1c0.1,0,0-0.1,0-0.2l0,0
							c0-0.2-0.1-0.2,0-0.3l0,0c-0.1-0.1,0.1-0.1,0-0.2l0.1,0c0-0.1,0-0.2,0-0.3c0,0.1,0.1,0.2,0.1,0.3c0-0.1,0-0.2,0-0.2
							c0,0,0,0.1,0,0.1c0-0.1-0.1-0.2,0-0.3c0.1,0,0.1-0.3,0.2-0.4c0-0.2,0-0.4,0-0.7c-0.1,0.1,0-0.1-0.1-0.1c0-0.1,0-0.1,0-0.1
							l0.1-0.2c0,0,0,0.1,0.1,0.1c0-0.1,0.1-0.1,0.1-0.1c0,0-0.1,0,0-0.1l-0.1,0.1c-0.1-0.2,0.1-0.2,0-0.3l0,0.1
							c0-0.1,0-0.4-0.1-0.4c0,0,0,0,0.1,0c0-0.2-0.1-0.5-0.1-0.7l0,0c0,0-0.1-0.1,0-0.1c0,0,0,0,0,0c0,0-0.1-0.1-0.1-0.2l0,0
							c0-0.2-0.1-0.3-0.2-0.5c0.1,0,0.1-0.2,0.1-0.3l0,0c0-0.3-0.1-0.4-0.2-0.7c0.1-0.2-0.1-0.5-0.1-0.7c0,0-0.1,0-0.1,0
							c0-0.1-0.1-0.1,0-0.1l0,0c0.1-0.1,0-0.2,0-0.3l-0.1,0c0.1-0.3-0.2-0.6-0.1-0.7c0,0-0.1-0.1-0.1-0.2l0.1,0
							c0-0.2-0.1-0.2-0.1-0.4l0,0c0-0.1-0.2-0.1-0.2-0.2l0.1-0.1c-0.1-0.2-0.1-0.4-0.2-0.5c0,0,0,0,0,0c0-0.1-0.1-0.3-0.2-0.3
							c0.1,0-0.1-0.2-0.1-0.3l0.1,0c-0.1-0.1-0.1,0-0.2-0.2c0,0,0,0,0,0c0-0.1-0.1,0-0.1-0.2l0,0c0-0.1,0-0.1-0.1-0.1
							c0,0-0.1-0.2,0-0.2c0,0-0.1,0-0.1-0.1c0,0,0,0,0,0c0-0.2-0.2-0.2-0.2-0.3c0,0,0,0,0,0c0.1,0.1,0.1,0.2,0.1,0.2
							c0,0,0-0.1,0.1-0.1c-0.1-0.1-0.2-0.2-0.2-0.3c0,0,0,0,0,0l0,0c0,0,0,0,0-0.1c0,0,0-0.1,0-0.1c0,0,0-0.1-0.1-0.2
							c0,0-0.1,0-0.1,0c0,0,0,0,0,0c0,0,0,0,0,0l0,0c0,0,0,0.1,0.1,0.1c0,0-0.1-0.1-0.1-0.1c0,0-0.1,0-0.1,0c0-0.1,0-0.2,0-0.3
							c-0.1-0.1-0.2-0.3-0.3-0.4c0,0,0-0.1,0-0.1c0,0,0,0,0.1,0.1c-0.1-0.1-0.1-0.2-0.2-0.2c0-0.1,0.1,0,0-0.1l0,0
							c-0.1-0.3-0.4-0.3-0.5-0.7c0,0,0,0,0,0c-0.1-0.4-0.5-0.6-0.7-1c0-0.1-0.1-0.1-0.2-0.1l0-0.1l-0.1,0c-0.1-0.1-0.1-0.3-0.3-0.4
							l0,0c0-0.1-0.2-0.2-0.1-0.2c0,0,0,0-0.1,0l0,0l-0.2-0.1c-0.1-0.1,0.1-0.1,0-0.2c-0.1,0-0.2-0.1-0.2-0.1c0,0,0,0.1,0,0.1
							l-0.1,0c-0.1,0.1-0.2,0.1-0.1,0.2l0.1,0l0,0.1l-0.1-0.1c0,0.1,0.1,0.1,0.1,0.1c0,0,0,0,0,0.1l0.1,0c0,0-0.1,0,0,0.1
							c0.1,0,0-0.1,0.1,0c0,0.1,0,0.1,0,0.1c0,0,0,0-0.1,0c0.1,0,0.1,0.1,0.2,0.1c0,0.1,0.1,0.1,0.1,0.2c0,0,0.1,0,0.2,0.1
							c-0.1,0,0.1,0.2,0,0.2c0.1,0,0.2,0.2,0.3,0.3c0,0,0,0,0,0c0,0.1,0,0.1,0,0.1c0.1,0,0.1,0,0.2,0.1c0,0.1-0.1,0-0.1,0.1
							c0,0,0.1,0.1,0.2,0c0,0.1,0,0.1,0,0.1c0.1,0,0.1,0,0.1,0.1C33.2,31.2,33.2,31.1,33.2,31.2C33.2,31.3,33.2,31.2,33.2,31.2z
							 M34.6,33.3L34.6,33.3C34.6,33.3,34.6,33.3,34.6,33.3C34.6,33.3,34.6,33.3,34.6,33.3z M34.7,33.5
							C34.7,33.5,34.7,33.5,34.7,33.5C34.7,33.4,34.7,33.4,34.7,33.5C34.7,33.5,34.7,33.5,34.7,33.5z M34.8,33
							C34.9,33,34.8,33,34.8,33C34.8,33,34.8,33,34.8,33L34.8,33C34.8,33,34.8,33,34.8,33z"/>
						<polygon fill="#808181" points="34.7,32.9 34.7,32.9 34.7,32.9 34.7,32.9 						"/>
						<polygon fill="#808181" points="33.3,52 33.4,52 33.3,52 						"/>
						<polygon fill="#808181" points="35.6,36.4 35.6,36.4 35.6,36.3 						"/>
						<path fill="#808181" d="M32.6,52.9C32.6,52.9,32.6,52.9,32.6,52.9C32.6,52.9,32.6,52.9,32.6,52.9z"/>
						<path fill="#808181" d="M32.3,53.3L32.3,53.3C32.3,53.4,32.3,53.3,32.3,53.3z"/>
						<path fill="#808181" d="M32.1,53.7C32.1,53.7,32.1,53.7,32.1,53.7L32.1,53.7L32.1,53.7z"/>
						<path fill="#808181" d="M34.9,48C34.9,48,34.9,48,34.9,48C34.9,48,34.9,48,34.9,48z"/>
						<path fill="#808181" d="M34.3,49.8C34.3,49.8,34.3,49.8,34.3,49.8C34.3,49.8,34.3,49.8,34.3,49.8z"/>
						<polygon fill="#808181" points="35.4,46 35.4,46 35.4,46 						"/>
						<path fill="#808181" d="M34.3,49.7C34.3,49.7,34.3,49.7,34.3,49.7C34.3,49.7,34.3,49.7,34.3,49.7z"/>
						<polygon fill="#808181" points="31.1,55.1 31.1,55.1 31.1,55.1 						"/>
						<path fill="#808181" d="M31.1,55.1L31.1,55.1C31.1,55.1,31.1,55.1,31.1,55.1z"/>
						<path fill="#808181" d="M31.1,55.2L31.1,55.2C31.1,55.1,31.1,55.2,31.1,55.2z"/>
						<path fill="#808181" d="M31.4,54.7L31.4,54.7C31.4,54.6,31.4,54.6,31.4,54.7z"/>
						<path fill="#808181" d="M31.5,54.5c0,0-0.1,0.1-0.1,0.1l0,0C31.4,54.6,31.5,54.6,31.5,54.5z"/>
						<path fill="#808181" d="M32.1,54.1L32,54.2c0,0,0.1,0,0,0C32.2,54.1,31.9,54.2,32.1,54.1z"/>
						<path fill="#808181" d="M32.3,53.8C32.3,53.8,32.3,53.8,32.3,53.8C32.4,53.7,32.4,53.7,32.3,53.8z"/>
						<path fill="#808181" d="M33.8,51.1L33.8,51.1C33.9,51.1,33.8,51.2,33.8,51.1z"/>
						<polygon fill="#808181" points="33.9,50.5 33.8,50.6 33.8,50.6 						"/>
						<polygon fill="#808181" points="34.3,50.4 34.3,50.4 34.4,50.3 						"/>
						<path fill="#808181" d="M36.1,45.6L36.1,45.6C36,45.6,36.1,45.6,36.1,45.6z"/>
						<path fill="#808181" d="M36.4,43.4c0,0,0.1-0.1,0-0.1C36.4,43.3,36.4,43.4,36.4,43.4z"/>
						<polygon fill="#808181" points="36.2,36.8 36.3,36.9 36.2,36.8 						"/>
					</g>
				</g>
			</g>
		</g>
	</g>
	<g>
		<g>
			<g>
				<g>
					<g>
						<path fill="#808181" d="M37.1,50.6C37.1,50.6,37.1,50.7,37.1,50.6L37.1,50.6L37.1,50.6z"/>
						<path fill="#808181" d="M37.3,50.8c0.1,0,0.1,0,0.1-0.1C37.4,50.7,37.3,50.7,37.3,50.8c-0.1-0.1-0.1-0.1-0.1-0.1
							c0,0-0.1,0-0.1,0C37.2,50.8,37.2,50.8,37.3,50.8C37.3,50.8,37.3,50.8,37.3,50.8z"/>
						<path fill="#808181" d="M41.2,51.5L41.2,51.5L41.2,51.5z"/>
						<path fill="#808181" d="M43.6,51.2C43.6,51.2,43.6,51.2,43.6,51.2C43.6,51.2,43.6,51.2,43.6,51.2z"/>
						<path fill="#808181" d="M44,51.1C44,51.1,44,51.1,44,51.1C44,51.1,44,51.1,44,51.1z"/>
						<path fill="#808181" d="M41.2,51.5L41.2,51.5C41.2,51.5,41.2,51.5,41.2,51.5z"/>
						<path fill="#808181" d="M37.9,50.8C37.8,50.8,37.8,50.8,37.9,50.8L37.9,50.8L37.9,50.8z"/>
						<polygon fill="#808181" points="40.1,51.5 40.1,51.5 40,51.5 						"/>
						<path fill="#808181" d="M39.3,51.4C39.3,51.4,39.3,51.3,39.3,51.4C39.3,51.3,39.3,51.3,39.3,51.4
							C39.3,51.4,39.3,51.4,39.3,51.4z"/>
						<path fill="#808181" d="M38,51.1L38,51.1L38,51.1z"/>
						<path fill="#808181" d="M40.7,51.5C40.7,51.5,40.7,51.5,40.7,51.5C40.7,51.5,40.7,51.5,40.7,51.5z"/>
						<path fill="#808181" d="M39.7,41.1L39.7,41.1C39.7,41.1,39.7,41.1,39.7,41.1z"/>
						<polygon fill="#808181" points="38.8,41.4 38.8,41.4 38.8,41.4 						"/>
						<path fill="#808181" d="M44.6,50.5L44.6,50.5C44.6,50.5,44.6,50.5,44.6,50.5z"/>
						<path fill="#808181" d="M46.1,44.4C46,44.4,46.1,44.2,46.1,44.4C46.1,44.3,46,44.4,46.1,44.4z"/>
						<path fill="#808181" d="M37.9,50.8L37.9,50.8C37.9,50.8,37.9,50.8,37.9,50.8z"/>
						<path fill="#808181" d="M46,44.3L46,44.3L46,44.3C46,44.3,46,44.3,46,44.3z"/>
						<path fill="#808181" d="M45.1,48.7C45.1,48.7,45,48.7,45.1,48.7C45,48.7,45.1,48.7,45.1,48.7z"/>
						<path fill="#808181" d="M44.8,50L44.8,50C44.8,50,44.8,50,44.8,50z"/>
						<path fill="#808181" d="M44.9,48C44.9,48,44.9,48,44.9,48L44.9,48C44.9,48,44.9,48,44.9,48z"/>
						<polygon fill="#808181" points="44.8,47.3 44.8,47.3 44.8,47.3 						"/>
						<path fill="#808181" d="M41.5,40.1C41.5,40.1,41.5,40.1,41.5,40.1C41.5,40.1,41.4,40.2,41.5,40.1z"/>
						<path fill="#808181" d="M37.9,50.8C37.9,50.8,37.9,50.8,37.9,50.8L37.9,50.8C37.9,50.8,37.8,50.8,37.9,50.8z"/>
						<path fill="#808181" d="M44.5,48l0-0.1C44.5,48,44.5,48,44.5,48z"/>
						<path fill="#808181" d="M46.2,40.3L46.2,40.3C46.2,40.3,46.2,40.3,46.2,40.3z"/>
						<path fill="#808181" d="M44.4,47.6C44.4,47.6,44.4,47.6,44.4,47.6L44.4,47.6L44.4,47.6z"/>
						<path fill="#808181" d="M41.5,40.1L41.5,40.1L41.5,40.1z"/>
						<path fill="#808181" d="M40.9,40.5c0.1,0,0-0.1,0-0.1c0.1-0.1,0.1,0,0.1,0c0.1,0,0.1-0.1,0.1-0.2c0,0,0,0,0,0
							c0.1-0.1,0.2-0.1,0.3-0.2c0,0,0,0,0,0c0,0,0-0.1,0-0.1c0,0,0.1-0.1,0.1,0c0,0,0,0,0,0l0,0c0.1,0-0.1,0,0,0.1
							c0.1-0.1,0.2-0.1,0.2-0.1c0,0.1-0.2,0.1,0,0.1l-0.1,0c0.1,0.1-0.1,0,0,0.1c0.1,0,0.1-0.1,0.3-0.1c0,0,0,0,0-0.1
							c0.2-0.1,0.2,0.1,0.3,0c0-0.1,0-0.1,0.1-0.1l0,0.1c0.1,0,0.1-0.1,0.2-0.1c0,0-0.1,0-0.1,0.1c0.1,0,0.1-0.1,0.1-0.1l0,0.1
							c0.1,0,0.3-0.1,0.5-0.1c0,0,0,0,0,0.1c0.2-0.1,0.5,0,0.7,0l0.1-0.1c0,0,0,0,0,0c0.1,0,0,0,0-0.1c0,0,0.1,0,0,0
							c0.1,0,0.4-0.1,0.5,0l0,0c0.1,0,0.1-0.1,0.2,0l0,0c0.2,0,0.3,0.1,0.5,0.1l0,0c0.1,0,0.1,0.1,0.2,0.1c0.1-0.1,0.2,0.1,0.3,0
							c0.1,0.1,0.1,0.1,0.2,0.2c0,0,0.1,0,0.2,0l0,0.1c0,0,0.1,0,0.1,0l0,0.1l0.1,0c0,0,0-0.1,0-0.1c0.1,0,0.2,0.2,0.1,0.2l0.2,0.1
							c0,0-0.1,0-0.1,0c0.1,0,0,0.1,0.1,0.1c0,0,0,0,0,0c0,0.1,0.1,0.2,0.1,0.2l0,0c0.1,0.1,0.1,0.3,0.2,0.4c0-0.1,0.1-0.1,0.1,0
							l-0.1,0c0,0,0-0.1,0.1,0c0,0.1-0.1,0.1-0.1,0l0,0.1c0,0,0,0-0.1,0c0,0,0,0.1,0,0.2l0,0c0,0.2,0,0.3,0,0.4c0.1,0,0,0.1,0.1,0.1
							c0,0.1-0.1,0.2-0.2,0.3c0,0.1,0,0,0.1,0.1c0,0-0.1,0.1-0.1,0c0,0.2-0.1,0.2-0.1,0.4c0,0,0,0,0.1,0c0,0-0.1,0.1-0.1,0.1l0,0
							c0,0.2-0.4,0.4-0.4,0.6l0,0l-0.1,0.2c-0.1,0.1,0-0.1-0.1,0c-0.1,0.2-0.2,0.3-0.3,0.4c-0.2,0-0.3,0.4-0.5,0.5l0,0
							c0,0.1-0.1,0-0.1,0.1c0,0,0.1,0,0.1,0c-0.2,0.3-0.6,0.6-0.9,0.9c-0.1,0.1,0.1,0.2-0.1,0.3l0-0.1c0,0.1,0,0.1-0.1,0.2
							C44,45.9,44,46,43.9,46.1l0.2,0.4c0,0.1,0.1,0.2,0.1,0.3c0,0,0,0,0,0c0,0.1,0.1,0.2,0.1,0.2c0,0,0,0,0,0.1
							c0,0.1,0.1,0.1,0.1,0.2c0,0,0,0,0,0c0,0,0,0.2,0.1,0.1c0,0.1,0.1,0.2,0.1,0.3c0.1,0,0,0.2,0.1,0.2c-0.1,0,0,0.2,0,0.3
							c0,0,0,0.1-0.1,0c0,0.1,0,0.1,0.1,0.1c-0.1,0.2,0.1,0.3,0,0.4c0.1,0.2,0.1,0.4,0.1,0.7c-0.1,0,0-0.2-0.1-0.2
							c0,0.2,0.1,0.3,0,0.5c0,0,0,0,0-0.1c0,0.2-0.1,0.4-0.1,0.5c0,0,0,0,0,0c0,0,0,0.1,0,0.1l0,0c0.1,0,0.1,0.2,0.1,0.2
							c-0.1-0.1-0.1,0.1-0.2,0c0,0,0,0.1,0,0.1c0,0,0,0-0.1,0c0,0.1,0,0.1,0,0.2c0,0,0,0,0-0.1c0,0.1,0,0.1-0.1,0.2c0,0,0,0,0,0
							c-0.1,0.1-0.1,0.3-0.3,0.3c0-0.1-0.1,0-0.1,0l-0.1,0.1l0.1,0c-0.1,0-0.1,0.1-0.2,0.1l0-0.1L43.4,51l0.1,0
							c-0.1,0.1,0,0.1-0.1,0.1c0,0-0.1,0-0.1,0l0,0c0,0-0.1,0.1-0.1,0.1c0,0,0-0.1,0-0.1c0,0.1-0.2,0.1-0.2,0.1c0,0,0-0.1,0-0.1
							l0,0.1c0,0,0,0,0,0c-0.1,0,0.1,0.1-0.1,0.1c0,0,0,0,0,0c-0.1,0-0.3,0.1-0.4,0.1c0-0.1,0.1,0,0.1-0.1c-0.2,0-0.4,0.1-0.6,0.1
							l0,0c0,0.1-0.1-0.1-0.2,0c0,0,0-0.1,0,0c-0.1,0-0.3,0-0.5,0l0,0c-0.1,0-0.2,0-0.3,0c0,0-0.1,0,0,0.1c-0.2-0.2-0.5,0-0.7-0.1
							c0,0,0.1,0,0,0l-0.2,0c0,0,0,0,0.1,0.1c0,0-0.1,0-0.1,0c0.1,0,0-0.1,0-0.1c0,0,0,0,0,0c-0.1-0.1,0,0.1-0.2,0l0,0
							c-0.1,0-0.1,0-0.2,0c0-0.1,0.1,0,0.1-0.1c-0.1,0-0.2,0.1-0.2,0c0,0,0.1,0,0.1,0c-0.1-0.1-0.1-0.1-0.1-0.1l0,0l-0.1,0l0,0
							c-0.1,0.1-0.2,0-0.3,0.1c0.1-0.1,0,0,0-0.1c0,0-0.1,0-0.1-0.1c-0.1,0-0.1-0.1-0.2,0c0,0-0.1,0,0-0.1c-0.1,0,0,0,0,0.1
							c-0.1,0-0.3-0.1-0.5-0.1C38.2,51,38.2,51,38,51c0,0,0.1-0.1,0.1-0.1c-0.1,0-0.1-0.1-0.2,0c0,0,0,0,0-0.1c-0.1,0-0.1,0.1-0.1,0
							c0,0,0,0,0.1-0.1c-0.1,0-0.1,0-0.2,0c0,0,0.1,0,0.1-0.1c-0.1,0-0.2,0-0.2,0l0,0c0,0,0,0,0-0.1c0.1,0,0.1,0,0.1,0.1l-0.1,0
							c0,0.1,0.2,0,0.3,0.1L37.8,51l0.1,0c0,0,0,0.1,0,0.1c0.1,0.1,0.1,0,0.1,0c0,0,0,0,0,0l0.1,0c0,0,0,0.1,0,0
							c0.1,0.1,0.2,0,0.3,0.1l0,0c0.2,0,0-0.1,0.2-0.1l0.1,0.2l0-0.1c0,0,0.1,0,0,0c0.1,0,0,0,0-0.1c0.1,0.1,0.2,0,0.3,0.1
							c0,0-0.1,0,0-0.1c0,0.1,0.1,0,0.2,0.1c0,0-0.1,0,0,0.1c0.1-0.1,0.2,0,0.2,0c0-0.1,0.2,0,0.3,0c0,0,0.2,0.1,0.3,0.1l0,0
							c0-0.1,0.1,0,0.2,0c0,0,0,0.1-0.1,0.1l0.1,0c0,0,0,0,0.1,0l0,0.1c0.1,0,0.2,0,0.3,0c0,0-0.1-0.1,0-0.2c0,0,0,0.1,0,0.1
							c0,0,0,0,0.1,0l-0.1,0c0.1,0,0,0,0.1,0c0,0,0,0,0,0.1c0,0,0,0-0.1,0c0.1,0,0.1,0,0.1,0.1c0,0,0-0.1,0-0.1c0.1,0,0,0,0.1,0.1
							c0,0,0.1,0,0.1,0c0,0,0,0,0,0c0.1,0,0.2,0,0.2-0.1l0,0l0,0l0,0l0,0c0.2,0,0.4,0.1,0.5,0l0,0c0.1,0,0.2,0,0.3,0
							c0,0,0.1,0,0.1,0.1c0.1,0,0.1,0,0.2,0c-0.1,0,0,0-0.1,0c0.1,0,0.1,0,0.2,0c0,0.1,0.1,0.1,0.1,0l-0.1,0c0.1,0,0.1,0,0.2,0
							l0,0.1c0.2,0.1,0.4-0.2,0.5-0.1c0-0.1-0.1,0-0.1-0.1c0.1,0,0.2,0,0.3,0c0.1,0,0.1-0.1,0.2-0.1c0,0-0.1-0.1,0-0.1
							c0.1,0,0.1,0,0.1,0.1c0,0,0,0,0,0c0,0-0.1,0.1,0,0.1l0,0c0.1,0,0.2-0.1,0.2,0c0.1-0.1,0,0,0,0c0.1,0,0.2-0.1,0.3-0.1
							c0,0-0.1,0,0,0c0.2-0.1,0-0.1,0.1-0.2c0.1,0,0,0.1,0.1,0c0.1,0,0.1,0,0,0.1c0.1-0.1,0.2-0.1,0.3-0.2l0,0.1
							c0-0.1,0-0.1,0.1-0.1l-0.1,0c0,0,0-0.1,0.1,0c0-0.1-0.1,0-0.1-0.1c0,0,0.1-0.1,0.1-0.1c-0.1,0.1,0.1,0,0,0.1
							c0,0,0-0.1,0.1-0.1c0,0,0,0,0,0c0.1-0.1,0-0.1,0.1-0.2c0,0,0.1,0,0.1,0c0,0.1-0.1,0-0.1-0.1c0.1-0.1,0-0.1,0-0.2l0,0.1
							c0,0,0-0.1,0-0.1c0,0,0,0.1,0,0c0-0.1,0.1-0.1,0.1-0.3c0,0,0.1,0,0.1,0c0-0.1,0.1-0.1,0.1-0.3c-0.1,0,0,0-0.1-0.1l0,0.2l0-0.1
							c0,0.1,0,0.1,0,0.2c0-0.1,0-0.1-0.1,0c0.1-0.1,0-0.2,0.1-0.3l0.1,0c0.1-0.1,0-0.3,0-0.5l0,0.1c0,0,0-0.1,0-0.2
							c0,0,0.1,0,0.1-0.1c0,0,0-0.1-0.1-0.2l0-0.1c0-0.2-0.1-0.2-0.1-0.3c0,0,0.1,0,0.1,0.1c0,0,0-0.1,0-0.1c0,0-0.1-0.1,0-0.2
							c0,0-0.1,0-0.1-0.1c0,0,0,0,0,0c0,0,0-0.1-0.1,0c0.1-0.2-0.1-0.4,0-0.5c0-0.1-0.1-0.2-0.1-0.3c0,0,0,0,0,0
							c0-0.1-0.1,0-0.1-0.2c0-0.1,0.1,0.1,0.1,0c0.1-0.1-0.1-0.2,0-0.3l0,0c0-0.1-0.1-0.2-0.1-0.3c0,0,0,0,0,0
							c-0.1,0-0.1-0.1-0.1-0.1c0,0,0-0.1,0.1-0.1c0,0,0,0,0.1,0.1c0,0-0.1,0,0-0.1c0,0,0.1,0,0.2,0l-0.1,0.1c0.1,0,0.1-0.1,0.1-0.1
							l0,0c0.1-0.1,0-0.2,0.2-0.3l0,0c0-0.1,0.1,0,0.1-0.1l0.1,0c0-0.1,0.1-0.2,0.2-0.3c0,0.1-0.1,0.2-0.1,0.3c0,0,0.1-0.1,0.1-0.2
							c0,0,0,0.1,0,0.1c0-0.1,0.1-0.2,0.1-0.3c0.1,0.1,0.2-0.2,0.4-0.2c0.1-0.2,0.3-0.3,0.4-0.5c-0.1,0,0-0.1-0.1-0.1
							c0,0,0-0.1,0.1-0.1l0.2-0.1c0.1,0,0,0.1,0,0.1c0.1-0.1,0.1,0,0.1-0.1c0,0,0-0.1,0-0.1l-0.1,0.1c0-0.2,0.2-0.1,0.2-0.3l0,0.1
							c0-0.1,0.2-0.3,0.2-0.4c0,0,0.1,0,0,0c0.1-0.2,0.1-0.5,0.3-0.6l0,0c0,0,0-0.1,0-0.1c0,0,0,0,0,0c0,0,0-0.1,0-0.2l0,0.1
							c0.1-0.2,0-0.4,0.1-0.5c0.1,0,0.2-0.1,0.2-0.2l0,0c0-0.3,0-0.5-0.1-0.7c0.1-0.2-0.1-0.5-0.2-0.8c0,0-0.1,0-0.1,0
							c0-0.1-0.1-0.1-0.1-0.1l0,0c0-0.1,0-0.2-0.1-0.2l-0.1,0.1c-0.1-0.3-0.5-0.4-0.6-0.5c-0.1,0-0.1,0-0.2,0l0,0
							c-0.1-0.1-0.2-0.1-0.4-0.2l0.1,0c-0.1,0-0.2,0.1-0.3,0.1l0-0.1c0,0-0.1,0-0.1,0l0,0c-0.1,0-0.3-0.1-0.4-0.1c0,0,0,0,0,0
							c-0.1,0-0.3-0.1-0.3,0c0-0.1-0.2,0-0.3,0l0-0.1c-0.1,0.1-0.1,0.1-0.2,0.1c0,0,0,0,0,0c-0.1,0-0.1,0-0.2,0l0,0
							c-0.1,0-0.1,0-0.1,0.1c-0.1,0-0.2,0-0.2-0.1c0,0-0.1,0.1-0.1,0.1c0,0,0,0,0,0c-0.2,0-0.2,0.1-0.3,0c0,0,0,0,0,0
							c0.1,0,0.2,0,0.2,0c0,0-0.1-0.1,0-0.1c-0.1,0-0.2,0.1-0.3,0.1c0,0,0,0,0,0l0,0c0,0,0,0-0.1,0c0,0-0.1,0-0.1,0c0,0-0.1,0-0.2,0
							c0,0.1-0.1,0.1,0,0.1c0,0,0,0,0,0c0,0,0,0,0,0l0,0c0,0,0.1,0,0.1,0c0,0-0.1,0.1-0.1,0c0,0,0,0.1-0.1,0.1
							c-0.1-0.1-0.2-0.1-0.2-0.1c-0.1,0.1-0.4,0.1-0.4,0.2c0,0-0.1,0-0.1,0c0,0,0.1,0,0.1,0c-0.1,0-0.2,0.1-0.2,0.2
							c-0.1,0,0-0.1-0.1,0l0,0c-0.3,0-0.4,0.3-0.8,0.3c0,0,0,0,0,0c-0.4,0.1-0.7,0.4-1,0.5c-0.1,0-0.1,0.1-0.1,0.1l0,0l-0.1,0.1
							c-0.1,0.1-0.3,0-0.4,0.2l0,0c-0.1,0-0.2,0.1-0.2,0.1c0,0,0,0,0,0l0,0L39,41.2c-0.1,0.1-0.1-0.1-0.2,0
							c-0.1,0.1-0.1,0.2-0.1,0.2c0,0,0.1,0,0.1,0l0,0.1c0.1,0.1,0.1,0.2,0.2,0.1l0.1-0.1l0.1,0L39,41.5c0.1,0,0.1,0,0.1-0.1
							c0,0,0,0,0.1,0l0-0.1c0,0,0,0.1,0.1,0.1c0-0.1-0.1,0,0-0.1c0.1,0,0.1,0,0.1,0c0,0,0,0,0,0.1c0-0.1,0.1-0.1,0.1-0.1
							c0.1,0,0.1-0.1,0.2,0c0,0,0-0.1,0.1-0.1c0,0.1,0.2-0.1,0.2,0c0-0.1,0.2-0.2,0.3-0.3c0,0,0,0,0,0c0.1,0,0.1,0,0.1,0
							c0-0.1,0.1-0.1,0.1-0.2c0.1,0,0,0.1,0.1,0.2c0-0.1,0.1-0.1,0.1-0.2c0.1,0,0.1,0,0.1,0c0-0.1,0,0,0.1-0.1
							C40.8,40.4,40.8,40.5,40.9,40.5C40.9,40.4,40.9,40.5,40.9,40.5z M43.1,39.7L43.1,39.7C43.1,39.7,43.1,39.7,43.1,39.7
							C43.1,39.7,43.1,39.7,43.1,39.7z M43.3,39.6C43.3,39.6,43.3,39.6,43.3,39.6C43.2,39.6,43.2,39.6,43.3,39.6
							C43.2,39.6,43.3,39.6,43.3,39.6z M42.8,39.3C42.9,39.3,42.9,39.3,42.8,39.3C42.9,39.3,42.9,39.3,42.8,39.3L42.8,39.3
							C42.8,39.3,42.8,39.3,42.8,39.3z"/>
						<polygon fill="#808181" points="42.8,39.4 42.8,39.4 42.8,39.4 42.8,39.4 						"/>
						<polygon fill="#808181" points="41.1,51.5 41.1,51.5 41.1,51.5 						"/>
						<polygon fill="#808181" points="46,40.2 46,40.2 46,40.2 						"/>
						<path fill="#808181" d="M40,51.2C40,51.2,40,51.2,40,51.2C40,51.2,40,51.2,40,51.2z"/>
						<path fill="#808181" d="M39.5,51.1L39.5,51.1C39.5,51.1,39.5,51.1,39.5,51.1z"/>
						<path fill="#808181" d="M39.1,51.1C39.1,51.1,39.1,51.1,39.1,51.1L39.1,51.1L39.1,51.1z"/>
						<path fill="#808181" d="M44.4,49.9C44.4,49.9,44.4,49.9,44.4,49.9C44.4,49.9,44.4,49.9,44.4,49.9z"/>
						<path fill="#808181" d="M43.3,51.1C43.3,51.1,43.3,51.1,43.3,51.1C43.3,51.1,43.3,51.1,43.3,51.1z"/>
						<polygon fill="#808181" points="44.5,48 44.5,48 44.5,48 						"/>
						<path fill="#808181" d="M43.4,51C43.4,51.1,43.4,51.1,43.4,51C43.4,51.1,43.4,51.1,43.4,51z"/>
						<polygon fill="#808181" points="37.5,50.7 37.5,50.7 37.5,50.7 						"/>
						<path fill="#808181" d="M37.5,50.7L37.5,50.7C37.5,50.7,37.5,50.7,37.5,50.7z"/>
						<path fill="#808181" d="M37.5,50.7L37.5,50.7C37.5,50.7,37.5,50.7,37.5,50.7z"/>
						<path fill="#808181" d="M38,50.9L38,50.9C38,50.8,38,50.9,38,50.9z"/>
						<path fill="#808181" d="M38.2,50.9c0,0-0.1-0.1-0.1-0.1l0,0C38.1,50.8,38.1,50.9,38.2,50.9z"/>
						<path fill="#808181" d="M38.7,51.2l-0.1,0c0,0,0,0.1,0,0.1C38.8,51.4,38.6,51.2,38.7,51.2z"/>
						<path fill="#808181" d="M39.1,51.3C39.1,51.3,39.1,51.4,39.1,51.3C39.2,51.4,39.2,51.4,39.1,51.3z"/>
						<path fill="#808181" d="M42,51.6L42,51.6C42.1,51.6,42,51.6,42,51.6z"/>
						<polygon fill="#808181" points="42.6,51.3 42.5,51.2 42.5,51.3 						"/>
						<polygon fill="#808181" points="43,51.5 42.9,51.6 43,51.5 						"/>
						<path fill="#808181" d="M44.8,47.4L44.8,47.4C44.8,47.5,44.9,47.5,44.8,47.4z"/>
						<path fill="#808181" d="M44.8,45.7C44.8,45.7,44.9,45.7,44.8,45.7C44.9,45.7,44.8,45.7,44.8,45.7z"/>
						<polygon fill="#808181" points="46.7,40.1 46.8,40.1 46.7,40.1 						"/>
					</g>
				</g>
			</g>
		</g>
	</g>
	<g>
		<circle fill="#808181" cx="26.1" cy="41.4" r="2"/>
	</g>
	<g>
		<g>
			<g>
				<g>
					<g>
						<path fill="#808181" d="M50.5,58.8C50.5,58.8,50.5,58.8,50.5,58.8L50.5,58.8L50.5,58.8z"/>
						<path fill="#808181" d="M50.7,58.8c0,0,0-0.1,0-0.2C50.6,58.7,50.6,58.7,50.7,58.8C50.6,58.8,50.6,58.8,50.7,58.8
							c-0.1,0-0.1,0-0.1,0C50.6,58.8,50.6,58.8,50.7,58.8C50.7,58.8,50.7,58.8,50.7,58.8z"/>
						<path fill="#808181" d="M53,57.5L53,57.5C53,57.5,53,57.5,53,57.5z"/>
						<path fill="#808181" d="M54.4,56.7C54.4,56.7,54.4,56.7,54.4,56.7C54.4,56.7,54.4,56.7,54.4,56.7z"/>
						<path fill="#808181" d="M54.7,56.6L54.7,56.6C54.7,56.6,54.7,56.6,54.7,56.6z"/>
						<path fill="#808181" d="M53,57.5L53,57.5C53.1,57.5,53,57.5,53,57.5z"/>
						<path fill="#808181" d="M50.9,58.5C50.9,58.5,50.9,58.5,50.9,58.5L50.9,58.5L50.9,58.5z"/>
						<polygon fill="#808181" points="52.4,58 52.4,58 52.4,58 						"/>
						<path fill="#808181" d="M51.9,58.3C52,58.3,51.9,58.2,51.9,58.3C51.9,58.2,51.9,58.2,51.9,58.3C51.9,58.2,51.9,58.2,51.9,58.3
							z"/>
						<path fill="#808181" d="M51.1,58.6L51.1,58.6L51.1,58.6z"/>
						<path fill="#808181" d="M52.8,57.8C52.8,57.8,52.8,57.8,52.8,57.8L52.8,57.8z"/>
						<path fill="#808181" d="M63.8,46.9L63.8,46.9C63.8,46.9,63.8,46.9,63.8,46.9z"/>
						<polygon fill="#808181" points="64.4,46.5 64.4,46.5 64.4,46.5 						"/>
						<path fill="#808181" d="M55.2,56.3L55.2,56.3C55.1,56.3,55.2,56.3,55.2,56.3z"/>
						<path fill="#808181" d="M58.9,53.3C58.8,53.3,58.9,53.2,58.9,53.3C58.8,53.2,58.8,53.3,58.9,53.3z"/>
						<path fill="#808181" d="M50.9,58.5L50.9,58.5C50.9,58.5,50.9,58.5,50.9,58.5z"/>
						<polygon fill="#808181" points="58.8,53.2 58.8,53.2 58.8,53.2 						"/>
						<path fill="#808181" d="M56.1,55.6C56.1,55.6,56.1,55.6,56.1,55.6C56.1,55.6,56.1,55.6,56.1,55.6z"/>
						<path fill="#808181" d="M55.3,56.1L55.3,56.1C55.4,56,55.4,56,55.3,56.1z"/>
						<path fill="#808181" d="M56.4,55.2C56.4,55.2,56.4,55.2,56.4,55.2L56.4,55.2C56.4,55.2,56.4,55.2,56.4,55.2z"/>
						<path fill="#808181" d="M56.8,55C56.8,55,56.8,54.9,56.8,55L56.8,55L56.8,55z"/>
						<path fill="#808181" d="M63,48.1C63,48.1,63.1,48.1,63,48.1C63,48.1,63.1,48,63,48.1z"/>
						<path fill="#808181" d="M50.9,58.5C50.9,58.5,50.9,58.5,50.9,58.5C50.9,58.5,50.9,58.5,50.9,58.5
							C50.9,58.5,50.9,58.5,50.9,58.5z"/>
						<path fill="#808181" d="M56.2,54.9L56.2,54.9C56.2,54.9,56.2,54.9,56.2,54.9z"/>
						<path fill="#808181" d="M60.8,50.7L60.8,50.7C60.9,50.7,60.8,50.7,60.8,50.7z"/>
						<path fill="#808181" d="M56.4,54.7C56.4,54.7,56.5,54.7,56.4,54.7C56.5,54.7,56.5,54.7,56.4,54.7L56.4,54.7z"/>
						<path fill="#808181" d="M63.1,48.1L63.1,48.1L63.1,48.1z"/>
						<path fill="#808181" d="M63.3,47.6c0,0.1,0,0.1,0.1,0.1c0,0.1-0.1,0-0.1,0c0,0.1,0,0.1,0,0.2c0,0,0,0,0,0
							c0,0.1-0.1,0.1-0.1,0.2l0,0c0,0,0.1,0,0.1,0c0,0,0,0.1,0,0.1c0,0,0,0,0,0l0,0c-0.1,0,0-0.1,0-0.1c0,0.1,0,0.2-0.1,0.2
							c-0.1,0,0.1-0.1,0-0.1l0.1,0c-0.1,0,0,0-0.1-0.1c-0.1,0.1,0,0.1-0.1,0.2c0,0,0,0,0.1,0.1c0,0.2-0.2,0-0.2,0.1
							c0,0,0.1,0.1,0,0.1l0-0.1c-0.1,0.1,0.1,0.1-0.1,0.2c0,0,0-0.1,0-0.1c-0.1,0,0,0.1,0,0.1l-0.1,0c-0.1,0.1-0.1,0.2-0.2,0.3
							c0,0,0,0,0,0c-0.1,0.1-0.2,0.2-0.3,0.3l0,0.1c0,0,0,0,0,0c-0.1,0,0,0,0,0.1c0,0-0.1,0-0.1,0c0,0.1-0.1,0.3-0.2,0.3l0,0
							c-0.1,0,0,0.1-0.1,0.2l0,0c-0.1,0.1-0.2,0.3-0.4,0.3c0,0.1-0.1,0.1-0.1,0.2c-0.1,0-0.1,0-0.2,0.1c0,0,0,0.1,0,0.1l0,0l0,0.1
							l-0.1,0l0,0c0,0,0,0,0.1,0c0,0.1-0.1,0.1-0.2,0.1L60.7,51c0,0,0,0,0-0.1c0,0.1-0.1,0-0.1,0.1c0,0,0,0,0,0
							c-0.1,0-0.1,0.1-0.1,0.1l0,0c-0.1,0.1-0.2,0.2-0.3,0.3c0,0,0.1,0,0.1,0.1l-0.1,0c0,0,0,0,0,0.1c0,0-0.1,0-0.1-0.1l0,0.1
							c0,0,0,0,0,0c0,0-0.1,0-0.1,0.1l0,0c-0.1,0.1-0.1,0.2-0.2,0.2c0,0,0,0.1,0,0.1c-0.1,0-0.2,0.1-0.2,0.1c0,0.1,0,0,0,0.1
							c0,0-0.1,0-0.1,0c-0.1,0.1-0.1,0.1-0.2,0.2c0,0,0,0,0,0c0,0-0.1,0-0.1,0l0,0c-0.1,0.2-0.4,0.2-0.4,0.3l0,0l-0.1,0.1
							c-0.1,0,0-0.1-0.1,0c-0.1,0.2-0.2,0.1-0.2,0.3c-0.2,0-0.2,0.2-0.4,0.2l0,0c0,0,0,0-0.1,0c0,0,0,0,0,0
							c-0.2,0.2-0.5,0.3-0.7,0.5c-0.1,0.1,0.1,0.2-0.1,0.2l0-0.1c-0.1,0.2-0.3,0.3-0.4,0.5c0,0,0,0,0,0c-0.1,0-0.1,0.1-0.1,0.1
							c0,0,0,0-0.1,0c-0.1,0,0,0.1-0.1,0.1c0,0,0,0,0,0c0,0-0.1,0.1-0.1,0.1c-0.1,0-0.1,0.1-0.2,0.1c0,0.1-0.1,0.1-0.1,0.1
							c0-0.1-0.2,0-0.2,0.1c0,0-0.1,0-0.1,0c0,0-0.1,0.1,0,0.1c-0.1,0-0.1,0.2-0.2,0.1c-0.1,0.1-0.2,0.3-0.3,0.4
							c0-0.1,0.1-0.1,0.1-0.2c-0.1,0.1-0.1,0.2-0.2,0.3c0,0,0,0,0-0.1c-0.1,0.1-0.2,0.1-0.3,0.3c0,0,0,0,0,0c0,0-0.1,0,0,0.1l0,0
							c0.1,0,0,0.2,0,0.2c0-0.1-0.1,0-0.1-0.1c0,0,0,0,0,0.1c0,0,0,0,0,0c-0.1,0.1,0,0.1-0.1,0.1c0,0,0,0,0-0.1c0,0.1,0,0.1-0.1,0.1
							c0,0,0,0,0,0c-0.1,0.1-0.1,0.2-0.2,0.2c0-0.1-0.1,0-0.1-0.1l0,0.1l0,0c0,0-0.1,0.1-0.1,0.1l0-0.1l-0.1,0.1l0.1,0
							c0,0.1,0.1,0.1,0,0.1c0,0,0,0-0.1,0l0,0c0,0,0,0.1-0.1,0.1c0,0,0-0.1-0.1-0.1c0,0.1-0.1,0.1-0.1,0.2c0,0,0-0.1,0-0.1l0,0.1
							c0,0,0,0-0.1,0c-0.1,0,0.1,0.1,0,0.1c0,0,0,0,0,0c-0.1,0-0.1,0.1-0.2,0.2c-0.1,0,0.1-0.1,0-0.1c-0.1,0.1-0.2,0.2-0.3,0.3l0,0
							c0,0.1-0.1,0-0.1,0.1c0,0,0-0.1,0,0c-0.1,0-0.1,0.1-0.2,0.2l0,0c-0.1,0-0.1,0.1-0.2,0.1c0,0,0,0,0,0.1c-0.2,0-0.2,0.2-0.4,0.2
							c0,0,0,0,0,0l-0.1,0.1c0,0,0,0,0.1,0c0,0,0,0.1,0,0.1c0-0.1,0-0.1-0.1-0.1c0,0,0,0,0,0c-0.1,0,0,0.1-0.1,0.1l0,0
							c0,0,0,0.1-0.1,0.1c0,0,0,0,0-0.1c0,0,0,0.1-0.1,0.1c0,0,0,0,0.1-0.1c-0.1,0-0.1,0-0.1,0l0,0l-0.1,0l0,0
							c0,0.1-0.1,0.1-0.1,0.2c0-0.1,0,0,0-0.1c0,0-0.1,0-0.1,0c0,0.1-0.1,0-0.1,0.1c0,0,0,0-0.1,0c0,0,0,0,0,0c0,0.1-0.2,0-0.3,0.2
							c-0.1,0.1-0.1,0.1-0.1,0.2c0,0,0-0.1,0-0.1c-0.1,0-0.1,0-0.1,0.1c0,0,0,0,0,0c0,0,0,0.1,0,0.1c0,0,0-0.1,0-0.1
							c0,0-0.1,0.1-0.1,0.1c0,0,0-0.1,0-0.1c0,0-0.1,0.1-0.1,0.2l0,0c0,0,0,0,0,0c0-0.1,0.1,0,0.1,0l0,0c0.1,0.1,0.1-0.1,0.2-0.1
							l0,0.1l0-0.1c0,0,0.1,0,0,0.1c0.1,0,0,0,0.1,0c0,0,0,0,0,0l0,0c0,0,0,0,0,0.1c0.1,0,0.1-0.1,0.2-0.1l0,0c0.1-0.1,0-0.1,0-0.2
							l0.1,0.1l0-0.1c0,0,0,0,0,0c0-0.1,0,0,0-0.1c0.1,0,0.1-0.1,0.2,0c0,0-0.1,0,0-0.1c0.1,0.1,0.1-0.1,0.1,0c0,0.1,0,0.1,0,0.1
							c0-0.1,0.1,0,0.1-0.1c0-0.1,0.1-0.1,0.1-0.1c0,0,0.1,0,0.2-0.1l0,0c0-0.1,0-0.1,0.1-0.1c0,0,0,0.1,0,0.1l0,0c0,0,0,0,0-0.1
							l0,0.1c0.1,0,0.1-0.1,0.2-0.1c0,0-0.1-0.1-0.1-0.2c0,0,0,0.1,0,0.1c0,0,0,0,0,0l0,0.1c0,0,0,0,0-0.1c0,0,0,0,0,0c0,0,0,0,0,0
							c0,0,0.1,0,0.1,0c0,0,0,0,0-0.1c0.1,0,0,0,0.1,0c0,0,0.1,0,0-0.1c0,0,0,0,0,0c0,0,0.1-0.1,0.1-0.1l0,0l0,0l0,0l0,0
							c0.1-0.1,0.2-0.1,0.3-0.2l0,0c0-0.1,0.1-0.1,0.1-0.2c0,0,0.1,0,0.1,0c0,0,0-0.1,0.1-0.1c0,0.1,0,0,0,0c0.1,0,0.1,0,0.1-0.1
							c0,0.1,0.1,0,0.1,0l-0.1,0c0,0,0.1,0,0.1-0.1l0,0.1c0.2,0,0.1-0.2,0.3-0.2c0-0.1-0.1,0-0.1,0c0.1,0,0.2,0,0.2,0
							c0.1,0,0-0.1,0.1-0.2c0,0-0.1-0.1,0-0.1c0.1,0,0.1,0,0.1,0.1c0,0,0,0,0,0c0,0,0,0,0,0l0,0c0,0,0.1-0.1,0.1,0c0,0,0,0,0,0
							c0.1,0,0.1-0.1,0.2-0.1c0,0,0,0,0,0c0.1,0,0-0.1,0.1-0.1c0.1,0,0,0.1,0.1,0c0.1,0,0,0,0,0.1c0-0.1,0.1-0.1,0.2-0.1l0,0
							c0,0,0,0,0,0l0,0c0,0,0,0,0.1,0c0,0-0.1-0.1,0-0.1c0,0,0.1-0.1,0.1,0c-0.1,0,0,0,0,0.1c0,0,0,0,0.1,0c0,0,0,0,0,0
							c0.1,0,0-0.1,0.1-0.1c0,0,0.1,0,0.1,0c0,0,0,0,0-0.1c0.1,0,0-0.1,0.1-0.1l0,0c0,0,0-0.1,0-0.1c0,0,0,0,0,0
							c0-0.1,0.1,0,0.2-0.1c0,0,0,0.1,0.1,0c0-0.1,0.1,0,0.1-0.1c0,0,0,0,0-0.1l-0.1,0.1l0-0.1c0,0-0.1,0.1-0.1,0.1c0-0.1,0,0,0-0.1
							c0.1,0,0.1-0.1,0.1-0.1l0.1,0.1c0.1,0,0.1-0.2,0.2-0.2l0,0c0,0,0.1-0.1,0.1-0.1c0,0,0,0,0.1,0c0,0,0.1-0.1,0-0.1l0.1,0
							c0.1,0,0-0.2,0.1-0.2c0,0.1,0.1,0,0,0.1c0,0,0.1,0,0-0.1c0,0,0-0.1,0.1-0.1c0,0,0-0.1,0-0.1c0,0,0,0,0,0c0,0,0-0.1,0-0.1
							c0.2,0,0.2-0.2,0.3-0.1c0-0.1,0.1-0.1,0.2-0.2c0,0,0,0,0,0c0.1,0,0-0.1,0.1-0.1c0.1,0,0,0.1,0,0.1c0.1,0.1,0.1-0.1,0.2-0.1
							l0,0c0.1,0,0.1-0.1,0.1-0.2c0,0,0,0,0,0c0-0.1,0.1-0.2,0.1-0.2c0,0.1,0,0,0,0.1c0,0-0.1-0.1,0-0.1c0,0,0.1,0,0.1,0l-0.1,0
							c0.1,0,0.1-0.1,0.1-0.1l0,0c0.1-0.1,0-0.1,0.1-0.2l0,0c0-0.1,0.1,0,0.1-0.1l0.1,0c0,0,0.1-0.1,0.1-0.2c0,0.1,0,0.1-0.1,0.2
							c0,0,0.1-0.1,0.1-0.1c0,0,0,0,0,0c0-0.1,0-0.1,0.1-0.2c0.1,0.1,0.2-0.1,0.3-0.1c0.1-0.1,0.2-0.2,0.3-0.3c-0.1,0,0,0-0.1-0.1
							c0,0,0,0,0,0l0.1,0c0,0,0,0,0,0.1c0.1-0.1,0.1,0,0.1,0c0,0,0-0.1,0-0.1l-0.1,0c0-0.1,0.1,0,0.2-0.1l0,0.1
							c0-0.1,0.2-0.2,0.1-0.3c0,0,0,0,0,0c0.1-0.1,0.2-0.3,0.3-0.3l0,0c0,0,0-0.1,0-0.1c0,0,0,0,0,0c0,0,0-0.1,0.1-0.1l0,0
							c0.1-0.1,0.1-0.2,0.2-0.3c0.1,0.1,0.2,0,0.2,0l0,0c0.1-0.1,0.2-0.2,0.2-0.4c0.1,0,0.3-0.2,0.4-0.3c0,0,0,0,0-0.1
							c0,0,0-0.1,0.1-0.1l0,0c0.1,0,0.1,0,0.2-0.1l-0.1-0.1c0.2,0,0.2-0.3,0.4-0.3c0,0,0-0.1,0-0.1l0,0c0.1-0.1,0.1-0.1,0.2-0.2l0,0
							c0-0.1-0.1-0.2,0-0.2l0.1,0c0.1-0.1,0.2-0.1,0.2-0.3c0,0,0,0,0,0c0,0,0.2-0.1,0.1-0.2c0.1,0,0.1-0.1,0.1-0.2l0,0
							c0-0.1,0-0.1,0-0.2c0,0,0,0,0,0c0.1,0,0-0.1,0.1-0.1l0,0c0,0,0-0.1,0-0.1c0,0,0.1-0.1,0.1-0.1c0,0,0-0.1,0-0.1c0,0,0,0,0,0
							c0.1-0.1,0.1-0.2,0.1-0.2c0,0,0,0,0,0c-0.1,0.1-0.1,0.1-0.1,0.1c0,0,0.1,0,0.1,0.1c0-0.1,0-0.2,0.1-0.2l0,0v0c0,0,0,0,0,0
							c0,0,0,0,0,0c0,0,0.1,0,0.1-0.1c0,0,0-0.1-0.1-0.1c0,0,0,0,0,0c0,0,0,0,0,0l0,0c0,0,0,0-0.1,0.1c0,0,0-0.1,0-0.1
							c0,0,0-0.1,0-0.1c0.1,0,0.2,0,0.2,0c0-0.1,0.1-0.2,0.1-0.3c0,0,0,0,0.1,0c0,0,0,0,0,0.1c0-0.1,0.1-0.1,0-0.2
							c0.1,0,0,0.1,0.1,0l0,0c0.2-0.1,0-0.4,0.3-0.5c0,0,0,0,0,0c0.2-0.2,0.3-0.5,0.5-0.6c0.1,0,0-0.1,0-0.1l0.1,0l0-0.1
							c0-0.1,0.2-0.1,0.2-0.2l0,0c0,0,0.1-0.1,0.1-0.1c0,0,0,0,0,0l0,0l0-0.1c0.1-0.1,0.1,0.1,0.2,0c0,0,0-0.2,0-0.2c0,0,0,0-0.1,0
							l0,0c-0.1,0-0.1-0.1-0.2-0.1l0,0.1l-0.1,0l0-0.1c-0.1,0,0,0,0,0.1c0,0,0,0-0.1,0l0,0.1c0,0,0-0.1-0.1,0c0,0.1,0.1,0,0.1,0.1
							c-0.1,0-0.1,0-0.1,0c0,0,0,0,0,0c0,0,0,0.1,0,0.1c-0.1,0-0.1,0.1-0.1,0.1c0,0,0,0.1,0,0.1c-0.1-0.1-0.1,0.1-0.2,0
							c0.1,0.1-0.1,0.2-0.1,0.3c0,0,0,0,0,0c0,0-0.1,0-0.1,0c0.1,0,0,0.1,0.1,0.2c-0.1,0-0.1-0.1-0.1-0.1c0.1,0,0,0.1,0,0.1
							c-0.1,0,0,0-0.1,0c0.1,0.1,0,0,0,0.1C63.3,47.7,63.3,47.6,63.3,47.6C63.2,47.7,63.3,47.6,63.3,47.6z M62.4,49.1L62.4,49.1
							C62.4,49.1,62.4,49.1,62.4,49.1C62.4,49.1,62.4,49.1,62.4,49.1z M62.3,49.2L62.3,49.2C62.3,49.2,62.4,49.2,62.3,49.2
							C62.3,49.2,62.3,49.2,62.3,49.2z M62.8,49.2C62.8,49.2,62.8,49.2,62.8,49.2C62.7,49.2,62.8,49.2,62.8,49.2L62.8,49.2
							C62.8,49.2,62.8,49.2,62.8,49.2z"/>
						<polygon fill="#808181" points="62.7,49.1 62.7,49.1 62.7,49.1 62.7,49.1 						"/>
						<polygon fill="#808181" points="53,57.5 53,57.5 53,57.5 						"/>
						<polygon fill="#808181" points="60.9,50.6 60.9,50.6 60.9,50.6 						"/>
						<path fill="#808181" d="M52.2,57.8C52.2,57.8,52.2,57.8,52.2,57.8C52.2,57.8,52.2,57.8,52.2,57.8z"/>
						<path fill="#808181" d="M51.9,58L51.9,58C51.9,58,51.9,58,51.9,58z"/>
						<path fill="#808181" d="M51.7,58.1C51.7,58.1,51.7,58.1,51.7,58.1L51.7,58.1L51.7,58.1z"/>
						<path fill="#808181" d="M55.1,55.8C55.1,55.8,55.1,55.8,55.1,55.8C55.1,55.7,55.1,55.7,55.1,55.8z"/>
						<path fill="#808181" d="M54.2,56.6C54.2,56.6,54.2,56.5,54.2,56.6C54.2,56.5,54.2,56.5,54.2,56.6z"/>
						<polygon fill="#808181" points="56.2,54.9 56.2,54.9 56.2,54.9 						"/>
						<path fill="#808181" d="M54.3,56.5C54.2,56.5,54.2,56.5,54.3,56.5C54.2,56.5,54.2,56.5,54.3,56.5z"/>
						<polygon fill="#808181" points="50.7,58.6 50.7,58.6 50.7,58.6 						"/>
						<path fill="#808181" d="M50.7,58.6L50.7,58.6C50.7,58.6,50.7,58.6,50.7,58.6z"/>
						<path fill="#808181" d="M50.7,58.7L50.7,58.7C50.7,58.6,50.7,58.6,50.7,58.7z"/>
						<path fill="#808181" d="M51,58.5L51,58.5C51,58.4,51,58.4,51,58.5z"/>
						<path fill="#808181" d="M51.1,58.4C51.1,58.4,51,58.4,51.1,58.4L51.1,58.4C51,58.4,51.1,58.4,51.1,58.4z"/>
						<path fill="#808181" d="M51.6,58.4L51.6,58.4C51.5,58.4,51.6,58.4,51.6,58.4C51.7,58.5,51.5,58.4,51.6,58.4z"/>
						<path fill="#808181" d="M51.9,58.3C51.8,58.3,51.9,58.3,51.9,58.3C51.9,58.3,51.9,58.3,51.9,58.3z"/>
						<path fill="#808181" d="M53.5,57.2L53.5,57.2C53.6,57.3,53.5,57.3,53.5,57.2z"/>
						<polygon fill="#808181" points="53.7,56.8 53.7,56.8 53.7,56.9 						"/>
						<polygon fill="#808181" points="54.1,57 54.1,57 54.1,57 						"/>
						<path fill="#808181" d="M56.8,55L56.8,55C56.7,55,56.8,55.1,56.8,55z"/>
						<path fill="#808181" d="M57.8,54.1C57.9,54.1,57.9,54.1,57.8,54.1C57.9,54.1,57.9,54.1,57.8,54.1z"/>
						<polygon fill="#808181" points="61,51.2 61,51.3 61.1,51.2 						"/>
					</g>
				</g>
			</g>
		</g>
	</g>
</g>
</svg>
