<?xml version="1.0" encoding="utf-8"?>
<!-- Generator: Adobe Illustrator 23.1.0, SVG Export Plug-In . SVG Version: 6.00 Build 0)  -->
<svg version="1.1" id="Capa_1" xmlns="http://www.w3.org/2000/svg" xmlns:xlink="http://www.w3.org/1999/xlink" x="0px" y="0px"
	 viewBox="0 0 89.2 89.2" enable-background="new 0 0 89.2 89.2" xml:space="preserve">
<g>
	<path fill="#F8E8A1" d="M70.5,40c1.3-11.6-5.6-23.8-17.2-27.1c0-0.1-0.1-0.2-0.2-0.2c-10.6-3.1-21.9,0.8-28.8,9.1
		c-0.9,1-1.7,2.1-2.4,3.3c-0.1,0-0.2,0.1-0.1,0.2c-0.3,0.4-0.5,0.8-0.7,1.2c-0.1,0-0.1,0.1-0.1,0.1c-1.7,3.1-2.9,6.5-3.3,10.1
		c-0.2,1.5-0.1,2.9,0,4.2c-0.1,0.1,0,0.2,0,0.3c0.5,3.6,2,7,4.2,10.1c3.2,4.7,7.2,8.6,12.5,10.7c0.6,0.2,1.2,0.4,1.8,0.6
		c0,0.1,0.3,0.2,0.4,0.1c4.2,1.3,8.7,1.5,12.9,0.8c5.6-1,10.3-3.4,14-7.7C67.2,51.5,69.8,45.9,70.5,40z"/>
</g>
<g>
	<g>
		<g>
			<g>
				<g>
					<path fill="#808181" d="M42.8,39.9c-0.1,0.4,0.2-0.2,0,0.3C42.7,40.1,42.7,40,42.8,39.9z"/>
					<path fill="#808181" d="M42.3,41.4c-0.1,0.7-0.5,1.3-1,1.9c-0.5,0.6-1.1,1.1-1.6,1.6c-0.1,0.1-0.1-0.2-0.4,0.1
						c-0.9,1.1-3.1,1.9-4.8,2.2l0.1-0.1c-0.3,0.1-0.6,0.4-1,0.4c0,0,0.1-0.1,0-0.1c-0.1,0.1-0.6,0.2-0.7,0.3c-0.1,0-0.2-0.1-0.3-0.1
						l-0.2,0.2c-0.5,0.4-1.3,0.2-2,0.5c0,0,0.1-0.1,0-0.1c-1.2,0.4-2.7,0.4-4,0.5c0.1-0.1,0.1-0.1,0-0.2c-0.1,0.2-0.5,0.2-0.8,0.2
						c-0.2-0.1-0.6,0.1-1,0l0,0c-0.3,0.2-0.5-0.1-0.7,0.1l-0.2-0.1c-0.1,0.2-0.5-0.1-0.7,0l0,0c-0.2,0.1-0.4,0-0.6,0l0,0
						c-0.5,0.1-0.8-0.1-0.8,0.1c-0.2-0.1,0.5,0,0.2-0.2c-1.8,0.1-3.6-0.1-5.3-0.5c-0.2-0.1-0.3-0.2-0.3-0.2c-0.2,0-0.7-0.1-0.8-0.1
						c0.1,0-0.1-0.1-0.2-0.2c-0.3-0.2-0.4,0.1-0.7-0.1c0.1,0,0.2,0,0.2-0.1c-0.3,0-0.7-0.1-1-0.2c0.1,0,0.1,0,0.2,0
						c-0.4,0-0.6-0.3-1-0.4l0.2,0c-0.4-0.3-0.2,0.1-0.6-0.2c0.1,0,0.1,0,0.1-0.1c-0.5,0-1-0.5-1.5-0.7c0,0,0,0,0,0
						c-0.4-0.3-0.8-0.6-1.2-0.9c-0.1-0.2,0.2-0.1-0.2-0.5c-0.1,0.2-0.7-0.6-0.6-0.2c-0.3-0.4-0.7-0.9-0.9-1.2c0.2,0.1,0.1-0.3,0.3,0
						l-0.1-0.3c0.1,0,0.1,0.2,0.2,0.1c-0.1-0.1-0.5-0.5-0.5-0.7c-0.3-0.2-0.6-0.4-0.9-0.9c0.2,0.2,0.1-0.2,0.2-0.1
						C7,41,6.8,40.8,6.6,40.6c-0.1-0.2,0.1-0.1,0-0.3c0,0-0.1-0.1-0.2-0.1c0-0.1-0.3-0.7-0.1-0.8c0-0.1,0.1,0.3,0.1,0.1
						C6.4,39,6.3,39,6.2,38.7l0,0c0-0.2-0.3-0.6-0.3-0.3C6,38.5,6,38.3,6,38.5c-0.2-0.1-0.3-0.5-0.4-0.8c0.1,0.1,0.1,0.1,0.2,0.1
						c-0.2-0.4-0.4-0.9-0.6-1.4c-0.1,0,0.2,0.2,0.2,0.2c0-0.7-0.4-1.3-0.3-1.9c0,0.1-0.1,0.1-0.1,0.1c0-0.3,0.1-0.3,0.1-0.5
						c0.1,0,0-0.3-0.1-0.5c-0.1-0.1,0-0.1,0.1,0.1c0-0.1-0.1-0.5-0.1-0.9c0-0.4,0-0.9,0.1-1.2c-0.1,0-0.2-0.4-0.1-0.6L5,31.3
						c0.1-0.1,0.1-0.5,0.2-0.5c-0.1-0.4-0.1,1.3-0.1,0.8c0.1-0.1-0.1-0.7,0-0.5c0-0.3-0.1-0.6,0.1-0.9c0,0.1,0.1,0.3,0.2,0
						c0.1-0.4,0-0.1,0-0.5l0-0.2c-0.1,0,0.1-0.4-0.1-0.3c0.1,0,0.1-0.7,0.3-0.6l0.1,0.1c0.1-0.2,0-0.4-0.1-0.5c0,0,0.1-0.1,0.1,0
						C5.6,28,6,27.7,5.9,27.4c0.3-0.3,0.5-1,0.7-1.1c0.1-0.3,0.2-0.6,0.4-0.9c0,0.1-0.1,0.2,0,0.2c0.2-0.2,0.2-0.2,0.2-0.4
						c0,0.1,0.4-0.3,0.6-0.4c0.1-0.3,0-0.3-0.1-0.4c0.3-0.1,0.5-0.8,0.9-0.9c-0.1,0.1-0.2,0.4,0,0.3c0.4,0,0.3-0.5,0.7-0.8L9.2,23
						c0.2,0,0.4-0.5,0.5-0.4c0.1-0.2,0.5-0.3,0.3-0.4c0.7-0.4,1.5-1.2,2-1.1c0.1-0.1,0.3-0.2,0.2-0.2c-0.2,0-0.2,0.2-0.3,0.2
						c0.1-0.1,0.1-0.1,0.1-0.1c0.2-0.1,0.4-0.2,0.3,0.1c0.5-0.2,0.3-0.5,0.9-0.8c0,0.1,0.1,0.1,0.2,0c0.1-0.1,0.2-0.2,0.3-0.3
						c0.4-0.1,0.3,0.1,0.4,0.2c0.2-0.1,0.5-0.2,0.5-0.3l0.3,0c-0.2,0,0.1-0.1,0.2-0.2l-0.1,0.1c0.1,0,0.3-0.1,0.4-0.2
						c-0.1-0.1-0.3,0-0.5,0c0.1-0.1,0.3-0.1,0.4-0.3c0,0.1,0.4-0.1,0.6-0.1c0.2,0,0.2-0.2,0.2-0.2c0,0.1,0.3-0.1,0.2,0
						c-0.1,0-0.2,0-0.3,0.1c0.1,0,0.2,0.1,0.4-0.1c0.2-0.1-0.1-0.2,0.3-0.3c-0.1,0.1-0.1,0.1-0.2,0.2l0.4,0l0-0.1c0.1,0,0,0,0.1,0
						c0.1-0.2,0.5-0.2,0.6-0.4c0.2-0.1,0.4,0,0.6-0.1l0,0c0.2,0,0.5-0.1,0.7-0.2l0,0c0.1,0,0.4-0.1,0.5-0.2c0.3,0,0.2,0.4,0.5,0.2
						c0.3-0.1,0.4-0.3,0.3-0.4c0.6,0,1.2-0.3,1.7-0.2c0.1-0.1,0-0.1,0.2-0.1c0.8-0.1,1.7-0.3,2.4-0.1c-0.2,0.1,0,0.1,0,0.2
						c0.2-0.1,0.2,0.1,0.3-0.1c0-0.1,0-0.2-0.2-0.2c0.5-0.1,1.2-0.1,1.5,0c-0.1,0,0-0.1,0.1-0.1c0,0.2,0.3,0.2,0.6,0.1l0-0.1
						l0.2,0.1c0.1,0,0.1-0.2,0.4-0.1c0,0,0,0.1,0.1,0.1c0.3-0.1,0.7-0.2,1-0.1l0.2,0.2c0.1,0,0.4-0.1,0.1-0.1c0.5,0.1,0.9,0.2,1,0.3
						c0.5-0.1,1-0.1,1.6-0.1c0.6,0.1,1.2,0.2,1.7,0.3l0,0.1c0.3,0.1,0.2-0.1,0.4,0c-0.1,0,0.2,0.2-0.1,0.2c0.4,0.2,0.5,0,0.8,0.1
						c0.1-0.1-0.2,0-0.1-0.1c0.1,0,0.5,0.2,0.6,0.1c0.1,0.1,0,0.2-0.1,0.2c0.1,0,0.2,0,0.3,0c0.2,0.3-0.8,0.1-0.5,0.4l0.2,0
						c0.2,0.2-0.6,0-0.1,0.2c0.3,0,0.5-0.1,0.3-0.3c0.5,0.1,0.4-0.3,0.9,0c0.1,0.1-0.4-0.1-0.4,0c0.2,0.2,0.5,0.1,0.7,0.3
						c-0.2-0.1,0-0.2,0.2-0.2c0.2,0.2-0.2,0,0.1,0.2c0.1-0.1,0.5,0.1,0.2-0.1c0.2-0.1,0.4,0.2,0.6,0.2c0.1,0.2-0.5,0.1-0.2,0.4
						c0-0.2,0.6,0.1,0.5-0.2c0.1,0.1,0.1,0.2,0,0.2c0.2,0.2,0.7,0.1,0.6,0.4l0.1-0.1c0,0.1,0.1,0.2,0.2,0.3c0.2,0.1,0.7,0.2,0.6,0.4
						c0.1,0,0.5,0.4,0.4,0.1c-0.2-0.3-0.4-0.1-0.4-0.4c0.1,0.3,0.4,0.3,0.6,0.3l0,0.1c0.1,0,0.3,0.2,0.4,0.2c-0.1,0-0.1,0.1,0,0.1
						l0.2,0c0.4,0.3-0.1,0.2,0.3,0.5l-0.3-0.2c0.1,0,0.1,0.2,0.3,0.3c0.1,0,0.3,0,0.5,0c0.2,0.1,0,0.2,0.3,0.3l-0.3-0.1
						c-0.1,0,0,0.3,0.2,0.5c0.2,0.1,0.5,0.3,0.3,0c0.1,0.1,0.2,0.4,0.1,0.3c0.3,0.3,0.1-0.1,0.3,0.1c0,0.1,0.2,0.5,0.3,0.8l-0.3-0.2
						l0.1,0.2c-0.3-0.1,0,0.2-0.2,0.1c0.1,0.1,0.2,0.3,0.3,0.3c0-0.5,0.6,0.2,0.7,0c0.4,0.5-0.3,0.6,0.3,1c0-0.1,0.3,0.1,0.1-0.2
						c0.2,0.4,0.4,0.1,0.5,0.6c-0.2-0.3-0.1,0.4-0.4,0.1c0.1,0-0.1-0.3-0.1-0.3c0,0.2-0.2,0.1,0,0.4c0.1,0.2,0.3,0.5,0.3,0.4
						c0.1-0.1-0.2-0.3,0-0.2c0.2,0.4,0.1,0.6,0.4,0.7c-0.1-0.3,0-0.4,0-0.4l0.2,0.3l-0.1,0c0.1,0.5,0.2,0.1,0.4,0.6l-0.1,0.3
						c-0.2-0.1-0.2-0.8-0.4-0.6c0.1,0.3,0.3,0.4,0.3,0.7c0-0.1-0.1-0.2-0.1-0.2c0,0.1-0.2,0.3,0.1,0.8c0.1,0.2,0.1,0,0.2,0
						c0.2,0.5,0.3,0.7,0.4,1c-0.2,0,0.1,0.6-0.2,0.3c0.1-0.2-0.1-1-0.3-1.1c-0.2,0.3-0.1-0.4-0.3-0.5c0.1,0.4-0.1,0.5-0.2,0.6
						c0,0.1,0.1,0.2,0.1,0.3c0.1,0,0.1-0.1,0.2-0.2c0.1,0.5,0.3,0.9,0.4,1.2c0,0.2-0.2,0.1-0.2,0c0.2,0.6,0.2,1.2,0.2,1.7
						c0.2-0.4,0.1,0.6,0.3,0.4c0-0.3,0.2-0.6,0.3-0.4c0,0.2-0.1,0-0.1,0.1c0.1,0.2-0.2,0.4,0,0.6c-0.1-0.5-0.3-0.1-0.4-0.2
						c0.1,0.4-0.1,0-0.1,0.4c0.1,0.4,0.2,0.8,0.2,1.3c-0.2,0.5,0,1.3-0.1,1.8c-0.1,0.2-0.3,0.1-0.3,0.3c0,0.3,0.2-0.2,0.1,0.2l0,0
						c0,0.1-0.2,0.8,0,1L44,36.3c0,0.1,0,0.2,0,0.2c-0.1,0-0.1,0.1-0.2-0.1c-0.2,0.3-0.1,0.6-0.1,0.9l0.1-0.2c0,0.5-0.2,0.9-0.2,1.4
						l-0.1,0l0,0.3c-0.1-0.1-0.2,0.2-0.2,0.3l-0.1-0.8c0.1-0.2,0.1,0.3,0.2,0.2c0.1-0.1,0.2-0.6,0.1-0.7c0,0.2,0,0.2,0,0.3
						c-0.2,0-0.1-0.2-0.2-0.4c0,0.1-0.1,0.2,0,0.2c0-0.2,0-0.4,0-0.7c0,0.2,0.1-0.1,0.2,0c-0.1,0-0.1-0.3,0-0.7
						c0.2-0.2,0-0.7,0.1-1.1c0.1,0.2,0.2,0.4,0.2,0.7c0.1-0.3,0-0.3,0.1-0.6c-0.1-0.1-0.3-0.3-0.3-0.6l0.1,0c0-0.3-0.2-0.3-0.1-0.7
						c0.1-0.7,0.1-1.4,0.1-2l0.1,0c-0.2-0.3-0.2-1-0.3-1.4c0-0.7-0.3-1.4-0.2-1.8c-0.4-1.2-0.8-2.1-1.3-3.2c0.1,0,0.2,0.1,0.2,0.1
						c-0.2-0.2,0-0.2-0.1-0.4c0,0.3-0.3-0.2-0.4-0.3c-0.1-0.6-0.7-1-1.1-1.4l0.1-0.1c-0.5-0.2-0.7-0.8-1.1-1.2c0-0.1,0-0.2-0.2-0.3
						c-0.4-0.1-0.5-0.2-0.9-0.4c-0.3-0.2-0.7-0.6-1-0.8c-1.3-0.5-2.4-1.1-3.8-1.4l-0.1-0.1c-1.4-0.1-3-0.6-4.1-0.6l0.1-0.2
						c-0.4-0.1-0.8,0-0.8,0.1c-0.4-0.1-0.9,0.1-1.1-0.1c-0.4-0.1-0.5,0.1-0.8,0.1c-0.7-0.1-1-0.1-1.7,0l0.2,0c0.1,0,0.1-0.1-0.1-0.2
						c-0.3,0.1-1,0-0.7,0.2c-0.7-0.1-1.7,0.3-2.5,0.2c0.1,0.1-0.1,0.1-0.2,0.2c-0.6,0.1-1.4,0.1-1.8,0.3c-0.1,0,0.1-0.2-0.1-0.1
						c-0.1,0.1,0,0.1-0.2,0.2c-1,0.4-2.1,0.4-3,0.7c-1.6,0.7-3.2,1.3-4.6,2.2l0-0.1c-0.3,0.4-1.2,0.5-1.3,1.1
						c-0.1,0-0.4,0.3-0.4,0.2c-0.2,0.4-1,0.7-1.3,1.3c0,0,0.1-0.1,0.1-0.1c-0.3,0.2-0.4,0.4-0.6,0.7c-0.2,0.2-0.4,0.5-0.6,0.7
						c0-0.1,0.1-0.2,0-0.2C8,26.3,8,26.7,7.8,26.7c-0.1,0.1,0.1,0.2,0.1,0.1C7,28,6.7,29.5,6.5,31c-0.3,1-0.4,0-0.3,0.9
						c-0.1,0.1,0.1,0.1,0,0.1c0.1,0.3-0.3,0.5-0.2,0.7c0.2-0.1,0.1,0.2,0.2,0.2c-0.1,0.7-0.2,0.8-0.1,1.3l-0.1,0
						c0.2,0.6,0.3,1.3,0.6,1.8c0.1,0.8,0.4,1.7,0.6,2.5l0.4,1.2l0.1,0.3l0.1,0.4c0,0.2,0.1,0.3,0.2,0.5c0.6,1.4,1.6,2.6,2.9,3.6
						c1.2,1,2.6,1.7,4.1,2.2c0.7,0.3,1.5,0.4,2.3,0.6c0.8,0.1,1.6,0.3,2.4,0.4c0.8,0.3,0.8,0.3,1.7,0.2c0,0-0.1,0,0,0.1
						c0-0.2,0.6,0,0.7-0.2c0.6,0,1.2,0,1.8,0l0.5,0c0,0,0.3,0,0.3,0l0.2,0c0.3,0,0.6,0,0.9,0c-0.2,0-0.3,0.2-0.1,0.1l0.3-0.1l0,0
						c0.2,0,0.3-0.1,0.2-0.2c3.2-0.2,6.4-0.3,9.3-1.5c0.7-0.2,1.6-0.7,2.3-1.1c2.1-1,3.7-2.5,4.3-4.8c0,0,0.1,0.1,0.1,0.3
						C42.4,40.6,42.5,41,42.3,41.4z"/>
					<path fill="#808181" d="M42.9,39.5c0.1-0.1,0.2-0.3,0.3-0.1C43.1,39.4,43,39.5,42.9,39.5z"/>
					<path fill="#808181" d="M44.6,31.9c0,0,0-0.1,0-0.1c0,0.1,0.1,0.2,0.1,0.3C44.7,31.9,44.6,31.9,44.6,31.9z"/>
					<path fill="#808181" d="M44.4,29.8c0.1,0,0.2,0.4,0.2,0.7L44.4,29.8z"/>
					<path fill="#808181" d="M44.3,27.9c0-0.2,0.1-0.1,0.1,0.1C44.4,28,44.3,27.9,44.3,27.9z"/>
					<path fill="#808181" d="M44.1,27.8c0-0.2,0-0.2,0-0.3C44,27.5,44.2,27.8,44.1,27.8z"/>
					<path fill="#808181" d="M42.5,23.8c-0.1-0.1-0.2-0.2-0.2-0.4C42.3,23.6,42.7,23.8,42.5,23.8z"/>
					<path fill="#808181" d="M41.2,22.3c0-0.1,0-0.1-0.1-0.1c-0.1-0.1,0.1-0.1,0.1,0L41.2,22.3z"/>
					<polygon fill="#808181" points="8.9,23.3 9.1,23.1 9.1,23.2 					"/>
					<path fill="#808181" d="M5.5,37.5c0.1,0.2,0,0.2,0,0.2C5.4,37.5,5.5,37.8,5.5,37.5z"/>
					<polygon fill="#808181" points="9.3,44.6 9.2,44.6 9.4,44.5 					"/>
				</g>
			</g>
		</g>
	</g>
</g>
<g>
	<g>
		<g>
			<g>
				<g>
					<path fill="#808181" d="M30.9,23.2C31,23.2,31,23.2,30.9,23.2L30.9,23.2L30.9,23.2z"/>
					<path fill="#808181" d="M30.8,23.1c0,0-0.1,0.1-0.1,0.1C30.7,23.1,30.7,23.2,30.8,23.1C30.8,23.1,30.8,23.1,30.8,23.1
						c0.1,0.1,0.1,0.1,0.1,0.1C30.9,23.1,30.8,23.1,30.8,23.1C30.7,23.1,30.8,23.1,30.8,23.1z"/>
					<path fill="#808181" d="M27.6,22.2L27.6,22.2L27.6,22.2z"/>
					<path fill="#808181" d="M25.6,22C25.6,22,25.6,22,25.6,22C25.6,22,25.6,22,25.6,22z"/>
					<path fill="#808181" d="M25.3,22C25.3,22,25.3,22,25.3,22C25.3,22,25.3,21.9,25.3,22z"/>
					<path fill="#808181" d="M27.6,22.2L27.6,22.2C27.6,22.2,27.6,22.2,27.6,22.2z"/>
					<path fill="#808181" d="M30.3,23.1C30.3,23.1,30.3,23.1,30.3,23.1L30.3,23.1L30.3,23.1z"/>
					<polygon fill="#808181" points="28.5,22.3 28.5,22.3 28.6,22.3 					"/>
					<path fill="#808181" d="M29.2,22.5C29.2,22.4,29.2,22.5,29.2,22.5C29.2,22.5,29.2,22.5,29.2,22.5
						C29.2,22.5,29.2,22.5,29.2,22.5z"/>
					<path fill="#808181" d="M30.2,22.8L30.2,22.8L30.2,22.8z"/>
					<path fill="#808181" d="M28,22.2C28,22.2,28,22.2,28,22.2C28,22.2,28,22.2,28,22.2z"/>
					<path fill="#808181" d="M11.2,29.1L11.2,29.1C11.1,29.1,11.2,29.1,11.2,29.1z"/>
					<polygon fill="#808181" points="10.5,29.6 10.5,29.6 10.4,29.5 					"/>
					<path fill="#808181" d="M24.6,21.9L24.6,21.9C24.7,21.9,24.6,21.9,24.6,21.9z"/>
					<path fill="#808181" d="M19,23.2c0.1,0-0.1,0.1,0,0.1C19,23.3,19,23.2,19,23.2z"/>
					<path fill="#808181" d="M30.3,23.1L30.3,23.1C30.3,23.1,30.3,23.1,30.3,23.1z"/>
					<polygon fill="#808181" points="19,23.3 19,23.3 19,23.3 					"/>
					<path fill="#808181" d="M23.2,22.1C23.2,22.1,23.2,22.1,23.2,22.1C23.2,22.1,23.2,22.1,23.2,22.1z"/>
					<path fill="#808181" d="M24.3,22L24.3,22C24.3,22,24.3,22,24.3,22z"/>
					<path fill="#808181" d="M22.6,22.2C22.6,22.2,22.6,22.2,22.6,22.2L22.6,22.2C22.6,22.2,22.6,22.2,22.6,22.2z"/>
					<path fill="#808181" d="M22,22.3C22.1,22.3,22.1,22.3,22,22.3L22,22.3L22,22.3z"/>
					<path fill="#808181" d="M12.4,27.9C12.4,27.9,12.3,27.9,12.4,27.9C12.4,27.9,12.3,28,12.4,27.9z"/>
					<path fill="#808181" d="M30.3,23C30.3,23.1,30.3,23.1,30.3,23L30.3,23C30.3,23.1,30.3,23.1,30.3,23z"/>
					<path fill="#808181" d="M22.7,22.6L22.7,22.6C22.6,22.6,22.6,22.6,22.7,22.6z"/>
					<path fill="#808181" d="M15.7,25.3L15.7,25.3C15.7,25.4,15.7,25.4,15.7,25.3z"/>
					<path fill="#808181" d="M22.3,22.7C22.3,22.6,22.3,22.6,22.3,22.7L22.3,22.7L22.3,22.7z"/>
					<path fill="#808181" d="M12.3,27.9L12.3,27.9L12.3,27.9z"/>
					<path fill="#808181" d="M12,28.4c0.1-0.1,0-0.1,0-0.1c0.1-0.1,0.1,0,0.1,0c0-0.1,0-0.1,0.1-0.2c0,0,0,0,0,0
						c0-0.1,0.1-0.1,0.2-0.2c0,0,0,0,0,0c0,0-0.1,0-0.1-0.1c0,0,0-0.1,0.1-0.1c0,0,0,0,0,0l0,0c0.1,0,0,0.1,0,0.1
						c0-0.1,0.1-0.2,0.1-0.2c0,0-0.1,0.1,0,0.1l-0.1,0c0.1,0,0,0,0.1,0.1c0.1-0.1,0.1-0.1,0.2-0.2c0,0,0,0,0-0.1
						c0.1-0.2,0.2,0,0.2-0.1c0-0.1,0-0.1,0.1-0.2l0,0.1c0.1-0.1,0-0.1,0.1-0.2c0,0-0.1,0.1,0,0.1c0.1,0,0-0.1,0.1-0.1l0,0
						c0.1-0.1,0.2-0.2,0.3-0.3c0,0,0,0,0,0c0.1-0.1,0.3-0.2,0.5-0.3l0-0.1c0,0,0,0,0,0c0.1,0,0,0,0-0.1c0,0,0.1,0,0,0
						c0.1-0.1,0.2-0.3,0.4-0.3l0,0c0.1,0,0-0.2,0.1-0.2l0,0c0.2-0.1,0.3-0.3,0.5-0.3c0-0.1,0.2-0.1,0.1-0.2c0.1,0,0.1,0,0.3-0.1
						c0,0,0-0.1,0.1-0.1l0,0l0-0.1l0.1,0l0,0c0,0-0.1,0-0.1,0c0.1-0.1,0.2-0.1,0.2-0.1l0.1-0.1c0,0,0,0,0,0.1c0.1-0.1,0,0,0.1-0.1
						c0,0,0,0,0,0c0.1,0,0.1-0.1,0.2-0.1l0,0c0.1-0.1,0.3-0.2,0.4-0.2c-0.1,0-0.1,0,0-0.1l0,0c0,0-0.1,0,0-0.1c0.1,0,0.1,0,0,0.1
						l0.1-0.1c0,0,0,0,0,0.1c0,0,0.1,0,0.1-0.1l0,0c0.1-0.1,0.2-0.1,0.3-0.2c0,0,0-0.1,0-0.1c0.1,0,0.2,0,0.3-0.1c0.1-0.1,0,0,0-0.1
						c0,0,0.1,0,0.1,0c0.1-0.1,0.2-0.1,0.3-0.2c0,0,0,0,0,0c0,0,0.1,0,0.1,0l0,0c0.2-0.1,0.5-0.1,0.6-0.2l0,0l0.1-0.1
						c0.1,0,0,0,0,0.1c0.1-0.1,0.3-0.1,0.4-0.2c0.2,0.1,0.4-0.2,0.5-0.1l0,0c0,0,0.1,0,0.1,0c0,0-0.1,0,0,0c0.3-0.1,0.7-0.2,1-0.3
						c0.1,0,0-0.2,0.2-0.2l0,0.1c0.2-0.2,0.5-0.1,0.7-0.2c0,0,0,0,0,0c0.1,0,0.2,0,0.2-0.1c0,0,0,0,0,0c0.1,0,0.1-0.1,0.2,0
						c0,0,0,0,0,0c0,0,0.2,0,0.1-0.1c0.1,0,0.2-0.1,0.2,0c0-0.1,0.2,0,0.2-0.1c0,0.1,0.2,0,0.2,0c0,0,0.1,0,0,0.1
						c0.1,0,0.1,0,0.1-0.1c0.1,0.1,0.2-0.1,0.3,0c0.2-0.1,0.4-0.1,0.6-0.1c0,0.1-0.2,0-0.2,0.1c0.2,0,0.3-0.1,0.4-0.1c0,0,0,0,0,0.1
						c0.2,0,0.3,0,0.5-0.1c0,0,0,0,0,0c0,0,0.1,0,0.1,0l0,0c-0.1,0,0.1-0.1,0.1-0.1c0,0.1,0.2,0,0.1,0.1c0,0,0,0,0-0.1c0,0,0,0,0,0
						c0.1,0,0.1-0.1,0.2-0.1c0,0,0,0,0,0c0,0,0.1-0.1,0.2,0c0,0,0,0,0,0c0.1,0,0.2-0.1,0.4,0c0,0.1,0.1,0,0.1,0.1l0.1,0l0,0
						c0.1,0,0.1,0,0.2,0l-0.1,0l0.1,0l-0.1,0c0.1,0,0-0.1,0.1-0.1c0,0,0.1,0,0.1,0l0,0c0,0,0.1,0,0.1,0c0,0,0,0.1,0,0.1
						c0-0.1,0.2,0,0.2-0.1c0,0,0,0,0,0.1l0,0c0,0,0,0,0,0c0.1,0,0-0.1,0.1,0c0,0,0,0,0,0c0.1,0,0.2,0,0.3,0c0,0.1-0.1,0-0.1,0.1
						c0.2,0,0.3,0,0.5,0l0,0c0-0.1,0.1,0.1,0.2,0c0,0,0,0,0,0c0.1,0,0.2,0,0.4,0l0,0c0.1,0,0.2,0,0.2,0.1c0,0,0.1,0,0,0
						c0.2,0.2,0.4,0,0.6,0.1c0,0-0.1,0,0,0l0.2,0c0,0,0,0,0-0.1c0,0,0.1,0,0.1,0c-0.1,0,0,0.1,0,0.1c0,0,0,0,0,0
						c0.1,0.1,0-0.1,0.1,0l0,0c0,0,0.1,0,0.1,0c0,0.1,0,0-0.1,0c0.1,0,0.1-0.1,0.2,0c0,0-0.1,0-0.1,0c0,0.1,0.1,0.1,0.1,0.1l0,0
						l0.1,0.1l0,0c0.1-0.1,0.2,0,0.3,0c-0.1,0,0,0,0,0.1c0,0,0.1,0,0,0.1c0.1,0,0.1,0.1,0.2,0c0,0,0.1,0,0,0.1c0.1,0,0,0,0-0.1
						c0.1,0,0.2,0.1,0.4,0.1c0.1,0,0.2,0,0.3,0c0,0,0,0.1,0,0.1c0.1,0,0.1,0.1,0.2,0c0,0,0,0,0,0.1c0,0,0.1-0.1,0.1,0
						c0,0,0,0-0.1,0.1c0,0,0.1,0,0.2,0c0,0,0,0-0.1,0c0.1,0,0.2,0,0.2,0l0,0c0,0,0,0,0,0c-0.1,0-0.1,0-0.1-0.1l0,0
						c0-0.1-0.2,0-0.2-0.1l0.1-0.1l-0.1,0c0,0,0-0.1,0-0.1c0-0.1-0.1,0-0.1,0c0,0,0,0,0,0l-0.1,0c0,0,0-0.1,0,0
						c-0.1-0.1-0.2,0-0.2-0.1l0,0c-0.2,0,0,0-0.2,0.1l0-0.1l0,0c0,0,0,0,0,0c-0.1,0,0,0,0,0c-0.1-0.1-0.2,0-0.2-0.1
						c0,0,0.1,0.1,0,0.1c0-0.1-0.1,0-0.1-0.1c0,0,0.1,0,0-0.1c-0.1,0.1-0.1-0.1-0.2-0.1c0,0.1-0.1,0-0.2,0c0,0-0.2-0.1-0.2-0.1l0,0
						c0,0.1-0.1,0-0.2,0c0,0,0-0.1,0.1-0.1l-0.1,0c0,0,0,0-0.1,0l0,0c-0.1,0-0.2,0-0.3,0c0,0,0.1,0.1-0.1,0.1c0,0,0-0.1,0-0.1
						c0,0,0,0-0.1,0l0.1,0c0,0,0,0-0.1,0c0,0,0,0,0-0.1c0,0,0,0,0,0c0,0-0.1,0-0.1-0.1c0,0,0,0,0,0c-0.1,0,0,0-0.1-0.1
						c0,0-0.1,0-0.1,0c0,0,0,0,0,0c0,0-0.2,0-0.2,0l0,0l0,0l0,0l0,0c-0.1,0-0.3-0.1-0.4-0.1l0,0c-0.1,0-0.2,0-0.2,0c0,0-0.1,0,0-0.1
						c-0.1,0-0.1,0-0.2,0c0.1,0,0,0,0.1,0c-0.1,0-0.1-0.1-0.2,0c0,0-0.1-0.1-0.1,0l0.1,0c0,0-0.1,0-0.1,0l0-0.1
						c-0.2-0.1-0.3,0.1-0.4,0c0,0,0.1,0,0,0.1C26,22,26,22,25.9,22c-0.1,0-0.1,0.1-0.2,0.1c0,0,0,0.1-0.1,0.1c-0.1,0-0.1-0.1,0-0.1
						c0,0,0,0,0,0c0,0,0.1,0,0,0l0,0c0,0-0.1,0-0.1-0.1c-0.1,0,0,0,0,0c-0.1,0-0.2,0-0.3,0c0,0,0,0,0,0c-0.2,0-0.1,0-0.2,0
						c-0.1,0,0-0.1-0.1-0.1c-0.1,0,0-0.1,0-0.1c-0.1,0-0.2,0-0.2,0l0,0c0,0-0.1,0-0.1,0l0,0c0,0-0.1,0-0.1,0c0,0,0,0.1,0,0.1
						c0,0-0.1,0-0.1,0c0.1,0,0-0.1,0.1-0.1c0,0,0,0-0.1,0c0,0,0,0,0,0c-0.1,0-0.1,0.1-0.2,0.1c0,0,0-0.1-0.1,0c0,0,0,0,0,0.1
						c-0.1,0-0.1,0-0.1,0l0,0c0,0-0.1,0-0.1,0c0,0,0,0,0,0c-0.1,0.1-0.1,0-0.2,0c0,0,0-0.1,0-0.1c-0.1,0.1-0.1,0-0.2,0
						c0,0,0,0,0,0.1l0.2,0l-0.1,0.1c0,0,0.1,0,0.1,0c0,0,0,0,0,0.1c-0.1-0.1-0.1,0.1-0.2,0l0-0.1c-0.1,0-0.2,0.1-0.4,0.1l0.1,0
						c0,0-0.1,0-0.1,0c0,0,0,0-0.1-0.1c0,0-0.1,0-0.1,0.1l-0.1,0c-0.1,0-0.1,0.1-0.2,0.1c0,0,0-0.1,0-0.1c0,0-0.1,0-0.1,0
						c0,0-0.1,0.1-0.1,0c0,0,0,0.1-0.1,0.1c0,0,0,0,0,0c0,0-0.1,0,0,0.1c-0.1-0.1-0.3,0.1-0.5,0c-0.1,0-0.2,0.1-0.3,0.1c0,0,0,0,0,0
						c-0.1,0,0,0.1-0.2,0.1c-0.1,0,0.1,0,0-0.1c0-0.1-0.1,0-0.2,0l0,0c-0.1,0-0.1,0.1-0.2,0.1c0,0,0,0,0,0c-0.1,0.1-0.2,0.1-0.3,0.2
						c0,0,0,0,0-0.1c0,0,0,0.1,0,0.1c0,0-0.1,0-0.1-0.1l0.1,0c-0.1,0-0.1,0-0.1,0l0,0c-0.1,0-0.1,0.1-0.2,0.2l0,0
						c-0.1,0.1-0.1,0-0.1,0.1l0-0.1c0,0-0.1,0.1-0.2,0.2c0-0.1,0.1-0.1,0.2-0.2c0,0-0.2,0.1-0.2,0.1c0,0,0,0,0.1,0
						c0,0.1-0.1,0.1-0.2,0.2c0-0.1-0.3,0-0.4,0c-0.1,0.1-0.3,0.1-0.5,0.2c0.1,0.1-0.1,0,0,0.1c0,0-0.1,0-0.1,0l-0.2,0c0,0,0,0,0-0.1
						c-0.1,0-0.1,0-0.1,0c0,0,0,0.1-0.1,0.1l0.1,0c-0.1,0.1-0.1,0-0.3,0.1l0,0c-0.1,0-0.3,0.1-0.3,0.2c0,0,0,0,0,0
						c-0.2,0.1-0.3,0.2-0.5,0.3l0,0c0,0,0,0.1-0.1,0.1c0,0,0,0,0,0c0,0-0.1,0.1-0.1,0.1l0,0c-0.2,0.1-0.2,0.2-0.3,0.3
						c0-0.1-0.2,0-0.2,0l0,0c-0.2,0.1-0.3,0.2-0.4,0.3c-0.1,0-0.4,0.1-0.6,0.2c0,0,0,0.1,0,0.1c0,0-0.1,0.1-0.1,0l0,0
						c-0.1,0-0.1,0-0.2,0.1l0,0.1c-0.2,0-0.4,0.3-0.5,0.3c0,0-0.1,0.1-0.1,0.1l0,0c-0.1,0.1-0.2,0.1-0.3,0.2l0,0
						c-0.1,0,0,0.2-0.1,0.2l-0.1,0c-0.1,0.1-0.3,0.1-0.4,0.3c0,0,0,0,0,0c-0.1,0-0.3,0.1-0.2,0.2c0-0.1-0.1,0.1-0.2,0.2l0,0
						c0,0.1,0,0.1-0.1,0.2c0,0,0,0,0,0c-0.1,0,0,0.1-0.1,0.1l0,0c-0.1,0-0.1,0.1-0.1,0.1c0,0-0.1,0.1-0.2,0.1c0,0,0,0.1,0,0.1
						c0,0,0,0,0,0c-0.1,0.1-0.1,0.2-0.2,0.2c0,0,0,0,0,0c0.1-0.1,0.1-0.1,0.1-0.1c0,0-0.1,0-0.1-0.1c0,0.1-0.1,0.2-0.1,0.2
						c0,0,0,0,0,0l0,0c0,0,0,0,0,0c0,0,0,0-0.1,0c0,0-0.1,0-0.1,0.1c0,0,0,0.1,0.1,0.1c0,0,0,0,0,0c0,0,0,0,0,0l0,0c0,0,0,0,0.1-0.1
						c0,0,0,0.1-0.1,0.1c0,0,0,0.1,0,0.1c-0.1,0-0.2,0-0.2,0c-0.1,0.1-0.2,0.2-0.2,0.3c0,0,0,0-0.1,0c0,0,0,0,0-0.1
						c0,0.1-0.2,0.2-0.1,0.2c-0.1,0,0-0.1-0.1,0l0,0c-0.3,0.1-0.2,0.4-0.5,0.5c0,0,0,0,0,0c-0.3,0.2-0.4,0.5-0.7,0.6
						c-0.1,0.1,0,0.1-0.1,0.1l-0.1,0l0,0.1c-0.1,0.1-0.2,0.1-0.3,0.3l0,0c0,0-0.1,0.2-0.1,0.1c0,0,0,0,0,0l0,0l-0.1,0.1
						c-0.1,0.1-0.1-0.1-0.2,0c0,0.1,0,0.2,0,0.2c0,0,0.1,0,0.1,0l0,0.1c0.1,0.1,0.1,0.1,0.2,0.1l0-0.1l0.1,0l0,0.1
						c0.1,0,0.1-0.1,0.1-0.1c0,0,0,0,0.1,0l0-0.1c0,0,0,0.1,0.1,0c0-0.1-0.1,0-0.1-0.1c0.1,0,0.1,0,0.1,0c0,0,0,0,0,0
						c0-0.1,0.1-0.1,0.1-0.1c0.1,0,0.1-0.1,0.2-0.1c0,0,0-0.1,0-0.1c0,0.1,0.1-0.1,0.2,0c0-0.1,0.1-0.2,0.2-0.3c0,0,0,0,0,0
						c0,0,0.1,0,0.1,0c0-0.1,0-0.1,0-0.2c0.1,0,0,0.1,0.1,0.1c0,0,0-0.1,0-0.1c0.1,0,0,0,0.1,0c-0.1-0.1,0,0,0-0.1
						C11.9,28.3,11.9,28.4,12,28.4C12,28.3,12,28.4,12,28.4z M13.4,26.9L13.4,26.9C13.4,26.9,13.4,26.9,13.4,26.9
						C13.4,26.9,13.4,26.9,13.4,26.9z M13.5,26.8C13.5,26.8,13.5,26.8,13.5,26.8C13.5,26.8,13.5,26.8,13.5,26.8
						C13.5,26.8,13.5,26.8,13.5,26.8z M13,26.8C13.1,26.7,13.1,26.7,13,26.8C13.1,26.7,13.1,26.8,13,26.8L13,26.8
						C13,26.8,13,26.8,13,26.8z"/>
					<polygon fill="#808181" points="13,26.8 13,26.8 13,26.8 13,26.8 					"/>
					<polygon fill="#808181" points="27.7,22.2 27.7,22.2 27.7,22.2 					"/>
					<polygon fill="#808181" points="15.5,25.5 15.5,25.5 15.5,25.5 					"/>
					<path fill="#808181" d="M28.6,22.5C28.6,22.5,28.6,22.6,28.6,22.5C28.6,22.6,28.6,22.6,28.6,22.5z"/>
					<path fill="#808181" d="M29,22.6L29,22.6C29,22.7,29,22.7,29,22.6z"/>
					<path fill="#808181" d="M29.3,22.8C29.3,22.7,29.3,22.7,29.3,22.8L29.3,22.8L29.3,22.8z"/>
					<path fill="#808181" d="M24.3,22.3C24.3,22.3,24.3,22.3,24.3,22.3C24.3,22.4,24.3,22.4,24.3,22.3z"/>
					<path fill="#808181" d="M25.8,22.2C25.8,22.2,25.8,22.2,25.8,22.2C25.8,22.2,25.8,22.2,25.8,22.2z"/>
					<polygon fill="#808181" points="22.7,22.6 22.7,22.6 22.7,22.6 					"/>
					<path fill="#808181" d="M25.7,22.2C25.7,22.2,25.7,22.2,25.7,22.2C25.7,22.2,25.7,22.2,25.7,22.2z"/>
					<polygon fill="#808181" points="30.6,23.2 30.6,23.2 30.6,23.2 					"/>
					<path fill="#808181" d="M30.6,23.2L30.6,23.2C30.6,23.2,30.6,23.2,30.6,23.2z"/>
					<path fill="#808181" d="M30.6,23.2L30.6,23.2C30.6,23.2,30.6,23.2,30.6,23.2z"/>
					<path fill="#808181" d="M30.2,23L30.2,23C30.2,23,30.2,23,30.2,23z"/>
					<path fill="#808181" d="M30,23c0,0,0.1,0.1,0.1,0.1l0,0C30.1,23.1,30.1,23,30,23z"/>
					<path fill="#808181" d="M29.6,22.6L29.6,22.6c0.1,0,0.1,0,0.1,0C29.6,22.5,29.7,22.7,29.6,22.6z"/>
					<path fill="#808181" d="M29.3,22.5C29.3,22.5,29.3,22.5,29.3,22.5C29.3,22.5,29.2,22.5,29.3,22.5z"/>
					<path fill="#808181" d="M26.9,22.1L26.9,22.1C26.9,22,26.9,22.1,26.9,22.1z"/>
					<polygon fill="#808181" points="26.4,22.3 26.5,22.3 26.5,22.3 					"/>
					<polygon fill="#808181" points="26.2,21.9 26.2,21.9 26.1,22 					"/>
					<path fill="#808181" d="M22.1,22.3L22.1,22.3C22.2,22.3,22.2,22.2,22.1,22.3z"/>
					<path fill="#808181" d="M20.5,22.7C20.4,22.7,20.4,22.7,20.5,22.7C20.4,22.7,20.4,22.7,20.5,22.7z"/>
					<polygon fill="#808181" points="15.7,24.8 15.7,24.8 15.6,24.9 					"/>
				</g>
			</g>
		</g>
	</g>
</g>
<g>
	<g>
		<g>
			<g>
				<g>
					<path fill="#808181" d="M72.4,53.4c-0.3,0.2,0.2,0-0.2,0.2C72.3,53.5,72.3,53.4,72.4,53.4z"/>
					<path fill="#808181" d="M71.3,54.1c-0.2,0.2-0.5,0.4-0.8,0.5c-0.3,0.1-0.6,0.2-1,0.2c-0.7,0-1.4,0.1-2,0.1
						c-0.1,0,0.1-0.2-0.3-0.2c-1.2,0.2-3.1-0.4-4.3-1.3l0.1,0c-0.2-0.1-0.6-0.1-0.9-0.3c0,0,0.1,0,0.1-0.1c-0.1,0.1-0.5-0.2-0.7-0.2
						c-0.1-0.1,0-0.2-0.1-0.3l-0.2,0c-0.6,0.1-1-0.6-1.6-0.8c0,0,0.1,0,0.1-0.1c-1-0.4-2-1.2-3-1.9c0.1,0,0.2-0.1,0.1-0.1
						c-0.1,0.1-0.4-0.1-0.7-0.3c0-0.2-0.5-0.3-0.7-0.5l0,0c-0.3,0-0.3-0.3-0.5-0.3l-0.1-0.2c-0.2,0.1-0.2-0.3-0.5-0.4l0,0
						c-0.2-0.1-0.2-0.2-0.4-0.3l0,0c-0.4-0.2-0.5-0.5-0.6-0.4c0-0.2,0.4,0.3,0.3-0.1c-1.2-0.9-2.3-2-3.2-3.3c0-0.2-0.1-0.3-0.1-0.4
						c-0.1-0.1-0.4-0.4-0.5-0.5c0,0,0-0.1,0-0.2c-0.1-0.3-0.3-0.2-0.4-0.5c0.1,0.1,0.2,0.1,0.2,0c-0.2-0.2-0.4-0.5-0.6-0.7
						c0,0,0.1,0.1,0.1,0.1c-0.3-0.2-0.2-0.6-0.4-0.8l0.1,0.1c-0.1-0.5-0.2-0.1-0.3-0.5c0.1,0.1,0.1,0,0.1,0
						c-0.3-0.3-0.4-0.9-0.6-1.3c0,0,0,0,0,0c-0.1-0.4-0.1-0.8-0.3-1.3c0-0.2,0.2,0,0.2-0.4c-0.2,0-0.1-0.7-0.3-0.5
						c0-0.4,0.1-1,0.1-1.2c0.1,0.2,0.3-0.2,0.2,0.2l0.1-0.2c0.1,0-0.1,0.2,0.1,0.2c0-0.1,0-0.6,0.1-0.7c-0.1-0.3-0.2-0.6-0.1-1.1
						c0,0.2,0.2-0.1,0.2,0.1c0-0.2-0.1-0.5-0.1-0.8c0.1-0.1,0.2,0,0.2-0.2c-0.1,0,0-0.1-0.1-0.2c0,0,0.2-0.6,0.4-0.6
						c0.1,0-0.1,0.3,0.1,0.1c0.1-0.3,0.1-0.3,0.2-0.6l0,0c0.1-0.2,0.2-0.5,0-0.4c-0.1,0.1,0.1,0,0,0.2c-0.1-0.2,0.1-0.5,0.2-0.7
						c0,0.1,0,0.1,0.1,0.2c0-0.4,0.2-0.8,0.4-1.2c-0.1-0.1,0.1,0.2,0,0.3c0.4-0.4,0.5-1.1,0.9-1.4c0,0.1-0.1,0-0.1,0
						c0.2-0.2,0.3-0.1,0.3-0.3c0.1,0,0.1-0.2,0.2-0.4c0-0.1,0.1,0,0,0.1c0.1-0.1,0.2-0.4,0.4-0.7c0.2-0.3,0.5-0.6,0.8-0.8
						c-0.1,0,0.1-0.4,0.2-0.5l0,0.1c0.1,0,0.3-0.3,0.4-0.3c0.1-0.3-0.8,0.8-0.5,0.5c0.1,0,0.3-0.5,0.3-0.3c0.2-0.2,0.3-0.5,0.6-0.6
						c-0.1,0-0.1,0.3,0.1,0.1c0.3-0.2,0.1-0.1,0.3-0.3l0.1-0.2c-0.1-0.1,0.3-0.2,0.1-0.2c0.1,0,0.4-0.4,0.5-0.2l0,0.2
						c0.1-0.1,0.2-0.3,0.2-0.4c0,0,0.1,0,0.1,0c-0.1-0.2,0.4-0.2,0.5-0.4c0.4-0.1,0.9-0.4,1.1-0.3c0.2-0.1,0.5-0.3,0.8-0.3
						c-0.1,0-0.1,0.1-0.1,0.1c0.2,0,0.2-0.1,0.4-0.2c0,0,0.4,0.1,0.6,0.1c0.3-0.1,0.1-0.2,0.2-0.3c0.3,0.2,0.8-0.2,1.1-0.1
						c-0.1,0-0.4,0.2-0.2,0.2c0.3,0.2,0.5-0.2,0.9-0.1l-0.1-0.2c0.2,0.1,0.6-0.1,0.6,0.1c0.1-0.1,0.5,0.1,0.4-0.1
						c0.6,0.2,1.6,0.1,2,0.5c0.1,0,0.3,0.1,0.3,0c-0.1-0.1-0.2,0-0.3,0c0.1,0,0.1,0,0.1-0.1c0.2,0.1,0.3,0.1,0.1,0.2
						c0.4,0.2,0.5-0.2,1.1,0c0,0.1,0,0.1,0.2,0.1c0.1,0,0.2,0,0.3,0c0.3,0.1,0.2,0.2,0.1,0.4c0.2,0,0.4,0.1,0.5,0l0.2,0.2
						c-0.1-0.2,0.2,0,0.3,0l-0.1,0c0,0.1,0.2,0.1,0.4,0.1c0-0.1-0.2-0.2-0.3-0.3c0.1,0,0.3,0,0.4,0c-0.1,0.1,0.3,0.2,0.4,0.3
						c0.2,0.1,0.2,0,0.3,0c0,0.1,0.3,0.1,0.1,0.2c-0.1,0-0.1-0.1-0.2-0.1c0.1,0.1,0,0.2,0.3,0.2c0.2,0,0.1-0.3,0.3,0
						c-0.1,0-0.1,0-0.2,0.1l0.3,0.2l0.1-0.1c0,0,0,0,0,0.1c0.1-0.1,0.5,0.2,0.6,0.1c0.2,0.1,0.3,0.2,0.4,0.3l0,0
						c0.1,0.1,0.4,0.2,0.6,0.2l0,0c0.1,0.1,0.3,0.2,0.5,0.2c0.2,0.2-0.1,0.4,0.2,0.4c0.2,0.1,0.5,0,0.4-0.1c0.4,0.3,1,0.4,1.2,0.8
						c0.1,0,0.1-0.1,0.2,0c0.6,0.4,1.3,0.7,1.7,1.3c-0.2-0.1-0.1,0.1-0.1,0.1c0.2,0,0.1,0.2,0.3,0.1c0.1-0.1,0.1-0.1,0-0.3
						c0.4,0.2,0.9,0.7,1,0.9c-0.1-0.1,0-0.1,0.1,0c-0.1,0.1,0.1,0.3,0.3,0.4l0.1-0.1l0,0.2c0.1,0,0.2-0.1,0.3,0.1c0,0,0,0.1,0,0.1
						c0.2,0.1,0.6,0.2,0.7,0.5l0.1,0.3c0.1,0.1,0.3,0.1,0.2,0c0.3,0.4,0.4,0.6,0.4,0.8c0.8,0.3,1.5,1.2,2.1,2l-0.1,0
						c0.1,0.3,0.2,0,0.2,0.2c-0.1,0,0,0.2-0.2,0.1c0.1,0.3,0.4,0.3,0.5,0.5c0.1,0-0.2-0.1,0-0.2c0.1,0,0.2,0.5,0.4,0.4
						c0,0.1-0.1,0.1-0.2,0.1c0.1,0,0.1,0.1,0.2,0.2c0,0.3-0.6-0.4-0.6,0l0.1,0.2c0,0.2-0.4-0.3-0.2,0.1c0.2,0.1,0.4,0.2,0.4,0
						c0.2,0.4,0.4,0,0.6,0.4c0,0.2-0.2-0.3-0.3-0.2c0,0.3,0.3,0.4,0.3,0.6c-0.1-0.2,0.2-0.1,0.3,0c0,0.3-0.2-0.1-0.1,0.2
						c0.1,0,0.3,0.3,0.2,0c0.2,0,0.1,0.4,0.3,0.5c-0.1,0.2-0.4-0.2-0.4,0.2c0.1-0.1,0.4,0.4,0.5,0.1c0,0.2-0.1,0.2-0.2,0.1
						c0,0.2,0.4,0.4,0.2,0.6l0.2,0c0,0.1,0,0.2-0.1,0.3c0.1,0.2,0.4,0.6,0.1,0.6c0,0.1,0.1,0.5,0.2,0.3c0-0.3-0.2-0.3,0-0.5
						c-0.1,0.2,0.1,0.4,0.2,0.5l-0.1,0c0.1,0.1,0.1,0.3,0.2,0.4c-0.1-0.1-0.1,0-0.1,0.1l0.1,0.1c0.1,0.4-0.2,0.1-0.1,0.5l-0.1-0.3
						c0,0.1-0.1,0.2,0,0.4c0.1,0.1,0.3,0.2,0.4,0.2c0.1,0.2-0.1,0.1,0,0.3l-0.2-0.3c0,0-0.2,0.2-0.2,0.5c0,0.2,0.2,0.5,0.3,0.2
						c0,0.1-0.1,0.4-0.2,0.2c0,0.3,0.1,0,0.2,0.2c-0.1,0.1-0.2,0.5-0.3,0.7l-0.2-0.3l0,0.2c-0.1-0.3-0.1,0.1-0.3,0
						c0,0.1,0,0.3,0,0.4c0.3-0.4,0.3,0.5,0.5,0.4c0,0.5-0.6,0.2-0.4,0.8c0.1-0.1,0.2,0.2,0.2-0.1c-0.1,0.3,0.2,0.3,0,0.6
						c0-0.3-0.3,0.2-0.3-0.2c0.1,0,0.1-0.2,0.1-0.3c-0.1,0.1-0.2-0.1-0.3,0.2c0,0.2-0.1,0.5,0,0.5c0.1,0,0.1-0.3,0.2-0.1
						c-0.1,0.4-0.3,0.4-0.1,0.6c0.1-0.3,0.2-0.3,0.3-0.2l0,0.3l-0.1-0.1c-0.2,0.4,0.1,0.2-0.1,0.6l-0.2,0.1
						c-0.1-0.2,0.3-0.6,0.1-0.6c-0.1,0.3,0,0.4-0.2,0.7c0-0.1,0-0.2,0-0.2c-0.1,0.1-0.4,0.1-0.4,0.5c0,0.2,0.1,0.1,0.1,0.1
						c-0.2,0.4-0.2,0.6-0.3,0.9c-0.1-0.1-0.3,0.5-0.3,0.1c0.2-0.1,0.5-0.7,0.4-0.9c-0.3,0.1,0.2-0.3,0-0.5c-0.2,0.3-0.3,0.2-0.5,0.2
						c-0.1,0.1,0,0.2-0.1,0.3c0.1,0.1,0.2,0,0.3,0c-0.2,0.4-0.4,0.8-0.4,1c-0.1,0.1-0.2,0-0.1-0.2c-0.2,0.5-0.5,0.9-0.8,1.3
						c0.4-0.1-0.3,0.5,0,0.4c0.2-0.2,0.4-0.3,0.4-0.1c-0.1,0.1-0.1-0.1-0.1,0c0,0.2-0.3,0.1-0.3,0.4c0.2-0.4-0.2-0.2-0.2-0.4
						c-0.1,0.3-0.1-0.1-0.3,0.2c-0.1,0.3-0.3,0.7-0.5,1c-0.4,0.2-0.8,0.9-1.1,1.1c-0.2,0.1-0.2-0.1-0.4,0c-0.2,0.2,0.3,0-0.1,0.2
						l0-0.1c-0.1,0.1-0.6,0.4-0.5,0.7l0-0.2c-0.1,0-0.1,0.1-0.1,0.2c0,0-0.1,0-0.1-0.1c-0.3,0.1-0.4,0.3-0.6,0.5l0.2,0
						c-0.3,0.4-0.6,0.5-0.9,0.8l-0.1-0.1l-0.2,0.2c0-0.1-0.3,0-0.3,0.1l0.4-0.6c0.2-0.1-0.1,0.2,0.1,0.3c0.1,0,0.4-0.3,0.4-0.4
						c-0.1,0.1-0.1,0.1-0.2,0.2c-0.1-0.1,0-0.2,0.1-0.4c-0.1,0.1-0.2,0.1-0.2,0.1c0.1-0.2,0.2-0.3,0.4-0.4c-0.1,0.2,0.1,0,0.1,0.1
						c-0.1-0.1,0.1-0.3,0.4-0.5c0.3,0,0.4-0.5,0.7-0.7c0,0.2-0.1,0.4-0.2,0.6c0.2-0.1,0.2-0.2,0.4-0.3c0-0.2,0-0.3,0.1-0.6l0.1,0.1
						c0.2-0.2,0-0.3,0.3-0.6c0.5-0.4,0.9-0.9,1.2-1.2l0.1,0.1c0-0.3,0.4-0.7,0.6-1.1c0.4-0.4,0.6-1.1,0.9-1.3c0.4-1,0.7-1.8,1-2.8
						c0,0.1,0.1,0.1,0.1,0.2c-0.1-0.2,0.1-0.1,0.1-0.3c-0.2,0.2-0.1-0.3-0.2-0.4c0.2-0.4,0.1-1.1,0.1-1.5l0.1,0
						c-0.2-0.4,0-0.9,0-1.4c0-0.1,0.1-0.2,0.1-0.3c-0.2-0.3-0.2-0.4-0.4-0.8c0-0.3-0.2-0.8-0.2-1.1c-0.6-1-0.9-2.1-1.7-3l0.1-0.1
						c-0.8-0.8-1.6-2-2.4-2.7l0.2-0.1c-0.2-0.3-0.5-0.5-0.6-0.3c-0.2-0.3-0.6-0.5-0.7-0.7c-0.2-0.2-0.3-0.2-0.6-0.4
						c-0.4-0.5-0.6-0.6-1.1-1l0.1,0.1c0.1,0,0.1-0.1,0-0.2c-0.2-0.1-0.6-0.6-0.6-0.2c-0.4-0.5-1.3-0.8-1.7-1.3c0,0.1-0.1,0-0.2,0
						c-0.5-0.3-0.9-0.7-1.4-0.8c-0.1-0.1,0.2,0,0-0.2c-0.1,0,0,0.1-0.2,0c-0.9-0.3-1.6-1-2.4-1.2c-1.4-0.4-2.8-0.9-4.2-1.1l0,0
						c-0.5,0.1-1.1-0.3-1.4,0c-0.1-0.1-0.4,0-0.3-0.1c-0.4,0.1-1-0.1-1.5,0.1c0,0,0.1,0,0.1,0c-0.3,0-0.5,0-0.8,0.1
						c-0.2,0.1-0.5,0.1-0.8,0.2c0,0,0.1-0.1,0.1-0.1c-0.2,0-0.4,0.4-0.6,0.2c-0.1,0,0,0.1,0,0.1c-1.2,0.3-2.3,1.1-3.2,2
						c-0.8,0.5-0.3-0.3-0.7,0.3c-0.1,0,0,0.1,0,0.1c-0.1,0.3-0.5,0.1-0.5,0.4c0.2,0,0,0.2,0,0.2c-0.5,0.3-0.6,0.4-0.8,0.8l0-0.1
						c-0.2,0.5-0.6,1-0.6,1.5c-0.4,0.6-0.7,1.3-1,1.9l-0.4,1l-0.1,0.2l-0.1,0.3c-0.1,0.1-0.1,0.3-0.2,0.4c-0.4,1.2-0.4,2.6-0.1,3.9
						c0.2,1.3,0.7,2.5,1.4,3.7c0.3,0.6,0.8,1.1,1.2,1.7c0.5,0.5,0.9,1.1,1.4,1.6c0.3,0.6,0.4,0.7,1,1.1c0,0-0.1,0-0.1,0
						c0.1-0.1,0.4,0.3,0.6,0.3c0.4,0.4,0.8,0.7,1.2,1l0.3,0.2c0,0,0.2,0.2,0.2,0.2l0.1,0.1c0.2,0.2,0.4,0.3,0.6,0.5
						c-0.1-0.1-0.3,0-0.1,0.1l0.2,0.1l0,0.1c0.1,0.1,0.3,0.1,0.2,0c2.2,1.6,4.3,3.4,6.8,4.2c0.3,0.1,0.6,0.2,1,0.3
						c0.4,0.1,0.8,0.1,1.1,0.2c1.9,0.6,3.8,0.5,5.5-0.7C72,53.1,72,53.6,71.3,54.1z"/>
					<path fill="#808181" d="M72.8,53.1c0.1,0,0.3-0.1,0.2,0.1C73,53.2,72.8,53.2,72.8,53.1z"/>
					<path fill="#808181" d="M78.2,49.2c0,0,0.1-0.1,0.1-0.1c0,0.1,0,0.2-0.1,0.2C78.3,49.3,78.2,49.3,78.2,49.2z"/>
					<path fill="#808181" d="M79.3,47.8c0.1,0.1-0.1,0.4-0.2,0.6L79.3,47.8z"/>
					<path fill="#808181" d="M80.3,46.5c0.1-0.1,0.1-0.1,0.1,0.1C80.4,46.6,80.4,46.5,80.3,46.5z"/>
					<path fill="#808181" d="M80.2,46.3c0.1-0.1,0.1-0.2,0.2-0.2C80.4,46,80.3,46.4,80.2,46.3z"/>
					<path fill="#808181" d="M81.5,42.8c0-0.1,0-0.3,0.1-0.4C81.5,42.5,81.6,42.9,81.5,42.8z"/>
					<path fill="#808181" d="M81.4,41.1c0-0.1,0-0.1,0-0.1C81.5,40.8,81.5,40.9,81.4,41.1L81.4,41.1z"/>
					<polygon fill="#808181" points="59.8,23.5 59.9,23.5 59.9,23.5 					"/>
					<path fill="#808181" d="M49.5,30.9c0,0.2-0.1,0.1-0.1,0.1C49.4,30.8,49.4,31.1,49.5,30.9z"/>
					<polygon fill="#808181" points="48,37.7 48,37.6 48.2,37.6 					"/>
				</g>
			</g>
		</g>
	</g>
</g>
<g>
	<g>
		<g>
			<g>
				<g>
					<path fill="#808181" d="M74.1,35.9C74.1,35.9,74.2,35.9,74.1,35.9L74.1,35.9L74.1,35.9z"/>
					<path fill="#808181" d="M74.1,35.7c0,0-0.1,0-0.1,0C74,35.7,74,35.7,74.1,35.7C74.1,35.7,74.1,35.8,74.1,35.7
						c0,0.1,0,0.1,0,0.1C74.2,35.8,74.1,35.7,74.1,35.7C74.1,35.7,74.1,35.7,74.1,35.7z"/>
					<path fill="#808181" d="M72.5,33.4L72.5,33.4C72.6,33.4,72.6,33.4,72.5,33.4z"/>
					<path fill="#808181" d="M71.4,32.1C71.4,32.1,71.4,32.1,71.4,32.1C71.4,32.1,71.4,32.1,71.4,32.1z"/>
					<path fill="#808181" d="M71.2,31.9L71.2,31.9C71.2,31.9,71.2,31.8,71.2,31.9z"/>
					<path fill="#808181" d="M72.5,33.4L72.5,33.4C72.5,33.3,72.5,33.3,72.5,33.4z"/>
					<path fill="#808181" d="M73.8,35.4C73.8,35.4,73.8,35.4,73.8,35.4L73.8,35.4L73.8,35.4z"/>
					<polygon fill="#808181" points="73.1,33.9 73.1,33.9 73.1,33.9 					"/>
					<path fill="#808181" d="M73.4,34.4C73.4,34.4,73.4,34.4,73.4,34.4C73.4,34.4,73.4,34.4,73.4,34.4
						C73.4,34.4,73.4,34.4,73.4,34.4z"/>
					<path fill="#808181" d="M73.9,35.2L73.9,35.2L73.9,35.2z"/>
					<path fill="#808181" d="M72.8,33.6C72.8,33.6,72.8,33.6,72.8,33.6L72.8,33.6z"/>
					<path fill="#808181" d="M57.9,28.7L57.9,28.7C57.9,28.7,57.9,28.7,57.9,28.7z"/>
					<polygon fill="#808181" points="57.2,28.5 57.2,28.5 57.2,28.5 					"/>
					<path fill="#808181" d="M70.8,31.4L70.8,31.4C70.8,31.4,70.8,31.4,70.8,31.4z"/>
					<path fill="#808181" d="M66.4,29.1C66.4,29.1,66.3,29.1,66.4,29.1C66.3,29.2,66.4,29.1,66.4,29.1z"/>
					<path fill="#808181" d="M73.8,35.4L73.8,35.4C73.8,35.4,73.8,35.4,73.8,35.4z"/>
					<polygon fill="#808181" points="66.3,29.2 66.3,29.2 66.3,29.2 					"/>
					<path fill="#808181" d="M69.7,30.7C69.7,30.7,69.7,30.8,69.7,30.7C69.7,30.8,69.7,30.7,69.7,30.7z"/>
					<path fill="#808181" d="M70.5,31.3L70.5,31.3C70.5,31.3,70.5,31.3,70.5,31.3z"/>
					<path fill="#808181" d="M69.3,30.5C69.3,30.5,69.3,30.5,69.3,30.5L69.3,30.5C69.3,30.5,69.3,30.5,69.3,30.5z"/>
					<path fill="#808181" d="M68.9,30.3C68.9,30.3,68.9,30.3,68.9,30.3L68.9,30.3L68.9,30.3z"/>
					<path fill="#808181" d="M59.4,28.5C59.4,28.5,59.4,28.5,59.4,28.5C59.4,28.5,59.3,28.5,59.4,28.5z"/>
					<path fill="#808181" d="M73.8,35.4C73.8,35.4,73.8,35.4,73.8,35.4C73.8,35.4,73.8,35.4,73.8,35.4
						C73.8,35.4,73.8,35.4,73.8,35.4z"/>
					<path fill="#808181" d="M69.1,30.8L69.1,30.8C69,30.8,69.1,30.8,69.1,30.8z"/>
					<path fill="#808181" d="M63,28.7L63,28.7C63,28.7,63,28.7,63,28.7z"/>
					<path fill="#808181" d="M68.8,30.7C68.8,30.7,68.8,30.7,68.8,30.7C68.8,30.6,68.8,30.7,68.8,30.7L68.8,30.7z"/>
					<path fill="#808181" d="M59.4,28.5L59.4,28.5L59.4,28.5z"/>
					<path fill="#808181" d="M58.9,28.6c0.1,0,0-0.1,0-0.1c0.1,0,0,0,0.1,0.1c0.1,0,0.1-0.1,0.1-0.1c0,0,0,0,0,0
						c0.1-0.1,0.2,0,0.2-0.1c0,0,0,0,0,0c0,0,0-0.1,0-0.1c0,0,0.1,0,0.1,0c0,0,0,0,0,0l0,0c0,0.1,0,0,0,0.1c0.1,0,0.1-0.1,0.2-0.1
						c0,0.1-0.1,0-0.1,0.1l-0.1,0c0.1,0.1,0,0,0,0.1c0.1,0,0.1,0,0.2,0c0,0,0,0,0-0.1c0.2-0.1,0.1,0.1,0.2,0.1c0,0,0-0.1,0.1-0.1
						l0,0.1c0.1,0,0.1-0.1,0.2,0c0,0-0.1,0-0.1,0c0.1,0.1,0.1,0,0.1,0l0,0.1c0.1,0,0.2,0,0.4-0.1c0,0,0,0,0,0.1c0.2,0,0.3,0,0.5,0.1
						l0.1-0.1c0,0,0,0,0,0c0.1,0,0,0,0-0.1c0,0,0,0,0,0c0.1,0,0.3-0.1,0.4,0l0,0c0.1,0,0.1-0.1,0.2,0l0,0c0.2,0,0.4,0,0.5,0.1
						c0-0.1,0.2,0.1,0.2,0c0.1,0.1,0.1,0.1,0.2,0.1c0,0,0.1-0.1,0.1-0.1l0,0.1l0.1,0l0,0.1l0,0c0,0,0,0,0,0c0.1,0,0.2,0.1,0.2,0.1
						l0.2,0c0,0,0,0-0.1,0c0.1,0,0,0.1,0.1,0c0,0,0,0,0,0c0,0,0.1,0.1,0.2,0l0,0c0.1,0,0.3,0,0.4,0.1c0,0,0-0.1,0-0.1l0,0.1
						c0,0,0,0,0-0.1c0,0,0,0.1,0,0.1l0.1,0c0,0,0,0,0,0c0,0,0.1,0.1,0.1,0l0,0c0.1,0,0.2,0,0.3,0c0,0,0.1,0,0.1-0.1
						c0.1,0,0.2,0.1,0.3,0.1c0.1,0,0,0,0.1-0.1c0,0,0.1,0.1,0,0.1c0.1,0,0.2,0,0.3,0c0,0,0,0,0,0c0,0,0.1,0,0,0.1l0,0
						c0.2,0,0.3,0.2,0.5,0.2l0,0l0.2,0c0.1,0,0,0,0,0.1c0.2,0,0.2,0.1,0.4,0.1c0.1,0.1,0.3,0.1,0.4,0.2l0,0c0,0,0,0,0.1,0
						c0,0,0,0,0,0c0.3,0.1,0.5,0.3,0.8,0.4c0.1,0,0.1-0.1,0.2,0l-0.1,0c0.2,0,0.4,0.2,0.6,0.2c0,0,0,0,0,0c0,0.1,0.1,0.1,0.2,0.1
						c0,0,0,0,0,0.1c0,0,0.1,0,0.1,0.1c0,0,0,0,0,0c0,0,0.1,0.1,0.1,0c0.1,0.1,0.1,0.1,0.2,0.1c0.1,0,0.1,0.1,0.2,0
						c0,0.1,0.1,0.1,0.2,0.1c0,0,0,0,0,0.1c0.1,0,0.1,0,0.1,0c0,0.1,0.2,0.1,0.2,0.2c0.2,0.1,0.3,0.1,0.4,0.2c0,0.1-0.1-0.1-0.2,0
						c0.1,0.1,0.2,0,0.4,0.1c0,0,0,0-0.1,0c0.1,0.1,0.2,0.2,0.4,0.2c0,0,0,0,0,0c0,0,0,0,0.1,0l0,0c0-0.1,0.2,0,0.2,0
						c-0.1,0.1,0.1,0.1,0,0.2c0,0,0,0,0.1,0c0,0,0,0,0,0c0.1,0,0.1,0,0.1,0c0,0,0,0,0,0c0.1,0,0.1,0,0.1,0.1c0,0,0,0,0,0
						c0.1,0.1,0.2,0.1,0.3,0.2c-0.1,0,0,0,0,0.1l0.1,0l0,0c0,0,0.1,0,0.1,0.1l-0.1,0l0.1,0.1l0-0.1c0.1,0,0.1-0.1,0.1,0
						c0,0,0,0,0,0.1h0c0,0,0.1,0,0.1,0.1c0,0-0.1,0-0.1,0.1c0.1,0,0.1,0.1,0.2,0.1c0,0,0,0,0,0l0.1,0c0,0,0,0,0,0.1
						c0.1,0.1,0-0.1,0.1,0c0,0,0,0,0,0c0.1,0.1,0.2,0.1,0.2,0.2c0,0.1-0.1,0-0.1,0c0.1,0.1,0.2,0.2,0.3,0.3l0,0c0.1,0,0,0.1,0.1,0.1
						c0,0-0.1,0,0,0c0,0.1,0.1,0.1,0.3,0.2l0,0c0,0.1,0.1,0.1,0.1,0.2c0,0,0,0,0.1,0c0,0.2,0.3,0.2,0.3,0.4c0,0,0,0,0,0l0.1,0.1
						c0,0,0,0,0-0.1c0,0,0.1,0,0.1,0c-0.1,0-0.1,0-0.1,0.1c0,0,0,0,0,0c0,0.1,0.1,0,0.1,0.1l0,0c0,0,0.1,0,0.1,0.1c0,0,0,0-0.1,0
						c0,0,0.1,0,0.1,0.1c0,0,0,0-0.1-0.1c0,0.1,0,0.1,0,0.1l0,0l0,0.1l0,0c0.1,0,0.1,0.1,0.2,0.1c-0.1,0,0,0-0.1,0c0,0,0,0.1,0,0.1
						c0.1,0,0,0.1,0.1,0.1c0,0,0,0,0,0.1c0,0,0,0,0,0c0.1,0,0.1,0.2,0.2,0.3c0.1,0.1,0.1,0.1,0.2,0.1c0,0-0.1,0-0.1,0
						c0,0.1,0,0.1,0.1,0.1c0,0,0,0,0,0c0,0,0.1,0,0.1,0c0,0-0.1,0-0.1,0c0,0,0.1,0.1,0.1,0.1c0,0-0.1,0-0.1,0c0,0,0.1,0.1,0.2,0.1
						l0,0c0,0,0,0,0,0c-0.1,0,0-0.1,0-0.1l0,0c0.1-0.1-0.1-0.1-0.1-0.2l0.1,0l-0.1,0c0,0,0-0.1,0.1,0c0-0.1,0,0,0-0.1c0,0,0,0,0,0
						l0,0c0,0,0,0,0,0c0-0.1-0.1-0.1-0.1-0.2l0,0c-0.1-0.1-0.1,0-0.2,0l0.1-0.1l-0.1,0c0,0,0,0,0,0c-0.1,0,0,0-0.1,0
						c0-0.1-0.1-0.1-0.1-0.2c0,0,0,0.1-0.1,0c0.1-0.1-0.1-0.1-0.1-0.1c0,0,0.1,0,0.1,0c-0.1,0,0-0.1-0.1-0.1c-0.1,0-0.1-0.1-0.1-0.1
						c0,0-0.1-0.2-0.1-0.2l0,0c-0.1,0-0.1,0-0.2-0.1c0,0,0.1,0,0.1,0l0,0c0,0,0,0-0.1,0l0,0c0-0.1-0.1-0.1-0.2-0.2
						c0,0,0,0.1-0.1,0.1c0,0,0,0,0.1,0c0,0,0,0,0,0l0.1,0c0,0,0,0-0.1,0c0,0,0,0,0,0c0,0,0,0,0,0c0,0,0-0.1,0-0.1c0,0,0,0-0.1,0
						c0-0.1,0,0,0-0.1c0,0,0,0-0.1,0c0,0,0,0,0-0.1c0,0-0.1-0.1-0.1-0.1l0,0l0,0l0,0l0,0c-0.1-0.1-0.1-0.2-0.2-0.3l0,0
						c-0.1,0-0.1-0.1-0.2-0.1c0,0,0-0.1,0-0.1c0,0-0.1,0-0.1-0.1c0.1,0,0,0,0.1,0c0-0.1,0-0.1-0.1-0.1c0.1,0,0-0.1,0-0.1l0,0.1
						c0,0-0.1,0-0.1-0.1l0.1,0c-0.1-0.2-0.3-0.1-0.3-0.3c-0.1,0,0,0.1,0,0.1c0-0.1,0-0.2-0.1-0.2c0-0.1-0.1,0-0.2-0.1
						c0,0,0,0.1-0.1,0c0-0.1,0-0.1,0-0.1c0,0,0,0,0,0c0,0,0,0,0,0l0,0c0,0-0.1-0.1,0-0.1c-0.1,0,0,0,0,0c0-0.1-0.1-0.1-0.2-0.2
						c0,0,0,0,0,0c-0.1-0.1-0.1,0-0.1-0.1c0-0.1,0.1,0,0-0.1c0-0.1,0-0.1,0.1,0c-0.1,0-0.1-0.1-0.1-0.2l0,0c0,0,0,0-0.1,0l0,0
						c0,0,0,0,0-0.1c0,0,0,0.1-0.1,0.1c0,0-0.1-0.1-0.1-0.1c0.1,0.1,0-0.1,0.1,0c0,0,0,0,0,0c0,0,0,0,0,0c-0.1-0.1-0.1,0-0.2,0
						c0,0,0-0.1,0-0.1c0,0,0,0.1-0.1,0c0-0.1-0.1,0-0.1-0.1l0,0c0,0-0.1,0-0.1,0c0,0,0,0,0,0c-0.1,0-0.1-0.1-0.1-0.1c0,0,0,0,0-0.1
						c-0.1,0,0-0.1-0.1-0.1c0,0,0,0-0.1,0l0.1,0.1l-0.1,0c0,0,0.1,0,0.1,0.1c-0.1,0,0,0,0,0c0-0.1-0.1,0-0.1-0.1l0.1-0.1
						c-0.1-0.1-0.2-0.1-0.3-0.2l0,0c0,0-0.1,0-0.1-0.1c0,0,0-0.1,0-0.1c0,0-0.1-0.1-0.1,0l0-0.1c-0.1-0.1-0.2,0-0.2-0.1
						c0,0,0-0.1,0.1,0c0,0,0,0-0.1,0c0,0-0.1,0-0.1,0c0,0,0,0-0.1,0c0,0,0,0,0,0c0,0-0.1,0-0.1,0c0-0.1-0.3-0.1-0.3-0.3
						c-0.1,0-0.2-0.1-0.2-0.1c0,0,0,0,0,0c-0.1-0.1-0.1,0.1-0.2,0c0-0.1,0.1,0,0,0c0-0.1-0.1,0-0.2-0.1l0,0c0-0.1-0.1,0-0.2-0.1
						c0,0,0,0,0,0c-0.1,0-0.2,0-0.3,0c0,0,0,0,0-0.1c0,0,0,0.1-0.1,0.1c0,0-0.1-0.1,0-0.1l0.1,0c0-0.1-0.1,0-0.1-0.1l0,0
						c-0.1,0-0.1,0-0.2,0l0,0c-0.1,0,0-0.1-0.1,0l0-0.1c0,0-0.2,0-0.2,0c0.1,0,0.2,0,0.2,0c0,0-0.1-0.1-0.2,0c0,0,0,0,0.1,0
						c-0.1,0-0.1,0-0.2,0c0.1-0.1-0.2-0.1-0.2-0.2c-0.2,0-0.3-0.1-0.4-0.2c0,0.1,0,0-0.1,0.1c0,0-0.1,0-0.1,0l-0.1-0.1c0,0,0,0,0,0
						c-0.1,0,0-0.1-0.1-0.1c0,0,0,0-0.1,0l0.1,0.1c-0.1,0-0.1-0.1-0.2-0.1l0,0c-0.1,0-0.2-0.1-0.3,0c0,0,0,0,0,0
						c-0.1-0.1-0.4,0-0.5-0.1l0,0c0,0-0.1,0-0.1,0c0,0,0,0,0,0c0,0-0.1,0-0.1,0l0,0c-0.1-0.1-0.2,0-0.4,0c0-0.1-0.1-0.1-0.1-0.2l0,0
						c-0.2,0-0.3,0-0.5,0c-0.1-0.1-0.3-0.1-0.5-0.2c0,0,0,0.1,0,0.1c0,0-0.1,0-0.1,0l0,0c0-0.1-0.1-0.1-0.2-0.1l0,0.1
						c-0.1-0.2-0.4,0-0.5-0.1c0,0-0.1,0-0.1,0l0,0c-0.1,0-0.2,0-0.3,0l0,0c-0.1,0-0.1,0.1-0.2,0.1l0-0.1c-0.1,0-0.3-0.1-0.4,0
						c0,0,0,0,0,0c-0.1,0-0.2-0.1-0.2,0c0-0.1-0.1,0-0.2,0l0,0c-0.1,0.1-0.1,0.1-0.1,0.1c0,0,0,0,0,0c-0.1,0-0.1,0-0.1,0l0,0
						c-0.1,0-0.1,0-0.1,0c0,0-0.1,0-0.1-0.1c0,0,0,0.1-0.1,0c0,0,0,0,0,0c-0.1,0-0.2,0.1-0.2,0c0,0,0,0,0,0c0.1,0,0.2,0,0.2,0
						c0,0-0.1-0.1,0-0.1c-0.1,0-0.2,0.1-0.2,0.1c0,0,0,0,0,0l0,0c0,0,0,0,0,0c0,0,0,0-0.1,0c0,0-0.1,0-0.1,0c0,0,0,0,0,0.1
						c0,0,0,0,0,0c0,0,0,0,0,0l0,0c0,0,0.1,0,0.1,0c0,0-0.1,0-0.1,0c0,0,0,0.1-0.1,0.1c0-0.1-0.1-0.1-0.2-0.2c-0.1,0-0.3,0-0.3,0.1
						c0,0,0,0,0,0c0,0,0,0,0,0c-0.1,0-0.2,0-0.2,0.1c-0.1,0,0-0.1-0.1,0l0,0c-0.2-0.1-0.3,0.2-0.6,0c0,0,0,0,0,0
						c-0.3,0-0.5,0.1-0.8,0c-0.1,0-0.1,0-0.1,0.1l0-0.1l-0.1,0.1c-0.1,0.1-0.2-0.1-0.3,0l0,0c-0.1,0-0.2,0-0.2,0c0,0,0,0,0,0l0,0
						l-0.1,0.1c-0.1,0,0-0.1-0.1-0.1c-0.1,0-0.1,0.1-0.1,0.1c0,0,0.1,0,0.1,0l0,0c0,0.1,0,0.2,0.1,0.2l0.1-0.1l0,0l-0.1,0
						c0,0,0.1,0,0.1,0c0,0,0,0,0,0l0.1-0.1c0,0,0,0.1,0,0.1c0,0,0-0.1,0-0.1c0,0,0,0.1,0.1,0c0,0,0,0,0,0c0,0,0.1,0,0.1-0.1
						c0,0,0.1,0,0.1,0.1c0,0,0.1-0.1,0.1-0.1c-0.1,0.1,0.1,0,0.1,0.1c0-0.1,0.2-0.1,0.3-0.1c0,0,0,0,0,0c0.1,0,0.1,0,0.1,0
						c0-0.1,0.1-0.1,0.1-0.1c0.1,0.1,0,0.1,0,0.1c0-0.1,0.1-0.1,0.1-0.1c0,0,0,0,0.1,0.1c0-0.1,0,0,0.1-0.1
						C58.9,28.6,58.8,28.6,58.9,28.6C59,28.6,58.9,28.6,58.9,28.6z M60.6,28.4L60.6,28.4C60.6,28.4,60.6,28.4,60.6,28.4
						C60.6,28.4,60.6,28.4,60.6,28.4z M60.8,28.4C60.8,28.4,60.8,28.4,60.8,28.4C60.7,28.4,60.7,28.4,60.8,28.4
						C60.7,28.4,60.8,28.4,60.8,28.4z M60.5,28.1C60.5,28.1,60.5,28.1,60.5,28.1C60.5,28.1,60.5,28.1,60.5,28.1L60.5,28.1
						C60.5,28.1,60.5,28.1,60.5,28.1z"/>
					<polygon fill="#808181" points="60.4,28.2 60.4,28.2 60.4,28.2 60.5,28.2 					"/>
					<polygon fill="#808181" points="72.6,33.4 72.6,33.4 72.6,33.4 					"/>
					<polygon fill="#808181" points="62.8,28.7 62.8,28.7 62.8,28.7 					"/>
					<path fill="#808181" d="M73,34.1C73,34.1,73,34.1,73,34.1C73,34.1,73,34.1,73,34.1z"/>
					<path fill="#808181" d="M73.2,34.4L73.2,34.4C73.2,34.4,73.2,34.4,73.2,34.4z"/>
					<polygon fill="#808181" points="73.3,34.6 73.3,34.6 73.3,34.6 					"/>
					<path fill="#808181" d="M70.3,31.6C70.3,31.6,70.3,31.6,70.3,31.6C70.3,31.6,70.3,31.6,70.3,31.6z"/>
					<path fill="#808181" d="M71.3,32.3C71.3,32.3,71.3,32.3,71.3,32.3C71.3,32.3,71.3,32.4,71.3,32.3z"/>
					<polygon fill="#808181" points="69.1,30.9 69.1,30.9 69.1,30.8 					"/>
					<path fill="#808181" d="M71.3,32.3C71.3,32.3,71.3,32.3,71.3,32.3C71.3,32.3,71.3,32.3,71.3,32.3z"/>
					<polygon fill="#808181" points="73.9,35.6 73.9,35.6 73.9,35.6 					"/>
					<path fill="#808181" d="M73.9,35.6L73.9,35.6C73.9,35.6,73.9,35.6,73.9,35.6z"/>
					<path fill="#808181" d="M74,35.7L74,35.7C73.9,35.7,73.9,35.7,74,35.7z"/>
					<path fill="#808181" d="M73.7,35.3L73.7,35.3C73.7,35.3,73.7,35.3,73.7,35.3z"/>
					<path fill="#808181" d="M73.7,35.2C73.7,35.3,73.7,35.3,73.7,35.2L73.7,35.2C73.7,35.3,73.7,35.2,73.7,35.2z"/>
					<path fill="#808181" d="M73.6,34.7L73.6,34.7C73.7,34.8,73.7,34.8,73.6,34.7C73.7,34.7,73.7,34.8,73.6,34.7z"/>
					<path fill="#808181" d="M73.5,34.5C73.5,34.5,73.5,34.5,73.5,34.5C73.5,34.4,73.5,34.4,73.5,34.5z"/>
					<path fill="#808181" d="M72.2,32.9L72.2,32.9C72.2,32.8,72.2,32.8,72.2,32.9z"/>
					<polygon fill="#808181" points="71.7,32.7 71.7,32.8 71.8,32.8 					"/>
					<polygon fill="#808181" points="71.8,32.4 71.8,32.4 71.7,32.3 					"/>
					<path fill="#808181" d="M69,30.3L69,30.3C69,30.3,69,30.3,69,30.3z"/>
					<path fill="#808181" d="M67.6,29.7C67.6,29.6,67.6,29.6,67.6,29.7C67.5,29.6,67.6,29.7,67.6,29.7z"/>
					<polygon fill="#808181" points="63.3,28.3 63.3,28.3 63.2,28.3 					"/>
				</g>
			</g>
		</g>
	</g>
</g>
<g>
	<g>
		<g>
			<g>
				<g>
					<path fill="#808181" d="M55.8,70.7c-0.1,0.3,0.2-0.1,0,0.2C55.7,70.9,55.7,70.8,55.8,70.7z"/>
					<path fill="#808181" d="M55.3,72c0,0.3-0.1,0.6-0.3,0.9c-0.2,0.3-0.4,0.6-0.6,0.8c-0.5,0.5-1,0.9-1.4,1.4
						c-0.1,0.1-0.1-0.2-0.3,0c-0.8,1-2.7,1.7-4.2,1.8l0.1-0.1c-0.3,0-0.6,0.3-0.9,0.4c0,0,0.1-0.1,0-0.1c0,0.1-0.5,0.2-0.6,0.3
						c-0.1,0-0.1-0.1-0.3-0.1l-0.1,0.2c-0.4,0.4-1.1,0.2-1.8,0.4c0,0,0.1-0.1,0-0.1c-1,0.3-2.3,0.4-3.5,0.4c0-0.1,0.1-0.1,0-0.2
						c-0.1,0.2-0.4,0.2-0.7,0.2c-0.1-0.2-0.6,0.1-0.9,0l0,0c-0.3,0.2-0.4-0.1-0.6,0.1l-0.2-0.1c-0.1,0.2-0.4-0.1-0.6,0l0,0
						c-0.2,0.1-0.3-0.1-0.5,0l0,0c-0.5,0.1-0.7-0.1-0.7,0.1c-0.2-0.1,0.4,0,0.2-0.2c-1.5,0.1-3.1-0.1-4.5-0.5
						c-0.2-0.1-0.3-0.2-0.3-0.2c-0.2,0-0.6-0.1-0.7-0.1c0,0-0.1-0.1-0.1-0.2c-0.2-0.2-0.3,0.1-0.6-0.1c0.1,0,0.2,0,0.2-0.1
						c-0.3,0-0.6-0.1-0.9-0.2c0.1,0,0.1,0,0.1,0c-0.4,0-0.5-0.3-0.8-0.4l0.1,0c-0.4-0.3-0.2,0.1-0.6-0.1c0.1,0,0.1,0,0.1-0.1
						c-0.4,0-0.9-0.4-1.3-0.6c0,0,0,0,0,0c-0.3-0.2-0.6-0.6-1-0.8c-0.1-0.2,0.2-0.1-0.1-0.4c-0.1,0.1-0.6-0.5-0.6-0.1
						c-0.2-0.3-0.5-0.8-0.7-1c0.2,0.1,0.1-0.3,0.3,0l0-0.3c0.1,0,0.1,0.2,0.1,0.1c-0.1-0.1-0.4-0.5-0.4-0.6
						c-0.2-0.2-0.6-0.3-0.8-0.8c0.2,0.2,0.2-0.2,0.2-0.1c-0.2-0.2-0.4-0.3-0.6-0.5c-0.1-0.1,0.1-0.1,0-0.3c0,0-0.1-0.1-0.2-0.1
						c0-0.1-0.2-0.6-0.1-0.7c0.1-0.1,0.1,0.2,0.1,0c-0.1-0.3-0.1-0.3-0.2-0.5l0,0c0-0.2-0.2-0.5-0.3-0.3c0,0.1,0.1-0.1,0.1,0.1
						c-0.1-0.1-0.2-0.4-0.3-0.7c0.1,0.1,0.1,0.1,0.2,0.1c-0.2-0.3-0.4-0.7-0.5-1.2c-0.1,0,0.2,0.1,0.2,0.2c0-0.6-0.3-1.1-0.2-1.6
						c0,0.1-0.1,0.1-0.1,0c0-0.3,0.1-0.3,0.1-0.4c0.1,0,0-0.2-0.1-0.4c-0.1-0.1,0,0,0.1,0.1c0-0.1-0.1-0.4-0.1-0.8
						c0-0.4,0-0.8,0.1-1.1c-0.1,0-0.2-0.4-0.1-0.5l0.1,0.1c0.1-0.1,0.1-0.5,0.2-0.5c-0.1-0.3-0.1,1.1-0.1,0.7c0.1-0.1-0.1-0.6,0-0.5
						c0-0.3-0.1-0.6,0.1-0.8c0,0.1,0.1,0.3,0.2,0c0.1-0.4,0-0.1,0-0.4l0-0.2c-0.1,0,0.1-0.3-0.1-0.2c0.1,0,0.1-0.6,0.3-0.5l0.1,0.1
						c0-0.2-0.1-0.3-0.1-0.5c0,0,0.1,0,0.1,0c-0.2-0.1,0.2-0.4,0.1-0.6c0.2-0.3,0.4-0.8,0.6-0.9c0.1-0.3,0.2-0.5,0.4-0.8
						c0,0.1-0.1,0.1,0,0.2c0.2-0.1,0.1-0.2,0.2-0.4c0,0.1,0.4-0.2,0.6-0.3c0.1-0.3,0-0.3-0.1-0.3c0.3,0,0.4-0.7,0.8-0.8
						c0,0.1-0.2,0.4,0,0.2c0.3,0,0.2-0.5,0.6-0.7l-0.2-0.1c0.2,0,0.4-0.5,0.5-0.3c0.1-0.1,0.4-0.2,0.3-0.4c0.6-0.3,1.3-1,1.8-0.9
						c0.1-0.1,0.3-0.2,0.2-0.2c-0.2,0-0.2,0.2-0.2,0.1c0.1,0,0.1-0.1,0.1-0.1c0.2-0.1,0.3-0.1,0.3,0.1c0.4-0.1,0.3-0.5,0.8-0.7
						c0,0.1,0.1,0.1,0.2,0c0.1-0.1,0.2-0.2,0.2-0.3c0.4-0.1,0.3,0.1,0.3,0.2c0.2-0.1,0.4-0.2,0.4-0.3l0.3,0.1
						c-0.2-0.1,0.1-0.1,0.2-0.2l-0.1,0.1c0.1,0,0.3-0.1,0.4-0.1c-0.1-0.1-0.3,0-0.4,0c0.1-0.1,0.2-0.1,0.3-0.2c0,0.1,0.3,0,0.5-0.1
						c0.2,0,0.2-0.2,0.2-0.2c0,0.1,0.3-0.1,0.2,0.1c-0.1,0-0.2,0-0.2,0.1c0.1,0,0.1,0.1,0.4,0c0.2-0.1-0.1-0.2,0.2-0.3
						c-0.1,0.1-0.1,0.1-0.1,0.2l0.3,0l0-0.1c0.1,0,0,0,0,0c0.1-0.1,0.5-0.2,0.5-0.3c0.2-0.1,0.4,0,0.5,0l0,0c0.2,0,0.4-0.1,0.6-0.2
						l0,0c0.1,0,0.3-0.1,0.5-0.2c0.3,0,0.2,0.4,0.4,0.2c0.3-0.1,0.4-0.3,0.3-0.3c0.5,0,1-0.3,1.5-0.2c0.1-0.1,0-0.1,0.2-0.1
						c0.7,0,1.5-0.3,2.1-0.1c-0.2,0.1,0,0.1,0,0.2c0.2-0.1,0.2,0.1,0.3-0.1c0-0.1,0-0.2-0.2-0.2c0.4-0.1,1.1,0,1.3,0.1
						c-0.1-0.1,0-0.1,0.1-0.1c0,0.2,0.3,0.2,0.5,0.1l0-0.1l0.1,0.1c0.1,0,0.1-0.2,0.3-0.1c0,0,0,0.1,0.1,0.1
						c0.2-0.1,0.6-0.2,0.9-0.1l0.2,0.2c0.1,0,0.3-0.1,0.1-0.1c0.4,0.1,0.7,0.2,0.9,0.3c0.8-0.2,2,0,2.9,0.2l0,0.1
						c0.2,0.1,0.2-0.1,0.3,0c-0.1,0,0.1,0.2-0.1,0.2c0.3,0.2,0.5,0,0.7,0c0.1-0.1-0.2,0-0.1-0.1c0.1,0,0.4,0.2,0.6,0.1
						c0.1,0.1,0,0.2-0.1,0.2c0.1,0,0.2,0,0.2,0c0.2,0.3-0.7,0.1-0.5,0.4l0.2,0c0.1,0.2-0.5,0-0.1,0.2c0.2,0,0.5-0.1,0.3-0.3
						c0.4,0.1,0.3-0.3,0.8-0.1c0.1,0.1-0.4-0.1-0.3,0c0.2,0.2,0.5,0.1,0.6,0.2c-0.2-0.1,0.1-0.2,0.2-0.2c0.2,0.2-0.2,0.1,0.1,0.2
						c0.1-0.1,0.4,0,0.2-0.1c0.2-0.1,0.3,0.2,0.6,0.2c0,0.2-0.5,0.1-0.2,0.4c0-0.2,0.5,0.1,0.4-0.2c0.1,0.1,0.1,0.2-0.1,0.2
						c0.2,0.2,0.6,0.1,0.5,0.3l0.1-0.1c0,0.1,0.1,0.2,0.2,0.3c0.2,0.1,0.6,0.2,0.5,0.4c0.1,0,0.4,0.3,0.4,0.1
						c-0.2-0.2-0.3-0.1-0.3-0.4c0.1,0.3,0.3,0.2,0.5,0.3l0,0.1c0.1,0,0.3,0.2,0.4,0.2c-0.1,0-0.1,0.1,0,0.1l0.2,0
						c0.3,0.2-0.1,0.2,0.2,0.5L54,54.8c0.1,0,0.1,0.2,0.2,0.3c0.1,0,0.3,0,0.4,0c0.2,0.1,0,0.2,0.2,0.2l-0.3-0.1
						c-0.1,0,0,0.3,0.2,0.5c0.1,0.1,0.5,0.2,0.3,0c0.1,0.1,0.2,0.3,0,0.3c0.2,0.2,0.1-0.1,0.3,0.1c0,0.1,0.2,0.5,0.2,0.7l-0.3-0.1
						l0.1,0.2c-0.3-0.1,0,0.2-0.2,0.1c0,0.1,0.2,0.2,0.3,0.3c0-0.5,0.5,0.2,0.7,0c0.3,0.4-0.3,0.6,0.3,0.9c0-0.1,0.3,0,0.1-0.2
						c0.1,0.3,0.3,0.1,0.4,0.5c-0.2-0.2-0.1,0.4-0.4,0.1c0.1,0,0-0.2-0.1-0.3c0,0.2-0.2,0.1-0.1,0.4c0.1,0.2,0.2,0.4,0.3,0.3
						c0.1-0.1-0.1-0.3,0-0.2c0.2,0.4,0,0.5,0.3,0.6c-0.1-0.2,0-0.3,0.1-0.4l0.2,0.3L57,59c0.1,0.5,0.2,0.1,0.3,0.5l-0.1,0.3
						c-0.2-0.1-0.2-0.7-0.4-0.5c0.1,0.3,0.2,0.3,0.3,0.6c0-0.1-0.1-0.1-0.1-0.2c0,0.1-0.2,0.3,0,0.7c0.1,0.2,0.1,0,0.2,0
						c0.1,0.5,0.3,0.6,0.3,0.9c-0.2,0,0.1,0.5-0.2,0.2c0.1-0.2-0.1-0.9-0.3-1c-0.2,0.2-0.1-0.4-0.3-0.4c0.1,0.4-0.1,0.4-0.2,0.5
						c0,0.1,0.1,0.2,0.1,0.2c0.1,0,0.1-0.1,0.2-0.2c0.1,0.4,0.2,0.8,0.4,1c0,0.2-0.2,0.1-0.2,0c0.1,0.5,0.2,1,0.2,1.5
						c0.2-0.3,0.1,0.5,0.2,0.3c0-0.3,0.2-0.5,0.3-0.4c0,0.2-0.1,0-0.1,0.1c0.1,0.2-0.2,0.3,0,0.5c-0.1-0.5-0.3-0.1-0.4-0.2
						c0.1,0.3-0.1,0-0.1,0.3c0.1,0.3,0.2,0.7,0.2,1.1c-0.2,0.5-0.1,1.2-0.1,1.6c-0.1,0.2-0.3,0-0.3,0.3c0,0.3,0.2-0.2,0.1,0.2l0,0
						c0,0.1-0.2,0.7,0,0.9l-0.2-0.2c0,0.1,0,0.1,0,0.2c-0.1,0-0.1,0.1-0.2-0.1c-0.2,0.2-0.1,0.5-0.1,0.8l0.1-0.1
						c0,0.5-0.2,0.7-0.2,1.2l-0.1,0l0,0.3c-0.1-0.1-0.2,0.1-0.2,0.3l-0.1-0.7c0.1-0.2,0.1,0.2,0.2,0.1c0.1-0.1,0.2-0.5,0.1-0.6
						c0,0.1,0,0.2,0,0.3c-0.2,0-0.1-0.2-0.2-0.3c0,0.1-0.1,0.2,0,0.2c0-0.2,0-0.3,0-0.6c0,0.2,0.1-0.1,0.2,0c-0.1,0-0.1-0.3,0-0.6
						c0.2-0.2,0-0.6,0.1-1c0.1,0.2,0.2,0.4,0.2,0.6c0.1-0.2,0-0.3,0.1-0.5c-0.1-0.1-0.3-0.2-0.3-0.5l0.1,0c0-0.3-0.2-0.3-0.1-0.6
						c0.1-0.6,0.1-1.2,0.1-1.7l0.1,0c-0.2-0.3-0.1-0.9-0.3-1.2c0-0.6-0.3-1.2-0.1-1.6c-0.3-1-0.6-1.8-1-2.8c0.1,0,0.1,0.1,0.2,0.1
						c-0.2-0.1,0-0.2-0.1-0.3c0,0.2-0.3-0.2-0.4-0.2c-0.1-0.5-0.6-0.9-0.9-1.2l0.1-0.1c-0.4-0.2-0.6-0.7-0.9-1.1
						c0-0.1,0-0.2-0.1-0.3c-0.3-0.1-0.4-0.2-0.8-0.3c-0.2-0.2-0.6-0.5-0.8-0.7c-1.1-0.4-2.1-1-3.3-1.2l0-0.1
						c-1.2-0.1-2.5-0.6-3.5-0.6l0.1-0.2c-0.3-0.1-0.7,0-0.7,0.1c-0.3-0.1-0.8,0-1-0.1c-0.3-0.1-0.4,0.1-0.7,0.1
						c-0.6-0.1-0.9-0.1-1.5,0l0.2,0c0.1,0,0.1-0.1-0.1-0.2c-0.2,0-0.8-0.1-0.6,0.2c-0.6-0.1-1.5,0.2-2.1,0.1
						c0.1,0.1-0.1,0.1-0.2,0.2c-0.6,0.1-1.2,0-1.6,0.2c-0.1,0,0.1-0.1-0.1-0.1c-0.1,0.1,0,0.1-0.1,0.2c-0.9,0.3-1.8,0.3-2.6,0.6
						c-1.4,0.6-2.8,1.1-3.9,1.8l0-0.1c-0.3,0.4-1,0.4-1.1,0.9c-0.1,0-0.3,0.2-0.3,0.1c-0.2,0.3-0.9,0.6-1.1,1.1c0,0,0-0.1,0.1-0.1
						c-0.2,0.1-0.4,0.3-0.5,0.5c-0.1,0.2-0.3,0.4-0.5,0.6c0-0.1,0.1-0.2,0-0.2c-0.2,0.1-0.1,0.5-0.4,0.5c-0.1,0.1,0.1,0.1,0.1,0.1
						c-0.7,1-1,2.3-1.2,3.5c-0.3,0.9-0.4,0-0.3,0.7c-0.1,0.1,0.1,0.1,0,0.1c0.1,0.3-0.3,0.4-0.2,0.6c0.2-0.1,0.1,0.1,0.2,0.1
						c-0.1,0.6-0.2,0.7-0.1,1.1l-0.1,0c0.2,0.5,0.2,1.1,0.5,1.5c0.1,0.7,0.3,1.4,0.5,2.1l0.3,1l0.1,0.3l0.1,0.3
						c0,0.1,0.1,0.3,0.2,0.4c0.5,1.2,1.3,2.2,2.4,3.1c1,0.8,2.2,1.5,3.5,1.9c0.6,0.2,1.3,0.4,2,0.6c0.7,0.1,1.4,0.3,2.1,0.4
						c0.6,0.3,0.7,0.3,1.4,0.2c0,0-0.1,0,0,0.1c0-0.2,0.5,0,0.6-0.2c0.5,0,1,0,1.6,0l0.4,0c0,0,0.3,0,0.3,0l0.2,0c0.3,0,0.5,0,0.8,0
						c-0.2,0-0.3,0.2-0.1,0.1l0.2-0.1l0,0c0.1,0,0.3-0.1,0.2-0.2c2.7-0.1,5.5-0.1,8-1.1c0.3-0.1,0.6-0.2,1-0.4
						c0.3-0.2,0.7-0.4,0.9-0.6c1.8-0.8,3.3-2,3.8-4C55.3,70.8,55.6,71.2,55.3,72z"/>
					<path fill="#808181" d="M55.9,70.3c0.1,0,0.2-0.3,0.3-0.1C56.1,70.3,55.9,70.4,55.9,70.3z"/>
					<path fill="#808181" d="M57.6,63.8c0,0,0-0.1,0-0.1c0,0.1,0.1,0.2,0,0.2C57.7,63.9,57.6,63.9,57.6,63.8z"/>
					<path fill="#808181" d="M57.5,62.1c0.1,0,0.2,0.4,0.2,0.6L57.5,62.1z"/>
					<path fill="#808181" d="M57.4,60.4c0-0.2,0.1-0.1,0.1,0.1C57.5,60.5,57.5,60.4,57.4,60.4z"/>
					<path fill="#808181" d="M57.2,60.3c0-0.1,0-0.2,0-0.3C57.2,60,57.4,60.3,57.2,60.3z"/>
					<path fill="#808181" d="M56,56.8c-0.1-0.1-0.2-0.2-0.2-0.3C55.8,56.6,56.1,56.8,56,56.8z"/>
					<path fill="#808181" d="M54.8,55.5c0,0,0-0.1-0.1-0.1c0-0.1,0.1-0.1,0.1,0L54.8,55.5z"/>
					<polygon fill="#808181" points="26.9,55.8 27.1,55.7 27.1,55.7 					"/>
					<path fill="#808181" d="M23.7,68.1c0.1,0.2,0,0.1,0,0.2C23.6,68.1,23.8,68.3,23.7,68.1z"/>
					<polygon fill="#808181" points="26.9,74.2 26.9,74.2 27,74.1 					"/>
				</g>
			</g>
		</g>
	</g>
</g>
<g>
	<g>
		<g>
			<g>
				<g>
					<path fill="#808181" d="M45.9,56.2C45.9,56.2,45.9,56.2,45.9,56.2L45.9,56.2L45.9,56.2z"/>
					<path fill="#808181" d="M45.8,56c0,0-0.1,0.1-0.1,0.1C45.7,56.1,45.7,56.1,45.8,56C45.8,56.1,45.8,56.1,45.8,56
						c0.1,0.1,0.1,0.1,0.1,0.1C45.9,56.1,45.8,56.1,45.8,56C45.7,56.1,45.8,56.1,45.8,56z"/>
					<path fill="#808181" d="M43.1,55.3L43.1,55.3L43.1,55.3z"/>
					<path fill="#808181" d="M41.4,55.1C41.4,55.1,41.4,55,41.4,55.1C41.4,55,41.4,55,41.4,55.1z"/>
					<path fill="#808181" d="M41.1,55C41.1,55,41.1,55,41.1,55C41.1,55,41.1,55,41.1,55z"/>
					<path fill="#808181" d="M43.1,55.3L43.1,55.3C43,55.3,43.1,55.3,43.1,55.3z"/>
					<path fill="#808181" d="M45.4,56.1C45.4,56.1,45.4,56.1,45.4,56.1L45.4,56.1L45.4,56.1z"/>
					<polygon fill="#808181" points="43.8,55.3 43.9,55.3 43.9,55.3 					"/>
					<path fill="#808181" d="M44.4,55.5C44.4,55.5,44.4,55.5,44.4,55.5C44.4,55.5,44.4,55.5,44.4,55.5
						C44.4,55.5,44.4,55.5,44.4,55.5z"/>
					<path fill="#808181" d="M45.3,55.8L45.3,55.8L45.3,55.8z"/>
					<path fill="#808181" d="M43.4,55.3C43.4,55.3,43.4,55.2,43.4,55.3C43.4,55.3,43.4,55.3,43.4,55.3z"/>
					<path fill="#808181" d="M28.8,61L28.8,61C28.8,61,28.8,61,28.8,61z"/>
					<polygon fill="#808181" points="28.2,61.3 28.2,61.3 28.2,61.3 					"/>
					<path fill="#808181" d="M40.5,54.9L40.5,54.9C40.5,54.9,40.5,54.9,40.5,54.9z"/>
					<path fill="#808181" d="M35.6,55.9c0.1,0-0.1,0.1,0,0.1C35.6,56,35.7,55.9,35.6,55.9z"/>
					<path fill="#808181" d="M45.3,56.1L45.3,56.1C45.3,56.1,45.3,56.1,45.3,56.1z"/>
					<polygon fill="#808181" points="35.6,56 35.6,56 35.6,56 					"/>
					<path fill="#808181" d="M39.2,55L39.2,55C39.3,55,39.3,55,39.2,55z"/>
					<path fill="#808181" d="M40.2,55L40.2,55C40.2,55,40.2,55,40.2,55z"/>
					<path fill="#808181" d="M38.8,55.1C38.8,55.1,38.8,55.1,38.8,55.1L38.8,55.1C38.7,55.1,38.8,55.1,38.8,55.1z"/>
					<path fill="#808181" d="M38.3,55.2C38.3,55.2,38.3,55.3,38.3,55.2L38.3,55.2L38.3,55.2z"/>
					<path fill="#808181" d="M29.9,59.9C29.9,59.9,29.9,59.9,29.9,59.9C29.9,59.9,29.8,60,29.9,59.9z"/>
					<path fill="#808181" d="M45.4,56C45.4,56.1,45.3,56.1,45.4,56C45.3,56.1,45.4,56.1,45.4,56C45.4,56.1,45.4,56,45.4,56z"/>
					<path fill="#808181" d="M38.8,55.5L38.8,55.5C38.8,55.5,38.8,55.5,38.8,55.5z"/>
					<path fill="#808181" d="M32.8,57.8L32.8,57.8C32.7,57.8,32.8,57.8,32.8,57.8z"/>
					<path fill="#808181" d="M38.5,55.6C38.5,55.6,38.5,55.6,38.5,55.6L38.5,55.6L38.5,55.6z"/>
					<path fill="#808181" d="M29.9,59.9L29.9,59.9L29.9,59.9z"/>
					<path fill="#808181" d="M29.5,60.3c0.1-0.1,0-0.1,0-0.1C29.6,60.1,29.6,60.2,29.5,60.3c0.1-0.2,0.1-0.2,0.1-0.3c0,0,0,0,0,0
						c0-0.1,0.1-0.1,0.1-0.2c0,0,0,0,0,0c0,0-0.1,0-0.1-0.1c0,0,0-0.1,0.1,0c0,0,0,0,0,0l0,0c0.1,0,0,0,0,0.1c0-0.1,0.1-0.2,0.1-0.2
						c0,0-0.1,0.1,0,0.1l-0.1,0c0.1,0,0,0,0.1,0.1c0.1-0.1,0.1-0.1,0.2-0.2c0,0,0,0,0-0.1c0.1-0.1,0.2,0,0.2-0.1c0,0,0-0.1,0-0.1
						l0,0.1c0.1-0.1,0-0.1,0.1-0.1c0,0-0.1,0.1,0,0.1c0.1,0,0-0.1,0.1-0.1l0,0c0.1-0.1,0.1-0.2,0.2-0.3c0,0,0,0,0,0
						c0.1-0.1,0.3-0.2,0.4-0.3l0-0.1c0,0,0,0,0,0c0.1,0,0,0,0-0.1c0,0,0.1,0,0,0c0.1-0.1,0.2-0.2,0.3-0.3l0,0c0.1,0,0-0.1,0.1-0.1
						l0,0c0.2-0.1,0.3-0.2,0.5-0.3c0-0.1,0.2-0.1,0.1-0.2c0.1,0,0.1,0,0.2,0c0,0,0-0.1,0.1-0.1l0,0l0-0.1l0.1,0l0,0c0,0,0,0-0.1,0
						c0-0.1,0.2-0.1,0.2,0l0.1-0.1c0,0,0,0,0,0.1c0-0.1,0,0,0.1,0c0,0,0,0,0,0c0.1,0,0.1,0,0.2-0.1l0,0c0.1-0.1,0.2-0.1,0.3-0.2
						c-0.1,0-0.1-0.1,0-0.1l0,0c0,0,0,0,0-0.1c0,0,0.1,0,0,0.1l0,0c0,0,0,0,0,0c0,0,0.1,0,0.1-0.1l0,0c0.1-0.1,0.2-0.1,0.3-0.2
						c0,0,0-0.1,0-0.1c0.1,0,0.2,0,0.3-0.1c0.1-0.1,0,0,0-0.1c0,0,0.1,0,0.1,0c0.1-0.1,0.1-0.1,0.3-0.2c0,0,0,0,0,0c0,0,0.1,0,0.1,0
						l0,0c0.1-0.1,0.4,0,0.5-0.2l0,0l0.1-0.1c0.1,0,0,0,0,0.1c0.1-0.1,0.2-0.1,0.3-0.2c0.1,0.1,0.3-0.1,0.5-0.1l0,0c0,0,0,0,0.1,0
						c0,0,0,0,0,0c0.3-0.1,0.6-0.1,0.9-0.2c0.1,0,0-0.2,0.2-0.1l0,0.1c0.2-0.1,0.4-0.1,0.6-0.2c0,0,0,0,0,0c0.1,0,0.2,0,0.2-0.1
						c0,0,0,0,0,0c0,0,0.1-0.1,0.1,0c0,0,0,0,0,0c0,0,0.1,0,0.1-0.1c0.1,0,0.1-0.1,0.2,0c0-0.1,0.1,0,0.1-0.1c0,0.1,0.1,0,0.2,0
						c0,0,0,0,0,0.1c0.1,0,0.1,0,0.1-0.1c0.1,0.1,0.2-0.1,0.3,0c0.2-0.1,0.3-0.1,0.5-0.1c0,0.1-0.2,0-0.2,0.1c0.1,0,0.2-0.1,0.4-0.1
						c0,0,0,0,0,0.1c0.1,0,0.3,0,0.4-0.1c0,0,0,0,0,0c0,0,0.1,0,0.1,0l0,0c0,0,0.1-0.1,0.1-0.1c0,0.1,0.1,0,0.1,0.2c0,0,0,0,0-0.1
						c0,0,0,0,0,0c0.1,0,0.1-0.1,0.1-0.1c0,0,0,0,0,0c0,0,0.1-0.1,0.2,0c0,0,0,0,0,0c0.1,0,0.2-0.1,0.3,0c0,0.1,0,0,0.1,0.1l0.1,0
						l0,0c0.1,0,0.1,0,0.2,0l0,0l0.1,0l-0.1,0c0.1,0,0-0.1,0.1-0.1c0,0,0.1,0,0.1,0l0,0c0,0,0.1,0,0.1,0c0,0,0,0.1,0,0.1
						c0-0.1,0.1,0,0.2-0.1c0,0,0,0,0,0.1l0,0c0,0,0,0,0,0c0.1,0,0-0.1,0.1,0c0,0,0,0,0,0c0.1,0,0.2,0,0.3,0c0,0.1-0.1,0-0.1,0.1
						c0.1,0,0.3,0,0.4,0l0,0c0-0.1,0.1,0.1,0.2,0c0,0,0,0,0,0c0.1,0,0.2,0,0.3,0l0,0c0,0,0.1,0,0.2,0.1c0,0,0.1,0,0,0
						c0.2,0.2,0.4,0,0.5,0.1c0,0,0,0,0,0l0.1,0c0,0,0,0,0-0.1c0,0,0.1,0,0.1,0c-0.1,0,0,0.1,0,0.1c0,0,0,0,0,0c0.1,0.1,0-0.1,0.1,0
						l0,0c0,0,0.1,0,0.1,0c0,0.1,0,0-0.1,0c0.1,0,0.1-0.1,0.2,0c0,0-0.1,0-0.1,0c0,0.1,0,0.1,0.1,0.1l0,0l0.1,0.1l0,0
						c0.1-0.1,0.1,0,0.2,0c-0.1,0,0,0,0,0.1c0,0,0,0,0,0.1c0.1,0,0.1,0.1,0.1,0c0,0,0,0,0,0.1c0.1,0,0,0,0-0.1
						c0.1,0,0.2,0.1,0.3,0.1c0.1,0,0.2,0,0.3,0c0,0,0,0.1,0,0.1c0,0,0.1,0,0.1,0c0,0,0,0,0,0c0,0,0-0.1,0.1,0c0,0,0,0-0.1,0.1
						c0.1,0,0.1,0,0.2,0c0,0,0,0-0.1,0c0.1,0,0.1,0,0.2,0l0,0c0,0,0,0,0,0c-0.1,0-0.1,0-0.1-0.1l0,0c0-0.1-0.1,0-0.2-0.1l0.1-0.1
						l-0.1,0c0,0,0-0.1,0-0.1c0,0-0.1,0-0.1,0c0,0,0,0,0,0l-0.1,0c0,0,0-0.1,0,0c-0.1-0.1-0.2,0-0.2-0.1l0,0c-0.1,0,0,0-0.1,0.1
						l0-0.1l0,0c0,0,0,0,0,0c-0.1,0,0,0,0,0c0-0.1-0.2,0-0.2-0.1c0,0,0,0,0,0.1c0-0.1-0.1,0-0.1-0.1c0,0,0.1,0,0-0.1
						c-0.1,0.1-0.1-0.1-0.2-0.1c0,0.1-0.1,0-0.2,0c0,0-0.1-0.1-0.2-0.1l0,0c0,0.1-0.1,0-0.2,0c0,0,0-0.1,0.1-0.1l-0.1,0
						c0,0,0,0-0.1,0l0,0c-0.1,0-0.2,0-0.2,0c0,0,0,0.1-0.1,0.1c0,0,0-0.1,0-0.1c0,0,0,0,0,0l0,0c0,0,0,0-0.1,0c0,0,0,0,0-0.1
						c0,0,0,0,0,0c0,0-0.1,0-0.1-0.1c0,0,0,0,0,0c-0.1,0,0,0-0.1-0.1c0,0-0.1,0-0.1,0c0,0,0,0,0,0c0,0-0.2,0-0.1,0l0,0l0,0l0,0l0,0
						c-0.1,0-0.2-0.1-0.4-0.1l0,0c-0.1,0-0.2,0-0.2,0c0,0,0,0,0-0.1c-0.1,0-0.1,0-0.1,0c0.1,0,0,0,0.1,0c-0.1,0-0.1-0.1-0.2,0
						c0,0,0-0.1-0.1,0l0,0c0,0-0.1,0-0.1,0l0-0.1c-0.1-0.1-0.3,0.1-0.4,0c0,0,0.1,0,0,0.1c-0.1,0-0.1-0.1-0.2-0.1
						c-0.1,0-0.1,0.1-0.2,0.1c0,0,0,0.1-0.1,0.1c-0.1,0-0.1-0.1,0-0.1c0,0,0,0,0,0c0,0,0.1,0,0,0l0,0c0,0-0.1,0-0.1-0.1
						c-0.1,0,0,0,0,0c-0.1,0-0.1,0-0.2,0c0,0,0,0,0,0c-0.1,0-0.1,0-0.1,0c-0.1,0,0-0.1-0.1-0.1c-0.1,0,0-0.1,0-0.1
						c-0.1,0-0.2,0-0.2,0l0,0c0,0,0,0-0.1,0l0,0c0,0,0,0,0,0c0,0,0,0.1,0,0.1c0,0-0.1,0-0.1,0c0.1,0,0-0.1,0.1-0.1c0,0,0,0-0.1,0
						c0,0,0,0,0,0c-0.1,0,0,0.1-0.2,0.1c0,0,0-0.1,0,0c0,0,0,0.1,0,0.1c-0.1,0-0.1,0-0.1,0l0,0c0,0,0,0-0.1,0c0,0,0,0,0,0
						c0,0.1-0.1,0-0.2,0c0,0,0-0.1,0-0.1c-0.1,0-0.1,0-0.2,0c0,0,0,0,0,0.1l0.1,0l-0.1,0.1c0,0,0.1,0,0.1,0c0,0,0,0,0,0.1
						c-0.1-0.1-0.1,0-0.2,0l0-0.1c-0.1,0-0.2,0.1-0.3,0.1l0,0c0,0-0.1,0-0.1,0c0,0,0,0,0-0.1c0,0-0.1,0-0.1,0.1l-0.1,0
						c-0.1,0-0.1,0.1-0.2,0.1c0,0,0-0.1,0-0.1c0,0-0.1,0-0.1,0c0,0-0.1,0.1-0.1,0c0,0,0,0.1,0,0.1c0,0,0,0,0,0c0,0-0.1,0,0,0.1
						c-0.1-0.1-0.3,0.1-0.4,0c-0.1,0-0.2,0.1-0.2,0.1c0,0,0,0,0,0c-0.1,0,0,0.1-0.1,0.1c-0.1,0,0,0,0-0.1c0-0.1-0.1,0-0.2,0l0,0
						c-0.1,0-0.1,0.1-0.2,0.1c0,0,0,0,0,0c0,0.1-0.2,0.1-0.2,0.1c0,0,0,0,0-0.1c0,0,0,0.1,0,0.1c0,0-0.1,0-0.1-0.1l0.1,0
						c-0.1,0-0.1,0-0.1,0l0,0c-0.1,0-0.1,0.1-0.2,0.1l0,0c0,0.1-0.1,0-0.1,0l0-0.1c0,0-0.1,0.1-0.2,0.1c0-0.1,0.1-0.1,0.1-0.2
						c0,0-0.1,0-0.1,0.1c0,0,0,0,0,0c0,0.1-0.1,0.1-0.2,0.1c0-0.1-0.2,0-0.3,0c-0.1,0.1-0.3,0.1-0.5,0.1c0.1,0.1,0,0,0,0.1
						c0,0,0,0-0.1,0l-0.1,0c0,0,0,0,0-0.1c-0.1,0-0.1,0-0.1,0c0,0,0,0.1-0.1,0.1l0.1,0c-0.1,0.1-0.1,0-0.2,0.1l0,0
						c-0.1,0-0.2,0.1-0.2,0.2c0,0,0,0,0,0c-0.1,0-0.3,0.2-0.4,0.2l0,0c0,0,0,0.1-0.1,0.1c0,0,0,0,0,0c0,0-0.1,0.1-0.1,0.1l0,0
						c-0.1,0-0.2,0.2-0.3,0.2c0-0.1-0.2,0-0.2,0l0,0c-0.2,0.1-0.2,0.2-0.4,0.3c-0.1,0-0.3,0.1-0.5,0.2c0,0,0,0.1,0,0.1
						c0,0-0.1,0.1-0.1,0l0,0c-0.1,0-0.1,0-0.2,0l0,0.1c-0.2,0-0.3,0.3-0.5,0.2c0,0-0.1,0.1-0.1,0.1l0,0c-0.1,0-0.1,0.1-0.3,0.1l0,0
						c-0.1,0,0,0.2-0.1,0.2l-0.1-0.1c-0.1,0.1-0.2,0.1-0.3,0.2c0,0,0,0,0,0c-0.1,0-0.2,0.1-0.1,0.2c0-0.1-0.1,0.1-0.2,0.1l0,0
						c0,0.1,0,0.1-0.1,0.2c0,0,0,0,0,0c-0.1,0,0,0.1-0.1,0.1l0,0c-0.1,0,0,0-0.1,0.1c0,0-0.1,0.1-0.1,0c0,0,0,0.1,0,0.1c0,0,0,0,0,0
						c-0.1,0-0.1,0.1-0.2,0.2c0,0,0,0,0,0c0.1-0.1,0.1-0.1,0.1-0.1c0,0-0.1,0-0.1-0.1c0,0.1-0.1,0.2-0.1,0.2c0,0,0,0,0,0l0,0
						c0,0,0,0,0,0c0,0,0,0-0.1,0c0,0-0.1,0-0.1,0.1c0,0,0,0.1,0.1,0.1c0,0,0,0,0,0c0,0,0,0,0,0l0,0c0,0,0,0,0.1-0.1
						c0,0,0,0.1-0.1,0.1c0,0,0,0.1,0,0.1c-0.1,0-0.2,0-0.2,0c-0.1,0.1-0.2,0.2-0.2,0.3c0,0,0,0-0.1,0c0,0,0,0,0,0
						c0,0.1-0.1,0.1-0.1,0.2c-0.1,0,0-0.1-0.1,0l0,0c-0.2,0.1-0.1,0.3-0.4,0.4c0,0,0,0,0,0c-0.2,0.1-0.4,0.4-0.6,0.5
						c-0.1,0,0,0.1-0.1,0.1l0,0l0,0.1c0,0.1-0.2,0-0.3,0.2l0,0c0,0-0.1,0.1-0.1,0.1c0,0,0,0,0,0l0,0l0,0.1c-0.1,0.1-0.1-0.1-0.2,0
						c0,0,0,0.2,0,0.2c0,0,0,0,0.1,0l0,0c0.1,0.1,0.1,0.1,0.2,0.1l0-0.1l0,0l0,0.1c0.1,0,0,0,0-0.1c0,0,0,0,0.1,0l0-0.1
						c0,0,0,0.1,0.1,0c0-0.1-0.1,0-0.1-0.1c0.1,0,0.1,0,0.1,0c0,0,0,0,0,0c0,0,0.1-0.1,0-0.1c0.1,0,0.1-0.1,0.1,0c0,0,0-0.1,0-0.1
						c0,0.1,0.1-0.1,0.2,0c0-0.1,0.1-0.2,0.1-0.2c0,0,0,0,0,0c0,0,0.1,0,0.1,0c0-0.1,0-0.1,0-0.2c0.1,0,0,0.1,0.1,0.1
						c0,0,0-0.1,0-0.1c0.1,0,0,0,0.1,0c-0.1-0.1,0,0,0-0.1C29.5,60.3,29.5,60.3,29.5,60.3C29.6,60.3,29.5,60.3,29.5,60.3z
						 M30.8,59.1L30.8,59.1C30.8,59.1,30.8,59.1,30.8,59.1C30.8,59.1,30.8,59.1,30.8,59.1z M30.9,59C30.9,59,30.9,59,30.9,59
						C30.8,59,30.8,59,30.9,59C30.8,59,30.9,59,30.9,59z M30.4,58.9C30.5,58.9,30.5,58.9,30.4,58.9C30.5,58.9,30.5,58.9,30.4,58.9
						L30.4,58.9C30.4,58.9,30.4,58.9,30.4,58.9z"/>
					<polygon fill="#808181" points="30.4,59 30.4,59 30.5,59 30.5,59 					"/>
					<polygon fill="#808181" points="43.1,55.3 43.1,55.3 43.1,55.3 					"/>
					<polygon fill="#808181" points="32.6,57.9 32.6,57.9 32.6,57.9 					"/>
					<path fill="#808181" d="M43.9,55.6C43.9,55.6,43.9,55.6,43.9,55.6C43.9,55.6,43.9,55.6,43.9,55.6z"/>
					<path fill="#808181" d="M44.2,55.7L44.2,55.7C44.2,55.7,44.2,55.7,44.2,55.7z"/>
					<polygon fill="#808181" points="44.5,55.8 44.5,55.8 44.5,55.8 					"/>
					<path fill="#808181" d="M40.2,55.3C40.2,55.3,40.2,55.3,40.2,55.3C40.2,55.4,40.2,55.4,40.2,55.3z"/>
					<path fill="#808181" d="M41.5,55.2C41.5,55.3,41.5,55.3,41.5,55.2C41.5,55.3,41.5,55.3,41.5,55.2z"/>
					<polygon fill="#808181" points="38.8,55.5 38.8,55.5 38.8,55.5 					"/>
					<path fill="#808181" d="M41.4,55.3C41.4,55.3,41.4,55.3,41.4,55.3C41.4,55.3,41.4,55.3,41.4,55.3z"/>
					<polygon fill="#808181" points="45.6,56.1 45.6,56.2 45.6,56.1 					"/>
					<path fill="#808181" d="M45.6,56.1L45.6,56.1C45.6,56.1,45.6,56.1,45.6,56.1z"/>
					<path fill="#808181" d="M45.6,56.1L45.6,56.1C45.6,56.1,45.6,56.2,45.6,56.1z"/>
					<path fill="#808181" d="M45.2,56L45.2,56C45.2,56,45.2,56,45.2,56z"/>
					<path fill="#808181" d="M45.1,56C45.2,56,45.2,56,45.1,56L45.1,56C45.2,56.1,45.2,56,45.1,56z"/>
					<path fill="#808181" d="M44.8,55.6L44.8,55.6c0.1,0,0.1,0,0.1,0C44.8,55.5,44.9,55.7,44.8,55.6z"/>
					<path fill="#808181" d="M44.5,55.5C44.6,55.5,44.5,55.5,44.5,55.5C44.5,55.5,44.5,55.5,44.5,55.5z"/>
					<path fill="#808181" d="M42.5,55.1L42.5,55.1C42.4,55.1,42.5,55.1,42.5,55.1z"/>
					<polygon fill="#808181" points="42.1,55.3 42.1,55.3 42.1,55.3 					"/>
					<polygon fill="#808181" points="41.8,55 41.9,55 41.8,55 					"/>
					<path fill="#808181" d="M38.4,55.2L38.4,55.2C38.4,55.2,38.4,55.2,38.4,55.2z"/>
					<path fill="#808181" d="M36.9,55.6C36.9,55.6,36.8,55.5,36.9,55.6C36.8,55.6,36.9,55.6,36.9,55.6z"/>
					<polygon fill="#808181" points="32.7,57.3 32.7,57.3 32.7,57.3 					"/>
				</g>
			</g>
		</g>
	</g>
</g>
</svg>
