<?xml version="1.0" encoding="utf-8"?>
<!-- Generator: Adobe Illustrator 23.1.0, SVG Export Plug-In . SVG Version: 6.00 Build 0)  -->
<svg version="1.1" id="Capa_1" xmlns="http://www.w3.org/2000/svg" xmlns:xlink="http://www.w3.org/1999/xlink" x="0px" y="0px"
	 viewBox="0 0 89.2 89.2" enable-background="new 0 0 89.2 89.2" xml:space="preserve">
<g>
	<path fill="#F8E8A1" d="M71.5,55.4c1.3-11.6-5.6-23.8-17.2-27.1c0-0.1-0.1-0.2-0.2-0.2c-10.6-3.1-21.9,0.8-28.8,9.1
		c-0.9,1-1.7,2.1-2.4,3.3c-0.1,0-0.2,0.1-0.1,0.2c-0.3,0.4-0.5,0.8-0.7,1.2c-0.1,0-0.1,0.1-0.1,0.1c-1.7,3.1-2.9,6.5-3.3,10.1
		c-0.2,1.5-0.1,2.9,0,4.2c-0.1,0.1,0,0.2,0,0.3c0.5,3.6,2,7,4.2,10.1c3.2,4.7,7.2,8.6,12.5,10.7c0.6,0.2,1.2,0.4,1.8,0.6
		c0,0.1,0.3,0.2,0.4,0.1c4.2,1.3,8.7,1.5,12.9,0.8c5.6-1,10.3-3.4,14-7.7C68.2,66.9,70.8,61.3,71.5,55.4z"/>
</g>
<g>
	<g>
		<g>
			<g>
				<g>
					<g>
						<path fill="#808181" d="M61.3,61.4c-0.1-0.1-0.2,0-0.1,0.3l0.2,0.2L61.3,61.4z"/>
						<path fill="#808181" d="M61,63.4c0.1,0.3,0.2,0.8,0.4,0.5c-0.2-0.4-0.1-0.4-0.3-0.8c0-0.3,0.1-0.5,0.1-0.5
							c-0.1-0.1,0-0.5-0.1-0.6c-0.1,0.4-0.1,0.9,0,1.4C61.1,63.6,61.1,63.5,61,63.4z"/>
						<path fill="#808181" d="M37.7,69.2l0.2,0C37.8,69.2,37.8,69.2,37.7,69.2z"/>
						<path fill="#808181" d="M27.4,58.5c0.1,0.1,0.2,0.1,0.2,0.1C27.5,58.6,27.4,58.5,27.4,58.5z"/>
						<path fill="#808181" d="M25.5,56.2c0,0.1,0.1,0.1,0.1,0.1C25.6,56.3,25.5,56.3,25.5,56.2z"/>
						<path fill="#808181" d="M37.7,69.2l-0.5-0.1C37.2,69.2,37.5,69.2,37.7,69.2z"/>
						<path fill="#808181" d="M60.7,67.6c0-0.1,0.1-0.2,0.1-0.3C60.8,67.4,60.7,67.4,60.7,67.6C60.7,67.5,60.7,67.5,60.7,67.6z"/>
						<path fill="#808181" d="M45,72.1L45,72.1c0.1,0,0.2,0,0.2,0C45.2,72.1,45.1,72.1,45,72.1z"/>
						<path fill="#808181" d="M50.2,69.8c-0.1,0.1-0.1,0.2-0.1,0.3c0-0.1,0.1-0.2,0.2-0.2C50.3,69.9,50.3,69.8,50.2,69.8z"/>
						<path fill="#808181" d="M59.5,68.4l0.1-0.1C59.5,68.3,59.5,68.4,59.5,68.4z"/>
						<path fill="#808181" d="M41.2,70.2C41.2,70.2,41.2,70.2,41.2,70.2C41.2,70.2,41.2,70.2,41.2,70.2z"/>
						<path fill="#808181" d="M66.5,57C66.5,57,66.5,57,66.5,57C66.5,57.1,66.5,57.1,66.5,57z"/>
						<path fill="#808181" d="M60.9,61.5l0-0.1c0,0-0.1,0-0.1-0.1C60.9,61.4,60.9,61.4,60.9,61.5z"/>
						<path fill="#808181" d="M21.9,51.9C22,51.9,22,51.9,21.9,51.9C22.1,52,22,52,21.9,51.9z"/>
						<path fill="#808181" d="M29.9,12.8c-0.6,0.1,0.7-0.6-0.1-0.3C29.9,12.5,29.2,13.1,29.9,12.8z"/>
						<path fill="#808181" d="M60.7,67.7c0,0.1-0.1,0.2-0.1,0.2C60.6,67.8,60.6,67.8,60.7,67.7z"/>
						<path fill="#808181" d="M29.8,12.5L29.8,12.5L29.8,12.5C29.7,12.5,29.8,12.5,29.8,12.5z"/>
						<path fill="#808181" d="M15,41.3c0,0,0,0.1,0,0.1C15,41.4,15,41.4,15,41.3z"/>
						<path fill="#808181" d="M19.6,49.6l-0.1-0.2C19.5,49.4,19.6,49.5,19.6,49.6z"/>
						<path fill="#808181" d="M13.3,36.6c0-0.1,0-0.2-0.1-0.3c0,0,0,0,0,0.1C13.2,36.4,13.3,36.5,13.3,36.6z"/>
						<path fill="#808181" d="M12.2,31.7C12.2,31.8,12.2,31.8,12.2,31.7c0,0.1,0,0.2,0,0.3C12.2,31.9,12.2,31.8,12.2,31.7z"/>
						<path fill="#808181" d="M76,44.2c-0.1,0.1-0.2,0.1-0.2,0.2C75.9,44.3,75.5,45,76,44.2z"/>
						<path fill="#808181" d="M60.7,67.5c0,0,0,0.1,0,0.2C60.7,67.6,60.7,67.6,60.7,67.5C60.7,67.5,60.7,67.5,60.7,67.5z"/>
						<path fill="#808181" d="M12,36.9c-0.1-0.3-0.2-0.5-0.3-0.8C11.8,36.3,11.9,36.6,12,36.9z"/>
						<path fill="#808181" d="M63.6,12.8l0.2,0.1C63.7,12.9,63.7,12.8,63.6,12.8z"/>
						<path fill="#808181" d="M11.1,33.6c0-0.2,0-0.3,0-0.5c0,0,0-0.1-0.1-0.1C11.1,33.2,11.1,33.4,11.1,33.6z"/>
						<path fill="#808181" d="M75.7,44.3L75.7,44.3L75.7,44.3z"/>
						<path fill="#808181" d="M73.2,49.3c0.5-0.7,0-0.4,0-0.6c0.5-0.8,0.4-0.3,0.7-0.5c0.3-0.5,0.4-1,0.6-1.4c0,0,0.1-0.1,0.1,0
							c0.2-0.6,0.9-1.6,1.1-2.4c0,0,0.1-0.1,0.1-0.1c-0.2,0.1-0.3,0-0.3,0c0.2-0.3,0.2-0.6,0.4-0.7c-0.1,0.2,0,0.2-0.1,0.4l0.1-0.4
							c0.3-0.2-0.1,0.5,0,0.6c0.3-0.7,0.5-1.5,0.7-2c0.2,0-0.5,1.2,0,0.6l-0.4,0.8c0.6-0.5-0.2,0.5,0.3,0.1c0.5-1,0.4-1.2,0.9-2.3
							c0-0.3-0.2,0-0.2-0.3c0.3-1.6,0.9-1.1,0.9-2.3c0-0.2-0.1-0.3-0.1-0.5c0-0.1,0-0.2,0-0.3c0,0,0-0.1,0-0.1c0,0,0,0,0-0.1
							c0-0.1,0.1-0.2,0.1-0.3c0,0.1,0.1,0.3,0.1,0.4c0.4-1.1-0.1-0.7,0.3-1.8c0.1,0.2-0.1,0.9,0,0.7c0.3-0.7,0-0.6,0.1-1.1l0.2-0.1
							c0.1-1.2,0-2.6-0.2-3.9c0.1,0.1,0.2,0.3,0.2,0c-0.3-1.7-0.7-3.5-1.4-5.1l-0.4-0.5c-0.1-0.1-0.1-0.3,0-0.2
							c-0.3-0.6-0.1,0-0.3-0.2c-0.2-0.3-0.2-0.5,0-0.3c-0.7-0.9-2.1-2.4-3-3.2l0.2,0.1c-0.1-0.1-0.2-0.2-0.3-0.2c-0.1,0-0.1,0-0.1,0
							c0,0-0.1,0-0.1-0.1c-0.1-0.1-0.1-0.1-0.2-0.2c-0.1-0.1-0.2-0.3-0.3-0.6l0.1,0.1c-0.3-0.9-0.9-1.9-1.6-2.6
							c-0.7-0.7-1.4-1.4-1.9-1.9c-0.4,0-1.7-1.1-1.9-0.8c-1-0.6-0.6-0.6-2.1-1.2c0,0,0,0,0,0c0,0,0,0-0.1,0c-0.1,0-0.1,0-0.2-0.1
							c-0.1-0.1-0.3-0.1-0.4-0.2l0.1-0.1c-0.2-0.1-0.4-0.2-0.6-0.4l-0.1-0.4l-0.4-0.4c0.1,0.2,0.2,0.4,0.2,0.4
							c-0.3-0.3-0.6-0.7-0.9-1c-0.3-0.3-0.5-0.5-0.5-0.6c-0.6-0.3-1.2-0.5-1.8-0.7c0.1-0.1,0.4,0,0.6,0.1c-1-0.2-0.1-0.3-1-0.4
							c0.1,0.1-0.1,0.1-0.1,0.1c-0.4-0.2-1.4-0.5-2.2-0.6l0.2-0.1C56.9,10,55.4,10,53.9,10c0.5,0,0.4,0.3,0,0.3l-0.2-0.2
							c-0.3,0.1,0.5,0-0.1,0.2c-0.6,0-0.4-0.2-0.1-0.3l-0.7,0.1c0-0.1,0.1-0.1,0.1-0.2c-0.3,0.1-1.2-0.1-1.6,0.2l0-0.1
							c0,0-0.1,0-0.1,0c0,0,0,0,0,0c-0.5-0.2-0.8-0.4-1.1-0.5c-0.4-0.2-0.9-0.4-1.4-0.6c-0.1,0.1-0.6,0-1,0c-0.9-0.2-1.9-0.4-3-0.4
							c-0.8,0.2-0.2,0.2-0.6,0.3c-0.1-0.2-1.2,0-0.6-0.2c-1.3,0.3-1.7,0.4-3.2,1.2c0.2,0,0.4-0.1,0.3,0c-0.3,0.1-0.6,0.2-0.6,0.2
							l0.1-0.1c-0.2,0.1-0.4,0.2-0.5,0.4c0,0-0.1,0-0.1,0l-0.3,0c-0.2,0-0.4-0.1-0.6-0.1c-0.4-0.1-0.9-0.2-1.3-0.3
							c-0.9-0.2-1.7-0.2-2.4-0.1l0.1,0c-0.5,0.1-1,0.2-1.5,0.3c-0.7,0.1,0.4-0.2-0.1-0.2c-1.6,0.6-2.6,0.7-3.8,1.5
							c-0.6,0.1-1.4,0.6-2.2,1.3c-0.8,0.7-1.5,1.5-2,2c0,0,0.1,0,0.1,0c0,0.1,0,0.1-0.1,0.1c0,0,0,0-0.1-0.1c0,0.1,0.1,0.1,0.1,0.1
							c0,0,0,0,0,0c0,0,0,0,0,0l-0.1,0l0,0l-0.1,0c-0.2,0-0.4,0-0.6,0.1c-0.4,0-0.8,0.1-1.2,0.2c-0.8,0.2-1.6,0.5-2.4,0.9
							c-1.6,0.8-2.8,2.3-3.5,3.8c-0.2,0.5-0.2,0.8-0.1,1c0,0.1,0,0.2,0,0.4c0,0.1,0,0.2,0,0.3c0,0,0,0.1-0.1,0.1c0,0,0,0-0.1,0
							c0,0,0-0.1,0-0.1c0,0-0.1-0.1-0.1-0.1l0,0c0,0,0,0,0,0.1l-0.3,0.3l-0.7,0.5c-0.5,0.4-0.9,0.7-1.4,1.1
							c-0.9,0.8-1.7,1.7-2.2,2.7c0-0.1,0-0.2,0.1-0.4c-0.4,0.3-0.9,1.7-0.8,1.7c-0.1,0.4-0.1,0-0.3,0.3c-0.2,0.5-0.2,1.3-0.3,1.5
							c0,0,0-0.1,0-0.2c0,0.3-0.2,1.5,0,1.2c-0.1,0.9,0.1,1.7,0.1,2.4c0.2,0.4,0.2,1.5,0.5,1.6c-0.3,0,0.2,1.6,0.5,2
							c-0.1-0.1,0.1,0.5-0.1,0.3c0.1,0.2,0.2,0.4,0.2,0.5c0.1,0.1,0.2,0.3,0.2,0.3c0,0,0,0,0,0c0,0,0,0,0.1,0c0,0.6,0.2,1.2,0.3,1.6
							c0.2,0.5,0.4,0.9,0.3,1.3c0.7,1.7,1.6,3.2,2.4,4.6c-0.3,0.1-0.9-1.6-1.1-1.4c0.8,1.4,1.5,2,2.2,3.4c0.2,0.4-0.2-0.1-0.3-0.2
							c0.9,1.3,1.7,2.5,2.7,3.5c0,0-0.1-0.1-0.2-0.2c0.2,0.2,0.4,0.5,0.4,0.4l-0.2-0.2c-0.1-0.4,0.9,0.6,1.1,0.6
							c-0.6-0.1,0.8,1.1,0,0.8c0.1,0.1,0.3,0.3,0.4,0.2c0.2,0.2,0.2,0.3-0.1,0.2c0.7,0.7,0.5,0.4,1.1,1c0,0-0.2-0.1-0.3-0.1
							c0.4,0.3,0.8,0.5,1.2,1.1c-0.1,0,0,0.1-0.2-0.1c0.9,0.9,1.7,1.4,2.5,2.5c-0.5-0.1,0.3,0.4,0.1,0.6l0.5,0.5l-0.1-0.3
							c0.2,0.3,0.4,0.4,0.7,0.7c0.3,0.2,0.5,0.4,0.7,0.6l-0.4-0.3l1,0.8L26.8,59c0.6,0.3,0.1-0.3,0.8,0.4c-0.1-0.1,0.5,0.4,0.7,0.8
							l0,0c0.3,0.2,0.6,0.3,0.9,0.7c0,0.1-0.2,0.1-0.2,0.2c0.1,0,0.2,0.1,0.3,0.2c0.1,0.1,0.2,0.2,0.2,0.4c0,0.3,0,0.7,0.1,0.8
							c0-0.1-0.2-0.1-0.2-0.1l0.1,0.3c-0.1,0.3-0.1,0.4-0.2,0.3c0,0.9,0.3-0.3,0.2,0.8c0-0.1,0,0-0.1-0.2c0,1.1,0.2,2.1,0.4,3.1
							c-0.1,0.4-0.3-0.9-0.4-0.5c0.2,0.7,0.5,1.5,1,2.1c0.5,0.7,1.2,1.2,1.9,1.4c-0.1,0-0.2-0.1-0.3-0.1c0.2-0.1,0.4,0,0.7,0.1
							c0.4,0.1,0.7,0.1,1.1,0.1c-0.2,0-0.2,0.2-0.2,0.1c1,0,2-0.1,3.4-0.2L37,69.8c0.3,0,0.7,0,1,0.1c0.4,0,0.8,0,1,0.1
							c0.1-0.1,0.4,0.1,0.3-0.1c1.3,1.4,3.2,1.6,4.6,2.6c-0.2-0.1-0.5-0.1-0.3-0.1c0.5,0.2,0.9,0.3,1.4,0.5
							c-0.1-0.2-0.2-0.1-0.4-0.4c0.2,0,0.6,0.1,1,0.1c-0.7,0,0,0.3,0.4,0.2c-0.1,0,0-0.1,0-0.1c0.8,0,0-0.3,1-0.5l0,0.1
							c0.3-0.2,0.6-0.4,1-0.6c0.2,0.1-0.3,0.2-0.3,0.4c0.5-0.3,0.9-0.8,1.4-0.9c-0.2,0.2-0.5,0.3-0.7,0.5c0.6-0.1,0.6-0.2,1-0.3l0,0
							l0.9-0.4L49.8,71c0.2-0.4,0.5-0.6,0.9-0.8c0.2-0.1,0.3-0.2,0.5-0.3c0.2-0.1,0.3-0.2,0.6-0.3c-0.4,0.2-0.4,0.3-0.3,0.3
							c0.1,0,0.2,0,0.2,0.1c0.1,0,0.2,0,0.3,0c0.1,0,0.2,0.1,0.1,0.1c0.5-0.1,0.8,0.1,1.4-0.1c0,0.1,0.5,0,0.4,0.1
							c0.6,0-0.1-0.1-0.1-0.2c0.9-0.2,2.2,0.2,3.5,0c0.3,0,0.5,0,0.8-0.1c0.2-0.1,0.4-0.1,0.5-0.3c0.3-0.2,0.6-0.4,0.9-0.8
							c0.3-0.2-0.1,0.4-0.1,0.4c0.5-0.3,0.8-0.8,1-1.3c0,0.1,0.1,0,0.2-0.1c0.2-0.4-0.1-0.4,0.2-0.9c0,0.1,0.1,0.3,0.1,0.5
							c0.1-0.5,0.2-1.1,0.2-1.6c0.1-0.1,0.1,0.4,0.1,0.6c0.1-0.6,0.2-1.6,0-1.8L61,64.8c0-0.2,0.1-0.1,0.2,0.1
							c0.1,0.5-0.2,0.7-0.2,0.8c0-0.1,0-0.3,0-0.4c-0.4,0.3-0.2,1.5-0.6,2.2c0-0.1-0.1-0.3-0.1-0.4c0,0.3-0.1,0.5-0.1,0.8
							C60.1,68,59.9,68,60,67.7c-0.4,0.4-0.2,0.5-0.6,0.7c-0.1,0,0,0,0,0l-0.3,0.4c0-0.1-0.2-0.1,0.1-0.3c-0.4,0.3-0.6,0.4-0.9,0.6
							c-0.3,0.1-0.5,0.2-0.6,0.1l0.1,0c-1.3,0.1-0.1,0.2-1.1,0.4L56,69.2l-0.1,0.2c-0.1,0-0.4,0-0.4-0.1c-0.5,0.1,0.1,0.1-0.2,0.2
							c-0.7-0.2-1.8,0.1-2-0.2c-0.2,0.1,0.6,0.1-0.1,0.2c-0.2-0.3-0.8,0-1.4-0.1c0.2-0.2,0.8-0.1,0.2-0.2c-0.2,0.1-0.5,0.2-0.9,0.3
							c-0.3,0.1-0.6,0.2-0.8,0.4c0.1,0.2-0.9,0.6-1.6,1.1c0-0.1-1.5,0.6-2.2,0.8l0,0c0,0.1-0.2,0.3-0.5,0.4
							c-0.3,0.1-0.5,0.2-0.8,0.2c0-0.1,0.1-0.1,0.3-0.2c-0.1,0-0.2,0-0.4,0c-0.1,0.1-0.3,0-0.6-0.1l0.2-0.1
							c-0.7-0.3-1.4-0.4-2.2-0.9c-0.1,0.1,0.5,0.7-0.5,0.3c0-0.1,0-0.2,0.3-0.1c-0.1,0-0.3-0.1-0.4-0.2l0.4,0.1
							c-0.4-0.3-0.3,0-0.6-0.2c0.1-0.1-0.2-0.2-0.1-0.3c0.1,0,0.2,0.2,0.4,0.2c-0.3-0.2-0.7-0.5-0.8-0.6c0,0.1-0.1,0.1-0.3,0
							c-0.6-0.4-0.1-0.2-0.5-0.5c-0.2,0-0.5-0.3-0.6-0.2c-0.2-0.1-0.2-0.2-0.3-0.3c-0.1,0-0.3-0.1-0.6-0.1c-0.3,0-0.4,0-0.6,0
							c-0.3,0-0.6,0.1-0.4,0.1l0.1,0c0,0,0,0-0.1,0h0h0c-1.3,0.2-2.6-0.1-3.9,0l0-0.1c-0.4,0-0.8,0-1.2,0.1c-0.1,0-0.3-0.1-0.5-0.1
							c-0.2,0-0.3-0.1-0.4-0.1c-0.2-0.1-0.3-0.4-0.2-0.4c-0.4-0.3-0.5-0.3-0.9-1c0.4,0.4,0-0.2,0.4,0.4c-0.3-0.6-0.3-0.7-0.7-1.4
							c0.2,0.2,0-0.5-0.1-0.9l0,0.5c-0.1-0.4-0.2-0.7-0.2-1l0.2,0.1c0-1.4-0.6-2.6-0.2-3.8c-0.1-0.4-0.1,0.8-0.3,0.4
							c0-0.2,0.1-0.4,0.1-0.6c0.1-0.3-0.1-0.7-0.2-0.9c-0.1-0.2-0.2-0.3-0.2-0.4c-0.6-0.8-0.9-0.4-1.6-1.2c0.1,0.1,0,0.4-0.6-0.1
							c-0.5-0.5-0.5-0.8-0.1-0.5c0.1,0.1,0.2,0.2,0.2,0.2c0.2,0.1,0.4,0.3,0.3,0.1l-0.1,0c-0.2-0.3-0.9-0.9-0.7-0.8
							c-0.4-0.3-0.2-0.1,0,0.2c-0.1-0.2-0.3-0.3-0.4-0.4c-0.1-0.1-0.2-0.3-0.4-0.4c-0.2-0.3-0.5-0.5-0.8-0.9c0.1,0.1,0.1,0.3,0,0.2
							c-0.8-1.1-0.5-0.4-1.1-1c-0.3-0.5,0.3,0-0.4-0.7c-0.3-0.5,0.1-0.2,0.2-0.1c-0.7-0.5-1-1.2-1.3-1.6l0.3,0.3
							c-0.2-0.2-0.3-0.3-0.5-0.5l0.1,0.3c-0.2-0.2-0.3-0.4-0.2-0.4c-0.2-0.1,0,0.3-0.5,0c-0.2-0.3-0.7-0.8-0.7-1
							c0.7,0.9,0.1-0.2,0.7,0.5c-0.1-0.1-0.3-0.3-0.4-0.5c0,0,0.1,0,0.1,0.1c-0.5-0.9-0.5-0.2-1.1-1.1c0.2,0,0-0.3-0.1-0.4
							c0.3,0.3,0,0.3-0.3,0c-0.4-0.6-0.5-0.6-0.7-0.8l0.2,0.3c-0.2,0-0.4-0.3-0.7-0.7c0-0.1,0.3,0.3,0.2,0.2
							c-0.5-0.3-0.6-1.1-1.1-1.6c-0.1-0.3,0.1-0.1,0-0.4c-0.6-0.6-0.4-0.8-0.9-1.5c0,0.3,0.1,0.3-0.4-0.1c0.3,0.4,0.5,0.8,0.8,1.2
							c-0.2-0.2-0.5-0.4-0.7-0.7c0.2,0.4,0.6,0.7,0.7,0.9c-0.3-0.3-0.3-0.3-0.3,0c-0.2-0.6-0.7-0.9-1-1.6l0.3-0.2
							c-0.2-0.5-0.4-0.9-0.7-1.3c-0.3-0.4-0.6-0.9-0.8-1.5l0.1,0.4c-0.2-0.1-0.4-0.7-0.6-1.1c0.1,0,0.1-0.3,0.1-0.5
							c-0.1,0.1-0.4-0.9-0.6-0.9l0-0.6c-0.3-1-0.7-1.1-0.9-2.1c0.2,0.3,0.2-0.2,0.4,0.5c-0.1-0.3-0.1-0.6-0.2-0.6c0,0,0,0,0-0.1
							c0-0.1,0-0.1,0-0.2c-0.1-0.1-0.1-0.2-0.2-0.3c-0.1-0.1-0.1-0.2-0.2-0.2c-0.1-0.2-0.2-0.3-0.2-0.5c-0.1-0.1-0.2-0.1-0.4-0.5
							c0,0,0.1,0,0.1,0c-0.1,0-0.3-0.5-0.3-0.2c0-1.1-0.7-2.9-0.4-3.8c-0.1-0.7,0-1.6,0.1-2.3c0,0,0.1,0,0,0.1
							c0.1-0.4,0.1-0.6,0.1-0.8c0-0.2-0.1-0.4,0.2-0.9c0.4-0.4-0.1,0.6,0.1,0.3c0.4,0,0.4-1.2,1-1.6l-0.1,0.2
							c0.4-0.4,0.7-1.1,1.3-1.7c0,0,0,0.1,0,0c0.3-0.6,1.1-1.4,1.8-1.9c-0.1,0.3-0.3,0.3-0.1,0.3c0.3-0.2-0.2-0.1,0.4-0.6
							c0.1,0,0.3-0.1,0.5-0.2c0.2-0.1,0.4-0.2,0.6-0.1l-0.8,0.5c0.1,0,0.2-0.1,0.4-0.1c0.2-0.1,0.4-0.2,0.5-0.4
							c0-0.3,0.1-0.7,0.1-0.8l0.1,0.1c0.3-1,0-1.1,0.6-2.2l-0.1,0.1c0.1-0.7,0.4-0.4,0.6-1c0.1,0,0.2,0,0.3,0
							c0.2-0.4,0.8-1.2,1.5-1.6c-0.3,0.4-0.9,0.9-1.2,1.4c0.3-0.3,1-0.9,1.1-1.1c-0.1,0.1-0.3,0.3-0.4,0.3c0.3-0.4,0.9-0.9,1.6-1.2
							c0,0.2,0.5,0,1.1-0.1c0.6-0.1,1.3-0.2,1.7,0c0.2,0,0.6,0,0.8-0.1c0.1-0.2,0.3-0.5,0.4-0.7c0.1-0.1,0.2-0.3,0.3-0.4
							c0.2-0.2,0.4-0.5,0.7-0.7c0.5-0.5,1.1-0.9,1.7-1.3c-0.7,0,0.4-0.3,0.1-0.5c0.3-0.2,0.5-0.3,0.5-0.3c0.4-0.1,0.8-0.3,1.2-0.3
							c0.3,0-0.3,0.2-0.3,0.3c0.8-0.3,0.4,0,0.9-0.1c-0.1-0.1,0.2-0.3,0.7-0.4c-0.2,0-0.5,0-0.7,0.1c1.1-0.5,1.1,0,2.2-0.4
							c-0.1,0.1-0.2,0.1-0.4,0.2c0.6-0.2,2.2-0.2,2.9-0.4c0.1,0,0.3,0.2,0,0.2c0.5,0,1,0.1,1.5,0.1c0.3,0,0.5,0,0.8,0l0.4,0
							c0.2,0,0.4,0,0.6,0c0.5-0.3,0.6-0.4,0.9-0.5c0.2-0.1,0.4-0.2,0.7-0.2l-0.1,0.1c0.2-0.1,0.4-0.3,0.7-0.4c0,0-0.1,0.1,0,0.1
							c0.1-0.1,0.7-0.4,1-0.4l-0.3,0.2c1.4-0.2,2.1-0.6,3.4-0.6c0,0.2,1.1,0.4,1.6,0.6l0,0c0.6,0.1,1,0.3,1.5,0.5
							c0.6,0.2,1.1,0.5,1.7,0.7c0.3-0.1,0.5-0.1,0.8-0.2c0.2,0,0.4-0.1,0.6-0.1c1,0.2,3.4-0.1,5,0.3c-0.2-0.1,0.1-0.2,0.4-0.2
							c0.4,0.1,1.1,0,0.9,0.2l-0.1,0c0.2,0.3,1,0.4,1.5,0.6l0.2-0.3c0.7,0.5,1.6,0.8,2.2,1.4c0.6,0.6,1.2,1.3,1.5,1.8
							c0.2,0.2,0.5,0.3,0.7,0.5c0.1,0,0.3,0.1,0.4,0.1c0.1,0,0.2,0,0.3,0l-0.1,0.1c1,0.4,1.4,0.6,2.6,1.2l-0.3,0
							c0.6,0.4,1,0.1,1.6,0.4l0,0.3c0.5,0.4,0.9,0.9,1.3,1.3c0.4,0.5,0.7,1,1.1,1.4c0,0-0.1,0-0.2-0.2c0.1,0.2,0.3,0.8,0.5,1.2
							c0.1,0.3,0.2,0.4,0.3,0.6c0.1,0.2,0.2,0.3,0.3,0.1c0,0,0,0,0,0.1c0,0,0.1,0.1,0.1,0.1c0.1,0,0.1,0.1,0.2,0.2
							c0.1,0.1,0.2,0.2,0.4,0.3c0.3,0.2,0.7,0.5,0.9,0.7l-0.2,0c0.5,0.3,0.6,0.3,1.1,0.9c0.1,0.2,0,0.2-0.1,0c0.3,0.6,0.4,0.3,0.8,1
							l-0.2-0.2c0.3,0.6,0.4,0.5,0.6,0.8c0.3,0.3,0.5,1.2,0.4,1.3c0.1,0,0.4,0.3,0.5,0.7c0,0.1-0.1-0.1-0.2-0.1
							c0.3,1.1,0.7,1.6,0.7,2.3c-0.1,0-0.1,0.1-0.1,0.1c-0.2-0.9-0.4-1.6-0.3-1.5c-0.1,0,0,0.7-0.3,0.2c0.3,0.5,0.7,1.4,0.7,2.1
							c0,0,0,0.1,0,0.1l0-0.1c0,0.2,0,0.3,0.1,0.4c0,0.2,0,0.4,0,0.6c-0.1,0.1,0,0.8-0.1,1.2c0.2,0,0.1,0.4,0.3,0c0,0.1,0-0.1,0-0.3
							c0-0.1,0-0.1,0-0.2l0,0c0-0.2,0-0.5,0-0.9c0.1,0.3,0.2,0.6,0.1,1c0.1,0.2,0.2,0.4,0.2,0.5c-0.2,0.5-0.5,1.4-0.7,1.5
							c0,0.6-0.2,1.1-0.3,1.8c-0.1,0.7-0.1,1.2-0.1,1.5c0,0.3-0.2,0.3-0.3,0.4c0-0.2,0.1-0.4,0.1-0.5c-0.1,0.6-0.5,1.8-0.4,2
							c-0.4,0.7,0-0.5-0.4,0.5l0-0.2c-1.1,1.8-0.9,3.5-2.5,5.3c0.1-0.1,0.2-0.2,0.2-0.2c-1.6,2.2-3.1,4.7-5.1,6.6
							c-0.5,0.5-0.5,0.7-0.7,1.1l-0.2,0l-0.4,0.7c-0.6,1-1.6,1.2-2.4,2.5l0.2-0.1c-0.3,0.4-1.1,1.1-1.1,1c0,0.1-0.1,0.2-0.3,0.3
							l-0.1-0.1l-0.9,0.9C61.8,60,62.5,59,61.4,60c-0.2,0.2-0.4,0.5-0.6,0.9c-0.1,0.2-0.1,0.3-0.1,0.5c0,0.2,0,0.2,0.1,0.1
							c0.1-0.4,0.4-0.6,0.5-0.6c-0.1,0.1-0.2,0.3-0.2,0.5c0.1,0.1,0.2,0.1,0.4,0.1l0,0l0,0l0,0l0,0l-0.2,0l0,0l0,0l0,0
							c0,0,0.1,0,0.1,0c0,0,0.1,0,0.2,0.1c0,0,0,0,0,0c0.1,0,0.2-0.1,0.4-0.3c0.1-0.2,0.3-0.4,0.5-0.7l0.3-0.1L62.2,61
							c0.4-0.2,0.5-0.4,0.6-0.7c0.1,0,0.2,0,0.4-0.1l0.5-0.7c0.1,0-0.2,0.4,0.3,0.1c0.2-0.3-0.4,0,0-0.4c0.4-0.2,0.4,0,0.7-0.4
							c0.1,0,0,0.1-0.1,0.3c0.1-0.2,0.3-0.4,0.5-0.5c0.1-0.1,0.2-0.2,0.3-0.3c0.1-0.1,0.1-0.2,0.1-0.2c0.4-0.2,0.9-1.1,1.1-0.9
							c0-0.1,0.3-0.7,0.6-1c-0.2,0.7,1-1.1,1.1-0.7c0.1-0.6,1.2-1.5,1.6-2.3c0,0.1,0,0.2-0.1,0.2c0.4-0.4,0.5-0.5,0.8-0.7
							c-0.1-0.2,0.3-0.9,0.5-1.3c0.6-0.4,0,0.5,0.3,0.4c-0.2-0.1,0.6-1,0.3-0.9c0.4-0.3,0.3-0.3,0.6-0.4c-0.2-0.2,0.2-0.4,0.3-0.8
							c0.5-0.5,0.3,0,0.7-0.7C73.5,48.6,73.2,49.3,73.2,49.3z M78.4,31.5L78.4,31.5c0,0.2,0,0.3,0.1,0.4
							C78.5,31.8,78.5,31.7,78.4,31.5z M78.2,30c0,0.2,0.1,0.4,0.1,0.7c0,0.1-0.1,0-0.1-0.1C78.2,30.6,78.2,30.2,78.2,30z
							 M77.4,33.3c0-0.2,0-0.3,0-0.3C77.5,33.1,77.5,33.2,77.4,33.3L77.4,33.3C77.5,33.4,77.4,33.3,77.4,33.3z"/>
						<path fill="#808181" d="M77.6,33.7C77.6,33.8,77.6,33.8,77.6,33.7C77.7,33.8,77.7,33.7,77.6,33.7l0-0.1
							C77.6,33.6,77.6,33.7,77.6,33.7z"/>
						<path fill="#808181" d="M37.9,69.3L37.9,69.3C37.9,69.3,38,69.3,37.9,69.3C37.9,69.3,37.9,69.3,37.9,69.3z"/>
						<polygon fill="#808181" points="64.8,14 64.8,14.1 64.9,14.1 						"/>
						<path fill="#808181" d="M45.8,72.8c0,0,0.1,0,0.1,0C45.9,72.8,45.9,72.8,45.8,72.8z"/>
						<path fill="#808181" d="M49.2,71.3l0.5-0.2C49.5,71.2,49.4,71.3,49.2,71.3z"/>
						<path fill="#808181" d="M51.7,70C51.7,69.9,51.7,69.9,51.7,70L51.7,70L51.7,70z"/>
						<path fill="#808181" d="M18.9,50.4C18.9,50.4,18.8,50.3,18.9,50.4C18.6,50.1,18.7,50.2,18.9,50.4z"/>
						<path fill="#808181" d="M28.2,60.1c-0.1-0.1-0.2-0.1-0.4-0.2C28,60,28.2,60.1,28.2,60.1z"/>
						<polygon fill="#808181" points="12,37 12.1,37 12,36.9 						"/>
						<path fill="#808181" d="M27.4,59.4c0.2,0.2,0.3,0.3,0.5,0.4C27.7,59.7,27.6,59.5,27.4,59.4z"/>
						<path fill="#808181" d="M61.4,65l0-0.1c0,0,0,0,0,0L61.4,65z"/>
						<path fill="#808181" d="M61.4,64.8l0-0.2C61.4,64.7,61.4,64.8,61.4,64.8z"/>
						<path fill="#808181" d="M61.4,64.3l0,0.3C61.4,64.5,61.4,64.4,61.4,64.3z"/>
						<path fill="#808181" d="M60,68.7L60,68.7C60,68.7,60,68.7,60,68.7z"/>
						<path fill="#808181" d="M59,69.6c0.1-0.1,0.3-0.2,0.5-0.3c0.2-0.1,0.4-0.3,0.5-0.5l0-0.1c0,0.1-0.2,0.3-0.4,0.4
							C59.4,69.3,59.1,69.4,59,69.6z"/>
						<path fill="#808181" d="M54.1,69.2l1,0c-0.2-0.1-0.4-0.1,0-0.2C53.9,68.9,55.4,69.2,54.1,69.2z"/>
						<path fill="#808181" d="M51,69.4c0.6-0.3-0.1-0.1,0-0.1C50.7,69.5,50.7,69.6,51,69.4z"/>
						<path fill="#808181" d="M31.7,68.6l0.1-0.1C31.5,68.3,31.7,68.5,31.7,68.6z"/>
						<path fill="#808181" d="M29.4,65.2c0,0.1,0,0.3,0,0.4l0.2,0.2C29.5,65.6,29.5,65.4,29.4,65.2z"/>
						<path fill="#808181" d="M30.4,62.8l0,0.2c0-0.2,0-0.4,0-0.6L30.4,62.8z"/>
						<path fill="#808181" d="M12.4,32.6l-0.2,0.1C12.3,33,12.5,33,12.4,32.6z"/>
						<path fill="#808181" d="M19,19.9c0.2-0.1,0.4-0.4,0.5-0.7C19.3,19.5,19.1,19.7,19,19.9z"/>
						<path fill="#808181" d="M60.9,12.6l-0.3-0.1c0.2,0,0.3,0.1,0.5,0.2L60.9,12.6z"/>
					</g>
				</g>
			</g>
		</g>
	</g>
	<g>
		<g>
			<g>
				<g>
					<g>
						<path fill="#808181" d="M39.8,11.1C39.8,11.1,39.7,11.1,39.8,11.1L39.8,11.1L39.8,11.1z"/>
						<path fill="#808181" d="M39.6,11.5c0.1,0.1,0.1,0.1,0.2,0.1C39.8,11.5,39.8,11.5,39.6,11.5c0-0.1,0.1-0.2,0.1-0.2
							c0,0,0-0.1,0-0.1C39.6,11.3,39.6,11.4,39.6,11.5C39.7,11.5,39.7,11.5,39.6,11.5z"/>
						<path fill="#808181" d="M40.1,17.3L40.1,17.3C40.1,17.3,40.1,17.3,40.1,17.3z"/>
						<path fill="#808181" d="M40.4,20.9C40.3,20.9,40.3,20.9,40.4,20.9C40.3,20.9,40.3,20.9,40.4,20.9z"/>
						<path fill="#808181" d="M40.3,21.5C40.3,21.5,40.3,21.5,40.3,21.5C40.3,21.5,40.3,21.5,40.3,21.5z"/>
						<path fill="#808181" d="M40.1,17.3L40.1,17.3C40.1,17.4,40.1,17.4,40.1,17.3z"/>
						<path fill="#808181" d="M39.9,12.3C39.9,12.3,39.9,12.2,39.9,12.3C39.9,12.2,39.9,12.3,39.9,12.3
							C39.9,12.3,39.9,12.3,39.9,12.3z"/>
						<path fill="#808181" d="M39.8,15.7L39.8,15.7C39.8,15.7,39.8,15.7,39.8,15.7L39.8,15.7z"/>
						<path fill="#808181" d="M39.7,14.5c0,0,0.1,0,0.1,0C39.8,14.5,39.8,14.5,39.7,14.5C39.7,14.5,39.7,14.5,39.7,14.5z"/>
						<path fill="#808181" d="M39.7,12.6L39.7,12.6C39.6,12.6,39.7,12.6,39.7,12.6z"/>
						<path fill="#808181" d="M39.9,16.6C39.9,16.6,39.9,16.6,39.9,16.6C39.9,16.6,39.9,16.6,39.9,16.6z"/>
						<path fill="#808181" d="M43.7,50.6C43.7,50.6,43.7,50.6,43.7,50.6C43.7,50.6,43.7,50.6,43.7,50.6z"/>
						<path fill="#808181" d="M43.5,52.1L43.5,52.1C43.5,52,43.4,52,43.5,52.1L43.5,52.1z"/>
						<path fill="#808181" d="M40.3,22.7C40.3,22.7,40.3,22.7,40.3,22.7C40.3,22.6,40.3,22.7,40.3,22.7z"/>
						<path fill="#808181" d="M41.4,33c0.1-0.1,0.1,0.2,0.2,0C41.5,33,41.4,32.9,41.4,33z"/>
						<path fill="#808181" d="M39.9,12.3C39.9,12.3,39.9,12.3,39.9,12.3C39.9,12.3,39.9,12.3,39.9,12.3z"/>
						<path fill="#808181" d="M41.5,33C41.5,33,41.5,33,41.5,33L41.5,33C41.5,33,41.5,33,41.5,33z"/>
						<path fill="#808181" d="M40.6,25.3C40.6,25.3,40.6,25.2,40.6,25.3C40.6,25.2,40.6,25.2,40.6,25.3z"/>
						<path fill="#808181" d="M40.5,23.3L40.5,23.3C40.5,23.4,40.5,23.3,40.5,23.3z"/>
						<path fill="#808181" d="M40.8,26.3C40.8,26.3,40.8,26.3,40.8,26.3C40.8,26.3,40.8,26.3,40.8,26.3
							C40.8,26.3,40.8,26.3,40.8,26.3z"/>
						<path fill="#808181" d="M40.9,27.3C40.9,27.3,40.9,27.3,40.9,27.3C40.9,27.3,40.9,27.3,40.9,27.3L40.9,27.3z"/>
						<path fill="#808181" d="M43.4,47.5C43.4,47.5,43.3,47.5,43.4,47.5C43.4,47.5,43.4,47.6,43.4,47.5z"/>
						<path fill="#808181" d="M39.9,12.3C39.9,12.3,39.9,12.3,39.9,12.3C39.9,12.3,39.9,12.3,39.9,12.3
							C39.9,12.3,39.9,12.3,39.9,12.3z"/>
						<path fill="#808181" d="M41.4,26.2l0,0.2C41.4,26.4,41.4,26.3,41.4,26.2z"/>
						<path fill="#808181" d="M42.7,40L42.7,40C42.7,40,42.7,40,42.7,40z"/>
						<path fill="#808181" d="M41.5,26.9C41.5,26.9,41.4,27,41.5,26.9c0,0.1,0,0.1,0,0.1L41.5,26.9z"/>
						<path fill="#808181" d="M43.3,47.5C43.3,47.5,43.3,47.5,43.3,47.5C43.3,47.5,43.3,47.5,43.3,47.5z"/>
						<path fill="#808181" d="M43.6,48.6c0-0.2-0.1-0.1-0.2-0.1c0-0.2,0.1-0.1,0.1-0.2c0-0.1-0.1-0.2-0.1-0.3c0,0,0,0,0,0
							c-0.1-0.1,0-0.4-0.2-0.5c0,0,0,0,0,0c0,0-0.1,0-0.1,0c0-0.1-0.1-0.1,0-0.2c0,0,0,0,0.1,0.1l0-0.1c0.1-0.1,0,0.1,0.1,0.1
							c0-0.1-0.1-0.3-0.1-0.4c0.1,0,0.1,0.3,0.1,0.1l0,0.2c0.1-0.1,0,0.1,0.1,0c0-0.2-0.1-0.2-0.1-0.5c-0.1,0-0.1,0-0.1,0
							c-0.1-0.3,0.2-0.3,0.1-0.5c-0.1-0.1-0.2-0.1-0.1-0.2l0.1,0c0-0.2-0.2-0.1-0.1-0.3c0,0,0.1,0.2,0.1,0.1
							c0.1-0.2-0.1-0.1-0.1-0.2l0.1,0c0-0.2-0.1-0.5-0.2-0.7c0,0,0.1,0.1,0.1,0c-0.1-0.3-0.1-0.7,0-1L43,43.8c0,0,0-0.1,0,0
							c0-0.1-0.1,0-0.1-0.1c0-0.1,0-0.1,0.1-0.1c-0.1-0.2-0.2-0.6-0.1-0.8l0,0c0-0.2-0.2-0.2-0.1-0.4l0,0c0-0.4-0.1-0.8,0-1.1
							c-0.1,0,0-0.4-0.1-0.4c0.1-0.2,0.1-0.2,0.1-0.5c0-0.1-0.1-0.1-0.1-0.2l0.1,0l-0.1-0.1l0.1-0.1l0-0.1c0,0,0,0.1-0.1,0.1
							c-0.1-0.1,0-0.4,0.1-0.4l-0.1-0.3c0,0,0.1,0.1,0.1,0.1c-0.1-0.2,0.1,0,0-0.2c0,0-0.1,0-0.1,0c0-0.1,0-0.3,0-0.4l0.1,0
							c0-0.3-0.1-0.5-0.1-0.8c0,0.1-0.1,0.1-0.1,0l0.1,0c-0.1-0.1,0,0.1-0.1,0c0-0.1,0.1-0.1,0.1,0l0-0.1c0,0,0,0,0.1,0
							c-0.1,0,0.1-0.2,0-0.3l0,0c0-0.3-0.1-0.4-0.1-0.7c-0.1,0-0.1-0.1-0.1-0.2c0-0.2,0-0.4,0-0.6c-0.1-0.1-0.1,0-0.1-0.1
							c0.1,0,0-0.2,0.1-0.1c0-0.3,0-0.3-0.1-0.6c0,0,0,0.1-0.1,0.1c0-0.1,0-0.1,0.1-0.1l0,0c-0.1-0.4,0.1-0.9,0-1.1l0,0L42,33.8
							c0-0.1,0.1,0.1,0.1,0c-0.1-0.3,0-0.5-0.1-0.8c0.2-0.2-0.1-0.7,0-1l0,0c-0.1-0.1,0-0.1,0-0.1c0,0,0,0.1-0.1,0
							c-0.1-0.6,0-1.3-0.1-1.9c0-0.2-0.3-0.1-0.2-0.4l0.1,0.1c-0.2-0.4-0.1-0.9-0.2-1.4c0,0,0.1,0,0.1,0.1c0.1-0.1,0-0.4-0.1-0.3
							c0-0.1,0,0,0.1-0.1c0-0.1-0.1-0.2,0-0.3c0,0,0,0,0,0c0-0.1,0-0.3-0.1-0.2c0-0.2-0.1-0.3,0-0.5c-0.1-0.1,0-0.3-0.1-0.3
							c0.1,0,0.1-0.3,0-0.4c0,0,0-0.1,0.1-0.1c0-0.1,0-0.2-0.1-0.2c0.1-0.2-0.2-0.4,0-0.6c-0.1-0.4-0.2-0.7-0.2-1
							c0.1,0,0,0.4,0.2,0.3c-0.1-0.3-0.2-0.5-0.2-0.8c0-0.1,0.1,0,0.1,0.1c-0.1-0.3,0-0.6-0.1-0.9c0,0,0,0,0,0.1c0-0.1,0-0.1,0-0.1
							l0,0.1c-0.1,0.1-0.2-0.2-0.2-0.2c0.2,0.1,0-0.3,0.2-0.1c0,0,0-0.1-0.1-0.1c0-0.1,0-0.1,0.1,0c0-0.2-0.1-0.1-0.1-0.3
							c0,0,0,0,0.1,0c-0.1-0.1-0.1-0.2-0.1-0.3c0,0,0,0,0,0c0-0.3-0.2-0.4-0.2-0.7c0.1,0.1,0-0.1,0.1-0.1l0-0.1l0,0.1
							c0-0.1-0.1-0.2-0.1-0.4l0.1,0.1l0-0.2l0,0.1c-0.1-0.1-0.1,0-0.1-0.2c0,0,0-0.1,0-0.2c0,0,0,0,0,0c0-0.1-0.1-0.1-0.1-0.2
							c0,0,0.1,0,0.1,0c-0.1-0.1-0.1-0.3-0.2-0.4c0,0,0.1,0,0.1,0l-0.1,0c0-0.1,0-0.1,0.1-0.1c0-0.2-0.1,0.1-0.1-0.2c0,0,0,0,0,0
							c0-0.2-0.1-0.4-0.1-0.6c0.1-0.1,0,0.2,0.1,0.1c0-0.3-0.2-0.6-0.2-0.9l0,0.1c-0.1,0,0.1-0.2,0-0.4c0,0,0.1,0,0.1,0
							c0-0.2-0.1-0.4-0.1-0.7l0,0c0-0.1,0-0.3,0-0.4c0,0,0-0.1-0.1-0.1c0.2-0.4-0.2-0.7,0-1.1c0,0,0,0.1,0,0.1l-0.1-0.3
							c-0.1,0,0,0-0.1,0.1c0,0-0.1-0.1-0.1-0.2c0.1,0.1,0.1,0,0.1-0.1c0,0,0,0-0.1,0c0.1-0.2-0.1,0-0.1-0.2l0,0
							c0-0.1-0.1-0.1-0.1-0.2c0.1,0,0,0.1,0.1,0.1c0-0.1-0.2-0.2-0.1-0.3c0,0,0,0.1,0.1,0.2c0.1-0.1,0.1-0.1,0.1-0.2l0,0l0-0.2
							l0,0.1c-0.2-0.1-0.1-0.3-0.2-0.5c0.1,0.2,0.1,0,0.2,0c0-0.1,0-0.1,0.1-0.1c-0.1-0.1,0-0.2-0.1-0.3c0,0,0-0.1,0.1-0.1
							c0-0.1,0,0-0.1,0c-0.1-0.2,0.1-0.4-0.1-0.7c-0.1-0.2-0.2-0.3-0.2-0.5c0-0.1,0.1,0,0.1,0c0-0.1,0-0.2,0-0.3c0,0,0,0,0.1,0
							c0-0.1-0.1,0-0.1-0.2c0,0,0.1,0,0.1,0.1c0-0.1-0.1-0.2-0.1-0.3c0,0,0.1,0.1,0.1,0.1c0-0.1-0.1-0.3-0.1-0.3l0,0.1
							c0,0,0.1,0,0.1,0c0.1,0.1,0,0.1,0,0.2l0-0.1c-0.1,0.1,0.1,0.3,0.1,0.5l-0.1-0.1l0.1,0.1c0,0-0.1,0.1-0.1,0c0,0.1,0,0.1,0,0.2
							c0,0,0,0,0,0l0,0.1c0,0-0.1,0-0.1,0c0,0.2,0.1,0.3,0,0.4l0,0c0.1,0.3,0.1,0,0.2,0.2l-0.2,0.2l0.1,0c0,0,0,0.1,0,0.1
							c0.1,0.1,0,0,0.1,0c-0.1,0.1,0.1,0.4-0.1,0.4c0.1,0,0-0.1,0.1,0c-0.1,0.1,0,0.2,0,0.3c-0.1,0,0-0.1-0.1,0c0.1,0.1,0,0.2,0,0.3
							c0.1,0,0.1,0.2,0.1,0.4c0,0,0,0.3,0,0.5l0,0c0.1,0,0.1,0.2,0.1,0.3c-0.1,0-0.1,0-0.1-0.1l0,0.1c0,0,0.1,0.1,0.1,0.1l-0.1,0
							c0,0.1,0.1,0.3,0.1,0.5c0.1,0,0.2-0.2,0.2,0c0,0-0.1,0-0.1,0c0,0,0,0.1,0,0.1L40,16.3c0,0.1,0.1,0,0.1,0.1c-0.1,0,0,0.1-0.1,0
							c0,0,0-0.1,0-0.1c0,0.1,0,0.2-0.1,0.2c0,0,0.1,0,0.1,0.1c0,0.1-0.1,0.1-0.1,0.1c0,0,0,0.1,0.1,0.1c0,0,0,0.1-0.1,0.1
							c0,0.1,0,0.4,0.1,0.3l0,0c0,0,0,0,0,0c0,0,0,0,0,0l0,0c0.1,0.2,0,0.5,0.1,0.8l0,0c0,0.1,0,0.3,0.1,0.4c0,0,0,0.1-0.1,0.1
							c0,0.1,0.1,0.1,0,0.3c-0.1-0.1,0,0,0-0.1c0,0.2,0,0.2,0,0.3c-0.1,0-0.1,0.1,0,0.2l0-0.1c0,0.1,0,0.1,0,0.2l-0.1,0
							c-0.1,0.3,0.2,0.5,0.1,0.8c0.1,0.1,0-0.2,0.1-0.1c0,0.1-0.1,0.3-0.1,0.3c0,0.2,0.1,0.2,0.1,0.4c0,0,0.1-0.1,0.2,0.1
							c0,0.1-0.1,0.2-0.2,0.1c0,0,0-0.1,0-0.1c0,0,0-0.1-0.1,0l0,0c0,0.1,0,0.3-0.1,0.2c0,0.1,0.1,0,0.1,0c0,0.2,0,0.3,0,0.5
							c0,0,0.1-0.1,0.1,0c0,0.3,0.1,0.1,0.1,0.3c0,0.1-0.1,0-0.1,0.2c0,0.1-0.1,0-0.1,0c0.1,0.2,0,0.3,0,0.4l0-0.1
							c0,0.1,0,0.1,0,0.1l0.1-0.1c0,0.1,0,0.1,0,0.1c0,0,0.1-0.1,0.2,0c0,0.1,0.1,0.2,0,0.2c0-0.2-0.1,0-0.1-0.2c0,0,0,0.1,0,0.1
							c0,0,0,0,0,0c-0.1,0.2,0.1,0.1,0.1,0.3c-0.1,0-0.1,0.1-0.1,0.1c0-0.1,0.1,0,0.1,0c0,0.1,0,0.1,0,0.2l0-0.1
							c0.1,0,0.1,0.1,0.1,0.2c0,0,0-0.1,0,0c0.1,0.1-0.1,0.3,0,0.4c0,0.1-0.1,0-0.1,0.1c0.1,0.2,0,0.2,0,0.4c0.1-0.1,0-0.1,0.1,0.1
							L40.5,24l0.1,0.2c0-0.1-0.1-0.2-0.1-0.2c0.1,0.1,0,0.1,0.1,0c-0.1,0.1,0.1,0.2,0,0.4l-0.2,0c-0.1,0.2,0.1,0.4,0.1,0.6l0-0.1
							c0.1,0,0,0.2,0.1,0.3c-0.1,0-0.1,0.1-0.1,0.1c0,0,0,0.2,0.1,0.2l-0.1,0.1c0,0.2,0.2,0.2,0.2,0.4c-0.1-0.1-0.1,0-0.1-0.1
							c0,0.1,0,0.1,0,0.1c0,0,0.1,0.2,0,0.3c0,0,0.1,0,0.1,0.1c0,0,0,0,0,0c0,0,0,0.1,0.1,0c-0.1,0.2,0.1,0.6-0.1,0.8
							c0,0.2,0.1,0.3,0.1,0.5c0,0,0,0,0,0c0,0.2,0.2,0.1,0.1,0.3c-0.1,0.1-0.1-0.1-0.1,0c-0.2,0,0,0.3,0,0.4l0,0
							c0,0.1,0.1,0.3,0.1,0.5c0,0,0,0,0,0c0.1,0.1,0.2,0.4,0.2,0.5c-0.1,0,0-0.1-0.1,0c0,0.1,0.1,0,0.1,0.1c0,0.1-0.1,0.2-0.1,0.2
							l0-0.1c-0.1,0.1,0,0.2,0,0.3l0,0c0,0.2,0.1,0.2,0.2,0.5l0,0c0.1,0.1,0,0.1,0,0.2l-0.1,0.1c0,0.1,0.1,0.3,0.2,0.5
							c-0.1-0.1-0.1-0.3-0.2-0.4c0,0.1,0,0.3,0.1,0.3c0,0,0-0.1,0-0.1c0.1,0.1,0.1,0.2,0.2,0.4c-0.2,0,0,0.5-0.2,0.6
							c0.1,0.3,0,0.6,0.1,1c0.1-0.1,0,0.1,0.2,0.1c0,0.1,0,0.1,0,0.1l-0.1,0.3c0,0.1,0-0.1-0.1-0.1c0,0.2-0.1,0.1-0.1,0.2
							c0.1,0,0.1,0.1,0.1,0.2l0.1-0.2c0.1,0.2-0.1,0.2,0,0.5l-0.1-0.1c0,0.1,0,0.5,0.2,0.6c0,0-0.1,0.1-0.1,0c0,0.3,0.2,0.7,0.2,0.9
							l0,0c0,0.1,0.1,0.1,0.1,0.2c0,0,0,0,0,0c0,0,0.1,0.2,0.1,0.2l-0.1-0.1c0,0.3,0.2,0.5,0.2,0.7c-0.1,0-0.1,0.3-0.1,0.4l0,0
							c0,0.4,0.2,0.6,0.2,0.9c-0.1,0.2,0,0.7,0,1c0-0.1,0.1,0,0.1,0.1c0,0.1,0.1,0.2,0,0.2l0,0c-0.1,0.1-0.1,0.2,0,0.4l0.1,0
							c-0.2,0.3,0.2,0.9,0,1c0,0.1,0.1,0.2,0.1,0.2l-0.1,0c0,0.2,0,0.3,0,0.6L42,41.2c0,0.2,0.2,0.2,0.3,0.3l-0.1,0.1
							c0,0.3,0,0.5,0.1,0.8c0,0-0.1,0-0.1-0.1c0,0.1,0,0.5,0.1,0.4c-0.1,0,0,0.3,0.1,0.4l-0.1,0c0.1,0.1,0.1,0.1,0.2,0.3
							c0,0-0.1,0,0,0c0,0.1,0.1,0.1,0.1,0.3l-0.1-0.1c0,0.1,0,0.1,0.1,0.2c0,0.1,0,0.3-0.1,0.3c0,0,0.1,0.1,0.1,0.2c0,0,0,0-0.1,0
							c0,0.2,0.1,0.3,0.1,0.5c0,0,0,0,0,0c0-0.2,0-0.3,0-0.3c-0.1,0-0.1,0.2-0.2,0c0.1,0.1,0.2,0.3,0.2,0.5c0,0,0,0,0,0l0,0
							c0,0,0,0.1,0,0.1c0,0,0,0.1,0,0.1c-0.1,0,0,0.2,0,0.2c0.1,0,0.1,0.1,0.1,0c0,0,0,0,0-0.1c0,0,0,0,0,0c0,0,0,0,0,0
							c0,0,0-0.1,0-0.2c0,0.1,0.1,0.1,0,0.2c0.1,0,0.1,0.1,0.1,0.1c-0.1,0.1-0.1,0.3-0.2,0.3c0.1,0.2,0.1,0.5,0.2,0.7
							c0,0.1,0,0.1-0.1,0.1c0,0,0-0.1,0-0.1c0,0.1,0.1,0.4,0.2,0.4c0,0.2-0.1-0.1-0.1,0.1l0,0c-0.1,0.5,0.3,0.7,0.2,1.2
							c0,0,0-0.1,0-0.1c0,0.6,0.2,1.1,0.1,1.7c0,0.2,0.1,0.2,0.1,0.3l-0.1,0l0.1,0.2c0.1,0.2-0.2,0.4,0,0.7l0.1,0
							c0,0.1,0.1,0.3,0,0.3c0,0,0.1,0,0,0.1l0,0l0.1,0.2c0,0.2-0.2,0-0.2,0.3c0,0.1,0.2,0.3,0.2,0.3c0,0,0-0.1,0.1-0.1l0,0.1
							c0.1,0,0.3,0.1,0.3-0.2l-0.1-0.2l0.1-0.1l0,0.1c0.1-0.1,0-0.1,0-0.2c0,0,0.1,0,0.1-0.1l-0.1-0.2c0,0,0.1,0.1,0.1,0
							c-0.1-0.1-0.1,0.1-0.2,0c0-0.1,0.1-0.1,0-0.2c0,0,0.1,0,0.1,0c0-0.1,0-0.2-0.1-0.3c0.1-0.1,0-0.3,0.1-0.3c0,0-0.1-0.1-0.1-0.2
							c0.2,0.1,0-0.3,0.1-0.3c-0.1-0.1-0.1-0.4-0.2-0.5c0,0,0,0,0,0c0-0.1,0-0.1,0.1-0.2c-0.1,0-0.1-0.2-0.2-0.2
							c0.1-0.1,0.1,0.1,0.2,0c-0.1,0-0.1-0.2-0.2-0.2c0.1-0.1,0-0.1,0.1-0.1c-0.1,0,0-0.1-0.1-0.2C43.5,48.6,43.6,48.7,43.6,48.6
							C43.5,48.4,43.6,48.6,43.6,48.6z M43,44.9C43,44.9,43,44.9,43,44.9C43,44.9,43,45,43,44.9C43,45,43,45,43,44.9z M43,44.6
							c0,0,0,0.1,0,0.1c0,0-0.1,0-0.1,0C43,44.7,43,44.7,43,44.6z M42.5,45.3C42.5,45.3,42.5,45.2,42.5,45.3
							C42.5,45.3,42.5,45.3,42.5,45.3C42.6,45.3,42.6,45.3,42.5,45.3C42.5,45.3,42.5,45.3,42.5,45.3z"/>
						<path fill="#808181" d="M42.6,45.4C42.6,45.4,42.6,45.4,42.6,45.4C42.6,45.4,42.6,45.4,42.6,45.4
							C42.6,45.4,42.6,45.4,42.6,45.4C42.6,45.4,42.6,45.4,42.6,45.4z"/>
						<path fill="#808181" d="M40.1,17.3L40.1,17.3C40.1,17.3,40.1,17.3,40.1,17.3C40.1,17.3,40.1,17.3,40.1,17.3z"/>
						<polygon fill="#808181" points="42.7,40.3 42.7,40.3 42.7,40.3 						"/>
						<path fill="#808181" d="M40.2,15.5C40.2,15.5,40.2,15.5,40.2,15.5C40.2,15.5,40.2,15.5,40.2,15.5z"/>
						<path fill="#808181" d="M40.1,14.8l0-0.1C40.1,14.7,40.1,14.8,40.1,14.8z"/>
						<path fill="#808181" d="M40.1,14.2C40.1,14.2,40.1,14.2,40.1,14.2C40.1,14.2,40.1,14.2,40.1,14.2L40.1,14.2z"/>
						<path fill="#808181" d="M41,23.2C41,23.2,41,23.3,41,23.2C41.1,23.3,41.1,23.3,41,23.2z"/>
						<path fill="#808181" d="M40.6,20.6C40.6,20.6,40.6,20.6,40.6,20.6C40.7,20.6,40.7,20.6,40.6,20.6z"/>
						<path fill="#808181" d="M41.4,26.2C41.4,26.2,41.4,26.2,41.4,26.2C41.4,26.2,41.4,26.2,41.4,26.2L41.4,26.2z"/>
						<path fill="#808181" d="M40.7,20.8c0,0,0-0.1,0-0.1C40.7,20.7,40.7,20.7,40.7,20.8z"/>
						<path fill="#808181" d="M39.9,11.8L39.9,11.8C39.9,11.7,39.9,11.7,39.9,11.8L39.9,11.8z"/>
						<path fill="#808181" d="M39.9,11.7L39.9,11.7C39.9,11.7,39.9,11.7,39.9,11.7z"/>
						<path fill="#808181" d="M39.9,11.6L39.9,11.6C39.9,11.7,39.9,11.7,39.9,11.6z"/>
						<path fill="#808181" d="M39.9,12.5L39.9,12.5C40,12.5,39.9,12.5,39.9,12.5z"/>
						<path fill="#808181" d="M40,12.7c0-0.1,0-0.1,0-0.2l0,0C40,12.6,39.9,12.7,40,12.7z"/>
						<path fill="#808181" d="M39.7,13.7l0-0.2c0,0-0.1,0.1-0.1,0C39.6,13.8,39.7,13.5,39.7,13.7z"/>
						<path fill="#808181" d="M39.7,14.3C39.7,14.2,39.7,14.3,39.7,14.3C39.7,14.4,39.7,14.4,39.7,14.3z"/>
						<path fill="#808181" d="M40.1,18.6L40.1,18.6C40.1,18.7,40.1,18.6,40.1,18.6z"/>
						<polygon fill="#808181" points="40.6,19.4 40.6,19.3 40.5,19.3 						"/>
						<polygon fill="#808181" points="40.1,19.9 40.1,19.9 40.1,20 						"/>
						<path fill="#808181" d="M40.8,27.1L40.8,27.1C40.9,27,40.8,27,40.8,27.1z"/>
						<path fill="#808181" d="M41.2,30.2c0,0-0.1,0.1,0,0.2C41.2,30.3,41.2,30.3,41.2,30.2z"/>
						<polygon fill="#808181" points="42,39.6 41.9,39.5 42,39.6 						"/>
					</g>
				</g>
			</g>
		</g>
	</g>
	<g>
		<g>
			<g>
				<g>
					<g>
						<path fill="#808181" d="M39.4,53.3C39.5,53.3,39.5,53.3,39.4,53.3L39.4,53.3L39.4,53.3z"/>
						<path fill="#808181" d="M39.4,52.9c-0.1,0-0.2-0.1-0.2,0C39.3,52.9,39.3,52.9,39.4,52.9c0,0.1,0,0.2-0.1,0.2
							c0,0,0,0.1,0.1,0.1C39.5,53.1,39.5,53,39.4,52.9C39.4,52.9,39.4,52.9,39.4,52.9z"/>
						<path fill="#808181" d="M37.6,47.5L37.6,47.5C37.6,47.6,37.6,47.6,37.6,47.5z"/>
						<path fill="#808181" d="M36.4,44.2C36.4,44.3,36.5,44.3,36.4,44.2C36.4,44.2,36.4,44.2,36.4,44.2z"/>
						<path fill="#808181" d="M36.3,43.6C36.3,43.6,36.3,43.7,36.3,43.6C36.3,43.7,36.3,43.6,36.3,43.6z"/>
						<path fill="#808181" d="M37.6,47.5L37.6,47.5C37.6,47.4,37.6,47.5,37.6,47.5z"/>
						<path fill="#808181" d="M39,52.2C39,52.3,39,52.3,39,52.2C39,52.3,39,52.3,39,52.2C39,52.2,39,52.2,39,52.2z"/>
						<path fill="#808181" d="M38.2,49L38.2,49C38.2,49,38.3,49,38.2,49L38.2,49z"/>
						<path fill="#808181" d="M38.6,50.1c0,0-0.1,0-0.1,0C38.6,50.1,38.6,50.1,38.6,50.1C38.6,50.1,38.6,50.1,38.6,50.1z"/>
						<path fill="#808181" d="M39.2,51.9L39.2,51.9C39.2,51.9,39.2,51.9,39.2,51.9z"/>
						<path fill="#808181" d="M37.9,48.2C37.9,48.2,38,48.1,37.9,48.2C37.9,48.1,37.9,48.2,37.9,48.2z"/>
						<path fill="#808181" d="M25.8,17.2C25.8,17.2,25.8,17.2,25.8,17.2C25.8,17.2,25.8,17.2,25.8,17.2z"/>
						<path fill="#808181" d="M25.7,15.8L25.7,15.8C25.7,15.8,25.7,15.8,25.7,15.8L25.7,15.8z"/>
						<path fill="#808181" d="M36,42.6C36,42.6,36,42.6,36,42.6C36,42.6,36,42.6,36,42.6z"/>
						<path fill="#808181" d="M32.5,33.2c0,0.1-0.1-0.1-0.2,0C32.3,33.2,32.5,33.3,32.5,33.2z"/>
						<path fill="#808181" d="M39,52.2C39,52.2,39,52.2,39,52.2C39,52.2,39,52.2,39,52.2z"/>
						<path fill="#808181" d="M32.3,33.2C32.3,33.2,32.3,33.2,32.3,33.2L32.3,33.2C32.3,33.2,32.3,33.2,32.3,33.2z"/>
						<path fill="#808181" d="M35.1,40.2C35.1,40.2,35.1,40.2,35.1,40.2C35.1,40.3,35.1,40.2,35.1,40.2z"/>
						<path fill="#808181" d="M35.7,42L35.7,42C35.6,42,35.7,42,35.7,42z"/>
						<path fill="#808181" d="M34.7,39.3C34.7,39.3,34.7,39.3,34.7,39.3C34.6,39.3,34.6,39.3,34.7,39.3
							C34.7,39.3,34.7,39.3,34.7,39.3z"/>
						<path fill="#808181" d="M34.3,38.4C34.3,38.4,34.3,38.4,34.3,38.4C34.3,38.4,34.3,38.4,34.3,38.4L34.3,38.4z"/>
						<path fill="#808181" d="M26.9,20.1C27,20.1,27,20.1,26.9,20.1C26.9,20.1,26.9,19.9,26.9,20.1z"/>
						<path fill="#808181" d="M39,52.2C39,52.2,39,52.2,39,52.2C39,52.2,39,52.2,39,52.2C39,52.2,39,52.2,39,52.2z"/>
						<path fill="#808181" d="M34.1,39.5l0-0.2C34,39.4,34.1,39.5,34.1,39.5z"/>
						<path fill="#808181" d="M29.5,26.9L29.5,26.9C29.5,26.9,29.5,26.9,29.5,26.9z"/>
						<path fill="#808181" d="M33.9,38.9c0,0,0-0.1,0-0.1c0,0,0,0,0,0L33.9,38.9z"/>
						<path fill="#808181" d="M27,20C27,20,27,20,27,20C27,20,27,20,27,20z"/>
						<path fill="#808181" d="M26.4,19.1c0.1,0.1,0.1,0,0.2,0c0.1,0.2,0,0.1-0.1,0.2c0.1,0.1,0.2,0.1,0.2,0.2c0,0,0,0,0,0
							c0.1,0.1,0.1,0.3,0.3,0.4c0,0,0,0,0,0c0,0,0.1-0.1,0.1-0.1c0,0.1,0.1,0.1,0.1,0.1c0,0,0,0-0.1,0l0.1,0.1
							c-0.1,0.1-0.1-0.1-0.1-0.1c0.1,0.1,0.2,0.2,0.2,0.4c-0.1,0.1-0.1-0.2-0.1-0.1l0-0.2c-0.1,0.2,0-0.1-0.1,0.1
							c0.1,0.2,0.1,0.2,0.2,0.4c0.1,0,0.1,0,0.1,0c0.2,0.3-0.1,0.3,0.1,0.5c0.1,0,0.2,0,0.2,0.2l-0.1,0c0.1,0.2,0.2,0.1,0.2,0.3
							c-0.1,0-0.1-0.1-0.1-0.1c0,0.2,0.1,0.1,0.1,0.2l-0.1,0.1c0.1,0.2,0.2,0.4,0.3,0.6c0,0-0.1,0-0.1,0c0.2,0.3,0.2,0.6,0.3,0.9
							l0.1,0.1c0,0,0,0.1,0,0c0,0.1,0,0,0.1,0c0,0.1,0,0.1,0,0.1c0.1,0.2,0.3,0.5,0.3,0.7l0,0c0,0.2,0.2,0.1,0.2,0.3l0,0
							c0.1,0.4,0.3,0.7,0.3,1c0.1,0,0.1,0.4,0.2,0.3c0,0.2,0,0.2,0,0.5c0,0.1,0.1,0.1,0.2,0.2l-0.1,0l0.1,0.1l-0.1,0.1l0.1,0.1
							c0,0,0-0.1,0-0.1c0.1,0.1,0.1,0.4,0,0.4l0.2,0.3c0,0-0.1,0-0.1-0.1c0.1,0.1-0.1,0.1,0.1,0.2c0,0,0.1,0,0.1,0
							c0,0.1,0,0.3,0.1,0.4l-0.1,0c0.1,0.2,0.2,0.5,0.3,0.8c0-0.1,0.1-0.1,0.1,0l-0.1,0.1c0.1,0,0-0.1,0.1,0c0,0.1-0.1,0.1-0.1,0.1
							l0.1,0.1c0,0,0,0-0.1,0c0.1,0,0,0.2,0.1,0.3l0,0c0.1,0.3,0.2,0.4,0.3,0.6c0.1,0,0.1,0.1,0.2,0.1c0,0.2,0,0.4,0.1,0.6
							c0.1,0.1,0.1,0,0.1,0.1c-0.1,0,0,0.2-0.1,0.1c0.1,0.2,0.1,0.3,0.3,0.6c0,0,0-0.1,0-0.1c0,0,0,0.1,0,0.1l0,0
							c0.2,0.3,0.1,0.8,0.3,1l0,0l0.2,0.2c0,0.1-0.1-0.1-0.1,0.1c0.2,0.3,0.2,0.5,0.3,0.7c-0.1,0.3,0.3,0.7,0.2,1l0,0
							c0.1,0,0,0.1,0,0.1c0,0,0-0.1,0.1-0.1c0.3,0.5,0.4,1.2,0.5,1.8c0.1,0.2,0.3,0,0.3,0.3l-0.1,0c0.3,0.4,0.3,0.9,0.6,1.2
							c0,0-0.1,0-0.1,0c0,0.1,0.1,0.3,0.2,0.3c0,0.1,0,0-0.1,0.1c0,0.1,0.2,0.2,0.1,0.3c0,0,0,0,0,0c0.1,0,0.1,0.3,0.1,0.2
							c0,0.2,0.1,0.3,0.1,0.4c0.1,0.1,0.1,0.3,0.2,0.3c-0.1,0,0,0.3,0.1,0.4c0,0,0,0.1-0.1,0.1c0,0.1,0.1,0.2,0.2,0.2
							c-0.1,0.3,0.3,0.4,0.1,0.6c0.2,0.3,0.3,0.6,0.5,0.9c-0.1,0-0.1-0.3-0.3-0.3c0.2,0.3,0.3,0.4,0.4,0.7c0,0.1-0.1,0-0.1,0
							c0.2,0.3,0.2,0.5,0.3,0.8c0,0,0,0-0.1,0c0,0,0,0.1,0.1,0.1l0,0c0-0.1,0.2,0.1,0.3,0.1c-0.2,0,0.1,0.3-0.2,0.2
							c0,0,0.1,0.1,0.1,0c0,0.1,0,0.1-0.1,0c0.1,0.2,0.1,0.1,0.2,0.2c0,0,0,0-0.1,0c0.1,0.1,0.2,0.1,0.2,0.3c0,0,0,0,0,0
							c0.1,0.2,0.3,0.3,0.3,0.6c-0.1,0,0,0.1-0.1,0.1l0.1,0.1l0-0.1c0,0.1,0.2,0.2,0.2,0.3L36,44.2l0.1,0.2l0-0.1
							c0.1,0.1,0.1-0.1,0.1,0.1c0,0,0,0.1,0,0.2c0,0,0,0,0,0c0.1,0,0.1,0.1,0.1,0.2c0,0-0.1,0-0.1,0c0.1,0,0.1,0.3,0.2,0.3
							c0,0-0.1,0-0.1,0l0.1,0c0,0.1,0,0.1-0.1,0.1c0.1,0.2,0.1-0.1,0.1,0.1c0,0,0,0,0,0c0,0.2,0.2,0.4,0.2,0.6
							c-0.1,0.1-0.1-0.2-0.1-0.1c0.1,0.3,0.3,0.5,0.4,0.8l0-0.1c0.1,0,0,0.2,0.1,0.3c0,0-0.1,0-0.1,0c0,0.2,0.2,0.3,0.3,0.6l0,0
							c0,0.1,0.1,0.3,0.1,0.4c0,0,0.1,0.1,0.1,0c-0.1,0.4,0.4,0.6,0.3,1c0,0-0.1-0.1-0.1,0l0.1,0.2c0.1,0,0,0,0-0.1
							c0,0,0.1,0.1,0.1,0.1c-0.1-0.1-0.1,0-0.1,0.1c0,0,0,0,0.1,0c-0.1,0.2,0.1,0,0.1,0.2l0,0c0,0.1,0.1,0.1,0.1,0.2
							c-0.1,0.1-0.1-0.1-0.1,0c0,0.1,0.2,0.2,0.2,0.3c0,0-0.1-0.1-0.1-0.1c0,0.1,0,0.1,0,0.2l0,0l0,0.2l0-0.1
							c0.2,0.1,0.1,0.3,0.3,0.4c-0.2-0.1-0.1,0-0.2,0c0,0.1,0,0.1,0,0.1c0.1,0.1,0,0.2,0.1,0.2c0,0,0,0.1,0,0.1c0.1,0.1,0,0,0.1,0
							c0.1,0.1,0,0.4,0.2,0.6c0.1,0.2,0.2,0.2,0.3,0.4c0,0.1-0.1,0-0.1,0c0,0.1,0,0.2,0.1,0.3c0,0,0,0-0.1,0.1c0,0.1,0.1,0,0.1,0.1
							c0,0-0.1,0-0.1,0c0.1,0.1,0.1,0.2,0.2,0.2c0,0-0.1,0-0.1-0.1c0.1,0.1,0.1,0.3,0.2,0.3l0-0.1c0,0-0.1,0-0.1,0
							c-0.1-0.1,0-0.1,0-0.2l0,0.1c0.1-0.1-0.1-0.3-0.2-0.4l0.1,0l-0.1-0.1c0,0,0.1-0.1,0.1,0c0-0.1-0.1-0.1,0-0.2c0,0,0,0,0,0
							l-0.1-0.1c0,0,0.1,0,0.1,0c0-0.2-0.2-0.3-0.1-0.3l0,0c-0.1-0.2-0.1,0-0.2-0.1l0.1-0.2l-0.1,0c0,0,0-0.1,0-0.1
							c-0.1-0.1,0,0-0.1,0c0-0.1-0.2-0.3,0-0.4c-0.1,0,0,0.1-0.1,0c0.1-0.1-0.1-0.1-0.1-0.3c0.1,0,0.1,0.1,0.1,0
							c-0.1,0-0.1-0.2-0.1-0.3c-0.1,0-0.1-0.2-0.2-0.3c0,0-0.1-0.3-0.1-0.5l0,0c-0.1,0-0.1-0.1-0.2-0.3c0.1,0,0.1,0,0.1,0l0-0.1
							c0,0-0.1,0-0.1-0.1l0.1,0c-0.1-0.1-0.2-0.2-0.2-0.4c-0.1,0-0.1,0.2-0.2,0c0,0,0.1,0,0.1,0c0,0-0.1,0,0-0.1l0.1,0.1
							c0-0.1-0.1,0-0.1-0.1c0.1,0,0-0.1,0.1-0.1c0,0,0,0.1,0,0.1c0-0.1,0-0.2,0-0.2c0,0-0.1,0-0.1,0c-0.1-0.1,0-0.1,0-0.2
							c0,0,0-0.1-0.1-0.1c0,0,0-0.1,0-0.1c-0.1-0.1-0.1-0.3-0.2-0.2l0,0c0,0,0,0,0,0c0,0,0,0,0,0l0,0c-0.2-0.2-0.1-0.5-0.3-0.7l0,0
							c-0.1-0.1-0.1-0.3-0.2-0.4c0,0,0-0.1,0-0.1c-0.1-0.1-0.1-0.1-0.1-0.3c0.1,0.1,0-0.1,0.1,0.1c0-0.1,0-0.2-0.1-0.3
							c0.1,0,0-0.1,0-0.2l0,0.1c0-0.1-0.1-0.1-0.1-0.2l0.1,0c0-0.3-0.4-0.4-0.3-0.7c-0.1-0.1,0,0.2-0.1,0.1c0-0.1,0-0.3,0-0.4
							c0-0.2-0.2-0.1-0.2-0.3c0,0-0.1,0.1-0.2,0c0-0.1,0.1-0.2,0.1-0.1c0,0,0,0,0,0.1c0,0,0.1,0.1,0.1,0l0,0c0-0.1-0.1-0.3,0-0.2
							c-0.1-0.1-0.1,0-0.1,0.1c0-0.2-0.1-0.3-0.1-0.4c0,0,0,0.1,0,0c-0.1-0.3-0.1-0.1-0.2-0.3c0-0.1,0.1,0,0-0.2
							c0-0.1,0.1-0.1,0.1,0c-0.1-0.1-0.1-0.3-0.1-0.4l0.1,0.1c0,0,0-0.1-0.1-0.1l0,0.1c0-0.1,0-0.1,0-0.1c-0.1,0-0.1,0.1-0.2,0
							c0-0.1-0.1-0.2,0-0.2c0,0.2,0.1-0.1,0.1,0.1c0,0,0-0.1,0-0.1c0,0,0,0,0,0c0-0.2-0.1-0.1-0.2-0.3c0.1,0,0.1-0.1,0-0.1
							c0,0.1-0.1,0.1-0.1,0c0-0.1-0.1-0.1-0.1-0.2l0,0.1c-0.1,0-0.1-0.1-0.1-0.2c0,0,0.1,0.1,0.1,0c-0.1-0.1,0-0.3-0.1-0.4
							c0-0.1,0.1,0,0.1-0.1c-0.1-0.1,0-0.2-0.1-0.3c0,0.1,0,0.1-0.1,0l0.1,0.2l-0.2-0.1c0,0.1,0.1,0.2,0.1,0.2
							c-0.1-0.1-0.1-0.1-0.1,0c0.1-0.1-0.1-0.2-0.1-0.3l0.2-0.1c0-0.2-0.2-0.3-0.3-0.6l0,0.1c-0.1,0-0.1-0.1-0.1-0.2
							c0.1,0,0.1-0.1,0.1-0.1c0,0-0.1-0.2-0.2-0.2l0-0.1c0-0.2-0.2-0.2-0.3-0.4c0.1,0,0.1-0.1,0.2,0.1c0-0.1,0-0.1-0.1-0.1
							c0,0-0.1-0.2-0.1-0.2c0,0-0.1,0-0.1-0.1c0,0,0,0,0,0c0,0-0.1-0.1-0.1,0c0.1-0.3-0.2-0.5-0.1-0.8c-0.1-0.1-0.1-0.3-0.2-0.4
							c0,0,0,0,0,0c0-0.2-0.2-0.1-0.2-0.3c0-0.1,0.1,0.1,0.1,0c0.2-0.1-0.1-0.2-0.1-0.4l0,0c0-0.1-0.2-0.2-0.2-0.4c0,0,0,0,0,0
							c-0.1-0.1-0.2-0.3-0.3-0.4c0.1,0,0.1,0.1,0.1,0c0-0.1-0.1,0.1-0.2-0.1c0-0.1,0-0.2,0.1-0.2l0.1,0.1c0.1-0.1-0.1-0.2-0.1-0.3
							l0,0c-0.1-0.2-0.2-0.2-0.3-0.4l0,0c-0.1-0.1,0-0.1-0.1-0.2l0.1-0.1c-0.1-0.1-0.2-0.2-0.3-0.4c0.1,0.1,0.2,0.2,0.3,0.3
							c0-0.1-0.1-0.3-0.2-0.3c0,0,0.1,0.1,0.1,0.1c-0.1-0.1-0.2-0.2-0.3-0.3c0.2,0-0.1-0.4,0-0.6c-0.2-0.3-0.2-0.6-0.3-0.9
							c-0.1,0.2,0-0.1-0.2,0c0-0.1,0-0.1,0-0.1l0-0.3c0-0.1,0.1,0.1,0.1,0c-0.1-0.2,0-0.1,0-0.2c0,0-0.1,0-0.1-0.1l0,0.2
							c-0.2-0.2,0.1-0.3-0.1-0.5l0.1,0.1c-0.1-0.1-0.2-0.4-0.3-0.5c0,0,0-0.1,0.1,0c-0.1-0.3-0.4-0.6-0.4-0.9l0,0
							c0,0-0.1-0.1-0.1-0.1c0,0,0,0,0,0c0,0-0.1-0.1-0.1-0.2l0.1,0c-0.1-0.3-0.3-0.4-0.4-0.6c0.1,0,0.1-0.3,0-0.4l0,0
							c-0.1-0.3-0.3-0.5-0.5-0.8c0.1-0.2-0.2-0.7-0.2-1c0,0.1-0.1,0-0.1,0c0-0.1-0.2-0.2,0-0.2l0,0c0.1-0.1,0-0.2,0-0.3l-0.1,0
							c0.1-0.4-0.4-0.8-0.2-1c-0.1-0.1-0.1-0.1-0.2-0.2l0.1,0c-0.1-0.2-0.1-0.3-0.2-0.6l0.1,0c0-0.1-0.3-0.1-0.3-0.2l0.1-0.1
							c-0.1-0.2-0.1-0.5-0.3-0.7c0,0,0.1,0,0.1,0c0-0.1-0.1-0.5-0.2-0.4c0.1,0-0.1-0.3-0.2-0.4l0.1,0c-0.1-0.1-0.2-0.1-0.2-0.2
							c0,0,0-0.1,0,0c0-0.1-0.1-0.1-0.1-0.2l0.1,0c0-0.1-0.1-0.1-0.1-0.2c-0.1-0.1-0.1-0.2,0-0.3c0,0-0.1-0.1-0.1-0.1c0,0,0,0,0.1,0
							c0-0.2-0.2-0.3-0.2-0.5c0,0,0,0,0,0c0.1,0.2,0.1,0.3,0.1,0.3c0.1,0,0-0.2,0.2-0.1c-0.1-0.1-0.3-0.2-0.3-0.4c0,0,0,0,0,0l0,0
							c0,0,0-0.1,0-0.1c0,0,0-0.1,0-0.1c0,0,0-0.2-0.1-0.2c-0.1,0-0.1-0.1-0.1,0c0,0,0,0,0,0.1c0,0,0,0,0,0c0,0,0,0,0,0
							c0,0,0,0.1,0.1,0.2c-0.1,0-0.1-0.1-0.1-0.2c-0.1,0-0.1,0-0.2-0.1c0.1-0.1,0.1-0.3,0.1-0.4c-0.1-0.2-0.2-0.5-0.4-0.6
							c0-0.1,0-0.1,0-0.1c0,0,0,0.1,0.1,0.1c-0.1-0.1-0.1-0.3-0.2-0.3c0-0.2,0.1,0.1,0-0.1l0,0c0-0.5-0.5-0.6-0.5-1.1
							c0,0,0,0.1,0,0.1c-0.1-0.5-0.5-1-0.5-1.6c0-0.2-0.1-0.1-0.2-0.2l0.1-0.1l-0.1-0.1c-0.1-0.2,0.1-0.4-0.2-0.7l0,0.1
							c0-0.1-0.1-0.3-0.1-0.3c0,0-0.1,0-0.1-0.1l0,0L26,16.3c0-0.2,0.2,0,0.1-0.3c-0.1-0.1-0.2-0.2-0.2-0.2c0,0,0,0.1,0,0.1
							l-0.1-0.1c-0.1,0-0.3,0-0.3,0.3l0.1,0.1l0,0.1l-0.1-0.1c0,0.1,0,0.1,0.1,0.2c0,0,0,0.1,0,0.1l0.2,0.1c0,0-0.1,0-0.1,0.1
							c0.1,0.1,0.1-0.1,0.2,0c0,0.1-0.1,0.1,0,0.2c0,0-0.1,0-0.1,0c0.1,0.1,0.1,0.2,0.2,0.2c0,0.1,0.1,0.3,0,0.3
							c0,0,0.1,0.1,0.2,0.2c-0.2-0.1,0.1,0.3-0.1,0.3c0.2,0.1,0.2,0.3,0.3,0.5c0,0,0,0,0,0c0,0.1,0,0.1,0,0.2c0.1,0,0.2,0.1,0.3,0.2
							c-0.1,0.2-0.1,0-0.2,0c0.1,0,0.2,0.2,0.2,0.1c0,0.1,0,0.1-0.1,0.2c0.1,0,0.1,0.1,0.2,0.1c0,0.2-0.1,0.1,0,0.2
							C26.5,19.2,26.4,19.1,26.4,19.1z M27.9,22.4C27.9,22.4,27.9,22.4,27.9,22.4C27.9,22.4,27.9,22.3,27.9,22.4
							C27.9,22.3,27.9,22.4,27.9,22.4z M28,22.7c0,0,0-0.1,0-0.1c0,0,0.1,0,0.1,0C28,22.6,28,22.6,28,22.7z M28.3,21.9
							C28.3,21.9,28.3,22,28.3,21.9C28.3,21.9,28.3,21.9,28.3,21.9C28.3,21.9,28.3,21.9,28.3,21.9C28.3,21.9,28.3,21.9,28.3,21.9z"
							/>
						<path fill="#808181" d="M28.2,21.8C28.2,21.8,28.2,21.8,28.2,21.8C28.2,21.8,28.2,21.9,28.2,21.8
							C28.2,21.9,28.2,21.9,28.2,21.8C28.2,21.9,28.2,21.9,28.2,21.8z"/>
						<path fill="#808181" d="M37.6,47.6L37.6,47.6C37.6,47.6,37.6,47.6,37.6,47.6C37.6,47.6,37.6,47.6,37.6,47.6z"/>
						<polygon fill="#808181" points="29.3,26.6 29.4,26.6 29.3,26.6 						"/>
						<path fill="#808181" d="M37.9,49.2C37.9,49.2,37.9,49.3,37.9,49.2C37.9,49.3,37.9,49.3,37.9,49.2z"/>
						<path fill="#808181" d="M38.2,49.9l0,0.1C38.2,50,38.2,49.9,38.2,49.9z"/>
						<path fill="#808181" d="M38.3,50.4C38.3,50.5,38.4,50.5,38.3,50.4C38.4,50.4,38.4,50.4,38.3,50.4L38.3,50.4z"/>
						<path fill="#808181" d="M35.2,42.2C35.2,42.2,35.2,42.2,35.2,42.2C35.1,42.2,35.2,42.2,35.2,42.2z"/>
						<path fill="#808181" d="M36.3,44.6C36.2,44.6,36.2,44.6,36.3,44.6C36.2,44.6,36.2,44.6,36.3,44.6z"/>
						<path fill="#808181" d="M34.1,39.5C34.1,39.5,34.1,39.5,34.1,39.5C34.1,39.5,34.1,39.5,34.1,39.5L34.1,39.5z"/>
						<path fill="#808181" d="M36.2,44.4c0,0,0,0.1,0,0.1C36.2,44.5,36.2,44.5,36.2,44.4z"/>
						<path fill="#808181" d="M39.1,52.7L39.1,52.7C39.1,52.7,39.1,52.7,39.1,52.7L39.1,52.7z"/>
						<path fill="#808181" d="M39.2,52.7L39.2,52.7C39.2,52.7,39.2,52.7,39.2,52.7z"/>
						<path fill="#808181" d="M39.2,52.8L39.2,52.8C39.2,52.8,39.2,52.8,39.2,52.8z"/>
						<path fill="#808181" d="M38.9,52L38.9,52C38.9,52,38.9,52,38.9,52z"/>
						<path fill="#808181" d="M38.8,51.8c0,0.1,0,0.1,0,0.2l0,0C38.8,52,38.9,51.8,38.8,51.8z"/>
						<path fill="#808181" d="M38.8,50.8l0,0.2c0,0,0-0.1,0.1,0C38.9,50.7,38.9,51,38.8,50.8z"/>
						<path fill="#808181" d="M38.7,50.3C38.7,50.3,38.7,50.2,38.7,50.3C38.7,50.2,38.7,50.2,38.7,50.3z"/>
						<path fill="#808181" d="M37.2,46.3L37.2,46.3C37.2,46.3,37.3,46.3,37.2,46.3z"/>
						<polygon fill="#808181" points="36.6,45.7 36.6,45.8 36.7,45.8 						"/>
						<polygon fill="#808181" points="36.9,45.1 36.9,45.1 36.9,45 						"/>
						<path fill="#808181" d="M34.4,38.5L34.4,38.5C34.4,38.6,34.5,38.6,34.4,38.5z"/>
						<path fill="#808181" d="M33.3,35.7c0,0,0-0.1,0-0.2C33.3,35.6,33.3,35.7,33.3,35.7z"/>
						<polygon fill="#808181" points="30.3,27.2 30.3,27.2 30.3,27.1 						"/>
					</g>
				</g>
			</g>
		</g>
	</g>
	<g>
		<g>
			<g>
				<g>
					<g>
						<path fill="#808181" d="M35,56.7C35,56.7,35,56.6,35,56.7L35,56.7L35,56.7z"/>
						<path fill="#808181" d="M35,56.2c-0.1,0-0.2-0.1-0.2,0C34.8,56.3,34.8,56.3,35,56.2c0,0.1,0,0.2,0,0.2c0,0,0,0.1,0.1,0.1
							C35,56.4,35,56.3,35,56.2C34.9,56.2,34.9,56.2,35,56.2z"/>
						<path fill="#808181" d="M32.6,51.3L32.6,51.3C32.6,51.3,32.6,51.3,32.6,51.3z"/>
						<path fill="#808181" d="M31.1,48.3C31.1,48.3,31.2,48.3,31.1,48.3C31.2,48.3,31.1,48.3,31.1,48.3z"/>
						<path fill="#808181" d="M31,47.7C31,47.7,31,47.8,31,47.7C31,47.7,31,47.7,31,47.7z"/>
						<path fill="#808181" d="M32.6,51.3L32.6,51.3C32.6,51.2,32.6,51.3,32.6,51.3z"/>
						<path fill="#808181" d="M34.4,55.7C34.4,55.7,34.4,55.7,34.4,55.7C34.5,55.7,34.4,55.7,34.4,55.7
							C34.4,55.7,34.4,55.7,34.4,55.7z"/>
						<path fill="#808181" d="M33.4,52.6L33.4,52.6C33.4,52.6,33.4,52.6,33.4,52.6L33.4,52.6z"/>
						<path fill="#808181" d="M33.9,53.6c0,0-0.1,0-0.1,0C33.8,53.6,33.8,53.6,33.9,53.6C33.9,53.7,33.9,53.6,33.9,53.6z"/>
						<path fill="#808181" d="M34.6,55.3L34.6,55.3C34.6,55.3,34.6,55.3,34.6,55.3z"/>
						<path fill="#808181" d="M33,51.9C33,51.9,33,51.9,33,51.9C33,51.9,33,51.9,33,51.9z"/>
						<path fill="#808181" d="M18,23.7C18,23.7,18,23.7,18,23.7C18,23.7,18,23.7,18,23.7z"/>
						<path fill="#808181" d="M17.8,22.3L17.8,22.3C17.8,22.3,17.8,22.3,17.8,22.3L17.8,22.3z"/>
						<path fill="#808181" d="M30.6,46.7C30.6,46.7,30.6,46.7,30.6,46.7C30.6,46.8,30.6,46.8,30.6,46.7z"/>
						<path fill="#808181" d="M26.1,38.1c0,0.1-0.2-0.1-0.2,0.1C26,38.2,26.2,38.3,26.1,38.1z"/>
						<path fill="#808181" d="M34.4,55.6C34.4,55.6,34.4,55.6,34.4,55.6C34.4,55.6,34.4,55.6,34.4,55.6z"/>
						<path fill="#808181" d="M26,38.2C26,38.2,26,38.2,26,38.2L26,38.2C26,38.2,26,38.2,26,38.2z"/>
						<path fill="#808181" d="M29.4,44.6C29.4,44.6,29.4,44.6,29.4,44.6C29.4,44.6,29.4,44.6,29.4,44.6z"/>
						<path fill="#808181" d="M30.2,46.3L30.2,46.3C30.1,46.2,30.1,46.3,30.2,46.3z"/>
						<path fill="#808181" d="M28.9,43.8C28.9,43.8,28.9,43.8,28.9,43.8C28.9,43.8,28.9,43.8,28.9,43.8
							C28.9,43.8,28.9,43.8,28.9,43.8z"/>
						<path fill="#808181" d="M28.5,42.9C28.5,42.9,28.5,43,28.5,42.9C28.5,43,28.5,43,28.5,42.9L28.5,42.9z"/>
						<path fill="#808181" d="M19.4,26.3C19.4,26.3,19.4,26.3,19.4,26.3C19.4,26.3,19.3,26.2,19.4,26.3z"/>
						<path fill="#808181" d="M34.5,55.6C34.4,55.7,34.4,55.7,34.5,55.6C34.4,55.6,34.4,55.7,34.5,55.6
							C34.4,55.7,34.5,55.7,34.5,55.6z"/>
						<path fill="#808181" d="M28.4,44.1l-0.1-0.1C28.3,43.9,28.3,44,28.4,44.1z"/>
						<path fill="#808181" d="M22.6,32.6L22.6,32.6C22.6,32.5,22.6,32.6,22.6,32.6z"/>
						<path fill="#808181" d="M28.1,43.5c0,0,0-0.1,0-0.1c0,0,0,0,0,0L28.1,43.5z"/>
						<path fill="#808181" d="M19.5,26.2C19.5,26.2,19.5,26.2,19.5,26.2C19.5,26.2,19.5,26.2,19.5,26.2z"/>
						<path fill="#808181" d="M18.8,25.4c0.1,0.1,0.1,0,0.2,0c0.1,0.1,0,0.1,0,0.2c0.1,0.1,0.2,0.1,0.2,0.2c0,0,0,0,0,0
							c0.1,0.1,0.2,0.3,0.3,0.4c0,0,0,0,0,0c0,0,0.1-0.1,0.1-0.1c0,0.1,0.1,0.1,0.1,0.1c0,0,0,0-0.1,0l0.1,0c-0.1,0.1-0.1-0.1-0.1,0
							c0.1,0.1,0.2,0.2,0.3,0.3c-0.1,0.1-0.1-0.2-0.1,0l0-0.2c-0.1,0.2,0-0.1-0.1,0.1c0.1,0.2,0.1,0.2,0.2,0.4c0.1,0,0.1,0,0.1,0
							c0.2,0.2-0.1,0.3,0.1,0.5c0.1,0,0.2,0,0.2,0.2l-0.1,0c0.1,0.2,0.2,0,0.2,0.3c-0.1,0-0.1-0.1-0.1-0.1c0,0.2,0.1,0.1,0.1,0.2
							l-0.1,0.1c0.1,0.2,0.3,0.4,0.4,0.6c0,0-0.1,0-0.1,0c0.2,0.3,0.3,0.6,0.4,0.9l0.1,0.1c0,0,0,0.1,0,0c0,0.1,0,0,0.1,0
							c0,0.1,0,0.1,0,0.1c0.2,0.1,0.4,0.4,0.4,0.7l0,0c0,0.2,0.2,0.1,0.2,0.3l0,0c0.1,0.3,0.4,0.7,0.4,1c0.1,0,0.1,0.3,0.3,0.3
							c0,0.2,0,0.2,0.1,0.5c0,0.1,0.1,0.1,0.2,0.1l-0.1,0l0.1,0.1l-0.1,0.1l0.1,0.1c0,0,0-0.1,0-0.1c0.1,0.1,0.1,0.3,0.1,0.4
							l0.2,0.3c0,0-0.1,0-0.1-0.1c0.2,0.1-0.1,0.1,0.1,0.2c0,0,0.1,0,0.1,0c0,0.1,0.1,0.3,0.2,0.4l-0.1,0c0.1,0.2,0.3,0.4,0.4,0.7
							c0-0.1,0.1-0.1,0.1-0.1l-0.1,0.1c0.1,0,0-0.1,0.1,0c0,0.1-0.1,0.1-0.1,0.1l0.1,0.1c0,0,0,0-0.1,0c0.1,0,0,0.2,0.1,0.3l0,0
							c0.1,0.2,0.2,0.3,0.3,0.5c0.1,0,0.1,0.1,0.2,0.1c0.1,0.2,0.1,0.3,0.2,0.5c0.1,0.1,0.1,0,0.1,0c-0.1,0,0,0.2-0.1,0.1
							c0.1,0.2,0.2,0.3,0.3,0.5c0,0,0-0.1,0-0.1c0,0,0,0.1,0,0.1l0,0c0.2,0.3,0.2,0.8,0.4,1l0,0l0.2,0.2c0,0.1-0.1,0-0.1,0.1
							c0.2,0.2,0.2,0.4,0.4,0.6c-0.1,0.3,0.3,0.6,0.3,0.9l0,0c0.1,0,0,0.1,0,0.1c0,0,0-0.1,0-0.1c0.3,0.5,0.5,1.1,0.7,1.6
							c0.1,0.2,0.3,0,0.3,0.3l-0.1,0c0.3,0.3,0.4,0.8,0.7,1.1c0,0-0.1,0-0.1,0c0,0.1,0.1,0.3,0.2,0.3c0,0.1,0,0,0,0.1
							c0,0.1,0.2,0.2,0.1,0.2c0,0,0,0,0,0c0.1,0,0.1,0.2,0.2,0.2c0,0.2,0.2,0.3,0.2,0.4c0.1,0,0.1,0.3,0.2,0.2c-0.1,0,0,0.3,0.1,0.4
							c0,0,0,0.1-0.1,0.1c0.1,0.1,0.1,0.2,0.2,0.1c0,0.3,0.3,0.3,0.2,0.5c0.2,0.3,0.4,0.5,0.6,0.8c-0.1,0-0.2-0.3-0.3-0.2
							c0.2,0.2,0.3,0.3,0.4,0.6c0,0.1-0.1,0-0.1,0c0.2,0.2,0.2,0.5,0.4,0.7c0,0,0,0-0.1,0c0,0,0,0.1,0.1,0.1l0,0
							c0-0.1,0.2,0.1,0.3,0.1c-0.2,0,0.1,0.2-0.2,0.2c0,0,0.1,0.1,0.1,0c0,0,0,0.1-0.1,0c0.1,0.1,0.1,0.1,0.2,0.2c0,0,0,0-0.1,0
							c0.1,0.1,0.2,0.1,0.2,0.2c0,0,0,0,0,0c0.1,0.2,0.3,0.3,0.4,0.6c-0.1,0,0,0.1-0.1,0.2l0.1,0.1l0-0.1c0.1,0.1,0.2,0.2,0.2,0.3
							l-0.1-0.1l0.1,0.2l0-0.1c0.1,0.1,0.1-0.1,0.2,0.1c0,0,0.1,0.1,0,0.2c0,0,0,0,0,0c0.1,0,0.1,0.1,0.1,0.2c0,0-0.1,0-0.1,0.1
							c0.1,0,0.2,0.2,0.3,0.3c0,0-0.1,0-0.1,0l0.1,0c0,0.1,0,0.1,0,0.1c0.1,0.2,0.1-0.1,0.1,0.1c0,0,0,0,0,0
							c0.1,0.2,0.2,0.3,0.3,0.5c-0.1,0.1-0.1-0.1-0.1,0c0.1,0.2,0.4,0.4,0.5,0.7l0,0c0.1,0,0,0.2,0.1,0.3c0,0-0.1,0-0.1,0
							c0.1,0.2,0.2,0.3,0.4,0.5l0,0c0,0.1,0.1,0.3,0.1,0.4c0,0,0.1,0.1,0.1,0c0,0.4,0.4,0.5,0.4,0.9c0,0-0.1-0.1-0.1,0l0.2,0.2
							c0,0,0,0,0-0.1c0,0,0.1,0.1,0.1,0.1c-0.1-0.1-0.1,0-0.1,0.1c0,0,0,0,0.1,0c0,0.2,0.1,0,0.1,0.2l0,0c0,0.1,0.1,0.1,0.1,0.2
							c-0.1,0.1-0.1-0.1-0.1,0c0.1,0.1,0.2,0.1,0.2,0.2c0,0-0.1-0.1-0.1-0.1c0,0.1,0,0.1,0,0.2l0,0l0,0.2l0-0.1
							c0.2,0,0.2,0.2,0.3,0.3c-0.2-0.1-0.1,0-0.2,0c0,0.1,0,0.1,0,0.1c0.1,0,0,0.2,0.2,0.2c0,0,0,0.1,0,0.1c0.1,0.1,0,0,0.1-0.1
							c0.2,0.1,0.1,0.4,0.3,0.6c0.1,0.2,0.2,0.2,0.4,0.3c0,0.1-0.1,0-0.1,0c0,0.1,0.1,0.2,0.1,0.3c0,0,0,0-0.1,0.1
							c0,0.1,0.1,0,0.1,0.1c0,0-0.1,0-0.1,0c0.1,0.1,0.2,0.1,0.2,0.2c0,0-0.1,0-0.1,0c0.1,0.1,0.2,0.2,0.2,0.2l0-0.1c0,0,0,0-0.1,0
							c-0.1-0.1,0-0.1,0-0.2l0,0.1c0.1-0.1-0.2-0.2-0.2-0.4l0.1,0l-0.2-0.1c0,0,0.1-0.1,0.1,0c0-0.1-0.1-0.1-0.1-0.2c0,0,0,0,0,0
							l-0.1-0.1c0,0,0.1-0.1,0.1,0c0-0.2-0.2-0.2-0.2-0.3l0,0c-0.1-0.2-0.1,0-0.3-0.1l0.1-0.2l-0.1,0c0,0,0-0.1,0-0.1
							c-0.1-0.1,0,0-0.1,0c0-0.1-0.2-0.3-0.1-0.4c-0.1,0,0,0.1-0.1,0c0.1-0.1-0.1-0.1-0.1-0.3c0.1,0,0.1,0.1,0.1,0
							c-0.1,0-0.1-0.2-0.1-0.3c-0.1,0-0.1-0.2-0.2-0.3c0,0-0.1-0.3-0.1-0.4l0,0c-0.1,0-0.2-0.1-0.2-0.2c0.1,0,0.1,0,0.1,0l0-0.1
							c0,0-0.1,0-0.1-0.1l0.1,0c-0.1-0.1-0.2-0.2-0.2-0.4c-0.1,0-0.1,0.2-0.2,0.1c0,0,0.1-0.1,0.1,0c0,0-0.1,0-0.1-0.1l0.1,0
							c0-0.1-0.1,0-0.1-0.1c0,0,0-0.1,0.1-0.1c0,0,0,0.1,0,0.1c0-0.1,0-0.2,0-0.2c0,0-0.1,0-0.1,0c-0.1-0.1,0-0.1,0-0.2
							c0,0-0.1-0.1-0.1-0.1c0,0,0-0.1,0-0.1c-0.1,0-0.2-0.3-0.2-0.2l0,0c0,0,0,0,0,0c0,0,0,0,0,0l0,0c-0.2-0.2-0.2-0.5-0.3-0.7l0,0
							c-0.1-0.1-0.2-0.3-0.3-0.3c0,0,0-0.1,0-0.1C32,50.2,32,50.2,32,50c0.1,0.1,0-0.1,0.1,0.1c0-0.1,0-0.2-0.2-0.3
							c0.1,0,0-0.1,0-0.2l0,0.1c0-0.1-0.1-0.1-0.1-0.2l0.1,0c0-0.3-0.4-0.4-0.3-0.7c-0.1,0,0,0.2-0.1,0.1c0-0.1,0-0.3,0-0.3
							c0-0.2-0.2-0.1-0.2-0.3c0,0-0.1,0.1-0.2,0c0-0.1,0-0.2,0.1-0.1c0,0,0,0,0,0c0,0,0.1,0.1,0.1,0l0,0c0-0.1-0.1-0.2,0-0.2
							c-0.1-0.1-0.1,0,0,0.1c0-0.2-0.1-0.2-0.2-0.4c0,0,0,0.1,0,0c-0.1-0.2-0.1-0.1-0.2-0.2c0-0.1,0.1,0,0-0.2c0-0.1,0.1-0.1,0.1,0
							c-0.1-0.1-0.1-0.3-0.1-0.4l0.1,0.1c0,0-0.1-0.1-0.1-0.1l0,0.1c0,0,0-0.1,0-0.1c-0.1,0-0.1,0.1-0.2,0c0-0.1-0.1-0.2-0.1-0.2
							c0.1,0.2,0.1-0.1,0.2,0.1c0,0,0-0.1-0.1-0.1c0,0,0,0,0,0c0-0.2-0.1,0-0.2-0.2c0.1,0,0.1-0.1,0-0.1c0,0.1-0.1,0.1-0.1,0
							c0-0.1-0.1-0.1-0.1-0.2l0,0.1c-0.1,0-0.1-0.1-0.1-0.1c0,0,0.1,0.1,0.1,0c-0.1-0.1,0-0.2-0.1-0.3c0-0.1,0.1,0,0.1-0.1
							c-0.1-0.1,0-0.2-0.1-0.3c0,0.1,0,0.1-0.1,0l0.2,0.2l-0.2-0.1c0,0.1,0.1,0.1,0.1,0.2c-0.1-0.1-0.1,0-0.1,0
							c0-0.1-0.2-0.2-0.2-0.3l0.1-0.1c0-0.2-0.2-0.3-0.3-0.5l0,0.1c-0.1,0-0.1-0.1-0.1-0.2c0.1,0,0-0.1,0.1-0.1c0,0-0.1-0.2-0.2-0.1
							l0-0.1c-0.1-0.2-0.2-0.1-0.3-0.3c0.1,0,0.1-0.1,0.2,0c0-0.1,0-0.1-0.1-0.1c0,0-0.1-0.1-0.1-0.2c0,0-0.1,0-0.1-0.1c0,0,0,0,0,0
							c0,0-0.1-0.1-0.1,0c0.1-0.3-0.3-0.5-0.2-0.7c-0.1-0.1-0.2-0.3-0.2-0.4c0,0,0,0,0,0c0-0.2-0.2,0-0.2-0.2c0-0.1,0.1,0.1,0.1,0
							c0.1-0.1-0.1-0.2-0.1-0.4l0,0c0-0.1-0.2-0.2-0.2-0.4c0,0,0,0,0,0c-0.1-0.1-0.3-0.2-0.4-0.4c0.1,0,0.1,0.1,0.1,0
							c0-0.1-0.1,0.1-0.2-0.1c0-0.1,0-0.2,0.1-0.2l0.1,0.1c0.1-0.1-0.1-0.2-0.1-0.2l0,0c-0.1-0.2-0.2-0.1-0.3-0.3l0,0
							c-0.2-0.1,0-0.1-0.1-0.2l0.1-0.1c-0.1-0.1-0.2-0.2-0.3-0.3c0.1,0,0.2,0.2,0.3,0.2c0-0.1-0.1-0.2-0.2-0.3c0,0,0.1,0.1,0.1,0.1
							c-0.1-0.1-0.2-0.2-0.3-0.3c0.2-0.1-0.1-0.4-0.1-0.6c-0.2-0.2-0.2-0.5-0.4-0.8c-0.1,0.2,0-0.1-0.2,0c0-0.1-0.1-0.1,0-0.1l0-0.3
							c0-0.1,0.1,0,0.1,0c-0.1-0.2,0-0.1,0-0.2c0,0-0.1,0-0.1-0.1l0,0.2c-0.2-0.2,0-0.2-0.2-0.4l0.1,0c-0.1-0.1-0.2-0.4-0.4-0.5
							c0,0,0-0.1,0.1,0c-0.1-0.3-0.4-0.5-0.5-0.8l0,0c0,0-0.1-0.1-0.1-0.1c0,0,0,0,0,0c0,0-0.1-0.1-0.1-0.2l0.1,0
							c-0.1-0.3-0.3-0.3-0.4-0.6c0.1-0.1,0-0.3,0-0.4l0,0c-0.1-0.3-0.3-0.5-0.5-0.7c0-0.2-0.2-0.6-0.3-0.9c0,0.1-0.1,0-0.1,0
							c0-0.1-0.2-0.1-0.1-0.2l0,0c0.1-0.1,0-0.2-0.1-0.3l-0.1,0c0-0.4-0.4-0.7-0.3-0.9c-0.1,0-0.1-0.1-0.2-0.2l0.1,0
							c-0.1-0.2-0.1-0.3-0.2-0.5l0.1,0c-0.1-0.1-0.3-0.1-0.3-0.2l0.1-0.1c-0.1-0.2-0.1-0.5-0.3-0.7c0,0,0.1,0,0.1,0
							c-0.1-0.1-0.1-0.4-0.3-0.3c0.1,0-0.1-0.2-0.2-0.3l0.1,0c-0.1-0.1-0.2,0-0.3-0.2c0,0,0-0.1,0,0c0-0.1-0.1-0.1-0.1-0.2l0.1,0
							c-0.1-0.1-0.1-0.1-0.2-0.1c-0.1-0.1-0.1-0.2,0-0.3c0,0-0.1,0-0.1-0.1c0,0,0,0,0.1,0c-0.1-0.2-0.2-0.2-0.2-0.4c0,0,0,0,0,0
							c0.1,0.2,0.1,0.3,0.1,0.3c0.1,0,0-0.2,0.1-0.1c-0.1-0.1-0.3-0.2-0.3-0.3c0,0,0,0,0,0l0,0c0,0,0-0.1,0-0.1c0,0,0-0.1,0-0.1
							c0,0,0-0.2-0.1-0.2c-0.1,0-0.1,0-0.1,0.1c0,0,0,0,0,0c0,0,0,0,0,0c0,0,0,0,0,0c0,0,0.1,0.1,0.1,0.2c-0.1,0-0.1-0.1-0.1-0.2
							c-0.1,0-0.1,0-0.2,0c0.1-0.1,0-0.3,0.1-0.4c-0.1-0.2-0.3-0.4-0.4-0.5c0,0,0-0.1,0-0.1c0,0,0,0.1,0.1,0.1
							c-0.1-0.1-0.2-0.3-0.3-0.3c0-0.2,0.1,0,0-0.1l0,0c0-0.4-0.5-0.5-0.6-1c0,0,0,0.1,0,0.1c-0.2-0.5-0.6-0.9-0.7-1.4
							c0-0.1-0.1-0.1-0.2-0.2l0.1-0.1l-0.2-0.1c-0.2-0.2,0-0.4-0.2-0.6l0,0.1c0-0.1-0.2-0.3-0.1-0.3c0,0-0.1,0-0.1,0l0,0l-0.2-0.2
							c-0.1-0.2,0.2-0.1,0.1-0.3c-0.1-0.1-0.2-0.2-0.3-0.2c0,0,0,0.1,0,0.1l-0.1-0.1c-0.1,0-0.3,0-0.2,0.3l0.1,0.1l0,0.1l-0.1-0.1
							c0,0.1,0,0.1,0.1,0.1c0,0,0,0.1,0,0.1l0.2,0.1c0,0-0.1,0-0.1,0.1c0.1,0,0.1-0.1,0.2,0c0,0.1-0.1,0.1,0,0.2c0,0-0.1,0-0.1,0
							c0.1,0.1,0.1,0.2,0.2,0.2c0,0.1,0.1,0.2,0,0.3c0,0,0.1,0.1,0.2,0.1c-0.2-0.1,0.1,0.2,0,0.3c0.2,0,0.2,0.3,0.4,0.4c0,0,0,0,0,0
							c0,0.1,0,0.1,0,0.2c0.1,0,0.2,0.1,0.3,0.1c0,0.2-0.1,0-0.2,0.1c0.1,0,0.2,0.1,0.2,0.1c0,0.1,0,0.1,0,0.2
							c0.1,0,0.1,0.1,0.2,0.1c0,0.1-0.1,0.1,0,0.2C18.9,25.5,18.8,25.4,18.8,25.4z M20.6,28.4C20.6,28.4,20.6,28.4,20.6,28.4
							C20.6,28.4,20.6,28.3,20.6,28.4C20.6,28.3,20.6,28.3,20.6,28.4z M20.7,28.6c0,0,0-0.1-0.1-0.1c0,0,0,0,0.1,0
							C20.7,28.5,20.7,28.6,20.7,28.6z M20.9,27.8C21,27.9,21,27.9,20.9,27.8C20.9,27.9,20.9,27.9,20.9,27.8
							C20.9,27.9,20.9,27.9,20.9,27.8C20.9,27.8,20.9,27.8,20.9,27.8z"/>
						<path fill="#808181" d="M20.8,27.8C20.8,27.8,20.8,27.8,20.8,27.8C20.8,27.8,20.8,27.8,20.8,27.8
							C20.8,27.8,20.8,27.8,20.8,27.8C20.8,27.8,20.8,27.8,20.8,27.8z"/>
						<path fill="#808181" d="M32.6,51.4L32.6,51.4C32.6,51.4,32.6,51.4,32.6,51.4C32.6,51.4,32.6,51.4,32.6,51.4z"/>
						<polygon fill="#808181" points="22.4,32.3 22.4,32.3 22.4,32.3 						"/>
						<path fill="#808181" d="M33.1,52.9C33.1,52.9,33.1,52.9,33.1,52.9C33.1,52.9,33.1,52.9,33.1,52.9z"/>
						<path fill="#808181" d="M33.4,53.5L33.4,53.5C33.4,53.6,33.4,53.6,33.4,53.5z"/>
						<path fill="#808181" d="M33.6,54C33.6,54,33.6,54,33.6,54C33.7,54,33.7,54,33.6,54L33.6,54z"/>
						<path fill="#808181" d="M29.7,46.5C29.7,46.5,29.7,46.5,29.7,46.5C29.7,46.5,29.7,46.5,29.7,46.5z"/>
						<path fill="#808181" d="M31,48.7C31,48.7,31,48.7,31,48.7C31,48.7,31,48.7,31,48.7z"/>
						<path fill="#808181" d="M28.4,44.1C28.4,44.1,28.4,44.1,28.4,44.1C28.4,44.1,28.4,44.1,28.4,44.1L28.4,44.1z"/>
						<path fill="#808181" d="M30.9,48.5c0,0,0,0.1,0.1,0.1C30.9,48.6,30.9,48.6,30.9,48.5z"/>
						<path fill="#808181" d="M34.6,56.1L34.6,56.1C34.6,56.1,34.6,56.1,34.6,56.1L34.6,56.1z"/>
						<path fill="#808181" d="M34.6,56.1L34.6,56.1C34.7,56.1,34.7,56.1,34.6,56.1z"/>
						<path fill="#808181" d="M34.7,56.2L34.7,56.2C34.7,56.2,34.7,56.2,34.7,56.2z"/>
						<path fill="#808181" d="M34.3,55.5L34.3,55.5C34.3,55.5,34.3,55.5,34.3,55.5z"/>
						<path fill="#808181" d="M34.2,55.3c0,0,0,0.1,0.1,0.2l0,0C34.3,55.4,34.3,55.3,34.2,55.3z"/>
						<path fill="#808181" d="M34.1,54.3l0.1,0.2c0,0,0-0.1,0.1,0C34.3,54.2,34.2,54.5,34.1,54.3z"/>
						<path fill="#808181" d="M33.9,53.8C34,53.9,34,53.8,33.9,53.8C33.9,53.7,33.9,53.7,33.9,53.8z"/>
						<path fill="#808181" d="M32.1,50.2L32.1,50.2C32.1,50.1,32.2,50.2,32.1,50.2z"/>
						<polygon fill="#808181" points="31.4,49.7 31.4,49.8 31.5,49.8 						"/>
						<polygon fill="#808181" points="31.7,49.1 31.7,49.1 31.6,49 						"/>
						<path fill="#808181" d="M28.6,43.1L28.6,43.1C28.6,43.2,28.7,43.1,28.6,43.1z"/>
						<path fill="#808181" d="M27.2,40.5c0,0,0-0.1,0-0.2C27.2,40.4,27.2,40.5,27.2,40.5z"/>
						<polygon fill="#808181" points="23.4,32.7 23.4,32.7 23.4,32.6 						"/>
					</g>
				</g>
			</g>
		</g>
	</g>
	<g>
		<g>
			<g>
				<g>
					<g>
						<path fill="#808181" d="M48.3,52.1C48.3,52.1,48.4,52.1,48.3,52.1L48.3,52.1L48.3,52.1z"/>
						<path fill="#808181" d="M48.5,51.7c0-0.1-0.1-0.2-0.2-0.1C48.4,51.6,48.4,51.6,48.5,51.7c0,0.1-0.1,0.2-0.1,0.1
							c0,0,0,0.1,0,0.1C48.5,51.9,48.5,51.8,48.5,51.7C48.5,51.6,48.5,51.7,48.5,51.7z"/>
						<path fill="#808181" d="M49,45.9L49,45.9C49,45.9,49,45.9,49,45.9z"/>
						<path fill="#808181" d="M49.3,42.3C49.3,42.3,49.3,42.3,49.3,42.3C49.3,42.3,49.3,42.3,49.3,42.3z"/>
						<path fill="#808181" d="M49.4,41.7C49.4,41.7,49.4,41.7,49.4,41.7C49.4,41.7,49.4,41.7,49.4,41.7z"/>
						<path fill="#808181" d="M49,45.9L49,45.9C49,45.8,49,45.8,49,45.9z"/>
						<path fill="#808181" d="M48.3,50.9C48.3,50.9,48.4,50.9,48.3,50.9C48.4,50.9,48.4,50.9,48.3,50.9
							C48.4,50.9,48.4,50.9,48.3,50.9z"/>
						<path fill="#808181" d="M49,47.5L49,47.5C49,47.5,49,47.5,49,47.5L49,47.5z"/>
						<path fill="#808181" d="M48.9,48.7c0,0-0.1,0-0.1-0.1C48.9,48.6,48.9,48.7,48.9,48.7C48.9,48.7,48.9,48.7,48.9,48.7z"/>
						<path fill="#808181" d="M48.7,50.6L48.7,50.6C48.7,50.6,48.7,50.6,48.7,50.6z"/>
						<path fill="#808181" d="M49.1,46.6C49.1,46.6,49.1,46.6,49.1,46.6C49.1,46.6,49.1,46.6,49.1,46.6z"/>
						<path fill="#808181" d="M50.6,12.5C50.6,12.5,50.7,12.5,50.6,12.5C50.6,12.5,50.6,12.5,50.6,12.5z"/>
						<path fill="#808181" d="M51.1,11.1L51.1,11.1C51.1,11.1,51.1,11.1,51.1,11.1L51.1,11.1z"/>
						<path fill="#808181" d="M49.6,40.5C49.6,40.5,49.6,40.5,49.6,40.5C49.6,40.6,49.6,40.6,49.6,40.5z"/>
						<path fill="#808181" d="M50.2,30.2c-0.1,0.1-0.1-0.2-0.2,0C50.1,30.2,50.1,30.4,50.2,30.2z"/>
						<path fill="#808181" d="M48.4,50.8C48.4,50.8,48.4,50.8,48.4,50.8C48.4,50.8,48.4,50.8,48.4,50.8z"/>
						<path fill="#808181" d="M50,30.2C50,30.2,50,30.2,50,30.2L50,30.2C50,30.2,50,30.2,50,30.2z"/>
						<path fill="#808181" d="M49.7,37.9C49.7,37.9,49.7,38,49.7,37.9C49.7,38,49.7,38,49.7,37.9z"/>
						<path fill="#808181" d="M49.5,39.9L49.5,39.9C49.5,39.8,49.5,39.9,49.5,39.9z"/>
						<path fill="#808181" d="M49.7,36.9C49.7,36.9,49.7,36.9,49.7,36.9C49.7,36.9,49.7,36.9,49.7,36.9
							C49.7,36.9,49.7,36.9,49.7,36.9z"/>
						<path fill="#808181" d="M49.7,35.9C49.7,35.9,49.7,35.9,49.7,35.9C49.7,35.9,49.7,35.9,49.7,35.9L49.7,35.9z"/>
						<path fill="#808181" d="M50.5,15.7C50.5,15.6,50.5,15.6,50.5,15.7C50.5,15.6,50.5,15.5,50.5,15.7z"/>
						<path fill="#808181" d="M48.4,50.9C48.4,50.8,48.4,50.8,48.4,50.9C48.4,50.8,48.4,50.8,48.4,50.9
							C48.4,50.9,48.4,50.9,48.4,50.9z"/>
						<path fill="#808181" d="M49.1,36.9l0-0.2C49.1,36.7,49.1,36.8,49.1,36.9z"/>
						<path fill="#808181" d="M50,23.1L50,23.1C50,23.1,50,23.1,50,23.1z"/>
						<path fill="#808181" d="M49.1,36.2C49.1,36.2,49.2,36.1,49.1,36.2c0.1-0.1,0-0.1,0-0.1L49.1,36.2z"/>
						<path fill="#808181" d="M50.6,15.6C50.6,15.6,50.6,15.6,50.6,15.6C50.6,15.6,50.6,15.6,50.6,15.6z"/>
						<path fill="#808181" d="M50.4,14.5c0,0.2,0.1,0.1,0.1,0.1c0,0.2-0.1,0.1-0.1,0.1c0,0.1,0.1,0.2,0.1,0.3c0,0,0,0,0,0
							c0.1,0.1,0,0.4,0.1,0.5c0,0,0,0,0,0c0.1,0,0.1,0,0.1,0c0,0.1,0.1,0.1,0,0.2c0,0,0,0,0-0.1l0,0.1c-0.1,0.1,0-0.1-0.1-0.1
							c0,0.1,0.1,0.3,0.1,0.4c-0.1,0,0-0.3-0.1-0.1l0-0.2c-0.2,0.1,0-0.1-0.1,0c0,0.2,0,0.3,0,0.5c0,0.1,0.1,0,0.1,0
							c0.1,0.3-0.2,0.2-0.1,0.5c0.1,0.1,0.2,0.1,0.1,0.3L50.4,17c0,0.2,0.1,0.1,0.1,0.4c0,0,0-0.2,0-0.1c-0.1,0.1,0.1,0.1,0,0.2
							l-0.1,0c0,0.2,0.1,0.5,0.1,0.8c0,0-0.1-0.1-0.1,0c0,0.3-0.1,0.7-0.1,1l0.1,0.1c0,0,0,0-0.1,0c0,0.1,0.1,0,0.1,0.1
							c0,0.1-0.1,0.1-0.1,0c0.1,0.2,0.1,0.6,0,0.8l0,0c0,0.2,0.2,0.2,0.1,0.4l0,0c-0.1,0.4,0,0.8-0.2,1.1c0.1,0.1-0.1,0.4,0.1,0.4
							c-0.1,0.2-0.1,0.1-0.2,0.5c0,0.1,0.1,0.1,0.1,0.2l-0.1,0l0.1,0.1L50,23l0,0.1c0,0,0-0.1,0.1-0.1c0,0.2-0.1,0.4-0.1,0.4l0,0.4
							c0,0,0-0.1-0.1-0.1c0.1,0.2-0.1,0,0,0.2c0,0,0,0,0.1,0c-0.1,0.1-0.1,0.3-0.1,0.4l-0.1,0c0,0.3,0,0.6,0,0.8
							c0-0.1,0.1-0.1,0.1,0l-0.1,0c0.1,0.1,0-0.1,0.1,0c0,0.1-0.1,0.1-0.1,0l0,0.1c0,0,0,0-0.1,0c0.1,0.1-0.1,0.2,0,0.3l0,0
							c0,0.3,0,0.4,0,0.7c0.1,0,0.1,0.1,0.1,0.2c0,0.2-0.1,0.4-0.1,0.6c0,0.2,0.1,0,0.1,0.1c-0.1,0-0.1,0.2-0.1,0.1
							c0,0.3,0,0.3,0,0.7c0,0,0-0.1,0.1,0c0,0.1,0,0.1-0.1,0.1l0,0c0.1,0.4-0.3,0.8-0.1,1.1l0,0l0.1,0.3c0,0.1,0-0.1-0.1,0
							c0.1,0.3,0,0.5,0,0.8c-0.2,0.2,0,0.7-0.2,1l0,0c0,0.1,0,0.1,0,0.1c0,0,0-0.1,0.1,0c0,0.6-0.2,1.2-0.2,1.9
							c0,0.2,0.2,0.1,0.1,0.4l-0.1-0.1c0.1,0.5-0.1,0.9,0,1.4c0,0,0,0,0-0.1c-0.1,0.1,0,0.4,0,0.4c0,0.1,0,0-0.1,0.1
							c0,0.1,0.1,0.2,0,0.3c0,0,0,0,0,0c0,0.1,0,0.3,0.1,0.2c0,0.2,0,0.3,0,0.5c0.1,0.1-0.1,0.3,0.1,0.3c-0.1,0-0.1,0.3-0.1,0.4
							c0,0,0,0.1-0.1,0c0,0.1,0,0.2,0.1,0.2c-0.2,0.2,0.1,0.5-0.1,0.6c0,0.4,0.1,0.7,0.1,1c-0.1,0,0-0.4-0.1-0.4
							c0,0.3,0.1,0.5,0.1,0.8c0,0.1-0.1,0-0.1-0.1c0,0.3,0,0.6,0,0.9c0,0,0,0,0-0.1c0,0.1,0,0.1,0,0.1l0-0.1
							c0.1-0.1,0.2,0.2,0.2,0.2c-0.2-0.1-0.1,0.3-0.3,0.1c0,0,0,0.1,0.1,0.1c0,0.1,0,0.1-0.1,0c0,0.2,0.1,0.1,0.1,0.3
							c0,0,0,0-0.1-0.1c0,0.1,0.1,0.2,0.1,0.3c0,0,0,0,0,0c0,0.3,0.1,0.4,0,0.7c-0.1-0.1,0,0.1-0.1,0.1l0,0.2l0.1-0.1
							c0,0.1,0.1,0.3,0,0.4l0-0.1l0,0.2l0-0.1c0,0.1,0.1,0,0.1,0.2c0,0,0,0.1-0.1,0.2c0,0,0,0,0,0c0,0.1,0.1,0.1,0,0.2
							c0,0-0.1,0-0.1,0c0.1,0.1,0,0.3,0.1,0.4c0,0-0.1,0-0.1,0l0.1,0.1c0,0.1,0,0.1-0.1,0.1c0,0.2,0.1-0.1,0.1,0.2c0,0,0,0,0,0
							c0,0.2,0,0.4,0,0.6c-0.1,0.1,0-0.2-0.1-0.1c0,0.3,0.1,0.6,0,0.9l0-0.1c0.1,0-0.1,0.2,0,0.3c0,0-0.1-0.1-0.1,0
							c0,0.2,0,0.4,0,0.7l0,0c0,0.1,0,0.3-0.1,0.4c0,0,0,0.1,0.1,0.1c-0.2,0.4,0.1,0.7-0.1,1c0,0,0-0.1,0-0.1l0,0.3
							c0.1,0,0,0,0.1-0.1c0,0,0.1,0.1,0.1,0.2c0-0.1-0.1,0-0.1,0c0,0,0,0,0.1,0c-0.1,0.1,0.1,0,0,0.2l0,0c0,0.1,0.1,0.1,0,0.2
							c-0.1,0,0-0.1-0.1-0.1c0,0.1,0.1,0.2,0,0.3c0-0.1,0-0.1,0-0.2c-0.1,0.1-0.1,0.1-0.1,0.2l0,0l-0.1,0.2l0,0
							c0.2,0.2,0,0.3,0.1,0.5c-0.1-0.2-0.1,0-0.1-0.1c0,0-0.1,0.1-0.1,0.1c0.1,0.1-0.1,0.1,0,0.3c0,0,0,0.1-0.1,0.1c0,0.1,0,0,0.1,0
							c0.1,0.2-0.1,0.4,0,0.7c0,0.2,0.1,0.3,0.2,0.5c0,0.1-0.1-0.1-0.1-0.1c0,0.1,0,0.2,0,0.3c0,0,0,0-0.1,0c0,0.1,0.1,0.1,0,0.2
							c0,0-0.1,0-0.1-0.1c0,0.1,0.1,0.2,0.1,0.3c0,0-0.1-0.1-0.1-0.1c0,0.1,0,0.3,0.1,0.4l0-0.1c0,0-0.1,0-0.1,0
							c-0.1-0.1,0-0.1,0.1-0.1l0,0.1c0.2-0.1,0-0.3,0-0.5l0.1,0.1l-0.1-0.2c0,0,0.1-0.1,0.1,0c0.1-0.1,0-0.1,0-0.2c0,0,0,0,0,0
							l0-0.1c0,0,0.1,0,0.1,0.1c0.1-0.2-0.1-0.3,0-0.4l0,0c0-0.3-0.1,0-0.2-0.2l0.2-0.1l-0.1,0c0,0,0-0.1,0-0.1c-0.1-0.1,0,0-0.1,0
							c0.1-0.1,0-0.4,0.1-0.4c-0.1-0.1-0.1,0.1-0.1,0c0.1,0,0-0.2,0.1-0.3c0.1,0,0,0.2,0.1,0c-0.1-0.1,0-0.2,0-0.3
							c-0.1,0,0-0.2,0-0.4c0,0,0.1-0.3,0.1-0.5l0,0c-0.1,0-0.1-0.2-0.1-0.3c0.1,0,0.1,0,0.1,0.1l0-0.1c0,0,0-0.1-0.1-0.1l0.1,0
							c0-0.1-0.1-0.3,0-0.5c-0.1,0-0.2,0.1-0.2-0.1c0,0,0.1,0,0.1,0c0,0,0-0.1,0-0.1l0.1,0.1c0-0.1-0.1,0,0-0.1c0.1,0,0,0,0.1,0
							c0,0,0,0.1,0,0.1c0-0.1,0.1-0.2,0.1-0.2c0,0-0.1,0-0.1-0.1c0-0.1,0.1,0,0.1-0.1c0,0,0-0.1-0.1-0.1c0,0,0,0,0.1-0.1
							c0-0.1,0-0.4-0.1-0.3l0,0c0,0,0,0,0,0c0,0,0,0,0,0l0,0c-0.1-0.3,0.1-0.5,0.1-0.8l0,0c0-0.2,0-0.3,0-0.4c0,0,0.1-0.1,0.1-0.1
							c0-0.1,0-0.1,0-0.3c0,0.1,0,0,0,0.1c0-0.1,0.1-0.2,0-0.3c0.1,0.1,0.1-0.1,0.1-0.2L49.2,44c0-0.1,0-0.1,0-0.2l0.1,0
							c0.1-0.3-0.2-0.6,0-0.8c-0.1-0.1-0.1,0.2-0.1,0.1c0-0.1,0.2-0.3,0.2-0.3c0.1-0.2-0.1-0.2-0.1-0.4c0,0-0.1,0-0.1-0.1
							c0-0.1,0.1-0.2,0.2-0.1c0,0,0,0,0,0c0,0,0,0.1,0.1,0.1l0,0c0-0.1,0-0.3,0.1-0.2c0-0.1-0.1,0-0.1,0c0.1-0.2,0-0.3,0.1-0.5
							c0,0-0.1,0.1-0.1,0c0.1-0.3-0.1-0.1-0.1-0.3c0.1-0.1,0.1,0,0.1-0.1c0-0.1,0.1,0,0.1,0c-0.1-0.2,0.1-0.3,0.1-0.4l0,0.1
							c0-0.1,0-0.1,0-0.1l-0.1,0c0-0.1,0-0.1,0-0.1c0-0.1-0.1,0-0.2-0.1c0-0.1,0-0.2,0.1-0.2c0,0.2,0.1,0,0.1,0.2c0,0,0-0.1,0-0.1
							c0,0,0,0,0,0c0.1-0.2-0.1-0.1-0.1-0.3c0,0,0.1,0,0.1-0.1c0,0.1-0.1,0-0.1,0c0-0.1,0-0.2,0-0.2l0,0.1c0,0,0-0.1,0-0.2
							c0,0,0,0.1,0,0.1c-0.1-0.1,0.1-0.2,0.1-0.4c0-0.1,0.1,0,0.1-0.1c-0.1-0.2,0.1-0.2,0-0.4c-0.1,0-0.1,0.1-0.1-0.1l0,0.3L49.5,39
							c0,0.1,0,0.2,0,0.2c0-0.1,0-0.1-0.1,0c0.1-0.1,0-0.2,0-0.4l0.2,0c0.1-0.2-0.1-0.4,0-0.6l0,0.1c-0.1,0,0-0.2,0-0.3
							c0.1,0,0.1,0,0.1-0.1c0,0,0-0.2-0.1-0.2l0.1-0.1c0-0.2-0.1-0.3-0.1-0.5c0.1,0.1,0.1,0,0.1,0.1c0-0.1,0-0.1,0-0.1
							c0,0-0.1-0.2,0-0.3c0,0-0.1,0-0.1-0.1c0,0,0,0,0,0c0,0,0-0.1-0.1-0.1c0.2-0.2,0-0.6,0.2-0.8c0-0.2,0-0.3,0-0.5c0,0,0,0,0,0
							c0.1-0.2-0.1-0.1-0.1-0.3c0.1-0.1,0,0.1,0.1,0.1c0.2,0,0-0.3,0.1-0.4l0,0c0.1-0.1,0-0.3,0-0.5c0,0,0,0,0,0
							c-0.1-0.1-0.1-0.4-0.1-0.5c0.1,0.1,0,0.1,0.1,0.1c0-0.1-0.1,0-0.1-0.1c0,0,0.1-0.2,0.2-0.2l0,0.1c0.1-0.1,0-0.2,0-0.3l0,0
							c0-0.2-0.1-0.2-0.1-0.5l0,0c-0.1-0.1,0.1-0.1,0-0.2l0.1,0c0-0.1-0.1-0.3-0.1-0.5c0.1,0.1,0.1,0.3,0.1,0.4c0-0.1,0-0.3,0-0.3
							c0,0,0,0.1,0,0.1c-0.1-0.1-0.1-0.3-0.1-0.4c0.2,0,0.1-0.5,0.3-0.6c-0.1-0.3,0.1-0.6,0.1-1c-0.2,0.1,0-0.1-0.2-0.1
							c0-0.1,0-0.1,0-0.1l0.1-0.2c0.1-0.1,0,0.1,0.1,0.1c0-0.2,0.1-0.1,0.1-0.2c-0.1,0-0.1-0.1-0.1-0.2l-0.1,0.1
							c-0.1-0.3,0.2-0.2,0.1-0.5l0,0.1c0-0.1,0-0.5-0.1-0.6c0,0,0.1-0.1,0.1,0c0-0.3-0.1-0.7,0-1l0,0c0-0.1-0.1-0.1,0-0.2
							c0,0,0,0,0,0c0,0-0.1-0.2,0-0.2l0,0.1c0.1-0.3-0.1-0.5-0.1-0.7c0.1,0,0.2-0.2,0.2-0.4l0,0c0-0.4-0.1-0.6-0.1-1
							c0.1-0.2,0.1-0.7,0.2-1c0,0-0.1,0-0.1-0.1c0-0.1-0.1-0.2,0-0.2l0,0c0.1-0.1,0.1-0.2,0.1-0.3l-0.1,0c0.2-0.3,0-0.9,0.2-1
							c0-0.1,0-0.2-0.1-0.3l0.1,0c0-0.2,0.1-0.3,0-0.6l0.1,0.1c0-0.2-0.2-0.2-0.2-0.3l0.1,0c0-0.3,0.1-0.5,0-0.8c0,0,0,0,0.1,0.1
							c0-0.1,0.1-0.5-0.1-0.4c0.1,0,0-0.3,0-0.4l0.1,0c-0.1-0.1-0.1-0.1-0.1-0.3c0,0,0.1,0,0,0c0-0.1-0.1-0.1,0-0.3l0,0.1
							c0-0.1,0-0.1-0.1-0.2c0-0.1,0-0.3,0.1-0.3c0,0-0.1-0.1-0.1-0.2c0,0,0,0,0,0c0.1-0.2-0.1-0.3,0-0.5c0,0,0,0,0,0
							c0,0.2,0,0.3,0,0.3c0.1,0,0.1-0.1,0.2,0c0-0.1-0.1-0.3-0.1-0.5c0,0,0,0,0,0l0,0c0,0,0-0.1,0-0.1c0,0,0-0.1,0-0.1
							c0.1,0,0-0.2,0-0.2c-0.1,0-0.1-0.1-0.1,0c0,0,0,0,0,0.1c0,0,0,0,0,0c0,0,0,0,0,0c0,0,0,0.1,0,0.2c0-0.1-0.1-0.1,0-0.2
							c0,0-0.1-0.1-0.1-0.1c0.1-0.1,0.2-0.3,0.3-0.3c0-0.2,0-0.5-0.1-0.7c0-0.1,0-0.1,0.1-0.1c0,0,0,0.1,0,0.1c0-0.1,0-0.4-0.1-0.4
							c0.1-0.2,0.1,0.1,0.1-0.1l0,0c0.2-0.4-0.2-0.7,0-1.2c0,0,0,0,0,0.1c0.1-0.5,0-1.1,0.2-1.7c0-0.2,0-0.2-0.1-0.3l0.1,0l-0.1-0.2
							c-0.1-0.2,0.2-0.4,0.1-0.7l-0.1,0c0-0.1,0-0.3,0.1-0.3c0,0-0.1,0,0-0.1l0,0l-0.1-0.3c0-0.2,0.2,0,0.2-0.2
							c0-0.1-0.1-0.3-0.1-0.3c0,0,0,0.1-0.1,0.1l0-0.1c-0.1,0-0.3-0.1-0.4,0.1l0.1,0.2l-0.1,0.1l0-0.1c-0.1,0.1,0,0.1,0,0.2
							c0,0-0.1,0-0.1,0.1l0.1,0.2c-0.1,0-0.1-0.1-0.1,0c0.1,0.1,0.1-0.1,0.1,0.1c-0.1,0.1-0.1,0.1-0.1,0.1c0,0-0.1,0-0.1,0
							c0,0.1,0,0.2,0.1,0.3c-0.1,0.1,0,0.3-0.1,0.3c0,0,0.1,0.2,0.1,0.2c-0.1-0.2,0,0.3-0.2,0.2c0.1,0.1,0,0.4,0.1,0.6c0,0,0,0,0,0
							c0,0.1-0.1,0.1-0.1,0.2c0.1,0,0.1,0.2,0.2,0.3c-0.1,0.1-0.1-0.1-0.2-0.1c0.1,0,0.1,0.2,0.1,0.2c-0.1,0.1,0,0.1-0.1,0.1
							c0.1,0,0,0.1,0.1,0.2C50.5,14.5,50.5,14.4,50.4,14.5C50.5,14.6,50.4,14.5,50.4,14.5z M50.4,18.2
							C50.4,18.2,50.4,18.2,50.4,18.2C50.4,18.2,50.4,18.2,50.4,18.2C50.4,18.2,50.4,18.2,50.4,18.2z M50.4,18.5c0,0,0-0.1,0-0.1
							C50.5,18.4,50.5,18.4,50.4,18.5C50.5,18.4,50.4,18.5,50.4,18.5z M51,17.9C51,18,51,18,51,17.9C51,17.9,51,17.9,51,17.9
							C51,17.9,51,17.9,51,17.9C51,17.9,51,17.9,51,17.9z"/>
						<path fill="#808181" d="M50.9,17.8C50.9,17.8,50.9,17.8,50.9,17.8C50.9,17.8,50.9,17.8,50.9,17.8
							C50.9,17.8,50.9,17.8,50.9,17.8C50.9,17.8,50.9,17.8,50.9,17.8z"/>
						<path fill="#808181" d="M49,45.9L49,45.9C49,45.9,49,45.9,49,45.9C49,45.9,49,45.9,49,45.9z"/>
						<polygon fill="#808181" points="50,22.8 50,22.8 50,22.8 						"/>
						<path fill="#808181" d="M48.6,47.6C48.6,47.6,48.6,47.6,48.6,47.6C48.6,47.6,48.6,47.6,48.6,47.6z"/>
						<path fill="#808181" d="M48.6,48.3l0,0.1C48.6,48.4,48.6,48.4,48.6,48.3z"/>
						<path fill="#808181" d="M48.5,48.9C48.5,48.9,48.5,48.9,48.5,48.9C48.5,48.9,48.5,48.9,48.5,48.9L48.5,48.9z"/>
						<path fill="#808181" d="M49,39.9C49,39.9,49,39.9,49,39.9C49,39.8,49,39.8,49,39.9z"/>
						<path fill="#808181" d="M49,42.6C49,42.5,49,42.5,49,42.6C48.9,42.5,48.9,42.6,49,42.6z"/>
						<path fill="#808181" d="M49.1,36.9C49.1,36.9,49.1,36.9,49.1,36.9C49.1,36.9,49.1,36.9,49.1,36.9L49.1,36.9z"/>
						<path fill="#808181" d="M49,42.4c0,0,0,0.1,0,0.1C49,42.4,49,42.4,49,42.4z"/>
						<path fill="#808181" d="M48.3,51.4L48.3,51.4C48.3,51.4,48.3,51.4,48.3,51.4L48.3,51.4z"/>
						<path fill="#808181" d="M48.3,51.4L48.3,51.4C48.3,51.4,48.3,51.4,48.3,51.4z"/>
						<path fill="#808181" d="M48.3,51.5L48.3,51.5C48.3,51.4,48.3,51.5,48.3,51.5z"/>
						<path fill="#808181" d="M48.4,50.6L48.4,50.6C48.4,50.6,48.4,50.6,48.4,50.6z"/>
						<path fill="#808181" d="M48.4,50.4c0,0.1-0.1,0.1-0.1,0.2l0,0C48.3,50.6,48.4,50.4,48.4,50.4z"/>
						<path fill="#808181" d="M48.8,49.4l0,0.2c0,0,0.1-0.1,0.1,0C48.9,49.4,48.8,49.7,48.8,49.4z"/>
						<path fill="#808181" d="M48.9,48.9C48.9,49,48.9,48.9,48.9,48.9C48.9,48.8,48.9,48.8,48.9,48.9z"/>
						<path fill="#808181" d="M49.2,44.6L49.2,44.6C49.2,44.5,49.2,44.6,49.2,44.6z"/>
						<polygon fill="#808181" points="48.8,43.7 48.8,43.8 48.9,43.8 						"/>
						<polygon fill="#808181" points="49.4,43.3 49.4,43.3 49.4,43.2 						"/>
						<path fill="#808181" d="M49.8,36.1L49.8,36.1C49.7,36.2,49.8,36.2,49.8,36.1z"/>
						<path fill="#808181" d="M49.9,33c0,0,0.1-0.1,0-0.2C49.9,32.9,49.9,32.9,49.9,33z"/>
						<polygon fill="#808181" points="50.6,23.7 50.7,23.7 50.6,23.6 						"/>
					</g>
				</g>
			</g>
		</g>
	</g>
	<g>
		<g>
			<g>
				<g>
					<g>
						<path fill="#808181" d="M52.9,53.3C52.9,53.3,53,53.4,52.9,53.3L52.9,53.3L52.9,53.3z"/>
						<path fill="#808181" d="M53.2,53c0-0.1-0.1-0.2-0.2-0.2C53.1,52.9,53,52.9,53.2,53c-0.1,0.1-0.1,0.1-0.2,0.1c0,0,0,0.1,0,0.1
							C53.1,53.2,53.1,53.1,53.2,53C53.1,53,53.2,53,53.2,53z"/>
						<path fill="#808181" d="M55,47.6L55,47.6C55,47.6,55,47.6,55,47.6z"/>
						<path fill="#808181" d="M56.1,44.3C56.1,44.3,56.1,44.3,56.1,44.3C56.1,44.3,56.1,44.3,56.1,44.3z"/>
						<path fill="#808181" d="M56.4,43.7C56.4,43.8,56.4,43.8,56.4,43.7C56.4,43.8,56.4,43.7,56.4,43.7z"/>
						<path fill="#808181" d="M55,47.6L55,47.6C55,47.5,55,47.6,55,47.6z"/>
						<path fill="#808181" d="M53.2,52.2C53.2,52.2,53.2,52.2,53.2,52.2C53.2,52.2,53.2,52.2,53.2,52.2
							C53.2,52.2,53.2,52.2,53.2,52.2z"/>
						<path fill="#808181" d="M54.6,49.1L54.6,49.1C54.6,49.2,54.6,49.2,54.6,49.1L54.6,49.1z"/>
						<path fill="#808181" d="M54.3,50.3C54.3,50.2,54.2,50.2,54.3,50.3C54.2,50.2,54.2,50.2,54.3,50.3
							C54.2,50.3,54.2,50.3,54.3,50.3z"/>
						<path fill="#808181" d="M53.6,52L53.6,52C53.6,52,53.6,52,53.6,52z"/>
						<path fill="#808181" d="M54.9,48.3C54.9,48.3,54.9,48.3,54.9,48.3C54.9,48.3,54.9,48.3,54.9,48.3z"/>
						<path fill="#808181" d="M64.2,16.4C64.2,16.4,64.3,16.4,64.2,16.4C64.2,16.4,64.2,16.4,64.2,16.4z"/>
						<path fill="#808181" d="M65,15.2L65,15.2C65,15.2,65,15.2,65,15.2L65,15.2z"/>
						<path fill="#808181" d="M56.8,42.7C56.8,42.7,56.8,42.7,56.8,42.7C56.8,42.8,56.8,42.7,56.8,42.7z"/>
						<path fill="#808181" d="M59.7,33.1c-0.1,0.1,0-0.2-0.2-0.1C59.6,33,59.7,33.2,59.7,33.1z"/>
						<path fill="#808181" d="M53.2,52.2C53.2,52.1,53.2,52.1,53.2,52.2C53.2,52.1,53.2,52.1,53.2,52.2z"/>
						<path fill="#808181" d="M59.6,33C59.6,33,59.6,33,59.6,33L59.6,33C59.6,33,59.6,33,59.6,33z"/>
						<path fill="#808181" d="M57.5,40.3C57.5,40.3,57.5,40.3,57.5,40.3C57.5,40.3,57.5,40.3,57.5,40.3z"/>
						<path fill="#808181" d="M56.8,42.1L56.8,42.1C56.8,42,56.8,42,56.8,42.1z"/>
						<path fill="#808181" d="M57.7,39.3C57.7,39.3,57.7,39.3,57.7,39.3C57.7,39.3,57.7,39.3,57.7,39.3
							C57.7,39.3,57.7,39.3,57.7,39.3z"/>
						<path fill="#808181" d="M58,38.4C58,38.4,58,38.4,58,38.4C58,38.4,58,38.4,58,38.4L58,38.4z"/>
						<path fill="#808181" d="M63.4,19.4C63.4,19.3,63.4,19.3,63.4,19.4C63.4,19.3,63.4,19.2,63.4,19.4z"/>
						<path fill="#808181" d="M53.2,52.2C53.2,52.2,53.2,52.2,53.2,52.2C53.2,52.2,53.2,52.2,53.2,52.2
							C53.2,52.2,53.2,52.2,53.2,52.2z"/>
						<path fill="#808181" d="M57.1,39.1l0.1-0.2C57.2,39,57.1,39,57.1,39.1z"/>
						<path fill="#808181" d="M61.2,26.3L61.2,26.3C61.2,26.3,61.2,26.3,61.2,26.3z"/>
						<path fill="#808181" d="M57.3,38.5C57.4,38.5,57.4,38.4,57.3,38.5C57.4,38.4,57.4,38.4,57.3,38.5L57.3,38.5z"/>
						<path fill="#808181" d="M63.4,19.3C63.4,19.3,63.4,19.3,63.4,19.3C63.4,19.3,63.4,19.3,63.4,19.3z"/>
						<path fill="#808181" d="M63.6,18.3c0,0.1,0.1,0.1,0.1,0.1c0,0.2-0.1,0.1-0.2,0.1c0,0.1,0.1,0.2,0,0.3c0,0,0,0,0,0
							c0,0.1-0.1,0.3,0,0.5c0,0,0,0,0,0c0.1,0,0.1,0,0.1,0c0,0.1,0,0.1,0,0.1c0,0,0-0.1,0-0.1l0,0.1c-0.1,0,0-0.1-0.1-0.1
							c0,0.1,0,0.3,0,0.4c-0.1,0,0-0.3-0.1-0.1l0.1-0.1c-0.2,0.1,0-0.1-0.1,0c-0.1,0.2,0,0.2-0.1,0.5c0,0.1,0.1,0,0.1,0.1
							c0,0.3-0.3,0.2-0.2,0.4c0,0.1,0.1,0.1,0,0.3L63,20.6c-0.1,0.2,0.1,0.2,0,0.4c0-0.1,0-0.2,0-0.1c-0.1,0.1,0,0.1,0,0.2l-0.1,0
							c-0.1,0.2-0.1,0.5-0.1,0.7c0,0,0-0.1-0.1,0c-0.1,0.3-0.2,0.6-0.4,0.9l0,0.1c0,0,0,0-0.1,0c-0.1,0.1,0,0,0.1,0.1
							c0,0.1-0.1,0.1-0.1,0c0,0.2,0,0.6-0.2,0.8l0,0c-0.1,0.2,0.1,0.2,0,0.4l0,0c-0.1,0.3-0.2,0.8-0.4,1c0.1,0.1-0.2,0.3,0,0.4
							c-0.1,0.2-0.1,0.1-0.3,0.4c0,0.1,0.1,0.1,0,0.2l-0.1,0l0,0.2l-0.1,0l0,0.1c0,0,0.1-0.1,0.1-0.1c0,0.2-0.2,0.3-0.2,0.3l0,0.4
							c0,0,0-0.1,0-0.1c0,0.2-0.1,0-0.1,0.2c0,0,0,0,0.1,0c-0.1,0.1-0.1,0.2-0.2,0.4l0,0c-0.1,0.2-0.1,0.5-0.2,0.8
							c0.1-0.1,0.1,0,0.1,0l-0.1,0c0,0.1,0.1-0.1,0.1,0.1c0,0.1-0.1,0-0.1,0l0,0.1c0,0,0,0-0.1-0.1c0,0.1-0.2,0.2-0.1,0.3l0,0
							c-0.1,0.3-0.1,0.4-0.2,0.6c0.1,0,0,0.1,0.1,0.2c-0.1,0.2-0.2,0.3-0.2,0.5c0,0.2,0,0.1,0.1,0.1c-0.1,0-0.1,0.2-0.1,0.1
							c-0.1,0.2-0.1,0.3-0.1,0.6c0,0,0.1-0.1,0.1,0c0,0.1-0.1,0.1-0.1,0.1l0,0c0,0.4-0.4,0.7-0.4,1l0,0l0,0.3c-0.1,0.1,0-0.1-0.1,0
							c0,0.3-0.2,0.5-0.2,0.7c-0.3,0.1-0.2,0.7-0.4,0.9l0.1,0c0,0.1-0.1,0.1-0.1,0.1c0,0,0.1-0.1,0.1,0c-0.1,0.6-0.4,1.1-0.7,1.7
							c-0.1,0.2,0.2,0.2,0,0.4l-0.1-0.1c0,0.5-0.3,0.9-0.3,1.3c0,0,0,0,0-0.1c-0.1,0.1-0.1,0.3-0.1,0.3c0,0.1-0.1,0-0.1,0
							c-0.1,0.1,0,0.2-0.1,0.3c0,0,0,0,0,0c0,0.1-0.1,0.3,0,0.2c-0.1,0.1-0.1,0.3-0.1,0.4c0.1,0.1-0.1,0.3,0,0.3
							c-0.1,0-0.2,0.2-0.2,0.4c0,0-0.1,0.1-0.1,0c0,0.1,0,0.2,0,0.2c-0.2,0.2,0,0.5-0.2,0.5c0,0.4-0.1,0.7-0.2,1
							c-0.1,0,0.1-0.3,0-0.4c0,0.3,0,0.5-0.1,0.8c0,0.1,0-0.1-0.1-0.1c0,0.3-0.2,0.6-0.2,0.8c0,0,0,0,0-0.1c0,0.1-0.1,0.1,0,0.1
							l0-0.1c0.1-0.1,0.1,0.3,0.1,0.3c-0.1-0.1-0.1,0.2-0.3,0c0,0,0,0.1,0.1,0.1c0,0-0.1,0.1-0.1,0c0,0.2,0,0.1,0,0.3
							c0,0,0,0-0.1-0.1c0,0.1,0,0.2,0,0.3c0,0,0,0,0,0c-0.1,0.2,0,0.4-0.1,0.7c-0.1-0.1-0.1,0.1-0.2,0.1l0,0.1l0.1,0
							c0,0.1,0,0.3-0.1,0.3l0-0.1l-0.1,0.2l0.1-0.1c0,0.1,0.1,0,0,0.2c0,0,0,0.1-0.1,0.2c0,0,0,0,0,0c0,0.1,0,0.1,0,0.2
							c0,0-0.1-0.1-0.1,0c0.1,0.1-0.1,0.3,0,0.4c0,0-0.1,0-0.1,0l0.1,0.1c0,0.1-0.1,0.1-0.1,0c-0.1,0.2,0.1,0,0,0.2c0,0,0,0,0,0
							c-0.1,0.2-0.1,0.4-0.2,0.6c-0.1,0,0-0.2-0.1-0.1c-0.1,0.3-0.1,0.6-0.2,0.8l0,0c0.1,0.1-0.1,0.2-0.1,0.3c0,0-0.1-0.1-0.1-0.1
							c-0.1,0.2-0.1,0.4-0.1,0.7l0,0c-0.1,0.1-0.1,0.3-0.2,0.4c0,0,0,0.1,0.1,0.1c-0.3,0.3-0.1,0.7-0.4,1c0,0,0-0.1,0-0.1l0,0.3
							c0.1,0,0,0,0.1-0.1c0,0,0,0.1,0,0.2c0-0.1-0.1,0-0.1,0c0,0,0,0,0.1,0c-0.2,0.1,0.1,0.1,0,0.2l0,0c0,0.1,0,0.2,0,0.2
							c-0.1,0,0-0.1-0.1-0.1c0,0.1,0.1,0.3,0,0.3c0-0.1,0-0.1,0-0.2C54,49.8,54,49.8,54,49.9l0,0L53.9,50l0,0c0.1,0.2-0.1,0.3,0,0.5
							c-0.1-0.2-0.1,0-0.1-0.1c0,0-0.1,0.1-0.1,0.1c0,0.1-0.1,0.1,0,0.3c0,0,0,0.1-0.1,0.1c0,0.1,0.1,0,0.1,0c0,0.2-0.2,0.4-0.2,0.7
							c0,0.2,0.1,0.3,0,0.5c-0.1,0.1-0.1-0.1-0.1-0.1c-0.1,0.1-0.1,0.2-0.1,0.3c0,0,0,0-0.1,0c0,0.1,0.1,0.1,0,0.2
							c0,0-0.1-0.1-0.1-0.1c0,0.1,0,0.2,0,0.3c-0.1,0,0-0.1-0.1-0.1c0,0.1,0,0.3,0,0.4l0-0.1c0,0-0.1,0-0.1,0c0-0.1,0.1-0.1,0.1-0.1
							l0,0.1c0.2,0,0.1-0.3,0.1-0.4l0.1,0.1l0-0.2c0,0,0.1,0,0.1,0.1c0.1-0.1,0-0.1,0.1-0.2c0,0,0,0,0,0l0-0.1c0,0,0.1,0,0,0.1
							c0.1-0.2,0-0.3,0.1-0.4l0,0c0-0.3-0.1,0-0.1-0.3l0.2-0.1l-0.1,0c0,0,0-0.1,0.1-0.1c0-0.1,0,0-0.1-0.1c0.1-0.1,0.1-0.3,0.2-0.3
							c0-0.1-0.1,0.1-0.1,0c0.1,0,0-0.2,0.1-0.3c0.1,0.1,0,0.2,0.1,0.1c-0.1-0.1,0.1-0.2,0.1-0.3c-0.1,0,0-0.2,0-0.4
							c0,0,0.1-0.3,0.2-0.4l0,0c-0.1-0.1,0-0.2,0-0.3c0.1,0,0.1,0,0.1,0.1l0-0.1c0,0,0-0.1,0-0.1l0.1,0c0-0.1,0-0.3,0.1-0.5
							c-0.1,0-0.2,0.1-0.2-0.1c0,0,0.1,0,0.1,0.1c0,0,0-0.1,0-0.1l0,0.1c0.1-0.1,0-0.1,0-0.1c0.1,0,0.1,0,0.1,0c0,0,0,0.1,0,0.1
							c0-0.1,0.1-0.1,0.1-0.2c0,0-0.1,0-0.1-0.1c0-0.1,0.1,0,0.1-0.1c0,0,0-0.1,0-0.1c0,0,0.1,0,0.1,0c0-0.1,0.1-0.3,0-0.3l0,0
							c0,0,0,0,0,0c0,0,0,0,0,0l0,0c0-0.3,0.2-0.5,0.2-0.7l0,0c0-0.1,0.1-0.3,0.1-0.4c0,0,0.1-0.1,0.1-0.1c0-0.1,0-0.1,0.1-0.3
							c0,0.1,0.1,0,0,0.1c0.1-0.1,0.1-0.2,0.1-0.3c0.1,0.1,0.1-0.1,0.1-0.2l-0.1,0.1c0-0.1,0-0.1,0.1-0.2l0.1,0.1
							c0.2-0.3,0-0.6,0.2-0.7c0-0.1-0.1,0.1-0.1,0.1c0.1-0.1,0.2-0.2,0.2-0.3c0.1-0.2-0.1-0.2,0-0.4c0,0-0.1,0-0.1-0.1
							c0.1-0.1,0.2-0.1,0.2,0c0,0,0,0,0,0c0,0,0,0.1,0,0.1l0,0c0.1-0.1,0.1-0.2,0.1-0.2c0-0.1,0-0.1-0.1,0c0.1-0.2,0.1-0.3,0.2-0.4
							c0,0-0.1,0-0.1,0c0.1-0.2,0-0.1,0-0.3c0.1-0.1,0.1,0.1,0.1-0.1c0.1-0.1,0.1,0,0.1,0.1c0-0.2,0.1-0.3,0.2-0.4l0,0.1
							c0-0.1,0-0.1,0-0.1l-0.1,0c0,0,0-0.1,0.1-0.1c0-0.1-0.1,0-0.1-0.1c0.1-0.1,0-0.2,0.1-0.2c-0.1,0.2,0.1,0,0,0.2
							c0,0,0-0.1,0-0.1c0,0,0,0,0,0c0.1-0.2-0.1-0.1,0-0.3c0,0,0.1,0,0.1-0.1c0,0.1-0.1,0-0.1-0.1c0.1-0.1,0-0.1,0-0.2l0,0.1
							c0,0,0-0.1,0-0.2c0,0,0,0.1,0,0.1c-0.1-0.1,0.2-0.2,0.1-0.4c0.1-0.1,0.1,0,0.1,0c0-0.2,0.1-0.1,0.1-0.3c-0.1,0-0.1,0-0.1-0.1
							l0,0.3l0-0.2c0,0.1,0,0.2,0,0.2c0-0.1,0-0.1-0.1-0.1c0.1-0.1,0-0.2,0.1-0.3l0.2,0.1c0.1-0.2,0-0.4,0.1-0.6l-0.1,0.1
							c-0.1-0.1,0-0.2,0-0.2c0,0,0.1,0,0.1,0c0,0,0.1-0.2,0-0.2l0.1-0.1c0.1-0.2-0.1-0.3,0-0.5c0,0.1,0.1,0,0.1,0.1
							c0-0.1,0-0.1,0-0.1c0,0,0-0.2,0.1-0.2c0,0-0.1-0.1,0-0.1c0,0,0,0,0,0c0,0,0-0.1-0.1-0.1c0.2-0.2,0.2-0.6,0.4-0.7
							c0-0.1,0.1-0.3,0.1-0.5c0,0,0,0,0,0c0.1-0.2-0.1-0.2,0-0.3c0.1-0.1,0,0.1,0.1,0.1c0.2,0,0.1-0.3,0.2-0.4l0,0
							c0.1-0.1,0-0.3,0.1-0.4c0,0,0,0,0,0c0-0.1,0-0.4,0-0.5c0.1,0.1,0,0.1,0.1,0.1c0-0.1-0.1,0-0.1-0.2c0.1,0,0.1-0.1,0.2-0.1
							l0,0.1c0.1,0,0.1-0.2,0.1-0.2l0,0c0.1-0.2,0-0.3,0-0.5l0,0c-0.1-0.2,0.1-0.1,0.1-0.2l0.1,0c0-0.1,0-0.3,0-0.5
							c0.1,0.1,0,0.3,0,0.4c0-0.1,0.1-0.3,0-0.3c0,0,0,0.1,0,0.1c0-0.1,0-0.3,0-0.4c0.2,0.1,0.2-0.4,0.4-0.5c0-0.3,0.2-0.6,0.3-0.9
							c-0.2,0.1,0-0.1-0.1-0.1c0-0.1,0-0.1,0-0.1l0.2-0.2c0.1,0,0,0.1,0.1,0.1c0.1-0.2,0.1-0.1,0.2-0.2c-0.1,0-0.1-0.1,0-0.2
							l-0.1,0.1c0-0.3,0.2-0.2,0.2-0.4l0,0.1c0-0.1,0.1-0.5,0.1-0.6c0,0,0.1,0,0.1,0c0.1-0.3,0.1-0.7,0.2-0.9l0,0c0-0.1,0-0.1,0-0.2
							c0,0,0,0,0,0c0,0,0-0.2,0-0.2l0,0.1c0.1-0.3,0-0.5,0.1-0.7c0.1,0,0.2-0.2,0.3-0.3l0,0c0.1-0.3,0.1-0.6,0.1-0.9
							c0.2-0.2,0.3-0.6,0.4-0.9c0,0-0.1,0-0.1-0.1c0-0.1,0-0.2,0.1-0.2l0,0c0.1,0,0.1-0.2,0.2-0.3l-0.1-0.1c0.3-0.2,0.2-0.8,0.4-0.9
							c0-0.1,0-0.2,0-0.3l0.1,0c0.1-0.2,0.1-0.3,0.2-0.6l0,0.1c0-0.1-0.2-0.2-0.1-0.4l0.1,0c0.1-0.2,0.3-0.5,0.2-0.7c0,0,0,0,0,0.1
							c0-0.1,0.2-0.4,0.1-0.4c0.1,0,0.1-0.3,0.1-0.4l0.1,0c-0.1-0.1-0.1-0.2-0.1-0.3c0,0,0.1,0,0,0c0.1-0.1,0-0.1,0-0.3l0,0.1
							c0-0.1,0-0.1,0-0.2c0-0.1,0.1-0.2,0.2-0.2c0,0-0.1-0.1,0-0.2c0,0,0,0,0,0c0.1-0.2,0-0.3,0.1-0.5c0,0,0,0,0.1,0
							C63,22.2,63,22.3,63,22.3c0.1,0,0.1-0.1,0.2,0c0-0.1-0.1-0.4,0-0.5c0,0,0,0,0,0l0,0c0,0,0-0.1,0-0.1c0,0,0-0.1,0.1-0.1
							c0.1,0,0.1-0.1,0.1-0.2c-0.1,0,0-0.1-0.1,0c0,0,0,0,0,0.1c0,0,0,0,0,0c0,0,0,0,0,0c0,0,0,0.1,0,0.2c0-0.1,0-0.1,0-0.2
							c0-0.1-0.1-0.1-0.1-0.1c0.1-0.1,0.2-0.2,0.3-0.2c0-0.2,0.1-0.5,0-0.7c0-0.1,0.1-0.1,0.1-0.1c0,0,0,0.1,0,0.1
							c0-0.1,0.1-0.4,0-0.4c0.1-0.1,0.1,0.1,0.1-0.1l0,0c0.3-0.4,0-0.7,0.3-1.1c0,0,0,0-0.1,0c0.2-0.5,0.2-1.1,0.5-1.5
							c0.1-0.1,0-0.2,0-0.3l0.1,0l0-0.2c0-0.2,0.3-0.3,0.3-0.6l-0.1,0c0-0.1,0.1-0.3,0.1-0.3c0,0,0,0,0-0.1l0,0l0-0.3
							c0.1-0.2,0.2,0.1,0.2-0.2c0-0.1,0-0.3-0.1-0.3c0,0-0.1,0.1-0.1,0.1l0-0.1c-0.1-0.1-0.2-0.2-0.4,0l0,0.2l-0.1,0l0-0.1
							c-0.1,0.1,0,0.1,0,0.2c0,0-0.1,0-0.1,0l0.1,0.2c-0.1,0-0.1-0.1-0.1,0c0,0.1,0.1,0,0.1,0.1c-0.1,0.1-0.1,0-0.1,0.1
							c0,0,0,0-0.1-0.1c0,0.1,0,0.2,0,0.3c-0.1,0.1-0.1,0.3-0.2,0.2c0,0,0,0.2,0,0.2c-0.1-0.2-0.1,0.3-0.2,0.2
							c0.1,0.1-0.1,0.4,0,0.6c0,0,0,0,0-0.1c0,0.1-0.1,0.1-0.1,0.2c0.1,0,0.1,0.2,0.1,0.3c-0.1,0.1-0.1-0.1-0.2-0.1
							c0.1,0,0,0.2,0.1,0.2C63.8,18,63.8,18,63.7,18c0.1,0.1,0,0.1,0.1,0.2C63.7,18.3,63.7,18.2,63.6,18.3
							C63.6,18.4,63.6,18.3,63.6,18.3z M62.7,21.8C62.7,21.8,62.7,21.8,62.7,21.8C62.7,21.7,62.7,21.7,62.7,21.8
							C62.7,21.7,62.7,21.7,62.7,21.8z M62.6,22.1c0,0,0-0.1,0-0.1C62.7,21.9,62.7,22,62.6,22.1C62.7,22,62.7,22,62.6,22.1z
							 M63.3,21.6C63.3,21.7,63.3,21.7,63.3,21.6C63.3,21.7,63.3,21.6,63.3,21.6C63.3,21.6,63.3,21.6,63.3,21.6
							C63.3,21.6,63.3,21.6,63.3,21.6z"/>
						<path fill="#808181" d="M63.3,21.5C63.3,21.5,63.3,21.5,63.3,21.5C63.3,21.5,63.2,21.5,63.3,21.5
							C63.2,21.5,63.3,21.5,63.3,21.5C63.3,21.5,63.3,21.5,63.3,21.5z"/>
						<path fill="#808181" d="M55,47.7L55,47.7C55,47.7,55,47.7,55,47.7C55,47.7,55,47.7,55,47.7z"/>
						<polygon fill="#808181" points="61.3,26 61.3,26 61.3,26 						"/>
						<path fill="#808181" d="M54.2,49.2C54.2,49.2,54.2,49.2,54.2,49.2C54.2,49.2,54.2,49.2,54.2,49.2z"/>
						<path fill="#808181" d="M54,49.9L54,49.9C54,49.9,54,49.9,54,49.9z"/>
						<path fill="#808181" d="M53.8,50.4C53.8,50.4,53.8,50.4,53.8,50.4C53.8,50.4,53.8,50.4,53.8,50.4L53.8,50.4z"/>
						<path fill="#808181" d="M56.3,41.9C56.3,41.9,56.3,41.9,56.3,41.9C56.3,41.9,56.3,41.9,56.3,41.9z"/>
						<path fill="#808181" d="M55.7,44.5C55.7,44.5,55.7,44.4,55.7,44.5C55.7,44.4,55.7,44.5,55.7,44.5z"/>
						<path fill="#808181" d="M57.1,39.1C57.1,39.1,57.1,39.1,57.1,39.1C57.1,39.1,57.1,39.1,57.1,39.1L57.1,39.1z"/>
						<path fill="#808181" d="M55.8,44.3c0,0,0,0.1,0,0.1C55.7,44.4,55.8,44.3,55.8,44.3z"/>
						<path fill="#808181" d="M53,52.7L53,52.7C53,52.7,53,52.7,53,52.7L53,52.7z"/>
						<path fill="#808181" d="M53,52.7L53,52.7C53.1,52.7,53.1,52.7,53,52.7z"/>
						<path fill="#808181" d="M53,52.8L53,52.8C53,52.7,53,52.8,53,52.8z"/>
						<path fill="#808181" d="M53.3,52L53.3,52C53.3,52,53.3,52,53.3,52z"/>
						<path fill="#808181" d="M53.4,51.7c0,0-0.1,0.1-0.1,0.2l0,0C53.2,51.9,53.4,51.8,53.4,51.7z"/>
						<path fill="#808181" d="M54,51l-0.1,0.2c0,0,0.1-0.1,0.1,0C54.1,51,53.9,51.2,54,51z"/>
						<path fill="#808181" d="M54.2,50.4C54.2,50.5,54.2,50.4,54.2,50.4C54.2,50.4,54.2,50.4,54.2,50.4z"/>
						<path fill="#808181" d="M55.4,46.4L55.4,46.4C55.5,46.4,55.5,46.5,55.4,46.4z"/>
						<polygon fill="#808181" points="55.3,45.6 55.3,45.6 55.3,45.7 						"/>
						<polygon fill="#808181" points="55.9,45.3 55.9,45.3 55.9,45.2 						"/>
						<path fill="#808181" d="M58,38.5L58,38.5C57.9,38.6,58,38.6,58,38.5z"/>
						<path fill="#808181" d="M58.8,35.6c0.1,0,0.1-0.1,0.1-0.2C58.9,35.5,58.8,35.6,58.8,35.6z"/>
						<polygon fill="#808181" points="61.7,27 61.7,27.1 61.7,26.9 						"/>
					</g>
				</g>
			</g>
		</g>
	</g>
	<g>
		<g>
			<g>
				<g>
					<g>
						<path fill="#808181" d="M55.4,56.5C55.4,56.5,55.5,56.5,55.4,56.5L55.4,56.5L55.4,56.5z"/>
						<path fill="#808181" d="M55.7,56.2c0-0.1,0-0.2-0.1-0.2C55.6,56.1,55.6,56.1,55.7,56.2c-0.1,0.1-0.1,0.1-0.2,0.1
							c0,0-0.1,0.1,0,0.1C55.6,56.4,55.7,56.3,55.7,56.2C55.7,56.2,55.7,56.2,55.7,56.2z"/>
						<path fill="#808181" d="M58.3,51.4L58.3,51.4C58.3,51.5,58.3,51.4,58.3,51.4z"/>
						<path fill="#808181" d="M59.9,48.4C59.9,48.5,59.9,48.5,59.9,48.4C59.9,48.5,59.9,48.4,59.9,48.4z"/>
						<path fill="#808181" d="M60.2,48C60.2,48,60.2,48,60.2,48C60.2,48,60.2,48,60.2,48z"/>
						<path fill="#808181" d="M58.3,51.4L58.3,51.4C58.3,51.3,58.3,51.4,58.3,51.4z"/>
						<path fill="#808181" d="M55.9,55.5C55.8,55.5,55.8,55.5,55.9,55.5C55.9,55.5,55.9,55.5,55.9,55.5
							C55.9,55.5,55.9,55.5,55.9,55.5z"/>
						<path fill="#808181" d="M57.7,52.8L57.7,52.8C57.7,52.8,57.7,52.8,57.7,52.8L57.7,52.8z"/>
						<path fill="#808181" d="M57.2,53.8C57.2,53.8,57.1,53.8,57.2,53.8C57.1,53.8,57.1,53.8,57.2,53.8
							C57.1,53.8,57.2,53.8,57.2,53.8z"/>
						<path fill="#808181" d="M56.2,55.4L56.2,55.4C56.2,55.4,56.2,55.4,56.2,55.4z"/>
						<path fill="#808181" d="M58.1,52.1C58.1,52.1,58.1,52.1,58.1,52.1C58.1,52.1,58.1,52.1,58.1,52.1z"/>
						<path fill="#808181" d="M72,23.3C72,23.3,72,23.3,72,23.3C72,23.3,72,23.3,72,23.3z"/>
						<path fill="#808181" d="M72.9,22.3L72.9,22.3C73,22.4,73,22.4,72.9,22.3L72.9,22.3z"/>
						<path fill="#808181" d="M60.8,47.1C60.8,47.1,60.8,47.1,60.8,47.1C60.8,47.1,60.8,47.1,60.8,47.1z"/>
						<path fill="#808181" d="M65.1,38.4c-0.1,0.1,0-0.2-0.1-0.1C65,38.3,65,38.5,65.1,38.4z"/>
						<path fill="#808181" d="M55.9,55.4C55.9,55.4,55.9,55.4,55.9,55.4C55.9,55.4,55.9,55.4,55.9,55.4z"/>
						<path fill="#808181" d="M65,38.3C65,38.3,65,38.3,65,38.3L65,38.3C65,38.3,65,38.3,65,38.3z"/>
						<path fill="#808181" d="M61.8,44.9C61.8,44.9,61.8,44.9,61.8,44.9C61.8,44.9,61.8,44.9,61.8,44.9z"/>
						<path fill="#808181" d="M60.9,46.5L60.9,46.5C60.9,46.4,60.9,46.5,60.9,46.5z"/>
						<path fill="#808181" d="M62.2,44C62.2,44,62.2,44,62.2,44C62.2,44,62.2,44,62.2,44C62.2,44,62.2,44,62.2,44z"/>
						<path fill="#808181" d="M62.6,43.1C62.6,43.1,62.6,43.1,62.6,43.1C62.6,43.2,62.6,43.2,62.6,43.1L62.6,43.1z"/>
						<path fill="#808181" d="M70.7,26C70.7,26,70.8,26,70.7,26C70.7,26,70.8,25.9,70.7,26z"/>
						<path fill="#808181" d="M55.9,55.5C55.9,55.5,55.9,55.5,55.9,55.5C55.9,55.4,55.9,55.5,55.9,55.5
							C55.9,55.5,55.9,55.5,55.9,55.5z"/>
						<path fill="#808181" d="M61.6,43.7l0.1-0.1C61.7,43.6,61.7,43.7,61.6,43.7z"/>
						<path fill="#808181" d="M67.5,32.3L67.5,32.3C67.5,32.2,67.5,32.3,67.5,32.3z"/>
						<path fill="#808181" d="M61.9,43.2C62,43.1,62,43.1,61.9,43.2C62,43.1,62,43.1,61.9,43.2L61.9,43.2z"/>
						<path fill="#808181" d="M70.8,26C70.8,26,70.8,26,70.8,26C70.8,26,70.8,26,70.8,26z"/>
						<path fill="#808181" d="M71.1,25c-0.1,0.1,0.1,0.1,0.1,0.2c-0.1,0.2-0.1,0-0.2,0.1c0,0.1,0,0.2,0,0.3c0,0,0,0,0,0
							c0,0.1-0.2,0.3-0.1,0.5c0,0,0,0,0,0c0.1,0,0.1,0,0.1,0c0,0.1,0,0.1-0.1,0.1c0,0,0-0.1,0-0.1l0,0.1c-0.1,0,0-0.1,0-0.1
							c0,0.1,0,0.3-0.1,0.4c-0.1,0,0.1-0.2-0.1-0.1l0.1-0.1c-0.2,0,0.1-0.1-0.1-0.1c-0.1,0.2-0.1,0.2-0.2,0.4c0,0.1,0.1,0,0.1,0.1
							c-0.1,0.3-0.3,0.1-0.3,0.4c0,0.1,0.1,0.2,0,0.3l-0.1-0.1c-0.1,0.2,0.1,0.2-0.1,0.3c0-0.1,0-0.2,0-0.1c-0.1,0.1,0,0.1,0,0.2
							l-0.1,0c-0.1,0.2-0.1,0.4-0.2,0.7c0,0,0-0.1-0.1,0c-0.1,0.3-0.3,0.6-0.5,0.8l0,0.1c0,0-0.1,0-0.1,0c-0.1,0.1,0,0,0,0.1
							c0,0.1-0.1,0.1-0.1,0c0,0.2-0.1,0.6-0.3,0.7l0,0c-0.1,0.1,0.1,0.2-0.1,0.3l0,0c-0.2,0.3-0.3,0.7-0.5,0.9
							c0.1,0.1-0.2,0.3-0.1,0.4c-0.2,0.1-0.2,0.1-0.3,0.3c0,0.1,0,0.1,0,0.2l-0.1,0l0,0.2l-0.1,0l0,0.1c0,0,0.1-0.1,0.1,0
							c0,0.1-0.2,0.3-0.2,0.3l-0.1,0.3c0,0,0-0.1,0-0.1c0,0.2-0.1,0-0.1,0.2c0,0,0,0,0.1,0c-0.1,0-0.2,0.2-0.2,0.3l0,0
							c-0.1,0.2-0.2,0.5-0.3,0.7c0.1-0.1,0.1,0,0.1,0.1l-0.1,0c0,0.1,0.1-0.1,0.1,0.1c-0.1,0.1-0.1,0-0.1,0l0,0.1c0,0,0,0-0.1-0.1
							c0,0.1-0.2,0.2-0.1,0.3l0,0c-0.1,0.2-0.2,0.4-0.3,0.6c0.1,0,0,0.1,0,0.2c-0.1,0.1-0.2,0.3-0.3,0.5c0,0.1,0,0.1,0.1,0.1
							c-0.1,0-0.2,0.2-0.1,0c-0.1,0.2-0.1,0.3-0.2,0.6c0,0,0.1,0,0.1,0c0,0.1-0.1,0.1-0.1,0.1l0,0c-0.1,0.3-0.5,0.6-0.5,0.9l0,0
							L65,37.5c-0.1,0.1,0-0.1-0.1,0c0,0.3-0.2,0.4-0.3,0.7c-0.3,0.1-0.3,0.6-0.5,0.8l0.1,0C64.1,39,64,39,64,39c0,0,0.1,0,0.1,0
							c-0.2,0.5-0.6,1-0.9,1.5c-0.1,0.2,0.2,0.2-0.1,0.4l0-0.1c-0.1,0.4-0.4,0.8-0.5,1.2c0,0,0,0,0-0.1c-0.1,0-0.2,0.3-0.1,0.3
							c0,0.1-0.1,0-0.1,0c-0.1,0.1,0,0.2-0.1,0.3c0,0,0,0,0,0c0,0.1-0.1,0.2,0,0.2c-0.1,0.1-0.1,0.3-0.2,0.4c0,0.1-0.2,0.2-0.1,0.3
							c-0.1-0.1-0.2,0.2-0.2,0.3c0,0-0.1,0.1-0.1,0c-0.1,0.1-0.1,0.2,0,0.2c-0.2,0.1-0.1,0.4-0.3,0.5c-0.1,0.3-0.2,0.6-0.3,0.9
							c-0.1-0.1,0.1-0.3,0-0.4c-0.1,0.3-0.1,0.5-0.2,0.7c0,0.1,0-0.1,0-0.1c-0.1,0.3-0.3,0.5-0.3,0.8c0,0,0,0,0-0.1
							c0,0-0.1,0.1,0,0.1l0-0.1c0.1,0,0.1,0.3,0.1,0.3c-0.1-0.1-0.2,0.2-0.3,0c0,0,0,0.1,0,0.1c0,0-0.1,0-0.1,0
							c-0.1,0.2,0,0.1,0,0.3c0,0,0,0,0-0.1c0,0.1,0,0.2-0.1,0.3c0,0,0,0,0,0c-0.1,0.2-0.1,0.4-0.2,0.6c-0.1-0.1-0.1,0.1-0.2,0l0,0.1
							l0.1,0c-0.1,0.1,0,0.2-0.1,0.3l0-0.1l-0.1,0.2l0.1-0.1c0,0.1,0.1,0,0,0.2c0,0-0.1,0.1-0.1,0.1c0,0,0,0,0,0
							c0,0.1,0,0.1-0.1,0.2c0,0-0.1-0.1-0.1-0.1c0,0.1-0.1,0.3-0.1,0.4c0,0-0.1-0.1-0.1-0.1l0,0.1c0,0-0.1,0-0.1,0
							c-0.1,0.1,0.1,0,0,0.2c0,0,0,0,0,0c-0.1,0.2-0.1,0.4-0.3,0.5c-0.1,0,0.1-0.2-0.1-0.1c-0.1,0.3-0.1,0.6-0.3,0.8l0,0
							c0.1,0.1-0.2,0.1-0.2,0.3c0,0-0.1-0.1,0-0.1c-0.1,0.1-0.1,0.3-0.2,0.6l0,0c-0.1,0.1-0.1,0.2-0.2,0.3c0,0,0,0.1,0,0.1
							c-0.3,0.2-0.2,0.7-0.5,0.9c0,0,0-0.1,0-0.1l-0.1,0.3c0.1,0,0,0,0.1,0c0,0,0,0.1,0,0.2c0-0.1-0.1,0-0.1,0c0,0,0,0,0.1,0
							c-0.2,0.1,0.1,0.1-0.1,0.2l0,0c0,0.1,0,0.1-0.1,0.2c-0.1,0,0-0.1,0-0.1c0,0.1,0,0.3-0.1,0.3c0-0.1,0-0.1,0-0.2
							C57,53.3,57,53.3,57,53.4l0,0l-0.1,0.1l0,0c0.1,0.2-0.1,0.3-0.1,0.5c0-0.2,0-0.1-0.1-0.1c0,0-0.1,0.1-0.1,0.1
							c0,0.1-0.1,0.1-0.1,0.3c0,0,0,0.1-0.1,0c0,0.1,0.1,0,0.1,0c0,0.2-0.3,0.3-0.3,0.6c-0.1,0.2,0,0.3,0,0.5
							c-0.1,0-0.1-0.1-0.1-0.1c-0.1,0.1-0.1,0.2-0.1,0.3c0,0,0,0-0.1,0c0,0.1,0.1,0.1,0,0.2c0,0,0-0.1-0.1-0.1c0,0.1,0,0.2,0,0.3
							c-0.1,0,0-0.1,0-0.1c0,0.1-0.1,0.3,0,0.3l0.1-0.1c0,0-0.1,0-0.1,0c0-0.1,0.1-0.1,0.1-0.1l0,0.1c0.2,0,0.1-0.3,0.2-0.4l0.1,0.1
							l0-0.2c0,0,0.1,0,0.1,0.1c0.1-0.1,0-0.1,0.1-0.1c0,0,0,0,0,0l0-0.1c0,0,0.1,0,0,0.1c0.1-0.1,0.1-0.3,0.2-0.3l0,0
							c0.1-0.2-0.1-0.1-0.1-0.3l0.2,0l-0.1-0.1c0,0,0-0.1,0.1,0c0-0.1,0,0-0.1-0.1c0.1-0.1,0.1-0.3,0.3-0.3c0-0.1-0.1,0.1-0.1-0.1
							c0.1,0,0-0.1,0.2-0.2c0.1,0.1,0,0.1,0.1,0.1c-0.1-0.1,0.1-0.2,0.1-0.3c-0.1,0,0.1-0.2,0.1-0.4c0,0,0.2-0.2,0.3-0.4l0,0
							c-0.1-0.1,0-0.2,0-0.3c0.1,0,0.1,0.1,0.1,0.1l0-0.1c0,0,0-0.1,0-0.1l0.1,0.1c0.1-0.1,0-0.3,0.2-0.4c-0.1,0-0.2,0-0.2-0.2
							c0,0,0.1,0,0.1,0.1c0,0,0-0.1,0-0.1l0,0.1c0.1-0.1,0-0.1,0-0.1c0,0,0.1,0,0.1,0c0,0,0,0,0,0.1c0-0.1,0.1-0.1,0.2-0.1
							c0,0-0.1,0,0-0.1c0.1-0.1,0.1,0,0.1-0.1c0,0,0.1-0.1,0-0.1c0,0,0.1,0,0.1,0c0-0.1,0.1-0.3,0-0.3l0,0c0,0,0,0,0,0c0,0,0,0,0,0
							l0,0c0-0.2,0.3-0.4,0.3-0.6l0,0c0-0.1,0.1-0.3,0.1-0.4c0,0,0.1-0.1,0.1,0c0-0.1,0-0.1,0.1-0.2c0,0.1,0.1,0,0,0.1
							c0.1-0.1,0.1-0.1,0.1-0.3c0,0.1,0.1-0.1,0.1-0.1l-0.1,0.1c0-0.1,0.1-0.1,0.1-0.2l0.1,0.1c0.2-0.2,0.1-0.5,0.3-0.7
							c0-0.1-0.1,0.1-0.1,0c0.1-0.1,0.2-0.2,0.3-0.2c0.1-0.1,0-0.2,0.1-0.4c0,0-0.1,0-0.1-0.2c0.1-0.1,0.2-0.1,0.2,0c0,0,0,0,0,0
							c0,0,0,0.1,0,0.1l0,0c0.1,0,0.1-0.2,0.2-0.1c0-0.1,0-0.1-0.1,0c0.1-0.1,0.1-0.2,0.2-0.4c0,0-0.1,0-0.1,0
							c0.2-0.2,0-0.1,0.1-0.3c0.1-0.1,0.1,0.1,0.1-0.1c0.1-0.1,0.1,0,0.1,0.1c0-0.2,0.2-0.2,0.2-0.3l0,0.1c0-0.1,0-0.1,0-0.1l-0.1,0
							c0,0,0.1-0.1,0.1-0.1c0-0.1-0.1,0-0.1-0.1c0.1,0,0.1-0.2,0.1-0.2c-0.1,0.2,0.1,0,0,0.2c0,0,0-0.1,0.1-0.1c0,0,0,0,0,0
							c0.2-0.1,0-0.1,0-0.3c0,0,0.1,0,0.1,0c0,0.1-0.1,0-0.1-0.1c0.1-0.1,0-0.1,0.1-0.2l-0.1,0.1c0,0,0-0.1,0-0.2c0,0,0,0.1,0,0.1
							c0-0.1,0.2-0.2,0.2-0.3c0.1,0,0.1,0,0.1,0c0-0.2,0.1-0.1,0.2-0.3c-0.1,0-0.1,0-0.1-0.1l-0.1,0.3l0-0.2c0,0.1,0,0.2-0.1,0.2
							c0-0.1,0-0.1-0.1-0.1c0.1-0.1,0.1-0.2,0.2-0.3l0.1,0.1c0.2-0.1,0.1-0.3,0.2-0.6l-0.1,0.1c0-0.1,0.1-0.1,0.1-0.2
							c0,0,0.1,0,0.1,0c0,0,0.1-0.2,0-0.2l0.1-0.1c0.1-0.2,0-0.3,0.1-0.4c0,0.1,0.1,0,0.1,0.2c0-0.1,0.1-0.1,0-0.1
							c0,0,0-0.2,0.1-0.2c0,0-0.1-0.1,0-0.1c0,0,0,0,0,0c0,0,0-0.1-0.1-0.1c0.2-0.1,0.2-0.5,0.5-0.6c0-0.1,0.1-0.3,0.2-0.4
							c0,0,0,0,0,0c0.1-0.1-0.1-0.2,0.1-0.3c0.1-0.1,0,0.1,0.1,0.1c0.2,0.1,0.1-0.2,0.2-0.3l0,0c0.1-0.1,0.1-0.3,0.1-0.4
							c0,0,0,0,0,0c0-0.1,0-0.4,0.1-0.5c0,0.1,0,0.1,0.1,0.1c0-0.1-0.1,0-0.1-0.2c0.1,0,0.1-0.1,0.2-0.1l-0.1,0.1
							c0.1,0,0.1-0.2,0.1-0.2l0,0c0.1-0.2,0-0.2,0.1-0.4l0,0c0-0.2,0.1-0.1,0.1-0.2l0.1,0c0-0.1,0-0.3,0.1-0.4c0,0.1,0,0.3,0,0.4
							c0-0.1,0.1-0.3,0.1-0.3c0,0,0,0.1,0,0.1c0-0.1,0-0.3,0.1-0.4c0.2,0.1,0.2-0.4,0.4-0.4c0.1-0.3,0.3-0.5,0.4-0.8
							c-0.2,0,0-0.1-0.1-0.1c0-0.1,0-0.1,0.1-0.1l0.2-0.2c0.1,0,0,0.1,0,0.1c0.1-0.1,0.1,0,0.2-0.1c-0.1,0,0-0.1,0-0.2l-0.1,0.1
							c0-0.3,0.2-0.1,0.3-0.4l0,0.1c0-0.1,0.2-0.4,0.1-0.6c0,0,0.1,0,0.1,0c0.2-0.3,0.2-0.7,0.4-0.8l0,0c0-0.1,0-0.1,0-0.2
							c0,0,0,0,0,0c0,0,0-0.2,0.1-0.2l0,0.1c0.2-0.2,0.1-0.4,0.2-0.7c0.1,0.1,0.2-0.1,0.3-0.2l0,0c0.2-0.3,0.2-0.6,0.3-0.9
							c0.2-0.1,0.3-0.6,0.6-0.8c0,0-0.1,0-0.1-0.1c0.1-0.1,0-0.2,0.1-0.2l0,0c0.1,0,0.2-0.1,0.2-0.3L67.7,33
							c0.3-0.2,0.3-0.8,0.5-0.8c0-0.1,0-0.2,0-0.2l0.1,0c0.1-0.2,0.2-0.3,0.3-0.5l0,0.1c0.1-0.1-0.1-0.3-0.1-0.4l0.1,0
							c0.1-0.2,0.3-0.4,0.3-0.7c0,0,0,0,0,0.1c0.1-0.1,0.3-0.4,0.1-0.4c0.1,0,0.1-0.2,0.1-0.4l0.1,0.1c0-0.1-0.1-0.2,0-0.3
							c0,0,0.1,0,0,0c0.1-0.1,0-0.1,0.1-0.2l0,0.1c0.1-0.1,0-0.1,0-0.2c0-0.1,0.1-0.2,0.2-0.2c0,0,0-0.1,0-0.2c0,0,0,0,0,0.1
							c0.1-0.2,0.1-0.3,0.2-0.4c0,0,0,0,0.1,0c-0.1,0.2-0.1,0.3-0.1,0.3c0.1,0,0.1-0.1,0.2,0.1c0-0.1,0-0.3,0.1-0.5c0,0,0,0,0,0l0,0
							c0,0,0-0.1,0-0.1c0,0,0-0.1,0.1-0.1c0.1,0,0.1-0.1,0.1-0.2c-0.1,0,0-0.1-0.1-0.1c0,0,0,0,0,0.1c0,0,0,0,0,0c0,0,0,0,0,0
							c0,0,0,0.1-0.1,0.2c0-0.1,0-0.1,0.1-0.2c0-0.1-0.1-0.1-0.1-0.1c0.1,0,0.3-0.2,0.3-0.2c0.1-0.2,0.2-0.5,0.1-0.6
							c0-0.1,0.1,0,0.1-0.1c0,0,0,0.1,0,0.1c0-0.1,0.1-0.3,0.1-0.4c0.1-0.1,0,0.1,0.1-0.1l0,0c0.3-0.3,0.1-0.7,0.5-1c0,0,0,0-0.1,0
							c0.3-0.4,0.4-1,0.8-1.4c0.1-0.1,0-0.2,0-0.3l0.1,0l0-0.2c0-0.2,0.3-0.2,0.4-0.5l-0.1,0c0.1-0.1,0.1-0.3,0.2-0.2
							c0,0,0-0.1,0-0.1l0,0l0-0.2c0.1-0.2,0.1,0.1,0.3-0.1c0-0.1,0-0.3,0-0.3c0,0-0.1,0.1-0.1,0.1l0-0.1c-0.1-0.1-0.2-0.2-0.4,0
							l0,0.2l-0.1,0l0.1-0.1c-0.1,0-0.1,0.1-0.1,0.2c0,0-0.1,0-0.1,0l0,0.2c-0.1,0-0.1-0.1-0.1,0c0,0.1,0.1,0,0.1,0.1
							c-0.1,0-0.1,0-0.1,0.1c0,0,0,0,0-0.1c0,0.1-0.1,0.2,0,0.3c-0.1,0-0.1,0.2-0.2,0.2c0,0,0,0.2,0,0.2c-0.1-0.2-0.1,0.2-0.3,0.1
							c0.1,0.1-0.1,0.3-0.1,0.5c0,0,0,0,0-0.1c-0.1,0.1-0.1,0.1-0.2,0.1c0.1,0.1,0,0.2,0.1,0.3c-0.1,0.1-0.1-0.1-0.2-0.1
							c0.1,0,0,0.2,0.1,0.2c-0.1,0.1-0.1,0.1-0.2,0.1c0.1,0.1,0,0.1,0,0.2C71.2,25.1,71.2,24.9,71.1,25C71.1,25.1,71.1,25,71.1,25z
							 M69.7,28.2C69.7,28.2,69.7,28.2,69.7,28.2C69.7,28.2,69.7,28.1,69.7,28.2C69.7,28.1,69.7,28.2,69.7,28.2z M69.6,28.5
							c0,0,0-0.1,0.1-0.1C69.7,28.3,69.7,28.4,69.6,28.5C69.7,28.4,69.6,28.4,69.6,28.5z M70.3,28.1C70.3,28.2,70.3,28.2,70.3,28.1
							C70.3,28.2,70.3,28.2,70.3,28.1C70.3,28.1,70.3,28.1,70.3,28.1C70.3,28.1,70.3,28.1,70.3,28.1z"/>
						<path fill="#808181" d="M70.3,28C70.3,28,70.3,28,70.3,28C70.3,28,70.3,28,70.3,28C70.3,28,70.3,28,70.3,28
							C70.3,28,70.3,28,70.3,28z"/>
						<path fill="#808181" d="M58.3,51.5L58.3,51.5C58.3,51.5,58.3,51.5,58.3,51.5C58.3,51.5,58.3,51.5,58.3,51.5z"/>
						<polygon fill="#808181" points="67.6,32 67.7,32 67.7,31.9 						"/>
						<path fill="#808181" d="M57.3,52.8C57.3,52.8,57.3,52.8,57.3,52.8C57.3,52.8,57.3,52.8,57.3,52.8z"/>
						<path fill="#808181" d="M57,53.4L57,53.4C56.9,53.4,57,53.4,57,53.4z"/>
						<path fill="#808181" d="M56.7,53.8C56.7,53.9,56.7,53.9,56.7,53.8C56.7,53.9,56.7,53.9,56.7,53.8L56.7,53.8z"/>
						<path fill="#808181" d="M60.5,46.3C60.5,46.3,60.5,46.2,60.5,46.3C60.5,46.2,60.5,46.2,60.5,46.3z"/>
						<path fill="#808181" d="M59.5,48.6C59.5,48.6,59.5,48.5,59.5,48.6C59.5,48.5,59.4,48.6,59.5,48.6z"/>
						<path fill="#808181" d="M61.6,43.7C61.6,43.7,61.6,43.7,61.6,43.7C61.6,43.7,61.6,43.7,61.6,43.7L61.6,43.7z"/>
						<path fill="#808181" d="M59.5,48.4c0,0,0,0.1-0.1,0.1C59.5,48.5,59.5,48.4,59.5,48.4z"/>
						<path fill="#808181" d="M55.6,55.9L55.6,55.9C55.6,55.9,55.6,55.9,55.6,55.9L55.6,55.9z"/>
						<path fill="#808181" d="M55.6,55.9L55.6,55.9C55.6,55.9,55.6,55.9,55.6,55.9z"/>
						<path fill="#808181" d="M55.6,56L55.6,56C55.6,56,55.6,56,55.6,56z"/>
						<path fill="#808181" d="M56,55.3L56,55.3C56,55.3,56,55.3,56,55.3z"/>
						<path fill="#808181" d="M56.1,55.1c0,0-0.1,0.1-0.1,0.2l0,0C55.9,55.2,56.1,55.1,56.1,55.1z"/>
						<path fill="#808181" d="M56.8,54.4l-0.1,0.1c0,0,0.1,0,0.1,0C56.9,54.5,56.7,54.6,56.8,54.4z"/>
						<path fill="#808181" d="M57.1,54C57,54,57.1,54,57.1,54C57.1,53.9,57.1,53.9,57.1,54z"/>
						<path fill="#808181" d="M58.9,50.4L58.9,50.4C59,50.3,58.9,50.4,58.9,50.4z"/>
						<polygon fill="#808181" points="58.9,49.5 58.8,49.6 58.9,49.6 						"/>
						<polygon fill="#808181" points="59.6,49.3 59.6,49.4 59.6,49.3 						"/>
						<path fill="#808181" d="M62.6,43.3L62.6,43.3C62.5,43.4,62.6,43.4,62.6,43.3z"/>
						<path fill="#808181" d="M63.8,40.7c0.1,0,0.1-0.1,0.1-0.1C63.9,40.6,63.8,40.7,63.8,40.7z"/>
						<polygon fill="#808181" points="67.9,33 67.9,33 67.9,32.9 						"/>
					</g>
				</g>
			</g>
		</g>
	</g>
</g>
</svg>
