<?xml version="1.0" encoding="utf-8"?>
<!-- Generator: Adobe Illustrator 23.1.0, SVG Export Plug-In . SVG Version: 6.00 Build 0)  -->
<svg version="1.1" id="Capa_1" xmlns="http://www.w3.org/2000/svg" xmlns:xlink="http://www.w3.org/1999/xlink" x="0px" y="0px"
	 viewBox="0 0 89.2 89.2" enable-background="new 0 0 89.2 89.2" xml:space="preserve">
<g>
	<path fill="#F8E8A1" d="M70.7,38.9c1.3-11.6-5.6-23.8-17.2-27.1c0-0.1-0.1-0.2-0.2-0.2c-10.6-3.1-21.9,0.8-28.8,9.1
		c-0.9,1-1.7,2.1-2.4,3.3c-0.1,0-0.2,0.1-0.1,0.2c-0.3,0.4-0.5,0.8-0.7,1.2c-0.1,0-0.1,0.1-0.1,0.1c-1.7,3.1-2.9,6.5-3.3,10.1
		c-0.2,1.5-0.1,2.9,0,4.2c-0.1,0.1,0,0.2,0,0.3c0.5,3.6,2,7,4.2,10.1c3.2,4.7,7.2,8.6,12.5,10.7c0.6,0.2,1.2,0.4,1.8,0.6
		c0,0.1,0.3,0.2,0.4,0.1c4.2,1.3,8.7,1.5,12.9,0.8c5.6-1,10.3-3.4,14-7.7C67.5,50.4,70.1,44.8,70.7,38.9z"/>
</g>
<g>
	<g>
		<g>
			<g>
				<g>
					<g>
						<path fill="#808181" d="M51.9,30.3c0.6,0-0.3-0.1,0.4-0.1C52.2,30.3,52.1,30.4,51.9,30.3z"/>
						<path fill="#808181" d="M54.1,30.7c0.9,0.3,1.6,1.3,1.7,2.4c0,1.1-0.1,2.3,0.1,3.3c0,0.2-0.2-0.1-0.2,0.5
							c0.3,2,0.1,5.2-0.1,7.7l-0.1-0.1c0,0.5,0.2,1,0.1,1.5c0,0-0.1-0.2-0.1,0c0.1,0.1,0.1,0.9,0.2,1.1c-0.1,0.2-0.2,0.2-0.2,0.4
							l0.2,0.3c0.4,0.8,0,1.9,0.2,3c0-0.1-0.1-0.2-0.1-0.1c0.2,1.7,0.2,3.9,0.3,5.8c-0.1-0.1-0.2-0.1-0.2,0c0.2,0.1,0.2,0.7,0.2,1.2
							c-0.2,0.2,0.2,0.9,0.1,1.5l0-0.1c0.2,0.4-0.1,0.7,0.1,1l-0.1,0.3c0.2,0.2-0.1,0.7,0,1l0,0c0.1,0.4-0.1,0.5,0,0.9l0,0
							c0.1,0.8-0.1,1.2,0.1,1.2c-0.1,0.3-0.1-0.7-0.3-0.3c0.2,2.5,0.2,5.1,0.2,7.6c-0.1,0.3-0.1,0.5-0.2,0.5c0,0.3,0,0.9,0.1,1.2
							c0-0.1-0.1,0.2-0.1,0.3c-0.1,0.5,0.2,0.5,0.1,1c0-0.2-0.1-0.3-0.2-0.2c0.1,0.4,0.1,1,0.2,1.5c0-0.1,0-0.2-0.1-0.2
							c0.2,0.6,0,1,0,1.5l-0.1-0.2c-0.3,0.7,0.2,0.3-0.1,0.9c0-0.2,0-0.1-0.1-0.2c0,0.3-0.2,0.7-0.4,1.1c-0.2,0.4-0.6,0.6-0.8,0.8
							c0,0,0-0.1,0-0.1c-0.6,0.4-1.3,0.6-2.1,0.7c-0.3,0,0.1-0.3-0.6-0.2c0,0.2-1.2,0.1-0.8,0.3c-0.6,0-1.6-0.1-2,0
							c0.3-0.1-0.3-0.3,0.2-0.3l-0.4-0.1c0.1-0.1,0.4,0,0.3-0.1c-0.3,0-1,0.1-1.2,0.1c-0.5,0.1-0.9,0.4-1.7,0.4
							c0.4-0.1-0.2-0.2,0-0.3l-1.1,0.4c-0.3,0-0.1-0.2-0.4-0.1c0,0.1-0.1,0.1-0.3,0.1c-0.1,0-1.1,0.1-1.2-0.2
							c-0.1-0.1,0.4,0,0.1-0.1c-0.5,0-0.5,0.1-1,0.1l0,0c-0.3,0-0.9,0.1-0.6,0.2c0.2,0-0.1-0.1,0.2-0.1c-0.2,0.1-0.8,0.2-1.3,0.2
							c0.2,0,0.1-0.1,0.2-0.2c-0.6,0.2-1.3,0.2-2,0.3c0,0.1,0.3-0.2,0.4-0.1c-0.5-0.1-0.9,0-1.4,0c-0.4,0.1-1,0.1-1.4-0.2
							c0.1,0,0,0.2,0,0.1c-0.5-0.2-0.4-0.3-0.7-0.4c0-0.1-0.4-0.2-0.7-0.4c-0.2-0.1,0-0.1,0.2,0.1c-0.2-0.1-0.7-0.4-1.1-1
							c-0.4-0.5-0.7-1.3-0.6-1.9c0,0-0.1-0.2-0.1-0.4c0-0.2-0.1-0.4-0.1-0.5l0.1,0.1c0.1-0.2,0-0.7,0.1-0.8c-0.2-0.5,0.1,1.8,0,1.2
							c0.1-0.2-0.2-0.9,0-0.7c0-0.4-0.2-0.9,0-1.3c0,0.1,0.2,0.4,0.2,0c0-0.6-0.1-0.2-0.1-0.7l-0.1-0.3c-0.1,0,0-0.6-0.1-0.3
							c0.1-0.1-0.1-0.9,0.1-0.8l0.2,0.1c0-0.3-0.2-0.4-0.3-0.7c0,0,0-0.1,0.1-0.1c-0.3,0,0-0.6-0.2-1c0.1-0.6,0-1.4,0.2-1.7
							c-0.1-0.4-0.2-0.8-0.1-1.3c0,0.1,0,0.2,0.1,0.3c0.1-0.3,0-0.4,0-0.7c0,0.1,0.2-0.6,0.2-1c-0.1-0.4-0.2-0.3-0.3-0.3
							c0.3-0.4-0.2-1.2,0.1-1.7c0,0.1,0.1,0.6,0.2,0.3c0.3-0.4-0.2-0.8-0.1-1.4l-0.2,0.2c0.1-0.3-0.1-0.9,0.1-0.9
							c-0.1-0.2,0.1-0.8-0.1-0.7c0.2-1-0.1-2.6,0.3-3.2c0-0.2,0-0.5-0.1-0.4c-0.1,0.2,0.1,0.3,0,0.4c0-0.1-0.1-0.2-0.1-0.2
							c0-0.3,0.1-0.6,0.2-0.3c0.1-0.7-0.4-0.7-0.3-1.7c0.1,0,0.1,0,0.1-0.3l-0.1-0.5c0-0.6,0.2-0.3,0.3-0.4c0-0.3,0-0.7-0.1-0.9
							l0.2-0.4c-0.1,0.3-0.1-0.3-0.1-0.4l0,0.2c0.1-0.1,0-0.4,0-0.6c-0.1,0-0.1,0.4-0.2,0.6c-0.1-0.2,0-0.4-0.1-0.6
							c0.1,0.1,0.1-0.5,0.1-0.8c0-0.3-0.1-0.3-0.1-0.4c0.1,0,0-0.5,0.1-0.2c0,0.1-0.1,0.2,0,0.4c0.1-0.2,0.2-0.2,0.1-0.6
							c-0.1-0.3-0.3,0.1-0.2-0.5c0,0.1,0.1,0.2,0.1,0.3l0.1-0.5l-0.1,0c0-0.1,0,0,0.1-0.1c-0.1-0.2,0-0.8-0.2-0.9
							c0-0.3,0.1-0.6,0.1-0.8l0,0c0.1-0.3,0-0.7-0.1-1l0,0c0-0.2,0-0.6-0.1-0.8c0.1-0.4,0.5-0.1,0.3-0.6c0-0.4-0.2-0.7-0.3-0.5
							c0.1-0.8-0.1-1.7,0.1-2.4c-0.1-0.1-0.1,0-0.1-0.3c0.1-1.2-0.2-2.4,0.1-3.4c0.1,0.3,0.1,0,0.2,0c-0.1-0.3,0.1-0.3-0.1-0.4
							c-0.1,0-0.2,0-0.2,0.3c-0.1-0.7-0.1-1.7,0-2.1c-0.1,0.2-0.1,0-0.1-0.1c0.2,0.1,0.2-0.5,0.1-0.8l-0.1-0.1l0.1-0.3
							c0-0.1-0.2-0.2-0.1-0.5c0,0,0.1,0,0.1-0.1c-0.1-0.4-0.3-1-0.2-1.4l0.2-0.4c0-0.2-0.1-0.6-0.2-0.2c0.1-0.9,0.4-1.5,0.7-1.6
							c0.2-0.8,0.8-1.6,1.7-2.1c0.2-0.1,0.5-0.2,0.7-0.3l0.4-0.1l0.1,0c0.1,0,0.1,0,0.1,0c0,0,0.1,0,0.1,0l0.1,0.1c0,0,0,0,0-0.1
							c0-0.1-0.1-0.1-0.1-0.1c0.1,0.1,0.2,0,0.3,0.1c0-0.1,0-0.2,0-0.3c-0.1-0.2-0.1-0.3-0.1-0.5c-0.1-0.1,0.1,0.3-0.1,0.2
							c0-0.1,0.1-0.8-0.1-0.9c0.1-0.1,0.2,0,0.3,0l-0.1-0.3c0.2-0.4,0.4,1,0.6,0.5l0-0.3c0.2-0.3,0.2,0.8,0.3,0
							c-0.1-0.3-0.3-0.6-0.4-0.3c0-0.4-0.1-0.4-0.2-0.5c-0.1-0.1-0.2-0.3,0-0.8c0.1-0.1,0,0.1,0,0.3c0,0.2,0,0.5,0,0.4
							c0.2-0.5,0.2-1,0.5-1.4c-0.4,0.4-0.3-0.1,0-0.4c0.5-0.3-0.2,0.3,0.5-0.1c0-0.2,0.8-0.5,0.1-0.3c0.2-0.4,1-0.3,1.3-0.4
							c0.1,0.1,0,0.2-0.2,0.2c-0.1,0-0.1,0.1-0.1,0.1c0,0,0.1,0.1,0.3,0.1c-0.1-0.2,0.8-0.2,0.4-0.4c0.2,0,0.3,0.2,0.1,0.3
							c0.2,0,0.4,0,0.5-0.1c0,0,0.1-0.1,0.1,0.1c0-0.1,0-0.1,0-0.2c0,0,0.1,0.1,0.2,0.2l0,0c0-0.1-0.1-0.4,0.1-0.3
							c0-0.1,0.2-0.8,0-0.6c-0.2,0.4,0,0.6-0.2,0.5c0,0,0.1,0,0.1,0c0-0.1,0-0.1,0-0.2c0-0.2,0-0.3,0-0.4l0.1,0c0-0.2,0.1-0.5,0-0.6
							c0,0.1,0.1,0.1,0.1,0l-0.1-0.2c0.1-0.6,0.3-0.1,0.4-0.7l0,0.5c0-0.1,0.2-0.3,0.2-0.5c-0.1-0.1-0.2-0.4-0.2-0.5
							c0-0.3,0.2-0.1,0.1-0.5l0,0.5c0,0.1,0.3-0.2,0.4-0.7c0-0.3,0-0.8-0.2-0.3c0.1-0.2,0.2-0.5,0.3-0.3c0.1-0.5-0.1,0-0.1-0.4
							c0.1-0.1,0.4-0.7,0.6-0.9l0.1,0.5l0.1-0.3c0.1,0.4,0.2-0.2,0.3,0.1c0.1-0.2,0.1-0.4,0.1-0.7c-0.4,0.5-0.2-0.7-0.5-0.8
							c0.2-0.7,0.4-0.9,0.5-1c0.2-0.1,0.2-0.2,0.3-1.1c-0.1,0.1,0-0.8-0.2,0.2c0.1-0.4,0.1-0.7,0.2-0.9c0-0.2,0.1-0.5,0.3-0.6
							c-0.2,0.5,0.4,0,0.1,0.8c0-0.2-0.2,0.2-0.3,0.5c0.2-0.1,0.1,0.4,0.4-0.1c0.1-0.3,0.3-0.6,0.3-0.8c0-0.2-0.2,0.3-0.2,0
							c0.2-0.2,0.2-0.2,0.3-0.3c0.1,0,0.2-0.1,0.3-0.3c-0.3,0-0.3,0.1-0.4,0.1c0,0-0.1-0.1-0.1-0.2c0.1-0.1,0.2-0.1,0.4-0.2
							c0,0-0.1,0.1-0.1,0.1c0.5,0,0.5,0,0.6-0.1c0.1,0,0.1-0.1,0.3,0c0,0.1,0.1,0.3,0.2,0.4c-0.1,0.1-0.2-0.1-0.3-0.2
							c-0.1-0.1-0.4-0.1-0.3,0c0.3,0.1,0.3,0.1,0.4,0.2c0.1,0,0.2,0.1,0.3,0.3c-0.1,0-0.1-0.1-0.2-0.1c0.1,0.1,0,0.6,0.5,1.1
							c0,0.1,0.1,0.1,0.1,0.1c0.1,0.1,0,0,0.1-0.1c0-0.1,0-0.1,0-0.2c0,0,0,0,0,0c0.4,1.2,0.6,1.5,0.8,2.3c-0.2,0.1,0.2,0.9-0.1,0.5
							c0,0,0-0.1,0-0.1c0,0,0-0.1,0-0.3c-0.1-0.2-0.1-0.5-0.2-0.8c-0.2-0.6-0.4-1.1-0.5-1.1c0,0.3-0.1,0.2-0.1-0.1
							c-0.1-0.3-0.3-0.6-0.4-0.5c0.2,0.4,0.2,0.8,0.1,1c0,0.1,0,0.2-0.1,0.3c0,0.2,0.1,0.3,0.2,0.4c0.1-0.1,0-0.3,0.1-0.5
							c0.2,0.9,0.6,1.8,0.8,2.1c0,0.2-0.2,0.2-0.2,0c0.3,0.8,0.5,1.6,0.7,2.4c0.1-0.5,0.3,0.8,0.4,0.4c-0.1-0.4,0-0.8,0.2-0.6
							c0.1,0.3-0.1,0-0.1,0.1c0.2,0.3-0.1,0.5,0.2,0.8c-0.3-0.7-0.3-0.1-0.5-0.1c0.2,0.5-0.1,0,0,0.5c0.2,0.5,0.5,1.1,0.7,1.6
							c0,0.4,0.2,0.9,0.3,1.1c0,0.1,0.2,0.3,0.3,0.2c0.1,0,0.3,0,0.4,0c0.3,0.1,0.1,0.3,0.5,0.3c0.4,0-0.3-0.2,0.3-0.1l-0.1,0
							c0.1,0,0.4,0,0.7,0c0.3,0,0.7,0.2,0.8,0.1c-0.1,0-0.2,0.1-0.3,0.1c0.1,0.1,0.2,0.1,0.4,0.1c0,0.1,0,0.2-0.1,0.1
							c0.2,0.3,0.7,0.6,0.8,1c0-0.1,0-0.2,0-0.3c0.2,0.4,0.2,0.8,0.2,1.1c0,0.3,0,0.6,0,1l-0.1,0l0.1,0.4C52,28.4,51.9,28.8,52,29
							l-0.3-1.1c0.1-0.3,0.2,0.3,0.3,0.1c0.1-0.2,0.1-0.8,0-0.9c0,0.3,0,0.3,0.1,0.5c-0.2,0.1-0.2-0.3-0.3-0.5c0,0.1,0,0.3,0,0.4
							c-0.1-0.2-0.1-0.6-0.1-0.9c0.1,0.2,0.1-0.2,0.1-0.1c-0.2,0-0.3-0.3-0.6-0.6c-0.1-0.2-0.3-0.3-0.5-0.3c-0.1,0-0.2,0-0.4,0
							c-0.1,0-0.3,0-0.5,0c0.3-0.2,0.6-0.3,0.9-0.3c-0.4-0.2-0.4-0.1-0.8-0.2c-0.2,0.1-0.3,0.3-0.8,0.4l0-0.1
							c-0.3,0-0.4,0.1-0.6,0.1c-0.2,0-0.4,0.1-0.7-0.2c-0.2-0.3-0.2-0.6-0.3-0.9c-0.1-0.2-0.1-0.5-0.2-0.7c-0.1-0.5-0.3-0.9-0.4-1.3
							l0.1-0.1c-0.4-0.3-0.5-1.4-0.8-1.9c-0.1-0.5-0.3-1-0.4-1.5c-0.1-0.4-0.3-0.9-0.2-1.1c-0.1-0.3-0.2-0.5-0.3-0.8
							c-0.1-0.2-0.1-0.3-0.2-0.5c-0.1-0.1-0.1-0.4-0.2-0.4c-0.1,0-0.2,0-0.3,0.1c-0.1,0.1-0.1,0.2-0.1,0.3c-0.1,0.2-0.1,0.4-0.2,0.6
							l0-0.5c0,0.5-0.1,0-0.2,0.3c0.2-0.1,0,0.6,0.1,0.8c-0.2,0.2-0.4,1.4-0.5,2.1l-0.1,0c0,0.8-0.4,1.5-0.7,2.4
							c-0.1,0.1-0.2,0.2-0.3,0.5c0.1,0.5,0,0.8-0.1,1.5c-0.1,0.2-0.1,0.5-0.2,0.7c-0.1,0.3-0.2,0.6-0.3,0.9c-0.4,0-0.7,0-1-0.1
							c-0.3,0-0.6,0.1-0.9,0.1l-0.7,0c-0.3,0-0.6,0.2-0.8,0.4c-0.1,0.1-0.2,0.2-0.2,0.4c0,0.1,0,0.1,0,0.2l0,0.4c0,0.5,0,1,0.1,1.5
							l-0.1,0.1l0,0.3c0,0.1,0.1,0.3,0.2,0.4c0.2,0.3,0.4,0.7,0.7,1.1c-0.2,0.1-0.3,0.1-0.3,0.1c-0.1,0-0.4,0-0.5,0
							c-0.4,0-0.8,0-1.2,0l-0.3,0l-0.1,0l-0.1,0c-0.1,0-0.2,0-0.3,0.1c-0.2,0.1-0.3,0.1-0.5,0.2c-0.6,0.3-1,0.9-1.1,1.5l-0.2-0.2
							c-0.2,0.4-0.1,1,0.1,0.9c-0.1,0.4,0.1,1.3-0.1,1.6c0,0.5,0.1,0.7,0.1,1.1c-0.1,1.1-0.1,1.5,0,2.5l0-0.3
							c-0.1-0.1-0.2-0.1-0.2,0.1c0.1,0.4-0.1,1.4,0.2,1c-0.2,1.1,0.1,2.6-0.1,3.6c0.1-0.1,0.1,0.2,0.1,0.3c0,1-0.2,2,0,2.8
							c0,0.2-0.1-0.2-0.1,0.1c0,0.2,0.1,0,0.1,0.3c0.1,1.6-0.1,3.2-0.1,4.6c0.1,2.5,0.1,5.2,0.1,7.6l-0.1,0c0.2,0.8-0.2,1.9,0.1,2.6
							c-0.1,0.2,0,0.7-0.1,0.6c0.2,0.6-0.1,1.8,0.1,2.7c0-0.1,0-0.1,0-0.2c-0.1,0.9,0,1.8-0.1,2.8c0-0.1,0-0.3-0.1-0.3
							c-0.1,0.4,0.2,0.9,0,1.1c0,0.2,0.1,0.2,0.1,0c-0.1,2.2,0.1,4.5,0.1,6.8c-0.2,1.6-0.5,0.2-0.2,1.3c0,0.1,0.1,0.1,0.1,0.1
							c0.1,0.4-0.2,0.7,0.1,0.9c0.1-0.2,0.2,0.1,0.3,0.1c0.3,0.7,0.4,0.9,1,1.2L36,78.4c0.4,0.1,0.8,0.2,1.1,0.2l0.3,0l0.3,0
							c0.2,0,0.4-0.1,0.6-0.1c2.5,0,5-0.1,7.5-0.1c1.2,0,2.5,0,3.7-0.1l1.8,0l0.9,0c0.2,0,0.4,0,0.6-0.1c0.8-0.2,1.4-0.8,1.6-1.6
							c0.1-0.2,0.1-0.4,0.1-0.6l0-0.9l0-1.8c0-2.4,0-4.9,0.1-7.3c0.2-1.2,0.2-1.3,0.1-2.5c0,0.1,0,0.1,0.1,0c-0.2-0.1,0-0.9-0.2-1
							c0-1.8,0-3.5,0-5.4c0,0.3,0.2,0.4,0.2,0.1l-0.1-0.4l0.1-0.1c0-0.2-0.1-0.5-0.2-0.3c-0.2-4.7,0.2-9.4,0.2-14.1
							c0.1-1.1,0-2.7,0-3.9c0.1-1.8,0.3-3.5,0.3-5.1c0-0.7-0.3-1.3-0.8-1.8c-0.5-0.5-1.2-0.7-1.9-0.7c0,0,0.1-0.1,0.4-0.2
							C52.9,30.5,53.4,30.4,54.1,30.7z"/>
						<path fill="#808181" d="M51.6,29.5c0.1-0.1,0.2-0.5,0.3-0.1C51.8,29.3,51.7,29.5,51.6,29.5z"/>
						<path fill="#808181" d="M47.7,21.5c0,0,0-0.2,0-0.2c0,0.1,0.2,0.2,0.1,0.3C47.8,21.5,47.8,21.5,47.7,21.5z"/>
						<path fill="#808181" d="M47,18.8c0.1,0,0.3,0.6,0.4,0.9L47,18.8z"/>
						<path fill="#808181" d="M46.2,14.9L46.2,14.9c-0.1-0.4-0.1-0.4,0.1-0.2c0,0.1,0,0.2,0.1,0.3C46.4,15.1,46.3,14.9,46.2,14.9z"
							/>
						<path fill="#808181" d="M46,14.9c-0.1-0.3-0.2-0.4-0.2-0.6c0,0.1,0.1,0.2,0.2,0.3C46,14.7,46.1,14.8,46,14.9z"/>
						<path fill="#808181" d="M42.5,17.9c0,0.1,0,0.4-0.2,0.5C42.4,18.3,42.4,17.8,42.5,17.9z"/>
						<path fill="#808181" d="M41.9,20.5c0,0.1-0.1,0.1-0.1,0.2c-0.1,0.1-0.1,0-0.1-0.2L41.9,20.5z"/>
						<polygon fill="#808181" points="33.3,63.1 33.3,62.8 33.4,62.9 						"/>
						<path fill="#808181" d="M40.3,80c0.3-0.1,0.2,0.1,0.2,0.1C40.3,80.1,40.6,80,40.3,80z"/>
						<polygon fill="#808181" points="51.7,79.6 51.6,79.6 51.6,79.4 						"/>
					</g>
				</g>
			</g>
		</g>
	</g>
	<g>
		<g>
			<g>
				<g>
					<g>
						<path fill="#808181" d="M51.2,30.1C51.2,30.1,51.2,30.1,51.2,30.1L51.2,30.1L51.2,30.1z"/>
						<path fill="#808181" d="M51.1,30c0,0,0,0.1,0,0.1C51.1,30.1,51.1,30.1,51.1,30C51.1,30,51.1,30.1,51.1,30
							C51.1,30.1,51.1,30.1,51.1,30C51.1,30,51.1,30,51.1,30C51.1,30.1,51.1,30,51.1,30z"/>
						<path fill="#808181" d="M49.4,30.3L49.4,30.3C49.4,30.3,49.4,30.3,49.4,30.3z"/>
						<path fill="#808181" d="M48.4,30.5C48.4,30.5,48.4,30.5,48.4,30.5C48.4,30.5,48.4,30.5,48.4,30.5z"/>
						<path fill="#808181" d="M48.2,30.4C48.2,30.4,48.2,30.4,48.2,30.4C48.2,30.4,48.2,30.4,48.2,30.4z"/>
						<path fill="#808181" d="M49.4,30.3L49.4,30.3C49.4,30.3,49.4,30.3,49.4,30.3z"/>
						<path fill="#808181" d="M50.9,30.2C50.9,30.2,50.9,30.2,50.9,30.2C50.9,30.2,50.9,30.2,50.9,30.2L50.9,30.2z"/>
						<polygon fill="#808181" points="49.9,30.2 49.9,30.2 49.9,30.1 						"/>
						<path fill="#808181" d="M50.2,30.1C50.2,30.1,50.2,30.1,50.2,30.1C50.2,30.1,50.2,30.1,50.2,30.1
							C50.2,30.1,50.2,30.1,50.2,30.1z"/>
						<path fill="#808181" d="M50.7,30L50.7,30L50.7,30z"/>
						<path fill="#808181" d="M49.6,30.2C49.6,30.2,49.6,30.2,49.6,30.2L49.6,30.2z"/>
						<path fill="#808181" d="M39.9,30.7L39.9,30.7C39.9,30.7,39.9,30.7,39.9,30.7z"/>
						<polygon fill="#808181" points="39.6,30.4 39.6,30.4 39.6,30.3 						"/>
						<path fill="#808181" d="M47.9,30.4L47.9,30.4C47.9,30.4,47.9,30.4,47.9,30.4z"/>
						<path fill="#808181" d="M45,30.7c0,0-0.1,0.1,0,0.1C45,30.8,45,30.7,45,30.7z"/>
						<path fill="#808181" d="M50.9,30.2L50.9,30.2C50.9,30.2,50.9,30.2,50.9,30.2z"/>
						<polygon fill="#808181" points="45,30.8 45,30.8 45,30.8 						"/>
						<path fill="#808181" d="M47.2,30.5C47.2,30.5,47.2,30.6,47.2,30.5C47.2,30.6,47.2,30.6,47.2,30.5z"/>
						<path fill="#808181" d="M47.7,30.6L47.7,30.6C47.7,30.5,47.7,30.6,47.7,30.6z"/>
						<path fill="#808181" d="M46.9,30.6C46.9,30.6,46.9,30.6,46.9,30.6L46.9,30.6C46.9,30.6,46.9,30.6,46.9,30.6z"/>
						<polygon fill="#808181" points="46.6,30.7 46.6,30.7 46.6,30.7 						"/>
						<path fill="#808181" d="M40.8,30.9C40.8,30.9,40.8,30.8,40.8,30.9C40.8,30.9,40.8,30.9,40.8,30.9z"/>
						<path fill="#808181" d="M50.9,30.2C50.9,30.2,50.9,30.2,50.9,30.2L50.9,30.2C50.9,30.2,50.9,30.2,50.9,30.2z"/>
						<path fill="#808181" d="M46.9,31.1L46.9,31.1C46.9,31.1,46.9,31.1,46.9,31.1z"/>
						<path fill="#808181" d="M43,31.1L43,31.1C43,31.1,43,31.1,43,31.1z"/>
						<path fill="#808181" d="M46.7,31.1C46.7,31.1,46.7,31.1,46.7,31.1C46.7,31.1,46.7,31.1,46.7,31.1L46.7,31.1z"/>
						<path fill="#808181" d="M40.8,30.8L40.8,30.8L40.8,30.8z"/>
						<path fill="#808181" d="M40.5,30.9c0,0,0-0.1,0.1-0.1C40.6,30.8,40.5,30.9,40.5,30.9c0.1,0,0.2-0.1,0.2-0.1c0,0,0,0,0,0
							c0,0,0.1,0,0.2,0l0,0c0,0,0-0.1,0-0.1c0,0,0,0,0,0c0,0,0,0,0,0l0,0c0,0.1,0,0,0,0.1c0,0,0.1-0.1,0.1,0c0,0.1-0.1,0,0,0.1l0,0
							c0,0.1,0,0,0,0.1c0.1,0,0.1,0,0.1,0c0,0,0-0.1,0-0.1c0.1-0.1,0,0.2,0.1,0.1c0,0,0-0.1,0.1-0.1l0,0.1c0.1,0,0.1-0.1,0.1,0
							c0,0-0.1,0,0,0c0,0.1,0,0,0.1,0l0,0.1c0.1,0,0.1,0,0.2,0c0,0,0,0,0,0.1c0.1,0,0.2,0,0.3,0.1l0-0.1c0,0,0,0,0,0c0,0,0,0,0-0.1
							c0,0,0,0,0,0.1c0.1,0,0.2-0.1,0.2,0l0,0c0,0,0.1-0.1,0.1-0.1l0,0c0.1,0,0.2,0,0.3,0.1c0-0.1,0.1,0,0.1-0.1
							c0.1,0.1,0,0.1,0.1,0.1c0,0,0-0.1,0.1-0.1l0,0.1l0-0.1l0,0.1l0,0c0,0,0,0,0,0c0,0,0.1,0,0.1,0.1l0.1,0c0,0,0,0,0,0
							c0.1-0.1,0,0.1,0.1,0c0,0,0,0,0,0c0,0,0.1,0,0.1,0l0,0c0.1,0,0.2,0,0.2,0c0,0,0-0.1,0-0.1l0,0.1c0,0,0,0,0-0.1
							c0,0,0,0.1,0,0.1l0,0c0,0,0,0,0,0.1c0,0,0.1,0.1,0.1,0l0,0c0.1,0,0.1,0,0.2,0c0-0.1,0,0,0.1-0.1c0.1,0,0.1,0.1,0.2,0.1
							c0,0,0,0,0-0.1c0,0,0.1,0,0,0.1c0.1,0,0.1,0,0.2,0c0,0,0,0,0,0c0,0,0,0,0,0l0,0c0.1-0.1,0.2,0.1,0.3,0l0,0l0.1-0.1
							c0,0,0,0,0,0.1c0.1-0.1,0.1,0,0.2,0c0.1,0.1,0.2,0,0.3,0.1l0,0c0,0,0,0,0,0c0,0,0,0,0,0c0.2,0,0.4,0,0.5,0.1
							c0.1,0,0-0.2,0.1-0.1l0,0.1c0.1-0.1,0.3,0,0.4-0.1c0,0,0,0,0,0c0,0,0.1,0,0.1,0c0,0,0,0,0,0.1c0,0,0.1-0.1,0.1,0c0,0,0,0,0,0
							c0,0,0.1,0,0.1-0.1c0.1,0,0.1,0,0.1,0c0-0.1,0.1,0,0.1-0.1c0,0.1,0.1,0.1,0.1,0c0,0,0,0,0,0.1c0,0,0.1,0,0.1-0.1
							c0.1,0.1,0.1-0.1,0.2,0c0.1-0.1,0.2-0.1,0.3-0.1c0,0.1-0.1,0-0.1,0.1c0.1,0,0.1-0.1,0.2-0.1c0,0,0,0,0,0.1
							c0.1,0,0.2,0,0.2-0.1c0,0,0,0,0,0c0,0,0,0,0,0l0,0c0-0.1,0-0.1,0-0.2c0,0.1,0.1,0,0.1,0.2c0,0,0,0,0-0.1c0,0,0,0,0,0.1
							c0.1,0,0-0.1,0.1-0.1c0,0,0,0,0,0.1c0,0,0-0.1,0.1-0.1c0,0,0,0,0,0c0.1,0,0.1-0.1,0.2-0.1c0,0.1,0,0,0,0.1l0,0l0,0
							c0,0,0.1-0.1,0.1,0l0,0l0.1,0l0,0c0,0,0-0.1,0-0.1c0,0,0,0,0.1,0l0,0c0,0,0-0.1,0.1,0c0,0,0,0.1,0,0.1c0-0.1,0.1,0,0.1-0.1
							c0,0,0,0.1,0,0.1l0-0.1c0,0,0,0,0,0.1c0.1,0,0-0.1,0-0.1c0,0,0,0,0,0c0.1,0,0.1-0.1,0.2,0c0,0.1,0,0,0,0.1
							c0.1,0,0.2-0.1,0.2-0.1l0,0c0-0.1,0.1,0,0.1,0c0,0,0,0.1,0,0c0.1,0,0.1,0,0.2-0.1l0,0c0,0,0.1,0,0.1,0c0,0,0,0,0-0.1
							c0.1,0.1,0.2-0.1,0.3,0c0,0,0,0,0,0l0.1,0c0,0,0,0,0-0.1c0,0,0-0.1,0-0.1c0,0,0,0.1,0,0.1c0,0,0,0,0,0c0.1,0.1,0-0.1,0.1-0.1
							l0,0c0,0,0-0.1,0.1-0.1c0,0,0,0,0,0.1c0,0,0-0.1,0.1-0.1c0,0,0,0,0,0c0,0.1,0,0,0.1,0l0,0l0.1,0l0,0c0-0.1,0.1,0,0.1-0.1
							c0,0.1,0,0,0,0.1c0,0,0,0,0,0c0-0.1,0.1,0,0.1-0.1c0,0,0,0,0,0c0,0,0,0,0-0.1c0-0.1,0.1,0,0.2-0.1c0.1-0.1,0-0.1,0.1-0.2
							c0,0,0,0.1,0,0.1c0,0,0.1,0,0.1,0c0,0,0,0,0,0c0,0,0-0.1,0-0.1c0,0,0,0.1,0,0.1c0,0,0-0.1,0.1-0.1c0,0,0,0.1,0,0.1
							c0,0,0.1-0.1,0.1-0.1l0,0c0,0,0,0,0,0.1c0,0,0,0-0.1,0l0,0c-0.1-0.1-0.1,0-0.1,0l0-0.1l0,0.1c0,0,0-0.1,0-0.1c0,0,0,0-0.1,0
							c0,0,0,0,0,0l0,0c0,0,0-0.1,0,0c-0.1,0-0.1,0.1-0.1,0l0,0c-0.1,0,0,0.1,0,0.1l-0.1-0.1l0,0.1c0,0,0,0,0,0c0,0,0,0,0,0.1
							c0,0-0.1,0.1-0.1,0c0,0,0,0,0,0.1c0-0.1,0,0-0.1,0c0-0.1,0,0,0-0.1c0,0.1-0.1,0-0.1,0c0,0.1-0.1,0-0.1,0.1c0,0-0.1,0-0.1,0
							l0,0c0,0.1,0,0.1-0.1,0.1c0,0,0-0.1,0-0.1l0,0c0,0,0,0,0,0l0-0.1c0,0-0.1,0.1-0.1,0.1c0,0,0.1,0.1,0,0.2c0,0,0-0.1,0-0.1
							c0,0,0,0,0,0l0,0c0,0,0,0,0,0c0,0,0,0,0-0.1c0,0,0,0,0,0c0,0-0.1,0-0.1,0c0,0,0,0.1,0,0.1c0,0,0,0-0.1-0.1c0,0,0,0,0,0.1
							c0,0,0,0,0,0c0,0-0.1,0-0.1,0.1l0,0l0,0l0,0l0,0c-0.1,0.1-0.2,0-0.2,0l0,0c0,0-0.1,0-0.1,0.1c0,0,0,0,0-0.1c0,0,0,0-0.1,0
							c0,0,0,0,0,0c0,0-0.1,0-0.1,0c0-0.1,0-0.1-0.1,0l0,0c0,0,0,0-0.1,0l0-0.1c-0.1-0.1-0.1,0.2-0.2,0c0,0,0.1,0,0,0.1
							c0,0-0.1-0.1-0.1-0.1c-0.1,0,0,0.1-0.1,0.1c0,0,0,0.1,0,0.1c0,0-0.1-0.1,0-0.1c0,0,0,0,0,0c0,0,0,0,0,0l0,0c0,0-0.1,0-0.1,0
							c0,0,0,0,0,0c-0.1,0-0.1,0-0.1,0c0,0,0,0,0,0c-0.1,0,0,0-0.1,0.1c0,0,0-0.1,0,0c0,0,0-0.1,0-0.1c0,0.1-0.1,0-0.1,0l0,0
							c0,0,0,0,0,0l0,0c0,0,0,0,0,0c0,0,0,0.1,0,0.1c0,0-0.1,0-0.1,0c0.1,0,0-0.1,0-0.1c0,0,0,0,0,0c0,0,0,0,0,0
							c-0.1,0,0,0.1-0.1,0.1c0,0,0-0.1,0-0.1c0,0,0,0.1,0,0.1c0,0,0,0-0.1,0l0,0c0,0,0,0,0,0c0,0,0,0,0,0c0,0.1-0.1-0.1-0.1,0
							c0,0,0-0.1,0-0.1c0,0-0.1,0-0.1,0c0,0,0,0,0,0.1l0.1,0l0,0.1c0,0,0,0,0.1,0c0,0,0,0,0,0.1c0-0.1-0.1,0-0.1,0l0-0.1
							c-0.1,0-0.1,0.1-0.2,0l0,0c0,0,0,0-0.1,0c0,0,0-0.1,0-0.1c0,0-0.1,0-0.1,0.1l0,0c-0.1,0-0.1,0.1-0.1,0.1c0,0,0-0.1,0-0.1
							c0,0,0,0,0,0c0,0,0,0.1-0.1,0c0,0,0,0.1,0,0.1c0,0,0,0,0,0c0,0,0,0,0,0.1c-0.1-0.1-0.2,0-0.2-0.1c0,0-0.1,0-0.1,0c0,0,0,0,0,0
							c-0.1,0,0,0.1-0.1,0.1c0-0.1,0,0,0-0.1c0-0.1-0.1,0-0.1,0l0,0c0,0-0.1,0.1-0.1,0c0,0,0,0,0,0c0,0.1-0.1,0.1-0.1,0.1
							c0-0.1,0,0,0-0.1c0,0,0,0.1,0,0.1c0,0-0.1,0-0.1-0.1l0,0c0-0.1-0.1,0-0.1,0l0,0c-0.1,0-0.1,0.1-0.1,0.1l0,0c0,0.1,0,0-0.1,0
							l0-0.1c0,0-0.1,0.1-0.1,0.1c0-0.1,0.1-0.1,0.1-0.1c0,0-0.1,0-0.1,0c0,0,0,0,0,0c0,0.1-0.1,0.1-0.1,0.1c0-0.1-0.1,0-0.2-0.1
							c-0.1,0.1-0.2,0-0.3,0c0,0.1,0,0,0,0.1c0,0,0,0,0,0l-0.1-0.1c0,0,0,0,0-0.1c-0.1,0,0,0-0.1-0.1c0,0,0,0.1,0,0l0,0.1
							c-0.1,0.1-0.1-0.1-0.1,0l0,0c0,0-0.1,0-0.2,0.1c0,0,0,0,0-0.1c-0.1,0-0.2,0.1-0.3,0l0,0c0,0,0,0.1-0.1,0c0,0,0,0,0,0
							c0,0,0,0.1-0.1,0l0,0c-0.1,0-0.1,0.1-0.2,0.1c0-0.1-0.1-0.1-0.1-0.1l0,0c-0.1,0-0.2,0.1-0.3,0.1c-0.1-0.1-0.2,0-0.3-0.1
							c0,0,0,0.1,0,0.1c0,0-0.1,0.1-0.1,0l0,0c0-0.1-0.1-0.1-0.1-0.1l0,0.1c-0.1-0.2-0.2,0-0.3-0.1c0,0-0.1,0-0.1,0l0-0.1
							c-0.1,0-0.1,0-0.2,0l0,0c0,0-0.1,0.2-0.1,0.2l0-0.1c-0.1,0-0.1-0.1-0.2,0c0,0,0,0,0,0c0,0-0.1-0.1-0.1,0c0-0.1-0.1,0-0.1,0
							l0-0.1c0,0.1,0,0.1-0.1,0.1c0,0,0,0,0,0c0,0,0,0-0.1,0l0,0c0,0,0,0-0.1,0c0,0-0.1,0-0.1-0.1c0,0,0,0.1-0.1,0c0,0,0,0,0,0
							c-0.1,0-0.1,0.1-0.1,0c0,0,0,0,0,0c0.1,0,0.1,0,0.1,0c0,0,0-0.1,0-0.1c0,0-0.1,0.1-0.1,0.1c0,0,0,0,0,0l0,0c0,0,0,0,0,0
							c0,0,0,0,0,0c0,0,0,0-0.1,0c0,0.1,0,0,0,0.1c0,0,0,0,0,0l0,0l0,0c0,0,0,0,0.1,0c0,0,0,0-0.1,0c0,0,0,0.1,0,0.1
							c0-0.1-0.1-0.1-0.1-0.2c-0.1,0-0.2,0-0.2,0.1c0,0,0,0,0,0c0,0,0,0,0,0c0,0-0.1,0-0.1,0.1c0,0,0-0.1,0-0.1l0,0
							c-0.1-0.1-0.2,0.1-0.3,0c0,0,0,0,0,0c-0.1-0.1-0.3,0-0.5-0.1c0,0-0.1,0-0.1,0l0-0.1l-0.1,0.1c-0.1,0-0.1-0.2-0.2-0.1l0,0
							c0,0-0.1,0-0.1,0c0,0,0,0,0,0l0,0l-0.1,0c0,0,0-0.1,0-0.1c0,0-0.1,0.1-0.1,0.1c0,0,0,0,0,0.1l0,0c0,0.1-0.1,0.2,0,0.2l0.1,0
							l0,0l0,0c0,0,0,0,0.1,0c0,0,0,0,0,0.1l0.1-0.1c0,0,0,0.1,0,0.1c0,0,0-0.1,0-0.1c0,0,0,0.1,0,0c0,0,0,0,0,0c0,0,0.1,0,0.1,0
							c0,0.1,0.1,0,0.1,0.1c0,0,0.1-0.1,0.1-0.1c-0.1,0.1,0.1,0,0,0.1c0-0.1,0.1,0,0.2-0.1c0,0,0,0,0,0c0,0,0,0,0,0.1
							c0-0.1,0.1-0.1,0.1-0.1c0,0.1,0,0.1,0,0.2c0-0.1,0.1,0,0.1-0.1C40.4,30.8,40.4,30.8,40.5,30.9c-0.1-0.2,0-0.1,0-0.1
							C40.5,30.8,40.5,30.9,40.5,30.9C40.5,30.9,40.5,30.9,40.5,30.9z M41.6,30.9L41.6,30.9C41.6,30.9,41.5,30.9,41.6,30.9
							C41.5,30.9,41.6,30.9,41.6,30.9z M41.7,30.9C41.6,30.9,41.6,30.9,41.7,30.9C41.6,30.9,41.6,30.9,41.7,30.9
							C41.6,30.9,41.6,30.9,41.7,30.9z M41.5,30.5C41.5,30.5,41.5,30.5,41.5,30.5C41.5,30.5,41.5,30.5,41.5,30.5L41.5,30.5
							C41.5,30.5,41.5,30.5,41.5,30.5z"/>
						<path fill="#808181" d="M41.5,30.6L41.5,30.6C41.5,30.6,41.5,30.6,41.5,30.6L41.5,30.6L41.5,30.6z"/>
						<polygon fill="#808181" points="49.4,30.3 49.4,30.3 49.4,30.3 						"/>
						<polygon fill="#808181" points="42.9,31.1 42.9,31.1 42.9,31.1 						"/>
						<path fill="#808181" d="M50,30.4C50,30.4,50,30.4,50,30.4C50,30.4,50,30.4,50,30.4z"/>
						<path fill="#808181" d="M50.2,30.4L50.2,30.4C50.2,30.4,50.2,30.4,50.2,30.4z"/>
						<path fill="#808181" d="M50.3,30.4C50.3,30.3,50.3,30.3,50.3,30.4L50.3,30.4L50.3,30.4z"/>
						<path fill="#808181" d="M47.8,30.9L47.8,30.9C47.8,30.9,47.8,30.9,47.8,30.9z"/>
						<path fill="#808181" d="M48.5,30.7C48.5,30.7,48.5,30.7,48.5,30.7C48.5,30.7,48.5,30.7,48.5,30.7z"/>
						<polygon fill="#808181" points="46.9,31.1 46.9,31.1 46.9,31.1 						"/>
						<path fill="#808181" d="M48.5,30.7C48.5,30.7,48.5,30.7,48.5,30.7C48.5,30.7,48.5,30.7,48.5,30.7z"/>
						<polygon fill="#808181" points="51,30.2 51,30.2 51,30.2 						"/>
						<path fill="#808181" d="M51,30.2L51,30.2C51,30.2,51,30.2,51,30.2z"/>
						<path fill="#808181" d="M51,30.2L51,30.2C51,30.2,51,30.2,51,30.2z"/>
						<path fill="#808181" d="M50.8,30.2L50.8,30.2C50.8,30.3,50.8,30.2,50.8,30.2z"/>
						<path fill="#808181" d="M50.7,30.3C50.8,30.3,50.8,30.3,50.7,30.3L50.7,30.3C50.8,30.3,50.7,30.2,50.7,30.3z"/>
						<path fill="#808181" d="M50.4,30.1L50.4,30.1C50.5,30.1,50.4,30,50.4,30.1C50.4,30,50.5,30.1,50.4,30.1z"/>
						<path fill="#808181" d="M50.2,30.1C50.3,30.1,50.2,30.1,50.2,30.1C50.2,30.1,50.2,30.1,50.2,30.1z"/>
						<path fill="#808181" d="M49.1,30.4L49.1,30.4C49,30.3,49,30.3,49.1,30.4z"/>
						<polygon fill="#808181" points="48.9,30.7 48.9,30.7 48.9,30.6 						"/>
						<polygon fill="#808181" points="48.7,30.3 48.7,30.3 48.6,30.4 						"/>
						<path fill="#808181" d="M46.7,30.6L46.7,30.6C46.7,30.7,46.7,30.6,46.7,30.6z"/>
						<path fill="#808181" d="M45.8,30.8C45.8,30.7,45.7,30.7,45.8,30.8C45.7,30.7,45.8,30.8,45.8,30.8z"/>
						<polygon fill="#808181" points="43.1,30.7 43.2,30.6 43.1,30.7 						"/>
					</g>
				</g>
			</g>
		</g>
	</g>
	<g>
		<g>
			<g>
				<g>
					<g>
						<path fill="#808181" d="M47.6,25.2C47.6,25.2,47.6,25.2,47.6,25.2L47.6,25.2L47.6,25.2z"/>
						<path fill="#808181" d="M47.5,25.1c0,0,0,0.1,0,0.1C47.5,25.2,47.5,25.2,47.5,25.1C47.5,25.2,47.5,25.2,47.5,25.1
							C47.6,25.2,47.6,25.2,47.5,25.1C47.5,25.1,47.5,25.1,47.5,25.1C47.5,25.2,47.5,25.1,47.5,25.1z"/>
						<path fill="#808181" d="M46.8,25.3L46.8,25.3L46.8,25.3z"/>
						<path fill="#808181" d="M46.4,25.3C46.4,25.3,46.4,25.3,46.4,25.3C46.4,25.3,46.4,25.3,46.4,25.3z"/>
						<path fill="#808181" d="M46.3,25.3L46.3,25.3C46.3,25.3,46.3,25.3,46.3,25.3z"/>
						<path fill="#808181" d="M46.8,25.3L46.8,25.3C46.8,25.3,46.8,25.3,46.8,25.3z"/>
						<path fill="#808181" d="M47.5,25.3C47.5,25.3,47.5,25.3,47.5,25.3L47.5,25.3L47.5,25.3z"/>
						<polygon fill="#808181" points="47,25.2 47,25.2 47,25.1 						"/>
						<path fill="#808181" d="M47.1,25.1C47.1,25.1,47.1,25.2,47.1,25.1C47.1,25.2,47.1,25.2,47.1,25.1
							C47.1,25.1,47.1,25.1,47.1,25.1z"/>
						<path fill="#808181" d="M47.4,25.1L47.4,25.1L47.4,25.1z"/>
						<path fill="#808181" d="M46.9,25.2C46.9,25.2,46.9,25.2,46.9,25.2L46.9,25.2z"/>
						<path fill="#808181" d="M42.7,25.8L42.7,25.8C42.7,25.8,42.7,25.8,42.7,25.8z"/>
						<polygon fill="#808181" points="42.6,25.5 42.6,25.5 42.6,25.4 						"/>
						<path fill="#808181" d="M46.1,25.2L46.1,25.2C46.1,25.2,46.1,25.2,46.1,25.2z"/>
						<path fill="#808181" d="M44.9,25.4c0,0,0,0.1,0,0.1C44.9,25.5,44.9,25.4,44.9,25.4z"/>
						<path fill="#808181" d="M47.5,25.3L47.5,25.3L47.5,25.3z"/>
						<polygon fill="#808181" points="44.9,25.5 44.9,25.5 44.9,25.5 						"/>
						<path fill="#808181" d="M45.8,25.3L45.8,25.3C45.8,25.3,45.8,25.3,45.8,25.3z"/>
						<path fill="#808181" d="M46.1,25.3L46.1,25.3C46.1,25.3,46.1,25.3,46.1,25.3z"/>
						<path fill="#808181" d="M45.7,25.4C45.7,25.4,45.7,25.4,45.7,25.4L45.7,25.4C45.7,25.4,45.7,25.4,45.7,25.4z"/>
						<polygon fill="#808181" points="45.6,25.4 45.6,25.4 45.6,25.4 						"/>
						<path fill="#808181" d="M43.1,25.8L43.1,25.8C43.1,25.8,43.1,25.8,43.1,25.8z"/>
						<path fill="#808181" d="M47.5,25.3C47.5,25.3,47.5,25.3,47.5,25.3L47.5,25.3C47.5,25.3,47.5,25.3,47.5,25.3z"/>
						<path fill="#808181" d="M45.8,25.8L45.8,25.8C45.8,25.8,45.8,25.8,45.8,25.8z"/>
						<path fill="#808181" d="M44.1,25.8L44.1,25.8C44.1,25.8,44.1,25.8,44.1,25.8z"/>
						<path fill="#808181" d="M45.7,25.8C45.7,25.8,45.7,25.8,45.7,25.8C45.7,25.8,45.7,25.8,45.7,25.8L45.7,25.8z"/>
						<path fill="#808181" d="M43.1,25.7L43.1,25.7L43.1,25.7z"/>
						<path fill="#808181" d="M43,25.9c0,0,0-0.1,0-0.1C43,25.7,43,25.8,43,25.9C43,25.8,43,25.8,43,25.9
							C43.1,25.8,43.1,25.8,43,25.9c0.1-0.1,0.1-0.1,0.1-0.1l0,0c0,0,0-0.1,0-0.1c0,0,0,0,0,0c0,0,0,0,0,0l0,0c0,0.1,0,0,0,0.1
							c0,0,0-0.1,0.1-0.1c0,0.1,0,0,0,0.1l0,0c0,0.1,0,0,0,0.1c0,0,0,0,0.1,0c0,0,0-0.1,0-0.1c0-0.1,0,0.2,0.1,0.1c0,0,0-0.1,0-0.1
							l0,0.1c0,0,0-0.1,0-0.1c0,0,0,0,0,0c0,0.1,0,0,0,0l0,0.1c0,0,0.1-0.1,0.1-0.1c0,0,0,0,0,0.1c0,0,0.1,0,0.1,0.1l0-0.1
							c0,0,0,0,0,0c0,0,0,0,0-0.1c0,0,0,0,0,0.1c0,0,0.1-0.1,0.1,0l0,0c0,0,0-0.1,0-0.1l0,0c0,0,0.1,0,0.1,0.1c0-0.1,0,0,0.1-0.1
							c0,0.1,0,0.1,0.1,0.1c0,0,0-0.1,0-0.1l0,0.1l0-0.1l0,0.1l0,0c0,0,0,0,0,0c0,0,0,0,0,0.1l0,0c0,0,0,0,0,0c0-0.1,0,0.1,0,0
							c0,0,0,0,0,0c0,0,0,0,0.1,0l0,0c0,0,0.1,0,0.1,0c0,0,0-0.1,0-0.1l0,0.1c0,0,0,0,0-0.1c0,0,0,0.1,0,0.1l0,0c0,0,0,0,0,0.1
							c0,0,0,0.1,0,0l0,0c0,0,0.1,0,0.1,0c0-0.1,0,0,0-0.1c0,0,0,0.1,0.1,0.1c0,0,0,0,0-0.1c0,0,0,0,0,0.1c0,0,0,0,0.1-0.1
							c0,0,0,0,0,0c0,0,0,0,0,0l0,0c0-0.1,0.1,0.1,0.1,0l0,0l0-0.1c0,0,0,0,0,0.1c0-0.1,0.1,0,0.1,0c0,0.1,0.1,0,0.1,0.1l0,0
							c0,0,0,0,0,0c0,0,0,0,0,0c0.1,0,0.2,0,0.2,0.1c0,0,0-0.2,0-0.1l0,0.1c0.1-0.1,0.1,0,0.2-0.1c0,0,0,0,0,0c0,0,0,0,0,0
							c0,0,0,0,0,0.1c0,0,0-0.1,0,0c0,0,0,0,0,0c0,0,0,0,0-0.1c0,0,0,0,0.1,0c0-0.1,0,0,0-0.1c0,0.1,0,0.1,0.1,0c0,0,0,0,0,0.1
							c0,0,0,0,0-0.1c0,0.1,0-0.1,0.1,0c0-0.1,0.1-0.1,0.1-0.1c0,0.1,0,0,0,0.1c0,0,0-0.1,0.1-0.1c0,0,0,0,0,0.1c0,0,0.1,0,0.1-0.1
							c0,0,0,0,0,0c0,0,0,0,0,0l0,0c0-0.1,0-0.1,0-0.2c0,0.1,0,0,0,0.2c0,0,0,0,0-0.1c0,0,0,0,0,0.1c0,0,0-0.1,0-0.1c0,0,0,0,0,0
							c0,0,0-0.1,0-0.1c0,0,0,0,0,0c0,0,0-0.1,0.1-0.1c0,0.1,0,0,0,0.1l0,0l0,0c0,0,0-0.1,0,0l0,0l0,0l0,0c0,0,0-0.1,0-0.1
							c0,0,0,0,0,0l0,0c0,0,0,0,0,0c0,0,0,0.1,0,0.1c0-0.1,0,0,0-0.1c0,0,0,0.1,0,0.1l0,0c0,0,0,0,0,0.1c0,0,0-0.1,0-0.1
							c0,0,0,0,0,0c0,0,0,0,0.1,0c0,0.1,0,0,0,0.1c0,0,0.1-0.1,0.1-0.1l0,0c0-0.1,0,0,0,0c0,0,0,0.1,0,0c0,0,0,0,0.1-0.1l0,0
							c0,0,0,0,0.1,0c0,0,0,0,0-0.1c0.1,0.1,0.1-0.1,0.1,0c0,0,0,0,0,0l0,0c0,0,0,0,0-0.1c0,0,0,0,0-0.1c0,0,0,0.1,0,0.1l0,0
							c0,0.1,0-0.1,0,0l0,0c0,0,0,0,0,0c0,0,0,0,0,0.1c0,0,0-0.1,0-0.1c0,0,0,0,0,0c0,0.1,0,0,0,0l0,0l0,0l0,0c0-0.1,0,0,0-0.1
							c0,0.1,0,0,0,0.1c0,0,0,0,0,0c0,0,0,0,0,0c0,0,0,0,0,0c0,0,0,0,0-0.1c0-0.1,0.1,0.1,0.1,0c0,0,0-0.1,0-0.1c0,0,0,0.1,0,0.1
							c0,0,0,0,0,0c0,0,0,0,0,0c0,0,0-0.1,0,0c0,0,0,0.1,0,0.1c0,0,0-0.1,0-0.1c0,0,0,0,0,0.1c0,0,0,0,0-0.1l0,0c0,0,0,0,0,0.1
							c0,0,0,0,0,0l0,0c-0.1-0.1,0,0,0,0l0-0.1l0,0.1c0,0,0-0.1,0-0.1c0,0,0,0,0,0c0,0,0,0,0,0l0,0c0,0,0-0.1,0,0c0,0,0,0.1,0,0l0,0
							c0,0,0,0.1,0,0.1l-0.1-0.1l0,0.1c0,0,0,0,0,0c0,0,0,0,0,0.1c0,0,0,0-0.1,0c0,0,0,0,0,0.1c0-0.1,0,0,0,0c0-0.1,0,0,0-0.1
							c0,0.1,0,0,0,0c0,0.1,0,0,0,0.1c0,0,0,0-0.1,0l0,0c0,0.1,0,0.1,0,0.1c0,0,0-0.1,0-0.1l0,0c0,0,0,0,0,0l0-0.1c0,0,0,0.1,0,0
							c0,0,0.1,0.1,0,0.2c0,0,0-0.1,0-0.1c0,0,0,0,0,0l0,0c0,0,0,0,0,0c0,0,0,0,0-0.1c0,0,0,0,0,0c0,0,0,0,0,0c0,0,0,0,0,0.1
							c0,0,0,0,0-0.1c0,0,0,0,0,0.1c0,0,0,0,0,0c0,0,0,0,0,0.1l0,0l0,0l0,0l0,0c0,0.1-0.1,0-0.1,0l0,0c0,0,0,0,0,0.1c0,0,0,0,0-0.1
							c0,0,0,0,0,0c0,0,0,0,0,0c0,0,0,0,0,0c0,0,0-0.1,0,0l0,0c0,0,0,0,0,0l0-0.1c-0.1-0.1,0,0.1-0.1,0c0,0,0,0,0,0.1
							c0,0-0.1-0.1-0.1-0.1c0,0,0,0.1,0,0.1c0,0,0,0.1,0,0.1c0,0,0-0.1,0-0.1c0,0,0,0,0,0c0,0,0,0,0,0l0,0c0,0,0,0,0-0.1
							c0,0,0,0,0,0c0,0,0,0-0.1,0c0,0,0,0,0,0c0,0,0,0,0,0.1c0,0,0-0.1,0-0.1c0,0,0-0.1,0-0.1c0,0,0,0-0.1,0l0,0c0,0,0,0,0,0l0,0
							c0,0,0,0,0,0c0,0,0,0.1,0,0.1c0,0,0,0,0,0c0,0,0-0.1,0-0.1c0,0,0,0,0,0c0,0,0,0,0,0c0,0,0,0.1,0,0.1c0,0,0-0.1,0-0.1
							c0,0,0,0.1,0,0.1c0,0,0,0,0,0l0,0c0,0,0,0,0,0c0,0,0,0,0,0c0,0.1,0-0.1-0.1,0c0,0,0-0.1,0-0.1c0,0,0,0,0,0c0,0,0,0,0,0.1l0,0
							l0,0.1c0,0,0,0,0,0c0,0,0,0,0,0.1c0-0.1,0,0,0,0l0-0.1c0,0,0,0.1-0.1,0l0,0c0,0,0,0,0,0c0,0,0-0.1,0-0.1c0,0,0,0,0,0.1l0,0
							c0,0,0,0.1,0,0.1c0,0,0-0.1,0-0.1c0,0,0,0,0,0c0,0,0,0.1,0,0c0,0,0,0.1,0,0.1c0,0,0,0,0,0c0,0,0,0,0,0.1c0-0.1-0.1,0-0.1-0.1
							c0,0,0,0-0.1,0c0,0,0,0,0,0c0,0,0,0.1,0,0.1c0-0.1,0,0,0-0.1c0-0.1,0,0-0.1-0.1l0,0c0,0,0,0-0.1,0c0,0,0,0,0,0
							c0,0.1,0,0.1-0.1,0.1c0,0,0,0,0-0.1c0,0,0,0.1,0,0.1c0,0,0,0,0-0.1l0,0c0-0.1,0,0,0,0l0,0c0,0,0,0.1-0.1,0.1l0,0
							c0,0.1,0,0,0,0l0-0.1c0,0,0,0.1-0.1,0.1c0-0.1,0-0.1,0-0.1c0,0,0,0,0,0c0,0,0,0,0,0c0,0.1,0,0.1,0,0.1c0-0.1-0.1,0-0.1-0.1
							c0,0.1-0.1,0-0.1,0c0,0.1,0,0,0,0.1c0,0,0,0,0,0l0-0.1c0,0,0,0,0-0.1c0,0,0,0,0-0.1c0,0,0,0.1,0,0l0,0.1c0,0.1,0-0.1-0.1,0
							l0,0c0,0-0.1,0-0.1,0.1c0,0,0,0,0-0.1c0,0-0.1,0.1-0.1,0l0,0c0,0,0,0.1,0,0c0,0,0,0,0,0c0,0,0,0.1,0,0l0,0
							c0,0-0.1,0.1-0.1,0.1c0-0.1,0-0.1,0-0.1l0,0c0,0-0.1,0.1-0.1,0.1c0-0.1-0.1,0-0.1-0.1c0,0,0,0.1,0,0.1c0,0,0,0.1,0,0l0,0
							c0-0.1,0-0.1,0-0.1l0,0.1c0-0.1-0.1,0.1-0.1-0.1c0,0,0,0,0,0.1l0-0.1c0,0,0,0-0.1,0l0,0c0,0,0,0.2,0,0.2l0-0.1
							c0,0-0.1-0.1-0.1,0c0,0,0,0,0,0c0,0-0.1-0.1-0.1,0.1c0-0.1,0,0-0.1,0l0-0.1c0,0.1,0,0.1,0,0.1c0,0,0,0,0,0c0,0,0,0.1,0,0l0,0
							c0,0,0,0,0,0.1c0,0,0,0,0-0.1c0,0,0,0.1,0,0.1c0,0,0,0,0,0c0,0,0,0.1-0.1,0c0,0,0,0,0,0c0,0,0,0,0,0c0,0,0-0.1,0-0.1
							c0,0,0,0.1-0.1,0.1c0,0,0,0,0,0l0,0c0,0,0,0,0,0c0,0,0,0,0,0c0,0,0,0,0,0c0,0.1,0,0,0,0.1c0,0,0,0,0,0l0,0l0,0l0,0
							c0,0,0,0,0,0c0,0,0,0.1,0,0.1c0-0.1,0-0.1,0-0.2c0,0-0.1,0-0.1,0.1c0,0,0,0,0,0c0,0,0,0,0,0c0,0,0,0-0.1,0.1c0,0,0-0.1,0-0.1
							l0,0c0-0.1-0.1,0.2-0.1,0c0,0,0,0,0,0c-0.1-0.1-0.1,0-0.2-0.1c0,0,0,0,0,0.1l0-0.1l0,0.1c0,0,0-0.1-0.1-0.1l0,0c0,0,0,0,0,0
							c0,0,0,0,0,0l0,0l0,0c0,0,0-0.1,0-0.1c0,0,0,0.1,0,0.1c0,0,0,0,0,0.1l0,0c0,0.1,0,0.2,0,0.2l0-0.1l0,0l0,0c0,0,0,0,0,0
							c0,0,0,0,0,0l0-0.1c0,0,0,0.1,0,0.1c0,0,0-0.1,0-0.1c0,0,0,0.1,0,0c0,0,0,0,0,0c0,0,0,0,0-0.1c0,0.1,0,0,0,0.1
							c0,0,0-0.1,0-0.1c0,0.1,0,0,0,0.1c0-0.1,0.1,0,0.1-0.1c0,0,0,0,0,0c0,0,0,0,0,0.1c0-0.1,0-0.1,0-0.1
							C42.9,25.7,42.9,25.8,43,25.9c-0.1-0.1,0-0.1,0-0.1C42.9,25.8,42.9,25.7,43,25.9c0-0.1,0-0.1,0-0.1C43,25.8,43,25.8,43,25.9
							C43,25.8,43,25.9,43,25.9z M43.4,25.7L43.4,25.7L43.4,25.7C43.4,25.7,43.4,25.7,43.4,25.7z M43.5,25.7L43.5,25.7
							C43.5,25.7,43.5,25.7,43.5,25.7C43.5,25.7,43.5,25.7,43.5,25.7z M43.4,25.3C43.4,25.3,43.4,25.4,43.4,25.3
							C43.4,25.4,43.4,25.4,43.4,25.3L43.4,25.3C43.4,25.4,43.4,25.4,43.4,25.3z"/>
						<polygon fill="#808181" points="43.4,25.4 43.4,25.4 43.4,25.4 43.4,25.4 						"/>
						<polygon fill="#808181" points="46.8,25.3 46.8,25.3 46.8,25.3 						"/>
						<polygon fill="#808181" points="44,25.9 44,25.8 44,25.9 						"/>
						<path fill="#808181" d="M47.1,25.4L47.1,25.4C47.1,25.4,47.1,25.4,47.1,25.4z"/>
						<path fill="#808181" d="M47.2,25.4L47.2,25.4C47.2,25.4,47.2,25.4,47.2,25.4z"/>
						<path fill="#808181" d="M47.2,25.4C47.2,25.4,47.2,25.4,47.2,25.4L47.2,25.4L47.2,25.4z"/>
						<path fill="#808181" d="M46.1,25.7L46.1,25.7C46.1,25.7,46.1,25.7,46.1,25.7z"/>
						<path fill="#808181" d="M46.5,25.5C46.5,25.5,46.4,25.5,46.5,25.5C46.5,25.6,46.5,25.6,46.5,25.5z"/>
						<polygon fill="#808181" points="45.8,25.8 45.8,25.8 45.8,25.8 						"/>
						<path fill="#808181" d="M46.4,25.6C46.4,25.6,46.4,25.6,46.4,25.6C46.4,25.5,46.4,25.5,46.4,25.6z"/>
						<polygon fill="#808181" points="47.5,25.3 47.5,25.3 47.5,25.3 						"/>
						<path fill="#808181" d="M47.5,25.3L47.5,25.3C47.5,25.3,47.5,25.3,47.5,25.3z"/>
						<path fill="#808181" d="M47.5,25.3L47.5,25.3C47.5,25.3,47.5,25.3,47.5,25.3z"/>
						<path fill="#808181" d="M47.4,25.3L47.4,25.3C47.4,25.3,47.4,25.3,47.4,25.3z"/>
						<path fill="#808181" d="M47.4,25.3C47.4,25.3,47.4,25.4,47.4,25.3L47.4,25.3C47.4,25.4,47.4,25.3,47.4,25.3z"/>
						<path fill="#808181" d="M47.2,25.1L47.2,25.1C47.2,25.1,47.2,25.1,47.2,25.1C47.2,25,47.2,25.1,47.2,25.1z"/>
						<path fill="#808181" d="M47.1,25.1C47.1,25.1,47.1,25.1,47.1,25.1C47.1,25.1,47.1,25.1,47.1,25.1z"/>
						<path fill="#808181" d="M46.6,25.3L46.6,25.3C46.6,25.2,46.6,25.2,46.6,25.3z"/>
						<polygon fill="#808181" points="46.6,25.5 46.6,25.6 46.6,25.5 						"/>
						<polygon fill="#808181" points="46.5,25.2 46.5,25.2 46.5,25.2 						"/>
						<path fill="#808181" d="M45.6,25.4L45.6,25.4C45.6,25.4,45.6,25.3,45.6,25.4z"/>
						<path fill="#808181" d="M45.3,25.4C45.3,25.4,45.2,25.4,45.3,25.4C45.2,25.4,45.3,25.5,45.3,25.4z"/>
						<polygon fill="#808181" points="44.1,25.4 44.1,25.4 44.1,25.4 						"/>
					</g>
				</g>
			</g>
		</g>
	</g>
	<g>
		<g>
			<g>
				<g>
					<g>
						<path fill="#808181" d="M35.6,56.5C35.6,56.5,35.6,56.5,35.6,56.5L35.6,56.5L35.6,56.5z"/>
						<path fill="#808181" d="M35.7,56.3c0,0-0.1-0.1-0.1-0.1C35.6,56.2,35.6,56.3,35.7,56.3C35.6,56.3,35.6,56.4,35.7,56.3
							c-0.1,0.1-0.1,0.1-0.1,0.2C35.7,56.4,35.7,56.3,35.7,56.3C35.6,56.2,35.7,56.3,35.7,56.3z"/>
						<path fill="#808181" d="M35.8,52.8L35.8,52.8L35.8,52.8z"/>
						<path fill="#808181" d="M35.8,50.6C35.8,50.7,35.8,50.7,35.8,50.6C35.8,50.6,35.8,50.6,35.8,50.6z"/>
						<path fill="#808181" d="M35.9,50.3C35.9,50.3,35.9,50.3,35.9,50.3C35.9,50.3,35.9,50.3,35.9,50.3z"/>
						<path fill="#808181" d="M35.8,52.8L35.8,52.8C35.8,52.7,35.8,52.8,35.8,52.8z"/>
						<path fill="#808181" d="M35.5,55.8C35.5,55.8,35.5,55.8,35.5,55.8L35.5,55.8L35.5,55.8z"/>
						<polygon fill="#808181" points="35.8,53.7 35.8,53.8 35.9,53.8 						"/>
						<path fill="#808181" d="M35.8,54.5C35.8,54.5,35.8,54.4,35.8,54.5C35.8,54.4,35.8,54.5,35.8,54.5
							C35.8,54.5,35.8,54.5,35.8,54.5z"/>
						<path fill="#808181" d="M35.7,55.6L35.7,55.6L35.7,55.6z"/>
						<path fill="#808181" d="M35.8,53.2C35.8,53.2,35.9,53.2,35.8,53.2C35.9,53.2,35.8,53.2,35.8,53.2z"/>
						<path fill="#808181" d="M37.7,33.4L37.7,33.4C37.7,33.4,37.7,33.4,37.7,33.4z"/>
						<polygon fill="#808181" points="38.6,33.5 38.6,33.5 38.6,33.5 						"/>
						<path fill="#808181" d="M35.9,49.6L35.9,49.6C36,49.6,36,49.6,35.9,49.6z"/>
						<path fill="#808181" d="M35.9,43.4c0,0.1-0.1-0.1-0.1,0C35.8,43.4,35.9,43.5,35.9,43.4z"/>
						<path fill="#808181" d="M35.5,55.8L35.5,55.8C35.5,55.8,35.5,55.8,35.5,55.8z"/>
						<polygon fill="#808181" points="35.8,43.4 35.8,43.4 35.8,43.4 						"/>
						<path fill="#808181" d="M35.9,48C35.9,48.1,35.9,48.1,35.9,48C35.9,48.1,35.9,48.1,35.9,48z"/>
						<path fill="#808181" d="M35.8,49.2L35.8,49.2C35.8,49.2,35.8,49.2,35.8,49.2z"/>
						<path fill="#808181" d="M35.8,47.4C35.8,47.4,35.9,47.4,35.8,47.4L35.8,47.4C35.8,47.4,35.8,47.4,35.8,47.4z"/>
						<polygon fill="#808181" points="35.8,46.8 35.8,46.8 35.8,46.9 						"/>
						<path fill="#808181" d="M36.2,34.7C36.2,34.7,36.2,34.7,36.2,34.7C36.2,34.7,36.3,34.6,36.2,34.7z"/>
						<path fill="#808181" d="M35.6,55.8C35.5,55.8,35.5,55.8,35.6,55.8L35.6,55.8C35.5,55.8,35.5,55.8,35.6,55.8z"/>
						<path fill="#808181" d="M35.4,47.4L35.4,47.4C35.4,47.4,35.4,47.4,35.4,47.4z"/>
						<path fill="#808181" d="M35.5,39.2L35.5,39.2C35.5,39.2,35.5,39.2,35.5,39.2z"/>
						<path fill="#808181" d="M35.4,47C35.4,47,35.4,47,35.4,47L35.4,47L35.4,47z"/>
						<path fill="#808181" d="M36.3,34.7L36.3,34.7L36.3,34.7z"/>
						<path fill="#808181" d="M36.6,34.1c-0.1,0.1,0,0.1,0,0.1c-0.1,0.1-0.1,0-0.1,0c0,0.1,0,0.2-0.1,0.2c0,0,0,0,0,0
							c0,0.1-0.1,0.2-0.1,0.3c0,0,0,0,0,0c0,0,0.1,0,0.1,0c0,0,0,0.1-0.1,0.1c0,0,0,0,0-0.1l0,0c-0.1,0,0-0.1,0-0.1
							c0,0.1,0,0.2-0.1,0.3c-0.1,0,0.1-0.2,0-0.1l0.1-0.1c-0.1,0,0-0.1-0.1,0c-0.1,0.1,0,0.2-0.1,0.3c0,0,0.1,0,0.1,0.1
							c0,0.2-0.2,0.1-0.2,0.2c0,0.1,0.1,0.1,0,0.2l-0.1-0.1c-0.1,0.1,0.1,0.1,0,0.2c0,0,0-0.1,0-0.1c-0.1,0.1,0,0.1,0,0.1l-0.1,0
							c0,0.1,0,0.3,0,0.5c0,0,0,0-0.1,0c0,0.2-0.1,0.4-0.2,0.6l0,0.1c0,0,0,0,0,0c0,0.1,0,0,0.1,0c0,0,0,0.1-0.1,0
							c0,0.1,0.1,0.4,0,0.5l0,0c0,0.1,0.1,0.1,0.1,0.2l0,0c0,0.2,0,0.5-0.1,0.7c0.1,0,0,0.2,0.1,0.2c-0.1,0.1-0.1,0.1-0.1,0.3
							c0,0,0.1,0.1,0.1,0.1l-0.1,0l0.1,0.1l-0.1,0l0,0.1c0,0,0,0,0,0c0,0.1,0,0.2-0.1,0.2l0.1,0.2c0,0,0,0,0-0.1
							c0.1,0.1-0.1,0,0,0.1c0,0,0,0,0,0c0,0.1,0,0.2,0,0.3l0,0c0,0.2,0,0.3,0,0.5c0-0.1,0.1,0,0.1,0l-0.1,0c0,0,0-0.1,0.1,0
							c0,0.1-0.1,0-0.1,0l0,0.1c0,0,0,0-0.1,0c0,0-0.1,0.1,0,0.2l0,0c0,0.2,0,0.3,0,0.4c0.1,0,0,0.1,0.1,0.1c0,0.1-0.1,0.2-0.1,0.3
							c0,0.1,0,0,0.1,0.1c0,0,0,0.1-0.1,0.1c0,0.2,0,0.2,0.1,0.4c0,0,0,0,0,0c0,0,0,0.1,0,0.1l0,0c0.1,0.2-0.1,0.5,0,0.7l0,0
							l0.1,0.2c0,0.1,0,0-0.1,0c0.1,0.2,0,0.3,0,0.5c-0.1,0.1,0,0.4-0.1,0.6l0,0c0,0,0,0.1,0,0.1c0,0,0,0,0,0c0,0.4-0.1,0.7-0.1,1.1
							c0,0.1,0.2,0.1,0.1,0.2l-0.1,0c0.1,0.3,0,0.6,0.1,0.8c0,0,0,0,0,0c0,0.1,0,0.2,0,0.2c0,0,0,0-0.1,0c0,0.1,0.1,0.1,0,0.2
							c0,0,0,0,0,0c0,0,0,0.2,0,0.1c0,0.1,0,0.2,0,0.3c0.1,0.1,0,0.2,0.1,0.2c-0.1,0-0.1,0.2,0,0.2c0,0,0,0.1-0.1,0
							c0,0.1,0,0.1,0.1,0.1c-0.1,0.1,0.1,0.3,0,0.3c0,0.2,0.1,0.4,0.1,0.6c-0.1,0,0-0.2-0.1-0.2c0,0.2,0.1,0.3,0.1,0.5
							c0,0,0,0-0.1,0c0,0.2,0,0.4,0,0.5c0,0,0,0,0,0c0,0,0,0.1,0,0.1l0,0c0.1-0.1,0.1,0.1,0.2,0.1c-0.1-0.1,0,0.2-0.2,0.1
							c0,0,0,0,0.1,0c0,0,0,0-0.1,0c0,0.1,0.1,0.1,0.1,0.2c0,0,0,0,0,0c0,0.1,0.1,0.1,0.1,0.2c0,0,0,0,0,0c0,0.2,0.1,0.3,0.1,0.4
							c-0.1,0,0,0.1-0.1,0.1l0,0.1l0,0c0,0.1,0.1,0.1,0,0.2l0-0.1l0,0.1l0-0.1c0,0.1,0.1,0,0.1,0.1c0,0,0,0.1,0,0.1l0,0
							c0,0,0,0.1,0,0.1c0,0-0.1,0-0.1,0c0.1,0,0,0.2,0.1,0.2c0,0-0.1,0-0.1,0l0,0c0,0,0,0-0.1,0c0,0.1,0.1,0,0.1,0.1c0,0,0,0,0,0
							c0,0.1,0,0.3,0,0.4c-0.1,0,0-0.1-0.1-0.1c0,0.2,0.1,0.4,0.1,0.5l0,0c0.1,0-0.1,0.1,0,0.2c0,0-0.1,0,0,0c0,0.1,0,0.2,0.1,0.4
							l0,0c0,0.1,0,0.2,0,0.3c0,0,0,0.1,0.1,0c-0.2,0.2,0.1,0.4,0,0.6c0,0,0-0.1,0,0l0,0.2c0,0,0,0,0.1-0.1c0,0,0,0.1,0,0.1
							c0-0.1-0.1,0-0.1,0c0,0,0,0,0,0c-0.1,0.1,0.1,0,0,0.1l0,0c0,0,0,0.1,0,0.1c-0.1,0,0,0-0.1-0.1c0,0.1,0.1,0.1,0,0.2
							c0,0,0-0.1,0-0.1c-0.1,0.1,0,0.1-0.1,0.1l0,0l0,0.1l0,0c0.1,0.1,0,0.2,0.1,0.3c-0.1-0.1,0,0-0.1,0c0,0,0,0.1-0.1,0.1
							c0,0.1,0,0.1,0,0.2c0,0,0,0.1,0,0c0,0.1,0,0,0.1,0c0.1,0.1-0.1,0.3,0,0.4c0,0.1,0.1,0.2,0.1,0.3c0,0-0.1,0-0.1,0
							c0,0.1,0,0.1,0,0.2c0,0,0,0-0.1,0c0,0.1,0.1,0,0,0.1c0,0-0.1,0-0.1-0.1c0,0.1,0.1,0.1,0.1,0.2c0,0,0,0-0.1-0.1
							c0,0.1,0,0.2,0.1,0.2l0,0c0,0,0,0-0.1,0c0-0.1,0-0.1,0-0.1l0,0c0.1,0,0-0.2,0-0.3l0.1,0l-0.1-0.1c0,0,0.1,0,0.1,0
							c0-0.1,0-0.1,0-0.1c0,0,0,0,0,0l0-0.1c0,0,0.1,0,0,0c0-0.1-0.1-0.2,0-0.2l0,0c0-0.2-0.1,0-0.1-0.1l0.1-0.1l-0.1,0c0,0,0,0,0,0
							c0-0.1,0,0-0.1,0c0.1-0.1,0-0.2,0.1-0.2c0,0,0,0.1-0.1,0c0.1,0,0-0.1,0-0.2c0.1,0,0,0.1,0.1,0c-0.1,0,0-0.1,0-0.2
							c-0.1,0,0-0.1-0.1-0.2c0,0,0-0.2,0.1-0.3l0,0c-0.1,0-0.1-0.1-0.1-0.2c0,0,0.1,0,0.1,0.1l0-0.1c0,0,0,0,0-0.1l0.1,0
							c0-0.1-0.1-0.2,0-0.3c0,0-0.1,0.1-0.2,0c0,0,0.1,0,0.1,0c0,0,0,0,0-0.1l0,0c0-0.1,0,0,0-0.1c0,0,0,0,0.1,0c0,0,0,0,0,0.1
							c0,0,0-0.1,0.1-0.1c0,0-0.1,0-0.1,0c0-0.1,0,0,0.1-0.1c0,0,0-0.1-0.1-0.1c0,0,0,0,0,0c0,0,0-0.2-0.1-0.2l0,0l0,0v0v0
							c-0.1-0.2,0-0.3,0-0.5l0,0c0-0.1,0-0.2-0.1-0.3c0,0,0-0.1,0.1-0.1c0-0.1,0-0.1,0-0.2c0,0.1,0,0,0,0.1c0-0.1,0-0.1,0-0.2
							c0,0,0.1-0.1,0-0.1l0,0.1c0,0,0-0.1,0-0.1l0.1,0c0.1-0.2-0.1-0.3,0-0.5c0,0,0,0.1-0.1,0.1c0-0.1,0.1-0.2,0.1-0.2
							c0-0.1-0.1-0.1-0.1-0.2c0,0-0.1,0-0.1-0.1c0-0.1,0.1-0.1,0.1-0.1c0,0,0,0,0,0c0,0,0,0.1,0,0l0,0c0,0,0-0.2,0.1-0.1
							c0-0.1,0,0,0,0c0-0.1,0-0.2,0-0.3c0,0,0,0,0,0c0-0.2,0-0.1-0.1-0.2c0-0.1,0.1,0,0.1-0.1c0-0.1,0.1,0,0.1,0c0-0.1,0-0.2,0-0.2
							l0,0.1c0,0,0-0.1,0-0.1l0,0c0,0,0-0.1,0-0.1c0,0-0.1,0-0.1,0c0,0,0-0.1,0-0.1c0,0.1,0.1,0,0.1,0.1c0,0,0,0,0-0.1c0,0,0,0,0,0
							c0.1-0.1-0.1-0.1-0.1-0.2c0,0,0.1,0,0.1-0.1c0,0.1-0.1,0-0.1,0c0-0.1,0-0.1,0-0.1l0,0c0,0,0-0.1,0-0.1c0,0,0,0.1,0,0
							c-0.1-0.1,0.1-0.1,0-0.2c0,0,0.1,0,0.1,0c0-0.1,0-0.1,0-0.2c0,0,0,0-0.1,0l0,0.2l-0.1-0.1c0,0.1,0,0.1,0,0.1c0-0.1,0,0-0.1,0
							c0.1-0.1,0-0.1,0-0.2l0.1,0c0.1-0.1-0.1-0.2,0-0.4l0,0.1c0,0,0-0.1,0-0.2c0,0,0.1,0,0.1-0.1c0,0,0-0.1-0.1-0.1l0.1-0.1
							c0-0.1-0.1-0.1-0.1-0.3c0,0,0.1,0,0.1,0.1c0,0,0-0.1,0-0.1c0,0-0.1-0.1,0-0.2c0,0-0.1,0-0.1-0.1c0,0,0,0,0,0c0,0,0-0.1-0.1,0
							c0.1-0.1,0-0.4,0.1-0.5c0-0.1,0-0.2,0-0.3c0,0,0,0,0,0c0-0.1-0.1-0.1-0.1-0.2c0.1-0.1,0,0.1,0.1,0c0.1,0,0-0.2,0.1-0.2l0,0
							c0-0.1,0-0.2,0-0.3c0,0,0,0,0,0c-0.1-0.1-0.1-0.2-0.1-0.3c0,0,0,0,0.1,0c0,0-0.1,0-0.1-0.1c0,0,0.1-0.1,0.1-0.1l0,0.1
							c0.1,0,0-0.1,0-0.2l0,0c0-0.1-0.1-0.1-0.1-0.3l0,0c-0.1-0.1,0-0.1,0-0.1l0.1,0c0-0.1-0.1-0.2-0.1-0.3c0.1,0.1,0.1,0.2,0.1,0.2
							c0-0.1,0-0.2,0-0.2c0,0,0,0,0,0.1c-0.1-0.1-0.1-0.1-0.1-0.3c0.1,0,0-0.3,0.2-0.3c-0.1-0.2,0-0.4,0-0.6c-0.1,0.1,0-0.1-0.1,0
							c0-0.1,0-0.1,0-0.1l0.1-0.2c0,0,0,0,0.1,0c0-0.1,0.1,0,0.1-0.1c0,0-0.1,0,0-0.1l-0.1,0.1c-0.1-0.2,0.1-0.1,0-0.3l0,0
							c0-0.1,0-0.3-0.1-0.4c0,0,0,0,0.1,0c0-0.2-0.1-0.4,0-0.6l0,0c0,0-0.1-0.1,0-0.1c0,0,0,0,0,0c0,0-0.1-0.1,0-0.1l0,0
							c0-0.2-0.1-0.3-0.1-0.4c0.1,0,0.1-0.1,0.1-0.2l0,0c0-0.2-0.1-0.4-0.1-0.6c0.1-0.1,0-0.4,0.1-0.6c0,0-0.1,0-0.1,0
							c0,0-0.1-0.1,0-0.1l0,0c0.1,0,0.1-0.1,0.1-0.2l-0.1,0c0.1-0.2-0.1-0.5,0.1-0.6c0,0,0-0.1-0.1-0.2l0.1,0c0-0.1,0-0.2,0-0.4l0,0
							c0-0.1-0.2-0.1-0.2-0.2l0.1,0c0-0.2,0.1-0.3,0-0.5c0,0,0,0,0,0c0-0.1,0.1-0.3,0-0.3c0.1,0,0-0.2,0-0.2l0.1,0
							c-0.1-0.1-0.1-0.1-0.1-0.2c0,0,0,0,0,0c0-0.1,0-0.1,0-0.2l0,0c0-0.1,0-0.1,0-0.1c0-0.1,0-0.2,0.1-0.2c0,0-0.1-0.1,0-0.1
							c0,0,0,0,0,0c0-0.1,0-0.2,0-0.3c0,0,0,0,0,0c0,0.1,0,0.2,0,0.2c0,0,0.1-0.1,0.1,0c0-0.1-0.1-0.2,0-0.3c0,0,0,0,0,0l0,0
							c0,0,0,0,0-0.1c0,0,0,0,0-0.1c0,0,0-0.1,0.1-0.1c-0.1,0,0-0.1-0.1,0c0,0,0,0,0,0c0,0,0,0,0,0l0,0c0,0,0,0.1,0,0.1
							c0,0,0-0.1,0-0.1C36,36,36,36,36,36c0.1,0,0.2-0.1,0.2-0.1c0-0.1,0.1-0.3,0-0.4c0,0,0,0,0.1,0c0,0,0,0,0,0.1
							c0-0.1,0.1-0.2,0-0.2c0.1-0.1,0,0.1,0.1,0l0,0c0.2-0.2,0-0.5,0.3-0.6c0,0,0,0,0,0c0.2-0.2,0.4-0.5,0.7-0.6
							c0.1,0,0.1-0.1,0.1-0.1l0,0l0.1-0.1c0.1-0.1,0.3,0,0.4-0.1l0,0c0.1,0,0.2-0.1,0.2,0c0,0,0,0,0,0l0,0l0.1-0.1
							c0.1,0,0,0.1,0.2,0.1c0.1,0,0.2-0.1,0.1-0.1c0,0-0.1,0-0.1,0l0.1,0c0-0.1,0.1-0.2-0.1-0.2c0,0-0.1,0-0.1,0.1l0,0l0.1,0
							c-0.1,0-0.1,0-0.1,0c0,0,0,0-0.1,0l-0.1,0.1c0,0,0-0.1,0-0.1c0,0,0.1,0.1,0,0.1c-0.1,0-0.1-0.1-0.1,0c0,0,0,0,0-0.1
							c0,0-0.1,0-0.1,0.1c-0.1,0-0.2,0.1-0.2,0c0,0-0.1,0.1-0.1,0.1c0-0.1-0.2,0.1-0.2,0c0,0.1-0.2,0.2-0.3,0.3c0,0,0,0,0,0
							c-0.1,0-0.1,0-0.1,0c0,0.1,0,0.1,0,0.2c-0.1,0,0-0.1-0.1-0.1c0,0-0.1,0.1,0,0.2c-0.1,0-0.1,0-0.1,0c0.1,0.1,0,0,0,0.1
							C36.6,34.2,36.6,34.1,36.6,34.1C36.5,34.2,36.6,34.1,36.6,34.1z M35.7,36.3L35.7,36.3C35.7,36.2,35.7,36.2,35.7,36.3
							C35.7,36.2,35.7,36.2,35.7,36.3z M35.7,36.4C35.7,36.4,35.7,36.4,35.7,36.4C35.7,36.4,35.7,36.4,35.7,36.4
							C35.7,36.4,35.7,36.4,35.7,36.4z M36.1,36.1C36.1,36.2,36.1,36.2,36.1,36.1C36.1,36.2,36.1,36.2,36.1,36.1L36.1,36.1
							C36.1,36.1,36.1,36.1,36.1,36.1z"/>
						<polygon fill="#808181" points="36.1,36.1 36.1,36.1 36.1,36.1 36.1,36.1 						"/>
						<polygon fill="#808181" points="35.8,52.8 35.8,52.8 35.8,52.8 						"/>
						<polygon fill="#808181" points="35.4,39 35.5,39 35.4,39 						"/>
						<path fill="#808181" d="M35.6,53.8C35.6,53.8,35.6,53.8,35.6,53.8C35.6,53.9,35.6,53.8,35.6,53.8z"/>
						<path fill="#808181" d="M35.6,54.3L35.6,54.3C35.6,54.3,35.6,54.3,35.6,54.3z"/>
						<path fill="#808181" d="M35.5,54.6C35.5,54.6,35.6,54.6,35.5,54.6L35.5,54.6L35.5,54.6z"/>
						<path fill="#808181" d="M35.5,49.2C35.5,49.2,35.5,49.2,35.5,49.2C35.5,49.2,35.5,49.2,35.5,49.2z"/>
						<path fill="#808181" d="M35.6,50.8C35.6,50.8,35.6,50.8,35.6,50.8C35.6,50.8,35.6,50.8,35.6,50.8z"/>
						<polygon fill="#808181" points="35.4,47.4 35.4,47.4 35.4,47.4 						"/>
						<path fill="#808181" d="M35.6,50.7C35.6,50.7,35.6,50.8,35.6,50.7C35.6,50.8,35.6,50.7,35.6,50.7z"/>
						<polygon fill="#808181" points="35.5,56.1 35.5,56.1 35.5,56.1 						"/>
						<path fill="#808181" d="M35.5,56.1L35.5,56.1C35.5,56.1,35.5,56.1,35.5,56.1z"/>
						<path fill="#808181" d="M35.5,56.2L35.5,56.2C35.5,56.1,35.5,56.2,35.5,56.2z"/>
						<path fill="#808181" d="M35.5,55.6L35.5,55.6C35.5,55.6,35.5,55.6,35.5,55.6z"/>
						<path fill="#808181" d="M35.5,55.5c0,0,0,0.1,0,0.1l0,0C35.5,55.6,35.6,55.5,35.5,55.5z"/>
						<path fill="#808181" d="M35.8,54.9l0,0.1c0,0,0,0,0.1,0C35.9,54.9,35.8,55.1,35.8,54.9z"/>
						<path fill="#808181" d="M35.8,54.6C35.8,54.6,35.8,54.6,35.8,54.6C35.8,54.5,35.8,54.5,35.8,54.6z"/>
						<path fill="#808181" d="M35.8,52L35.8,52C35.9,52,35.8,52,35.8,52z"/>
						<polygon fill="#808181" points="35.6,51.5 35.5,51.6 35.6,51.6 						"/>
						<polygon fill="#808181" points="35.9,51.2 35.9,51.3 35.9,51.2 						"/>
						<path fill="#808181" d="M35.9,46.9L35.9,46.9C35.8,47,35.9,47,35.9,46.9z"/>
						<path fill="#808181" d="M35.8,45.1c0,0,0.1-0.1,0-0.1C35.8,45,35.8,45.1,35.8,45.1z"/>
						<polygon fill="#808181" points="35.9,39.5 35.9,39.5 35.9,39.5 						"/>
					</g>
				</g>
			</g>
		</g>
	</g>
</g>
</svg>
