<?xml version="1.0" encoding="utf-8"?>
<!-- Generator: Adobe Illustrator 23.1.0, SVG Export Plug-In . SVG Version: 6.00 Build 0)  -->
<svg version="1.1" id="Capa_1" xmlns="http://www.w3.org/2000/svg" xmlns:xlink="http://www.w3.org/1999/xlink" x="0px" y="0px"
	 viewBox="0 0 89.2 89.2" enable-background="new 0 0 89.2 89.2" xml:space="preserve">
<g>
	<path fill="#F8E8A1" d="M71.4,54.7c1.3-11.6-5.6-23.8-17.2-27.1c0-0.1-0.1-0.2-0.2-0.2c-10.6-3.1-21.9,0.8-28.8,9.1
		c-0.9,1-1.7,2.1-2.4,3.3c-0.1,0-0.2,0.1-0.1,0.2c-0.3,0.4-0.5,0.8-0.7,1.2c-0.1,0-0.1,0.1-0.1,0.1c-1.7,3.1-2.9,6.5-3.3,10.1
		c-0.2,1.5-0.1,2.9,0,4.2c-0.1,0.1,0,0.2,0,0.3c0.5,3.6,2,7,4.2,10.1c3.2,4.7,7.2,8.6,12.5,10.7c0.6,0.2,1.2,0.4,1.8,0.6
		c0,0.1,0.3,0.2,0.4,0.1c4.2,1.3,8.7,1.5,12.9,0.8c5.6-1,10.3-3.4,14-7.7C68.1,66.1,70.7,60.6,71.4,54.7z"/>
</g>
<g>
	<g>
		<g>
			<g>
				<g>
					<g>
						<path fill="#808181" d="M47.1,26.3c0-0.1-0.1-0.1-0.2,0l0.1,0.2L47.1,26.3z"/>
						<path fill="#808181" d="M46.2,27c0,0.2,0,0.5,0.2,0.5c-0.1-0.3,0-0.3-0.1-0.5c0.1-0.2,0.2-0.2,0.3-0.1c0-0.1,0.2-0.2,0.1-0.3
							c-0.3,0.1-0.4,0.3-0.5,0.6C46.2,27.1,46.2,27,46.2,27z"/>
						<path fill="#808181" d="M46.6,41.6L46.6,41.6C46.6,41.5,46.6,41.6,46.6,41.6z"/>
						<path fill="#808181" d="M45.1,50.6c0-0.1,0-0.1,0-0.1C45,50.5,45,50.6,45.1,50.6z"/>
						<path fill="#808181" d="M45.2,52.5c0,0,0-0.1,0-0.1C45.2,52.5,45.2,52.5,45.2,52.5z"/>
						<path fill="#808181" d="M46.6,41.6c0,0.1,0,0.1-0.1,0.2C46.6,41.8,46.6,41.7,46.6,41.6z"/>
						<path fill="#808181" d="M45.9,29.2c0-0.1,0-0.1,0-0.1L45.9,29.2L45.9,29.2z"/>
						<path fill="#808181" d="M44.7,37.4L44.7,37.4c0-0.1,0-0.1-0.1-0.2L44.7,37.4z"/>
						<path fill="#808181" d="M46.4,34.6c0,0,0.2,0.1,0.2,0.1c-0.1,0-0.1-0.1,0-0.1l0,0c0,0,0,0-0.1,0
							C46.5,34.6,46.4,34.6,46.4,34.6z"/>
						<path fill="#808181" d="M45.2,29.9c0,0,0-0.1,0-0.1C45.1,29.9,45.2,29.9,45.2,29.9z"/>
						<path fill="#808181" d="M45.4,40C45.4,40,45.4,40.1,45.4,40C45.4,40.1,45.4,40.1,45.4,40z"/>
						<path fill="#808181" d="M47.4,23.1L47.4,23.1C47.3,23.1,47.4,23.1,47.4,23.1z"/>
						<path fill="#808181" d="M46.4,26.4L46.4,26.4c-0.1,0-0.1,0-0.1,0L46.4,26.4z"/>
						<path fill="#808181" d="M44.9,53.7C44.9,53.6,44.9,53.6,44.9,53.7C45,53.6,44.9,53.6,44.9,53.7z"/>
						<path fill="#808181" d="M60.8,56.5c-0.3,0.2,0.1-0.6-0.3-0.2C60.6,56.3,60.5,56.8,60.8,56.5z"/>
						<path fill="#808181" d="M45.9,29.3l0,0.1C45.9,29.4,45.9,29.3,45.9,29.3z"/>
						<path fill="#808181" d="M60.5,56.3L60.5,56.3L60.5,56.3C60.5,56.3,60.5,56.3,60.5,56.3z"/>
						<path fill="#808181" d="M44.4,61.3C44.4,61.3,44.5,61.3,44.4,61.3C44.5,61.2,44.4,61.2,44.4,61.3z"/>
						<path fill="#808181" d="M44.1,55.8l0,0.2C44.1,55.9,44.1,55.9,44.1,55.8z"/>
						<path fill="#808181" d="M45.9,64.3c0.1,0.1,0.1,0.1,0.2,0.1c0,0,0,0,0,0C46,64.4,45.9,64.4,45.9,64.3z"/>
						<path fill="#808181" d="M49.1,63.4L49.1,63.4C49,63.5,49,63.5,49,63.6C49,63.5,49.1,63.5,49.1,63.4z"/>
						<path fill="#808181" d="M53.6,22.3c0-0.1,0.1-0.1,0.1-0.1C53.6,22.2,53.5,22,53.6,22.3z"/>
						<path fill="#808181" d="M45.8,29.2C45.8,29.2,45.9,29.3,45.8,29.2L45.8,29.2C45.8,29.2,45.8,29.2,45.8,29.2z"/>
						<path fill="#808181" d="M46.6,63.2c0.1,0.1,0.2,0.1,0.3,0.1C46.8,63.3,46.7,63.2,46.6,63.2z"/>
						<path fill="#808181" d="M62.3,38.9L62.3,38.9C62.3,38.8,62.3,38.9,62.3,38.9z"/>
						<path fill="#808181" d="M47.6,63.2c0.1,0,0.1,0,0.2,0c0,0,0,0,0-0.1C47.7,63.1,47.7,63.1,47.6,63.2z"/>
						<path fill="#808181" d="M53.7,22.2L53.7,22.2L53.7,22.2z"/>
						<path fill="#808181" d="M51.7,21.4c0.4,0,0.2-0.2,0.3-0.3c0.5,0,0.2,0.2,0.3,0.3c0.3,0,0.5-0.1,0.7,0c0,0,0,0.1,0,0.1
							c0.3,0,0.6,0.4,0.9,0.6c0,0,0,0,0,0.1c0.1-0.1,0.2-0.1,0.3-0.2c0.1,0.2,0.2,0.3,0.1,0.4c0-0.1-0.1-0.1-0.1-0.1
							c0,0.1,0.1,0.1,0.1,0.2c-0.2,0.2-0.1-0.2-0.3-0.2c0.1,0.1,0.2,0.3,0.2,0.5c0,0.1,0,0.1,0,0.3c-0.1,0.1-0.1,0.2-0.3,0.4
							c-0.2,0.1,0-0.2,0.1-0.4c0-0.2,0-0.2-0.1-0.1c0.1-0.1,0.1-0.2,0.1-0.3c-0.3,0.3,0-0.2-0.3,0.1c0,0.1,0,0.1,0,0.2
							c0,0,0,0.2-0.2,0.3c-0.2,0.3-0.5,0.6-0.9,1c0.2,0.1,0.2,0.1,0.4,0.2c0.4,0,0.2-0.1,0.5-0.1c0.8,0.1,0.9,0.3,1.1,0.5
							c0.1,0.1,0.1,0.2,0.2,0.2c0.1,0.1,0.2,0.1,0.3,0.1c0.2-0.1,0.4-0.3,0.7,0.1l-0.2,0.1c0.5,0.3,0.5-0.1,0.9,0.4
							c-0.1,0-0.4-0.2-0.4-0.1c0.2,0.4,0.3,0.1,0.5,0.2l-0.1,0.2c0.5,0.3,1,0.8,1.4,1.3c-0.1,0-0.2-0.1-0.2,0.1
							c0.5,0.7,0.5,1.7,0.3,2.4c0,0.1,0.1,0.2,0.1,0.3c0,0.1-0.1,0.1-0.1,0c-0.1,0.3,0.1,0,0.1,0.2c0,0.2-0.2,0.2-0.2,0.1
							c0,0.1,0,0.2,0,0.3c0,0.1,0,0.1-0.1,0.4c-0.2,0.4-0.4,0.7-0.6,1.1c0.5,0.3,1,0.5,1.3,0.8c-0.1,0-0.1,0-0.2-0.1
							c0.2,0.1,0.2,0.1,0.3,0.2c0.1,0,0.2,0,0.2,0c0.1,0,0.3,0,0.4,0.2l-0.1,0c0.8,0.7,1.6,1.5,1.8,2.3c0.3,0,0.4,0.9,0.7,0.9
							c0.1,0.6,0,0.5,0.1,1.3c0,0.2,0.3,0.3,0.4,0.5l-0.2,0l0.3,0.3l-0.2,0.2l0.1,0.2c0-0.1,0-0.2,0.1-0.2c0.2,0.4,0,1-0.1,1
							c0.1,0.3,0.1,0.6,0.1,0.9c-0.1,0-0.1-0.2-0.1-0.3c0.2,0.5-0.2,0.1,0,0.5c0-0.1,0.1,0,0.1,0.1c-0.1,0.2-0.2,0.7-0.3,1.1
							L62,41.8c-0.2,0.6-0.4,1.3-0.8,1.9c0.2-0.2,0.3,0,0.2,0.2l-0.2-0.1c0,0.2,0.2-0.1,0.1,0.2c-0.2,0.2-0.3,0-0.2-0.2L61,44.1
							c0,0,0-0.1-0.1-0.2c0,0.2-0.5,0.2-0.5,0.4l0,0l-0.1,0c-0.1,0-0.1,0.1-0.2,0.1c-0.1,0-0.2,0.1-0.4,0.1c-0.3,0-0.5,0.1-0.7,0.1
							c-0.4,0.1-0.8,0.1-1.2,0.2c0.2,0.2,0.5,0.5,0.8,0.8c0.3,0,0.5,0.4,0.9,0.6c0.1,0.2,0.2,0.3,0.4,0.5c0.1,0.2,0.1,0.2,0.2,0.4
							c0.1,0.2,0.2,0.5,0.4,0.7c0.3,0.3,0.2,0,0.3,0.1c-0.1,0.1,0.1,0.6-0.1,0.4c0.3,0.6,0.3,0.8,0.6,1.6c0-0.1,0.1-0.2,0.1-0.2
							c0.1,0.2,0,0.4-0.1,0.3l0,0c0.2,0.5,0,1-0.1,1.5c-0.2,0.5-0.4,1-0.3,1.4l0,0c0,0.3,0,0.5-0.1,0.8c-0.1,0.3,0-0.2-0.2,0
							c-0.1,0.9-0.5,1.3-0.8,2c-0.6,0.3-1.1,1.6-1.8,1.6l0.1,0.1c-0.1,0.2-0.2,0.1-0.4,0.1c0.1,0.1,0.2,0,0.1,0.1
							c-0.4,0.2-0.9,0.4-1.4,0.5c-0.2,0-0.5,0-0.6,0c0,0-0.1,0-0.2-0.1l-0.2-0.1c-0.1-0.1-0.1-0.1-0.2-0.2L54,55.4
							c-0.1,0.5-0.1,0.8-0.2,0.8c0,0,0,0,0,0.1l0,0.2L53.7,57c-0.1,0.6-0.1,1.4-0.3,2c0,0.1,0,0.2,0,0.2c0,0,0,0.1,0,0.1
							c0,0,0,0.1,0,0.1c0,0.1,0.1,0.1,0.1,0.2c0.1,0.1,0.1,0.3-0.2,0.5c0-0.1,0-0.2-0.1-0.2c-0.1,0.5-0.5,0.8-1.1,1.1
							c-0.6,0.4-1.1,0.7-1.6,1c0-0.1,0-0.1,0.1-0.2c-0.3,0-0.7,0.2-0.7,0.3c-0.1,0,0-0.1-0.1-0.2c0,0,0,0,0,0
							c-0.1-0.1-0.1-0.1-0.2-0.2c-0.1-0.1-0.3-0.3-0.5-0.4c-0.3-0.3-0.6-0.6-0.7-0.9l0,0c0,0,0,0,0-0.1c0,0,0.1,0.1,0.2,0.2
							c-0.1-0.1-0.1-0.1-0.2-0.2c-0.1,0.4-0.2,1.6-0.1,1.4c0,0.3-0.1,0.5-0.1,0.8c0,0.1-0.1,0.2-0.1,0.3l-0.1,0.1
							c-0.1,0.1-0.2,0.2-0.3,0.3c0,0.3-0.5,0.2-0.5,0.4c0-0.2-0.5-0.2-0.8-0.2c0.1,0-0.1-0.2,0-0.2c-0.2-0.1-0.4-0.2-0.4-0.1
							c-0.1-0.3-0.2-0.4-0.3-0.5c-0.1-0.1-0.2-0.4,0-0.5c-0.1-0.4,0-0.9-0.1-1.5c0-0.6-0.1-1.1-0.3-1.5c0.3,0,0.2,1.1,0.5,1
							c-0.2-1-0.6-1.4-0.7-2.3c0-0.2,0.1,0.1,0.2,0.2c-0.2-0.4-0.2-0.8-0.3-1.2c0-0.4,0-0.6,0-1c0,0,0,0.1,0,0.2
							c0-0.1,0.1-0.3,0-0.3c0,0,0,0.1,0,0.1c-0.2,0.2-0.2-0.6-0.2-0.7c0.2,0.3,0.4-0.6,0.6,0c0-0.1,0-0.2,0-0.2
							c0.1-0.1,0.1-0.1,0.1,0.1c0.1-0.2,0.1-0.3,0.1-0.3c0,0,0-0.1,0.1-0.1c0.1,0,0.1-0.1,0.4-0.1c0,0,0,0-0.1,0.1
							c0,0-0.1,0.1-0.1,0.1c0.2-0.2,0.7-0.2,1.5-0.2c0-0.1,0-0.1,0-0.1c0.1,0,0.2,0.1,0.2,0.1c0-0.1,0-0.1-0.1-0.2l-0.3-0.3
							c-0.2-0.2-0.4-0.4-0.6-0.6c-0.4-0.4-0.6-0.7-0.7-1c0.3,0.1,0-0.3,0.2-0.4c-0.1-0.1-0.1-0.2-0.2-0.3L46,51.6
							c-0.1-0.3-0.3-0.6-0.2-0.9c0,0.1,0.1,0.2,0.1,0.3c0-0.2-0.1-0.4,0-0.6c0,0.1-0.1,0.2-0.1,0.4c-0.1-0.4-0.3,0-0.2-0.4
							c0,0.1,0-0.4,0.2-0.5l0,0c0-0.2-0.1-0.4,0.1-0.6c0.1,0,0.2,0.1,0.3,0.1c-0.1-0.2,0.3-0.8,0.2-1c0,0.1,0.1,0.2,0.1,0.1l0-0.2
							c0.1-0.1,0.2-0.1,0.2-0.1c0.5-0.5-0.4,0,0.3-0.5c0,0,0,0,0,0.1c0.2-0.2,0.4-0.4,0.5-0.5c-0.5-0.3-1.1-0.7-1.1-1
							c0.1-0.2,0.3,0.3,0.3,0.1c-0.5-0.5-0.9-1.3-0.7-2c0,0,0,0.1,0,0.1c-0.3-0.2,0.2-0.5,0.2-0.9c0,0.1,0.1,0.2,0.1,0.1
							c0.1-0.2,0.2-0.4,0.4-0.6c0.2-0.2,0.5-0.5,0.6-1.1c0,0,0,0.1,0,0.1c0.1-0.2,0.1-0.5,0-0.8c-0.1-0.3-0.2-0.5-0.3-0.6
							c-0.1,0-0.2-0.2-0.3-0.1c-0.1-0.6-0.4-0.9-0.7-1.3c-0.3-0.4-0.5-0.8-0.4-1.3c0,0.1,0.1,0.2,0.1,0.2c-0.1-0.2-0.1-0.5-0.1-0.7
							c-0.1,0.1-0.1,0.1-0.2,0.3c-0.1-0.1-0.2-0.3-0.1-0.5c0.1,0.4,0.2,0,0.3-0.1c0,0-0.1,0-0.1,0c0.3-0.3-0.3-0.1,0.1-0.6l0.1,0.1
							c0-0.2,0.1-0.4,0.2-0.6c0.2,0-0.1,0.2,0,0.3c0.1-0.3,0.1-0.7,0.5-0.8c-0.1,0.1-0.2,0.3-0.3,0.4c0.3-0.1,0.3-0.1,0.5-0.3l0,0
							c0.1,0,0.2-0.1,0.4-0.2c0.2,0,0.3-0.1,0.5-0.1l-0.3,0c0.1-0.2,0.2-0.3,0.4-0.4c0,0,0.1,0,0.1-0.1c-0.1-0.1-0.1-0.1-0.2-0.2
							c-0.1-0.1-0.3-0.2-0.5-0.4c0.8,0.4,0.3,0.1,0.5,0.1c-0.1-0.1-0.2-0.4-0.1-0.4c-0.2-0.1-0.3-0.3-0.4-0.4c0-0.1-0.1-0.2-0.3-0.3
							c0,0-0.1-0.2,0-0.2c-0.2-0.3-0.1,0.1-0.1,0.1c-0.4-0.4-0.3-1.1-0.7-1.7c-0.2-0.6-0.4-0.7-0.5-1.3c0.1-0.2,0.2,0.2,0.2,0.2
							c0.1-0.3,0.1-0.6,0-0.9c0,0.1,0.1,0,0.2-0.1c0-0.2-0.2-0.2,0-0.5c0.1,0.1,0.1,0.2,0.2,0.3c0-0.3,0-0.6,0-0.9
							c0.1,0,0.1,0.2,0.1,0.3c0-0.3,0.2-0.8,0.1-1C46,27.6,46,27.7,46,27.8c0-0.1,0.1,0,0.1,0.1c0,0.3-0.2,0.4-0.3,0.4l0-0.2
							c-0.4,0.1-0.2,0.8-0.3,1.2L45.4,29c0,0.2,0.1,0.3,0.1,0.5c-0.1,0.1-0.2,0.1-0.2-0.1c-0.1,0.3,0.1,0.3-0.1,0.6c0,0,0,0,0,0
							l0.1,0.3c-0.1-0.1-0.2,0.1-0.1-0.1c-0.2,0.6,0.2,0.9,0.1,1.1l0,0c0.2,0.8,0.2,0.1,0.5,0.6c-0.1,0.2-0.2,0.3-0.3,0.5l0.2,0
							c0,0.1,0.1,0.2,0,0.2c0.2,0.2,0.1-0.1,0.2,0c0,0.4,0.5,0.9,0.3,1.1c0.2,0-0.1-0.4,0.2-0.1c-0.1,0.1,0,0.2,0.1,0.3
							c0.1,0.1,0.3,0.2,0.3,0.3c-0.2,0-0.3-0.2-0.3,0c0.2,0,0.3,0.1,0.3,0.2c0,0,0,0.1,0,0.1l0,0l-0.1,0c0,0-0.1,0-0.1,0
							c0,0,0,0,0,0c0.1,0,0,0.1-0.1,0.1c-0.2,0.1-0.3,0.1-0.5,0.4c0,0-0.2,0.1-0.4,0.3c-0.2,0.2-0.4,0.6-0.6,0.8l0,0
							c0.2,0.2,0,0.6,0,1c-0.1,0-0.2-0.1-0.2-0.3c0,0.1,0,0.2,0,0.4c0.1,0.1,0.1,0.2,0.1,0.4l-0.2-0.1c0,0.5,0.3,0.9,0.4,1.5
							c0.1,0,0.2-0.6,0.5-0.1c-0.1,0.1-0.2,0.1-0.3,0c0,0,0.1,0.1,0.1,0.2l-0.2-0.2c0,0.3,0.2,0.1,0.2,0.3c-0.1,0,0,0.2-0.1,0.2
							c0,0,0-0.2-0.1-0.2c0.1,0.2,0.2,0.5,0.1,0.6c0-0.1,0.1-0.1,0.2,0.1c0.2,0.4,0,0.2,0.1,0.5c0.1,0,0.2,0.3,0.4,0.2
							c0.1,0.1,0,0.2,0,0.2c0.1,0.1,0.2,0.3,0.3,0.4c0.1,0.1,0.1,0.2,0.2,0.1l0,0l0,0l0,0l0,0c0.2,0.3,0.1,0.6-0.2,0.8
							c-0.3,0.2-0.6,0.5-0.8,0.9l0,0c-0.2,0.4-0.3,1-0.2,1.3c0,0.1-0.1,0.3-0.2,0.3c0.1,0.4,0.1,0.4,0.2,0.9
							c-0.2-0.3-0.1,0.1-0.2-0.3c0.1,0.5,0,0.6,0.4,1c-0.2-0.1,0,0.4,0.2,0.6l-0.1-0.3c0.1,0.2,0.2,0.3,0.4,0.4l-0.2,0
							c0,0.1,0,0.1,0.1,0.2c0,0.1,0,0.1,0,0.3c0,0-0.1,0.2-0.2,0.3c-0.1,0.1-0.2,0.2-0.3,0.3c0,0.3,0.3-0.4,0.4-0.1
							c-0.3,0.3-0.7,0.7-0.7,0.8c-0.3,0.6,0.1,0.6-0.1,1.2c0.1-0.1,0.3-0.1,0.3,0.3c0,0.4-0.3,0.5-0.3,0.2c0-0.1,0-0.2,0-0.2
							c0-0.1,0-0.3-0.1-0.2l0.1,0.1c-0.1,0.2,0,0.8-0.2,0.7c0.1,0.3,0.1,0.1,0.1-0.1c0,0.6,0.1,0.9,0.2,1.5c0-0.1,0.1-0.2,0.1-0.1
							c0.2,0.8,0.3,0.4,0.5,0.7c0,0.2-0.3,0,0,0.3c0,0.1-0.2,0-0.3,0c0.1,0,0.1,0.1,0.1,0.1c0,0-0.2,0-0.2,0l0,0l0,0c0,0,0,0,0,0
							c0,0,0,0,0,0c0,0,0,0,0,0c0.1,0,0.1,0.1,0.2,0.1c-0.1,0-0.1,0-0.1,0c0,0.1,0.3,0.1,0.2,0.3c-0.1,0-0.4,0.4-0.6,0.3
							c0.6-0.5-0.2-0.1,0.3-0.5c0,0-0.2,0.2-0.4,0.3c0,0,0,0,0-0.1c-0.7,0.5-0.1,0.4-0.5,1c0-0.1-0.3,0.1-0.3,0.2
							c0.1-0.3,0.2-0.1,0.2,0.2c-0.2,0.4-0.1,0.5-0.1,0.7c0-0.1,0.1-0.2,0.1-0.3c0.1,0.1,0,0.3,0,0.6c-0.1,0,0-0.3-0.1-0.2
							c0.1,0.3-0.2,0.8,0,1.2c0,0.2-0.2,0.1-0.2,0.2c0.2,0.5,0,0.6,0.2,1.1c0.1-0.2,0.1-0.2,0.3,0.1l-0.3-0.8l0.3,0.5
							c-0.1-0.2-0.2-0.5-0.2-0.7c0.2,0.2,0.1,0.2,0.2,0.1c-0.1,0.4,0.3,0.6,0.2,1.1l-0.3,0.1c0,0.6,0.4,1,0.3,1.7l0.1-0.2
							c0.1,0.1,0,0.4,0,0.7c-0.1,0-0.2,0.1-0.3,0.2c0.1,0-0.1,0.6,0.2,0.7c-0.1,0.1-0.1,0.3-0.1,0.4c0,0.4,0.2,0.6,0.3,0.8
							c0.2,0.2,0.3,0.3,0.6,0.5c-0.2-0.1-0.1,0.2-0.5-0.1c0.1,0.2,0.3,0.4,0.4,0.3c0.1,0.2,0.6,0.3,0.8,0.5c0.1,0,0.2-0.1,0.4,0
							c0,0,0,0.1,0,0.1c0,0,0.4,0,0.2-0.2c0.3,0.3,0.9,0.2,1.3,0c0.4-0.2,0.7-0.6,1.1-0.7c0.1-0.1,0.1-0.1,0.1-0.2
							c0-0.1,0-0.1,0.1-0.2c0-0.1,0-0.1,0-0.2c0,0,0-0.1,0-0.1l0.1,0.1c0,0,0.1,0.1,0.1,0.1c0,0,0,0.1,0,0c0.1,0.2,0.2,0.1,0.2,0
							c0.1-0.1,0.2-0.1,0.5-0.1c0.4,0.2-0.4,0.1-0.1,0.2c0.1,0.2,0.3,0.2,0.6,0.1c0.3-0.1,0.5-0.3,0.8-0.3l-0.1,0.1
							c0.4,0,0.7-0.5,1.1-0.8c0,0,0,0,0,0c0.2-0.4,0.8-0.8,1.1-1.2c0,0.2-0.1,0.2,0,0.3c0.2-0.2-0.2-0.1,0.1-0.5
							c0.2,0,0.4-0.3,0.6-0.3c-0.1,0.1-0.2,0.3-0.3,0.4c0.3-0.1,0.4-0.5,0.5-0.7l0.1,0.1c0.2-0.4,0.1-0.6,0.1-0.8
							c0-0.1-0.1-0.3,0-0.5c0,0,0,0-0.1,0c-0.1-0.3,0-0.3,0-0.3c0,0,0.1,0,0-0.3c0.1,0.1,0.1,0.2,0.2,0.3c0,0,0,0,0.1,0.1
							c0.1,0,0.3,0.1,0.5,0.1C55.3,59,55.1,59,55,59c0,0-0.1,0-0.1,0c0,0,0.1,0.1,0.1,0.1c0.1,0.1,0.2,0.1,0.3,0c-0.1,0-0.1,0-0.2,0
							c0.1-0.1,0.2-0.1,0.4-0.1c0.2,0,0.5,0,0.7,0c0,0.2,0.3,0.2,0.8,0.1c0.4-0.1,0.8-0.3,1.1-0.2c0.4-0.3,0.8-0.5,1.3-0.8
							c0.4-0.3,0.8-0.7,1.1-1.2c-0.5,0.1,0.2-0.3-0.2-0.4c0.1-0.2,0.2-0.3,0.2-0.3c0.2-0.2,0.4-0.4,0.5-0.6c0.2-0.1,0,0.3,0,0.3
							c0.3-0.5,0.2-0.1,0.5-0.4c-0.1,0-0.1-0.3,0.1-0.5l-0.3,0.3c0.1-0.8,0.5-0.5,0.6-1.3l0,0.3c0.1-0.4,0.4-1.5,0.2-1.9
							c0.1-0.1,0.2-0.1,0.2,0c0.2-1-0.1-2.2-0.1-3l0.1,0.1c0-0.2-0.2-0.3-0.2-0.5c0,0,0.1,0.1,0.1,0c0-0.1-0.3-0.4-0.3-0.7
							c0.1,0.1,0.1,0.1,0.2,0.2c-0.2-1-0.8-1.3-1.3-1.9c0.1-0.1,0.1-0.3,0-0.5c0-0.1,0-0.1,0-0.1l0,0c0,0-0.1-0.1-0.1-0.1
							c0-0.1-0.1,0,0.7-0.7c0.4-0.1,0.8-0.5,1.2-1c0.4-0.5,0.6-1.1,0.9-1.6c-0.1,0.1-0.2-0.1-0.2-0.3c0.1-0.2,0-0.7,0.2-0.6l0,0.1
							c0.3-0.1,0.3-0.7,0.3-1l-0.3-0.1c0.3-0.5,0.2-1.2,0.1-1.8c-0.1-0.6-0.3-1.1-0.2-1.4c-0.1-0.2-0.2-0.5-0.3-0.7l0.2,0
							c-0.2-0.7-0.2-1-0.7-1.7l0.2,0.1c-0.2-0.4-0.7-0.3-0.9-0.7l0.1-0.2c-0.4-0.7-0.9-1.5-1.6-1.9c0,0,0.1-0.1,0.2,0
							c-0.3-0.3-1.1-1.1-1.2-0.7c0.1-0.1-0.2-0.2-0.2-0.2c-0.1,0-0.3,0-0.4-0.1l0.2,0c0,0,0,0-0.1,0c-0.2,0-0.2-0.1-0.1-0.3
							c0.1-0.1,0.1,0,0.1,0.1C59,31,59,30.9,59,30.8c0-0.1,0-0.2,0.1-0.4l0,0.2c0.1-0.4,0.1-0.4,0-0.7c0-0.3,0.1-0.8,0.3-0.9
							c-0.1-0.1-0.2-0.3-0.2-0.5c0.1,0,0.1,0,0.1,0.1c0-0.7-0.4-1-0.4-1.5c0,0,0.1-0.1,0.1-0.1c0.2,0.5,0.3,1,0.3,1
							c0.1,0,0.1-0.5,0.3-0.2c-0.2-0.4-0.7-0.9-0.8-1.3c0,0,0-0.1,0-0.1l0,0c0-0.1-0.1-0.2-0.2-0.2c-0.1-0.1-0.1-0.2-0.2-0.3
							c0.1-0.1-0.3-0.5-0.4-0.6c-0.1,0.1-0.3-0.1-0.2,0.2c0,0,0,0,0.2,0.1c0,0,0.1,0.1,0.1,0.1l0,0c0.1,0.1,0.2,0.3,0.4,0.4
							c-0.2-0.1-0.3-0.2-0.4-0.5c-0.2,0-0.3,0-0.4,0c0-0.4-0.4-0.9-0.4-1c-0.6-0.4-1.5-0.8-2-0.7c-0.2,0-0.2-0.2-0.2-0.2
							c0,0,0.2,0,0.3,0c-0.3-0.1-0.3-0.1-0.5-0.1c-0.1,0-0.3,0-0.5,0c0.2-0.2,0.2,0,0.3-0.2c0,0,0,0,0,0l0,0l0,0l0,0
							c0.1-0.1,0.2-0.1,0.2-0.2c0,0,0,0,0-0.1c0-0.1,0-0.2,0-0.3c0-0.4-0.2-0.7-0.3-0.9c-0.4-0.5-0.8-0.9-1.5-1.4
							c0.1,0.1,0.1,0.1,0.1,0.1c-0.8-0.5-1.7-0.4-2.5-0.3c-0.4,0-0.8,0.1-1.3,0.2c-0.4,0.1-0.8,0.2-1.3,0.5c-0.5,0.4-0.3,0.7-0.2,1
							c-0.1,0-0.1,0.1-0.2,0.2l0.1,0.1l0.5-0.5c-0.2,0-0.3,0.1-0.5,0.1c-0.4,0.1-0.7,0.1-1,0.3c-0.3,0.1-0.7,0.4-0.8,0.9l0.2-0.1
							c-0.2,0.3-0.3,1-0.4,0.9c0,0,0.1,0.1,0,0.2l-0.1,0c0,0.3,0.1,0.5,0.2,0.8c0,0.6-0.4,0-0.2,0.8c0.1,0.3,0.5,0.8,0.5,0.7
							c0-0.1,0-0.3,0.1-0.4l0.1,0.3c0.3,0,0.6,0.1,0.6-0.6l-0.3-0.4l0.1-0.2l0.1,0.4c0.1-0.2-0.1-0.3-0.2-0.5c0.1,0,0.1-0.1,0.1-0.2
							c-0.1-0.1-0.2-0.3-0.3-0.4c0.1,0,0.2,0.2,0.3-0.1c-0.1-0.2-0.2,0.2-0.3-0.1c0.1-0.2,0.2-0.1,0.2-0.3c0.1,0,0.1,0,0.1,0.1
							c-0.1-0.2,0.1-0.5,0-0.6c0.2-0.1,0.3-0.5,0.5-0.3c0-0.1,0.1-0.3,0.2-0.4c-0.1,0.2,0.1,0.1,0.2,0.1c0.1,0,0.3,0,0.2,0.2
							c0,0,0.1-0.1,0.1-0.1l1.3-0.8L49,21.8c-0.1,0-0.1,0-0.1-0.1c0-0.1,0.1-0.2,0.3-0.3c0,0,0,0.1-0.1,0.1c0.2-0.1,0.3,0,0.4,0
							c-0.1-0.2,0.3-0.4,0.5-0.6c0.3,0.2-0.2,0.3,0,0.5c0-0.1,0.1-0.2,0.2-0.2c0.1-0.1,0.3-0.1,0.2-0.2c0.3,0.1,0.2,0,0.4,0.2
							c0-0.3,0.2-0.1,0.5-0.2c0.4,0.1,0.1,0.3,0.5,0.2C52,21.3,51.7,21.4,51.7,21.4z M58,27L58,27c0-0.1-0.1-0.1-0.1-0.2
							C57.9,26.9,57.9,26.9,58,27z M58.3,27.8c0-0.1-0.1-0.2-0.1-0.3c0,0,0.1,0,0.1,0C58.3,27.4,58.3,27.6,58.3,27.8z M58.4,25.6
							c0.1,0.1,0.1,0.2,0.1,0.2C58.4,25.7,58.4,25.6,58.4,25.6l-0.1,0C58.3,25.6,58.3,25.5,58.4,25.6z"/>
						<path fill="#808181" d="M58,25.5C58,25.5,58,25.5,58,25.5C58,25.5,58,25.5,58,25.5L58,25.5L58,25.5z"/>
						<path fill="#808181" d="M46.6,41.5L46.6,41.5C46.6,41.5,46.6,41.5,46.6,41.5C46.6,41.5,46.6,41.5,46.6,41.5z"/>
						<polygon fill="#808181" points="62.1,38 62.1,38 62.1,37.9 						"/>
						<path fill="#808181" d="M45.5,37C45.5,37,45.5,37,45.5,37C45.5,37,45.5,37,45.5,37z"/>
						<path fill="#808181" d="M46.4,35.4c0.1,0,0.2-0.1,0.4-0.1C46.6,35.3,46.5,35.4,46.4,35.4z"/>
						<path fill="#808181" d="M47.5,34.4c-0.1,0-0.1,0-0.1,0l0,0L47.5,34.4z"/>
						<path fill="#808181" d="M45.2,55.9C45.2,55.9,45.2,56,45.2,55.9C45.2,56.1,45.2,56,45.2,55.9z"/>
						<path fill="#808181" d="M45.8,49.7c0,0.1,0,0.2,0,0.2C45.8,49.8,45.8,49.7,45.8,49.7z"/>
						<polygon fill="#808181" points="46.5,63.2 46.5,63.2 46.6,63.2 						"/>
						<path fill="#808181" d="M45.8,50.3c0-0.1,0-0.2,0-0.3C45.8,50.1,45.7,50.2,45.8,50.3z"/>
						<path fill="#808181" d="M46.3,28L46.3,28C46.3,27.9,46.3,27.9,46.3,28L46.3,28z"/>
						<path fill="#808181" d="M46.3,27.9L46.3,27.9C46.3,27.8,46.3,27.9,46.3,27.9z"/>
						<path fill="#808181" d="M46.3,27.6c0,0.1,0,0.1,0,0.2C46.3,27.7,46.3,27.7,46.3,27.6z"/>
						<path fill="#808181" d="M45.8,29.9L45.8,29.9C45.8,29.9,45.8,29.9,45.8,29.9z"/>
						<path fill="#808181" d="M45.8,30.5c0-0.1,0.1-0.4,0.1-0.6l0,0C45.9,30,45.7,30.4,45.8,30.5z"/>
						<path fill="#808181" d="M45.8,33.3c-0.1-0.2-0.2-0.4-0.2-0.5c0,0.1-0.1,0.3-0.2,0C45.5,33.5,45.5,32.6,45.8,33.3z"/>
						<path fill="#808181" d="M46.5,34.5c-0.2-0.1-0.1,0-0.2,0C46.5,34.5,46.5,34.6,46.5,34.5z"/>
						<path fill="#808181" d="M45.2,44.9l-0.1,0C45.1,45.1,45.1,44.9,45.2,44.9z"/>
						<path fill="#808181" d="M47,46.8c0-0.1-0.1-0.2-0.2-0.2l-0.2,0C46.7,46.6,46.9,46.7,47,46.8z"/>
						<path fill="#808181" d="M45.7,47.5C45.8,47.5,45.8,47.5,45.7,47.5C45.8,47.4,45.7,47.5,45.7,47.5l-0.2,0.3L45.7,47.5z"/>
						<path fill="#808181" d="M48.8,64L48.6,64C48.5,64.1,48.6,64.3,48.8,64z"/>
						<path fill="#808181" d="M54.7,59.2c0.1,0,0.1,0,0.1-0.2C54.8,59.1,54.7,59.1,54.7,59.2z"/>
						<path fill="#808181" d="M63.8,40.2l0.1,0.2c0-0.1,0-0.2,0-0.4L63.8,40.2z"/>
					</g>
				</g>
			</g>
		</g>
	</g>
	<g>
		<g>
			<g>
				<g>
					<g>
						<path fill="#808181" d="M44.4,68.6c-0.1,0,0,0.1,0.2,0l0.1-0.1L44.4,68.6z"/>
						<path fill="#808181" d="M45.9,68.5c0.2-0.1,0.5-0.2,0.4-0.2c-0.2,0.1-0.3,0.1-0.6,0.2c-0.2,0-0.4,0-0.3,0
							c-0.1,0-0.3,0-0.4,0.1C45.1,68.6,45.5,68.6,45.9,68.5C46,68.5,45.9,68.5,45.9,68.5z"/>
						<path fill="#808181" d="M62.7,56.4l-0.1,0.1C62.6,56.5,62.7,56.4,62.7,56.4z"/>
						<path fill="#808181" d="M66.6,43.7c0,0.1,0,0.1,0,0.2C66.6,43.7,66.6,43.7,66.6,43.7z"/>
						<path fill="#808181" d="M66.9,41.4c0,0,0,0.1,0,0.1C66.9,41.5,66.9,41.5,66.9,41.4z"/>
						<path fill="#808181" d="M62.7,56.4c0.1-0.1,0.1-0.2,0.2-0.3C62.9,56,62.8,56.2,62.7,56.4z"/>
						<path fill="#808181" d="M48.7,67.7c-0.1,0-0.1,0.1-0.2,0.1L48.7,67.7L48.7,67.7z"/>
						<path fill="#808181" d="M59.4,61.2L59.4,61.2c-0.1,0.1-0.1,0.1-0.1,0.2L59.4,61.2z"/>
						<path fill="#808181" d="M56.1,64.3c0.1-0.1,0.1-0.1,0.1-0.2C56.1,64.2,56.1,64.3,56.1,64.3C56,64.3,56,64.3,56.1,64.3z"/>
						<path fill="#808181" d="M49.7,67.6l-0.1,0C49.6,67.6,49.7,67.6,49.7,67.6z"/>
						<path fill="#808181" d="M61.4,58.7C61.4,58.7,61.4,58.7,61.4,58.7C61.4,58.6,61.4,58.7,61.4,58.7z"/>
						<path fill="#808181" d="M39.4,67.4C39.4,67.4,39.4,67.4,39.4,67.4C39.4,67.4,39.4,67.4,39.4,67.4z"/>
						<path fill="#808181" d="M44.4,68.8L44.4,68.8C44.3,68.8,44.3,68.8,44.4,68.8L44.4,68.8z"/>
						<path fill="#808181" d="M66.7,37.2C66.7,37.2,66.7,37.2,66.7,37.2C66.7,37.4,66.7,37.3,66.7,37.2z"/>
						<path fill="#808181" d="M39.3,16.9c0.4-0.1-0.6,0.3,0,0.1C39.3,17,39.9,16.7,39.3,16.9z"/>
						<path fill="#808181" d="M48.8,67.7l0.2-0.1C48.9,67.6,48.8,67.6,48.8,67.7z"/>
						<path fill="#808181" d="M39.3,17L39.3,17L39.3,17C39.4,17,39.3,17,39.3,17z"/>
						<path fill="#808181" d="M63.6,28.1C63.6,28.1,63.6,28.2,63.6,28.1C63.7,28.2,63.7,28.2,63.6,28.1z"/>
						<path fill="#808181" d="M66.1,34.8l0-0.2C66.1,34.7,66.1,34.8,66.1,34.8z"/>
						<path fill="#808181" d="M61.5,25.1c-0.1-0.1-0.1-0.1-0.2-0.2l0,0C61.4,24.9,61.4,25,61.5,25.1z"/>
						<path fill="#808181" d="M58.8,22.3L58.8,22.3c0.1,0.1,0.1,0.1,0.1,0.1L58.8,22.3z"/>
						<path fill="#808181" d="M29.8,61.1c0,0.1,0.1,0.1,0.1,0.2C29.9,61.2,30.3,61.6,29.8,61.1z"/>
						<path fill="#808181" d="M48.7,67.7c0,0,0,0,0.1-0.1L48.7,67.7C48.7,67.7,48.7,67.7,48.7,67.7z"/>
						<path fill="#808181" d="M61,25.2c-0.1-0.2-0.3-0.3-0.4-0.5C60.8,24.9,60.9,25,61,25.2z"/>
						<path fill="#808181" d="M22.9,35.4l0,0.1C22.9,35.5,22.9,35.5,22.9,35.4z"/>
						<path fill="#808181" d="M59.4,23.4c-0.1-0.1-0.1-0.2-0.2-0.3c0,0,0,0-0.1,0L59.4,23.4z"/>
						<path fill="#808181" d="M29.9,61.3L29.9,61.3L29.9,61.3z"/>
						<path fill="#808181" d="M32.9,63.9c-0.4-0.4-0.3-0.1-0.4-0.2c-0.5-0.4-0.2-0.2-0.4-0.4c-0.4-0.3-0.6-0.4-0.9-0.7
							c0,0-0.1-0.1,0,0c-0.2-0.1-0.4-0.4-0.7-0.6c-0.2-0.2-0.5-0.5-0.7-0.7c0,0,0-0.1,0-0.1c0,0.1,0,0.1,0,0.1
							c-0.2-0.2-0.4-0.3-0.4-0.4c0.1,0.1,0.1,0.1,0.2,0.2l-0.2-0.2c-0.1-0.2,0.3,0.3,0.3,0.2c-0.4-0.4-0.8-0.8-1-1.2
							c0-0.1,0.6,0.7,0.3,0.3l0.4,0.5c-0.2-0.4,0.2,0.3,0-0.1C29,60,28.8,60,28.4,59.3c-0.1-0.1,0,0.1-0.1,0
							c-0.7-0.9-0.4-0.8-0.9-1.5c-0.2-0.2-0.3-0.2-0.6-0.7l0.2,0.1c-0.4-0.7-0.3-0.3-0.7-1.1c0.1,0.1,0.3,0.5,0.3,0.4
							c-0.2-0.5-0.2-0.3-0.4-0.7l0-0.1c-0.4-0.8-0.8-1.6-1.2-2.5c0,0,0.1,0.2,0.1,0c-0.5-1.1-0.9-2.4-1.2-3.5l-0.2-0.4
							c0-0.1,0-0.2,0-0.1c-0.1-0.4,0,0-0.1-0.2c-0.1-0.2-0.1-0.3,0-0.2c-0.2-0.8-0.6-2.2-0.7-3l0,0.2c-0.1-0.6-0.2-0.7-0.3-1.3
							l0,0.1c-0.2-1.4-0.4-3-0.3-4c-0.1-0.2,0.1-1.4,0-1.5c0.1-0.8,0.1-0.6,0.3-1.7c0-0.3,0-0.5,0-0.8l0.1,0l0-0.5l0.1-0.3l0.1-0.3
							c0,0.1-0.1,0.3-0.1,0.3c0.1-0.5,0.3-1.3,0.4-1.3l0.3-1.3c0,0,0,0.2-0.1,0.4c0.1-0.7,0.1-0.1,0.2-0.7c0,0.1,0-0.1,0-0.1
							c0.1-0.3,0.4-1,0.5-1.5l0,0.1c0.2-0.4,0.4-0.9,0.6-1.4c0.2-0.5,0.5-0.9,0.7-1.4c-0.2,0.3-0.2,0.2-0.1-0.1l0.1-0.1
							c0.1-0.2-0.2,0.3,0-0.1c0.2-0.3,0.2-0.2,0.1,0l0.2-0.4c0,0,0,0.1,0,0.1c0.1-0.2,0.5-0.7,0.6-1l0,0c0.6-0.9,0.9-1.3,1.4-2
							c0-0.1,0.2-0.3,0.3-0.5c0.4-0.5,1-1,1.5-1.5c0.4-0.4,0.1-0.1,0.2-0.3c0.1,0,0.6-0.5,0.4-0.2c0.7-0.6,0.9-0.8,1.8-1.5
							c-0.1,0.1-0.2,0.1-0.2,0.1c0.2-0.1,0.4-0.3,0.4-0.2l0,0c1-0.8,2.6-1.5,3.5-2.1l-0.1,0l1-0.5c0.5-0.2-0.3,0.2,0.1,0
							c1-0.6,1.7-0.7,2.6-1.1c0.8-0.1,2.6-0.8,3.6-0.9l-0.1,0c0.2-0.1,0.3,0,0.5-0.1c0,0-0.3,0-0.1,0c0.4-0.1,0.8-0.1,1.1-0.2
							c1.8,0.2,3.7,0.8,5.5,1.5c0.8,0.3,0.5,0,1.5,0.5L51,18c1.6,0.6,3.1,1.4,4.5,2.3c-0.1,0-0.1,0-0.2-0.1c0.1,0.1,0.4,0.3,0.6,0.4
							c0.2,0.1,0.4,0.3,0.5,0.3c0.2,0.2,0,0.1,0.1,0.2c0.3,0.2,0.7,0.5,0.9,0.6c0,0-0.1,0-0.1-0.1c0.2,0.1,0.8,0.7,0.7,0.5
							c0.5,0.4,0.9,0.8,1.2,1.1c0.3,0.2,0.7,0.8,0.9,0.8c-0.1,0,0.7,0.9,1,1.1c-0.1-0.1,0.2,0.3,0.1,0.2c0.3,0.4,0.5,0.7,0.5,0.6
							c0.4,0.7,1,1.3,1.2,1.8c0.4,0.6,0.7,1.1,1,1.6c0.3,0.5,0.6,1.1,0.8,1.6c-0.1,0-0.5-1.2-0.6-1.1c0.5,1,0.8,1.6,1.2,2.7
							c0.1,0.3-0.1-0.1-0.1-0.2c0.4,1.1,0.6,2.1,0.9,3.1c0,0,0-0.1-0.1-0.2c0,0.2,0.1,0.5,0.1,0.4l0-0.2c0-0.3,0.3,0.8,0.3,0.8
							c-0.2-0.3,0.2,1-0.1,0.5c0,0.1,0.1,0.3,0.1,0.3c0,0.2,0,0.3,0,0.1c0.1,0.7,0.1,0.4,0.2,1.1c0,0,0-0.1-0.1-0.2
							c0.1,0.3,0.2,0.6,0.2,1.2c0,0,0,0,0-0.1c0,0.5,0.1,0.9,0.1,1.3c0.1,0.4,0.1,0.8,0,1.3c-0.1-0.3,0,0.3-0.1,0.4l0,0.6l0.1-0.2
							c0,0.5,0,0.9-0.1,1.3l0-0.4L66.3,44l0.1-0.5c0,0.5,0.1,0,0,0.6c0-0.1-0.1,0.5-0.1,0.7l0,0c0,0.2,0,0.5-0.1,0.8
							c0,0.1-0.1-0.1-0.1,0c0,0.2-0.2,1.1-0.2,1.4c0-0.1,0-0.1,0-0.1l0,0.2c-0.1,0.2-0.1,0.2-0.1,0.2c-0.2,0.7,0.1-0.2-0.1,0.6
							c0-0.1,0,0,0-0.2c-0.2,0.8-0.4,1.5-0.6,2.2c-0.1,0.2,0.2-0.6,0-0.4c-0.3,1-0.6,2.1-1,3.1l0.1-0.2c0,0.2-0.3,0.7-0.5,1.2
							c0-0.1,0-0.2,0-0.1c-0.3,0.6-0.6,1.3-1,2.3l0-0.1c-0.2,0.4-0.5,1-0.8,1.3c0,0.1-0.2,0.3-0.1,0.2c-0.9,1.1-1.4,2.3-2.3,3.1
							c0.1-0.1,0.2-0.3,0.1-0.2c-0.2,0.3-0.4,0.6-0.7,0.8c0.1,0,0.1-0.1,0.3-0.2c-0.1,0.1-0.3,0.3-0.4,0.5c0.3-0.4-0.1,0-0.2,0.1
							c0,0,0,0,0,0c-0.4,0.3,0,0.1-0.6,0.6l0,0c-0.2,0.2-0.4,0.4-0.6,0.6c-0.1,0,0.2-0.2,0.2-0.3c-0.3,0.3-0.5,0.7-0.9,0.9
							c0.1-0.1,0.3-0.3,0.4-0.4c-0.3,0.2-0.4,0.3-0.6,0.5l0,0l-0.6,0.4l0.2-0.1c-0.3,0.5-0.8,0.7-1.4,1.2c0.5-0.5,0.1-0.1,0.1-0.2
							c-0.2,0.1-0.4,0.2-0.3,0.2c-0.2,0.2-0.5,0.3-0.9,0.6c0,0-0.3,0.2-0.3,0.1c-0.4,0.2,0.1,0,0.1,0c-0.5,0.4-1.4,0.7-2.3,1.2
							c-0.8,0.3-0.9,0.5-1.6,0.8c-0.3,0.1,0.2-0.1,0.2-0.1c-0.4,0.1-0.7,0.2-1.1,0.3c0.1,0,0,0-0.1,0c-0.3,0.1-0.2,0.1-0.6,0.2
							c0.1,0,0.1-0.1,0.3-0.2c-0.4,0.1-0.7,0.2-1.1,0.4c-0.1,0,0.2-0.1,0.3-0.2c-0.4,0.1-1.1,0.3-1.2,0.4l0.3,0c-0.2,0-0.1,0,0-0.1
							c0.4-0.1,0.5-0.1,0.6-0.1l-0.3,0.1c0.3,0,1.1-0.3,1.6-0.4l-0.2,0.1l0.5-0.2c0.1,0,0.2,0,0,0.1c0.4-0.1,0.3-0.1,0.7-0.2
							c0,0,0,0,0,0l0.4-0.1c-0.1,0,0.1,0-0.2,0.1c0.7-0.2,1-0.5,1.3-0.5l-0.1,0c0.9-0.4,0.1-0.1,0.7-0.4l0.5-0.1l0.1-0.1
							c0.1,0,0.3-0.1,0.3-0.1c0.3-0.2-0.1,0,0.1-0.1c0.5-0.1,1.2-0.7,1.3-0.7c0.1-0.1-0.4,0.2,0-0.1c0.2,0,0.5-0.3,0.9-0.5
							C55,65,54.6,65.3,55,65c0.2-0.2,0.7-0.5,1-0.7c0-0.1,0.6-0.5,1.1-1c0,0.1,0.9-0.8,1.3-1.2l0,0c0-0.1,0.4-0.6,0.7-0.9
							c0,0,0,0.1-0.2,0.3l0.3-0.3c0-0.1,0.1-0.2,0.3-0.4l0,0.1c0.3-0.4,0.7-0.9,1.1-1.5c0-0.1-0.4,0.4,0-0.3c0,0,0.1,0,0,0.2
							c0-0.1,0.1-0.2,0.2-0.3l-0.1,0.3c0.2-0.3,0.1-0.2,0.2-0.4c0,0,0.1-0.1,0.1-0.1c0,0.1-0.1,0.2-0.2,0.3c0.2-0.2,0.4-0.5,0.5-0.6
							c0,0,0,0,0.1-0.2c0.3-0.5,0.1-0.1,0.3-0.4c0-0.1,0.3-0.4,0.2-0.4c0.1-0.1,0.1-0.1,0.2-0.2c0.1-0.3,0.7-1.2,0.4-0.9l0,0.1l0,0
							l0,0l0,0c0.4-0.8,0.9-1.7,1.3-2.6l0,0c0.2-0.5,0.5-1.2,0.6-1.5c0.1-0.2,0.2-0.4,0.2-0.3c0.1-0.4,0.1-0.5,0.4-1
							c-0.1,0.4,0.1-0.1-0.1,0.4c0.2-0.5,0.3-0.6,0.4-1.2c0,0.2,0.2-0.4,0.2-0.6l-0.1,0.4c0.1-0.3,0.1-0.5,0.2-0.8l0,0.2
							c0.4-1.1,0.4-2,0.7-2.8c0-0.3-0.2,0.6-0.2,0.3c0.1-0.5,0.3-1,0.3-1.2c0.1-0.7,0-0.7,0.2-1.4c0,0.1-0.1,0.2-0.1-0.4
							c0.1-0.5,0.2-0.6,0.2-0.3c0,0.1,0,0.2,0,0.2c0,0.2,0,0.4,0,0.2l0-0.1c0.1-0.3,0.1-1,0.2-0.8c0-0.4,0-0.2-0.1,0.1
							c0.1-0.7,0.1-1,0.2-1.7c0,0.1-0.1,0.2,0,0.1c0.1-1,0-0.4,0-1.1c0-0.4,0.1,0.1,0-0.5c0-0.4,0.1-0.1,0.1,0.1
							c-0.1-0.6,0-1.2-0.1-1.5c0,0.1,0,0.2,0,0.3c0-0.2,0-0.4-0.1-0.5l0,0.2c0-0.2,0-0.4,0-0.4c-0.1-0.2-0.1,0.2-0.1-0.2
							c0-0.3-0.1-0.8-0.1-0.9c0.1,0.8,0-0.1,0.1,0.6c0-0.1,0-0.3-0.1-0.5c0,0,0,0,0,0.1c-0.1-0.8-0.1-0.3-0.3-1.1
							c0.1,0.1,0-0.2,0-0.3c0.1,0.3,0,0.2-0.1-0.1c-0.1-0.5-0.1-0.5-0.2-0.8l0,0.3c-0.1-0.1-0.1-0.4-0.2-0.7c0,0,0.1,0.3,0.1,0.2
							c-0.2-0.4-0.2-0.9-0.4-1.4c0-0.3,0.1,0,0-0.3c-0.2-0.6-0.2-0.7-0.4-1.3c0,0.2,0,0.2-0.2-0.2l0.4,1l-0.3-0.6
							c0.1,0.3,0.2,0.6,0.3,0.8c-0.1-0.3-0.1-0.3-0.1-0.1c-0.1-0.4-0.3-0.8-0.5-1.3l0.1,0c-0.3-0.7-0.6-1.3-1-2.2l0.1,0.3
							c-0.1-0.1-0.3-0.6-0.4-0.8c0,0,0-0.2-0.1-0.3c0,0-0.4-0.6-0.5-0.7c-0.1-0.1-0.1-0.3-0.2-0.4c-0.4-0.7-0.6-0.7-1.1-1.4
							c0.2,0.2,0-0.1,0.3,0.3c-0.1-0.2-0.3-0.4-0.3-0.4c-0.1-0.1-0.5-0.5-0.6-0.8c-0.1-0.1-0.1-0.1-0.3-0.3c0,0,0,0,0,0
							c0,0-0.3-0.3-0.2-0.1c-0.4-0.7-1.5-1.6-2-2.2c-0.4-0.4-1-0.8-1.4-1.1c0,0,0,0,0.1,0.1c-0.5-0.5-0.4-0.2-1-0.7
							c-0.3-0.3,0.4,0.2,0.2,0.1c0-0.2-0.8-0.5-1.2-0.9l0.1,0.1c-0.3-0.3-0.9-0.5-1.5-0.8c0,0,0,0,0,0c-0.4-0.2-1.2-0.5-1.8-0.8
							c0.2,0,0.3,0.1,0.2,0c-0.3-0.1,0,0.1-0.5-0.1c-0.2-0.1-0.5-0.3-0.6-0.4l0.5,0.2c-0.2-0.2-0.7-0.3-0.9-0.4l0,0
							c-0.8-0.3-0.8-0.2-1.7-0.5l0.1,0.1c-0.5-0.1-0.4-0.2-0.9-0.3l-0.1-0.1c-0.3-0.1-1.1-0.2-1.7-0.4c0.3,0,1,0.2,1.4,0.2
							c-0.3-0.1-1.1-0.3-1.2-0.3c0.1,0,0.3,0,0.4,0.1c-0.4,0-0.9-0.1-1.6-0.3c0.1-0.1-0.6-0.2-1.3-0.3c-0.4,0-0.7,0.1-0.9,0.1
							c-1.1,0.3-2.2,0.4-3.5,0.8c0.5,0-0.4,0.1-0.3,0.2C39.5,17,39.4,17,39.3,17l-0.9,0.3c-0.2,0,0.3-0.1,0.2-0.1
							c-0.6,0.2-0.3,0.1-0.7,0.2c0.1,0-0.2,0.1-0.6,0.3c0.2-0.1,0.4-0.1,0.5-0.2c-0.9,0.4-0.8,0.2-1.7,0.7l0.3-0.2
							c-0.4,0.2-1.6,0.8-2,1.1c-0.1,0-0.2,0.1,0-0.1c-1,0.6-2.2,1.5-3,2l0.1-0.1c-0.2,0.1-0.3,0.3-0.5,0.4c0,0,0.1-0.1,0,0
							c-0.1,0.1-0.4,0.4-0.7,0.6l0.2-0.2c-0.9,0.7-1.3,1.2-1.9,1.9c-0.1-0.1-0.7,0.6-1,0.9l0,0c-0.9,1-1.4,1.8-2,2.9
							c-0.5,0.6-1.3,2.3-1.8,3.4c0.1-0.2,0,0.1,0,0.3c-0.1,0.3-0.2,0.8-0.3,0.7l0-0.1c-0.1,0.2-0.3,0.8-0.5,1.2l0.1,0.1
							c-0.2,0.6-0.4,1.3-0.6,2.1c-0.1,0.7-0.2,1.4-0.4,1.7c0,0.3-0.1,0.6-0.1,1l-0.1,0c-0.1,0.8-0.2,1.2-0.2,2.2l0-0.2
							c0,0.6,0.1,0.7,0.1,1.3l-0.1,0.2c0,1,0.1,2,0.3,3c0,0,0,0-0.1-0.2c0.1,0.5,0.2,1.8,0.3,1.6c-0.1,0,0.2,1,0.3,1.5L22.6,47
							c0.2,0.4,0.2,0.4,0.3,1c0,0.1,0,0.1,0-0.1c0.1,0.5,0.1,0.4,0.3,1l-0.1-0.2c0.1,0.5,0.1,0.5,0.3,0.7c0.1,0.3,0.3,0.9,0.2,1
							c0,0.1,0.2,0.3,0.2,0.6c0,0,0-0.1-0.1-0.1c0.2,0.8,0.5,1.2,0.6,1.8c0,0,0,0.1,0,0.1c-0.3-0.6-0.4-1.2-0.4-1.1
							c0,0,0.1,0.5-0.1,0.1c0.2,0.4,0.5,1.1,0.7,1.6c0,0,0,0.1,0,0.1l0,0c0,0.1,0.1,0.2,0.1,0.3c0.1,0.2,0.1,0.3,0.2,0.4
							c0,0.1,0.2,0.6,0.3,0.8c0,0,0.2,0.3,0.1,0c0,0,0,0-0.1-0.2c0,0,0-0.1-0.1-0.1l0,0c-0.1-0.2-0.2-0.4-0.3-0.6
							c0.1,0.2,0.2,0.4,0.3,0.7c0.1,0.1,0.2,0.2,0.2,0.3c0.1,0.4,0.4,1,0.4,1.1c0.4,0.7,1,1.7,1.4,2.1c0.1,0.2,0.1,0.2,0.2,0.3
							c-0.1-0.1-0.2-0.2-0.2-0.3c0.3,0.4,0.8,1.2,0.9,1.2c0.3,0.5-0.3-0.2,0.2,0.4l-0.1-0.1c0.9,1.3,1.8,1.9,3,3.2
							c-0.1-0.1-0.1-0.1-0.1-0.2c1.5,1.4,3.3,2.6,5.1,3.6c0.5,0.3,0.6,0.3,0.9,0.4l0.1,0.1l0.6,0.2c0.8,0.3,1.3,0.6,2.4,0.9L40.1,68
							c0.4,0.1,1.2,0.3,1.1,0.3c0,0,0.1,0,0.3,0l0,0c0.3,0.1,0.6,0.1,0.9,0.2c0.7,0.1-0.1,0.1,0.9,0.3c0.4,0.1,1.1,0.1,1,0.1
							c-0.2,0-0.4-0.1-0.4-0.1l0.4,0c0.1-0.1,0.4-0.1-0.5-0.3l-0.6,0L43,68.3l0.5,0.1c-0.3-0.1-0.5-0.1-0.7-0.1c0,0-0.1-0.1-0.2-0.1
							c-0.2,0-0.4,0-0.6,0c-0.1-0.1,0.3,0-0.1-0.1c-0.3,0,0.2,0.1-0.2,0.1c-0.3-0.1-0.2-0.1-0.5-0.2c0,0,0,0,0.2,0
							c-0.3,0-0.8-0.2-1-0.2c-0.3-0.1-1-0.3-0.9-0.4c-0.1,0-0.5-0.1-0.8-0.2c0.5,0.1-1-0.4-0.8-0.5c-0.4,0-1.3-0.5-1.9-0.8
							c0,0,0.1,0,0.2,0.1c-0.3-0.2-0.4-0.2-0.6-0.4c-0.1,0-0.6-0.2-0.9-0.4c-0.4-0.3,0.3,0.1,0.2-0.1c0,0.1-0.7-0.4-0.6-0.2
							c-0.3-0.2-0.2-0.2-0.4-0.4c-0.1,0-0.3-0.2-0.6-0.3c-0.4-0.3-0.1-0.1-0.5-0.5C32.5,63.6,32.9,63.9,32.9,63.9z M24.9,53.2
							L24.9,53.2c0,0.1,0.1,0.2,0.1,0.3C25,53.4,24.9,53.3,24.9,53.2z M24.5,52.1c0,0.1,0.1,0.3,0.2,0.5c0,0,0,0-0.1-0.1
							C24.6,52.5,24.5,52.3,24.5,52.1z M25,54.5c-0.1-0.2-0.1-0.2-0.1-0.3C25,54.3,25,54.4,25,54.5L25,54.5
							C25.1,54.6,25.1,54.5,25,54.5z"/>
						<path fill="#808181" d="M25.2,54.8C25.3,54.8,25.3,54.8,25.2,54.8C25.3,54.8,25.3,54.8,25.2,54.8L25.2,54.8
							C25.2,54.7,25.2,54.8,25.2,54.8z"/>
						<path fill="#808181" d="M62.6,56.5L62.6,56.5L62.6,56.5C62.6,56.5,62.6,56.5,62.6,56.5z"/>
						<polygon fill="#808181" points="22.7,36.7 22.7,36.7 22.7,36.8 						"/>
						<path fill="#808181" d="M58.8,61.5C58.8,61.5,58.8,61.5,58.8,61.5C58.7,61.6,58.7,61.5,58.8,61.5z"/>
						<path fill="#808181" d="M56.8,63.4l-0.3,0.2C56.6,63.5,56.7,63.4,56.8,63.4z"/>
						<path fill="#808181" d="M55.1,64.6C55.1,64.6,55.1,64.7,55.1,64.6L55.1,64.6L55.1,64.6z"/>
						<path fill="#808181" d="M65.8,35.1L65.8,35.1C65.7,34.8,65.8,34.9,65.8,35.1z"/>
						<path fill="#808181" d="M66.3,44.8c0-0.1,0-0.2,0-0.3C66.3,44.7,66.2,44.8,66.3,44.8z"/>
						<polygon fill="#808181" points="61.1,25.3 61.1,25.3 61,25.2 						"/>
						<path fill="#808181" d="M66.3,44.1c0,0.2-0.1,0.3-0.1,0.5C66.3,44.4,66.3,44.2,66.3,44.1z"/>
						<path fill="#808181" d="M46.9,68.2L46.9,68.2c-0.1,0-0.1,0-0.1,0L46.9,68.2z"/>
						<path fill="#808181" d="M46.8,68.2l-0.1,0C46.7,68.2,46.8,68.2,46.8,68.2z"/>
						<path fill="#808181" d="M46.5,68.3l0.2-0.1C46.6,68.2,46.5,68.3,46.5,68.3z"/>
						<path fill="#808181" d="M49.6,67.4L49.6,67.4C49.6,67.4,49.6,67.4,49.6,67.4z"/>
						<path fill="#808181" d="M50.3,67.1c-0.2,0.1-0.5,0.1-0.7,0.2l0,0C49.7,67.3,50.2,67.3,50.3,67.1z"/>
						<path fill="#808181" d="M53.6,65.9c-0.2,0.1-0.4,0.2-0.6,0.3c0.1,0,0.3-0.1,0,0.1C53.8,65.9,52.8,66.3,53.6,65.9z"/>
						<path fill="#808181" d="M55.5,64.7C55.2,64.9,55.5,64.7,55.5,64.7C55.7,64.6,55.7,64.6,55.5,64.7z"/>
						<path fill="#808181" d="M64.7,52L64.7,52C64.8,51.8,64.7,52,64.7,52z"/>
						<polygon fill="#808181" points="65.3,49 65.2,49.3 65.2,49.4 						"/>
						<polygon fill="#808181" points="66.1,47.4 66.1,47.5 66.2,47 						"/>
						<path fill="#808181" d="M59.3,22.7l0,0.1C59.5,22.9,59.6,22.9,59.3,22.7z"/>
						<path fill="#808181" d="M49.4,16.9c-0.1-0.1-0.4-0.2-0.6-0.2C49,16.8,49.3,16.9,49.4,16.9z"/>
						<polygon fill="#808181" points="22.9,33.6 23,33.4 22.9,33.8 						"/>
					</g>
				</g>
			</g>
		</g>
	</g>
	<g>
		<g>
			<g>
				<g>
					<g>
						<path fill="#808181" d="M43.9,74.4c0.7,0.1-0.3-0.2,0.4,0C44.3,74.5,44.1,74.5,43.9,74.4z"/>
						<path fill="#808181" d="M46.6,74c2-0.9,4.9-1.3,6.9-2.6c0.2-0.1,0,0.3,0.6-0.1c1.9-1.3,5-3.1,7.2-4.8l-0.1,0.2
							c0.4-0.3,0.7-1,1.1-1.3c0,0-0.1,0.2,0.1,0.1c0-0.2,0.7-0.8,0.7-1.1c0.2-0.1,0.3,0,0.5-0.2l0.1-0.3c0.3-0.9,1.3-1.7,1.8-2.9
							c0,0.1,0,0.2,0,0.1c0.9-1.8,2-3.9,2.7-6c0,0.1,0.1,0.2,0.2,0.1c-0.1-0.2,0.1-0.8,0.2-1.4c0.3-0.2,0.2-1,0.5-1.6l0,0.1
							c0-0.5,0.3-0.7,0.2-1.1l0.2-0.3c-0.2-0.3,0.3-0.7,0.3-1.1l-0.1,0c0-0.4,0.2-0.6,0.2-0.9l0,0c0.1-0.9,0.3-1.3,0.1-1.3
							c0.2-0.3-0.1,0.8,0.2,0.4c0.3-2.8,0.6-5.7,0.4-8.6c0.1-0.3,0.1-0.5,0.1-0.6c-0.1-0.3-0.1-1.1-0.3-1.3c0,0.1,0.1-0.2,0.1-0.3
							c0-0.5-0.3-0.5-0.3-1.1c0.1,0.2,0.2,0.3,0.2,0.2c-0.2-0.5-0.3-1.1-0.5-1.7c0,0.1,0.1,0.2,0.1,0.2c-0.3-0.6-0.2-1.1-0.4-1.6
							l0.2,0.2c-0.1-0.9-0.3-0.2-0.4-1c0.1,0.2,0.1,0.1,0.2,0.1c-0.4-0.6-0.7-1.8-1-2.4c0,0,0.1,0,0.1,0c-0.3-0.7-0.5-1.5-1-2.2
							c-0.1-0.3,0.3,0-0.1-0.7c-0.2,0.1-0.7-1.2-0.7-0.7c-0.3-0.6-0.8-1.6-1.1-2c0.2,0.2,0-0.4,0.4,0.1l-0.1-0.4
							c0.1,0,0.2,0.4,0.2,0.2c-0.2-0.2-0.7-0.9-0.8-1.2c-0.4-0.4-0.9-0.6-1.5-1.3c0.3,0.3,0-0.3,0.2-0.1l-1.1-0.7
							c-0.2-0.2,0.1-0.2-0.2-0.4c0,0.1-0.2-0.1-0.3-0.1c-0.1-0.1-0.9-0.8-0.8-1.1c0-0.1,0.4,0.3,0.2,0c-0.4-0.4-0.5-0.3-0.9-0.7l0,0
							c-0.2-0.3-0.8-0.6-0.6-0.3c0.2,0.2,0-0.2,0.2,0.1c-0.3-0.1-0.8-0.4-1.2-0.8c0.2,0.1,0.2,0,0.3,0c-0.7-0.3-1.3-0.7-2-1.1
							c-0.1,0.1,0.4,0,0.4,0.1c-0.4-0.3-0.8-0.6-1.3-0.9c-0.5-0.2-0.9-0.5-1.2-0.8c0.1,0.1,0,0.2,0,0.1c-0.4-0.3-0.3-0.4-0.6-0.5
							c0-0.1-0.4-0.2-0.7-0.3c-0.2,0-0.1-0.1,0.2,0c-0.4-0.2-2.1-0.9-3.1-1.4c0,0.1-0.7-0.1-0.9-0.1l0.1-0.1
							c-0.2-0.2-0.8-0.3-0.8-0.4c-0.5,0,1.9,0.6,1.2,0.5c-0.1-0.2-1-0.2-0.8-0.3c-0.5-0.2-1-0.2-1.4-0.5c0.1,0.1,0.4,0,0.1-0.2
							c-0.7-0.2-0.2,0-0.8-0.1l-0.4-0.1c-0.1,0.1-0.6-0.2-0.4,0c-0.1-0.1-1-0.2-0.9-0.4l0.1-0.1c-0.3-0.1-0.5,0-0.8,0.1
							c0,0-0.1-0.1-0.1-0.1c-0.1,0.2-0.7-0.2-1.1-0.1c-0.1,0-0.3-0.1-0.5-0.1c-0.1,0-0.3-0.1-0.4-0.1c-0.1,0-0.3,0-0.4,0
							c-0.1,0-0.3,0-0.3,0c-0.5,0.2-0.9,0.4-1.4,0.4c0.1,0,0.2-0.1,0.3-0.2c-0.4,0-0.4,0.1-0.7,0.2c0.1-0.1-0.7,0-1.1,0.1
							c-0.4,0.2-0.2,0.3-0.3,0.4c-0.5-0.1-1.2,0.6-1.8,0.5c0.1-0.1,0.6-0.3,0.2-0.3c-0.5-0.1-0.8,0.5-1.5,0.6l0.2,0.1
							c-0.3,0-0.9,0.5-0.9,0.3c-0.2,0.2-0.8,0.3-0.6,0.4c-1.2,0.3-2.5,1.4-3.3,1.4c-0.1,0.1-0.5,0.3-0.4,0.4c0.3,0,0.3-0.3,0.4-0.3
							c-0.1,0.1-0.1,0.2-0.1,0.2c-0.3,0.1-0.6,0.3-0.4,0c-0.8,0.3-0.5,0.7-1.4,1.2c0-0.1-0.1-0.1-0.3,0.1c-0.1,0.1-0.2,0.3-0.4,0.5
							c-0.5,0.4-0.4,0.1-0.5,0c-0.3,0.2-0.6,0.5-0.7,0.7l-0.4,0.1c0.3-0.1-0.2,0.3-0.3,0.4l0.1-0.1c-0.1,0-0.4,0.3-0.5,0.4
							c0.1,0,0.4-0.2,0.6-0.3c-0.1,0.2-0.3,0.3-0.5,0.5c0-0.2-0.5,0.3-0.7,0.5c-0.3,0.2-0.2,0.3-0.2,0.4c-0.1-0.1-0.4,0.4-0.3,0.1
							c0.1-0.1,0.2-0.1,0.3-0.3c-0.2,0.1-0.3,0-0.5,0.4c-0.2,0.3,0.3,0.1-0.2,0.5c0.1-0.1,0.1-0.2,0.1-0.3L26,20.5l0.1,0.1
							c-0.1,0,0,0-0.1,0c0,0.2-0.6,0.7-0.5,0.9c-0.2,0.2-0.5,0.4-0.7,0.6l0,0c-0.3,0.2-0.5,0.6-0.6,0.9l0,0
							c-0.1,0.1-0.4,0.5-0.4,0.8c-0.3,0.3-0.5-0.1-0.6,0.4c-0.3,0.4-0.2,0.8,0,0.6c-0.5,0.7-0.8,1.7-1.4,2.3c0,0.1,0.1,0.1,0,0.3
							c-0.6,1.1-0.9,2.5-1.5,3.4c0.1-0.4-0.1-0.1-0.2-0.1c0,0.3-0.2,0.3-0.1,0.5c0.1,0,0.2,0.1,0.3-0.3c-0.1,0.4-0.2,0.8-0.3,1.3
							c-0.1,0.4-0.2,0.8-0.3,1c0.1-0.2,0.1,0,0.1,0.1c-0.2-0.1-0.3,0.4-0.4,0.9l0.1,0.1c-0.1,0.1-0.1,0.2-0.2,0.2
							c0,0.2,0.2,0.2,0,0.6c0,0-0.1,0-0.1,0.1c0,0.5,0.1,1.1-0.1,1.5l-0.2,0.4c0,0.2,0.1,0.6,0.1,0.2c-0.2,0.8-0.3,1.3-0.4,1.6
							c0.1,0.7,0.2,1.6,0.2,2.5c0,0.9,0.1,1.8,0.1,2.6l-0.1,0c0,0.4,0.2,0.2,0.1,0.5c-0.1-0.1-0.1,0.4-0.3,0c0,0.6,0.2,0.8,0.3,1.2
							c0.1,0-0.1-0.3,0-0.3c0,0.1,0,0.9,0.2,0.9c0,0.2-0.2,0.1-0.3,0l0.1,0.4c-0.1,0.5-0.5-1-0.7-0.5l0.1,0.4
							c-0.1,0.4-0.3-0.9-0.3,0c0.1,0.4,0.4,0.7,0.5,0.3c0.2,0.8,0.5,0.3,0.6,1.2c-0.1,0.3-0.1-0.7-0.3-0.5c-0.1,0.4,0.2,0.8,0.2,1.2
							c0-0.4,0.2-0.1,0.3,0.1c0,0.4-0.2-0.2-0.1,0.4c0.1,0.1,0.3,0.6,0.3,0.1c0.3,0.2,0.1,0.6,0.3,0.9c-0.1,0.2-0.5-0.5-0.4,0.1
							c0.1-0.1,0.4,0.8,0.5,0.4c0,0.3-0.1,0.3-0.2,0.2c0,0.4,0.5,0.8,0.3,1l0.2,0.1c0,0.1,0,0.3,0,0.5c0.1,0.3,0.5,1,0.3,1
							c0.1,0.1,0.3,0.8,0.4,0.5c-0.1-0.5-0.3-0.5-0.2-0.8c-0.1,0.4,0.2,0.6,0.4,0.9l-0.1,0.1c0.1,0.1,0.2,0.5,0.3,0.6
							c-0.1-0.1-0.1,0-0.1,0.1l0.2,0.1c0.3,0.6-0.2,0.2,0.1,0.8l-0.3-0.4c0.1,0.1,0,0.4,0.2,0.6c0.2,0.1,0.4,0.2,0.5,0.3
							c0.2,0.3-0.1,0.2,0.2,0.5L22,56.4c-0.1,0-0.1,0.4,0.1,0.8c0.2,0.3,0.6,0.6,0.4,0.1c0.1,0.2,0.2,0.6,0,0.4
							c0.3,0.5,0.1-0.1,0.4,0.3c0,0.2,0.2,0.8,0.3,1.2l-0.4-0.3l0.2,0.3c-0.4-0.3,0,0.3-0.3,0.1c0.1,0.2,0.3,0.4,0.4,0.6
							c-0.1-0.7,0.7,0.5,0.8,0.1c0.5,0.7-0.2,0.8,0.6,1.4c0-0.2,0.4,0.1,0-0.3c0.3,0.5,0.4,0.2,0.7,0.8c-0.4-0.3,0.1,0.6-0.4,0.1
							c0.1,0-0.2-0.4-0.3-0.4c0.1,0.2-0.2,0.1,0.1,0.6c0.2,0.3,0.5,0.7,0.6,0.5c0.1-0.1-0.3-0.4-0.1-0.3c0.4,0.5,0.4,0.8,0.7,0.8
							c-0.3-0.3-0.2-0.5-0.2-0.6l0.4,0.4l-0.1,0c0.5,0.7,0.3,0.1,0.8,0.7c0,0.1,0.1,0.3,0.1,0.4c-0.3,0-0.7-0.9-0.8-0.7
							c0.3,0.4,0.5,0.5,0.8,0.9c-0.1-0.1-0.2-0.2-0.3-0.2c0.1,0.2,0,0.5,0.6,0.9c0.3,0.2,0.1,0,0.2-0.1c0.6,0.6,0.9,0.7,1.3,1
							c-0.2,0.1,0.7,0.7,0.1,0.4c-0.1-0.3-1-1.1-1.3-1.2c0,0.4-0.4-0.5-0.7-0.5c0.5,0.5,0.3,0.6,0.2,0.8c0.1,0.1,0.3,0.2,0.4,0.3
							c0.2,0,0-0.2,0.1-0.3c0.5,0.6,1.1,1,1.5,1.2c0.1,0.2,0,0.3-0.2,0.1c0.3,0.3,0.7,0.6,1.1,0.9c0.4,0.3,0.7,0.6,1,0.8
							c-0.3-0.5,0.8,0.5,0.6,0.1c-0.3-0.3-0.6-0.7-0.3-0.6c0.2,0.2-0.1,0.1,0,0.2c0.4,0.1,0.3,0.5,0.7,0.5c-0.7-0.4-0.3,0.1-0.5,0.2
							c0.5,0.3-0.1,0.1,0.4,0.4c0.6,0.2,1.2,0.5,1.8,0.8c0.7,0.5,1.9,1,2.5,1.2c0.3,0.2,0,0.3,0.4,0.5c0.5,0.2-0.3-0.3,0.4,0l-0.1,0
							c0.2,0.1,1.2,0.6,1.5,0.4l-0.3,0.1c0.1,0.1,0.3,0.1,0.4,0.1c0,0.1,0.1,0.2-0.1,0.2c0.4,0.3,0.9,0.3,1.4,0.4
							c-0.1-0.1-0.2-0.1-0.3-0.2c0.8,0.1,1.4,0.4,2.2,0.5l-0.1,0.1c0.2,0,0.3,0,0.5,0c-0.1,0.1,0.3,0.3,0.6,0.2
							c-0.4,0-0.9,0.1-1.3,0c-0.3-0.2,0.4-0.1,0.2-0.2c-0.2-0.2-0.9-0.3-1.1-0.2c0.3,0.1,0.3,0.1,0.5,0.1c0.1,0.2-0.4,0.1-0.6,0.1
							c0.2,0,0.3,0.1,0.4,0.1c-0.3,0-0.6-0.1-1.1-0.2c0.3,0-0.1-0.2,0-0.2c-0.1,0.2-0.6,0-1.1-0.2c-0.4-0.3-1.2-0.2-1.8-0.6
							c0.3,0,0.7,0,1.2,0.1c-0.4-0.2-0.5-0.1-0.9-0.4c-0.2,0-0.5,0.1-1,0l0-0.1c-0.5-0.2-0.6,0-1.2-0.3c-0.5-0.3-1-0.6-1.5-0.8
							c-0.5-0.3-0.9-0.6-1.3-0.8l0-0.1c-0.6,0-1.4-0.9-2-1.1c-0.8-0.8-2-1.5-2.3-2c-1.5-1.3-2.8-2.6-4-4.3l0.3,0.2
							c-0.3-0.2-0.1-0.3-0.3-0.5c0.1,0.4-0.4-0.3-0.7-0.5c-0.4-0.8-1.1-1.8-1.6-2.5l0.1-0.1c-0.3-0.3-0.5-0.7-0.7-1.2
							c-0.2-0.5-0.3-0.9-0.5-1.4c0-0.1,0-0.3-0.1-0.6c-0.4-0.5-0.5-0.7-0.9-1.5c-0.2-0.6-0.5-1.5-0.6-2.1c-0.9-2.1-1.2-4.4-1.6-6.8
							l0.1-0.2c-0.3-1.1-0.4-2.4-0.4-3.7c0.1-1.3,0.1-2.4,0.1-3.4l0.2,0.2c0.1-0.6,0.1-1.4-0.1-1.3c0.1-0.6,0.1-1.5,0.3-1.9
							c0.2-0.6,0-0.8,0.1-1.3c0.4-1.2,0.4-1.7,0.8-2.8l-0.1,0.3c0,0.1,0.1,0.2,0.2-0.1c0.1-0.4,0.5-1.5,0.1-1.2
							c0.3-0.6,0.5-1.3,0.8-2c0.3-0.7,0.6-1.4,0.9-1.9c-0.1,0.1,0-0.2,0-0.4c0.3-0.5,0.6-1,0.9-1.5c0.3-0.5,0.6-0.9,0.8-1.3
							c0.1-0.1,0,0.3,0.2-0.1c0.1-0.2-0.1-0.1,0.1-0.4c0.9-1.6,2.4-2.8,3.5-4c2-2.2,4.6-4,7-5.3l0,0.1c0.7-0.7,2.1-0.8,2.6-1.4
							c0.2,0,0.8-0.3,0.7-0.1c0.6-0.4,2-0.6,3-1.2c-0.1,0-0.1,0.1-0.2,0.1c1.1-0.2,2-0.7,3.1-0.8c-0.1,0-0.3,0.1-0.3,0.2
							c0.5,0,1-0.5,1.3-0.3c0.2-0.1,0.2-0.2,0-0.1l0.7-0.1c0.3,0,0.5-0.1,0.8-0.1l0.5,0.1l0.4,0.1l0.8,0.2c0.5,0.1,1.1,0.2,1.6,0.3
							c1.1,0.2,2.1,0.5,3.2,0.9c1.7,0.8-0.1,0.5,1.4,0.8c0.1,0.1,0.1-0.1,0.1,0c0.6,0.1,0.7,0.6,1.1,0.7c-0.1-0.2,0.3,0,0.3-0.1
							c1,0.6,1.1,0.8,2,1.2l-0.1,0c1.1,0.3,2,1,2.9,1.3c4.9,3.3,8.9,7.8,11.1,13.2c1.1,2.7,1.8,5.5,2.2,8.3l0.2,2.1
							c0.1,0.7,0.1,1.4,0.1,2.1c0.1,1.5-0.1,2.9-0.2,4.3c-0.4,1.3-0.4,1.4-0.5,2.9c0-0.1,0-0.2-0.1-0.1c0.2,0.1-0.2,1,0,1.2
							c-0.5,2.1-0.9,4-1.7,6.1c0.1-0.3,0-0.6-0.1-0.2l0,0.4l-0.1,0c-0.1,0.3-0.1,0.6,0.1,0.3c-1.9,5.3-5.4,9.7-9.7,13.1
							c-1.1,0.8-2.6,1.8-3.8,2.6c-3.8,1.8-7.4,2.7-11.5,3.5C44.5,75,45,74.4,46.6,74z"/>
						<path fill="#808181" d="M43.1,74.3C43,74.2,42.5,74,42.9,74C43,74.1,43.2,74.2,43.1,74.3z"/>
						<path fill="#808181" d="M32,68.9c0,0-0.1-0.1-0.1-0.2c0.1,0.1,0.3,0.1,0.4,0.2C32.1,68.9,32.1,68.9,32,68.9z"/>
						<path fill="#808181" d="M29.5,67c0.1,0,0.6,0.3,1,0.6L29.5,67z"/>
						<path fill="#808181" d="M27.6,64.8c-0.1-0.2,0-0.2,0.2,0C27.8,64.9,27.7,64.8,27.6,64.8z"/>
						<path fill="#808181" d="M27.4,64.8c-0.2-0.2-0.2-0.3-0.3-0.4C27.1,64.4,27.5,64.8,27.4,64.8z"/>
						<path fill="#808181" d="M23.8,59.7c-0.1-0.1-0.3-0.4-0.3-0.5C23.5,59.3,24,59.7,23.8,59.7z"/>
						<path fill="#808181" d="M22.3,57.2c0-0.1,0-0.1-0.1-0.2c0-0.2,0.1,0,0.2,0.1L22.3,57.2z"/>
						<polygon fill="#808181" points="38,12.7 37.7,12.9 37.7,12.8 						"/>
						<path fill="#808181" d="M59.5,17.6c0.3,0.1,0.1,0.2,0.2,0.2C59.4,17.7,59.8,17.8,59.5,17.6z"/>
						<polygon fill="#808181" points="67.7,27.2 67.7,27.1 67.8,27 						"/>
					</g>
				</g>
			</g>
		</g>
	</g>
	<g>
		<g>
			<g>
				<g>
					<g>
						<path fill="#808181" d="M42.2,25.8c-0.1,0-0.1,0.1,0,0.2l0.2,0L42.2,25.8z"/>
						<path fill="#808181" d="M42.7,27c0.2,0.1,0.4,0.3,0.5,0.1c-0.3-0.1-0.2-0.2-0.5-0.3c-0.1-0.1-0.1-0.3,0-0.3
							c-0.1,0-0.1-0.3-0.3-0.2c0,0.3,0.2,0.5,0.4,0.7C42.8,27,42.7,27,42.7,27z"/>
						<path fill="#808181" d="M41.7,41.5l0.1-0.1C41.7,41.4,41.7,41.5,41.7,41.5z"/>
						<path fill="#808181" d="M43,50.6c0-0.1,0-0.1,0-0.1C43,50.5,43,50.6,43,50.6z"/>
						<path fill="#808181" d="M42.5,52.1C42.5,52.1,42.6,52.1,42.5,52.1C42.5,52.1,42.5,52.1,42.5,52.1z"/>
						<path fill="#808181" d="M41.7,41.5c0,0.1-0.1,0.2-0.1,0.4C41.7,41.9,41.6,41.7,41.7,41.5z"/>
						<path fill="#808181" d="M43.9,29.1c0-0.1,0-0.1-0.1-0.2L43.9,29.1L43.9,29.1z"/>
						<path fill="#808181" d="M43.2,37.4L43.2,37.4c0-0.1,0-0.1-0.1-0.1L43.2,37.4z"/>
						<path fill="#808181" d="M40.7,35.1c0.1,0,0.5-0.1,0.7-0.1c-0.2,0-0.3,0-0.5,0l0,0c0,0,0,0-0.1,0C40.8,35,40.8,35,40.7,35.1z"
							/>
						<path fill="#808181" d="M43.3,29.9C43.3,29.9,43.3,29.9,43.3,29.9C43.3,29.9,43.3,29.9,43.3,29.9z"/>
						<path fill="#808181" d="M42.6,39.6C42.6,39.6,42.5,39.6,42.6,39.6C42.5,39.6,42.6,39.6,42.6,39.6z"/>
						<path fill="#808181" d="M42.5,22C42.5,22,42.5,22,42.5,22C42.5,22,42.5,22,42.5,22z"/>
						<path fill="#808181" d="M42.3,26.3L42.3,26.3C42.3,26.3,42.3,26.3,42.3,26.3L42.3,26.3z"/>
						<path fill="#808181" d="M42.9,54.8L42.9,54.8C42.8,54.8,42.8,54.8,42.9,54.8z"/>
						<path fill="#808181" d="M29.1,55.8c0,0.4-0.4-0.4-0.3,0.1C28.9,55.9,29.3,56.2,29.1,55.8z"/>
						<path fill="#808181" d="M43.9,29.2c0,0,0,0.1,0,0.2C43.9,29.3,43.9,29.2,43.9,29.2z"/>
						<path fill="#808181" d="M28.8,56L28.8,56L28.8,56C28.8,56,28.8,56,28.8,56z"/>
						<path fill="#808181" d="M43,61.5C43.1,61.4,43.1,61.4,43,61.5C43.1,61.4,43.1,61.4,43,61.5z"/>
						<path fill="#808181" d="M43.8,56l0,0.1C43.8,56.1,43.8,56,43.8,56z"/>
						<path fill="#808181" d="M42.5,63.5c-0.1,0-0.1,0-0.1,0.1c0,0,0,0,0,0C42.4,63.5,42.4,63.5,42.5,63.5z"/>
						<path fill="#808181" d="M40.5,62.9C40.5,62.9,40.5,63,40.5,62.9l0,0.1C40.5,63,40.5,63,40.5,62.9z"/>
						<path fill="#808181" d="M33.9,21.9c0.1-0.1,0.1-0.1,0.2-0.1C33.9,21.8,34.1,21.2,33.9,21.9z"/>
						<path fill="#808181" d="M43.8,29.1C43.8,29.1,43.9,29.1,43.8,29.1L43.8,29.1C43.8,29.1,43.8,29.1,43.8,29.1z"/>
						<path fill="#808181" d="M43,64.7c-0.2,0.1-0.4,0.2-0.6,0.2C42.5,64.8,42.8,64.8,43,64.7z"/>
						<path fill="#808181" d="M25.2,38.7l0-0.1C25.1,38.7,25.1,38.7,25.2,38.7z"/>
						<path fill="#808181" d="M40.4,64.6c-0.1-0.1-0.2-0.2-0.2-0.3c0,0-0.1,0-0.1,0C40.1,64.4,40.3,64.5,40.4,64.6z"/>
						<path fill="#808181" d="M34.1,21.8L34.1,21.8L34.1,21.8z"/>
						<path fill="#808181" d="M37.1,19.6c-0.5,0-0.2,0.2-0.3,0.4c-0.6,0.1-0.3-0.1-0.5-0.2c-0.4,0.1-0.6,0.4-0.9,0.6
							c0,0-0.1,0-0.1-0.1c-0.2,0.2-0.5,0.4-0.7,0.6c-0.2,0.3-0.4,0.6-0.4,0.9c0,0-0.1,0-0.1,0c0.1,0,0.2,0,0.3,0
							c-0.1,0.2,0,0.4-0.1,0.5c0-0.1,0-0.2,0-0.2c0,0.1,0,0.2,0,0.3c-0.2,0.2,0-0.3-0.1-0.4c-0.1,0.5,0.1,1.2,0.2,1.3
							c-0.1,0-0.2-0.1-0.2-0.2c0-0.1-0.1-0.3-0.1,0c0-0.2,0-0.4,0-0.6c-0.3,0.5,0.1-0.4-0.3,0c-0.1,0.3,0,0.8,0,0.7
							c0,0,0.1,0,0.1,0.1c0,0,0.1,0,0,0c0.1,0.1,0.2,0.1,0.3,0.2c-0.4,0.3-0.4-0.4-1,0.1C33,23.7,33,24,32.5,24.1l0-0.3
							c-0.6,0.3-0.2,0.5-0.8,0.7c0-0.2,0.4-0.4,0.3-0.3c-0.5,0.1-0.2,0.3-0.5,0.5l-0.2-0.1c-0.6,0.5-1,1.2-1.4,1.9
							c0-0.1,0-0.2-0.2-0.1c-0.4,1-0.8,2.1-0.7,3.2c0.1,0.1,0.1,0.3,0.2,0.4c0,0.1,0,0.2-0.1,0.1c0,0.4,0.1,0,0.2,0.2
							c0.1,0.2,0,0.3-0.1,0.2c0,0.1,0.1,0.2,0.2,0.3c0.1,0.1,0.2,0.3,0.2,0.3c0.1,0.1,0.2,0.2,0.3,0.3c-0.1,0.1-0.3,0.2-0.4,0.2
							c0,0,0,0,0-0.1c0,0-0.2,0.1-0.2,0.1c-0.1,0.1-0.1,0.2-0.1,0.2c-0.1,0.1-0.2,0.3-0.4,0.4l0.1-0.1c-1,0.6-1.7,1.8-2.4,2.4
							c0.1,0.3-0.6,1-0.3,1.2c-0.4,0.6-0.4,0.4-0.8,1.2c-0.1,0.2,0.1,0.4,0.1,0.7l-0.2,0l0.1,0.4l-0.3,0.2l0,0.3
							c0-0.1,0.1-0.2,0.2-0.2c0,0.5-0.2,1.1-0.3,1.1c0,0.4,0.1,0.7,0.2,1.1c-0.1,0-0.1-0.2-0.2-0.3c0.2,0.6-0.2,0.1,0,0.6
							c0-0.1,0.1,0,0.1,0c-0.1,0.3,0,0.9,0.2,1.3l-0.1-0.1c0.2,0.8,0.6,1.7,1.3,2.5c-0.2-0.3,0-0.4,0.2-0.2l-0.1,0.2
							c0.2,0.1-0.1-0.3,0.2-0.1c0.2,0.3,0,0.3-0.2,0.2l0.4,0.3c0,0.1-0.1,0-0.2,0c0.2,0,0.5,0.7,0.9,0.6l0,0.1l0.1,0.1c0,0,0,0,0,0
							l0,0l0,0c0,0,0.1,0,0.1,0c0,0,0,0,0,0c0.2,0,0.1,0,0.2,0.1c0,0-0.1,0.1-0.1,0.1c-0.1,0.1-0.2,0.2-0.3,0.3
							c-0.2,0.2-0.4,0.5-0.6,0.8c-0.2,0.4,0.1,0.2,0,0.4c-0.2,0-0.4,0.6-0.4,0.2c-0.3,0.8-0.4,1-0.4,2c0.1-0.1,0.1-0.2,0.2-0.1
							c0,0.2-0.1,0.4-0.2,0.4l0,0c0.1,1.1-0.3,2.6,0.2,3.4l0,0c0.1,0.3,0.3,0.6,0.4,0.8c0.1,0.4-0.2-0.2-0.2,0.1
							c0.6,0.8,0.5,1.4,1.1,2.1c0,0.4,0.3,0.9,0.7,1.3c0.2,0.2,0.5,0.4,0.7,0.6c0.3,0.2,0.5,0.4,0.7,0.5l0-0.1
							c0.2,0,0.2,0.2,0.4,0.3c0-0.1-0.2-0.2,0-0.2c0.6,0.2,1.2,0.5,1.8,0.6c0.3,0.1,0.7,0.1,1.1,0l0.3,0l0.1,0c0,0,0,0,0,0.1
							c0,0.1,0,0.1-0.1,0.1l0,0c0,0,0,0.1,0,0.1c0,0.1,0.1,0.1,0.1,0.1c0.1,0.1,0.2,0.1,0.2,0.2c0.2,0.1,0.3,0.2,0.4,0.7
							c-0.1,0-0.2-0.1-0.3-0.2c0.5,0.7,1.2,1.2,1.8,1.6c0.6,0.3,1.1,0.8,1.9,1c-0.1,0-0.1,0.1-0.3,0c0.1,0.1,0.4,0.3,0.7,0.3
							c0.3,0.1,0.6,0,0.6-0.1c0.3,0,0.1,0.1,0.3,0.2c0.1,0,0.1,0,0.2,0c0,0,0,0,0,0c0,0,0,0,0.1-0.1c0-0.1,0.1-0.1,0.1-0.1l0,0
							c0,0,0,0,0,0c0,0,0,0,0,0.1c0,0,0,0,0,0c0-0.1,0,0.1,0.1-0.1c0,0.1,0,0.1,0,0.1l0.1,0.2c0.2,0.2,0.4,0.4,0.6,0.6
							c0.3,0.1,1,0.6,1.1,0.4c-0.1,0.1,0.2,0.2,0.6,0.2c0.4,0,0.7-0.2,0.9-0.3c-0.1,0.1,0.4-0.1,0.3,0.1c0.4-0.2,0.7-0.6,0.6-0.6
							c0.4-0.2,0.6-0.6,0.7-1c0.1-0.4,0.1-0.7,0.3-0.9c-0.1-0.6-0.2-1.1-0.3-1.5c-0.1-0.4,0-0.9,0-1.3c0.2,0.1-0.1,1,0.2,0.9
							c0-0.8-0.1-1.3,0.2-2.2c0.1-0.2,0.1,0.2,0.1,0.2c0.1-0.5,0.2-0.9,0.2-1.4c0.1-0.5,0-1-0.2-1.4c0,0,0.1,0.1,0.1,0.2
							c0-0.2-0.1-0.4-0.2-0.4c0,0.1,0.1,0.1,0.1,0.2c-0.1,0.3-0.6-0.6-0.7-0.5c0.2,0.1,0.1-0.1,0.1-0.3c-0.1-0.2-0.1-0.4,0.2-0.3
							c-0.1-0.1-0.2-0.2-0.3-0.1c-0.1-0.2-0.1-0.2,0.1-0.1c-0.3-0.2-0.4-0.3-0.5-0.3c-0.1,0-0.1,0-0.2-0.1c0,0-0.1,0-0.2-0.1
							c0,0,0.1,0,0.2-0.1c-0.2,0-0.3,0-0.5,0c0,0-0.1,0-0.1,0c0.1,0,0.1,0,0.2,0c0,0-0.1,0-0.1,0c0,0,0,0,0-0.1c0,0,0-0.1,0.1-0.2
							c0.1-0.2,0.1-0.4,0.4-0.8c0.1,0.3,0.2-0.2,0.4-0.2c0-0.2,0-0.3,0.1-0.5l-0.1,0.2c0.1-0.4,0-0.8,0.1-1.1c0,0.1,0.1,0.2,0.1,0.3
							c0-0.3,0-0.5,0-0.8c0,0.1,0,0.3-0.1,0.4c-0.1-0.4-0.3,0-0.2-0.5c0,0.1,0-0.4,0-0.6l0,0c-0.1-0.2-0.2-0.3-0.3-0.6
							c0-0.1,0.2,0,0.3-0.1c-0.2-0.1-0.4-0.9-0.7-1c0.1,0,0.2,0,0.2,0l-0.2-0.1c-0.1-0.2,0-0.2,0-0.2c-0.2-0.3-0.2,0.2-0.4-0.2
							c0,0,0.1,0,0.1,0.1c-0.1-0.1-0.2-0.2-0.2-0.3c0.2-0.2,0.4-0.3,0.7-0.7c0.3,0-0.3,0.5,0,0.4c0.6-0.8,0.6-1.9,0.5-2.7
							c0,0.1,0,0.1,0,0.2c-0.3-0.1,0.1-0.7-0.3-1.1c0.1,0.1,0.2,0.1,0.2,0c-0.1-0.3-0.3-0.6-0.6-0.8c-0.3-0.2-0.5-0.4-0.6-0.7
							c0,0,0.1,0,0.1,0.1c0-0.1,0-0.2,0.1-0.4c0.1-0.1,0.2-0.3,0.3-0.4c0-0.1,0.1-0.3,0-0.2c0.5-0.3,0.8-0.8,0.9-1.3
							c0.2-0.5,0.2-1,0.5-1.5c0,0.1,0,0.3,0,0.2c0-0.3,0-0.6,0-0.9c-0.1,0.1-0.1,0.1-0.2,0.3c-0.1-0.1-0.1-0.3-0.2-0.5
							c0.1,0.4,0.2,0,0.3-0.2c0,0-0.1,0-0.1,0c0.1-0.5-0.3,0-0.3-0.6l0.1,0c-0.1-0.2-0.3-0.3-0.4-0.5c0.1-0.2,0.2,0.2,0.3,0.1
							c-0.2-0.3-0.6-0.4-0.7-0.7c0.1,0.1,0.3,0.2,0.4,0.3c-0.1-0.4-0.2-0.4-0.4-0.6l0,0c-0.1-0.1-0.2-0.2-0.2-0.2l0,0.1
							c-0.3,0.1-0.5,0-0.6,0c-0.1,0-0.1,0-0.2,0l0.1-0.1c0.1-0.1,0.1-0.2,0.1-0.3c0,0.4,0.1,0.1,0.3,0.1c0.1-0.1,0.2-0.1,0.3-0.1
							c0-0.1,0-0.1,0.1-0.1c0.1-0.1,0.2-0.2,0.2-0.4c0.1,0,0.2-0.3,0.2-0.1c0.1-0.4-0.1,0-0.2,0c0.1-0.6,0.8-1.1,0.7-2
							c0-0.7-0.2-0.8-0.3-1.4c0.1-0.2,0.2,0.2,0.2,0.2c0.1-0.3,0-0.6,0-0.9c0.1,0.1,0.1,0,0.1-0.1c-0.1-0.3-0.2-0.1-0.2-0.5
							c0.1,0,0.2,0.1,0.3,0.2c-0.1-0.3-0.3-0.6-0.4-0.9c0.1-0.1,0.2,0.1,0.3,0.2c-0.1-0.3-0.4-0.9-0.6-0.9c0,0.1,0,0.2,0,0.2
							c-0.1-0.1,0.1-0.1,0.2,0c0.2,0.2,0.1,0.4,0.1,0.5l-0.1-0.2c-0.2,0.3,0.3,0.8,0.4,1.3L43.3,29c0.1,0.1,0.2,0.3,0.3,0.4
							c-0.1,0.1-0.2,0.2-0.2,0c-0.1,0.3,0.1,0.3,0,0.5c0,0,0,0,0,0l0.1,0.3c-0.1-0.1-0.2,0-0.1-0.1c-0.1,0.5,0.1,0.9-0.1,1.1l0,0
							c-0.1,0.7,0.2,0.1,0.3,0.7c-0.2,0.1-0.4,0.2-0.5,0.2l0.1,0.1c0,0.1-0.1,0.2-0.2,0.2c0,0.3,0.1,0,0.1,0.2
							c-0.3,0.3-0.4,1-0.7,0.9c0,0.2,0.3-0.2,0.1,0.1c-0.2,0-0.2,0.1-0.3,0.2c-0.1,0.2-0.1,0.3-0.3,0.4c-0.1-0.1,0.3-0.4-0.2-0.1
							c0.1,0.1-0.1,0.3-0.3,0.4c-0.1,0.1-0.2,0.2-0.4,0.3l-0.1,0.1c0,0,0,0,0,0c0,0,0,0,0,0.1c0,0,0,0,0.1,0c0.2,0,0.5,0,0.8,0.1
							c0.3,0.1,0.6,0.3,0.8,0.4c0,0,0.1,0.2,0.2,0.4c0.1,0.2,0.3,0.5,0.3,0.7l0,0c0.2,0,0.3,0.4,0.4,0.7c-0.1,0-0.2-0.1-0.3-0.2
							c0,0.1,0,0.2,0,0.3c0.1,0.1,0.1,0.2,0.1,0.3l-0.2-0.1c0,0.4,0.1,0.8-0.2,1.3c0.1,0.1,0.5-0.3,0.4,0.3c-0.1,0-0.2,0-0.2-0.2
							c0,0,0,0.2-0.1,0.3l0-0.3c-0.1,0.2,0.1,0.2,0,0.3c-0.1-0.1-0.1,0.1-0.2,0c0,0,0.1-0.1,0.1-0.2c-0.1,0.2-0.3,0.4-0.4,0.4
							c0.1,0,0.1,0.1,0.1,0.2c-0.2,0.4-0.2,0-0.4,0.2c0,0.1-0.2,0.3-0.1,0.4c-0.1,0.1-0.2,0.1-0.2,0.1c0,0.1-0.2,0.4-0.3,0.6
							c-0.1,0.2-0.1,0.4,0,0.3l0-0.1c0,0,0,0,0,0l0,0l0,0c-0.1,0.4,0.1,0.9,0.3,1.2c0.3,0.3,0.5,0.6,0.6,0.9l-0.1,0
							c0.3,0.3,0.3,0.8,0.5,1.1c0,0.1-0.1,0.3-0.2,0.2c0,0.3,0.1,0.4-0.1,0.7c0-0.3-0.1,0.1,0-0.3c-0.1,0.4-0.2,0.4-0.3,0.8
							c-0.1-0.2-0.3,0.1-0.4,0.3l0.2-0.1c-0.1,0.1-0.1,0.2-0.2,0.2c-0.1,0.1-0.2,0.2-0.3,0.3c0-0.1,0-0.1-0.1-0.2
							c-0.3,0.2-0.8,0.4-1,0.6c0.4,0.3,0.8,0.6,1.1,0.9c0.2,0.2,0.2,0.2,0.3,0.3c0.1,0.1,0.1,0.2,0.1,0.3c0.2,0.1-0.1-0.4,0.1-0.3
							c0.2,0.3,0.1,0.8,0.1,0.9c0,0.5,0.4,0.4,0.4,0.9c0.1-0.1,0.2-0.2,0.3,0.2c0,0.4-0.3,0.5-0.3,0.2c0-0.1,0-0.1,0-0.1
							c0-0.1-0.1-0.3-0.1-0.1l0.1,0c-0.1,0.2-0.1,0.7-0.2,0.5c0,0.3,0.1,0.1,0.2-0.1c-0.1,0.4-0.1,0.7-0.3,1.1
							c0.1-0.1,0.2-0.1,0.1,0c-0.2,0.3-0.2,0.4-0.1,0.5c0,0.1,0.1,0.1-0.1,0.4c-0.2,0.1-0.2,0.1-0.2,0.1c0,0-0.1,0-0.3,0.4
							c-0.5,0.4-0.4,0.1-0.2-0.1c-0.2,0.3-0.5,0.6-0.8,0.8c-0.4,0.3-0.4,0.3-0.7,0.7c0.1,0,0.3,0,0.4,0l-0.5,0.1l0.1-0.1
							c0,0,0,0,0-0.1c0,0,0,0,0,0.1c0,0.1-0.1,0.1-0.1,0.1c0.4,0,0.7-0.1,1-0.1c-0.1,0-0.2-0.1-0.2-0.1c0.5,0,0.9,0,0.8,0
							c0.3-0.1,0.3-0.1,0.3-0.2c0-0.1,0.2-0.1,0.6-0.2c0.4,0.1,0.6,0.2,0.5,0.4c-0.3-0.4,0,0.2-0.4-0.1c0.1,0,0.1,0,0.2,0.1
							c0,0,0.1,0.1,0.1,0.1c0,0,0,0-0.1,0c0.1,0.4,0.3,0,0.5,0.4c-0.1,0-0.1,0.2-0.1,0.2c-0.1-0.2,0.1-0.2,0.3,0
							c0,0.3,0.2,0.3,0.2,0.5c0-0.1,0-0.1,0-0.2c0.1,0,0.2,0.2,0.2,0.5c-0.1,0-0.1-0.2-0.1-0.1c0.2,0.3-0.2,0.6-0.1,1
							c-0.1,0.2-0.2,0-0.3,0.1c0,0.5-0.2,0.4-0.2,1c0.2-0.1,0.1-0.1,0.2,0.2l0.1-0.8l0.1,0.6c0.1-0.2,0-0.5,0.1-0.7
							c0.1,0.3,0,0.2,0.2,0.1c-0.3,0.3,0,0.7-0.3,1l-0.3-0.1c-0.3,0.6-0.1,1.1-0.2,2l0.1-0.3c0.1,0.1,0,0.5,0.1,0.8
							c-0.1,0-0.1,0.2-0.2,0.3c0.1,0,0.1,0.5,0.3,0.6c0,0.1-0.1,0.2-0.2,0.3c-0.1,0.2,0,0.3,0,0.5c0,0.2,0,0.3-0.2,0.5
							c0-0.2-0.2-0.1-0.1-0.4c-0.1,0.1-0.2,0.2-0.1,0.3c-0.1,0-0.2,0.4-0.4,0.4c0,0.1,0,0.2-0.2,0.2c0,0,0-0.1,0-0.1
							c0,0.1-0.3,0.1-0.1,0.2c-0.3-0.1-0.6-0.1-1-0.3c-0.3-0.1-0.6-0.4-0.6-0.7c-0.1-0.1-0.2-0.5-0.3-0.8c0-0.2-0.1-0.3-0.1-0.5
							c0-0.1,0-0.2,0-0.2l-0.1,0c-0.1,0.1-0.1,0.2-0.2,0.3c0.1-0.1,0-0.1,0.1-0.2c-0.4,0.3-0.6,0.6-0.7,0.8
							c-0.1,0.1-0.1,0.2-0.2,0.2c-0.1,0-0.2,0-0.3,0c-0.2-0.2,0.3-0.1,0.1-0.2c0-0.2-0.1-0.2-0.3-0.2c-0.2,0-0.4-0.1-0.6-0.3l0.1,0
							c-0.2-0.2-0.7-0.2-1.1-0.5c0,0,0,0,0,0c-0.4,0-1-0.3-1.4-0.6c0.2,0,0.2,0.1,0.2-0.1c-0.2-0.1-0.1,0.2-0.5,0
							c0-0.2-0.2-0.4,0-0.6c0.1,0.1,0.1,0.2,0.2,0.3c0-0.3-0.3-0.4-0.3-0.6l0.1,0c-0.1-0.2-0.2-0.4-0.3-0.5
							c-0.1-0.2-0.2-0.4-0.3-0.9l0,0.2c-0.1-0.1-0.1-0.2-0.1-0.4c0-0.2,0.1-0.4,0-0.4l0.2-0.6c0,0-0.1,0.1-0.1,0.1
							c0,0.1-0.1,0-0.1,0c0,0-0.1,0.1-0.1,0c-0.5,0.9-0.8,1.2-1,1.3c0-0.1,0.1-0.1,0.1-0.2c0.1-0.1,0.1-0.1,0.2-0.3
							c0.1-0.2,0.2-0.4,0.3-0.5c0.2-0.3,0.3-0.6,0.5-0.8c0.1,0.1,0.1,0,0.2,0.1c0,0,0,0,0.1,0c0,0,0,0,0-0.1l0,0c0,0,0-0.1,0-0.1
							c0,0,0-0.1,0-0.1c0,0,0-0.1-0.1-0.2c-0.3,0.5-0.6,0.9-0.8,1.3c-0.2,0.4-0.3,0.4-0.3,0.5c0.1-0.1,0.1-0.1,0.2-0.3
							c0.1-0.2,0.2-0.3,0.3-0.4c-0.1,0.3-0.3,0.6-0.4,0.7c-0.1,0.1-0.2,0.2-0.3,0.2c-0.2,0.1-0.4,0.1-0.6,0.1
							c0.1-0.2-0.2-0.3-0.6-0.4c-0.3-0.1-0.7-0.3-0.8-0.5c-0.9-0.2-1.3-0.8-1.8-1.6c-0.1,0.5-0.2-0.2-0.4,0
							c-0.1-0.2-0.2-0.3-0.2-0.3c-0.1-0.2-0.1-0.5-0.1-0.7c0-0.2,0.2,0.2,0.2,0.1c-0.2-0.5,0-0.3,0-0.6c-0.1,0.1-0.2-0.1-0.3-0.4
							l0,0.4c-0.5-0.6,0-0.7-0.4-1.3l0.2,0.2c-0.2-0.3-0.4-1.2-0.7-1.5c0-0.1,0.1-0.2,0.2,0c-0.1-0.8-0.5-1.9-0.2-2.5l0.1,0.1
							c0-0.2-0.1-0.3,0-0.5c0,0,0.1,0.1,0.1,0c0-0.1,0-0.4,0.1-0.6c0,0.1,0,0.1,0,0.2c0.4-0.7,0.3-1.2,0.6-1.9
							c0.1,0.1,0.3,0,0.4-0.1c0.3-0.3,0.7-0.6,0.9-0.9l0,0c0.4-0.5,0.8-0.9,1.1-1.2c-0.7-0.1-1.3-0.1-2-0.2c-0.2,0-0.3,0-0.4-0.1
							c-0.2-0.1-0.2-0.1-0.3-0.1c-0.1,0-0.2-0.1-0.4-0.2c-0.1-0.2-0.4-0.6-0.6-0.9c-0.3-0.4-0.4-0.9-0.5-1.3c0,0.1-0.2,0-0.3-0.1
							c0-0.2-0.3-0.5-0.1-0.5l0,0.1c0.2-0.2,0.1-0.6,0.1-0.9l-0.3,0c0.2-0.5,0.2-1,0.2-1.5c0-0.5,0.1-1,0.3-1.2c0-0.2,0-0.5,0-0.7
							l0.2,0.1c0.2-0.5,0.3-0.8,0.6-1.5l0,0.2c0.2-0.3-0.2-0.7,0-1l0.3,0c0.4-0.6,1-1,1.4-1.6c0,0,0,0.1,0,0.2
							c0.2-0.2,1.1-0.6,0.8-0.8c0.1,0.1,0.2,0,0.6-0.2c0.4-0.2,0.7-0.5,0.9-0.7c0.1,0,0.1,0.1,0.2,0.1c0,0,0-0.1,0-0.1
							c-0.5-0.4-0.7-0.5-1-1c0-0.1,0.1-0.2,0.1,0c-0.1-0.3-0.1-0.3-0.2-0.3c-0.1-0.1-0.1-0.1-0.2-0.3l0.1,0.1
							c-0.1-0.3-0.1-0.3-0.3-0.5c-0.1-0.2,0-0.7,0.1-0.8c-0.1,0-0.2-0.3-0.1-0.5c0.1,0,0.1,0.1,0.1,0.1c0.2-0.6,0-0.9,0.3-1.3
							c0.1,0,0.1,0,0.1,0c-0.2,0.4-0.3,0.8-0.3,0.8c0.1,0,0.3-0.3,0.4,0c-0.1-0.3-0.1-0.9,0.2-1.2c0,0,0,0,0.1,0l0,0
							c0.1-0.1,0.1-0.1,0.1-0.2c0.1-0.1,0.1-0.1,0.2-0.2c0.1,0,0.3-0.3,0.4-0.4c-0.1-0.1,0.1-0.3-0.2-0.2c0,0,0,0-0.1,0.1
							c0,0,0,0.1,0,0.1l0,0c-0.1,0.1-0.2,0.2-0.3,0.4c0-0.2,0.1-0.3,0.3-0.5c0-0.1,0-0.3,0-0.4c0.4,0,0.8-0.3,1-0.2
							c0.4-0.4,1.1-0.8,1.4-1.2c0.1-0.1,0.2,0,0.4,0c-0.2,0.1-0.2,0.1-0.3,0.2c0.1-0.1,0.6-0.3,0.9-0.4c0.3-0.1,0.5-0.2,0.4-0.3
							c0.3-0.2,0.3,0.2,0.4-0.1c0,0-0.1-0.1-0.1-0.1l0.2,0.2l0,0l0,0c-0.1-0.2-0.4-0.5-0.6-0.7C35.1,23,35,22.8,35,22.8
							c0,0,0-0.1,0-0.1c0-0.2-0.1-0.4,0-0.6c0-0.4,0.3-1,1-1c-0.1,0-0.1,0-0.2,0c0.7-0.2,1.4-0.3,2.2-0.2c0.4,0,0.8,0,1.1,0.1
							c0.3,0.1,0.7,0.3,0.8,0.6c0.1,0.2,0.2,0.2,0.3,0.4c-0.1,0-0.1,0-0.2,0l0,0.1l0.3,0.6l0.1-0.1c0.1-0.1,0.2-0.1,0.3-0.2
							c0.3-0.1,0.5,0.2,0.7,0.4c0.2,0.2,0.3,0.4,0.5,0.7l0.1-0.1c0.1,0.2,0.3,0.8,0.2,0.8c0,0,0.1,0.1,0.1,0.2l-0.1,0
							c0.1,0.2,0.1,0.4,0.1,0.7c-0.1,0.5-0.3-0.1-0.5,0.6c0,0.3,0,0.9,0.1,0.8c0-0.1,0.1-0.3,0.2-0.3l0,0.3c0.2,0.1,0.5,0.4,0.8-0.2
							l0-0.5l0.2-0.1l-0.1,0.4c0.2-0.2,0.1-0.4,0.1-0.6c0.1,0,0.1-0.1,0.2-0.2c-0.1-0.2-0.1-0.4-0.2-0.6c0.1-0.1,0.2,0.3,0.3-0.1
							c-0.1-0.3-0.2,0.2-0.3-0.2c0.1-0.3,0.2-0.2,0.1-0.5c0.1-0.1,0.1,0,0.2,0.1c-0.1-0.3-0.2-0.8-0.5-0.9c0-0.4-0.6-0.8-0.4-0.9
							c-0.1,0-0.6-0.2-0.8-0.3c0.3,0,0.1-0.2-0.3-0.3c-0.3-0.1-0.8-0.1-0.7-0.3c-0.1,0.1-0.2,0.1-0.3,0.1l0.9,1c0-0.3,0-0.9-0.2-1.2
							c-0.2-0.4-0.6-0.6-0.8-0.6c0,0,0.1,0,0.2,0C40,20.2,40,20.1,39.8,20c-0.1,0.2-0.7,0.1-1,0.2c-0.4-0.3,0.3-0.2,0.2-0.5
							c0,0.1-0.2,0.1-0.4,0.1c-0.2,0-0.3,0.1-0.2,0.1c-0.3-0.2-0.2-0.1-0.4-0.3c-0.1,0.3-0.3,0-0.5,0.2c-0.4-0.1-0.1-0.3-0.6-0.2
							C36.6,19.7,37.1,19.6,37.1,19.6z M30.1,26.6L30.1,26.6c0-0.1,0.1-0.2,0.1-0.2C30.1,26.4,30.1,26.5,30.1,26.6z M29.7,27.5
							c0-0.1,0.1-0.2,0.1-0.4c0.1,0,0.1,0,0.1,0.1C29.9,27.2,29.8,27.4,29.7,27.5z M31.5,26.4c-0.1,0.1-0.1,0.1-0.1,0.1
							C31.4,26.5,31.5,26.4,31.5,26.4L31.5,26.4C31.5,26.4,31.5,26.4,31.5,26.4z"/>
						<path fill="#808181" d="M31.5,26.1C31.5,26.1,31.5,26.1,31.5,26.1C31.5,26.1,31.5,26.1,31.5,26.1L31.5,26.1L31.5,26.1z"/>
						<path fill="#808181" d="M41.7,41.4L41.7,41.4C41.7,41.4,41.8,41.4,41.7,41.4C41.8,41.4,41.8,41.4,41.7,41.4z"/>
						<polygon fill="#808181" points="25.3,37.7 25.3,37.7 25.3,37.6 						"/>
						<path fill="#808181" d="M43.9,36.9C44,36.9,44,36.9,43.9,36.9C44,36.8,43.9,36.9,43.9,36.9z"/>
						<path fill="#808181" d="M42.8,34.9l-0.1-0.1C42.7,34.8,42.7,34.8,42.8,34.9z"/>
						<path fill="#808181" d="M42.5,34.4C42.4,34.4,42.4,34.4,42.5,34.4L42.5,34.4L42.5,34.4z"/>
						<path fill="#808181" d="M44.8,55.7L44.8,55.7C44.9,55.9,44.9,55.8,44.8,55.7z"/>
						<path fill="#808181" d="M43.5,49.6c0,0.1,0.1,0.2,0.1,0.2C43.6,49.7,43.6,49.6,43.5,49.6z"/>
						<polygon fill="#808181" points="43,64.6 43,64.6 43,64.7 						"/>
						<path fill="#808181" d="M43.7,50.2c0-0.1,0-0.3,0-0.4C43.7,50,43.6,50.1,43.7,50.2z"/>
						<path fill="#808181" d="M43.5,27.6L43.5,27.6C43.5,27.5,43.4,27.5,43.5,27.6L43.5,27.6z"/>
						<path fill="#808181" d="M43.4,27.5L43.4,27.5C43.4,27.4,43.4,27.5,43.4,27.5z"/>
						<path fill="#808181" d="M43.3,27.2c0,0.1,0.1,0.1,0.1,0.2C43.4,27.3,43.3,27.3,43.3,27.2z"/>
						<path fill="#808181" d="M43.9,29.8L43.9,29.8C44,29.8,43.9,29.8,43.9,29.8z"/>
						<path fill="#808181" d="M43.9,30.5c0-0.2,0.1-0.4,0.1-0.7l0,0C44.1,30,43.8,30.4,43.9,30.5z"/>
						<path fill="#808181" d="M42.5,33c0.1-0.1,0.2-0.3,0.3-0.5c-0.1,0.1-0.2,0.1-0.1-0.1C42.2,33,42.8,32.4,42.5,33z"/>
						<path fill="#808181" d="M41.2,34.6c0.3-0.3-0.1,0-0.2,0C40.9,34.8,40.9,34.8,41.2,34.6z"/>
						<path fill="#808181" d="M42.9,44.9l-0.1,0C42.8,45,42.8,44.8,42.9,44.9z"/>
						<path fill="#808181" d="M42.7,47.1c0.1,0,0.1,0,0.2,0c0,0,0-0.1-0.1-0.1C42.7,47,42.7,47,42.7,47.1z"/>
						<polygon fill="#808181" points="42,48.3 41.9,48.2 42,48.3 42,48.3 42.1,48.5 						"/>
						<path fill="#808181" d="M40.8,63.1l-0.1,0.2C40.9,63.4,41,63.2,40.8,63.1z"/>
						<path fill="#808181" d="M34.8,58.4c0.1-0.2,0.1-0.8,0-0.9C34.8,57.9,34.8,58.3,34.8,58.4z"/>
						<path fill="#808181" d="M26.5,40.2l0.1,0.2c0-0.1,0-0.2-0.1-0.3L26.5,40.2z"/>
					</g>
				</g>
			</g>
		</g>
	</g>
	<g>
		<g>
			<g>
				<g>
					<g>
						<path fill="#808181" d="M44.5,72.3C44.5,72.3,44.5,72.4,44.5,72.3L44.5,72.3L44.5,72.3z"/>
						<path fill="#808181" d="M44.9,72.3c0.1,0,0.1-0.1,0.1-0.2C44.9,72.2,44.9,72.2,44.9,72.3c-0.1,0-0.2,0-0.2,0
							c0,0-0.1,0-0.1,0.1C44.7,72.4,44.8,72.4,44.9,72.3C44.9,72.3,44.9,72.3,44.9,72.3z"/>
						<path fill="#808181" d="M50.5,70.9L50.5,70.9C50.5,70.9,50.5,70.9,50.5,70.9z"/>
						<path fill="#808181" d="M53.8,69.5C53.8,69.6,53.8,69.6,53.8,69.5C53.8,69.6,53.8,69.5,53.8,69.5z"/>
						<path fill="#808181" d="M54.4,69.3C54.4,69.3,54.3,69.3,54.4,69.3C54.4,69.3,54.4,69.3,54.4,69.3z"/>
						<path fill="#808181" d="M50.5,70.9L50.5,70.9C50.6,70.9,50.5,70.9,50.5,70.9z"/>
						<path fill="#808181" d="M45.6,72C45.6,72,45.6,72,45.6,72L45.6,72L45.6,72z"/>
						<path fill="#808181" d="M49,71.5L49,71.5C49,71.5,49,71.5,49,71.5L49,71.5z"/>
						<path fill="#808181" d="M47.8,71.8C47.9,71.8,47.9,71.8,47.8,71.8C47.9,71.8,47.8,71.8,47.8,71.8
							C47.8,71.8,47.8,71.8,47.8,71.8z"/>
						<path fill="#808181" d="M46,72.2L46,72.2L46,72.2z"/>
						<path fill="#808181" d="M49.8,71.2C49.8,71.2,49.8,71.2,49.8,71.2C49.9,71.2,49.8,71.2,49.8,71.2z"/>
						<path fill="#808181" d="M69.1,45.8L69.1,45.8C69.1,45.8,69.1,45.8,69.1,45.8z"/>
						<polygon fill="#808181" points="69.5,44.4 69.5,44.4 69.5,44.4 						"/>
						<path fill="#808181" d="M55.4,68.8L55.4,68.8C55.4,68.8,55.4,68.8,55.4,68.8z"/>
						<path fill="#808181" d="M63.1,62C63,62.1,63.2,61.8,63.1,62C63,61.9,63,62.1,63.1,62z"/>
						<path fill="#808181" d="M45.7,72L45.7,72C45.7,72,45.7,72,45.7,72z"/>
						<polygon fill="#808181" points="63,61.9 63,61.9 63,62 						"/>
						<path fill="#808181" d="M57.5,67.4C57.5,67.4,57.5,67.4,57.5,67.4C57.5,67.4,57.5,67.4,57.5,67.4z"/>
						<path fill="#808181" d="M55.9,68.4L55.9,68.4C55.9,68.4,55.9,68.4,55.9,68.4z"/>
						<path fill="#808181" d="M58.3,66.7C58.3,66.7,58.3,66.7,58.3,66.7C58.3,66.7,58.3,66.7,58.3,66.7
							C58.3,66.7,58.3,66.7,58.3,66.7z"/>
						<polygon fill="#808181" points="59.1,66.1 59.1,66.1 59.1,66.1 						"/>
						<path fill="#808181" d="M68.6,48.9C68.6,48.8,68.7,48.8,68.6,48.9C68.6,48.8,68.7,48.7,68.6,48.9z"/>
						<path fill="#808181" d="M45.6,72.1C45.7,72,45.7,72,45.6,72.1L45.6,72.1C45.6,72,45.6,72.1,45.6,72.1z"/>
						<path fill="#808181" d="M58.1,66.4l0.1-0.1C58.2,66.3,58.1,66.3,58.1,66.4z"/>
						<path fill="#808181" d="M66.3,55.8L66.3,55.8C66.3,55.8,66.3,55.8,66.3,55.8z"/>
						<path fill="#808181" d="M58.6,66C58.6,66,58.6,65.9,58.6,66C58.7,65.9,58.7,65.9,58.6,66L58.6,66z"/>
						<path fill="#808181" d="M68.7,48.8L68.7,48.8L68.7,48.8z"/>
						<path fill="#808181" d="M68.8,47.7c0,0.2,0.1,0.1,0.1,0.1c0,0.2-0.1,0.1-0.1,0.1c0,0.1,0,0.2,0,0.3c0,0,0,0,0,0
							c0,0.1-0.1,0.4,0,0.5c0,0,0,0,0,0c0,0,0.1,0,0.1,0c0,0.1,0,0.1,0,0.2c0,0,0,0,0-0.1l0,0.1c-0.1,0.1,0-0.1-0.1-0.1
							c0,0.1,0,0.3,0,0.4c-0.1,0,0-0.3-0.1-0.1l0.1-0.2c-0.1,0.1,0-0.1-0.1,0c-0.1,0.2,0,0.2-0.1,0.5c0,0.1,0.1,0,0.1,0.1
							c0,0.3-0.2,0.2-0.2,0.4c0,0.1,0.1,0.1,0,0.3l-0.1-0.1c-0.1,0.2,0.1,0.1,0,0.4c0,0,0-0.2,0-0.1c-0.1,0.1,0,0.1,0,0.2l-0.1,0
							c0,0.2-0.1,0.5-0.1,0.7c0,0,0-0.1-0.1,0c-0.1,0.3-0.2,0.7-0.3,0.9l0,0.1c0,0,0,0,0,0c-0.1,0.1,0,0,0,0.1c0,0.1-0.1,0.1-0.1,0
							c0,0.2-0.1,0.6-0.2,0.8l0,0c-0.1,0.2,0,0.2-0.1,0.4l0,0c-0.2,0.3-0.3,0.8-0.4,1c0.1,0.1-0.2,0.3-0.1,0.4
							c-0.1,0.2-0.1,0.1-0.3,0.4c0,0.1,0,0.1,0,0.2l-0.1,0l0,0.1l-0.1,0l0,0.1c0,0,0.1-0.1,0.1,0c0,0.1-0.2,0.3-0.2,0.3l-0.1,0.3
							c0,0,0-0.1,0-0.1c0,0.2-0.1,0-0.1,0.2c0,0,0,0,0,0c-0.1,0.1-0.1,0.2-0.2,0.4l0,0c-0.1,0.2-0.2,0.5-0.4,0.7
							c0.1-0.1,0.1,0,0.1,0.1l-0.1,0c0,0.1,0.1-0.1,0.1,0.1c-0.1,0.1-0.1,0-0.1,0l0,0.1c0,0,0,0,0-0.1c0,0.1-0.2,0.2-0.1,0.3l0,0
							c-0.1,0.2-0.2,0.4-0.3,0.6c0,0,0,0.1,0,0.2c-0.1,0.1-0.2,0.3-0.3,0.5c-0.1,0.1,0,0.1,0,0.1c0,0-0.2,0.2-0.1,0.1
							c-0.1,0.2-0.2,0.3-0.3,0.6c0,0,0.1,0,0.1,0c0,0.1-0.1,0.1-0.1,0.1l0,0c-0.1,0.3-0.6,0.6-0.7,0.9l0,0l-0.1,0.3
							c-0.1,0.1,0-0.1-0.1,0c-0.1,0.3-0.3,0.4-0.4,0.6c-0.2,0.1-0.4,0.6-0.7,0.7l0,0c0,0.1-0.1,0.1-0.1,0.1c0,0,0.1,0,0.1,0
							c-0.4,0.5-0.9,0.9-1.3,1.3c-0.2,0.1,0,0.2-0.2,0.4l0-0.1c-0.3,0.4-0.7,0.6-0.9,1c0,0,0,0,0-0.1c-0.1,0-0.3,0.2-0.2,0.3
							c-0.1,0,0,0-0.1,0c-0.1,0-0.1,0.2-0.2,0.2c0,0,0,0,0,0c0,0.1-0.2,0.2-0.1,0.2c-0.1,0.1-0.2,0.2-0.3,0.3c0,0.1-0.2,0.2-0.2,0.2
							c0-0.1-0.3,0.1-0.3,0.2c0,0-0.1,0-0.1,0c-0.1,0.1-0.2,0.2-0.1,0.2c-0.2,0-0.3,0.3-0.5,0.3c-0.2,0.3-0.5,0.5-0.8,0.7
							c0-0.1,0.3-0.2,0.2-0.3c-0.2,0.2-0.3,0.4-0.6,0.5c-0.1,0,0-0.1,0-0.1c-0.2,0.2-0.5,0.3-0.7,0.5c0,0,0,0,0,0
							c0,0-0.1,0.1-0.1,0.1l0,0c0.1,0-0.1,0.2-0.1,0.2c0-0.1-0.2,0.1-0.2-0.1c0,0-0.1,0.1,0,0.1c0,0-0.1,0,0,0
							c-0.2,0.1-0.1,0.1-0.2,0.2c0,0,0,0,0-0.1c-0.1,0.1-0.1,0.2-0.2,0.2c0,0,0,0,0,0c-0.2,0.1-0.3,0.3-0.6,0.4c0-0.1-0.1,0-0.1,0
							L54,69.1l0.1,0c-0.1,0.1-0.2,0.2-0.3,0.2l0.1-0.1l-0.2,0.1l0.1,0c-0.1,0.1,0.1,0.1-0.1,0.1c0,0-0.1,0.1-0.2,0l0,0
							c0,0-0.1,0.1-0.2,0.1c0,0,0-0.1,0-0.1c0,0.1-0.3,0.1-0.3,0.2c0,0,0-0.1,0-0.1l0,0.1c-0.1,0-0.1,0-0.1,0
							c-0.2,0.1,0.1,0.1-0.1,0.1c0,0,0,0,0,0c-0.2,0.1-0.4,0.2-0.6,0.3C52,70,52.3,70,52.2,70c-0.3,0.1-0.5,0.3-0.8,0.4l0.1,0
							c0,0.1-0.2,0-0.3,0.1c0,0,0-0.1,0-0.1c-0.2,0.1-0.3,0.2-0.6,0.3l0,0c-0.1,0-0.3,0.1-0.4,0.1c0,0-0.1,0.1,0,0.1
							c-0.4,0-0.6,0.3-1,0.3c0,0,0.1-0.1,0.1,0l-0.3,0.1c0,0,0,0,0.1,0c0,0-0.1,0.1-0.2,0.1c0.1-0.1,0-0.1-0.1-0.1c0,0,0,0,0,0
							c-0.2,0,0,0.1-0.2,0.1l0,0c-0.1,0-0.1,0.1-0.2,0.1c0,0,0.1,0,0.1-0.1c-0.1,0-0.2,0.2-0.3,0.1c0.1,0,0.1,0,0.2-0.1
							c-0.1,0-0.1,0-0.2,0l0,0l-0.2,0l0.1,0c-0.1,0.2-0.3,0.1-0.4,0.2c0.2-0.1,0-0.1,0-0.1c-0.1,0-0.1,0-0.1,0
							c-0.1,0.1-0.2,0-0.3,0.1c0,0-0.1,0-0.1,0c-0.1,0,0,0,0,0.1c-0.2,0.1-0.4,0-0.7,0.2c-0.2,0.1-0.2,0.2-0.4,0.2
							c-0.1,0,0-0.1,0-0.1c-0.1,0-0.2,0-0.3,0.1c0,0,0,0,0,0c-0.1,0,0,0.1-0.2,0.1c0,0,0-0.1,0.1-0.1c-0.1,0-0.2,0.1-0.3,0.1
							c0,0,0.1-0.1,0.1-0.1c-0.1,0-0.3,0.1-0.3,0.1l0.1,0c0,0,0,0,0-0.1c0.1-0.1,0.1,0,0.2,0l-0.1,0c0.1,0.1,0.3-0.1,0.4-0.1l0,0.1
							l0.1-0.1c0,0,0.1,0.1,0,0.1c0.1,0,0.1,0,0.2,0c0,0,0,0,0,0l0.1,0c0,0,0,0.1,0,0.1c0.2,0,0.3-0.1,0.4-0.1l0,0
							c0.3-0.1,0-0.1,0.2-0.2l0.2,0.1l0-0.1c0,0,0.1,0,0.1,0c0.1-0.1,0,0,0-0.1c0.1,0,0.3-0.1,0.4,0c0-0.1-0.1,0,0-0.1
							c0.1,0.1,0.2-0.1,0.3,0c0,0.1-0.1,0.1,0,0.1c0-0.1,0.2,0,0.3-0.1c0-0.1,0.2-0.1,0.4-0.2c0,0,0.3,0,0.5-0.1l0,0
							c0-0.1,0.2-0.1,0.3-0.2c0,0,0,0.1-0.1,0.1l0.1,0c0,0,0-0.1,0.1-0.1l0,0.1c0.1-0.1,0.3-0.2,0.5-0.2c0-0.1-0.2-0.1,0-0.2
							c0,0,0,0.1,0,0.1c0,0,0.1,0,0.1,0l-0.1,0.1c0.1,0,0-0.1,0.1-0.1c0,0,0.1,0,0.1,0c0,0-0.1,0-0.1,0c0.1,0,0.2,0,0.2,0
							c0,0,0,0,0-0.1c0.1-0.1,0.1,0,0.2,0c0,0,0.1,0,0.1-0.1c0,0,0.1,0,0.1,0c0.1,0,0.3-0.1,0.2-0.2l0,0l0,0l0,0l0,0
							c0.2-0.1,0.5-0.1,0.7-0.3l0,0c0.1-0.1,0.3-0.1,0.4-0.2c0,0,0.1,0,0.1,0c0.1-0.1,0.1-0.1,0.3-0.1c-0.1,0.1,0,0-0.1,0.1
							c0.1,0,0.2,0,0.3-0.1c0,0.1,0.1,0,0.2,0l-0.1,0c0.1,0,0.1-0.1,0.2-0.1l0,0.1c0.3,0,0.4-0.4,0.7-0.3c0.1-0.1-0.2,0-0.1,0
							c0.1-0.1,0.3,0,0.3-0.1c0.2-0.1,0.1-0.2,0.3-0.2c0,0-0.1-0.1,0-0.1c0.1-0.1,0.2,0,0.1,0.1c0,0,0,0,0,0c0,0-0.1,0.1,0,0.1l0,0
							c0.1,0,0.2-0.1,0.2,0c0.1-0.1,0-0.1-0.1,0c0.2,0,0.3-0.1,0.4-0.2c0,0-0.1,0,0,0c0.2-0.1,0.1-0.1,0.2-0.2c0.1,0,0,0.1,0.2,0
							c0.1,0,0.1,0,0,0.1c0.1-0.1,0.3-0.1,0.4-0.2L55,69.1c0,0,0.1-0.1,0.1-0.1l-0.1,0c0,0,0.1,0,0.1,0c0-0.1-0.1,0,0-0.1
							c0.1,0,0.2-0.1,0.2-0.1c-0.2,0.1,0.1,0-0.1,0.1c0,0,0.1,0,0.1-0.1c0,0,0,0,0,0c0.2-0.1,0-0.1,0.2-0.2c0,0,0.1,0,0.1,0
							c-0.1,0-0.1,0,0-0.1c0.1,0,0.1-0.1,0.2-0.1l-0.1,0c0,0,0.1-0.1,0.1-0.1c0,0-0.1,0.1,0,0.1c0.1-0.1,0.2-0.1,0.3-0.2
							c0.1,0,0,0.1,0.1,0c0.1-0.1,0.2-0.1,0.3-0.2c-0.1,0-0.1,0,0-0.1l-0.2,0.2l0.1-0.2c-0.1,0-0.1,0.1-0.2,0.1
							c0.1-0.1,0.1-0.1,0-0.1c0.1,0,0.2-0.2,0.3-0.2l0.1,0.1c0.2-0.1,0.3-0.3,0.5-0.4l-0.1,0c0-0.1,0.1-0.1,0.2-0.2c0,0,0.1,0,0.1,0
							c0,0,0.2-0.1,0.1-0.2l0.1,0c0.2-0.1,0.1-0.2,0.3-0.4c0,0.1,0.1,0,0,0.1c0.1,0,0.1-0.1,0.1-0.1c0,0,0.1-0.2,0.2-0.2
							c0,0,0-0.1,0.1-0.1c0,0,0,0,0,0c0,0,0.1-0.1,0-0.1c0.3,0,0.5-0.4,0.7-0.4c0.1-0.1,0.2-0.2,0.3-0.3c0,0,0,0,0,0
							c0.2-0.1,0-0.2,0.2-0.3c0.1,0-0.1,0.1,0,0.1c0.1,0.1,0.2-0.2,0.3-0.2l0,0c0.1,0,0.2-0.2,0.3-0.3c0,0,0,0,0,0
							c0-0.1,0.2-0.3,0.3-0.4c0,0.1,0,0.1,0,0.1c0.1-0.1-0.1,0,0-0.2c0.1,0,0.2-0.1,0.2-0.1l-0.1,0.1c0.1,0,0.1-0.1,0.2-0.2l0,0
							c0.2-0.2,0.1-0.2,0.3-0.4l0,0c0-0.2,0.1-0.1,0.2-0.2l0.1,0c0-0.1,0.2-0.3,0.2-0.4c0,0.1-0.1,0.3-0.2,0.4
							c0.1-0.1,0.2-0.2,0.2-0.3c0,0,0,0.1-0.1,0.1c0-0.1,0.1-0.2,0.2-0.4c0.1,0.1,0.3-0.3,0.5-0.3c0.2-0.3,0.4-0.5,0.6-0.7
							c-0.2,0,0.1-0.1,0-0.1c0-0.1,0.1-0.1,0.1-0.1l0.2-0.2c0.1,0,0,0.1,0,0.1c0.1-0.1,0.1,0,0.2-0.1c0,0,0-0.1,0.1-0.2l-0.1,0.1
							c0.1-0.2,0.2-0.1,0.3-0.4l0,0.1c0.1-0.1,0.3-0.4,0.3-0.6c0,0,0.1,0,0,0c0.2-0.2,0.3-0.6,0.5-0.8l0,0c0-0.1,0-0.1,0.1-0.2
							c0,0,0,0,0,0c0,0,0-0.2,0.1-0.2l0,0.1c0.2-0.2,0.2-0.4,0.3-0.7c0.1,0,0.2-0.2,0.3-0.2l0,0c0.2-0.3,0.3-0.6,0.4-0.9
							c0.2-0.1,0.4-0.6,0.6-0.9c0,0-0.1,0,0-0.1c0.1-0.1,0-0.2,0.1-0.2l0,0c0.1,0,0.1-0.2,0.2-0.3l-0.1-0.1c0.3-0.2,0.3-0.8,0.5-0.9
							c0-0.1,0-0.2,0.1-0.3l0,0c0.1-0.2,0.1-0.3,0.2-0.5l0,0.1c0.1-0.1-0.1-0.2,0-0.4l0.1,0c0.1-0.2,0.3-0.5,0.3-0.7c0,0,0,0,0,0.1
							c0-0.1,0.2-0.4,0.1-0.4c0.1,0,0.1-0.3,0.1-0.4l0,0c0-0.1,0-0.1,0-0.3c0,0,0.1,0,0,0c0.1-0.1,0-0.1,0.1-0.3l0,0.1
							c0-0.1,0-0.1,0-0.2c0-0.1,0.1-0.2,0.1-0.2c0,0,0-0.1,0-0.2c0,0,0,0,0,0c0.1-0.2,0-0.3,0.1-0.5c0,0,0,0,0,0
							c-0.1,0.2-0.1,0.3-0.1,0.3c0,0,0.1-0.1,0.1,0c0-0.1,0-0.3,0-0.5l0,0l0,0c0,0,0-0.1,0-0.1c0,0,0-0.1,0-0.1c0,0,0.1-0.2,0.1-0.2
							c-0.1,0,0-0.1-0.1,0c0,0,0,0,0,0.1c0,0,0,0,0,0l0,0c0,0,0,0.1,0,0.2c0-0.1,0-0.1,0-0.2c0,0,0-0.1-0.1-0.1
							c0.1-0.1,0.2-0.3,0.2-0.3c0-0.2,0.1-0.5,0.1-0.7c0-0.1,0-0.1,0.1-0.1c0,0,0,0.1,0,0.1c0-0.1,0.1-0.4,0-0.4
							c0.1-0.1,0,0.1,0.1-0.1l0,0c0.2-0.4,0-0.7,0.2-1.2c0,0,0,0,0,0.1c0.2-0.5,0.1-1.1,0.3-1.6c0-0.1,0-0.2,0-0.3l0.1,0l0-0.2
							c0-0.2,0.2-0.4,0.1-0.7l0,0c0-0.1,0-0.3,0.1-0.3c0,0,0,0,0-0.1l0,0l0-0.3c0-0.2,0.1,0,0.1-0.2c0-0.1-0.1-0.3-0.1-0.3
							c0,0,0,0.1-0.1,0.1l0-0.1c-0.1,0-0.2-0.1-0.3,0.1l0,0.2l0,0l0-0.1c0,0.1,0,0.1,0,0.2c0,0,0,0-0.1,0.1l0.1,0.2
							c0,0-0.1-0.1-0.1,0c0,0.1,0.1-0.1,0.1,0.1c0,0.1-0.1,0-0.1,0.1c0,0,0,0,0,0c0,0.1,0,0.2,0,0.3c-0.1,0.1,0,0.3-0.1,0.3
							c0,0,0.1,0.2,0,0.2c-0.1-0.2,0,0.3-0.1,0.2c0.1,0.1,0,0.4,0,0.6c0,0,0,0,0,0c0,0.1-0.1,0.1-0.1,0.2c0.1,0,0.1,0.2,0.1,0.3
							c-0.1,0.1-0.1-0.1-0.2-0.1c0.1,0,0,0.2,0.1,0.2c-0.1,0.1,0,0.1-0.1,0.1c0.1,0,0,0.1,0,0.2C68.8,47.8,68.8,47.7,68.8,47.7
							C68.8,47.9,68.8,47.7,68.8,47.7z M68.1,51.3L68.1,51.3C68.1,51.3,68.1,51.3,68.1,51.3C68.1,51.3,68.1,51.3,68.1,51.3z
							 M68,51.6c0,0,0-0.1,0-0.1C68.1,51.5,68.1,51.5,68,51.6C68.1,51.5,68,51.6,68,51.6z M68.5,51.1C68.5,51.1,68.5,51.1,68.5,51.1
							C68.5,51.1,68.5,51.1,68.5,51.1L68.5,51.1C68.5,51.1,68.5,51.1,68.5,51.1z"/>
						<polygon fill="#808181" points="68.5,51 68.5,51 68.5,51 68.5,51 						"/>
						<path fill="#808181" d="M50.4,70.9L50.4,70.9C50.4,70.9,50.4,70.9,50.4,70.9L50.4,70.9z"/>
						<polygon fill="#808181" points="66.4,55.5 66.4,55.5 66.4,55.5 						"/>
						<path fill="#808181" d="M48.8,71.3C48.8,71.3,48.8,71.3,48.8,71.3C48.8,71.3,48.8,71.3,48.8,71.3z"/>
						<path fill="#808181" d="M48.1,71.5l-0.1,0C48,71.5,48,71.5,48.1,71.5z"/>
						<path fill="#808181" d="M47.5,71.6C47.5,71.6,47.5,71.6,47.5,71.6L47.5,71.6L47.5,71.6z"/>
						<path fill="#808181" d="M55.7,68.1L55.7,68.1C55.7,68.1,55.7,68.1,55.7,68.1z"/>
						<path fill="#808181" d="M53.4,69.5C53.4,69.5,53.5,69.4,53.4,69.5C53.4,69.5,53.4,69.5,53.4,69.5z"/>
						<polygon fill="#808181" points="58,66.4 58,66.4 58.1,66.4 						"/>
						<path fill="#808181" d="M53.6,69.4c0,0-0.1,0-0.1,0.1C53.5,69.4,53.6,69.4,53.6,69.4z"/>
						<polygon fill="#808181" points="45.2,72.1 45.1,72.1 45.1,72.1 						"/>
						<path fill="#808181" d="M45.1,72.1L45.1,72.1C45.1,72.1,45.1,72.1,45.1,72.1z"/>
						<path fill="#808181" d="M45,72.2L45,72.2C45.1,72.1,45,72.2,45,72.2z"/>
						<path fill="#808181" d="M45.9,72L45.9,72C45.9,72,45.9,72,45.9,72z"/>
						<path fill="#808181" d="M46.1,71.9c-0.1,0-0.1,0-0.2,0l0,0C45.9,71.9,46.1,72,46.1,71.9z"/>
						<path fill="#808181" d="M47.1,72l-0.2,0c0,0,0.1,0,0,0.1C47.1,72.1,46.8,72,47.1,72z"/>
						<path fill="#808181" d="M47.7,71.8C47.6,71.9,47.7,71.9,47.7,71.8C47.7,71.9,47.7,71.8,47.7,71.8z"/>
						<path fill="#808181" d="M51.7,70.5L51.7,70.5C51.8,70.5,51.7,70.5,51.7,70.5z"/>
						<polygon fill="#808181" points="52.4,69.9 52.3,69.9 52.3,70 						"/>
						<polygon fill="#808181" points="52.9,70.1 52.9,70.1 53,70 						"/>
						<path fill="#808181" d="M59,66.2L59,66.2C58.9,66.2,58.9,66.3,59,66.2z"/>
						<path fill="#808181" d="M61.2,64.1c0,0,0.1-0.1,0.1-0.1C61.3,64,61.2,64,61.2,64.1z"/>
						<polygon fill="#808181" points="66.5,56.5 66.5,56.5 66.6,56.4 						"/>
					</g>
				</g>
			</g>
		</g>
	</g>
</g>
</svg>
