<?xml version="1.0" encoding="utf-8"?>
<!-- Generator: Adobe Illustrator 23.1.0, SVG Export Plug-In . SVG Version: 6.00 Build 0)  -->
<svg version="1.1" id="Capa_1" xmlns="http://www.w3.org/2000/svg" xmlns:xlink="http://www.w3.org/1999/xlink" x="0px" y="0px"
	 viewBox="0 0 89.2 89.2" enable-background="new 0 0 89.2 89.2" xml:space="preserve">
<g>
	<path fill="#F8E8A1" d="M71.2,47.3c1.3-11.6-5.6-23.8-17.2-27.1c0-0.1-0.1-0.2-0.2-0.2c-10.6-3.1-21.9,0.8-28.8,9.1
		c-0.9,1-1.7,2.1-2.4,3.3c-0.1,0-0.2,0.1-0.1,0.2c-0.3,0.4-0.5,0.8-0.7,1.2c-0.1,0-0.1,0.1-0.1,0.1c-1.7,3.1-2.9,6.5-3.3,10.1
		c-0.2,1.5-0.1,2.9,0,4.2c-0.1,0.1,0,0.2,0,0.3c0.5,3.6,2,7,4.2,10.1c3.2,4.7,7.2,8.6,12.5,10.7c0.6,0.2,1.2,0.4,1.8,0.6
		c0,0.1,0.3,0.2,0.4,0.1c4.2,1.3,8.7,1.5,12.9,0.8c5.6-1,10.3-3.4,14-7.7C68,58.8,70.6,53.2,71.2,47.3z"/>
</g>
<g>
	<g>
		<g>
			<g>
				<g>
					<g>
						<path fill="#808181" d="M56.5,37.9c0-0.3-0.1,0.2-0.1-0.2C56.5,37.7,56.6,37.8,56.5,37.9z"/>
						<path fill="#808181" d="M56.3,36.8c-0.5-0.8-0.3-1.9-0.8-2.8c0-0.1,0.2,0,0.1-0.3c-0.6-0.8-0.8-2.2-0.9-3.3l0.1,0
							c0-0.2-0.3-0.4-0.4-0.6c0,0,0.1,0,0.1,0c-0.1,0-0.2-0.3-0.3-0.4c0-0.1,0.1-0.1,0.1-0.3l-0.2-0.1c-0.5-0.2-0.3-0.8-0.7-1.2
							c0,0,0.1,0,0.1,0c-0.5-0.6-0.9-1.5-1.4-2.2c0.1,0,0.2,0,0.2-0.1c-0.2,0-0.3-0.2-0.5-0.3c0.1-0.2-0.3-0.3-0.4-0.5l0,0
							c-0.3-0.1-0.1-0.3-0.3-0.3l0-0.2c-0.2,0.1-0.1-0.3-0.3-0.4l0,0c-0.1-0.1-0.1-0.2-0.2-0.3l0,0c-0.2-0.2-0.3-0.5-0.4-0.3
							c0-0.2,0.2,0.2,0.3-0.1c-0.8-0.8-1.6-1.6-2.5-2.2C48.1,21,48,21,48,20.9c-0.1,0-0.4-0.2-0.5-0.1c0,0,0-0.1-0.1-0.2
							c-0.2-0.1-0.3,0.1-0.5,0c0.1,0,0.1-0.1,0.1-0.1c-0.2,0.1-0.5,0-0.7,0c0,0,0.1,0,0.1-0.1c-0.2,0.2-0.4-0.1-0.7,0.1l0.1-0.1
							c-0.4-0.1-0.1,0.2-0.4,0.2c0.1,0,0-0.1,0-0.1c-0.1,0.1-0.3,0.2-0.4,0.3c-0.2,0.1-0.3,0.2-0.4,0.2c0,0,0,0,0,0
							c-0.2,0.2-0.5,0.3-0.7,0.6c-0.1,0-0.1-0.2-0.4,0c0.2,0.2-0.3,0.4,0,0.5c-0.2,0.2-0.6,0.4-0.6,0.6c0-0.1-0.3-0.1-0.2-0.3
							l-0.2,0.1c-0.1-0.1,0.1-0.1,0-0.1c-0.1,0.1-0.2,0.4-0.3,0.5c0,0.3,0.1,0.5-0.1,0.8c0-0.2-0.2-0.1-0.2-0.2l0.1,0.6
							c0,0.1-0.2-0.1-0.2,0.1c0.1,0,0,0.1,0.1,0.2c0,0-0.2,0.4-0.4,0.4c-0.1,0,0-0.2-0.1-0.1c-0.1,0.2,0,0.2-0.1,0.4l0,0
							c-0.1,0.1-0.1,0.4,0.1,0.3c0-0.1-0.1,0,0-0.1c0.1,0.1,0,0.4-0.1,0.6c0-0.1-0.1-0.1-0.1-0.1c0,0.3,0,0.6-0.1,0.9
							c0.1,0-0.1-0.2-0.1-0.2c-0.3,0.3-0.1,0.8-0.4,1.1c0-0.1,0.1,0,0.1,0c-0.1,0.2-0.2,0.1-0.2,0.3c-0.1,0,0,0.2-0.1,0.3
							c0,0.1-0.1,0,0-0.1c0,0.2-0.1,0.9-0.4,1.3c0.1,0,0.1,0.3,0.1,0.4l-0.1-0.1c-0.1,0.1-0.1,0.3-0.2,0.3c0.1,0.2,0.1-0.8,0.1-0.5
							c-0.1,0,0.1,0.4-0.1,0.3c-0.1,0.2,0,0.4-0.1,0.5c0,0-0.1-0.2-0.2,0c-0.1,0.3,0,0.1,0,0.3l0,0.1c0.1,0-0.1,0.2,0.1,0.2
							c-0.1,0,0,0.4-0.2,0.3l-0.2-0.1c0,0.1,0.1,0.2,0.2,0.3c0,0-0.1,0-0.1,0c0.2,0.1-0.1,0.3,0.1,0.5c-0.1,0.2-0.2,0.6-0.3,0.7
							c0,0.2,0.1,0.4,0,0.6c0,0,0-0.1-0.1-0.1c-0.1,0.1,0,0.2,0,0.3c0,0-0.2,0.2-0.3,0.4c0,0.2,0.2,0.2,0.3,0.2
							c-0.3,0.1,0.1,0.6-0.2,0.7c0-0.1-0.1-0.3-0.2-0.1c-0.3,0.1,0.1,0.4,0,0.6l0.2,0c-0.1,0.1,0.1,0.4-0.1,0.4
							c0.1,0.1-0.1,0.3,0.1,0.3c-0.2,0.4,0,1.1-0.4,1.3c0,0.1,0,0.2,0.1,0.2c0.1-0.1-0.1-0.2,0-0.2c0,0.1,0.1,0.1,0.1,0.1
							c-0.1,0.1-0.1,0.2-0.2,0.1c-0.1,0.3,0.3,0.3,0.2,0.7c-0.1,0-0.1,0-0.1,0.1l0.1,0.2c0,0.3-0.2,0.1-0.3,0.2c0,0.1,0,0.3,0.1,0.4
							l-0.2,0.2c0.1-0.1,0.1,0.1,0.1,0.2l0-0.1c-0.1,0,0,0.2,0,0.3c0.1,0,0.1-0.2,0.1-0.3c0.1,0.1,0.1,0.2,0.2,0.2
							c-0.1,0-0.1,0.2-0.1,0.3c0,0.1,0.1,0.1,0.1,0.1c-0.1,0,0,0.2-0.1,0.1c0,0,0.1-0.1,0-0.2c0,0.1-0.2,0.1,0,0.2
							c0.1,0.1,0.3-0.1,0.2,0.2c0-0.1-0.1-0.1-0.2-0.1l0,0.2l0.1,0c0,0,0,0-0.1,0c0.1,0,0.1,0.3,0.3,0.3c0,0.1,0,0.2,0,0.3l0,0
							c0,0.1,0.1,0.3,0.2,0.4l0,0c0,0.1,0.1,0.2,0.2,0.3c0,0.2-0.4,0.2-0.2,0.4c0.1,0.2,0.3,0.2,0.4,0.1c0.1,0.3,0.4,0.5,0.4,0.9
							c0.1,0,0.1,0,0.2,0c0.2,0.4,0.7,0.7,0.8,1.1c-0.1-0.1-0.1,0.1-0.2,0.1c0.2,0,0,0.2,0.2,0.1c0.1-0.1,0.1-0.1,0.1-0.2
							c0.2,0.1,0.5,0.4,0.6,0.6c0-0.1,0-0.1,0.1-0.1c-0.1,0.1,0,0.3,0.2,0.3l0.1-0.1l0,0.2c0.1,0,0.2-0.1,0.2,0c0,0,0,0.1,0,0.1
							c0.2,0,0.5,0,0.6,0.2l0,0.2c0.1,0,0.2,0,0.1-0.1c0.2,0.2,0.4,0.3,0.4,0.5c0.6-0.1,1.3,0.2,1.9,0.3l0,0.1
							c0.1,0.1,0.1-0.1,0.2-0.1c-0.1,0.1,0.1,0.2-0.1,0.3c0.2,0.1,0.3-0.1,0.5-0.1c0-0.1-0.1,0-0.1-0.1c0,0,0.3,0.2,0.4,0
							c0,0.1,0,0.2-0.1,0.3l0.1-0.1c0.2,0.2-0.4,0.3-0.3,0.6l0.1,0c0.1,0.2-0.4,0.2-0.1,0.3c0.2-0.1,0.3-0.3,0.2-0.4
							c0.3,0,0.2-0.4,0.5-0.3c0.1,0.1-0.3,0-0.2,0.1c0.1,0.1,0.3,0,0.4,0c-0.1-0.1,0-0.2,0.1-0.3c0.2,0.1-0.1,0.2,0.1,0.2
							c0-0.1,0.2-0.2,0.1-0.2c0.1-0.2,0.2,0.1,0.3-0.1c0.1,0.2-0.2,0.4,0,0.4c0-0.1,0.3-0.2,0.1-0.4c0.1,0,0.1,0.1,0.1,0.2
							c0.1,0.1,0.3-0.3,0.4,0l0-0.2c0,0,0.1,0.1,0.2,0.2c0.1,0,0.4-0.3,0.4,0c0,0,0.3-0.1,0.2-0.2c-0.2-0.1-0.2,0.2-0.3,0
							c0.1,0.1,0.2-0.1,0.3-0.2l0,0.1c0,0,0.2-0.1,0.2-0.2c0,0.1,0,0.1,0.1,0.1l0-0.1c0.2-0.1,0.1,0.2,0.3,0.1l-0.1,0.2
							c0,0,0.1,0.1,0.2,0c0-0.1,0-0.3,0-0.4c0.1-0.1,0.1,0.1,0.2,0l-0.1,0.2c0,0,0.2,0.2,0.3,0.1c0.1-0.1,0.2-0.3,0-0.3
							c0.1,0,0.2,0,0.2,0.1c0.2-0.1-0.1-0.1,0-0.3c0.1,0,0.3,0.1,0.5,0.1c0,0.1-0.1,0.2-0.1,0.3l0.1,0C50.8,46.1,51,46,51,46.2
							c0.1,0,0.2-0.1,0.2-0.2c-0.3-0.1,0.1-0.5-0.1-0.7c0.2-0.2,0.5,0.5,0.6-0.1c-0.1,0-0.1-0.3-0.2-0.1c0.2-0.1,0-0.3,0.2-0.3
							c-0.1,0.2,0.3,0.1,0.2,0.4c0-0.1-0.2,0-0.2,0.1c0.1,0,0.1,0.2,0.3,0.1c0.1-0.1,0.2-0.2,0.1-0.3c-0.1-0.1-0.2,0.1-0.2,0
							c0.2-0.2,0.3,0,0.3-0.3c-0.1,0.1-0.2,0-0.3-0.1l0.1-0.2l0,0.1c0.3-0.1,0-0.2,0.2-0.4l0.2,0.1c0.1,0.2-0.4,0.2-0.2,0.4
							c0.2-0.1,0.1-0.3,0.3-0.3c0,0-0.1,0.1-0.1,0.1c0.1,0,0.4,0.2,0.4-0.2c0-0.2,0-0.1-0.1-0.2c0.2-0.2,0.2-0.4,0.3-0.5
							c0.1,0.2,0.2-0.3,0.2,0c-0.1,0-0.4,0.3-0.4,0.5c0.2,0.1-0.2,0.2-0.1,0.4c0.2-0.2,0.3,0,0.5,0.1c0.1,0,0.1-0.1,0.1-0.2
							c-0.1-0.1-0.1-0.1-0.3-0.2c0.2-0.2,0.4-0.4,0.3-0.6c0.1,0,0.2,0.1,0.1,0.2c0.2-0.3,0.4-0.6,0.6-0.8c-0.3,0,0.2-0.3-0.1-0.3
							c-0.1,0.1-0.4,0.1-0.4,0c0.1-0.1,0.1,0.1,0.1,0c0-0.2,0.3-0.1,0.2-0.3c-0.1,0.3,0.2,0.2,0.3,0.3c0-0.2,0.1,0.1,0.2-0.1
							c0-0.3,0.1-0.5,0.2-0.8c0.3-0.2,0.3-0.7,0.4-1c0.1-0.1,0.3,0,0.4-0.1c0.1-0.2-0.3,0.1-0.1-0.2l0,0c0-0.1,0.3-0.5,0-0.6
							l0.2,0.1c0,0,0-0.1,0-0.2c0.1,0,0.1,0,0.2,0.1c0.2-0.1,0-0.4,0.1-0.6l-0.2,0.1c0-0.3,0.1-0.5,0.1-0.9l0.1,0L56,38.6
							c0.1,0.1,0.2-0.1,0.1-0.2c0.1,0.2,0.2,0.3,0.3,0.5c-0.1,0.1-0.1-0.2-0.3-0.1c-0.1,0.1-0.1,0.4,0,0.4c0-0.1,0-0.1,0-0.2
							c0.2,0,0.2,0.2,0.3,0.3c0-0.1,0.1-0.1,0-0.2c0.1,0.1,0.1,0.3,0.1,0.5c-0.1-0.1-0.1,0.1-0.2,0c0.2,0,0.2,0.2,0.1,0.5
							c-0.2,0.1,0,0.5-0.1,0.8c-0.1-0.2-0.2-0.3-0.2-0.5c-0.1,0.2,0,0.2-0.2,0.3c0.1,0.1,0.2,0.2,0.2,0.5l-0.1,0
							c0,0.2,0.2,0.3,0,0.5c-0.2,0.4-0.4,0.9-0.6,1.2l-0.1,0c0.1,0.3-0.3,0.6-0.3,0.9c-0.3,0.3-0.5,0.9-0.8,0.9
							c-0.5,0.6-1,1.2-1.7,1.6l0-0.2c-0.1,0.2-0.1,0-0.2,0.1c0.2,0-0.1,0.3-0.1,0.4c-0.4,0.1-0.7,0.4-1,0.7l-0.1-0.1
							c-0.2,0.3-0.7,0.3-1.1,0.4c-0.1,0-0.2-0.1-0.3-0.1c-0.2,0.3-0.3,0.3-0.6,0.4c-0.2,0.1-0.7,0.1-0.9,0c-0.9,0.4-1.9,0.2-2.9,0.2
							l0-0.1c-1,0.1-2.1-0.5-2.8-0.8l0.2-0.2c-0.2-0.2-0.5-0.2-0.6,0c-0.2-0.2-0.6-0.3-0.6-0.5c-0.2-0.2-0.3-0.1-0.5-0.2
							c-0.4-0.4-0.5-0.5-0.9-0.8l0.1,0.1c0.1,0,0.1-0.1,0.1-0.2c-0.2-0.1-0.4-0.5-0.5-0.2c-0.1-0.3-0.3-0.5-0.6-0.7
							c-0.2-0.2-0.4-0.5-0.4-0.8c0,0.1-0.1,0-0.2,0c-0.2-0.4-0.3-0.9-0.6-1.2c0-0.1,0.2,0.1,0.1-0.1c-0.1-0.1-0.1,0-0.2-0.1
							c-0.4-0.7-0.4-1.5-0.5-2.2c-0.4-1.2-0.2-2.5-0.2-3.6l0.1,0c-0.2-0.4,0.3-0.8,0-1.2c0.1-0.1,0.1-0.3,0.2-0.2
							c-0.1-0.3,0.3-0.8,0.1-1.2c0,0,0,0.1,0,0.1c0.2-0.4,0.1-0.8,0.3-1.2c0,0,0,0.1,0.1,0.2c0.1-0.1-0.1-0.5,0.1-0.5
							c0-0.1-0.1-0.1-0.1,0c0.3-0.9,0.4-2,0.6-3c0.4-0.7,0.5,0.1,0.4-0.5c0.1,0-0.1-0.1,0-0.1c0-0.2,0.4-0.2,0.3-0.4
							c-0.2,0-0.1-0.1-0.1-0.2c0.3-0.4,0.4-0.4,0.4-0.8l0.1,0.1c-0.1-0.5,0.2-0.9,0.1-1.3c0.4-1.1,0.9-2.1,1.5-3.2
							c0.6-1,1.3-2,2.4-2.8c0.6-0.4,1.2-0.7,2-0.8c0.7-0.1,1.5-0.1,2.2,0.2c1.3,0.5,2.3,1.3,3,2.3c0.2,0.6,0.2,0.6,0.7,1
							c0,0-0.1,0-0.1,0c0.2-0.1,0.3,0.3,0.4,0.3c0.5,0.7,0.9,1.4,1.4,2.1c-0.1-0.1-0.3-0.1-0.2,0l0.2,0.1l0,0.1
							c0.1,0.1,0.2,0.1,0.2,0c1.2,1.8,1.7,4,2.4,5.9c0.1,0.5,0.4,1.2,0.6,1.7c0.2,1.6,0.3,3.1,0.7,4.7C57,37.7,56.5,37.5,56.3,36.8z
							"/>
						<path fill="#808181" d="M56.5,38.2c-0.1,0.1-0.1,0.2-0.3,0.1C56.3,38.3,56.4,38.2,56.5,38.2z"/>
						<path fill="#808181" d="M54.4,42.5C54.4,42.6,54.3,42.6,54.4,42.5c-0.1,0-0.1-0.1,0-0.1C54.3,42.5,54.4,42.5,54.4,42.5z"/>
						<path fill="#808181" d="M53.7,43.4c-0.1-0.1,0.1-0.3,0.1-0.4C53.8,43.2,53.7,43.3,53.7,43.4z"/>
						<path fill="#808181" d="M52.7,44c-0.1,0-0.1,0,0-0.1C52.7,43.9,52.7,44,52.7,44z"/>
						<path fill="#808181" d="M52.8,44.2c-0.1,0.1-0.1,0.1-0.2,0.1C52.7,44.3,52.7,44.1,52.8,44.2z"/>
						<path fill="#808181" d="M50.9,45.3c0,0-0.1,0.2-0.2,0.1C50.8,45.4,50.8,45.2,50.9,45.3z"/>
						<path fill="#808181" d="M50,45.9C50,45.9,49.9,45.9,50,45.9C49.8,45.9,49.9,45.8,50,45.9L50,45.9z"/>
						<polygon fill="#808181" points="38.9,34.7 38.9,34.8 38.9,34.8 						"/>
						<path fill="#808181" d="M41.5,25.9c0-0.1,0.1,0,0.1-0.1C41.6,25.9,41.5,25.8,41.5,25.9z"/>
						<polygon fill="#808181" points="43.9,21.6 43.8,21.7 43.7,21.5 						"/>
					</g>
				</g>
			</g>
		</g>
	</g>
	<g>
		<g>
			<g>
				<g>
					<g>
						<path fill="#808181" d="M47.8,43.2C47.8,43.2,47.9,43.2,47.8,43.2L47.8,43.2L47.8,43.2z"/>
						<path fill="#808181" d="M47.9,43c0,0-0.1-0.1-0.1,0C47.8,43,47.8,43,47.9,43C47.9,43.1,47.9,43.1,47.9,43
							c-0.1,0.1-0.1,0.1,0,0.1C47.9,43.1,47.9,43.1,47.9,43C47.9,43,47.9,43,47.9,43z"/>
						<path fill="#808181" d="M47.8,40.4L47.8,40.4C47.8,40.5,47.8,40.4,47.8,40.4z"/>
						<path fill="#808181" d="M47.6,38.8C47.6,38.8,47.6,38.8,47.6,38.8C47.6,38.8,47.6,38.8,47.6,38.8z"/>
						<path fill="#808181" d="M47.7,38.6C47.7,38.6,47.7,38.6,47.7,38.6C47.7,38.6,47.7,38.6,47.7,38.6z"/>
						<path fill="#808181" d="M47.8,40.4L47.8,40.4C47.8,40.4,47.8,40.4,47.8,40.4z"/>
						<path fill="#808181" d="M47.7,42.7C47.7,42.7,47.7,42.7,47.7,42.7L47.7,42.7L47.7,42.7z"/>
						<polygon fill="#808181" points="47.9,41.1 47.9,41.2 47.9,41.2 						"/>
						<path fill="#808181" d="M47.9,41.7C47.9,41.7,47.9,41.7,47.9,41.7C47.9,41.7,47.9,41.7,47.9,41.7
							C47.9,41.7,47.9,41.7,47.9,41.7z"/>
						<path fill="#808181" d="M47.9,42.6L47.9,42.6L47.9,42.6z"/>
						<path fill="#808181" d="M47.9,40.8C47.9,40.8,47.9,40.7,47.9,40.8L47.9,40.8z"/>
						<path fill="#808181" d="M45.9,25.6L45.9,25.6C45.9,25.6,45.9,25.6,45.9,25.6z"/>
						<polygon fill="#808181" points="46.1,24.9 46.2,25 46.2,25 						"/>
						<path fill="#808181" d="M47.7,38L47.7,38C47.7,38.1,47.7,38.1,47.7,38z"/>
						<path fill="#808181" d="M47.2,33.4c0,0.1-0.1-0.1-0.1,0C47.1,33.4,47.2,33.5,47.2,33.4z"/>
						<path fill="#808181" d="M47.7,42.7L47.7,42.7C47.7,42.7,47.7,42.7,47.7,42.7z"/>
						<polygon fill="#808181" points="47.1,33.4 47.1,33.4 47.1,33.5 						"/>
						<path fill="#808181" d="M47.5,36.9C47.5,36.9,47.5,36.9,47.5,36.9C47.5,36.9,47.5,36.9,47.5,36.9z"/>
						<path fill="#808181" d="M47.6,37.8L47.6,37.8C47.6,37.7,47.6,37.8,47.6,37.8z"/>
						<path fill="#808181" d="M47.4,36.5C47.4,36.4,47.4,36.4,47.4,36.5L47.4,36.5C47.4,36.4,47.4,36.4,47.4,36.5z"/>
						<path fill="#808181" d="M47.4,36C47.4,36,47.4,36,47.4,36C47.4,36,47.4,36,47.4,36L47.4,36z"/>
						<path fill="#808181" d="M46.1,27C46.1,27,46.1,27,46.1,27C46.1,27,46.1,26.9,46.1,27z"/>
						<path fill="#808181" d="M47.8,42.7C47.7,42.7,47.7,42.7,47.8,42.7C47.7,42.7,47.7,42.7,47.8,42.7
							C47.7,42.7,47.8,42.7,47.8,42.7z"/>
						<path fill="#808181" d="M47,36.5L47,36.5C47,36.4,47,36.4,47,36.5z"/>
						<path fill="#808181" d="M46.4,30.4L46.4,30.4C46.4,30.3,46.4,30.4,46.4,30.4z"/>
						<path fill="#808181" d="M47,36.2C47,36.2,47,36.1,47,36.2L47,36.2L47,36.2z"/>
						<path fill="#808181" d="M46.2,27L46.2,27L46.2,27z"/>
						<path fill="#808181" d="M46,26.5c0,0.1,0.1,0,0.1,0c0,0.1,0,0-0.1,0.1c0,0.1,0.1,0.1,0.1,0.1c0,0,0,0,0,0c0.1,0,0,0.2,0.1,0.2
							c0,0,0,0,0,0c0,0,0.1,0,0.1,0c0,0,0.1,0.1,0,0.1c0,0,0,0,0,0l0,0c-0.1,0,0,0-0.1,0c0,0.1,0.1,0.1,0.1,0.2c-0.1,0,0-0.1-0.1,0
							l0-0.1c-0.1,0.1,0,0-0.1,0c0,0.1,0,0.1,0,0.2c0,0,0.1,0,0.1,0c0.1,0.1-0.2,0.1-0.1,0.2c0,0,0.1,0,0.1,0.1l-0.1,0
							c0,0.1,0.1,0,0.1,0.2c0,0,0-0.1,0-0.1c-0.1,0.1,0,0,0.1,0.1l-0.1,0c0,0.1,0.1,0.2,0.1,0.3c0,0,0,0-0.1,0c0,0.1,0,0.3,0,0.5
							l0.1,0c0,0,0,0,0,0c0,0.1,0,0,0.1,0c0,0,0,0,0,0c0.1,0.1,0.1,0.3,0.1,0.4l0,0c0,0.1,0.1,0.1,0.1,0.2l0,0c0,0.2,0.1,0.4,0,0.5
							c0.1,0,0,0.2,0.1,0.2c0,0.1-0.1,0.1-0.1,0.2c0,0,0.1,0,0.1,0.1l-0.1,0l0.1,0.1l-0.1,0l0,0c0,0,0,0,0,0c0,0.1,0,0.2-0.1,0.2
							l0.1,0.2c0,0,0,0-0.1,0c0.1,0.1-0.1,0,0,0.1c0,0,0,0,0,0c0,0,0,0.1,0,0.2l0,0c0,0.1,0,0.2,0.1,0.4c0,0,0.1,0,0.1,0l-0.1,0
							c0,0,0,0,0.1,0c0,0-0.1,0-0.1,0l0,0.1c0,0,0,0-0.1,0c0,0-0.1,0.1,0,0.1l0,0c0,0.1,0,0.2,0.1,0.3c0.1,0,0,0,0.1,0.1
							c0,0.1,0,0.2,0,0.3c0,0.1,0,0,0.1,0c0,0,0,0.1-0.1,0.1c0,0.1,0,0.1,0.1,0.3c0,0,0,0,0,0c0,0,0,0.1,0,0.1l0,0
							c0.1,0.2-0.1,0.4,0,0.5l0,0l0.1,0.1c0,0.1,0,0-0.1,0c0.1,0.1,0,0.2,0.1,0.3c-0.1,0.1,0,0.3,0,0.5l0,0c0,0,0,0,0,0.1
							c0,0,0,0,0,0c0.1,0.3,0,0.6,0,0.8c0,0.1,0.2,0,0.1,0.2l-0.1,0c0.1,0.2,0,0.4,0.1,0.6c0,0,0,0,0,0c0,0,0,0.2,0.1,0.2
							c0,0,0,0-0.1,0c0,0,0.1,0.1,0,0.1c0,0,0,0,0,0c0,0,0,0.1,0.1,0.1c0,0.1,0,0.1,0,0.2c0.1,0,0,0.1,0.1,0.1c-0.1,0-0.1,0.1,0,0.2
							c0,0,0,0-0.1,0c0,0.1,0,0.1,0.1,0.1c-0.1,0.1,0.1,0.2,0,0.3c0.1,0.2,0.1,0.3,0.1,0.4c-0.1,0,0-0.2-0.1-0.1
							c0,0.1,0.1,0.2,0.1,0.3c0,0,0,0-0.1,0c0,0.1,0,0.3,0.1,0.4c0,0,0,0,0,0c0,0,0,0.1,0,0.1l0,0c0.1,0,0.1,0.1,0.2,0.1
							c-0.1,0,0,0.1-0.2,0.1c0,0,0,0,0.1,0c0,0,0,0-0.1,0c0,0.1,0.1,0,0.1,0.1c0,0,0,0-0.1,0c0,0,0.1,0.1,0.1,0.1c0,0,0,0,0,0
							c0,0.1,0.1,0.2,0.1,0.3c-0.1,0,0,0-0.1,0.1l0,0.1l0,0c0,0.1,0.1,0.1,0,0.2l0,0l0,0.1l0-0.1c0,0.1,0.1,0,0.1,0.1
							c0,0,0,0.1,0,0.1l0,0c0,0,0.1,0.1,0,0.1c0,0-0.1,0-0.1,0c0.1,0,0,0.1,0.1,0.2c0,0-0.1,0-0.1,0l0.1,0c0,0,0,0-0.1,0
							c0,0.1,0.1,0,0.1,0.1c0,0,0,0,0,0c0,0.1,0,0.2,0,0.3c-0.1,0,0-0.1-0.1,0c0,0.1,0.1,0.3,0.1,0.4l0,0c0.1,0,0,0.1,0,0.2
							c0,0-0.1,0,0,0c0,0.1,0,0.2,0.1,0.3l0,0c0,0.1,0,0.1,0,0.2c0,0,0,0,0.1,0c-0.1,0.2,0.1,0.3,0,0.5c0,0,0,0,0,0l0,0.1
							c0,0,0,0,0.1,0c0,0,0.1,0,0.1,0.1c0-0.1-0.1,0-0.1,0c0,0,0,0,0,0c-0.1,0.1,0.1,0,0,0.1l0,0c0,0,0,0.1,0,0.1c-0.1,0,0,0-0.1,0
							c0,0.1,0.1,0.1,0.1,0.1c0,0,0-0.1,0-0.1c-0.1,0.1,0,0.1,0,0.1l0,0l0,0.1l0,0c0.1,0.1,0,0.1,0.1,0.2c-0.1-0.1,0,0-0.1,0
							c0,0,0,0.1,0,0.1c0.1,0,0,0.1,0,0.1c0,0,0,0,0,0c0,0.1,0,0,0.1,0c0.1,0.1-0.1,0.2,0,0.3c0,0.1,0.1,0.1,0.2,0.2
							c0,0-0.1,0-0.1,0c0,0.1,0,0.1,0,0.1c0,0,0,0,0,0c0,0,0.1,0,0,0.1c0,0-0.1,0-0.1,0c0,0,0.1,0.1,0.1,0.1c0,0-0.1,0-0.1,0
							c0,0.1,0,0.1,0.1,0.1l0,0c0,0,0,0-0.1,0c0,0,0-0.1,0-0.1l0,0c0.1,0,0-0.1,0-0.2l0.1,0l-0.1-0.1c0,0,0.1,0,0.1,0
							c0-0.1,0,0,0-0.1c0,0,0,0,0,0l0,0c0,0,0.1,0,0,0c0-0.1-0.1-0.1,0-0.2l0,0c0-0.1-0.1,0-0.1-0.1l0.1-0.1l-0.1,0c0,0,0,0,0,0
							c0,0,0,0-0.1,0c0-0.1,0-0.2,0.1-0.2c0,0,0,0.1-0.1,0c0.1,0,0-0.1,0-0.1c0.1,0,0,0.1,0.1,0c-0.1,0,0-0.1,0-0.2
							c-0.1,0,0-0.1-0.1-0.2c0,0,0-0.1,0-0.2l0,0c-0.1,0-0.1-0.1-0.1-0.1c0,0,0.1,0,0.1,0l0,0c0,0,0,0,0-0.1l0.1,0
							c0-0.1-0.1-0.1,0-0.2c0,0-0.1,0.1-0.2,0c0,0,0.1,0,0.1,0c0,0,0,0,0,0l0,0c0,0,0,0,0,0c0,0,0,0,0.1,0c0,0,0,0,0,0
							c0,0,0-0.1,0-0.1c0,0-0.1,0-0.1,0c0-0.1,0,0,0.1-0.1c0,0,0-0.1-0.1-0.1c0,0,0,0,0,0c0,0,0-0.2-0.1-0.1l0,0l0,0l0,0l0,0
							c-0.1-0.1,0-0.2,0-0.3l0,0c0-0.1,0-0.1-0.1-0.2c0,0,0,0,0.1,0c0,0,0-0.1,0-0.1c0,0,0,0,0,0.1c0-0.1,0-0.1,0-0.2
							c0.1,0,0.1-0.1,0-0.1l0,0c0,0,0-0.1,0-0.1l0.1,0c0.1-0.1-0.2-0.2,0-0.3c0,0,0,0.1-0.1,0c0-0.1,0.1-0.1,0.1-0.2
							c0-0.1-0.1-0.1-0.1-0.2c0,0-0.1,0-0.1,0c0-0.1,0.1-0.1,0.1,0c0,0,0,0,0,0c0,0,0,0,0,0l0,0c0,0,0-0.1,0-0.1c0,0,0,0,0,0
							c0-0.1,0-0.1,0-0.2c0,0,0,0,0,0c0-0.1,0,0-0.1-0.1c0,0,0.1,0,0-0.1c0-0.1,0.1,0,0.1,0c-0.1-0.1,0-0.1,0-0.2l0,0c0,0,0,0,0-0.1
							l0,0c0,0,0,0,0,0c0,0-0.1,0-0.1,0c0,0,0-0.1,0-0.1c0,0.1,0.1,0,0.1,0.1c0,0,0,0,0-0.1c0,0,0,0,0,0c0-0.1-0.1,0-0.1-0.1
							c0,0,0.1,0,0.1,0c0,0-0.1,0-0.1,0c0-0.1,0-0.1,0-0.1l0,0c0,0,0,0,0-0.1c0,0,0,0,0,0c-0.1,0,0.1-0.1,0-0.2c0,0,0.1,0,0.1,0
							c-0.1-0.1,0-0.1,0-0.2c0,0,0,0-0.1,0l0,0.1l-0.1-0.1c0,0,0,0.1,0,0.1c0,0,0,0-0.1,0c0.1-0.1-0.1-0.1,0-0.2l0.1,0
							c0-0.1-0.1-0.2-0.1-0.3l0,0c0,0,0-0.1,0-0.1c0,0,0,0,0.1,0c0,0,0-0.1-0.1-0.1l0-0.1c0-0.1-0.1-0.1-0.1-0.2c0,0,0.1,0,0.1,0
							c0,0,0-0.1,0-0.1c0,0-0.1-0.1,0-0.1c0,0-0.1,0-0.1,0c0,0,0,0,0,0c0,0,0-0.1-0.1,0c0.1-0.1,0-0.3,0.1-0.4c0-0.1,0-0.1,0-0.2
							c0,0,0,0,0,0c0-0.1-0.1,0-0.1-0.1c0.1-0.1,0,0,0.1,0c0.1,0,0-0.1,0-0.2l0,0c0-0.1-0.1-0.1-0.1-0.2c0,0,0,0,0,0
							c-0.1,0-0.1-0.2-0.1-0.2c0.1,0,0,0,0.1,0c0,0-0.1,0-0.1-0.1c0,0,0-0.1,0.1-0.1l0,0.1c0.1,0,0-0.1,0-0.1l0,0
							c0-0.1-0.1-0.1-0.1-0.2l0,0c-0.1-0.1,0-0.1,0-0.1l0.1,0c0,0-0.1-0.1-0.1-0.2c0.1,0,0.1,0.1,0.1,0.2c0,0,0-0.1-0.1-0.1
							c0,0,0,0,0,0c-0.1,0-0.1-0.1-0.1-0.2c0.1,0,0-0.2,0.1-0.3c-0.1-0.1,0-0.3,0-0.4c-0.1,0.1,0,0-0.1,0c0,0,0-0.1,0-0.1l0.1-0.1
							c0,0,0,0,0.1,0c0-0.1,0,0,0.1-0.1c0,0-0.1,0-0.1-0.1l0,0.1c-0.1-0.1,0.1-0.1,0-0.2l0,0c0-0.1,0-0.2-0.1-0.3c0,0,0,0,0.1,0
							c0-0.1-0.1-0.3-0.1-0.4l0,0c0,0-0.1,0,0-0.1c0,0,0,0,0,0c0,0-0.1-0.1,0-0.1l0,0c0-0.1-0.1-0.2-0.1-0.3c0.1,0,0.1-0.1,0.1-0.2
							l0,0c0-0.2-0.1-0.3-0.1-0.4c0.1-0.1,0-0.3,0-0.5c0,0-0.1,0-0.1,0c0,0-0.1-0.1,0-0.1l0,0c0.1,0,0-0.1,0-0.2l-0.1,0
							c0.1-0.2-0.1-0.4,0-0.5c0,0,0-0.1-0.1-0.1l0.1,0c0-0.1,0-0.1,0-0.3l0,0c0-0.1-0.2-0.1-0.2-0.1l0.1,0c0-0.1,0-0.2,0-0.4
							c0,0,0,0,0,0c0-0.1,0-0.2-0.1-0.2c0.1,0,0-0.1,0-0.2l0.1,0c-0.1,0-0.1,0-0.1-0.1c0,0,0,0,0,0c0-0.1-0.1,0,0-0.1l0,0
							c0-0.1,0-0.1-0.1-0.1c0,0,0-0.1,0-0.1c0,0-0.1,0-0.1-0.1c0,0,0,0,0,0c0-0.1-0.1-0.1,0-0.2c0,0,0,0,0,0c0,0.1,0,0.1,0,0.1
							c0,0,0.1-0.1,0.1,0c0,0-0.1-0.1-0.1-0.2c0,0,0,0,0,0l0,0c0,0,0,0,0,0c0,0,0,0,0-0.1c0,0,0-0.1,0-0.1c-0.1,0,0,0-0.1,0
							c0,0,0,0,0,0c0,0,0,0,0,0l0,0c0,0,0,0.1,0,0.1c0,0-0.1,0,0-0.1c0,0-0.1,0-0.1,0c0.1-0.1,0.1-0.1,0.1-0.2c0-0.1,0-0.2-0.2-0.3
							c0,0,0,0,0,0c0,0,0,0,0,0c0-0.1,0-0.2-0.1-0.2c0-0.1,0.1,0,0-0.1l0,0c0.1-0.2-0.2-0.3-0.1-0.5c0,0,0,0,0,0
							c0-0.3-0.1-0.5,0-0.8c0-0.1,0-0.1-0.1-0.1l0.1,0l-0.1-0.1c-0.1-0.1,0.1-0.2,0-0.3l0,0c0,0,0-0.1,0-0.1c0,0,0,0,0,0l0,0
							l-0.1-0.1c0-0.1,0.1,0,0.1-0.1c0,0-0.1-0.1-0.1-0.1c0,0,0,0.1,0,0.1l0,0c-0.1,0-0.2,0-0.2,0.1l0.1,0.1l0,0l0-0.1
							c0,0,0,0.1,0,0.1c0,0,0,0,0,0l0.1,0.1c0,0-0.1,0-0.1,0c0,0,0.1,0,0.1,0c0,0-0.1,0,0,0.1c0,0,0,0,0,0c0,0,0,0.1,0.1,0.1
							c0,0,0,0.1-0.1,0.1c0,0,0.1,0.1,0.1,0.1c-0.1-0.1,0,0.1-0.1,0.1c0.1,0,0.1,0.2,0.1,0.2c0,0,0,0,0,0c0,0,0,0.1,0,0.1
							c0.1,0,0.1,0.1,0.2,0.1c-0.1,0.1-0.1,0-0.2,0c0.1,0,0.1,0.1,0.1,0.1c0,0,0,0-0.1,0.1c0.1,0,0,0,0.1,0.1
							C46.1,26.5,46,26.5,46,26.5C46,26.6,46,26.5,46,26.5z M46.3,28.1L46.3,28.1C46.3,28.1,46.3,28.1,46.3,28.1
							C46.3,28.1,46.3,28.1,46.3,28.1z M46.3,28.3C46.3,28.3,46.3,28.2,46.3,28.3C46.3,28.2,46.4,28.2,46.3,28.3
							C46.3,28.2,46.3,28.3,46.3,28.3z M46.7,28C46.7,28,46.7,28,46.7,28C46.7,28,46.6,28,46.7,28L46.7,28
							C46.6,27.9,46.7,27.9,46.7,28z"/>
						<path fill="#808181" d="M46.6,27.9L46.6,27.9C46.6,27.9,46.6,27.9,46.6,27.9L46.6,27.9L46.6,27.9z"/>
						<polygon fill="#808181" points="47.8,40.5 47.8,40.5 47.7,40.5 						"/>
						<polygon fill="#808181" points="46.4,30.2 46.4,30.2 46.4,30.2 						"/>
						<path fill="#808181" d="M47.6,41.2C47.6,41.2,47.6,41.2,47.6,41.2C47.6,41.3,47.6,41.2,47.6,41.2z"/>
						<path fill="#808181" d="M47.7,41.6L47.7,41.6C47.7,41.6,47.7,41.6,47.7,41.6z"/>
						<path fill="#808181" d="M47.7,41.8C47.7,41.8,47.7,41.8,47.7,41.8L47.7,41.8L47.7,41.8z"/>
						<path fill="#808181" d="M47.2,37.8C47.2,37.8,47.2,37.8,47.2,37.8C47.2,37.8,47.2,37.8,47.2,37.8z"/>
						<path fill="#808181" d="M47.4,39C47.4,39,47.4,39,47.4,39C47.4,39,47.4,39,47.4,39z"/>
						<polygon fill="#808181" points="47,36.5 47,36.5 47,36.5 						"/>
						<path fill="#808181" d="M47.4,38.9C47.4,38.9,47.4,38.9,47.4,38.9C47.4,38.9,47.4,38.9,47.4,38.9z"/>
						<polygon fill="#808181" points="47.7,42.9 47.7,42.9 47.8,42.9 						"/>
						<path fill="#808181" d="M47.8,42.9L47.8,42.9C47.8,42.9,47.8,42.9,47.8,42.9z"/>
						<path fill="#808181" d="M47.8,43L47.8,43C47.8,43,47.8,43,47.8,43z"/>
						<path fill="#808181" d="M47.7,42.6L47.7,42.6C47.7,42.6,47.7,42.6,47.7,42.6z"/>
						<path fill="#808181" d="M47.7,42.5C47.7,42.5,47.7,42.5,47.7,42.5L47.7,42.5C47.7,42.6,47.8,42.5,47.7,42.5z"/>
						<path fill="#808181" d="M47.9,42L47.9,42C47.9,42.1,48,42.1,47.9,42C48,42,47.9,42.2,47.9,42z"/>
						<path fill="#808181" d="M47.9,41.8C47.9,41.8,48,41.8,47.9,41.8C47.9,41.7,47.9,41.7,47.9,41.8z"/>
						<path fill="#808181" d="M47.7,39.9L47.7,39.9C47.8,39.8,47.8,39.9,47.7,39.9z"/>
						<polygon fill="#808181" points="47.4,39.5 47.4,39.6 47.5,39.6 						"/>
						<polygon fill="#808181" points="47.8,39.3 47.8,39.3 47.8,39.2 						"/>
						<path fill="#808181" d="M47.4,36.1L47.4,36.1C47.4,36.1,47.5,36.1,47.4,36.1z"/>
						<path fill="#808181" d="M47.2,34.7C47.3,34.7,47.3,34.6,47.2,34.7C47.3,34.6,47.2,34.7,47.2,34.7z"/>
						<polygon fill="#808181" points="46.9,30.5 46.9,30.5 46.9,30.5 						"/>
					</g>
				</g>
			</g>
		</g>
	</g>
	<g>
		<g>
			<g>
				<g>
					<g>
						<path fill="#808181" d="M72.8,64.6c0.1-0.3-0.2,0.1,0-0.2C72.9,64.5,72.9,64.6,72.8,64.6z"/>
						<path fill="#808181" d="M73.1,63.6c-0.1-0.9,0.5-1.9,0.4-2.9c0-0.1,0.2,0.1,0.2-0.2c-0.2-0.9,0.2-2.3,0.6-3.3l0.1,0.1
							c0.1-0.2-0.1-0.5-0.1-0.7c0,0,0.1,0.1,0.1,0c-0.1-0.1,0-0.4-0.1-0.5c0.1-0.1,0.2-0.1,0.2-0.2l-0.1-0.1
							c-0.4-0.4,0.1-0.8-0.1-1.3c0,0,0.1,0.1,0.1,0c-0.2-0.8-0.2-1.7-0.3-2.6c0.1,0,0.2,0.1,0.2,0c-0.2,0-0.2-0.3-0.3-0.5
							c0.2-0.1-0.2-0.4-0.1-0.6l0,0c-0.2-0.2,0.1-0.3-0.2-0.4l0.1-0.1c-0.2-0.1,0.1-0.3-0.1-0.4l0,0c-0.1-0.1,0-0.2,0-0.4l0,0
							c-0.1-0.3,0-0.5-0.2-0.5c0.1-0.1,0.1,0.3,0.3,0.1c-0.4-1-0.7-2.1-1.3-3.1c0-0.1,0-0.2,0-0.3c-0.1-0.1-0.3-0.3-0.4-0.3
							c0,0,0-0.1,0-0.2c-0.1-0.2-0.3,0-0.4-0.2c0.1,0,0.2,0,0.2-0.1c-0.2,0-0.4-0.2-0.6-0.3c0,0,0.1,0,0.1-0.1
							c-0.3,0-0.4-0.3-0.6-0.2l0.1-0.1c-0.3-0.2-0.2,0.2-0.4,0c0.1,0,0.1-0.1,0.1-0.1c-0.2,0.1-0.3,0.1-0.5,0.1c-0.2,0-0.4,0-0.5,0
							c0,0,0,0,0,0c-0.3,0-0.6,0-0.9,0.2c-0.1,0,0-0.3-0.3-0.1c0.1,0.2-0.5,0.2-0.2,0.4c-0.3,0.1-0.7,0.1-0.8,0.3
							c0.1-0.1-0.2-0.2,0-0.3l-0.2,0c0-0.1,0.2,0,0.1-0.1c-0.1,0.1-0.4,0.3-0.5,0.3c-0.1,0.2-0.2,0.5-0.4,0.7
							c0.1-0.2-0.2-0.2-0.1-0.2L66,45.9c-0.1,0.1-0.1-0.1-0.2,0c0,0,0,0.1,0,0.2c0,0-0.4,0.3-0.5,0.2c-0.1,0,0.1-0.1,0-0.1
							c-0.2,0.1-0.1,0.2-0.3,0.3l0,0c-0.1,0.1-0.3,0.3-0.1,0.3c0.1-0.1-0.1-0.1,0-0.1c0,0.2-0.2,0.3-0.3,0.5c0-0.1,0-0.1,0-0.2
							c-0.1,0.3-0.3,0.5-0.5,0.8c0.1,0.1,0-0.2,0-0.2c-0.4,0.1-0.5,0.7-0.9,0.8c0-0.1,0.1,0.1,0.1,0.1c-0.1,0.1-0.2,0-0.3,0.1
							c-0.1-0.1-0.1,0.1-0.2,0.2c0,0.1-0.1,0,0-0.1c-0.1,0.2-0.5,0.8-0.9,1c0,0,0,0.3-0.1,0.4l-0.1-0.1c-0.1,0-0.2,0.2-0.3,0.2
							c0,0.3,0.4-0.7,0.3-0.4c-0.1,0-0.1,0.4-0.2,0.3c-0.1,0.1-0.1,0.4-0.4,0.4c0.1,0,0-0.2-0.1-0.1c-0.2,0.2,0,0.1-0.1,0.3L61,50.6
							c0.1,0.1-0.2,0.2,0,0.2c-0.1,0-0.2,0.3-0.4,0.2l-0.1-0.1c-0.1,0.1,0,0.3,0,0.4c0,0-0.1,0-0.1,0c0.2,0.2-0.2,0.2-0.1,0.4
							c-0.2,0.1-0.4,0.5-0.6,0.5c-0.1,0.2-0.1,0.4-0.3,0.5c0,0,0-0.1,0-0.1c-0.1,0.1-0.1,0.1-0.2,0.3c0,0-0.3,0.1-0.4,0.2
							c-0.1,0.2,0.1,0.2,0.2,0.3c-0.3,0-0.2,0.5-0.5,0.6c0-0.1,0.1-0.3-0.1-0.2c-0.3,0-0.1,0.4-0.3,0.6l0.2,0.1
							c-0.2,0-0.1,0.4-0.3,0.3c0,0.1-0.2,0.2,0,0.3c-0.4,0.3-0.5,1-1,1c0,0.1-0.1,0.2,0,0.2c0.2,0,0-0.2,0.1-0.2c0,0.1,0,0.1,0,0.1
							c-0.1,0.1-0.2,0.2-0.3,0c-0.3,0.2,0.2,0.5-0.1,0.8c-0.1-0.1-0.1,0-0.1,0.1l0,0.3c-0.1,0.2-0.2,0-0.4,0c0,0.1-0.1,0.3,0,0.4
							l-0.2,0.1c0.2-0.1,0,0.1,0.1,0.2l0-0.1c-0.1,0-0.1,0.2-0.1,0.2c0.1,0,0.2-0.1,0.2-0.2c0,0.1,0,0.2,0,0.3
							c-0.1-0.1-0.2,0.2-0.2,0.3c-0.1,0.1,0.1,0.2,0.1,0.2c-0.1,0-0.1,0.2-0.1,0.1c0,0,0.1-0.1,0-0.2c-0.1,0.1-0.2,0-0.1,0.2
							c0,0.1,0.3,0,0.1,0.2c0-0.1-0.1-0.1-0.1-0.2l-0.1,0.2l0.1,0c0,0,0,0-0.1,0c0.1,0.1,0,0.3,0.1,0.4c0,0.1-0.1,0.2-0.2,0.3l0,0
							c-0.1,0.1-0.1,0.3,0,0.4l0,0c0,0.1,0,0.2,0.1,0.3c-0.1,0.2-0.5,0-0.3,0.2c0,0.2,0.2,0.3,0.3,0.2c-0.1,0.3,0.1,0.7,0,1
							c0.1,0,0.1,0,0.1,0.1c0,0.5,0.3,0.9,0.2,1.4c-0.1-0.1-0.1,0-0.2,0.1c0.1,0.1-0.1,0.2,0.1,0.1c0.1,0,0.2-0.1,0.2-0.2
							c0.2,0.2,0.3,0.6,0.3,0.8c0-0.1,0.1-0.1,0.1,0c-0.2,0.1-0.1,0.3,0,0.4l0.1,0l-0.1,0.1c0.1,0,0.2,0,0.2,0.1
							c0,0-0.1,0.1-0.1,0.1c0.2,0.1,0.4,0.2,0.4,0.4l-0.1,0.2c0.1,0.1,0.2,0.1,0.2,0c0.1,0.3,0.2,0.5,0.1,0.6
							c0.6,0.2,1.1,0.7,1.5,1.1l-0.1,0.1c0.1,0.2,0.2-0.1,0.2,0c-0.1,0,0,0.2-0.2,0.2c0.1,0.2,0.3,0.1,0.5,0.1c0.1-0.1-0.1,0,0-0.1
							c0,0,0.2,0.3,0.3,0.1c0,0.1-0.1,0.2-0.2,0.2l0.2,0c0,0.3-0.5,0.1-0.5,0.4l0.1,0c0,0.2-0.4,0-0.2,0.2c0.2,0,0.4-0.1,0.3-0.3
							c0.3,0.1,0.3-0.3,0.6-0.1c0,0.1-0.2-0.1-0.2,0c0.1,0.2,0.3,0.1,0.4,0.2c-0.1-0.1,0.1-0.2,0.2-0.2c0.1,0.1-0.2,0.1,0,0.2
							c0.1-0.1,0.3,0,0.2-0.2c0.2-0.2,0.2,0.2,0.4,0.1c0,0.2-0.4,0.2-0.2,0.4c0-0.1,0.4-0.1,0.3-0.3c0.1,0.1,0,0.2-0.1,0.2
							c0.1,0.1,0.4-0.1,0.4,0.2l0.1-0.1c0,0.1,0.1,0.1,0.1,0.2c0.1,0.1,0.4-0.1,0.4,0.1c0,0,0.3,0.1,0.2-0.1
							c-0.1-0.1-0.2,0.1-0.3-0.2c0.1,0.2,0.2,0,0.4,0l0,0.1c0.1,0,0.2,0,0.2-0.1c-0.1,0,0,0.1,0,0.1l0.1-0.1c0.2,0,0,0.2,0.2,0.2
							l-0.2,0.1c0,0,0.1,0.1,0.2,0.1c0.1-0.1,0.2-0.3,0.2-0.3c0.1,0,0,0.1,0.2,0l-0.2,0.1c0,0,0.1,0.2,0.3,0.2
							c0.1,0,0.3-0.2,0.1-0.3c0.1,0,0.2,0.1,0.1,0.2c0.2,0,0-0.1,0.2-0.2c0.1,0.1,0.3,0.2,0.4,0.3c-0.1,0.1-0.1,0.1-0.2,0.2l0.1,0
							c-0.2,0.2,0.1,0.1,0,0.3c0.1,0,0.2,0,0.3-0.1c-0.3-0.3,0.3-0.4,0.2-0.7c0.3-0.1,0.3,0.6,0.6,0.2c-0.1-0.1,0.1-0.3-0.1-0.2
							c0.2,0,0.1-0.3,0.3-0.2c-0.2,0.1,0.2,0.2,0,0.4c0-0.1-0.2,0-0.2,0c0.1,0.1,0,0.3,0.2,0.2c0.1,0,0.3-0.1,0.3-0.2
							c0-0.1-0.2,0-0.1-0.1c0.2-0.1,0.3,0.1,0.4-0.2c-0.2,0.1-0.2-0.1-0.2-0.2l0.2-0.1l0,0.1c0.3,0,0-0.2,0.3-0.2l0.2,0.2
							c0,0.2-0.4,0-0.3,0.3c0.2,0,0.2-0.2,0.4-0.2c0,0-0.1,0.1-0.1,0.1c0.1,0,0.2,0.3,0.4,0c0.1-0.1,0-0.1,0-0.2
							c0.3-0.1,0.3-0.3,0.5-0.3c0,0.2,0.3-0.1,0.2,0.1c-0.1,0-0.5,0.1-0.6,0.3c0.2,0.2-0.2,0.1-0.2,0.3c0.2-0.1,0.3,0.1,0.4,0.3
							c0.1,0,0.1-0.1,0.2-0.1c0-0.1-0.1-0.1-0.2-0.2c0.3-0.1,0.5-0.2,0.6-0.4c0.1,0,0.1,0.2,0,0.2c0.3-0.2,0.6-0.3,0.9-0.5
							c-0.3-0.1,0.3-0.2,0.1-0.3c-0.2,0-0.4,0-0.4-0.2c0.1,0,0,0.1,0.1,0.1c0-0.2,0.3,0.1,0.3-0.2c-0.2,0.2,0.1,0.3,0.2,0.4
							c0.1-0.2,0.1,0.1,0.3,0c0.1-0.2,0.3-0.4,0.5-0.6c0.3-0.1,0.6-0.5,0.8-0.7c0.2,0,0.2,0.2,0.4,0.1c0.1-0.1-0.3,0,0-0.2l0,0
							c0-0.1,0.5-0.3,0.3-0.6l0.1,0.2c0,0,0-0.1,0-0.1c0.1,0,0.1,0,0.1,0.1c0.2,0,0.2-0.3,0.3-0.5l-0.2,0c0.1-0.3,0.3-0.4,0.4-0.7
							l0.1,0.1l0-0.2c0.1,0.1,0.2,0,0.2-0.2c0,0.2,0,0.4,0,0.6c-0.1,0.1-0.1-0.2-0.2-0.2c-0.1,0-0.3,0.3-0.2,0.4
							c0.1-0.1,0.1-0.1,0.1-0.2c0.2,0.1,0.1,0.2,0.1,0.3c0-0.1,0.1-0.1,0.1-0.1c0,0.1,0,0.3-0.1,0.4c0-0.2-0.1,0-0.1-0.1
							c0.1,0.1,0,0.3-0.1,0.5c-0.3,0-0.2,0.5-0.4,0.6c0-0.2,0-0.4,0-0.6c-0.2,0.1-0.1,0.2-0.3,0.2c0,0.1,0.1,0.3,0,0.5L71,67.3
							c-0.1,0.2,0,0.3-0.2,0.5c-0.4,0.3-0.8,0.6-1.1,0.8l-0.1-0.1c0,0.3-0.5,0.4-0.7,0.7c-0.4,0.1-0.9,0.5-1.1,0.5
							c-0.7,0.4-1.4,0.7-2.2,0.7l0.1-0.2c-0.1,0.1-0.1-0.1-0.2,0c0.2,0.1-0.2,0.2-0.3,0.3c-0.4-0.1-0.9,0.1-1.2,0.2l0-0.1
							c-0.4,0.2-0.8,0-1.2-0.1c0-0.1-0.1-0.2-0.2-0.2c-0.3,0.2-0.4,0.1-0.7,0.1c-0.2,0-0.6-0.2-0.8-0.4c-1-0.1-1.8-0.7-2.6-1.1
							l0-0.2c-1-0.3-1.6-1.4-2.2-2l0.2-0.1c-0.1-0.2-0.4-0.4-0.5-0.3c-0.1-0.3-0.4-0.5-0.3-0.7c-0.1-0.2-0.2-0.2-0.4-0.4
							C55,64.7,55,64.5,54.7,64l0,0.1c0.1,0,0.2,0,0.1-0.1c-0.1-0.1-0.1-0.7-0.4-0.4c0-0.3-0.1-0.6-0.2-0.9
							c-0.1-0.3-0.1-0.6-0.1-0.9c-0.1,0.1-0.1-0.1-0.2-0.1c0-0.5,0.1-1,0-1.3c0-0.1,0.1,0.1,0.1-0.1c0-0.1-0.1,0-0.1-0.1
							c-0.1-0.8,0.3-1.5,0.5-2.2c0.2-1.2,0.9-2.3,1.4-3.3l0,0c0-0.4,0.6-0.6,0.5-1c0.1,0,0.2-0.3,0.3-0.1c0-0.3,0.6-0.6,0.7-1
							c0,0,0,0.1,0,0.1c0.4-0.3,0.4-0.7,0.8-1c0,0.1,0,0.1,0,0.2c0.2-0.1,0.1-0.5,0.3-0.4c0.1-0.1-0.1-0.1-0.1-0.1
							c0.7-0.7,1.2-1.6,1.9-2.4c0.6-0.4,0.4,0.3,0.6-0.3c0.1,0-0.1-0.1,0-0.1c0.1-0.2,0.5,0,0.5-0.2c-0.2-0.1,0-0.1-0.1-0.2
							c0.4-0.2,0.6-0.2,0.7-0.5l0,0.1c0.1-0.5,0.6-0.7,0.7-1.1c0.9-0.8,1.7-1.5,2.7-2.2c1-0.7,2.1-1.2,3.4-1.5
							c0.7-0.1,1.4-0.1,2.1,0.1c0.7,0.2,1.4,0.6,1.9,1.1c1,1,1.5,2.2,1.7,3.4c-0.1,0.6-0.1,0.6,0.2,1.2c0,0-0.1-0.1-0.1,0
							c0.2,0,0.1,0.4,0.3,0.4c0.1,0.9,0.2,1.6,0.3,2.5c0-0.1-0.2-0.2-0.2,0l0.1,0.2l-0.1,0c0,0.1,0.1,0.2,0.2,0.1
							c0.3,2.2-0.2,4.3-0.4,6.4c-0.1,0.5-0.2,1.2-0.2,1.7c-0.5,1.6-1,2.9-1.5,4.5C73.4,64.6,73,64.3,73.1,63.6z"/>
						<path fill="#808181" d="M72.7,64.9c-0.1,0-0.2,0.2-0.3,0C72.5,64.9,72.6,64.9,72.7,64.9z"/>
						<path fill="#808181" d="M68.9,67.9C68.9,67.9,68.8,67.9,68.9,67.9c-0.1,0-0.1-0.1,0-0.1C68.9,67.8,68.9,67.8,68.9,67.9z"/>
						<path fill="#808181" d="M67.9,68.4c0-0.1,0.2-0.2,0.3-0.3C68.1,68.2,68,68.3,67.9,68.4z"/>
						<path fill="#808181" d="M66.8,68.5c-0.1,0-0.1-0.1,0-0.1C66.8,68.4,66.8,68.4,66.8,68.5z"/>
						<path fill="#808181" d="M66.8,68.7c-0.1,0-0.1,0-0.2,0C66.6,68.7,66.7,68.5,66.8,68.7z"/>
						<path fill="#808181" d="M64.5,68.8c-0.1,0-0.2,0.1-0.2,0C64.4,68.9,64.5,68.7,64.5,68.8z"/>
						<path fill="#808181" d="M63.5,68.9C63.4,68.9,63.4,68.9,63.5,68.9c-0.1-0.1-0.1-0.1,0-0.1L63.5,68.9z"/>
						<polygon fill="#808181" points="58.4,54 58.4,54.1 58.4,54.1 						"/>
						<path fill="#808181" d="M64.6,47.3c0.1-0.1,0.1,0,0.1,0C64.7,47.3,64.7,47.2,64.6,47.3z"/>
						<polygon fill="#808181" points="68.6,44.5 68.6,44.5 68.5,44.3 						"/>
					</g>
				</g>
			</g>
		</g>
	</g>
	<g>
		<g>
			<g>
				<g>
					<g>
						<path fill="#808181" d="M62.7,65.6C62.7,65.6,62.7,65.6,62.7,65.6L62.7,65.6L62.7,65.6z"/>
						<path fill="#808181" d="M62.9,65.5c0,0-0.1-0.1-0.1-0.1C62.8,65.4,62.8,65.4,62.9,65.5C62.8,65.5,62.8,65.5,62.9,65.5
							C62.8,65.5,62.7,65.5,62.9,65.5C62.8,65.6,62.8,65.5,62.9,65.5C62.8,65.5,62.8,65.5,62.9,65.5z"/>
						<path fill="#808181" d="M63.9,63.1L63.9,63.1L63.9,63.1z"/>
						<path fill="#808181" d="M64.4,61.6C64.4,61.6,64.4,61.6,64.4,61.6C64.5,61.6,64.5,61.6,64.4,61.6z"/>
						<path fill="#808181" d="M64.6,61.3L64.6,61.3C64.6,61.3,64.6,61.3,64.6,61.3z"/>
						<path fill="#808181" d="M63.9,63.1L63.9,63.1C63.9,63,63.9,63.1,63.9,63.1z"/>
						<path fill="#808181" d="M62.8,65.1C62.8,65.1,62.8,65.1,62.8,65.1L62.8,65.1L62.8,65.1z"/>
						<polygon fill="#808181" points="63.7,63.8 63.6,63.8 63.7,63.8 						"/>
						<path fill="#808181" d="M63.5,64.3C63.5,64.3,63.4,64.2,63.5,64.3C63.4,64.2,63.4,64.3,63.5,64.3
							C63.4,64.3,63.5,64.3,63.5,64.3z"/>
						<path fill="#808181" d="M63.1,65L63.1,65L63.1,65z"/>
						<path fill="#808181" d="M63.8,63.4C63.8,63.4,63.8,63.4,63.8,63.4C63.8,63.4,63.8,63.4,63.8,63.4z"/>
						<path fill="#808181" d="M68.7,48.9L68.7,48.9C68.7,48.9,68.7,48.9,68.7,48.9z"/>
						<polygon fill="#808181" points="69.2,48.4 69.2,48.5 69.2,48.5 						"/>
						<path fill="#808181" d="M64.8,60.9L64.8,60.9C64.8,60.9,64.8,60.9,64.8,60.9z"/>
						<path fill="#808181" d="M66.4,56.5c-0.1,0,0-0.1-0.1,0C66.3,56.5,66.4,56.6,66.4,56.5z"/>
						<path fill="#808181" d="M62.8,65.1L62.8,65.1C62.8,65.1,62.8,65.1,62.8,65.1z"/>
						<polygon fill="#808181" points="66.3,56.5 66.3,56.5 66.3,56.5 						"/>
						<path fill="#808181" d="M65.2,59.8C65.2,59.8,65.2,59.8,65.2,59.8C65.2,59.8,65.2,59.8,65.2,59.8z"/>
						<path fill="#808181" d="M64.8,60.6L64.8,60.6C64.9,60.6,64.9,60.6,64.8,60.6z"/>
						<path fill="#808181" d="M65.3,59.3C65.3,59.3,65.3,59.3,65.3,59.3L65.3,59.3C65.3,59.3,65.3,59.3,65.3,59.3z"/>
						<path fill="#808181" d="M65.5,58.9C65.5,58.9,65.5,58.9,65.5,58.9C65.5,58.9,65.5,58.9,65.5,58.9L65.5,58.9z"/>
						<path fill="#808181" d="M68.3,50.3C68.3,50.3,68.3,50.3,68.3,50.3C68.3,50.3,68.3,50.2,68.3,50.3z"/>
						<path fill="#808181" d="M62.9,65.1C62.9,65.1,62.8,65.1,62.9,65.1C62.8,65.1,62.8,65.1,62.9,65.1
							C62.8,65.1,62.9,65.1,62.9,65.1z"/>
						<path fill="#808181" d="M64.9,59.2L64.9,59.2C64.9,59.1,64.9,59.1,64.9,59.2z"/>
						<path fill="#808181" d="M67.1,53.4L67.1,53.4C67.1,53.4,67.1,53.4,67.1,53.4z"/>
						<path fill="#808181" d="M65,58.9C65,58.9,65.1,58.9,65,58.9C65.1,58.9,65.1,58.9,65,58.9L65,58.9z"/>
						<path fill="#808181" d="M68.3,50.3L68.3,50.3L68.3,50.3z"/>
						<path fill="#808181" d="M68.4,49.8C68.3,49.8,68.4,49.8,68.4,49.8c0.1,0.2,0,0.1,0,0.1c0,0.1,0,0.1,0,0.2c0,0,0,0,0,0
							c0,0.1-0.1,0.2,0,0.2c0,0,0,0,0,0c0,0,0.1,0,0.1,0c0,0,0,0.1,0,0.1c0,0,0,0,0,0l0,0c-0.1,0,0-0.1-0.1-0.1c0,0.1,0,0.2,0,0.2
							c-0.1,0,0-0.1-0.1-0.1l0.1-0.1c-0.1,0,0,0-0.1,0c-0.1,0.1,0,0.1-0.1,0.2c0,0,0.1,0,0.1,0c0,0.2-0.2,0-0.1,0.2
							c0,0,0.1,0.1,0,0.1l-0.1,0c0,0.1,0.1,0.1,0,0.2c0,0,0-0.1,0-0.1c-0.1,0,0,0.1,0,0.1L68,51c0,0.1,0,0.2-0.1,0.3c0,0,0,0-0.1,0
							c0,0.1-0.1,0.3-0.2,0.4l0,0.1c0,0,0,0,0,0c0,0,0,0,0,0c0,0,0,0-0.1,0c0,0.1,0,0.3-0.1,0.4l0,0c0,0.1,0.1,0.1,0,0.2l0,0
							c-0.1,0.2-0.1,0.3-0.2,0.4c0.1,0.1-0.1,0.1,0,0.2c-0.1,0.1-0.1,0-0.2,0.2c0,0,0,0.1,0,0.1l-0.1,0l0,0.1l-0.1,0l0,0
							c0,0,0,0,0.1,0c0,0.1-0.1,0.1-0.1,0.1l0,0.2c0,0,0,0,0-0.1c0,0.1-0.1,0,0,0.1c0,0,0,0,0,0c0,0-0.1,0.1-0.1,0.2l0,0
							c-0.1,0.1-0.1,0.2-0.1,0.4c0,0,0.1,0,0.1,0l-0.1,0c0,0,0,0,0.1,0c0,0-0.1,0-0.1,0l0,0.1c0,0,0,0,0,0c0,0-0.1,0.1,0,0.1l0,0
							c0,0.1,0,0.2-0.1,0.3c0.1,0,0,0.1,0.1,0.1c0,0.1-0.1,0.1-0.1,0.2c0,0.1,0,0,0.1,0.1c0,0-0.1,0.1-0.1,0c0,0.1,0,0.1-0.1,0.3
							c0,0,0,0,0.1,0c0,0,0,0-0.1,0l0,0c0,0.2-0.3,0.3-0.2,0.5l0,0l0,0.1c0,0.1,0,0-0.1,0c0,0.2-0.1,0.2-0.1,0.3
							c-0.2,0-0.1,0.3-0.2,0.4l0,0c0,0,0,0,0,0c0,0,0,0,0.1,0c-0.1,0.3-0.2,0.5-0.4,0.8c0,0.1,0.1,0.1,0,0.2l0-0.1
							c0,0.2-0.1,0.4-0.2,0.6c0,0,0,0,0,0c-0.1,0-0.1,0.1,0,0.2c0,0,0,0-0.1,0c0,0,0,0.1,0,0.1c0,0,0,0,0,0c0,0-0.1,0.1,0,0.1
							c-0.1,0.1,0,0.1-0.1,0.2c0,0.1-0.1,0.1,0,0.2C65,59,65,59.1,65,59.2c0,0,0,0-0.1,0c0,0.1,0,0.1,0,0.1c-0.1,0.1,0,0.2-0.1,0.2
							c0,0.2,0,0.3-0.1,0.5c-0.1,0,0-0.2,0-0.2c0,0.1,0,0.2,0,0.4c0,0,0,0,0,0c0,0.1-0.1,0.2-0.1,0.4c0,0,0,0,0,0c0,0,0,0,0,0.1l0,0
							c0.1,0,0.1,0.1,0.1,0.1c-0.1-0.1-0.1,0.1-0.2,0c0,0,0,0,0,0c0,0,0,0-0.1,0c0,0.1,0,0.1,0,0.1c0,0,0,0,0,0c0,0.1,0,0.1,0,0.2
							c0,0,0,0,0,0c0,0.1,0,0.2-0.1,0.3c-0.1-0.1,0,0-0.1,0l0,0.1l0,0c0,0.1,0,0.1,0,0.2l0-0.1l0,0.1l0,0c0,0.1,0.1,0,0,0.1
							c0,0,0,0.1-0.1,0.1l0,0c0,0,0,0.1,0,0.1c0,0-0.1,0-0.1,0c0,0,0,0.1,0,0.2c0,0,0,0-0.1,0l0,0c0,0,0,0-0.1,0c0,0.1,0.1,0,0,0.1
							c0,0,0,0,0,0c-0.1,0.1,0,0.2-0.1,0.3c-0.1,0,0-0.1-0.1-0.1c0,0.1,0,0.3-0.1,0.4l0,0c0.1,0.1-0.1,0.1-0.1,0.1c0,0,0,0,0,0
							c0,0.1,0,0.2-0.1,0.3l0,0c0,0-0.1,0.1-0.1,0.2c0,0,0,0.1,0,0c-0.2,0.1,0,0.3-0.2,0.4c0,0,0,0,0,0l0,0.1c0,0,0,0,0.1,0
							c0,0,0,0.1,0,0.1c0-0.1-0.1,0-0.1,0c0,0,0,0,0,0c-0.1,0,0.1,0,0,0.1l0,0c0,0,0,0.1,0,0.1c-0.1,0,0,0,0-0.1c0,0,0.1,0.1,0,0.2
							c0,0,0-0.1,0-0.1c-0.1,0-0.1,0-0.1,0.1l0,0l-0.1,0.1l0,0c0.1,0.1,0,0.1,0,0.2c0-0.1,0,0-0.1-0.1c0,0-0.1,0-0.1,0
							c0,0.1-0.1,0.1,0,0.1c0,0,0,0-0.1,0c0,0.1,0,0,0.1,0c0,0.1-0.1,0.2-0.1,0.3c0,0.1,0.1,0.1,0,0.2c0,0-0.1,0-0.1,0
							c0,0-0.1,0.1,0,0.1c0,0,0,0-0.1,0c0,0,0.1,0,0,0.1c0,0,0,0-0.1-0.1c0,0,0,0.1,0,0.2c0,0,0,0-0.1-0.1c0,0.1,0,0.1,0,0.2l0,0
							c0,0,0,0,0,0c0-0.1,0-0.1,0.1-0.1l0,0c0.1,0,0-0.1,0.1-0.2l0.1,0.1l0-0.1c0,0,0.1,0,0.1,0c0.1,0,0-0.1,0-0.1c0,0,0,0,0,0
							l0-0.1c0,0,0.1,0,0,0c0.1-0.1,0-0.2,0.1-0.2l0,0c0-0.1-0.1,0-0.1-0.1l0.2,0l-0.1,0c0,0,0,0,0,0c0-0.1,0,0-0.1,0
							c0.1,0,0-0.2,0.1-0.1c0,0-0.1,0-0.1,0c0.1,0,0-0.1,0.1-0.1c0,0,0,0.1,0.1,0c-0.1-0.1,0.1-0.1,0.1-0.1c-0.1,0,0-0.1,0-0.2
							c0,0,0.1-0.1,0.1-0.2l0,0c-0.1,0,0-0.1,0-0.2c0,0,0.1,0,0.1,0.1l0,0c0,0,0,0,0-0.1l0,0c0-0.1,0-0.1,0.1-0.2c0,0-0.2,0-0.2-0.1
							c0,0,0.1,0,0.1,0c0,0,0,0,0,0l0,0.1c0,0,0,0,0-0.1c0,0,0,0,0.1,0c0,0,0,0,0,0c0,0,0.1-0.1,0.1-0.1c0,0,0,0,0,0
							c0-0.1,0.1,0,0.1,0c0,0,0-0.1,0-0.1c0,0,0,0,0.1,0c0,0,0-0.2,0-0.1l0,0l0,0l0,0l0,0c0-0.1,0.1-0.2,0.1-0.3l0,0
							c0-0.1,0-0.1,0-0.2c0,0,0,0,0.1,0c0-0.1,0-0.1,0-0.1c0,0.1,0,0,0,0.1c0-0.1,0.1-0.1,0-0.1c0,0,0.1,0,0.1-0.1l0,0
							c0,0,0-0.1,0-0.1l0.1,0c0.1-0.1,0-0.3,0.1-0.3c0,0-0.1,0.1-0.1,0c0-0.1,0.1-0.1,0.1-0.1c0.1-0.1-0.1-0.1,0-0.2
							c0,0-0.1,0-0.1-0.1c0-0.1,0.1,0,0.1,0c0,0,0,0,0,0c0,0,0,0.1,0,0l0,0c0,0,0.1-0.1,0.1-0.1c0-0.1,0,0-0.1,0
							c0.1-0.1,0-0.1,0.1-0.2c0,0,0,0,0,0c0.1-0.1,0-0.1,0-0.1c0,0,0.1,0,0.1,0c0,0,0.1,0,0.1,0c0-0.1,0.1-0.1,0.1-0.2l0,0
							c0,0,0,0,0-0.1l-0.1,0c0,0,0,0,0,0c0,0-0.1,0-0.1-0.1c0,0,0-0.1,0.1-0.1c-0.1,0.1,0.1,0,0,0.1c0,0,0,0,0-0.1c0,0,0,0,0,0
							c0.1-0.1,0-0.1,0-0.2c0,0,0.1,0,0.1,0c0,0-0.1,0-0.1,0c0,0,0-0.1,0-0.1l0,0c0,0,0-0.1,0-0.1c0,0,0,0,0,0
							c0-0.1,0.1-0.1,0.1-0.2c0,0,0.1,0,0.1,0c0-0.1,0.1-0.1,0.1-0.1c-0.1,0,0,0-0.1-0.1l0,0.1l0-0.1c0,0,0,0.1,0,0.1
							c0-0.1,0,0-0.1,0c0.1,0,0-0.1,0.1-0.2l0.1,0c0.1-0.1,0-0.2,0.1-0.3l0,0c0,0,0-0.1,0-0.1c0,0,0.1,0,0.1,0c0,0,0-0.1,0-0.1
							l0.1,0c0.1-0.1-0.1-0.1,0-0.2c0,0,0.1,0,0.1,0.1c0,0,0-0.1,0-0.1c0,0,0-0.1,0-0.1c0,0,0,0,0-0.1c0,0,0,0,0,0c0,0,0-0.1-0.1,0
							c0.1,0,0.1-0.3,0.2-0.3c0-0.1,0-0.2,0-0.2c0,0,0,0,0,0c0.1-0.1-0.1-0.1,0-0.2c0.1,0,0,0.1,0,0c0.1,0,0-0.1,0.1-0.2l0,0
							c0.1,0,0-0.1,0-0.2c0,0,0,0,0,0c0-0.1,0-0.2,0-0.3c0,0,0,0,0.1,0c0,0-0.1,0-0.1-0.1c0,0,0.1-0.1,0.1,0l0,0.1
							c0.1,0,0-0.1,0.1-0.1l0,0c0-0.1,0-0.1,0-0.2l0,0c0-0.1,0.1,0,0-0.1l0.1,0c0,0,0-0.2,0-0.2c0,0.1,0,0.1,0.1,0.2
							c0,0,0-0.1,0-0.2c0,0,0,0,0,0.1c0-0.1,0-0.1,0-0.2c0.1,0.1,0.1-0.2,0.2-0.2c0-0.1,0.1-0.2,0.2-0.4c-0.1,0,0,0-0.1-0.1
							c0,0,0-0.1,0-0.1l0.1-0.1c0,0,0,0,0,0c0-0.1,0.1,0,0.1-0.1c0,0,0,0,0-0.1l-0.1,0c0-0.1,0.1-0.1,0.1-0.2l0,0
							c0-0.1,0.1-0.2,0-0.3c0,0,0.1,0,0.1,0c0.1-0.1,0-0.3,0.1-0.4l0,0c0,0,0-0.1,0-0.1c0,0,0,0,0,0c0,0,0-0.1,0-0.1l0,0
							c0.1-0.1,0-0.2,0-0.3c0.1,0,0.1-0.1,0.2-0.1l0,0c0.1-0.1,0-0.3,0-0.4c0.1-0.1,0.1-0.3,0.2-0.4c0,0-0.1,0-0.1-0.1
							c0,0,0-0.1,0-0.1l0,0c0.1,0,0.1-0.1,0.1-0.1l-0.1,0c0.2-0.1,0.1-0.4,0.2-0.4c0,0,0-0.1,0-0.1l0.1,0c0-0.1,0.1-0.1,0.1-0.2l0,0
							c0-0.1-0.1-0.1-0.1-0.2l0.1,0c0-0.1,0.2-0.2,0.1-0.3c0,0,0,0,0,0c0-0.1,0.1-0.2,0-0.2c0.1,0,0-0.1,0-0.2l0,0
							c0-0.1-0.1-0.1-0.1-0.2c0,0,0,0,0,0c0,0,0-0.1,0-0.1l0,0c0-0.1,0-0.1,0-0.1c0,0,0.1-0.1,0.1-0.1c0,0-0.1-0.1,0-0.1
							c0,0,0,0,0,0c0.1-0.1,0-0.2,0.1-0.2c0,0,0,0,0,0c0,0.1-0.1,0.1-0.1,0.1c0,0,0.1,0,0.1,0c0-0.1-0.1-0.2,0-0.2l0,0l0,0
							c0,0,0,0,0,0c0,0,0,0,0,0c0,0,0-0.1,0.1-0.1c-0.1,0,0-0.1-0.1,0c0,0,0,0,0,0c0,0,0,0,0,0l0,0c0,0,0,0,0,0.1c0,0,0-0.1,0-0.1
							c0,0-0.1-0.1-0.1-0.1c0.1,0,0.2-0.1,0.2-0.1c0-0.1,0.1-0.2,0-0.3c0,0,0,0,0.1,0c0,0,0,0,0,0.1c0-0.1,0-0.2,0-0.2
							c0.1-0.1,0,0.1,0.1,0l0,0c0.2-0.1-0.1-0.4,0.2-0.5c0,0,0,0,0,0c0.1-0.2,0.1-0.5,0.3-0.7c0-0.1,0-0.1,0-0.1l0.1,0l0-0.1
							c0-0.1,0.2-0.1,0.2-0.3l0,0c0,0,0-0.1,0.1-0.1c0,0,0,0,0,0l0,0l0-0.1c0.1-0.1,0.1,0.1,0.2-0.1c0,0,0-0.2-0.1-0.1
							c0,0,0,0-0.1,0l0,0c-0.1,0-0.2-0.1-0.3,0l0,0.1l0,0l0-0.1c-0.1,0,0,0.1,0,0.1c0,0,0,0-0.1,0l0.1,0.1c0,0-0.1-0.1-0.1,0
							c0,0,0.1,0,0.1,0.1c-0.1,0-0.1,0-0.1,0.1c0,0,0,0,0,0c0,0,0,0.1,0,0.1c-0.1,0,0,0.1-0.1,0.1c0,0,0,0.1,0,0.1
							c-0.1-0.1-0.1,0.1-0.1,0.1c0.1,0.1,0,0.2,0,0.3c0,0,0,0,0,0c0,0-0.1,0-0.1,0.1c0.1,0,0.1,0.1,0.1,0.2c-0.1,0-0.1-0.1-0.1-0.1
							c0.1,0,0,0.1,0.1,0.1c-0.1,0,0,0-0.1,0c0.1,0,0,0,0,0.1C68.4,49.8,68.4,49.8,68.4,49.8C68.4,49.9,68.4,49.8,68.4,49.8z
							 M67.9,51.4L67.9,51.4C67.9,51.4,67.9,51.4,67.9,51.4C67.9,51.4,67.9,51.4,67.9,51.4z M67.9,51.5
							C67.9,51.5,67.9,51.5,67.9,51.5C67.9,51.5,68,51.5,67.9,51.5C67.9,51.5,67.9,51.5,67.9,51.5z M68.3,51.4
							C68.3,51.4,68.3,51.4,68.3,51.4C68.3,51.4,68.3,51.4,68.3,51.4L68.3,51.4C68.3,51.4,68.3,51.4,68.3,51.4z"/>
						<path fill="#808181" d="M68.3,51.3L68.3,51.3C68.3,51.3,68.3,51.3,68.3,51.3L68.3,51.3L68.3,51.3z"/>
						<polygon fill="#808181" points="63.8,63.1 63.8,63.1 63.8,63.1 						"/>
						<polygon fill="#808181" points="67.1,53.3 67.1,53.3 67.1,53.3 						"/>
						<path fill="#808181" d="M63.4,63.7C63.4,63.7,63.4,63.7,63.4,63.7C63.4,63.7,63.4,63.7,63.4,63.7z"/>
						<path fill="#808181" d="M63.3,64L63.3,64C63.3,64.1,63.3,64.1,63.3,64z"/>
						<polygon fill="#808181" points="63.2,64.3 63.2,64.3 63.2,64.3 						"/>
						<path fill="#808181" d="M64.5,60.5C64.5,60.5,64.5,60.5,64.5,60.5C64.5,60.4,64.5,60.4,64.5,60.5z"/>
						<path fill="#808181" d="M64.2,61.6C64.2,61.6,64.2,61.6,64.2,61.6C64.2,61.6,64.2,61.6,64.2,61.6z"/>
						<polygon fill="#808181" points="64.9,59.2 64.9,59.2 64.9,59.2 						"/>
						<path fill="#808181" d="M64.2,61.5C64.2,61.6,64.2,61.6,64.2,61.5C64.2,61.6,64.2,61.6,64.2,61.5z"/>
						<polygon fill="#808181" points="62.7,65.3 62.7,65.3 62.8,65.3 						"/>
						<path fill="#808181" d="M62.8,65.3L62.8,65.3C62.8,65.3,62.8,65.3,62.8,65.3z"/>
						<path fill="#808181" d="M62.8,65.4L62.8,65.4C62.7,65.3,62.7,65.3,62.8,65.4z"/>
						<path fill="#808181" d="M62.9,65L62.9,65C62.9,65,62.9,65,62.9,65z"/>
						<path fill="#808181" d="M62.9,64.9C62.9,64.9,62.9,64.9,62.9,64.9L62.9,64.9C62.9,65,62.9,64.9,62.9,64.9z"/>
						<path fill="#808181" d="M63.3,64.6L63.3,64.6C63.3,64.6,63.3,64.6,63.3,64.6C63.4,64.6,63.2,64.7,63.3,64.6z"/>
						<path fill="#808181" d="M63.4,64.3C63.4,64.4,63.4,64.4,63.4,64.3C63.4,64.3,63.4,64.3,63.4,64.3z"/>
						<path fill="#808181" d="M64.1,62.5L64.1,62.5C64.1,62.5,64.1,62.6,64.1,62.5z"/>
						<polygon fill="#808181" points="64,62.1 63.9,62.1 64,62.2 						"/>
						<polygon fill="#808181" points="64.4,62 64.4,62 64.4,62 						"/>
						<path fill="#808181" d="M65.5,59L65.5,59C65.4,59,65.5,59,65.5,59z"/>
						<path fill="#808181" d="M65.9,57.7C65.9,57.7,66,57.6,65.9,57.7C65.9,57.6,65.9,57.7,65.9,57.7z"/>
						<polygon fill="#808181" points="67.5,53.8 67.5,53.8 67.5,53.8 						"/>
					</g>
				</g>
			</g>
		</g>
	</g>
	<g>
		<g>
			<g>
				<g>
					<g>
						<path fill="#808181" d="M15.8,57c0.1,0.2,0.1-0.2,0.1,0.1C15.8,57.2,15.8,57.1,15.8,57z"/>
						<path fill="#808181" d="M16.4,57.9c0.8,0.5,1.1,1.7,1.8,2.2c0.1,0.1-0.2,0.1,0,0.3c0.8,0.5,1.6,1.7,2.1,2.7l-0.1,0
							c0.1,0.2,0.4,0.2,0.6,0.4c0,0-0.1,0-0.1,0.1c0.1-0.1,0.3,0.2,0.5,0.2c0,0.1-0.1,0.2,0,0.3l0.2,0c0.5,0,0.6,0.6,1.1,0.8
							c0,0-0.1,0-0.1,0.1c0.7,0.4,1.4,1,2.1,1.5c-0.1,0-0.1,0.1-0.1,0.2c0.1-0.1,0.4,0,0.6,0.1c0,0.2,0.4,0.1,0.6,0.3l0,0
							c0.3,0,0.2,0.3,0.4,0.2l0,0.2c0.2-0.2,0.2,0.3,0.4,0.2l0,0c0.2,0,0.2,0.2,0.3,0.2l0,0c0.3,0.1,0.4,0.3,0.5,0.2
							c0,0.2-0.3-0.1-0.3,0.2c1,0.4,2.1,0.9,3.1,1.1c0.1,0.1,0.2,0.1,0.2,0.2c0.1,0,0.4,0,0.5-0.1c0,0,0.1,0.1,0.1,0.1
							c0.2,0.1,0.2-0.2,0.4-0.2c-0.1,0.1-0.1,0.1-0.1,0.2c0.2-0.2,0.4-0.2,0.6-0.3c0,0-0.1,0.1,0,0.1c0.2-0.2,0.4-0.1,0.6-0.3l0,0.1
							c0.4-0.1,0-0.2,0.3-0.3c0,0.1,0,0.1,0,0.1c0.1-0.2,0.2-0.3,0.3-0.4c0.1-0.1,0.2-0.3,0.3-0.4c0,0,0,0,0,0
							c0.2-0.2,0.4-0.5,0.5-0.8c0.1-0.1,0.2,0.2,0.3-0.1c-0.2-0.1,0.1-0.5-0.2-0.5c0.1-0.2,0.3-0.6,0.3-0.8c0,0.1,0.3-0.1,0.2,0.2
							l0.2-0.1c0.1,0-0.1,0.2,0,0.1c0-0.1,0-0.5,0.1-0.6c-0.1-0.2-0.3-0.5-0.2-0.8c0.1,0.2,0.2,0,0.3,0.1l-0.3-0.5
							c0-0.1,0.2,0,0.1-0.2c-0.1,0-0.1-0.1-0.1-0.1c0,0,0-0.5,0.2-0.5c0.1,0,0,0.2,0.1,0.1c0-0.2-0.1-0.2,0-0.4l0,0
							c0-0.1-0.1-0.4-0.2-0.3c0,0.1,0.1,0,0.1,0.1c-0.1-0.1-0.1-0.3-0.1-0.6c0,0.1,0.1,0.1,0.1,0.1c-0.1-0.3-0.2-0.6-0.3-0.9
							c-0.1,0,0.2,0.1,0.1,0.2c0.2-0.4-0.2-0.8,0-1.2c0,0.1-0.1,0-0.1,0c0-0.2,0.2-0.2,0.1-0.3c0.1,0,0-0.2-0.1-0.3
							c-0.1-0.1,0,0,0.1,0.1c-0.1-0.2-0.2-0.9-0.2-1.3c-0.1,0-0.2-0.2-0.2-0.3l0.1,0c0.1-0.1,0-0.3,0.1-0.3C34,58,34.4,59,34.3,58.7
							c0.1-0.1-0.2-0.4-0.1-0.3c0-0.2-0.2-0.4-0.1-0.6c0,0.1,0.2,0.1,0.2,0c-0.1-0.3-0.1-0.1-0.1-0.3l-0.1-0.1c-0.1,0,0-0.2-0.1-0.1
							c0.1,0-0.1-0.4,0.1-0.4l0.2,0c0-0.1-0.2-0.2-0.3-0.2c0,0,0-0.1,0.1-0.1c-0.3,0,0-0.3-0.2-0.4c0.1-0.3-0.1-0.6,0-0.8
							c-0.1-0.2-0.2-0.3-0.2-0.5c0,0,0.1,0.1,0.1,0.1c0-0.1,0-0.2-0.1-0.3c0,0,0.1-0.3,0.2-0.5c-0.1-0.2-0.2-0.1-0.3-0.1
							c0.2-0.2-0.3-0.5-0.1-0.7c0,0.1,0.2,0.2,0.2,0.1c0.2-0.2-0.3-0.3-0.2-0.6L33.1,53c0.1-0.2-0.2-0.4,0-0.4
							c-0.1-0.1,0-0.3-0.2-0.2c0-0.5-0.4-1-0.1-1.4c-0.1-0.1-0.1-0.2-0.2-0.1C32.5,51,32.7,51,32.7,51c0-0.1-0.1,0-0.1,0
							c0-0.1,0-0.3,0.2-0.2c0-0.3-0.4-0.2-0.5-0.6c0.1,0,0.1-0.1,0-0.2l-0.2-0.1c-0.1-0.2,0.1-0.2,0.3-0.3c-0.1-0.1-0.1-0.3-0.3-0.3
							l0.1-0.2C32.1,49.3,32,49.1,32,49l0.1,0c0,0-0.1-0.2-0.1-0.2c-0.1,0.1,0,0.2,0,0.3c-0.1,0-0.1-0.1-0.2-0.2
							c0.1,0,0-0.2-0.1-0.3c0-0.1-0.2-0.1-0.2-0.1c0.1,0-0.1-0.2,0-0.1c0,0,0,0.1,0.1,0.1c0-0.1,0.1-0.2-0.1-0.2
							c-0.1-0.1-0.2,0.2-0.3-0.1c0.1,0,0.1,0,0.2,0L31.3,48l-0.1,0.1c0,0,0,0,0-0.1c-0.1,0-0.2-0.3-0.4-0.2
							c-0.1-0.1-0.1-0.2-0.1-0.3l0,0c0-0.1-0.2-0.2-0.3-0.3l0,0c0-0.1-0.2-0.2-0.3-0.2c-0.1-0.2,0.3-0.4,0-0.4
							c-0.1-0.1-0.4,0-0.4,0.1c-0.2-0.3-0.6-0.3-0.7-0.7c-0.1,0-0.1,0.1-0.2,0c-0.4-0.3-0.9-0.4-1.1-0.8c0.1,0,0.1-0.1,0.1-0.2
							c-0.2,0.1-0.1-0.2-0.2,0c0,0.1-0.1,0.2,0,0.3c-0.3,0-0.7-0.2-0.8-0.4c0.1,0.1,0,0.1-0.1,0.1C27,45,26.8,45,26.6,45l-0.1,0.1
							l-0.1-0.1c-0.1,0-0.1,0.2-0.2,0.1c0,0,0-0.1,0-0.1c-0.2,0.1-0.4,0.2-0.6,0l-0.1-0.2c-0.1,0-0.2,0.1-0.1,0.2
							c-0.3-0.1-0.5-0.2-0.6-0.3c-0.5,0.3-1.2,0.4-1.8,0.4l0-0.1c-0.2,0-0.1,0.2-0.2,0.1c0-0.1-0.2-0.1,0-0.3
							c-0.2,0-0.3,0.2-0.4,0.3c0,0.1,0.1-0.1,0.1,0.1c0,0-0.3,0-0.3,0.2c-0.1,0-0.1-0.2-0.1-0.3l-0.1,0.1c-0.2-0.1,0.3-0.5,0.1-0.6
							L22,44.5c-0.2-0.1,0.3-0.3-0.1-0.3c-0.1,0.1-0.2,0.4,0,0.4c-0.3,0.1,0,0.4-0.3,0.5c-0.1-0.1,0.2-0.1,0.1-0.2
							c-0.2-0.1-0.3,0.2-0.4,0.2c0.2,0,0.1,0.2,0,0.3c-0.2,0,0-0.2-0.2-0.1c0,0.1-0.2,0.3,0,0.2c0,0.2-0.2,0-0.3,0.2
							c-0.1-0.1,0.1-0.4-0.2-0.4c0.1,0.1-0.2,0.3,0,0.5c-0.1,0-0.2-0.1-0.1-0.2c-0.2,0-0.2,0.4-0.3,0.2l0,0.2c-0.1,0-0.1,0-0.2-0.1
							c-0.1,0-0.2,0.4-0.3,0.2c0,0-0.3,0.2-0.1,0.3c0.2,0,0.1-0.2,0.3-0.1c-0.2-0.1-0.2,0.2-0.2,0.3l-0.1-0.1c0,0.1-0.1,0.1-0.1,0.2
							c0-0.1,0-0.1-0.1-0.1l0,0.1c-0.1,0.2-0.2-0.2-0.3,0l0.1-0.2c0,0-0.2,0-0.2,0.1c0,0.1,0.1,0.3,0.1,0.4
							c-0.1,0.1-0.1-0.1-0.1,0.1l0-0.2c0,0-0.2-0.1-0.4,0c-0.1,0.1,0,0.4,0.1,0.3c-0.1,0.1-0.2,0.1-0.2,0c-0.1,0.2,0.1,0.1,0.1,0.3
							c-0.1,0-0.3,0.1-0.5,0.1c0-0.1,0-0.2,0-0.3l-0.1,0.1c0-0.2-0.2,0-0.2-0.2c-0.1,0-0.1,0.2-0.1,0.3c0.4,0,0.1,0.5,0.4,0.6
							c-0.1,0.3-0.6-0.2-0.5,0.3c0.1,0,0.2,0.2,0.2,0c-0.1,0.2,0.1,0.3-0.1,0.4c0-0.2-0.3,0-0.3-0.3c0.1,0.1,0.1-0.1,0.1-0.1
							c-0.1,0-0.2-0.2-0.3,0c-0.1,0.1-0.1,0.3,0,0.3c0.1,0.1,0.1-0.2,0.2,0c-0.1,0.2-0.3,0.2-0.1,0.4c0.1-0.2,0.2-0.1,0.3-0.1l0,0.2
							l-0.1-0.1c-0.2,0.2,0.1,0.2,0,0.4l-0.2,0c-0.1-0.1,0.3-0.3,0-0.4c-0.1,0.2,0,0.3-0.1,0.4c0,0,0-0.1,0-0.1c0,0.1-0.4,0-0.3,0.3
							c0,0.2,0.1,0.1,0.2,0.1c-0.1,0.3,0,0.4-0.1,0.6c-0.2-0.1-0.1,0.3-0.2,0.1c0.1-0.1,0.3-0.5,0.1-0.6c-0.3,0,0.1-0.2-0.1-0.4
							c-0.1,0.2-0.3,0.1-0.5,0.1c0,0.1,0,0.2,0,0.2c0.1,0.1,0.2,0,0.3,0c-0.1,0.2-0.2,0.5-0.1,0.7c-0.1,0.1-0.2,0-0.2-0.1
							c-0.1,0.3-0.2,0.7-0.3,1c0.3-0.2,0,0.4,0.2,0.3c0.1-0.2,0.3-0.3,0.4-0.2c0,0.1-0.1,0-0.2,0c0.1,0.1-0.2,0.2-0.1,0.3
							c0-0.3-0.3-0.1-0.4-0.2c0.1,0.2-0.1,0-0.2,0.2c0.1,0.2,0.1,0.5,0.1,0.8c-0.2,0.3,0,0.8,0,1.1c-0.1,0.2-0.3,0.1-0.3,0.2
							c0,0.2,0.2-0.2,0.1,0.1l0,0c0,0.1-0.1,0.5,0.2,0.6l-0.2,0c0,0.1,0.1,0.1,0.1,0.1c-0.1,0-0.1,0.1-0.2,0
							c-0.1,0.2,0.1,0.4,0.1,0.5l0.1-0.2c0.2,0.3,0.1,0.5,0.3,0.8l-0.1,0l0.1,0.2c-0.1,0-0.1,0.2,0,0.2c-0.2-0.1-0.3-0.2-0.5-0.4
							c0-0.2,0.2,0.1,0.3,0c0.1-0.1,0-0.4-0.2-0.4c0,0.1,0,0.1,0.1,0.2c-0.2,0.1-0.2-0.1-0.3-0.1c0,0.1,0,0.2,0.1,0.2
							c-0.1-0.1-0.2-0.2-0.2-0.4c0.1,0.1,0.1-0.1,0.2-0.1c-0.2,0-0.2-0.2-0.2-0.4c0.1-0.2-0.2-0.4-0.2-0.7c0.2,0.1,0.3,0.2,0.4,0.4
							c0-0.2,0-0.2,0-0.4c-0.1-0.1-0.3-0.1-0.4-0.3l0.1,0c-0.1-0.2-0.3-0.2-0.2-0.5c0-0.5,0.1-1,0.1-1.3l0.1,0c-0.2-0.2,0-0.7-0.1-1
							c0.2-0.4,0.2-1,0.4-1.2c0.2-0.8,0.4-1.5,0.9-2.2l0.1,0.2c0-0.2,0.1,0,0.2-0.2c-0.2,0.1,0-0.3-0.1-0.4c0.3-0.2,0.5-0.7,0.7-1
							l0.1,0.1c0.1-0.4,0.5-0.6,0.9-0.8c0.1,0,0.2,0,0.3,0c0.1-0.3,0.2-0.3,0.4-0.6c0.2-0.2,0.6-0.3,0.8-0.4
							c0.7-0.7,1.7-0.9,2.6-1.3l0.1,0.1c0.9-0.5,2.1-0.3,2.9-0.3l-0.1,0.2c0.2,0.1,0.6,0,0.5-0.2c0.2,0.1,0.7,0,0.8,0.2
							c0.2,0.1,0.3,0,0.6,0c0.5,0.2,0.7,0.3,1.2,0.4L28,43.8c-0.1,0-0.1,0.1,0,0.2c0.2,0,0.6,0.3,0.5,0c0.2,0.2,0.5,0.3,0.8,0.4
							c0.3,0.1,0.5,0.3,0.7,0.5c0-0.1,0.1,0,0.2,0c0.4,0.3,0.7,0.7,1,0.9c0,0.1-0.2,0,0,0.2c0.1,0.1,0.1-0.1,0.2,0
							c0.7,0.4,0.9,1.3,1.3,1.8c0.8,1,1.2,2.2,1.5,3.2l-0.1,0c0.3,0.3,0,0.9,0.4,1.1c0,0.1,0.1,0.3-0.1,0.3c0.2,0.2,0.1,0.8,0.3,1.2
							c0,0,0-0.1-0.1-0.1c0,0.4,0.2,0.8,0.2,1.2c0,0-0.1-0.1-0.1-0.1c-0.1,0.2,0.3,0.4,0.1,0.5c0,0.1,0.1,0,0.1,0c0.1,1,0.4,2,0.6,3
							c-0.1,0.7-0.5,0.1-0.2,0.6c0,0.1,0.1,0,0.1,0c0.1,0.2-0.3,0.4-0.1,0.5c0.2-0.1,0.1,0.1,0.2,0.1c-0.1,0.5-0.2,0.6-0.1,0.9
							l-0.1,0c0.3,0.4,0.1,0.9,0.4,1.2c0,1.2,0,2.3-0.2,3.5c-0.2,1.2-0.4,2.4-1.1,3.5c-0.4,0.6-0.9,1.1-1.5,1.5
							c-0.6,0.4-1.4,0.6-2.1,0.7c-1.4,0.1-2.6-0.4-3.7-0.9c-0.4-0.4-0.4-0.5-1-0.7c0,0,0.1,0,0.1-0.1c-0.1,0.1-0.4-0.2-0.5-0.1
							c-0.7-0.5-1.4-0.9-2.1-1.4c0.1,0.1,0.3,0,0.1-0.1l-0.2,0l0-0.1c-0.1,0-0.3,0-0.2,0.1c-1.8-1.2-3.1-3-4.5-4.5
							c-0.3-0.4-0.8-0.9-1.2-1.3c-0.8-1.4-1.5-2.7-2.4-4.1C15.4,57.4,15.9,57.4,16.4,57.9z"/>
						<path fill="#808181" d="M15.6,56.7c0.1-0.1,0-0.3,0.2-0.2C15.8,56.6,15.7,56.7,15.6,56.7z"/>
						<path fill="#808181" d="M15.9,51.9C15.9,51.9,16,51.9,15.9,51.9C16,51.9,16.1,52,15.9,51.9C16,51.9,16,51.9,15.9,51.9z"/>
						<path fill="#808181" d="M16.2,50.8c0.1,0,0.1,0.3,0.1,0.4C16.2,51.1,16.2,50.9,16.2,50.8z"/>
						<path fill="#808181" d="M16.9,49.9C17,49.9,17,49.9,16.9,49.9C16.9,50,16.9,50,16.9,49.9z"/>
						<path fill="#808181" d="M16.8,49.8c0-0.1,0.1-0.1,0.2-0.1C16.8,49.6,16.9,49.9,16.8,49.8z"/>
						<path fill="#808181" d="M18.1,48c0,0,0-0.2,0.1-0.2C18.2,47.8,18.2,48.1,18.1,48z"/>
						<path fill="#808181" d="M18.7,47.1C18.8,47.1,18.8,47.1,18.7,47.1C18.9,47.1,18.9,47.2,18.7,47.1L18.7,47.1z"/>
						<polygon fill="#808181" points="33.2,53.2 33.2,53.1 33.3,53.1 						"/>
						<path fill="#808181" d="M34.3,62.3c0,0.1-0.1,0.1-0.1,0.1C34.2,62.3,34.3,62.4,34.3,62.3z"/>
						<polygon fill="#808181" points="33.7,67.1 33.7,67.1 33.9,67.2 						"/>
					</g>
				</g>
			</g>
		</g>
	</g>
	<g>
		<g>
			<g>
				<g>
					<g>
						<path fill="#808181" d="M21.7,48.7C21.7,48.7,21.7,48.8,21.7,48.7L21.7,48.7L21.7,48.7z"/>
						<path fill="#808181" d="M21.7,48.9c0,0,0.1,0,0.2,0C21.8,48.9,21.8,48.9,21.7,48.9C21.7,48.9,21.7,48.9,21.7,48.9
							c0-0.1,0-0.1,0-0.1C21.7,48.9,21.7,48.9,21.7,48.9C21.8,48.9,21.7,48.9,21.7,48.9z"/>
						<path fill="#808181" d="M22.9,51.3L22.9,51.3C22.9,51.3,22.9,51.3,22.9,51.3z"/>
						<path fill="#808181" d="M23.6,52.7C23.6,52.7,23.6,52.7,23.6,52.7C23.6,52.7,23.6,52.7,23.6,52.7z"/>
						<path fill="#808181" d="M23.7,53L23.7,53C23.7,53,23.7,53,23.7,53z"/>
						<path fill="#808181" d="M22.9,51.3L22.9,51.3C22.9,51.3,22.9,51.3,22.9,51.3z"/>
						<path fill="#808181" d="M22,49.2C22,49.2,22,49.2,22,49.2L22,49.2L22,49.2z"/>
						<polygon fill="#808181" points="22.5,50.7 22.5,50.7 22.5,50.7 						"/>
						<path fill="#808181" d="M22.2,50.2C22.2,50.2,22.3,50.2,22.2,50.2C22.3,50.2,22.3,50.2,22.2,50.2
							C22.2,50.2,22.2,50.2,22.2,50.2z"/>
						<path fill="#808181" d="M21.9,49.4L21.9,49.4L21.9,49.4z"/>
						<path fill="#808181" d="M22.7,51C22.7,51,22.6,51,22.7,51L22.7,51z"/>
						<path fill="#808181" d="M30.3,64.3L30.3,64.3C30.3,64.3,30.3,64.3,30.3,64.3z"/>
						<polygon fill="#808181" points="30.3,65 30.3,65 30.3,65 						"/>
						<path fill="#808181" d="M23.9,53.5L23.9,53.5C23.8,53.5,23.8,53.5,23.9,53.5z"/>
						<path fill="#808181" d="M26.1,57.5c0-0.1,0.1,0,0.1,0C26.2,57.5,26.1,57.5,26.1,57.5z"/>
						<path fill="#808181" d="M22,49.2L22,49.2C22,49.2,22,49.2,22,49.2z"/>
						<polygon fill="#808181" points="26.2,57.5 26.2,57.5 26.2,57.5 						"/>
						<path fill="#808181" d="M24.4,54.5C24.4,54.5,24.4,54.5,24.4,54.5C24.4,54.5,24.4,54.5,24.4,54.5z"/>
						<path fill="#808181" d="M24.1,53.7L24.1,53.7C24.1,53.7,24.1,53.7,24.1,53.7z"/>
						<path fill="#808181" d="M24.7,54.8C24.7,54.9,24.7,54.9,24.7,54.8L24.7,54.8C24.7,54.9,24.7,54.9,24.7,54.8z"/>
						<path fill="#808181" d="M24.9,55.3C24.9,55.2,24.9,55.2,24.9,55.3C24.9,55.2,24.9,55.2,24.9,55.3L24.9,55.3z"/>
						<path fill="#808181" d="M29.6,63C29.6,63.1,29.5,63.1,29.6,63C29.6,63.1,29.6,63.1,29.6,63z"/>
						<path fill="#808181" d="M22,49.2C22,49.2,22,49.2,22,49.2C22,49.2,22,49.2,22,49.2C22,49.2,22,49.2,22,49.2z"/>
						<path fill="#808181" d="M25.1,54.7L25.1,54.7C25.1,54.7,25.1,54.7,25.1,54.7z"/>
						<path fill="#808181" d="M28,60.1L28,60.1C28,60.1,28,60.1,28,60.1z"/>
						<path fill="#808181" d="M25.2,54.9C25.2,54.9,25.2,55,25.2,54.9L25.2,54.9L25.2,54.9z"/>
						<path fill="#808181" d="M29.5,63.1L29.5,63.1L29.5,63.1z"/>
						<path fill="#808181" d="M29.9,63.4c0-0.1-0.1,0-0.1,0C29.7,63.4,29.8,63.4,29.9,63.4c-0.1-0.1-0.2-0.1-0.2-0.2c0,0,0,0,0,0
							c-0.1,0-0.1-0.1-0.2-0.2c0,0,0,0,0,0c0,0-0.1,0-0.1,0.1c0,0-0.1,0,0-0.1c0,0,0,0,0,0l0,0c0-0.1,0,0,0.1,0c0,0-0.1-0.1-0.1-0.1
							c0.1,0,0.1,0.1,0.1,0l0,0.1c0.1-0.1,0,0,0.1-0.1c0-0.1-0.1-0.1-0.1-0.2c0,0,0,0-0.1,0c-0.1-0.1,0.1-0.2,0-0.2
							c-0.1,0-0.1,0-0.1-0.1l0.1,0c0-0.1-0.1,0-0.1-0.1c0,0,0.1,0.1,0.1,0c0-0.1-0.1,0-0.1-0.1l0.1,0c-0.1-0.1-0.2-0.2-0.2-0.3
							c0,0,0,0,0.1,0c-0.1-0.1-0.1-0.3-0.2-0.4l-0.1,0c0,0,0,0,0,0c0-0.1,0,0-0.1,0c0,0,0-0.1,0,0c-0.1-0.1-0.2-0.2-0.2-0.3l0,0
							c0-0.1-0.1,0-0.1-0.1l0,0c-0.1-0.2-0.2-0.3-0.2-0.5c-0.1,0,0-0.2-0.2-0.1c0-0.1,0-0.1,0-0.2c0,0-0.1,0-0.1,0l0.1,0l-0.1,0
							l0-0.1l0,0c0,0,0,0,0,0.1c-0.1,0,0-0.2,0-0.2l-0.1-0.1c0,0,0,0,0.1,0c-0.1,0,0,0,0-0.1c0,0,0,0,0,0c0-0.1,0-0.1-0.1-0.2l0,0
							c0-0.1-0.1-0.2-0.2-0.3c0,0.1-0.1,0.1-0.1,0l0,0c0,0,0,0-0.1,0c0,0,0-0.1,0.1,0l0,0c0,0,0,0,0.1,0c0,0,0-0.1-0.1-0.1l0,0
							c-0.1-0.1-0.1-0.2-0.2-0.3c0,0-0.1,0-0.1,0c0-0.1,0-0.2-0.1-0.3c-0.1,0,0,0-0.1,0c0,0,0-0.1,0-0.1c-0.1-0.1-0.1-0.1-0.2-0.2
							c0,0,0,0,0,0c0,0,0-0.1,0-0.1l0,0c-0.1-0.1-0.1-0.4-0.2-0.5l0,0l-0.1-0.1c0-0.1,0.1,0,0.1,0c-0.1-0.1-0.1-0.2-0.2-0.3
							c0.1-0.2-0.2-0.3-0.1-0.4l0,0c0,0,0,0,0-0.1c0,0,0,0,0,0c-0.2-0.2-0.2-0.5-0.3-0.8c0-0.1-0.2,0-0.2-0.1l0.1,0
							c-0.2-0.1-0.2-0.4-0.3-0.5c0,0,0,0,0,0c0-0.1-0.1-0.1-0.1-0.1c0,0,0,0,0,0c0-0.1-0.1-0.1-0.1-0.1c0,0,0,0,0,0
							c0,0-0.1-0.1-0.1-0.1c0-0.1-0.1-0.1-0.1-0.2c-0.1,0,0-0.1-0.1-0.1c0.1,0,0-0.1-0.1-0.2c0,0,0,0,0-0.1c0,0-0.1-0.1-0.1-0.1
							c0-0.1-0.2-0.1-0.1-0.3c-0.1-0.1-0.2-0.2-0.3-0.4c0.1,0,0.1,0.1,0.2,0.1c-0.1-0.1-0.2-0.1-0.2-0.3c0,0,0,0,0.1,0
							c-0.1-0.1-0.1-0.2-0.2-0.3c0,0,0,0,0,0c0,0,0-0.1,0,0l0,0c0,0.1-0.2,0-0.2,0c0.1,0,0-0.1,0.1-0.1c0,0,0,0-0.1,0c0,0,0,0,0,0
							c-0.1-0.1-0.1,0-0.1-0.1c0,0,0,0,0.1,0c-0.1,0-0.1,0-0.1-0.1c0,0,0,0,0,0C24.1,53,24,53,23.9,52.9c0.1,0,0-0.1,0.1-0.1l-0.1,0
							l0,0c0-0.1-0.1-0.1-0.1-0.1l0,0l-0.1-0.1l0,0.1c-0.1,0-0.1,0-0.1,0c0,0,0-0.1,0-0.1l0,0c0,0-0.1,0-0.1-0.1c0,0,0.1,0,0.1,0
							c-0.1,0-0.1-0.1-0.2-0.1c0,0,0.1,0,0.1,0l-0.1,0c0,0,0,0,0,0c0-0.1-0.1,0.1-0.1,0c0,0,0,0,0,0c0-0.1-0.1-0.2-0.1-0.2
							c0.1-0.1,0.1,0.1,0.1,0c-0.1-0.1-0.2-0.2-0.2-0.3l0,0c-0.1,0,0-0.1-0.1-0.1c0,0,0.1,0,0,0c0-0.1-0.1-0.1-0.2-0.2l0,0
							c0-0.1-0.1-0.1-0.1-0.2c0,0,0,0-0.1,0c0.1-0.2-0.2-0.2-0.2-0.4c0,0,0,0,0,0l-0.1-0.1c0,0,0,0,0,0.1c0,0-0.1,0-0.1-0.1
							c0.1,0,0.1,0,0.1-0.1c0,0,0,0,0,0c0-0.1-0.1,0-0.1-0.1l0,0c0,0-0.1,0-0.1-0.1c0,0,0,0,0.1,0c0,0-0.1,0-0.1-0.1
							c0,0,0,0,0.1,0.1c0-0.1,0-0.1,0-0.1l0,0l0-0.1l0,0c-0.2,0-0.1-0.1-0.2-0.1c0.1,0,0,0,0.1,0c0,0,0-0.1,0-0.1
							c-0.1,0,0-0.1-0.1-0.1c0,0,0,0,0-0.1c0,0,0,0,0,0c-0.1,0,0-0.2-0.2-0.3c-0.1-0.1-0.1-0.1-0.2-0.1c0,0,0.1,0,0.1,0
							c0-0.1,0-0.1-0.1-0.1c0,0,0,0,0,0c0,0-0.1,0-0.1,0c0,0,0.1,0,0.1,0c0,0-0.1-0.1-0.1-0.1c0,0,0.1,0,0.1,0c0,0-0.1-0.1-0.1-0.1
							l0,0c0,0,0,0,0.1,0c0.1,0,0,0.1,0,0.1l0,0c-0.1,0.1,0.1,0.1,0.1,0.2l-0.1,0l0.1,0c0,0,0,0.1-0.1,0c0,0.1,0,0,0,0.1
							c0,0,0,0,0,0l0,0c0,0,0,0-0.1,0c0,0.1,0.1,0.1,0.1,0.2l0,0c0.1,0.1,0.1,0,0.2,0L22,49.7l0.1,0c0,0,0,0,0,0c0.1,0,0,0,0.1,0
							c0,0.1,0.1,0.1,0,0.2c0,0,0-0.1,0.1,0c-0.1,0.1,0,0.1,0,0.1c-0.1,0-0.1,0-0.1,0c0.1,0,0,0.1,0.1,0.1c0.1,0,0.1,0.1,0.1,0.1
							c0,0,0,0.1,0,0.2l0,0c0.1,0,0.1,0,0.1,0.1c0,0-0.1,0-0.1,0l0,0c0,0,0,0,0.1,0l-0.1,0c0,0.1,0.1,0.1,0.1,0.2
							c0,0,0.1-0.1,0.2-0.1c0,0-0.1,0-0.1,0c0,0,0,0,0,0l-0.1,0c0,0,0,0,0.1,0c0,0,0,0,0,0c0,0,0,0,0,0c0,0,0,0.1,0,0.1
							c0,0,0,0,0.1,0c0,0.1,0,0,0,0.1c0,0,0,0.1,0.1,0c0,0,0,0,0,0c0,0,0.1,0.1,0.1,0.1l0,0l0,0l0,0l0,0c0.1,0.1,0.1,0.2,0.2,0.3
							l0,0c0.1,0,0.1,0.1,0.1,0.1c0,0,0,0.1,0,0.1c0,0,0.1,0,0.1,0.1c-0.1,0,0,0,0,0c0,0.1,0,0.1,0.1,0.1c-0.1,0,0,0.1,0,0.1l0-0.1
							c0,0,0,0.1,0,0.1l-0.1,0c0,0.2,0.2,0.2,0.2,0.3c0.1,0,0-0.1,0.1-0.1c0,0.1,0,0.2,0,0.2c0,0.1,0.1,0,0.1,0.1c0,0,0.1-0.1,0.1,0
							c0,0.1,0,0.1-0.1,0.1c0,0,0,0,0,0c0,0,0,0,0,0l0,0c0,0,0,0.1,0,0.1c0,0,0,0,0,0c0,0.1,0.1,0.1,0.1,0.2c0,0,0,0,0,0
							c0,0.1,0.1,0,0.1,0.1c0,0.1-0.1,0,0,0.1c0,0.1,0,0-0.1,0c0.1,0,0,0.1,0.1,0.2l0,0c0,0,0,0,0,0.1l0,0c0,0,0,0,0,0.1
							c0,0,0.1-0.1,0.1,0c0,0,0.1,0.1,0,0.1c0-0.1,0,0-0.1,0c0,0,0,0,0,0.1c0,0,0,0,0,0c0,0.1,0.1,0,0.1,0.1c0,0,0,0.1,0,0.1
							c0,0,0,0,0.1,0c0,0.1,0,0.1,0.1,0.1l0,0c0,0,0,0,0.1,0.1c0,0,0,0,0,0c0.1,0,0,0.1,0.1,0.2c0,0-0.1,0-0.1,0.1
							c0.1,0,0,0.1,0.1,0.1c0,0,0,0,0.1,0L24.2,54l0.1,0c0,0-0.1-0.1-0.1-0.1c0.1,0,0,0,0.1,0c0,0.1,0.1,0.1,0.1,0.2l-0.1,0.1
							c0,0.1,0.1,0.1,0.2,0.2l0,0c0,0,0,0.1,0.1,0.1c0,0,0,0,0,0.1c0,0,0,0.1,0.1,0.1l0,0.1c0,0.1,0.1,0,0.2,0.1c-0.1,0-0.1,0-0.1,0
							c0,0,0,0.1,0,0c0,0,0.1,0.1,0.1,0.1c0,0,0.1,0,0.1,0c0,0,0,0,0,0c0,0,0,0,0.1,0c-0.1,0.1,0.1,0.2,0.1,0.4
							c0,0.1,0.1,0.1,0.1,0.2c0,0,0,0,0,0c0,0.1,0.1,0,0.1,0.1c0,0.1-0.1,0-0.1,0c-0.1,0.1,0.1,0.1,0,0.2l0,0c0,0.1,0.1,0.1,0.1,0.2
							c0,0,0,0,0,0c0.1,0,0.2,0.1,0.2,0.2c-0.1,0,0,0-0.1,0c0,0,0.1,0,0.1,0c0,0,0,0.1-0.1,0.1l0-0.1c0,0.1,0,0.1,0,0.1l0,0
							c0.1,0.1,0.1,0.1,0.2,0.1l0,0c0.1,0,0,0.1,0.1,0.1l-0.1,0.1c0,0,0.1,0.1,0.2,0.1c-0.1,0-0.1-0.1-0.2-0.1c0,0,0.1,0.1,0.1,0.1
							c0,0,0,0,0,0c0.1,0,0.1,0.1,0.2,0.1c-0.1,0.1,0.1,0.2,0,0.3c0.1,0.1,0.1,0.3,0.2,0.4c0.1-0.1,0,0,0.1,0c0,0,0,0,0,0l0,0.1
							c0,0,0,0-0.1,0c0,0.1,0,0.1,0,0.1c0,0,0.1,0,0.1,0l0-0.1c0.1,0.1,0,0.1,0.1,0.2l-0.1,0c0,0,0.1,0.2,0.2,0.2c0,0,0,0,0,0
							c0.1,0.1,0.2,0.2,0.2,0.4l0,0c0,0,0.1,0,0.1,0.1c0,0,0,0,0,0c0,0,0.1,0,0.1,0.1l0,0c0,0.1,0.2,0.1,0.2,0.2c-0.1,0,0,0.1,0,0.2
							l0,0c0.1,0.1,0.2,0.2,0.3,0.3c0,0.1,0.1,0.3,0.1,0.5c0,0,0.1,0,0.1,0c0,0,0.1,0.1,0,0.1l0,0c-0.1,0.1,0,0.1,0,0.2l0.1,0
							c-0.1,0.2,0.2,0.3,0.2,0.4c0,0,0.1,0.1,0.1,0.1l0,0c0,0.1,0.1,0.1,0.1,0.2l0,0c0,0.1,0.2,0,0.2,0.1l-0.1,0.1
							c0.1,0.1,0.1,0.2,0.2,0.3c0,0,0,0,0,0c0,0.1,0.1,0.2,0.1,0.1c-0.1,0,0.1,0.1,0.1,0.2l-0.1,0c0.1,0,0.1,0,0.2,0.1c0,0,0,0,0,0
							c0,0.1,0.1,0,0.1,0.1l0,0c0,0.1,0,0,0.1,0.1c0,0,0,0.1,0,0.1c0,0,0.1,0,0.1,0c0,0,0,0,0,0c0,0.1,0.1,0.1,0.1,0.2c0,0,0,0,0,0
							c0-0.1-0.1-0.1-0.1-0.1c0,0,0,0.1-0.1,0.1c0.1,0,0.2,0.1,0.2,0.1c0,0,0,0,0,0l0,0c0,0,0,0,0,0c0,0,0,0,0,0.1c0,0,0,0.1,0,0.1
							c0,0,0.1,0,0.1,0c0,0,0,0,0,0c0,0,0,0,0,0l0,0c0,0,0,0,0-0.1c0,0,0.1,0,0.1,0.1c0,0,0.1,0,0.1,0c0,0.1,0,0.2-0.1,0.2
							c0.1,0.1,0.1,0.2,0.3,0.2c0,0,0,0,0,0.1c0,0,0,0,0,0c0.1,0,0.1,0.1,0.2,0.1c0,0.1-0.1,0,0,0.1l0,0c0,0.2,0.3,0.2,0.3,0.5
							c0,0,0,0,0,0c0.1,0.2,0.3,0.4,0.3,0.7c0,0.1,0.1,0.1,0.1,0.1l0,0l0.1,0c0.1,0.1,0,0.2,0.1,0.3l0,0c0,0,0.1,0.1,0,0.1
							c0,0,0,0,0,0l0,0l0.1,0.1c0,0.1-0.1,0-0.1,0.2c0,0,0.1,0.1,0.2,0.1c0,0,0-0.1,0-0.1l0,0c0.1,0,0.2-0.1,0.2-0.2l-0.1,0l0,0
							l0,0.1c0-0.1,0-0.1-0.1-0.1c0,0,0,0,0-0.1l-0.1,0c0,0,0.1,0,0.1-0.1c-0.1,0-0.1,0.1-0.1,0c0-0.1,0.1-0.1,0-0.1c0,0,0,0,0.1,0
							c0,0-0.1-0.1-0.1-0.1c0-0.1-0.1-0.1,0-0.1c0,0-0.1,0-0.1-0.1c0.1,0-0.1-0.1,0-0.2c-0.1,0-0.1-0.1-0.2-0.2c0,0,0,0,0,0
							c0,0,0-0.1,0-0.1c-0.1,0-0.1,0-0.2,0c0-0.1,0.1,0,0.1-0.1c-0.1,0-0.1-0.1-0.1,0c0-0.1,0,0,0-0.1c-0.1,0,0,0-0.1,0
							C29.8,63.5,29.9,63.5,29.9,63.4C29.8,63.4,29.9,63.4,29.9,63.4z M29,62.1L29,62.1C29,62.1,29,62.1,29,62.1
							C29,62.1,29,62.1,29,62.1z M28.9,61.9C28.9,62,28.9,62,28.9,61.9C28.9,62,28.9,62,28.9,61.9C28.9,62,28.9,62,28.9,61.9z
							 M28.7,62.4C28.7,62.4,28.7,62.4,28.7,62.4C28.7,62.4,28.7,62.4,28.7,62.4L28.7,62.4C28.7,62.4,28.7,62.4,28.7,62.4z"/>
						<path fill="#808181" d="M28.8,62.4L28.8,62.4C28.8,62.4,28.8,62.4,28.8,62.4L28.8,62.4L28.8,62.4z"/>
						<polygon fill="#808181" points="22.9,51.3 22.9,51.3 22.9,51.3 						"/>
						<polygon fill="#808181" points="28.1,60.2 28.1,60.2 28.1,60.2 						"/>
						<path fill="#808181" d="M22.7,50.5C22.7,50.5,22.7,50.5,22.7,50.5C22.7,50.5,22.7,50.5,22.7,50.5z"/>
						<path fill="#808181" d="M22.5,50.2L22.5,50.2C22.5,50.2,22.5,50.2,22.5,50.2z"/>
						<path fill="#808181" d="M22.4,50C22.4,50,22.4,50,22.4,50L22.4,50L22.4,50z"/>
						<path fill="#808181" d="M24.4,53.5C24.4,53.5,24.4,53.5,24.4,53.5C24.4,53.5,24.4,53.5,24.4,53.5z"/>
						<path fill="#808181" d="M23.7,52.5C23.7,52.5,23.7,52.5,23.7,52.5C23.8,52.5,23.7,52.5,23.7,52.5z"/>
						<polygon fill="#808181" points="25.1,54.6 25.1,54.6 25.1,54.7 						"/>
						<path fill="#808181" d="M23.8,52.6C23.8,52.5,23.8,52.5,23.8,52.6C23.8,52.5,23.8,52.6,23.8,52.6z"/>
						<polygon fill="#808181" points="21.9,49 21.9,49 21.9,49 						"/>
						<path fill="#808181" d="M21.9,49L21.9,49C21.9,49,21.9,49,21.9,49z"/>
						<path fill="#808181" d="M21.9,49L21.9,49C21.9,49,21.9,49,21.9,49z"/>
						<path fill="#808181" d="M22.1,49.3L22.1,49.3C22.1,49.3,22.1,49.3,22.1,49.3z"/>
						<path fill="#808181" d="M22.1,49.4C22.1,49.4,22.1,49.3,22.1,49.4L22.1,49.4C22.1,49.3,22.1,49.4,22.1,49.4z"/>
						<path fill="#808181" d="M22.1,49.9L22.1,49.9C22.1,49.8,22.1,49.8,22.1,49.9C22,49.9,22.1,49.8,22.1,49.9z"/>
						<path fill="#808181" d="M22.2,50.1C22.2,50.1,22.2,50.1,22.2,50.1C22.2,50.2,22.2,50.2,22.2,50.1z"/>
						<path fill="#808181" d="M23.1,51.8L23.1,51.8C23.1,51.9,23.1,51.8,23.1,51.8z"/>
						<polygon fill="#808181" points="23.5,52 23.5,52 23.5,52 						"/>
						<polygon fill="#808181" points="23.3,52.4 23.3,52.4 23.3,52.4 						"/>
						<path fill="#808181" d="M24.9,55.2L24.9,55.2C24.9,55.1,24.8,55.2,24.9,55.2z"/>
						<path fill="#808181" d="M25.6,56.4C25.5,56.4,25.5,56.5,25.6,56.4C25.6,56.4,25.6,56.4,25.6,56.4z"/>
						<polygon fill="#808181" points="27.5,60.1 27.4,60.1 27.5,60.1 						"/>
					</g>
				</g>
			</g>
		</g>
	</g>
</g>
</svg>
