<?xml version="1.0" encoding="utf-8"?>
<!-- Generator: Adobe Illustrator 23.1.0, SVG Export Plug-In . SVG Version: 6.00 Build 0)  -->
<svg version="1.1" id="Capa_1" xmlns="http://www.w3.org/2000/svg" xmlns:xlink="http://www.w3.org/1999/xlink" x="0px" y="0px"
	 viewBox="0 0 89.2 89.2" enable-background="new 0 0 89.2 89.2" xml:space="preserve">
<g>
	<path fill="#F8E8A1" d="M71.7,46.1c1.3-11.6-5.6-23.8-17.2-27.1c0-0.1-0.1-0.2-0.2-0.2c-10.6-3.1-21.9,0.8-28.8,9.1
		c-0.9,1-1.7,2.1-2.4,3.3c-0.1,0-0.2,0.1-0.1,0.2c-0.3,0.4-0.5,0.8-0.7,1.2c-0.1,0-0.1,0.1-0.1,0.1c-1.7,3.1-2.9,6.5-3.3,10.1
		c-0.2,1.5-0.1,2.9,0,4.2c-0.1,0.1,0,0.2,0,0.3c0.5,3.6,2,7,4.2,10.1c3.2,4.7,7.2,8.6,12.5,10.7c0.6,0.2,1.2,0.4,1.8,0.6
		c0,0.1,0.3,0.2,0.4,0.1c4.2,1.3,8.7,1.5,12.9,0.8c5.6-1,10.3-3.4,14-7.7C68.4,57.5,71,51.9,71.7,46.1z"/>
</g>
<g>
	<g>
		<g>
			<g>
				<g>
					<g>
						<path fill="#808181" d="M18.8,70.2c-0.6-0.1,0.3,0.2-0.4-0.1C18.5,70.1,18.6,70.1,18.8,70.2z"/>
						<path fill="#808181" d="M18.2,68.2c-0.8-2-0.5-4.9-0.8-7.2c0-0.3,0.2,0.1,0.2-0.5c-0.3-2.3,0.5-5.9,1.9-8.3l0,0.2
							c0.3-0.4,0.4-1.1,0.7-1.6c0,0,0,0.2,0.1,0.1c0-0.1,0.1-0.3,0.2-0.6c0.1-0.2,0.3-0.4,0.3-0.6c0.2-0.1,0.2-0.1,0.5-0.3l0.1-0.3
							c0.1-0.2,0.2-0.5,0.3-0.7c0.2-0.2,0.4-0.4,0.6-0.6c0.4-0.4,0.9-0.8,1.3-1.2c0,0.1-0.1,0.2,0,0.1c1.4-1.4,3.7-2.4,5.8-2.9
							c-0.1,0.1-0.1,0.2,0,0.2c0-0.2,0.8-0.3,1.3-0.4c0.1,0.1,0.3,0,0.5,0c0-0.3-0.1-0.7,0-0.9l0,0.1c-0.1-0.5,0.2-0.7,0-1.2
							l0.2-0.3c-0.2-0.3,0.3-0.7,0.2-1.1l-0.1,0c0-0.4,0.2-0.6,0.2-0.9l0,0c0.2-0.8,0.5-1.3,0.4-1.3c0.2-0.2-0.2,0.8,0.1,0.4
							c0.8-2.7,2.8-5.1,5.4-6.4c0.3-0.1,0.5-0.2,0.6-0.1c0.2-0.2,1-0.4,1.2-0.6c-0.1,0,0.2,0,0.3,0c0.5-0.1,0.5-0.4,1-0.4
							c-0.2,0.1-0.3,0.2-0.2,0.2c0.4-0.3,1.1-0.4,1.6-0.6c-0.1,0-0.2,0.1-0.2,0.1c0.6-0.3,1.1-0.2,1.7-0.3l-0.2,0.1
							c0.9,0.1,0.2-0.3,1-0.2c-0.2,0-0.1,0.1-0.1,0.1c0.3-0.1,0.7-0.2,1.1-0.2c0.1-0.4,0.1-0.8,0.1-1.2c0,0,0,0,0,0
							c0-0.4,0.1-0.8,0.2-1.2c0.1-0.4,0.2-0.8,0.3-1.2c0.1-0.3,0.2,0.2,0.4-0.6c-0.2-0.1,0.4-1.3,0-1c0.3-0.7,0.9-1.6,1.1-2
							c-0.1,0.3,0.4-0.2,0.1,0.4c0.1-0.1,0.2-0.2,0.3-0.3c0,0.1-0.3,0.4-0.1,0.3c0.1-0.3,0.6-1,0.7-1.2c0.1-0.2,0.2-0.5,0.4-0.8
							c0.1-0.3,0.3-0.6,0.6-0.9c-0.2,0.3,0.3,0,0.2,0.2c0.2-0.4,0.4-0.8,0.7-1.1c0.2-0.2,0.2,0.1,0.5-0.2c-0.1,0,0.1-0.2,0.2-0.3
							c0.1,0,1-0.7,1.2-0.6c0.1,0-0.4,0.3-0.1,0.2c0.5-0.3,0.5-0.3,0.9-0.6l0,0c0.3-0.1,0.9-0.5,0.5-0.5c-0.2,0.1,0.1,0.1-0.2,0.2
							c0.2-0.2,0.8-0.5,1.3-0.7c-0.2,0.1-0.1,0.1-0.2,0.2c0.6-0.4,1.4-0.7,2.1-1c0-0.1-0.2,0.3-0.4,0.2c1-0.2,2.1-0.7,3-0.6
							c-0.1,0-0.1-0.1-0.1-0.1c0.5-0.1,0.5,0.1,0.8,0c0,0.1,0.4-0.1,0.7-0.1c0.2-0.1,0.1,0-0.2,0.1c0.5-0.1,2.3-0.4,3.4-0.2
							c0-0.1,0.7-0.2,0.9-0.2l-0.1,0.1c0.2,0.1,0.8,0,0.9,0.1c0.5-0.2-2.1,0.1-1.3,0c0.2,0.1,1-0.2,0.8,0c0.5,0,1-0.1,1.5,0
							c-0.1,0-0.4,0.2,0,0.2c0.7,0,0.2-0.1,0.8-0.1l0.4,0c0-0.1,0.6,0.1,0.4-0.1c0.1,0.1,1,0.1,0.9,0.3l-0.1,0.2
							c0.3,0,0.5-0.1,0.8-0.2c0,0,0.1,0.1,0.1,0.1c0.1-0.2,0.7,0.1,1.1,0c0.1,0,0.2,0,0.2,0.1c0.1,0,0.2,0.1,0.3,0.1
							c0.3,0.1,0.6,0.1,0.8,0.2c0.1,0,0.3,0.1,0.4,0.1c0,0.1,0,0.2,0,0.4c0,0.2,0,0.4,0,0.5c0.1,0.3,0.1,0.6,0.2,0.9
							c0,0.2,0.1,0.5,0.1,0.8c0-0.1-0.1-0.3-0.1-0.3c0,0.4,0,0.4,0.1,0.8c0-0.1-0.1,0.7-0.1,1.1c0.1,0.5,0.2,0.3,0.3,0.3
							c-0.1,0.2,0,0.6,0,0.9c0,0.4,0.1,0.7,0,1c0-0.2-0.1-0.7-0.2-0.3c-0.3,0.5,0.2,0.9,0.1,1.6l0.2-0.2c-0.1,0.3,0.1,1.1-0.1,1
							c0.1,0.2-0.1,0.9,0.1,0.8c-0.2,1.2-0.2,2.9-0.6,3.6c0,0.2-0.1,0.6,0,0.5c0.2-0.3,0-0.4,0.1-0.5c0,0.2,0,0.2,0.1,0.2
							c-0.1,0.4-0.2,0.6-0.3,0.3c-0.3,0.8,0.2,0.9-0.2,1.9c-0.1-0.1-0.1,0-0.2,0.3l0,0.6c-0.2,0.7-0.3,0.3-0.4,0.3
							c-0.1,0.4-0.3,0.8-0.2,1l-0.3,0.4c0.2-0.3,0,0.3-0.1,0.5l0-0.2c-0.1,0-0.2,0.4-0.3,0.7c0.1,0,0.3-0.4,0.4-0.6
							c0,0.2-0.1,0.5-0.1,0.7c-0.1-0.1-0.1,0.1-0.2,0.2c-0.1,0.2-0.2,0.4-0.3,0.5c-0.2,0.3-0.1,0.4-0.1,0.5c-0.1,0-0.3,0.5-0.2,0.2
							c0-0.1,0.2-0.2,0.2-0.4c-0.2,0.2-0.3,0.1-0.4,0.5c-0.1,0.3,0.3,0.1-0.1,0.6c0.1-0.2,0-0.2,0-0.4l-0.4,0.5l0.1,0.1
							c-0.1,0.1,0,0-0.1,0c0,0.2-0.5,0.8-0.5,1c-0.2,0.3-0.5,0.5-0.7,0.7l0-0.1c-0.3,0.3-0.6,0.6-0.8,0.9l0,0
							c-0.2,0.1-0.5,0.5-0.6,0.7c-0.4,0.3-0.4-0.2-0.8,0.2c-0.4,0.3-0.5,0.6-0.3,0.6c-0.8,0.5-1.7,1.1-2.5,1.3
							c-0.1,0.1,0,0.1-0.3,0.2c-1.3,0.5-2.8,0.9-3.9,0.8c0.4-0.1,0-0.1,0-0.2c-0.2,0.1-0.3,0-0.3,0c0,0-0.1,0-0.1,0.1
							c0,0.1,0,0.1,0.1,0.1c0,0,0,0,0,0c0,0,0.1,0,0.2,0c-0.3,0-0.2,0-0.3,0.1c-0.1,0-0.1,0-0.2,0c0,0.1-0.1,0.3-0.1,0.4
							c0.1-0.1,0.1,0,0.1,0.1c-0.2-0.1-0.2,0.5-0.2,1l0.1,0.1c0,0.1-0.1,0.2-0.1,0.3c0,0.2,0.2,0.2,0,0.7c0,0-0.1,0-0.1,0.1
							c0,0.5,0.1,1.2-0.2,1.6l-0.3,0.3c-0.1,0.2-0.1,0.6,0.1,0.2c-0.2,0.4-0.3,0.7-0.5,1c-0.1,0.2-0.3,0.4-0.4,0.5
							c-0.3,1.6-1.8,3.4-3.2,4.4l0-0.1c-0.4,0.2-0.1,0.3-0.4,0.4c0.1-0.2-0.4,0.1-0.2-0.2c-0.6,0.3-0.6,0.6-1,0.9
							c0,0.1,0.3-0.2,0.3-0.1c0,0.1-0.9,0.4-0.9,0.6c-0.2,0-0.1-0.1-0.1-0.3c-0.1,0.1-0.2,0.2-0.3,0.3c-0.3,0,0-0.2,0.2-0.4
							c0.2-0.2,0.4-0.4,0.1-0.4L51.7,56c-0.4,0,0.7-0.7-0.1-0.3c-0.3,0.2-0.5,0.6-0.2,0.5c-0.7,0.4-0.2,0.5-1,0.9
							c-0.3,0,0.7-0.3,0.4-0.4c-0.4,0.1-0.8,0.4-1.1,0.5c0.4-0.1,0.1,0.2-0.1,0.3c-0.5,0.1,0.2-0.3-0.4,0c-0.1,0.1-0.6,0.4-0.1,0.3
							c-0.2,0.3-0.7,0.1-1,0.4c-0.2-0.1,0.6-0.5-0.2-0.4c0.2,0.1-0.8,0.4-0.4,0.5c-0.3,0-0.3-0.1-0.2-0.2c-0.4,0-0.9,0.5-1.1,0.2
							l-0.1,0.2c-0.1,0-0.3,0-0.5-0.1c-0.3,0-0.3,0.2-0.4,0.1c0,0,0,0-0.1-0.1c0,0.1-0.1,0.3,0.1,0.3c0.1,0,0-0.2,0.1-0.1
							c0,0,0.1,0,0.1,0.1c0,0,0,0-0.1,0c-0.1,0,0,0.2,0.1,0.2l-0.1,0c0,0.1-0.1,0.5,0,0.7c0-0.1-0.1-0.1-0.1,0l0.1,0.2
							c-0.1,0.7-0.3,0.1-0.5,0.8l0.1-0.5c0,0.1-0.2,0.3-0.3,0.6c0.1,0.2,0.1,0.4,0.2,0.6c-0.1,0.4-0.2,0.1-0.2,0.5
							c0-0.2,0-0.3,0-0.5c0-0.1-0.3,0.3-0.5,0.7c-0.1,0.3-0.1,0.9,0.1,0.4c-0.1,0.2-0.3,0.6-0.3,0.3c-0.2,0.6,0.2,0,0,0.5
							c-0.2,0.2-0.6,0.7-0.9,1l0.1-0.6L43,63.8c0.1-0.5-0.2,0.1-0.3-0.2c-0.1,0.2-0.2,0.5-0.3,0.7c0.6-0.4-0.1,0.9,0.2,0.8
							c-0.5,0.9-0.9,0.1-1.1,1.2c0.2-0.1,0,0.4,0.3-0.1c-0.4,0.5,0,0.5-0.6,1c0.3-0.5-0.6,0.2-0.2-0.4c0,0.1,0.3-0.3,0.4-0.4
							c-0.2,0.1-0.1-0.2-0.6,0.3c-0.2,0.3-0.6,0.7-0.4,0.7c0.1,0.1,0.4-0.4,0.3-0.2c-0.5,0.6-0.7,0.5-0.8,0.9
							c0.3-0.3,0.5-0.3,0.6-0.2l-0.4,0.4l0-0.1c-0.7,0.5-0.1,0.3-0.8,0.9L39,69.1c0-0.1,0.3-0.3,0.5-0.5c0.2-0.2,0.4-0.3,0.2-0.4
							c-0.4,0.4-0.5,0.6-1,0.8c0.1-0.1,0.2-0.2,0.3-0.3c-0.2,0.1-0.5,0-1.1,0.6c-0.3,0.3,0,0.1,0,0.2c-0.8,0.5-1,0.7-1.5,1
							c0-0.2-0.9,0.4-0.4,0c0.3,0,1.5-0.6,1.6-1c-0.4,0,0.6-0.3,0.6-0.7c-0.6,0.4-0.7,0.2-0.9,0.1c-0.2,0.1-0.3,0.2-0.4,0.3
							c0,0.2,0.2,0,0.3,0.2c-0.7,0.4-1.3,0.8-1.7,1.1c-0.3,0-0.2-0.1,0-0.3c-0.8,0.4-1.8,0.7-2.7,0.9c0.6,0.1-0.9,0.3-0.5,0.4
							c0.5-0.1,0.9,0,0.7,0.2c-0.3,0.1,0-0.1-0.2-0.1c-0.3,0.2-0.6,0-0.9,0.2c0.8-0.3,0.1-0.3,0.2-0.5c-0.6,0.2,0-0.1-0.6,0
							c-0.6,0.2-1.3,0.4-2,0.5c-0.9-0.1-2.1,0.2-2.9,0.2c-0.4-0.1-0.1-0.3-0.6-0.3c-0.5,0,0.4,0.2-0.4,0.1l0.1,0
							c-0.2,0.1-1.3-0.2-1.6,0.1l0.2-0.2c-0.1,0-0.3,0-0.4,0c0-0.1-0.2-0.2,0.1-0.2c-0.4-0.2-1-0.1-1.4-0.1l0.3,0.2
							c-0.9,0-1.4-0.2-2.2-0.3l0-0.1l-0.5,0c0.1-0.1-0.3-0.3-0.6-0.2c0.4,0,0.9,0,1.3-0.1c0.3,0.1-0.4,0.1-0.2,0.3
							c0.2,0.1,0.9,0.2,1.1,0.1c-0.3-0.1-0.3,0-0.5,0C21.6,71,22,71.1,22.3,71c-0.1,0-0.4-0.1-0.4,0c0.3,0,0.6,0,1.1,0
							c-0.3,0,0.2,0.1,0,0.2c0.1-0.2,0.5-0.1,1.1,0c0.4,0.2,1.1,0,1.8,0c-0.3,0.2-0.7,0.3-1.1,0.3c0.4,0.1,0.5,0,0.9,0.1
							c0.2-0.1,0.4-0.3,1-0.4l0,0.1c0.5-0.1,0.5-0.2,1.2-0.2c1.1,0,2.3-0.1,3.1-0.2l0.1,0.1c0.2-0.2,0.6-0.3,1-0.4
							c0.4-0.1,0.8-0.2,1.1-0.3c1.1-0.2,2.2-0.9,2.8-1c1.7-1,3-2,4.3-3.5l-0.1,0.4c0.1-0.3,0.2-0.1,0.4-0.4
							c-0.4,0.2,0.2-0.5,0.2-0.8c0.6-0.6,1.1-1.7,1.3-2.4l0.1,0c0.1-0.4,0.2-0.8,0.4-1.2c0.2-0.4,0.4-0.8,0.6-1.3
							c0.1-0.1,0.2-0.2,0.3-0.5c0-0.3,0-0.5,0-0.7c0-0.1,0-0.2,0-0.4c0-0.2,0.1-0.5,0.1-0.8c0-0.2,0.1-0.4,0.2-0.6
							c0.4,0,0.9,0,1.3-0.1c0.3,0,0.6,0,0.8,0c2.1-0.6,4.2-1.2,6-2.5l0.2,0c0.4-0.4,0.8-0.7,1.2-1.1c0.4-0.4,0.8-0.8,1.2-1.2
							c0.3-0.5,0.7-0.8,1-1.3c0.2-0.5,0.5-0.9,0.7-1.3l0.1,0.3c0.3-0.5,0.4-1.2,0.2-1.1c0.1-0.3,0.2-0.6,0.3-0.9
							c0-0.3,0.1-0.6,0.2-0.8c0.1-0.6,0-0.7,0.1-1.2c0-0.2,0-0.4,0.1-0.6c0-0.2,0-0.4,0-0.6c0-0.6,0.1-1.1,0.1-1.9
							c0.2,0,0.5,0,0.9,0l-0.5,0c-0.2,0-0.1,0.2,0.4,0.2c0.2,0,0.4,0,0.7,0c0.1,0,0.3,0,0.4,0c0.1,0,0.2,0,0.2,0
							c0.3,0,0.4-0.1,0.2-0.2c1.2,0.1,2.6-0.6,3.7-0.8c-0.1,0,0.1-0.2,0.2-0.3c0.4-0.2,0.9-0.4,1.4-0.6c0.4-0.3,0.8-0.5,1.1-0.8
							c0.2-0.1-0.1,0.3,0.2,0c0.2-0.2-0.1-0.1,0.1-0.3c0.3-0.3,0.6-0.6,0.9-0.9c0.3-0.3,0.5-0.6,0.8-0.9c0.3-0.3,0.6-0.6,0.8-0.9
							c0.2-0.3,0.4-0.7,0.6-1l0.5-0.9l0.3-1l0.3-1c0.1-0.3,0.2-0.6,0.3-1c0.3-1.3,0.7-2.7,0.7-4l0.1,0c-0.2-0.9,0.5-2,0.1-2.8
							c0.1-0.2,0-0.8,0.1-0.6c-0.2-0.7,0.1-2-0.1-3c0,0.1,0,0.1,0,0.3c0-1-0.2-1.9-0.2-3.1c0,0.1,0.1,0.3,0.1,0.3
							c0.1-0.4-0.3-1-0.1-1.2c0-0.1,0-0.1-0.1-0.1c0,0-0.1,0-0.1,0.1l0-0.4c-0.1-0.1-0.2-0.1-0.3-0.1c-0.5-0.1-1.2-0.2-1.8-0.2
							c-1.2-0.1-2.5-0.2-3.8-0.2c-1.8-0.2-0.1-0.5-1.5-0.3c-0.1-0.1-0.1,0.1-0.1,0c-0.5,0.1-0.9-0.3-1.2-0.1
							c0.2,0.2-0.2,0.1-0.3,0.2c-1.1-0.1-1.3-0.2-2.2,0l0.1-0.1c-1,0.4-2.1,0.4-2.9,0.9c-2.6,0.6-5.1,1.8-6.9,3.5
							c-1.9,1.7-3,4-3.6,6.6c-0.1,0.4-0.2,0.8-0.2,1.2c-0.1,0.8-0.2,1.6-0.3,2.3c-0.6,0-1.2,0-1.7,0l-0.6,0l-0.4,0
							c-0.5,0-1.1,0.1-1.6,0.2c-1,0.2-2.1,0.5-3,0.9c-1.9,0.8-3.6,2.1-4.9,3.8c-0.8,0.9-0.9,1-1.3,2.2c0-0.1,0-0.1-0.1-0.1
							c0.2,0.1-0.4,0.9-0.2,1.1c-0.2,0.7-0.4,1.4-0.4,2.1c-0.1,1.1-0.2,2.1-0.2,3.2c-0.5,0-0.9,0-1.4,0c-0.6,0-0.7,0.1-1,0.1
							c0.3-0.1,0.4-0.2,0.1-0.2c-0.1,0.1-0.2,0.1-0.4,0.2l-0.1,0c-0.2,0.1-0.5,0.2-0.2,0.2c-2.4,0.5-4.6,1.7-6.3,3.3
							c-1.7,1.6-3,3.8-3.7,6.2c-0.3,0.5-0.3,1.3-0.5,2c-0.1,0.7-0.3,1.4-0.2,2.1c-0.1,1-0.3,1.9-0.3,2.8c0,0.9,0,1.9,0,2.8
							c0,0.9,0.1,1.9,0.3,2.8c0.1,0.9,0.3,1.9,0.5,2.9C19.1,70.2,18.6,69.8,18.2,68.2z"/>
						<path fill="#808181" d="M19.6,70.4c0.1,0.1,0.6,0.3,0.2,0.3C19.7,70.6,19.5,70.5,19.6,70.4z"/>
						<path fill="#808181" d="M31.9,71.7c0,0,0.2,0,0.2,0c-0.2,0-0.3,0.1-0.4,0.1C31.9,71.8,31.9,71.8,31.9,71.7z"/>
						<path fill="#808181" d="M35.1,70.9c0,0.1-0.7,0.4-1.1,0.5C34.4,71.2,34.8,71.1,35.1,70.9z"/>
						<path fill="#808181" d="M38,69.8c0.3-0.1,0.2,0-0.1,0.2C37.9,70,38,69.9,38,69.8z"/>
						<path fill="#808181" d="M38.1,69.5c0.2-0.1,0.3-0.2,0.5-0.2C38.6,69.3,38.1,69.7,38.1,69.5z"/>
						<path fill="#808181" d="M43,64.8c0.1-0.1,0.2-0.5,0.4-0.6C43.3,64.4,43.1,65,43,64.8z"/>
						<path fill="#808181" d="M44.3,62c0-0.1,0.1-0.1,0.1-0.2c0.1-0.2,0.1,0,0,0.2L44.3,62z"/>
						<polygon fill="#808181" points="73.6,23.6 73.6,23.9 73.5,23.9 						"/>
						<path fill="#808181" d="M55.2,17c-0.3,0.2-0.2,0-0.3,0C55.2,16.9,54.9,17.1,55.2,17z"/>
						<polygon fill="#808181" points="46.3,26.1 46.4,26 46.5,26.1 						"/>
					</g>
				</g>
			</g>
		</g>
	</g>
	<g>
		<g>
			<g>
				<g>
					<g>
						<path fill="#808181" d="M65.5,30.5C65.5,30.5,65.6,30.5,65.5,30.5L65.5,30.5L65.5,30.5z"/>
						<path fill="#808181" d="M65.6,30.1c0-0.1-0.1-0.2-0.1-0.1C65.5,30,65.5,30,65.6,30.1c0,0.1,0,0.2-0.1,0.2c0,0,0,0.1,0,0.1
							C65.6,30.3,65.6,30.2,65.6,30.1C65.6,30,65.6,30,65.6,30.1z"/>
						<path fill="#808181" d="M62.7,24.6L62.7,24.6C62.7,24.6,62.7,24.6,62.7,24.6z"/>
						<path fill="#808181" d="M59,23.3C59,23.3,59,23.3,59,23.3C59,23.3,59,23.3,59,23.3z"/>
						<path fill="#808181" d="M58.3,23.2C58.3,23.2,58.3,23.2,58.3,23.2C58.3,23.2,58.3,23.2,58.3,23.2z"/>
						<path fill="#808181" d="M62.7,24.6L62.7,24.6C62.6,24.5,62.7,24.6,62.7,24.6z"/>
						<path fill="#808181" d="M65.4,29.2C65.4,29.2,65.4,29.3,65.4,29.2L65.4,29.2L65.4,29.2z"/>
						<path fill="#808181" d="M64,25.8L64,25.8C64.1,25.8,64.1,25.8,64,25.8L64,25.8z"/>
						<path fill="#808181" d="M64.8,26.9C64.8,26.8,64.8,26.9,64.8,26.9C64.8,26.9,64.8,26.9,64.8,26.9
							C64.8,26.9,64.8,26.9,64.8,26.9z"/>
						<path fill="#808181" d="M65.5,28.9L65.5,28.9L65.5,28.9z"/>
						<path fill="#808181" d="M63.4,25.1C63.4,25.1,63.4,25,63.4,25.1C63.4,25,63.4,25,63.4,25.1z"/>
						<path fill="#808181" d="M65.2,32L65.2,32C65.2,32,65.2,32,65.2,32z"/>
						<polygon fill="#808181" points="65.7,30.5 65.7,30.5 65.7,30.5 						"/>
						<path fill="#808181" d="M57,23.2L57,23.2C57.1,23.2,57.1,23.2,57,23.2z"/>
						<path fill="#808181" d="M51.3,32c0-0.1,0.1,0.2,0.1,0C51.4,32.1,51.3,31.9,51.3,32z"/>
						<path fill="#808181" d="M65.4,29.2L65.4,29.2C65.4,29.2,65.4,29.2,65.4,29.2z"/>
						<polygon fill="#808181" points="51.4,32 51.4,32 51.4,32 						"/>
						<path fill="#808181" d="M54.4,24.4C54.4,24.4,54.4,24.4,54.4,24.4C54.4,24.4,54.4,24.4,54.4,24.4z"/>
						<path fill="#808181" d="M56.3,23.5L56.3,23.5C56.3,23.5,56.3,23.5,56.3,23.5z"/>
						<path fill="#808181" d="M53.5,25.2C53.5,25.2,53.5,25.2,53.5,25.2C53.5,25.2,53.5,25.2,53.5,25.2
							C53.5,25.2,53.5,25.2,53.5,25.2z"/>
						<polygon fill="#808181" points="52.8,26 52.8,26 52.8,26 						"/>
						<path fill="#808181" d="M63.8,34.9C63.8,34.9,63.8,34.9,63.8,34.9C63.8,34.9,63.9,34.8,63.8,34.9z"/>
						<path fill="#808181" d="M65.4,29.2C65.4,29.2,65.4,29.2,65.4,29.2L65.4,29.2C65.4,29.2,65.4,29.2,65.4,29.2z"/>
						<path fill="#808181" d="M53.8,25.5l-0.1,0.1C53.7,25.6,53.8,25.6,53.8,25.5z"/>
						<path fill="#808181" d="M56.6,37.1L56.6,37.1C56.6,37.1,56.6,37.1,56.6,37.1z"/>
						<path fill="#808181" d="M53.3,26C53.3,26,53.3,26,53.3,26C53.2,26.1,53.2,26.1,53.3,26L53.3,26z"/>
						<path fill="#808181" d="M63.8,34.9L63.8,34.9L63.8,34.9z"/>
						<path fill="#808181" d="M64.4,33.9c-0.1,0.1,0,0.1,0,0.2c-0.1,0.2-0.1,0.1-0.2,0.1c0,0.1,0,0.2-0.1,0.3c0,0,0,0,0,0
							c0,0.1-0.2,0.3-0.3,0.5c0,0,0,0,0,0c0,0,0.1,0,0.1,0c-0.1,0.1-0.1,0.1-0.1,0.1c0,0,0,0,0-0.1l0,0.1c-0.1,0,0.1-0.1,0-0.1
							c-0.1,0.1-0.2,0.3-0.3,0.4c-0.1,0,0.2-0.2,0-0.1l0.1-0.1c-0.2,0,0.1-0.1-0.1-0.1c-0.2,0.2-0.1,0.2-0.3,0.4c0,0.1,0.1,0,0,0.1
							c-0.2,0.3-0.3,0.1-0.4,0.3c0,0.1,0,0.2-0.2,0.2l0-0.1c-0.2,0.1,0,0.2-0.3,0.3c0,0,0.1-0.1,0.1-0.1c-0.2,0-0.1,0.1-0.2,0.2
							l-0.1,0c-0.2,0.1-0.4,0.3-0.6,0.5c0,0,0-0.1,0-0.1c-0.3,0.2-0.7,0.3-1,0.4l-0.1,0.1c0,0-0.1,0,0,0c-0.1,0,0,0,0,0.1
							c-0.1,0-0.1,0-0.1,0c-0.2,0.1-0.6,0.3-0.9,0.2l0,0c-0.2,0-0.2,0.1-0.4,0.1l0,0c-0.4,0-0.9,0.1-1.2,0c-0.1,0.1-0.4-0.1-0.4,0
							c-0.2-0.1-0.2-0.1-0.5-0.2c-0.1,0-0.1,0-0.2,0l0-0.1l-0.2,0l-0.1-0.1l-0.1,0c0,0,0.1,0,0.1,0.1c-0.2,0-0.4-0.1-0.4-0.2
							L56,36.9c0,0,0.1,0,0.1,0c-0.2,0,0-0.1-0.2-0.1c0,0,0,0,0,0c-0.1-0.1-0.3-0.2-0.4-0.2l0,0c-0.2-0.1-0.5-0.3-0.8-0.4
							c0.1,0.1,0,0.1-0.1,0.1l0-0.1c-0.1,0,0.1,0.1-0.1,0c-0.1-0.1,0-0.1,0-0.1l-0.1-0.1c0,0,0,0,0.1,0c-0.1,0-0.2-0.2-0.3-0.2l0,0
							c-0.3-0.2-0.4-0.3-0.5-0.4c0,0-0.1,0-0.2-0.1c-0.1-0.2-0.2-0.3-0.4-0.5c-0.1-0.1-0.1,0-0.1,0c0,0-0.1-0.2,0-0.1
							c-0.2-0.2-0.2-0.3-0.4-0.5c0,0,0,0.1,0,0.1c0,0-0.1-0.1,0-0.1l0,0c-0.3-0.3-0.3-0.8-0.5-1.1l0,0L52,32.8c0-0.1,0.1,0.1,0.1,0
							c-0.2-0.3-0.1-0.5-0.3-0.8c0.1-0.2-0.2-0.8-0.1-1.1l0,0c0-0.1,0-0.1,0-0.1c0,0,0,0.1,0,0c-0.1-0.6,0.1-1.3,0.3-1.9
							c0.1-0.2-0.1-0.2,0-0.4l0,0.1c0.1-0.5,0.3-0.9,0.5-1.4c0,0,0,0,0,0.1c0.1-0.1,0.2-0.3,0.2-0.3c0-0.1,0,0,0.1,0
							c0.1-0.1,0.1-0.2,0.2-0.3c0,0,0,0,0,0c0-0.1,0.2-0.2,0.1-0.2c0.1-0.1,0.2-0.3,0.3-0.4c0-0.1,0.2-0.2,0.2-0.3
							c0.1,0.1,0.3-0.2,0.3-0.3c0,0,0.1,0,0.1,0c0.1-0.1,0.2-0.2,0.1-0.2c0.2-0.1,0.3-0.4,0.5-0.3c0.3-0.3,0.6-0.5,0.9-0.7
							c0,0.1-0.3,0.2-0.3,0.3c0.3-0.2,0.4-0.3,0.7-0.5c0.1,0,0,0.1,0,0.1c0.3-0.2,0.6-0.2,0.9-0.4c0,0,0,0-0.1,0
							c0.1,0,0.1,0,0.1-0.1l-0.1,0c-0.1,0,0.2-0.2,0.2-0.2c-0.1,0.1,0.3,0,0.2,0.1c0,0,0.1,0,0.1-0.1c0.1,0,0.1,0,0,0
							c0.2-0.1,0.1-0.1,0.3-0.1c0,0,0,0,0,0.1c0.1-0.1,0.2-0.1,0.3-0.1c0,0,0,0,0,0c0.3-0.1,0.5-0.1,0.8-0.1c-0.1,0.1,0.1,0,0.1,0.1
							c0.1,0,0.1,0,0.2,0l-0.1,0c0.1,0,0.3,0,0.4,0l-0.1,0l0.3,0l-0.1,0c0.1,0,0-0.1,0.2-0.1c0,0,0.1,0,0.2,0.1l0,0
							c0.1,0,0.1,0,0.2,0c0,0,0,0.1,0,0.1c0.1,0,0.3,0,0.4,0c0,0,0,0,0,0.1l0.1,0c0.1,0,0.1,0,0.1,0.1c0.2,0.1,0-0.1,0.2,0
							c0,0,0,0-0.1,0c0.2,0.1,0.5,0.1,0.6,0.2c0,0.1-0.2,0-0.1,0c0.3,0.1,0.6,0.1,0.9,0.3l0,0c0.1-0.1,0.2,0.1,0.3,0.2
							c0,0-0.1,0-0.1,0c0.2,0.1,0.4,0.2,0.7,0.3l0,0c0.1,0.1,0.2,0.2,0.3,0.3c0,0,0.1,0.1,0.1,0c0.2,0.4,0.6,0.4,0.8,0.8
							c0,0-0.1-0.1-0.1,0l0.2,0.2c0,0,0,0,0-0.1c0,0,0.1,0.1,0.2,0.1c-0.1-0.1-0.1,0,0,0.1c0,0,0,0,0,0c0,0.2,0.1,0,0.2,0.2l0,0
							c0.1,0.1,0.1,0.1,0.2,0.2c0,0.1-0.1-0.1-0.1,0c0.1,0.1,0.2,0.1,0.2,0.3c0,0-0.1-0.1-0.1-0.1c0,0.1,0,0.1,0.1,0.2l0,0l0.1,0.2
							l0-0.1c0.2,0.1,0.2,0.3,0.4,0.4c-0.2-0.1-0.1,0-0.1,0c0,0.1,0,0.1,0,0.1c0.1,0.1,0,0.2,0.2,0.3c0,0,0,0.1,0,0.1
							c0.1,0.1,0,0,0,0c0.1,0.2,0.1,0.5,0.3,0.7c0.1,0.2,0.2,0.3,0.3,0.5c0,0.1-0.1,0-0.1,0c0,0.1,0,0.2,0.1,0.3c0,0,0,0,0,0
							c0,0.1,0.1,0,0.1,0.2c0,0-0.1,0-0.1-0.1c0,0.1,0.1,0.2,0.1,0.3c0,0-0.1-0.1-0.1-0.1c0,0.1,0.1,0.3,0.1,0.4l0-0.1
							c0,0,0,0-0.1,0c-0.1-0.1,0-0.2,0-0.2l0,0.1c0.1-0.1-0.1-0.3-0.1-0.5l0.1,0.1l-0.1-0.2c0,0,0.1-0.1,0.1,0c0-0.1-0.1-0.1,0-0.2
							c0,0,0,0,0,0l-0.1-0.1c0,0,0.1,0,0.1,0c0-0.2-0.1-0.3-0.1-0.4l0,0c-0.1-0.3-0.1,0-0.2-0.2l0.1-0.2l-0.1,0c0,0,0-0.1,0-0.1
							c-0.1-0.1,0,0-0.1,0c0-0.2-0.2-0.4-0.1-0.4c-0.1,0,0,0.1-0.1,0c0.1-0.1-0.1-0.2-0.1-0.3c0.1,0,0.1,0.1,0.1,0
							c-0.1,0-0.1-0.2-0.2-0.3c-0.1,0-0.2-0.2-0.3-0.3c0,0-0.2-0.3-0.3-0.5l0,0c-0.1,0-0.2-0.1-0.3-0.2c0,0,0.1,0,0.1,0L64,25.8
							c0,0-0.1,0-0.1-0.1l0.1,0c-0.1-0.1-0.3-0.2-0.4-0.4c0,0,0,0.2-0.2,0.1c0,0,0-0.1,0.1,0c0,0-0.1,0-0.1-0.1l0.1,0
							c-0.1-0.1-0.1,0-0.1-0.1c0,0,0-0.1,0-0.1c0,0,0,0.1,0.1,0.1c-0.1-0.1-0.1-0.2-0.1-0.2c0,0,0,0-0.1,0c-0.1-0.1,0-0.1-0.1-0.2
							c0,0-0.1-0.1-0.2-0.1c0,0,0-0.1,0-0.1c-0.1,0-0.3-0.2-0.3-0.1l0,0l0,0l0,0l0,0c-0.2-0.1-0.5-0.3-0.7-0.5l0,0
							c-0.2-0.1-0.3-0.2-0.5-0.2c0,0-0.1-0.1-0.1-0.1c-0.1,0-0.1,0-0.3-0.1c0.1,0,0,0,0.1,0c-0.1-0.1-0.2-0.1-0.4-0.1
							c0.1,0-0.1-0.1-0.2-0.1l0.1,0.1c-0.1,0-0.2-0.1-0.2-0.1l0.1,0c-0.3-0.2-0.6,0-0.9-0.2c-0.1,0,0.2,0.1,0.1,0.1
							c-0.2,0-0.3-0.1-0.3-0.2c-0.2-0.1-0.2,0.1-0.4,0c0,0,0,0.1-0.1,0.1c-0.2,0-0.2-0.1-0.1-0.1c0,0,0.1,0,0.1,0c0.1,0,0.1,0,0.1,0
							l0,0c-0.1,0-0.3,0-0.2-0.1c-0.1,0-0.1,0,0,0.1c-0.2,0-0.3,0-0.5,0c0,0,0.1,0,0,0c-0.3,0-0.1,0.1-0.3,0.1c-0.1,0,0-0.1-0.2,0
							c-0.1,0,0-0.1,0-0.1c-0.2,0-0.4,0-0.5,0l0.1,0c-0.1,0-0.1,0-0.2,0l0.1,0c-0.1,0-0.1,0-0.1,0c-0.1,0,0.1,0.1-0.1,0.1
							c-0.1,0-0.2,0.1-0.3,0c0.2,0,0-0.1,0.2-0.1c0,0-0.1,0-0.1,0c0,0,0,0,0,0c-0.2,0-0.1,0.1-0.3,0.2c0,0-0.1,0-0.1,0
							c0.1,0,0.1,0,0,0.1c-0.2,0-0.2,0.1-0.2,0.1l0.1,0c0,0-0.1,0.1-0.2,0.1c0,0,0.1-0.1,0,0c-0.1,0.1-0.3,0-0.4,0.1
							c-0.1,0,0-0.1-0.1,0c-0.2,0.1-0.2,0-0.4,0.2c0.1,0,0.1,0,0,0.1l0.3-0.2l-0.2,0.2c0.1,0,0.2-0.1,0.2-0.1
							c-0.1,0.1-0.1,0.1,0,0.1c-0.1,0-0.2,0.2-0.4,0.2l0-0.1c-0.2,0.1-0.3,0.2-0.6,0.4l0.1,0c0,0.1-0.2,0.1-0.2,0.2c0,0-0.1,0-0.1,0
							c0,0-0.2,0.1-0.2,0.2l-0.1,0c-0.2,0.1-0.2,0.2-0.3,0.4c0-0.1-0.1,0,0-0.2C53.7,25,53.7,25,53.7,25c-0.1,0-0.1,0.2-0.2,0.2
							c0,0,0,0.1-0.1,0.1c0,0,0,0,0,0c0,0-0.1,0.1,0,0.1c-0.2,0.1-0.5,0.5-0.6,0.6c-0.1,0.1-0.2,0.3-0.3,0.4c0,0,0,0,0,0
							c-0.1,0.2,0,0.2-0.1,0.4c-0.1,0.1,0-0.1,0-0.1c-0.1,0-0.1,0.3-0.3,0.4l0,0c-0.1,0.1-0.1,0.3-0.2,0.5c0,0,0,0,0,0
							c0,0.1-0.1,0.4-0.1,0.6c0-0.1,0-0.1-0.1-0.1c0,0.1,0.1,0,0,0.2c0,0-0.1,0.2-0.2,0.2c0-0.1,0-0.1,0.1-0.2
							c-0.1,0.1-0.1,0.2-0.1,0.3l0,0c-0.1,0.3,0,0.3-0.1,0.5l0,0c0,0.2-0.1,0.1,0,0.3l-0.1,0c0,0.1,0,0.4,0,0.5
							c-0.1-0.1,0-0.3-0.1-0.4c0,0.1,0,0.3,0,0.4c0,0,0-0.1,0-0.1c0,0.1,0.1,0.3,0.1,0.5c-0.1,0-0.1,0.5-0.2,0.6
							c0.1,0.3,0,0.7,0.1,1.1c0.1-0.2,0,0.1,0.1,0.1c0,0.1,0,0.1,0,0.1l0,0.3c0,0.1,0-0.1-0.1-0.1c0,0.2,0,0.1,0,0.2
							c0,0,0.1,0.1,0.1,0.2l0-0.2c0.1,0.3,0,0.3,0.1,0.5l-0.1-0.1c0.1,0.1,0.2,0.5,0.4,0.6c0,0,0,0.1-0.1,0c0.1,0.3,0.5,0.7,0.6,0.9
							l0,0c0,0.1,0.1,0.1,0.1,0.2c0,0,0,0,0,0c0,0,0.1,0.1,0.2,0.2l-0.1,0c0.2,0.3,0.4,0.4,0.6,0.6c-0.1,0.1,0.1,0.3,0.2,0.4l0,0
							c0.3,0.3,0.6,0.4,0.9,0.6c0.1,0.2,0.6,0.5,0.9,0.7c0,0,0-0.1,0.1,0c0.1,0.1,0.2,0.1,0.2,0.1l0,0c0,0.1,0.2,0.2,0.3,0.2
							l0.1-0.1c0.3,0.3,0.9,0.2,1.1,0.4c0.1,0,0.2,0,0.3,0l0,0.1c0.2,0,0.4,0.1,0.7,0.1l-0.1,0c0.2,0,0.2-0.1,0.4-0.1l0,0.1
							c0.3,0,0.6,0.1,0.9,0c0,0,0,0-0.1,0c0.1,0,0.6,0,0.5-0.1c0,0.1,0.3,0,0.5-0.1l0,0.1c0.1-0.1,0.1-0.1,0.3-0.2c0,0,0,0,0,0
							c0.2,0,0.1-0.1,0.3-0.1l-0.1,0c0.1,0,0.1,0,0.2-0.1c0.1-0.1,0.3-0.1,0.3,0c0,0,0.1-0.1,0.2-0.1c0,0,0,0,0,0
							c0.3,0,0.3-0.2,0.5-0.2c0,0,0,0,0,0c-0.2,0.1-0.3,0.2-0.3,0.1c0,0,0.2,0,0.1,0.1c0.1-0.1,0.3-0.3,0.4-0.3c0,0,0,0,0,0l0,0
							c0,0,0.1,0,0.1-0.1c0,0,0.1,0,0.1-0.1c0,0,0.2-0.1,0.2-0.1c0,0,0.1-0.1,0-0.1c0,0,0,0-0.1,0c0,0,0,0,0,0l0,0
							c0,0-0.1,0.1-0.2,0.1c0-0.1,0.1-0.1,0.2-0.1c0-0.1,0-0.1,0.1-0.1c0.1,0,0.3-0.1,0.4-0.1c0.2-0.2,0.5-0.4,0.5-0.6
							c0-0.1,0.1,0,0.1,0c0,0-0.1,0.1-0.1,0.1c0.1-0.1,0.3-0.3,0.3-0.4c0.2-0.1,0,0.1,0.1-0.1l0,0c0.4-0.3,0.4-0.7,0.8-1
							c0,0,0,0-0.1,0c0.4-0.5,0.6-1.1,0.9-1.6c0.1-0.2,0-0.2,0-0.3l0.1,0l0-0.2c0-0.3,0.3-0.4,0.2-0.7l0,0c0-0.1,0-0.4,0.1-0.3
							c0,0,0,0,0-0.1l0,0c0-0.1,0-0.2,0-0.3c0-0.2,0.1,0,0.1-0.3c0-0.1-0.1-0.3-0.1-0.3c0,0,0,0.1-0.1,0.1l0-0.1
							c-0.1,0-0.2-0.1-0.3,0.2l0,0.2l0,0.1l0-0.2c0,0.1,0,0.1,0,0.2c0,0,0,0-0.1,0.1l0.1,0.2c0,0-0.1-0.1-0.1,0
							c0,0.1,0.1-0.1,0.1,0.1c-0.1,0.1-0.1,0.1-0.1,0.2c0,0,0,0,0-0.1c0,0.1,0,0.2,0,0.3c-0.1,0.1,0,0.3-0.1,0.3c0,0,0,0.2,0,0.2
							c-0.1-0.2-0.1,0.3-0.2,0.2c0.1,0.1-0.1,0.4-0.1,0.6c0,0,0,0,0-0.1c0,0.1-0.1,0.1-0.1,0.2c0.1,0,0,0.2,0,0.3
							c-0.1,0.1,0-0.1-0.1-0.1c0.1,0,0,0.2,0,0.2c-0.1,0.1-0.1,0.1-0.1,0.1c0.1,0.1,0,0.1,0,0.2C64.5,34,64.5,33.9,64.4,33.9
							C64.4,34.1,64.4,33.9,64.4,33.9z M61.7,36.7L61.7,36.7C61.7,36.7,61.8,36.7,61.7,36.7C61.8,36.7,61.8,36.7,61.7,36.7z
							 M61.4,36.8c0,0,0.1,0,0.1-0.1c0,0,0,0,0,0C61.5,36.8,61.5,36.8,61.4,36.8z M62.2,36.8C62.2,36.9,62.2,36.9,62.2,36.8
							C62.2,36.9,62.2,36.8,62.2,36.8L62.2,36.8C62.2,36.8,62.2,36.8,62.2,36.8z"/>
						<polygon fill="#808181" points="62.3,36.7 62.3,36.7 62.3,36.7 62.3,36.7 						"/>
						<polygon fill="#808181" points="62.7,24.6 62.7,24.6 62.7,24.7 						"/>
						<polygon fill="#808181" points="57,37.2 57,37.2 57,37.2 						"/>
						<path fill="#808181" d="M64,26.1C64,26.1,64,26.1,64,26.1C64,26.1,64,26.1,64,26.1z"/>
						<path fill="#808181" d="M64.4,26.7l0,0.1C64.4,26.8,64.4,26.7,64.4,26.7z"/>
						<path fill="#808181" d="M64.7,27.2C64.7,27.2,64.7,27.2,64.7,27.2L64.7,27.2L64.7,27.2z"/>
						<path fill="#808181" d="M56.5,23.9L56.5,23.9C56.4,23.9,56.5,23.9,56.5,23.9z"/>
						<path fill="#808181" d="M59.3,23.5C59.3,23.5,59.3,23.5,59.3,23.5C59.3,23.5,59.3,23.5,59.3,23.5z"/>
						<polygon fill="#808181" points="53.8,25.5 53.8,25.5 53.8,25.5 						"/>
						<path fill="#808181" d="M59.1,23.5c0.1,0,0.1,0,0.1,0C59.2,23.5,59.1,23.5,59.1,23.5z"/>
						<polygon fill="#808181" points="65.4,29.7 65.4,29.8 65.4,29.8 						"/>
						<path fill="#808181" d="M65.4,29.8L65.4,29.8C65.5,29.8,65.4,29.8,65.4,29.8z"/>
						<path fill="#808181" d="M65.5,29.9L65.5,29.9C65.5,29.8,65.5,29.9,65.5,29.9z"/>
						<path fill="#808181" d="M65.3,29L65.3,29C65.3,29,65.3,29,65.3,29z"/>
						<path fill="#808181" d="M65.3,28.7c0,0.1,0,0.2,0,0.2l0,0C65.3,28.9,65.3,28.8,65.3,28.7z"/>
						<path fill="#808181" d="M65.2,27.7l0.1,0.2c0,0,0-0.1,0.1,0C65.2,27.6,65.2,27.9,65.2,27.7z"/>
						<path fill="#808181" d="M64.9,27.1C65,27.2,64.9,27,64.9,27.1C64.9,27,64.9,27,64.9,27.1z"/>
						<path fill="#808181" d="M61.5,23.9L61.5,23.9C61.4,23.8,61.5,23.8,61.5,23.9z"/>
						<path fill="#808181" d="M60.5,23.8C60.6,23.8,60.6,23.8,60.5,23.8l0.1,0C60.6,23.8,60.6,23.8,60.5,23.8z"/>
						<polygon fill="#808181" points="60.1,23.3 60.2,23.3 60,23.3 						"/>
						<path fill="#808181" d="M52.8,25.8L52.8,25.8C52.9,25.8,52.9,25.7,52.8,25.8z"/>
						<path fill="#808181" d="M51.4,29c0,0-0.1,0.1-0.1,0.2C51.4,29.1,51.4,29,51.4,29z"/>
						<polygon fill="#808181" points="56,37.4 55.9,37.4 56,37.4 						"/>
					</g>
				</g>
			</g>
		</g>
	</g>
	<g>
		<g>
			<g>
				<g>
					<g>
						<path fill="#808181" d="M52.2,43.9C52.2,43.9,52.3,43.9,52.2,43.9L52.2,43.9L52.2,43.9z"/>
						<path fill="#808181" d="M52.3,43.5c0-0.1-0.1-0.2-0.1-0.1C52.2,43.5,52.2,43.5,52.3,43.5c0,0.1,0,0.2-0.1,0.2c0,0,0,0.1,0,0.1
							C52.3,43.7,52.3,43.6,52.3,43.5C52.3,43.5,52.3,43.5,52.3,43.5z"/>
						<path fill="#808181" d="M49.4,38L49.4,38C49.4,38.1,49.4,38.1,49.4,38z"/>
						<path fill="#808181" d="M45.7,36.7C45.7,36.7,45.8,36.7,45.7,36.7C45.7,36.7,45.7,36.7,45.7,36.7z"/>
						<path fill="#808181" d="M45,36.6C45,36.6,45.1,36.6,45,36.6C45.1,36.6,45,36.6,45,36.6z"/>
						<path fill="#808181" d="M49.4,38L49.4,38C49.3,38,49.4,38,49.4,38z"/>
						<path fill="#808181" d="M52.1,42.6C52.1,42.7,52.1,42.7,52.1,42.6L52.1,42.6L52.1,42.6z"/>
						<path fill="#808181" d="M50.7,39.2L50.7,39.2C50.8,39.2,50.8,39.2,50.7,39.2L50.7,39.2z"/>
						<path fill="#808181" d="M51.5,40.3C51.5,40.3,51.5,40.3,51.5,40.3C51.5,40.3,51.5,40.3,51.5,40.3
							C51.5,40.3,51.5,40.3,51.5,40.3z"/>
						<path fill="#808181" d="M52.2,42.3L52.2,42.3L52.2,42.3z"/>
						<path fill="#808181" d="M50.1,38.5C50.1,38.5,50.1,38.5,50.1,38.5C50.1,38.5,50.1,38.5,50.1,38.5z"/>
						<path fill="#808181" d="M51.9,45.4L51.9,45.4C51.9,45.4,51.9,45.4,51.9,45.4z"/>
						<polygon fill="#808181" points="52.4,43.9 52.4,43.9 52.4,43.9 						"/>
						<path fill="#808181" d="M43.8,36.7L43.8,36.7C43.8,36.7,43.8,36.7,43.8,36.7z"/>
						<path fill="#808181" d="M38,45.5c0-0.1,0.1,0.2,0.1,0C38.1,45.5,38,45.3,38,45.5z"/>
						<path fill="#808181" d="M52.1,42.6L52.1,42.6C52.1,42.6,52.1,42.6,52.1,42.6z"/>
						<polygon fill="#808181" points="38.2,45.5 38.2,45.5 38.2,45.4 						"/>
						<path fill="#808181" d="M41.1,37.8C41.1,37.8,41.1,37.8,41.1,37.8C41.1,37.8,41.1,37.8,41.1,37.8z"/>
						<path fill="#808181" d="M43.1,37L43.1,37C43,37,43.1,37,43.1,37z"/>
						<path fill="#808181" d="M40.3,38.6C40.2,38.6,40.2,38.6,40.3,38.6C40.2,38.7,40.2,38.6,40.3,38.6
							C40.2,38.6,40.2,38.6,40.3,38.6z"/>
						<polygon fill="#808181" points="39.5,39.5 39.5,39.5 39.5,39.4 						"/>
						<path fill="#808181" d="M50.5,48.4C50.5,48.4,50.5,48.4,50.5,48.4C50.5,48.4,50.6,48.2,50.5,48.4z"/>
						<path fill="#808181" d="M52.1,42.6C52.1,42.6,52.1,42.6,52.1,42.6L52.1,42.6C52.1,42.6,52.1,42.6,52.1,42.6z"/>
						<path fill="#808181" d="M40.5,38.9l-0.1,0.1C40.4,39,40.5,39,40.5,38.9z"/>
						<path fill="#808181" d="M43.3,50.6L43.3,50.6C43.3,50.6,43.3,50.6,43.3,50.6z"/>
						<path fill="#808181" d="M40,39.4C40,39.5,40,39.5,40,39.4C39.9,39.5,39.9,39.5,40,39.4L40,39.4z"/>
						<path fill="#808181" d="M50.6,48.4L50.6,48.4L50.6,48.4z"/>
						<path fill="#808181" d="M51.1,47.4c-0.1,0.1,0,0.1,0,0.2c-0.1,0.2-0.1,0.1-0.2,0.1c0,0.1,0,0.2-0.1,0.3c0,0,0,0,0,0
							c0,0.1-0.2,0.3-0.3,0.5c0,0,0,0,0,0c0,0,0.1,0,0.1,0c-0.1,0.1-0.1,0.1-0.1,0.1c0,0,0,0,0-0.1l0,0.1c-0.1,0,0.1-0.1,0-0.1
							c-0.1,0.1-0.2,0.3-0.3,0.4c-0.1,0,0.2-0.2,0-0.1l0.1-0.1c-0.2,0,0.1-0.1-0.1-0.1c-0.2,0.2-0.1,0.2-0.3,0.4c0,0.1,0.1,0,0,0.1
							c-0.2,0.3-0.3,0.1-0.4,0.3c0,0.1,0,0.2-0.2,0.2l0-0.1c-0.2,0.1,0,0.2-0.3,0.3c0,0,0.1-0.1,0.1-0.1c-0.2,0-0.1,0.1-0.2,0.2
							l-0.1,0c-0.2,0.1-0.4,0.3-0.6,0.5c0,0,0-0.1,0-0.1c-0.3,0.2-0.7,0.3-1,0.4l-0.1,0.1c0,0-0.1,0,0,0c-0.1,0,0,0,0,0.1
							c-0.1,0-0.1,0-0.1,0c-0.2,0.1-0.6,0.3-0.9,0.2l0,0c-0.2,0-0.2,0.1-0.4,0.1l0,0c-0.4,0-0.9,0.1-1.2,0c-0.1,0.1-0.4-0.1-0.4,0
							c-0.2-0.1-0.2-0.1-0.5-0.2c-0.1,0-0.1,0-0.2,0l0-0.1l-0.2,0l-0.1-0.1l-0.1,0c0,0,0.1,0,0.1,0.1c-0.2,0-0.4-0.1-0.4-0.2
							l-0.4-0.1c0,0,0.1,0,0.1,0c-0.2,0,0-0.1-0.2-0.1c0,0,0,0,0,0c-0.1-0.1-0.3-0.2-0.4-0.2l0,0c-0.2-0.1-0.5-0.3-0.8-0.4
							c0.1,0.1,0,0.1-0.1,0.1l0-0.1c-0.1,0,0.1,0.1-0.1,0c-0.1-0.1,0-0.1,0-0.1l-0.1-0.1c0,0,0,0,0.1,0c-0.1,0-0.2-0.2-0.3-0.2l0,0
							c-0.3-0.2-0.4-0.3-0.5-0.4c0,0-0.1,0-0.2-0.1c-0.1-0.2-0.2-0.3-0.4-0.5c-0.1-0.1-0.1,0-0.1,0c0,0-0.1-0.2,0-0.1
							c-0.2-0.2-0.2-0.3-0.4-0.5c0,0,0,0.1,0,0.1c0,0-0.1-0.1,0-0.1l0,0c-0.3-0.3-0.3-0.8-0.5-1.1l0,0l-0.2-0.3c0-0.1,0.1,0.1,0.1,0
							c-0.2-0.3-0.1-0.5-0.3-0.8c0.1-0.2-0.2-0.8-0.1-1.1l0,0c0-0.1,0-0.1,0-0.1c0,0,0,0.1,0,0c-0.1-0.6,0.1-1.3,0.3-1.9
							c0.1-0.2-0.1-0.2,0-0.4l0,0.1c0.1-0.5,0.3-0.9,0.5-1.4c0,0,0,0,0,0.1c0.1-0.1,0.2-0.3,0.2-0.3c0-0.1,0,0,0.1,0
							c0.1-0.1,0.1-0.2,0.2-0.3c0,0,0,0,0,0c0-0.1,0.2-0.2,0.1-0.2c0.1-0.1,0.2-0.3,0.3-0.4c0-0.1,0.2-0.2,0.2-0.3
							c0.1,0.1,0.3-0.2,0.3-0.3c0,0,0.1,0,0.1,0c0.1-0.1,0.2-0.2,0.1-0.2c0.2-0.1,0.3-0.4,0.5-0.3c0.3-0.3,0.6-0.5,0.9-0.7
							c0,0.1-0.3,0.2-0.3,0.3c0.3-0.2,0.4-0.3,0.7-0.5c0.1,0,0,0.1,0,0.1c0.3-0.2,0.6-0.2,0.9-0.4c0,0,0,0-0.1,0
							c0.1,0,0.1,0,0.1-0.1l-0.1,0c-0.1,0,0.2-0.2,0.2-0.2c-0.1,0.1,0.3,0,0.2,0.1c0,0,0.1,0,0.1-0.1c0.1,0,0.1,0,0,0
							c0.2-0.1,0.1-0.1,0.3-0.1c0,0,0,0,0,0.1c0.1-0.1,0.2-0.1,0.3-0.1c0,0,0,0,0,0c0.3-0.1,0.5-0.1,0.8-0.1c-0.1,0.1,0.1,0,0.1,0.1
							c0.1,0,0.1,0,0.2,0l-0.1,0c0.1,0,0.3,0,0.4,0l-0.1,0l0.3,0l-0.1,0c0.1,0,0-0.1,0.2-0.1c0,0,0.1,0,0.2,0.1l0,0
							c0.1,0,0.1,0,0.2,0c0,0,0,0.1,0,0.1c0.1,0,0.3,0,0.4,0c0,0,0,0,0,0.1l0.1,0c0.1,0,0.1,0,0.1,0.1c0.2,0.1,0-0.1,0.2,0
							c0,0,0,0-0.1,0c0.2,0.1,0.5,0.1,0.6,0.2c0,0.1-0.2,0-0.1,0c0.3,0.1,0.6,0.1,0.9,0.3l0,0c0.1-0.1,0.2,0.1,0.3,0.2
							c0,0-0.1,0-0.1,0c0.2,0.1,0.4,0.2,0.7,0.3l0,0c0.1,0.1,0.2,0.2,0.3,0.3c0,0,0.1,0.1,0.1,0c0.2,0.4,0.6,0.4,0.8,0.8
							c0,0-0.1-0.1-0.1,0l0.2,0.2c0,0,0,0,0-0.1c0,0,0.1,0.1,0.2,0.1c-0.1-0.1-0.1,0,0,0.1c0,0,0,0,0,0c0,0.2,0.1,0,0.2,0.2l0,0
							c0.1,0.1,0.1,0.1,0.2,0.2c0,0.1-0.1-0.1-0.1,0c0.1,0.1,0.2,0.1,0.2,0.3c0,0-0.1-0.1-0.1-0.1c0,0.1,0,0.1,0.1,0.2l0,0l0.1,0.2
							l0-0.1c0.2,0.1,0.2,0.3,0.4,0.4c-0.2-0.1-0.1,0-0.1,0c0,0.1,0,0.1,0,0.1c0.1,0.1,0,0.2,0.2,0.3c0,0,0,0.1,0,0.1
							c0.1,0.1,0,0,0,0c0.1,0.2,0.1,0.5,0.3,0.7c0.1,0.2,0.2,0.3,0.3,0.5c0,0.1-0.1,0-0.1,0c0,0.1,0,0.2,0.1,0.3c0,0,0,0,0,0
							c0,0.1,0.1,0,0.1,0.2c0,0-0.1,0-0.1-0.1c0,0.1,0.1,0.2,0.1,0.3c0,0-0.1-0.1-0.1-0.1c0,0.1,0.1,0.3,0.1,0.4l0-0.1
							c0,0,0,0-0.1,0c-0.1-0.1,0-0.2,0-0.2l0,0.1c0.1-0.1-0.1-0.3-0.1-0.5l0.1,0.1l-0.1-0.2c0,0,0.1-0.1,0.1,0c0-0.1-0.1-0.1,0-0.2
							c0,0,0,0,0,0l-0.1-0.1c0,0,0.1,0,0.1,0c0-0.2-0.1-0.3-0.1-0.4l0,0c-0.1-0.3-0.1,0-0.2-0.2l0.1-0.2l-0.1,0c0,0,0-0.1,0-0.1
							c-0.1-0.1,0,0-0.1,0c0-0.2-0.2-0.4-0.1-0.4c-0.1,0,0,0.1-0.1,0c0.1-0.1-0.1-0.2-0.1-0.3c0.1,0,0.1,0.1,0.1,0
							c-0.1,0-0.1-0.2-0.2-0.3c-0.1,0-0.2-0.2-0.3-0.3c0,0-0.2-0.3-0.3-0.5l0,0c-0.1,0-0.2-0.1-0.3-0.2c0,0,0.1,0,0.1,0l-0.1-0.1
							c0,0-0.1,0-0.1-0.1l0.1,0c-0.1-0.1-0.3-0.2-0.4-0.4c0,0,0,0.2-0.2,0.1c0,0,0-0.1,0.1,0c0,0-0.1,0-0.1-0.1l0.1,0
							c-0.1-0.1-0.1,0-0.1-0.1c0,0,0-0.1,0-0.1c0,0,0,0.1,0.1,0.1c-0.1-0.1-0.1-0.2-0.1-0.2c0,0,0,0-0.1,0c-0.1-0.1,0-0.1-0.1-0.2
							c0,0-0.1-0.1-0.2-0.1c0,0,0-0.1,0-0.1c-0.1,0-0.3-0.2-0.3-0.1l0,0l0,0l0,0l0,0c-0.2-0.1-0.5-0.3-0.7-0.5l0,0
							c-0.2-0.1-0.3-0.2-0.5-0.2c0,0-0.1-0.1-0.1-0.1c-0.1,0-0.1,0-0.3-0.1c0.1,0,0,0,0.1,0c-0.1-0.1-0.2-0.1-0.4-0.1
							c0.1,0-0.1-0.1-0.2-0.1l0.1,0.1c-0.1,0-0.2-0.1-0.2-0.1l0.1,0c-0.3-0.2-0.6,0-0.9-0.2c-0.1,0,0.2,0.1,0.1,0.1
							c-0.2,0-0.3-0.1-0.3-0.2c-0.2-0.1-0.2,0.1-0.4,0c0,0,0,0.1-0.1,0.1c-0.2,0-0.2-0.1-0.1-0.1c0,0,0.1,0,0.1,0c0.1,0,0.1,0,0.1,0
							l0,0c-0.1,0-0.3,0-0.2-0.1c-0.1,0-0.1,0,0,0.1c-0.2,0-0.3,0-0.5,0c0,0,0.1,0,0,0c-0.3,0-0.1,0.1-0.3,0.1c-0.1,0,0-0.1-0.2,0
							c-0.1,0,0-0.1,0-0.1c-0.2,0-0.4,0-0.5,0l0.1,0c-0.1,0-0.1,0-0.2,0l0.1,0c-0.1,0-0.1,0-0.1,0c-0.1,0,0.1,0.1-0.1,0.1
							c-0.1,0-0.2,0.1-0.3,0c0.2,0,0-0.1,0.2-0.1c0,0-0.1,0-0.1,0c0,0,0,0,0,0c-0.2,0-0.1,0.1-0.3,0.2c0,0-0.1,0-0.1,0
							c0.1,0,0.1,0,0,0.1c-0.2,0-0.2,0.1-0.2,0.1l0.1,0c0,0-0.1,0.1-0.2,0.1c0,0,0.1-0.1,0,0c-0.1,0.1-0.3,0-0.4,0.1
							c-0.1,0,0-0.1-0.1,0c-0.2,0.1-0.2,0-0.4,0.2c0.1,0,0.1,0,0,0.1l0.3-0.2l-0.2,0.2c0.1,0,0.2-0.1,0.2-0.1
							c-0.1,0.1-0.1,0.1,0,0.1c-0.1,0-0.2,0.2-0.4,0.2l0-0.1c-0.2,0.1-0.3,0.2-0.6,0.4l0.1,0c0,0.1-0.2,0.1-0.2,0.2c0,0-0.1,0-0.1,0
							c0,0-0.2,0.1-0.2,0.2l-0.1,0c-0.2,0.1-0.2,0.2-0.3,0.4c0-0.1-0.1,0,0-0.2c-0.1,0.1-0.1,0.1-0.1,0.1c-0.1,0-0.1,0.2-0.2,0.2
							c0,0,0,0.1-0.1,0.1c0,0,0,0,0,0c0,0-0.1,0.1,0,0.1c-0.2,0.1-0.5,0.5-0.6,0.6c-0.1,0.1-0.2,0.3-0.3,0.4c0,0,0,0,0,0
							c-0.1,0.2,0,0.2-0.1,0.4c-0.1,0.1,0-0.1,0-0.1c-0.1,0-0.1,0.3-0.3,0.4l0,0c-0.1,0.1-0.1,0.3-0.2,0.5c0,0,0,0,0,0
							c0,0.1-0.1,0.4-0.1,0.6c0-0.1,0-0.1-0.1-0.1c0,0.1,0.1,0,0,0.2c0,0-0.1,0.2-0.2,0.2c0-0.1,0-0.1,0.1-0.2
							c-0.1,0.1-0.1,0.2-0.1,0.3l0,0c-0.1,0.3,0,0.3-0.1,0.5l0,0c0,0.2-0.1,0.1,0,0.3l-0.1,0c0,0.1,0,0.4,0,0.5
							c-0.1-0.1,0-0.3-0.1-0.4c0,0.1,0,0.3,0,0.4c0,0,0-0.1,0-0.1c0,0.1,0.1,0.3,0.1,0.5c-0.1,0-0.1,0.5-0.2,0.6
							c0.1,0.3,0,0.7,0.1,1.1c0.1-0.2,0,0.1,0.1,0.1c0,0.1,0,0.1,0,0.1l0,0.3c0,0.1,0-0.1-0.1-0.1c0,0.2,0,0.1,0,0.2
							c0,0,0.1,0.1,0.1,0.2l0-0.2c0.1,0.3,0,0.3,0.1,0.5l-0.1-0.1c0.1,0.1,0.2,0.5,0.4,0.6c0,0,0,0.1-0.1,0c0.1,0.3,0.5,0.7,0.6,0.9
							l0,0c0,0.1,0.1,0.1,0.1,0.2c0,0,0,0,0,0c0,0,0.1,0.1,0.2,0.2l-0.1,0c0.2,0.3,0.4,0.4,0.6,0.6c-0.1,0.1,0.1,0.3,0.2,0.4l0,0
							c0.3,0.3,0.6,0.4,0.9,0.6c0.1,0.2,0.6,0.5,0.9,0.7c0,0,0-0.1,0.1,0c0.1,0.1,0.2,0.1,0.2,0.1l0,0c0,0.1,0.2,0.2,0.3,0.2
							l0.1-0.1c0.3,0.3,0.9,0.2,1.1,0.4c0.1,0,0.2,0,0.3,0l0,0.1c0.2,0,0.4,0.1,0.7,0.1l-0.1,0c0.2,0,0.2-0.1,0.4-0.1l0,0.1
							c0.3,0,0.6,0.1,0.9,0c0,0,0,0-0.1,0c0.1,0,0.6,0,0.5-0.1c0,0.1,0.3,0,0.5-0.1l0,0.1c0.1-0.1,0.1-0.1,0.3-0.2c0,0,0,0,0,0
							c0.2,0,0.1-0.1,0.3-0.1l-0.1,0c0.1,0,0.1,0,0.2-0.1c0.1-0.1,0.3-0.1,0.3,0c0,0,0.1-0.1,0.2-0.1c0,0,0,0,0,0
							c0.3,0,0.3-0.2,0.5-0.2c0,0,0,0,0,0c-0.2,0.1-0.3,0.2-0.3,0.1c0,0,0.2,0,0.1,0.1c0.1-0.1,0.3-0.3,0.4-0.3c0,0,0,0,0,0l0,0
							c0,0,0.1,0,0.1-0.1c0,0,0.1,0,0.1-0.1c0,0,0.2-0.1,0.2-0.1c0,0,0.1-0.1,0-0.1c0,0,0,0-0.1,0c0,0,0,0,0,0l0,0
							c0,0-0.1,0.1-0.2,0.1c0-0.1,0.1-0.1,0.2-0.1c0-0.1,0-0.1,0.1-0.1c0.1,0,0.3-0.1,0.4-0.1c0.2-0.2,0.5-0.4,0.5-0.6
							c0-0.1,0.1,0,0.1,0c0,0-0.1,0.1-0.1,0.1c0.1-0.1,0.3-0.3,0.3-0.4c0.2-0.1,0,0.1,0.1-0.1l0,0c0.4-0.3,0.4-0.7,0.8-1
							c0,0,0,0-0.1,0c0.4-0.5,0.6-1.1,0.9-1.6c0.1-0.2,0-0.2,0-0.3l0.1,0l0-0.2c0-0.3,0.3-0.4,0.2-0.7l0,0c0-0.1,0-0.4,0.1-0.3
							c0,0,0,0,0-0.1l0,0c0-0.1,0-0.2,0-0.3c0-0.2,0.1,0,0.1-0.3c0-0.1-0.1-0.3-0.1-0.3c0,0,0,0.1-0.1,0.1l0-0.1
							c-0.1,0-0.2-0.1-0.3,0.2l0,0.2l0,0.1l0-0.2c0,0.1,0,0.1,0,0.2c0,0,0,0-0.1,0.1l0.1,0.2c0,0-0.1-0.1-0.1,0
							c0,0.1,0.1-0.1,0.1,0.1c-0.1,0.1-0.1,0.1-0.1,0.2c0,0,0,0,0-0.1c0,0.1,0,0.2,0,0.3c-0.1,0.1,0,0.3-0.1,0.3c0,0,0,0.2,0,0.2
							c-0.1-0.2-0.1,0.3-0.2,0.2c0.1,0.1-0.1,0.4-0.1,0.6c0,0,0,0,0-0.1c0,0.1-0.1,0.1-0.1,0.2c0.1,0,0,0.2,0,0.3
							c-0.1,0.1,0-0.1-0.1-0.1c0.1,0,0,0.2,0,0.2c-0.1,0.1-0.1,0.1-0.1,0.1c0.1,0.1,0,0.1,0,0.2C51.2,47.4,51.2,47.3,51.1,47.4
							C51.1,47.5,51.1,47.4,51.1,47.4z M48.4,50.1L48.4,50.1C48.5,50.1,48.5,50.1,48.4,50.1C48.5,50.1,48.5,50.1,48.4,50.1z
							 M48.1,50.3c0,0,0.1,0,0.1-0.1c0,0,0,0,0,0C48.3,50.2,48.2,50.3,48.1,50.3z M49,50.3C48.9,50.3,48.9,50.3,49,50.3
							C48.9,50.3,48.9,50.3,49,50.3L49,50.3C49,50.2,49,50.3,49,50.3z"/>
						<polygon fill="#808181" points="49,50.2 49,50.1 49,50.1 49,50.2 						"/>
						<polygon fill="#808181" points="49.4,38.1 49.4,38.1 49.5,38.1 						"/>
						<polygon fill="#808181" points="43.7,50.6 43.7,50.6 43.7,50.6 						"/>
						<path fill="#808181" d="M50.7,39.5C50.7,39.5,50.7,39.5,50.7,39.5C50.7,39.5,50.7,39.5,50.7,39.5z"/>
						<path fill="#808181" d="M51.1,40.1l0,0.1C51.1,40.2,51.1,40.2,51.1,40.1z"/>
						<path fill="#808181" d="M51.4,40.7C51.4,40.7,51.4,40.7,51.4,40.7L51.4,40.7L51.4,40.7z"/>
						<path fill="#808181" d="M43.2,37.3L43.2,37.3C43.1,37.3,43.2,37.3,43.2,37.3z"/>
						<path fill="#808181" d="M46,36.9C46,36.9,46,36.9,46,36.9C46,36.9,46,37,46,36.9z"/>
						<polygon fill="#808181" points="40.5,38.9 40.5,38.9 40.5,38.9 						"/>
						<path fill="#808181" d="M45.8,36.9c0.1,0,0.1,0,0.1,0C45.9,36.9,45.9,36.9,45.8,36.9z"/>
						<polygon fill="#808181" points="52.2,43.2 52.2,43.2 52.2,43.2 						"/>
						<path fill="#808181" d="M52.2,43.2L52.2,43.2C52.2,43.2,52.2,43.2,52.2,43.2z"/>
						<path fill="#808181" d="M52.2,43.3L52.2,43.3C52.2,43.3,52.2,43.3,52.2,43.3z"/>
						<path fill="#808181" d="M52,42.4L52,42.4C52,42.4,52,42.4,52,42.4z"/>
						<path fill="#808181" d="M52,42.1c0,0.1,0,0.2,0,0.2l0,0C52,42.3,52,42.2,52,42.1z"/>
						<path fill="#808181" d="M51.9,41.1l0.1,0.2c0,0,0-0.1,0.1,0C52,41,52,41.4,51.9,41.1z"/>
						<path fill="#808181" d="M51.6,40.5C51.7,40.6,51.6,40.5,51.6,40.5C51.6,40.4,51.6,40.4,51.6,40.5z"/>
						<path fill="#808181" d="M48.2,37.3L48.2,37.3C48.1,37.2,48.2,37.3,48.2,37.3z"/>
						<path fill="#808181" d="M47.3,37.2C47.3,37.2,47.3,37.3,47.3,37.2l0.1,0C47.3,37.2,47.3,37.2,47.3,37.2z"/>
						<polygon fill="#808181" points="46.8,36.8 46.9,36.8 46.7,36.7 						"/>
						<path fill="#808181" d="M39.6,39.3L39.6,39.3C39.7,39.2,39.6,39.2,39.6,39.3z"/>
						<path fill="#808181" d="M38.1,42.4c0,0-0.1,0.1-0.1,0.2C38.1,42.5,38.1,42.4,38.1,42.4z"/>
						<polygon fill="#808181" points="42.7,50.8 42.6,50.8 42.7,50.9 						"/>
					</g>
				</g>
			</g>
		</g>
	</g>
	<g>
		<g>
			<g>
				<g>
					<g>
						<path fill="#808181" d="M38,58.2C38,58.2,38,58.2,38,58.2L38,58.2L38,58.2z"/>
						<path fill="#808181" d="M38.1,57.7c0-0.1-0.1-0.2-0.1-0.1C38,57.7,38,57.7,38.1,57.7c0,0.1,0,0.2-0.1,0.2c0,0,0,0.1,0,0.1
							C38.1,58,38.1,57.9,38.1,57.7C38,57.7,38.1,57.7,38.1,57.7z"/>
						<path fill="#808181" d="M35.2,52.3L35.2,52.3C35.2,52.3,35.2,52.3,35.2,52.3z"/>
						<path fill="#808181" d="M31.5,50.9C31.5,50.9,31.5,50.9,31.5,50.9C31.5,50.9,31.4,50.9,31.5,50.9z"/>
						<path fill="#808181" d="M30.8,50.9C30.8,50.9,30.8,50.9,30.8,50.9C30.8,50.9,30.8,50.9,30.8,50.9z"/>
						<path fill="#808181" d="M35.2,52.3L35.2,52.3C35.1,52.2,35.1,52.3,35.2,52.3z"/>
						<path fill="#808181" d="M37.8,56.9C37.8,56.9,37.8,56.9,37.8,56.9L37.8,56.9L37.8,56.9z"/>
						<path fill="#808181" d="M36.5,53.4L36.5,53.4C36.5,53.5,36.5,53.5,36.5,53.4L36.5,53.4z"/>
						<path fill="#808181" d="M37.3,54.6C37.3,54.5,37.2,54.5,37.3,54.6C37.2,54.5,37.2,54.6,37.3,54.6
							C37.3,54.6,37.3,54.6,37.3,54.6z"/>
						<path fill="#808181" d="M38,56.6L38,56.6L38,56.6z"/>
						<path fill="#808181" d="M35.8,52.7C35.8,52.7,35.8,52.7,35.8,52.7C35.8,52.7,35.8,52.7,35.8,52.7z"/>
						<path fill="#808181" d="M37.7,59.7L37.7,59.7C37.7,59.6,37.7,59.6,37.7,59.7z"/>
						<polygon fill="#808181" points="38.1,58.2 38.1,58.2 38.1,58.2 						"/>
						<path fill="#808181" d="M29.5,50.9L29.5,50.9C29.5,50.9,29.5,50.9,29.5,50.9z"/>
						<path fill="#808181" d="M23.8,59.7c0-0.1,0.1,0.2,0.1,0C23.9,59.7,23.8,59.6,23.8,59.7z"/>
						<path fill="#808181" d="M37.8,56.9L37.8,56.9C37.8,56.8,37.8,56.9,37.8,56.9z"/>
						<polygon fill="#808181" points="23.9,59.7 23.9,59.7 23.9,59.7 						"/>
						<path fill="#808181" d="M26.8,52.1C26.8,52.1,26.9,52.1,26.8,52.1C26.9,52.1,26.9,52.1,26.8,52.1z"/>
						<path fill="#808181" d="M28.8,51.2L28.8,51.2C28.8,51.2,28.8,51.2,28.8,51.2z"/>
						<path fill="#808181" d="M26,52.9C26,52.9,26,52.9,26,52.9C25.9,52.9,26,52.9,26,52.9C26,52.9,26,52.9,26,52.9z"/>
						<polygon fill="#808181" points="25.2,53.7 25.2,53.7 25.3,53.7 						"/>
						<path fill="#808181" d="M36.2,62.6C36.3,62.6,36.3,62.6,36.2,62.6C36.3,62.6,36.4,62.5,36.2,62.6z"/>
						<path fill="#808181" d="M37.8,56.9C37.8,56.9,37.8,56.9,37.8,56.9L37.8,56.9C37.8,56.9,37.8,56.9,37.8,56.9z"/>
						<path fill="#808181" d="M26.3,53.2l-0.1,0.1C26.2,53.3,26.2,53.2,26.3,53.2z"/>
						<path fill="#808181" d="M29.1,64.8L29.1,64.8C29.1,64.8,29.1,64.8,29.1,64.8z"/>
						<path fill="#808181" d="M25.8,53.7C25.7,53.7,25.7,53.7,25.8,53.7C25.7,53.8,25.7,53.8,25.8,53.7L25.8,53.7z"/>
						<path fill="#808181" d="M36.3,62.6L36.3,62.6L36.3,62.6z"/>
						<path fill="#808181" d="M36.9,61.6c-0.1,0.1,0,0.1,0,0.2c-0.1,0.2-0.1,0.1-0.2,0.1c0,0.1,0,0.2-0.1,0.3c0,0,0,0,0,0
							c0,0.1-0.2,0.3-0.3,0.5c0,0,0,0,0,0c0,0,0.1,0,0.1,0c-0.1,0.1-0.1,0.1-0.1,0.1c0,0,0,0,0-0.1l0,0.1c-0.1,0,0.1-0.1,0-0.1
							C36.2,62.8,36.1,63,36,63c-0.1,0,0.2-0.2,0-0.1l0.1-0.1c-0.2,0,0.1-0.1-0.1-0.1c-0.2,0.2-0.1,0.2-0.3,0.4c0,0.1,0.1,0,0,0.1
							c-0.2,0.3-0.3,0.1-0.4,0.3c0,0.1,0,0.2-0.2,0.2l0-0.1c-0.2,0.1,0,0.2-0.3,0.3c0-0.1,0.1-0.1,0.1-0.1c-0.2,0-0.1,0.1-0.2,0.2
							l-0.1,0c-0.2,0.1-0.4,0.3-0.6,0.5c0,0,0-0.1,0-0.1c-0.3,0.2-0.7,0.3-1,0.4L33,64.8c0,0-0.1,0,0,0c-0.1,0,0,0,0,0.1
							c-0.1,0-0.1,0-0.1,0c-0.2,0.1-0.6,0.3-0.9,0.2l0,0c-0.2,0-0.2,0.1-0.4,0.1l0,0c-0.4,0-0.9,0.1-1.2,0c-0.1,0.1-0.4-0.1-0.4,0
							C29.9,65,30,65,29.7,64.9c-0.1,0-0.1,0-0.2,0l0-0.1l-0.2,0l-0.1-0.1l-0.1,0c0,0,0.1,0,0.1,0.1c-0.2,0-0.4-0.1-0.4-0.2
							l-0.4-0.1c0,0,0.1,0,0.1,0c-0.2,0,0-0.1-0.2-0.1c0,0,0,0,0,0c-0.1-0.1-0.3-0.2-0.4-0.2l0,0c-0.2-0.1-0.5-0.3-0.8-0.4
							c0.1,0.1,0,0.1-0.1,0.1l0-0.1c-0.1,0,0.1,0.1-0.1,0c-0.1-0.1,0-0.1,0-0.1L27,63.8c0,0,0,0,0.1,0c-0.1,0-0.2-0.2-0.3-0.2l0,0
							c-0.3-0.2-0.4-0.3-0.5-0.4c0,0-0.1,0-0.2-0.1c-0.1-0.2-0.2-0.3-0.4-0.5c-0.1-0.1-0.1,0-0.1,0c0,0-0.1-0.2,0-0.1
							c-0.2-0.2-0.2-0.3-0.4-0.5c0,0,0,0.1,0,0.1c0,0-0.1-0.1,0-0.1l0,0c-0.3-0.3-0.3-0.8-0.5-1.1l0,0l-0.2-0.3c0-0.1,0.1,0.1,0.1,0
							c-0.2-0.3-0.1-0.5-0.3-0.8c0.1-0.2-0.2-0.8-0.1-1.1l0,0c0-0.1,0-0.1,0-0.1c0,0,0,0.1,0,0c-0.1-0.6,0.1-1.3,0.3-1.9
							c0.1-0.2-0.1-0.2,0-0.4l0,0.1c0.1-0.5,0.3-0.9,0.5-1.4c0,0,0,0,0,0.1c0.1-0.1,0.2-0.3,0.2-0.3c0-0.1,0,0,0.1,0
							c0.1-0.1,0.1-0.2,0.2-0.3c0,0,0,0,0,0c0-0.1,0.2-0.2,0.1-0.2c0.1-0.1,0.2-0.3,0.3-0.4c0-0.1,0.2-0.2,0.2-0.3
							c0.1,0.1,0.3-0.2,0.3-0.3c0,0,0.1,0,0.1,0c0.1-0.1,0.2-0.2,0.1-0.2c0.2-0.1,0.3-0.4,0.5-0.3c0.3-0.3,0.6-0.5,0.9-0.7
							c0,0.1-0.3,0.2-0.3,0.3c0.3-0.2,0.4-0.3,0.7-0.5c0.1,0,0,0.1,0,0.1c0.3-0.2,0.6-0.2,0.9-0.4c0,0,0,0-0.1,0
							c0.1,0,0.1,0,0.1-0.1l-0.1,0c-0.1,0,0.2-0.2,0.2-0.2c-0.1,0.1,0.3,0,0.2,0.1c0,0,0.1,0,0.1-0.1c0.1,0,0.1,0,0,0
							c0.2-0.1,0.1-0.1,0.3-0.1c0,0,0,0,0,0.1c0.1-0.1,0.2-0.1,0.3-0.1c0,0,0,0,0,0c0.3-0.1,0.5-0.1,0.8-0.1c-0.1,0.1,0.1,0,0.1,0.1
							c0.1,0,0.1,0,0.2,0l-0.1,0c0.1,0,0.3,0,0.4,0l-0.1,0l0.3,0l-0.1,0c0.1,0,0-0.1,0.2-0.1c0,0,0.1,0,0.2,0.1l0,0
							c0.1,0,0.1,0,0.2,0c0,0,0,0.1,0,0.1c0.1,0,0.3,0,0.4,0c0,0,0,0,0,0.1l0.1,0c0.1,0,0.1,0,0.1,0.1c0.2,0.1,0-0.1,0.2,0
							c0,0,0,0-0.1,0c0.2,0.1,0.5,0.1,0.6,0.2c0,0.1-0.2,0-0.1,0c0.3,0.1,0.6,0.1,0.9,0.3l0,0c0.1-0.1,0.2,0.1,0.3,0.2
							c0,0-0.1,0-0.1,0c0.2,0.1,0.4,0.2,0.7,0.3l0,0c0.1,0.1,0.2,0.2,0.3,0.3c0,0,0.1,0.1,0.1,0c0.2,0.4,0.6,0.4,0.8,0.8
							c0,0-0.1-0.1-0.1,0l0.2,0.2c0,0,0,0,0-0.1c0,0,0.1,0.1,0.2,0.1c-0.1-0.1-0.1,0,0,0.1c0,0,0,0,0,0c0,0.2,0.1,0,0.2,0.2l0,0
							c0.1,0.1,0.1,0.1,0.2,0.2c0,0.1-0.1-0.1-0.1,0c0.1,0.1,0.2,0.1,0.2,0.3c0,0-0.1-0.1-0.1-0.1c0,0.1,0,0.1,0.1,0.2l0,0l0.1,0.2
							l0-0.1c0.2,0.1,0.2,0.3,0.4,0.4c-0.2-0.1-0.1,0-0.1,0c0,0.1,0,0.1,0,0.1c0.1,0.1,0,0.2,0.2,0.3c0,0,0,0.1,0,0.1
							c0.1,0.1,0,0,0,0c0.1,0.2,0.1,0.5,0.3,0.7c0.1,0.2,0.2,0.3,0.3,0.5c0,0.1-0.1,0-0.1,0c0,0.1,0,0.2,0.1,0.3c0,0,0,0,0,0
							c0,0.1,0.1,0,0.1,0.2c0,0-0.1,0-0.1-0.1c0,0.1,0.1,0.2,0.1,0.3c0,0-0.1-0.1-0.1-0.1c0,0.1,0.1,0.3,0.1,0.4l0-0.1
							c0,0,0,0-0.1,0c-0.1-0.1,0-0.2,0-0.2l0,0.1c0.1-0.1-0.1-0.3-0.1-0.5l0.1,0.1l-0.1-0.2c0,0,0.1-0.1,0.1,0c0-0.1-0.1-0.1,0-0.2
							c0,0,0,0,0,0l-0.1-0.1c0,0,0.1,0,0.1,0c0-0.2-0.1-0.3-0.1-0.4l0,0c-0.1-0.3-0.1,0-0.2-0.2l0.1-0.2l-0.1,0c0,0,0-0.1,0-0.1
							c-0.1-0.1,0,0-0.1,0c0-0.2-0.2-0.4-0.1-0.4c-0.1,0,0,0.1-0.1,0c0.1-0.1-0.1-0.2-0.1-0.3c0.1,0,0.1,0.1,0.1,0
							c-0.1,0-0.1-0.2-0.2-0.3c-0.1,0-0.2-0.2-0.3-0.3c0,0-0.2-0.3-0.3-0.5l0,0c-0.1,0-0.2-0.1-0.3-0.2c0,0,0.1,0,0.1,0l-0.1-0.1
							c0,0-0.1,0-0.1-0.1l0.1,0c-0.1-0.1-0.3-0.2-0.4-0.4c0,0,0,0.2-0.2,0.1c0,0,0-0.1,0.1,0c0,0-0.1,0-0.1-0.1l0.1,0
							c-0.1-0.1-0.1,0-0.1-0.1c0,0,0-0.1,0-0.1c0,0,0,0.1,0.1,0.1c-0.1-0.1-0.1-0.2-0.1-0.2c0,0,0,0-0.1,0c-0.1-0.1,0-0.1-0.1-0.2
							c0,0-0.1-0.1-0.2-0.1c0,0,0-0.1,0-0.1c-0.1,0-0.3-0.2-0.3-0.1l0,0l0,0l0,0l0,0c-0.2-0.1-0.5-0.3-0.7-0.5l0,0
							c-0.2-0.1-0.3-0.2-0.5-0.2c0,0-0.1-0.1-0.1-0.1c-0.1,0-0.1,0-0.3-0.1c0.1,0,0,0,0.1,0c-0.1-0.1-0.2-0.1-0.4-0.1
							c0.1,0-0.1-0.1-0.2-0.1l0.1,0.1c-0.1,0-0.2-0.1-0.2-0.1l0.1,0c-0.3-0.2-0.6,0-0.9-0.2c-0.1,0,0.2,0.1,0.1,0.1
							c-0.2,0-0.3-0.1-0.3-0.2c-0.2-0.1-0.2,0.1-0.4,0c0,0,0,0.1-0.1,0.1c-0.2,0-0.2-0.1-0.1-0.1c0,0,0.1,0,0.1,0c0.1,0,0.1,0,0.1,0
							l0,0c-0.1,0-0.3,0-0.2-0.1c-0.1,0-0.1,0,0,0.1c-0.2,0-0.3,0-0.5,0c0,0,0.1,0,0,0c-0.3,0-0.1,0.1-0.3,0.1c-0.1,0,0-0.1-0.2,0
							c-0.1,0,0-0.1,0-0.1c-0.2,0-0.4,0-0.5,0l0.1,0c-0.1,0-0.1,0-0.2,0l0.1,0c-0.1,0-0.1,0-0.1,0c-0.1,0,0.1,0.1-0.1,0.1
							c-0.1,0-0.2,0.1-0.3,0c0.2,0,0-0.1,0.2-0.1c0,0-0.1,0-0.1,0c0,0,0,0,0,0c-0.2,0-0.1,0.1-0.3,0.2c0,0-0.1,0-0.1,0
							c0.1,0,0.1,0,0,0.1c-0.2,0-0.2,0.1-0.2,0.1l0.1,0c0,0-0.1,0.1-0.2,0.1c0,0,0.1-0.1,0,0c-0.1,0.1-0.3,0-0.4,0.1
							c-0.1,0,0-0.1-0.1,0c-0.2,0.1-0.2,0-0.4,0.2c0.1,0,0.1,0,0,0.1l0.3-0.2l-0.2,0.2c0.1,0,0.2-0.1,0.2-0.1
							c-0.1,0.1-0.1,0.1,0,0.1c-0.1,0-0.2,0.2-0.4,0.2l0-0.1c-0.2,0.1-0.3,0.2-0.6,0.4l0.1,0c0,0.1-0.2,0.1-0.2,0.2c0,0-0.1,0-0.1,0
							c0,0-0.2,0.1-0.2,0.2l-0.1,0c-0.2,0.1-0.2,0.2-0.3,0.4c0-0.1-0.1,0,0-0.2c-0.1,0.1-0.1,0.1-0.1,0.1c-0.1,0-0.1,0.2-0.2,0.2
							c0,0,0,0.1-0.1,0.1c0,0,0,0,0,0c0,0-0.1,0.1,0,0.1c-0.2,0.1-0.5,0.5-0.6,0.6c-0.1,0.1-0.2,0.3-0.3,0.4c0,0,0,0,0,0
							c-0.1,0.2,0,0.2-0.1,0.4c-0.1,0.1,0-0.1,0-0.1c-0.1,0-0.1,0.3-0.3,0.4l0,0c-0.1,0.1-0.1,0.3-0.2,0.5c0,0,0,0,0,0
							c0,0.1-0.1,0.4-0.1,0.6c0-0.1,0-0.1-0.1-0.1c0,0.1,0.1,0,0,0.2c0,0-0.1,0.2-0.2,0.2c0-0.1,0-0.1,0.1-0.2
							C24,55.9,24,56.1,24,56.2l0,0c-0.1,0.3,0,0.3-0.1,0.5l0,0c0,0.2-0.1,0.1,0,0.3l-0.1,0c0,0.1,0,0.4,0,0.5
							c-0.1-0.1,0-0.3-0.1-0.4c0,0.1,0,0.3,0,0.4c0,0,0-0.1,0-0.1c0,0.1,0.1,0.3,0.1,0.5c-0.1,0-0.1,0.5-0.2,0.6
							c0.1,0.3,0,0.7,0.1,1.1c0.1-0.2,0,0.1,0.1,0.1c0,0.1,0,0.1,0,0.1l0,0.3c0,0.1,0-0.1-0.1-0.1c0,0.2,0,0.1,0,0.2
							c0,0,0.1,0.1,0.1,0.2l0-0.2c0.1,0.3,0,0.3,0.1,0.5L24,60.6c0.1,0.1,0.2,0.5,0.4,0.6c0,0,0,0.1-0.1,0c0.1,0.3,0.5,0.7,0.6,0.9
							l0,0c0,0.1,0.1,0.1,0.1,0.2c0,0,0,0,0,0c0,0,0.1,0.1,0.2,0.2l-0.1,0c0.2,0.3,0.4,0.4,0.6,0.6c-0.1,0.1,0.1,0.3,0.2,0.4l0,0
							c0.3,0.3,0.6,0.4,0.9,0.6c0.1,0.2,0.6,0.5,0.9,0.7c0,0,0-0.1,0.1,0c0.1,0.1,0.2,0.1,0.2,0.1l0,0c0,0.1,0.2,0.2,0.3,0.2
							l0.1-0.1c0.3,0.3,0.9,0.2,1.1,0.4c0.1,0,0.2,0,0.3,0l0,0.1c0.2,0,0.4,0.1,0.7,0.1l-0.1,0c0.2,0,0.2-0.1,0.4-0.1l0,0.1
							c0.3,0,0.6,0.1,0.9,0c0,0,0,0-0.1,0c0.1,0,0.6,0,0.5-0.1c0,0.1,0.3,0,0.5-0.1l0,0.1c0.1-0.1,0.1-0.1,0.3-0.2c0,0,0,0,0,0
							c0.2,0,0.1-0.1,0.3-0.1l-0.1,0c0.1,0,0.1,0,0.2-0.1c0.1-0.1,0.3-0.1,0.3,0c0,0,0.1-0.1,0.2-0.1c0,0,0,0,0,0
							c0.3,0,0.3-0.2,0.5-0.2c0,0,0,0,0,0c-0.2,0.1-0.3,0.2-0.3,0.1c0,0,0.2,0,0.1,0.1c0.1-0.1,0.3-0.3,0.4-0.3c0,0,0,0,0,0l0,0
							c0,0,0.1,0,0.1-0.1c0,0,0.1,0,0.1-0.1c0,0,0.2-0.1,0.2-0.1c0,0,0.1-0.1,0-0.1c0,0,0,0-0.1,0c0,0,0,0,0,0l0,0
							c0,0-0.1,0.1-0.2,0.1c0-0.1,0.1-0.1,0.2-0.1c0-0.1,0-0.1,0.1-0.1c0.1,0,0.3-0.1,0.4-0.1c0.2-0.2,0.5-0.4,0.5-0.6
							c0-0.1,0.1,0,0.1,0c0,0-0.1,0.1-0.1,0.1c0.1-0.1,0.3-0.3,0.3-0.4c0.2-0.1,0,0.1,0.1-0.1l0,0c0.4-0.3,0.4-0.7,0.8-1
							c0,0,0,0-0.1,0c0.4-0.5,0.6-1.1,0.9-1.6c0.1-0.2,0-0.2,0-0.3l0.1,0l0-0.2c0-0.3,0.3-0.4,0.2-0.7l0,0c0-0.1,0-0.4,0.1-0.3
							c0,0,0,0,0-0.1l0,0c0-0.1,0-0.2,0-0.3c0-0.2,0.1,0,0.1-0.3c0-0.1-0.1-0.3-0.1-0.3c0,0,0,0.1-0.1,0.1l0-0.1
							c-0.1,0-0.2-0.1-0.3,0.2l0,0.2l0,0.1l0-0.2c0,0.1,0,0.1,0,0.2c0,0,0,0-0.1,0.1l0.1,0.2c0,0-0.1-0.1-0.1,0
							c0,0.1,0.1-0.1,0.1,0.1c-0.1,0.1-0.1,0.1-0.1,0.2c0,0,0,0,0-0.1c0,0.1,0,0.2,0,0.3c-0.1,0.1,0,0.3-0.1,0.3c0,0,0,0.2,0,0.2
							c-0.1-0.2-0.1,0.3-0.2,0.2c0.1,0.1-0.1,0.4-0.1,0.6c0,0,0,0,0-0.1c0,0.1-0.1,0.1-0.1,0.2c0.1,0,0,0.2,0,0.3
							c-0.1,0.1,0-0.1-0.1-0.1c0.1,0,0,0.2,0,0.2c-0.1,0.1-0.1,0.1-0.1,0.1c0.1,0.1,0,0.1,0,0.2C36.9,61.7,36.9,61.5,36.9,61.6
							C36.8,61.8,36.9,61.6,36.9,61.6z M34.2,64.4L34.2,64.4C34.2,64.4,34.2,64.4,34.2,64.4C34.2,64.4,34.2,64.4,34.2,64.4z
							 M33.9,64.5c0,0,0.1,0,0.1-0.1c0,0,0,0,0,0C34,64.5,33.9,64.5,33.9,64.5z M34.7,64.5C34.6,64.6,34.6,64.6,34.7,64.5
							C34.6,64.5,34.7,64.5,34.7,64.5L34.7,64.5C34.7,64.5,34.7,64.5,34.7,64.5z"/>
						<polygon fill="#808181" points="34.7,64.4 34.8,64.4 34.7,64.4 34.7,64.4 						"/>
						<polygon fill="#808181" points="35.2,52.3 35.2,52.3 35.2,52.3 						"/>
						<polygon fill="#808181" points="29.4,64.9 29.4,64.9 29.5,64.9 						"/>
						<path fill="#808181" d="M36.4,53.7C36.4,53.7,36.4,53.8,36.4,53.7C36.4,53.8,36.4,53.8,36.4,53.7z"/>
						<path fill="#808181" d="M36.9,54.4l0,0.1C36.9,54.4,36.9,54.4,36.9,54.4z"/>
						<path fill="#808181" d="M37.2,54.9C37.2,54.9,37.2,54.9,37.2,54.9L37.2,54.9L37.2,54.9z"/>
						<path fill="#808181" d="M29,51.6L29,51.6C28.9,51.6,28.9,51.6,29,51.6z"/>
						<path fill="#808181" d="M31.8,51.2C31.8,51.2,31.7,51.2,31.8,51.2C31.7,51.2,31.8,51.2,31.8,51.2z"/>
						<polygon fill="#808181" points="26.3,53.2 26.3,53.2 26.3,53.2 						"/>
						<path fill="#808181" d="M31.6,51.2c0.1,0,0.1,0,0.1,0C31.7,51.2,31.6,51.2,31.6,51.2z"/>
						<polygon fill="#808181" points="37.9,57.4 37.9,57.5 37.9,57.5 						"/>
						<path fill="#808181" d="M37.9,57.5L37.9,57.5C37.9,57.5,37.9,57.5,37.9,57.5z"/>
						<path fill="#808181" d="M37.9,57.6L37.9,57.6C37.9,57.5,37.9,57.6,37.9,57.6z"/>
						<path fill="#808181" d="M37.8,56.6L37.8,56.6C37.8,56.6,37.8,56.6,37.8,56.6z"/>
						<path fill="#808181" d="M37.7,56.4c0,0.1,0,0.2,0,0.2l0,0C37.7,56.6,37.8,56.5,37.7,56.4z"/>
						<path fill="#808181" d="M37.6,55.3l0.1,0.2c0,0,0-0.1,0.1,0C37.7,55.3,37.7,55.6,37.6,55.3z"/>
						<path fill="#808181" d="M37.4,54.7C37.4,54.8,37.4,54.7,37.4,54.7C37.3,54.7,37.3,54.7,37.4,54.7z"/>
						<path fill="#808181" d="M33.9,51.6L33.9,51.6C33.9,51.5,34,51.5,33.9,51.6z"/>
						<path fill="#808181" d="M33,51.5C33,51.5,33.1,51.5,33,51.5l0.1,0C33.1,51.5,33,51.5,33,51.5z"/>
						<polygon fill="#808181" points="32.6,51 32.6,51 32.5,51 						"/>
						<path fill="#808181" d="M25.3,53.5L25.3,53.5C25.4,53.5,25.4,53.4,25.3,53.5z"/>
						<path fill="#808181" d="M23.9,56.7c0,0-0.1,0.1-0.1,0.2C23.8,56.8,23.9,56.7,23.9,56.7z"/>
						<polygon fill="#808181" points="28.4,65.1 28.4,65.1 28.5,65.1 						"/>
					</g>
				</g>
			</g>
		</g>
	</g>
	<g>
		<g>
			<g>
				<g>
					<g>
						<path fill="#808181" d="M36.5,59.6C36.5,59.6,36.5,59.5,36.5,59.6L36.5,59.6L36.5,59.6z"/>
						<path fill="#808181" d="M36.4,59.6c0,0,0.1,0.1,0.1,0.1C36.4,59.6,36.5,59.6,36.4,59.6C36.4,59.6,36.4,59.6,36.4,59.6
							C36.4,59.6,36.5,59.6,36.4,59.6C36.4,59.6,36.4,59.6,36.4,59.6C36.4,59.6,36.4,59.6,36.4,59.6z"/>
						<path fill="#808181" d="M35.8,60.7L35.8,60.7L35.8,60.7z"/>
						<path fill="#808181" d="M35.4,61.4C35.4,61.4,35.4,61.4,35.4,61.4C35.4,61.4,35.4,61.4,35.4,61.4z"/>
						<path fill="#808181" d="M35.3,61.4L35.3,61.4C35.3,61.4,35.3,61.4,35.3,61.4z"/>
						<path fill="#808181" d="M35.8,60.7L35.8,60.7C35.8,60.7,35.8,60.7,35.8,60.7z"/>
						<path fill="#808181" d="M36.4,59.8C36.4,59.8,36.4,59.8,36.4,59.8C36.4,59.8,36.4,59.8,36.4,59.8L36.4,59.8z"/>
						<polygon fill="#808181" points="35.9,60.4 35.9,60.4 35.9,60.4 						"/>
						<path fill="#808181" d="M36,60.2C36,60.2,36,60.2,36,60.2C36,60.2,36,60.2,36,60.2C36,60.2,36,60.2,36,60.2z"/>
						<path fill="#808181" d="M36.2,59.8L36.2,59.8L36.2,59.8z"/>
						<path fill="#808181" d="M35.8,60.6C35.8,60.6,35.8,60.6,35.8,60.6L35.8,60.6z"/>
						<path fill="#808181" d="M30,64L30,64C30,64,30,64,30,64z"/>
						<polygon fill="#808181" points="29.7,63.7 29.7,63.7 29.7,63.6 						"/>
						<path fill="#808181" d="M35.1,61.6L35.1,61.6C35.1,61.6,35.1,61.6,35.1,61.6z"/>
						<path fill="#808181" d="M33.6,63c0,0,0,0.1,0.1,0.1C33.6,63.1,33.6,63,33.6,63z"/>
						<path fill="#808181" d="M36.4,59.8L36.4,59.8C36.4,59.8,36.4,59.8,36.4,59.8z"/>
						<polygon fill="#808181" points="33.6,63.1 33.6,63.1 33.6,63.1 						"/>
						<path fill="#808181" d="M34.8,62L34.8,62C34.8,62,34.8,62,34.8,62z"/>
						<path fill="#808181" d="M35.1,61.8L35.1,61.8C35.1,61.8,35.1,61.8,35.1,61.8z"/>
						<path fill="#808181" d="M34.7,62.2C34.7,62.2,34.7,62.2,34.7,62.2L34.7,62.2C34.7,62.2,34.7,62.2,34.7,62.2z"/>
						<polygon fill="#808181" points="34.5,62.4 34.6,62.4 34.6,62.4 						"/>
						<path fill="#808181" d="M30.7,64L30.7,64C30.7,64,30.6,64,30.7,64z"/>
						<path fill="#808181" d="M36.4,59.8C36.4,59.8,36.4,59.8,36.4,59.8L36.4,59.8C36.4,59.8,36.4,59.8,36.4,59.8z"/>
						<path fill="#808181" d="M35,62.5L35,62.5C35,62.5,35,62.5,35,62.5z"/>
						<path fill="#808181" d="M32.3,63.9L32.3,63.9C32.3,63.9,32.3,63.9,32.3,63.9z"/>
						<path fill="#808181" d="M34.9,62.6C34.9,62.6,34.9,62.6,34.9,62.6C34.9,62.6,34.9,62.6,34.9,62.6L34.9,62.6z"/>
						<path fill="#808181" d="M30.7,64L30.7,64L30.7,64z"/>
						<path fill="#808181" d="M30.4,64.1c0,0,0-0.1,0-0.1C30.5,64,30.4,64,30.4,64.1c0.1,0,0.1-0.1,0.1-0.1c0,0,0,0,0,0
							c0-0.1,0.1,0,0.1-0.1l0,0c0,0,0-0.1,0-0.1c0,0,0,0,0,0c0,0,0,0,0,0l0,0c0,0.1,0,0,0,0.1c0,0,0.1-0.1,0.1-0.1
							c0,0.1-0.1,0,0,0.1l0,0c0,0.1,0,0,0,0.1c0,0,0.1,0,0.1,0c0,0,0-0.1,0-0.1c0.1-0.1,0.1,0.2,0.1,0.1c0,0,0-0.1,0.1-0.1l0,0.1
							c0,0,0-0.1,0.1-0.1c0,0,0,0,0,0c0,0.1,0,0,0,0l0,0.1c0.1,0,0.1-0.1,0.2-0.1c0,0,0,0,0,0.1c0.1,0,0.2,0,0.2,0l0-0.1
							c0,0,0,0,0,0c0,0,0,0,0-0.1c0,0,0,0,0,0c0-0.1,0.1-0.1,0.2-0.1l0,0c0,0,0-0.1,0.1-0.1l0,0c0.1,0,0.2,0,0.2,0
							c0-0.1,0.1,0,0.1-0.1c0.1,0,0,0.1,0.1,0.1c0,0,0-0.1,0-0.1l0,0.1l0-0.1l0,0.1l0,0c0,0,0,0,0,0c0,0,0.1,0,0.1,0.1l0.1-0.1
							c0,0,0,0,0,0.1c0-0.1,0,0.1,0,0c0,0,0,0,0,0c0,0,0.1,0,0.1,0l0,0c0.1,0,0.1-0.1,0.2-0.1c0,0,0-0.1,0-0.1l0,0.1c0,0,0,0,0-0.1
							c0,0,0,0.1,0,0.1l0,0c0,0,0,0,0,0.1c0,0,0.1,0,0.1,0l0,0c0.1,0,0.1,0,0.1-0.1c0-0.1,0,0,0-0.1c0,0,0.1,0,0.1,0c0,0,0,0,0-0.1
							c0,0,0.1,0,0.1,0.1c0,0,0.1,0,0.1-0.1c0,0,0,0,0,0c0,0,0,0,0,0l0,0c0-0.1,0.2,0.1,0.2-0.1l0,0l0-0.1c0,0,0,0,0,0.1
							c0-0.1,0.1,0,0.1-0.1c0.1,0.1,0.1-0.1,0.2,0l0,0c0,0,0,0,0,0c0,0,0,0,0,0c0.1-0.1,0.3-0.1,0.4-0.2c0,0-0.1-0.2,0-0.1l0,0.1
							c0-0.1,0.2-0.1,0.2-0.2c0,0,0,0,0,0c0,0,0.1,0,0-0.1c0,0,0,0,0,0c0,0,0-0.1,0-0.1c0,0,0,0,0,0c0,0,0.1,0,0-0.1
							c0,0,0-0.1,0.1-0.1c0-0.1,0.1,0,0-0.1c0.1,0.1,0.1,0,0.1,0c0,0,0,0,0.1,0c0,0,0-0.1,0-0.1c0.1,0,0-0.1,0.1-0.1
							c0-0.1,0-0.2,0.1-0.2c0.1,0.1,0,0.1,0,0.1c0-0.1,0-0.2,0.1-0.2c0,0,0,0,0,0c0-0.1,0.1-0.1,0.1-0.2c0,0,0,0,0,0c0,0,0,0,0,0
							l0,0c-0.1,0-0.1-0.1-0.1-0.1c0.1,0.1,0.1,0,0.2,0.1c0,0,0,0,0,0c0,0,0,0,0,0c0,0,0-0.1,0-0.1c0,0,0,0,0,0c0,0,0-0.1,0-0.1
							c0,0,0,0,0,0c0,0,0-0.1,0-0.2c0.1,0.1,0,0,0.1,0l0,0l0,0c0,0,0-0.1,0-0.1l0,0l0-0.1l0,0c0,0-0.1,0,0-0.1c0,0,0,0,0.1,0l0,0
							c0,0,0,0,0-0.1c0,0,0.1,0,0.1,0.1c0,0,0-0.1,0-0.1c0,0,0,0,0.1,0l0,0c0,0,0,0,0.1,0c0,0-0.1,0,0-0.1c0,0,0,0,0,0
							c0,0,0-0.1,0.1-0.1c0.1,0,0,0,0.1,0.1c0-0.1,0-0.2,0-0.2l0,0c-0.1-0.1,0.1,0,0-0.1c0,0,0,0,0,0c0,0,0-0.1,0-0.2l0,0
							c0,0,0-0.1,0.1-0.1c0,0,0,0,0,0c0.2,0,0-0.2,0.1-0.2c0,0,0,0,0,0c0,0,0,0,0-0.1c0,0,0,0-0.1,0c0,0,0,0,0-0.1c0,0,0.1,0,0.1,0
							l0,0c0.1,0-0.1,0,0-0.1l0,0c0,0,0,0,0-0.1c0.1,0,0,0,0.1,0c0,0-0.1-0.1,0-0.1c0,0,0,0,0,0c0.1,0,0.1,0,0.1,0l0,0l0,0l0,0
							c-0.1-0.1,0-0.1-0.1-0.1c0.1,0.1,0,0,0.1,0c0,0,0,0,0.1,0c0,0,0,0,0-0.1c0,0,0,0,0.1,0c0,0,0,0-0.1,0c0-0.1,0.1-0.1,0-0.1
							c0-0.1-0.1-0.1-0.1-0.1c0,0,0.1,0,0.1,0c0,0,0,0,0-0.1c0,0,0,0,0.1,0c0,0-0.1,0,0,0c0,0,0,0,0.1,0c0,0,0-0.1,0-0.1
							c0,0,0,0,0.1,0c0,0,0-0.1-0.1-0.1l0,0c0,0,0,0,0.1,0c0,0,0,0,0,0l0,0c-0.1,0,0,0.1,0,0.1l-0.1,0l0.1,0.1c0,0-0.1,0-0.1,0
							c0,0,0,0,0,0c0,0,0,0,0,0l0,0c0,0-0.1,0,0,0c-0.1,0,0,0.1,0,0.1l0,0c0,0.1,0.1,0,0.1,0.1l-0.1,0l0.1,0c0,0,0,0,0,0
							c0,0,0,0,0.1,0c-0.1,0,0,0.1-0.1,0.1c0,0,0,0,0.1,0c-0.1,0,0,0,0,0c0,0,0,0-0.1,0c0.1,0,0,0,0,0.1c0.1,0,0,0.1,0,0.1
							c0,0-0.1,0-0.1,0.1l0,0c0.1,0,0,0.1,0,0.1c0,0-0.1,0-0.1,0l0,0c0,0,0,0,0,0l0,0c0,0,0,0.1,0,0.1c0,0,0.1,0,0.2,0.1
							c0,0-0.1,0-0.1,0c0,0,0,0,0,0l0,0c0,0,0,0,0,0c0,0,0,0-0.1,0c0,0,0,0,0,0c0,0,0,0-0.1,0c0,0,0,0,0,0c0,0,0,0-0.1,0
							c0,0,0,0,0,0c0,0,0,0,0,0c0,0,0,0.1,0,0.1l0,0l0,0l0,0l0,0c0,0.1-0.1,0.1-0.1,0.1l0,0c0,0,0,0.1,0,0.1c0,0,0,0-0.1,0
							c0,0,0,0,0,0.1c0,0,0,0,0,0c0,0-0.1,0,0,0.1c0,0-0.1,0-0.1,0l0,0c0,0,0,0,0,0l-0.1,0c-0.1,0,0.1,0.2-0.1,0.1c0,0,0,0,0.1,0
							c0,0-0.1,0-0.1,0c-0.1,0,0.1,0.1,0,0.1c0,0,0.1,0,0.1,0.1c0,0-0.1,0-0.1,0c0,0,0,0,0,0c0,0,0,0,0,0l0,0c0,0,0,0-0.1,0
							c0,0,0,0,0,0c0,0,0,0-0.1,0.1c0,0,0,0,0,0c-0.1,0,0,0,0,0.1c0,0-0.1-0.1-0.1,0c0,0-0.1,0-0.1,0c0,0.1-0.1,0-0.1,0l0,0
							c0,0,0,0,0,0l0,0c0,0,0,0,0,0c0,0,0.1,0,0.1,0.1c0,0,0,0.1-0.1,0c0,0-0.1,0,0-0.1c0,0,0,0,0,0c0,0,0,0,0,0c-0.1,0,0,0.1,0,0.1
							c0,0-0.1,0-0.1,0c0,0,0.1,0,0.1,0.1c0,0,0,0,0,0l0,0c0,0,0,0,0,0.1c0,0,0,0,0,0c0,0.1-0.1,0-0.1,0.1c0,0-0.1,0-0.1,0
							c0,0.1-0.1,0-0.1,0c0,0,0,0,0.1,0.1l0-0.1l0,0.1c0,0,0,0,0,0c0,0,0,0,0,0c-0.1,0,0,0.1-0.1,0.1l-0.1-0.1c-0.1,0,0,0.1-0.1,0.1
							l0,0c0,0,0,0,0,0.1c0,0,0,0-0.1,0c0,0,0,0,0,0.1l-0.1,0c0,0,0,0.1,0,0.1c0,0-0.1,0-0.1-0.1c0,0,0,0,0,0c0,0,0,0.1,0,0
							c0,0,0,0,0,0.1c0,0,0,0,0,0c0,0,0,0,0,0.1c-0.1-0.1-0.1,0.1-0.2,0.1c0,0,0,0.1-0.1,0.1c0,0,0,0,0,0c-0.1,0,0.1,0.1,0,0.1
							c-0.1,0,0,0,0,0c-0.1-0.1,0,0-0.1,0l0,0c0,0,0,0.1,0,0.1c0,0,0,0,0,0c0,0.1,0,0.1,0,0.2c0,0,0,0,0-0.1c0,0,0.1,0.1,0,0.1
							c0,0-0.1,0-0.1-0.1l0,0c-0.1,0,0,0,0,0l0,0c0,0,0,0.1,0,0.1l0,0c0,0.1,0,0,0,0L34,62.8c0,0,0,0.1,0,0.1c0-0.1,0-0.1,0-0.1
							c0,0,0,0,0,0.1c0,0,0,0,0,0c0,0.1,0,0.1,0,0.1c-0.1-0.1-0.1,0-0.2-0.1c0,0.1-0.1,0-0.2,0.1c0.1,0.1,0,0,0,0.1c0,0,0,0,0,0
							l-0.1,0c0,0,0,0,0-0.1c0,0,0,0-0.1-0.1c0,0,0,0.1,0,0.1l0.1,0c0,0.1-0.1-0.1-0.1,0l0,0c0,0-0.1,0-0.1,0.1c0,0,0,0,0,0
							c-0.1,0-0.1,0.1-0.2,0.1l0,0c0,0,0,0.1,0,0c0,0,0,0,0,0c0,0,0,0.1,0,0.1l0,0c-0.1,0-0.1,0.1-0.1,0.2c0-0.1-0.1-0.1-0.1-0.1
							l0,0c-0.1,0-0.1,0.1-0.2,0.2c-0.1-0.1-0.1,0-0.2,0c0,0,0,0.1,0,0.1c0,0,0,0.1,0,0l0,0c0-0.1-0.1,0-0.1,0l0,0.1
							c-0.1-0.1-0.2,0.1-0.2,0c0,0,0,0,0,0.1l0-0.1c0,0-0.1,0-0.1,0l0,0c0,0,0,0.2,0,0.2l0-0.1c-0.1,0-0.1-0.1-0.2,0c0,0,0,0,0,0
							c0,0-0.1,0-0.1,0.1c0-0.1-0.1,0-0.1,0l0-0.1c0,0.1,0,0.1-0.1,0.1c0,0,0,0,0,0c0,0,0,0.1-0.1,0l0,0c0,0,0,0,0,0.1
							c0,0-0.1,0-0.1-0.1c0,0,0,0.1,0,0.1c0,0,0,0,0,0c0,0-0.1,0.1-0.1,0c0,0,0,0,0,0c0,0,0.1,0,0.1,0c0,0,0-0.1,0-0.1
							c0,0-0.1,0.1-0.1,0.1c0,0,0,0,0,0l0,0c0,0,0,0,0,0c0,0,0,0,0,0c0,0,0,0-0.1,0c0,0.1,0,0,0,0.1c0,0,0,0,0,0l0,0l0,0l0,0
							c0,0,0,0.1,0,0c0,0,0,0.1,0,0.1c0-0.1-0.1-0.1-0.1-0.2c0,0-0.1,0-0.1,0.1c0,0,0,0,0,0c0,0,0,0,0,0c0,0-0.1,0-0.1,0.1
							c0,0,0-0.1,0-0.1l0,0c-0.1-0.1-0.2,0.2-0.3,0c0,0,0,0,0,0c-0.1-0.1-0.2,0-0.3-0.1c0,0,0,0-0.1,0.1l0-0.1l0,0.1
							c-0.1,0-0.1-0.2-0.1-0.1l0,0c0,0-0.1,0-0.1,0c0,0,0,0,0,0l0,0l-0.1,0c0,0,0-0.1,0-0.1c0,0-0.1,0.1-0.1,0.1c0,0,0,0,0,0.1l0,0
							c0,0.1-0.1,0.2,0,0.2l0.1,0l0,0l0,0c0,0,0,0,0,0c0,0,0,0,0,0.1l0.1-0.1c0,0,0,0.1,0,0.1c0,0,0-0.1,0-0.1c0,0,0,0.1,0,0
							c0,0,0,0,0,0c0,0,0.1,0,0.1,0c0,0.1,0.1,0,0,0.1c0,0,0-0.1,0.1-0.1c0,0.1,0.1,0,0,0.1c0-0.1,0.1,0,0.1-0.1c0,0,0,0,0,0
							c0,0,0,0,0,0.1c0-0.1,0.1-0.1,0.1-0.1c0,0.1,0,0.1,0,0.2c0-0.1,0.1-0.1,0.1-0.1C30.3,64,30.3,64,30.4,64.1c0-0.1,0-0.1,0-0.1
							C30.4,64,30.4,64.1,30.4,64.1C30.4,64.1,30.4,64.1,30.4,64.1z M31.2,64L31.2,64C31.2,64,31.2,64,31.2,64
							C31.2,64,31.2,64,31.2,64z M31.3,64L31.3,64C31.3,63.9,31.3,63.9,31.3,64C31.3,63.9,31.3,63.9,31.3,64z M31.1,63.6
							C31.1,63.6,31.2,63.6,31.1,63.6C31.2,63.6,31.1,63.6,31.1,63.6L31.1,63.6C31.1,63.6,31.1,63.6,31.1,63.6z"/>
						<path fill="#808181" d="M31.1,63.7L31.1,63.7C31.1,63.7,31.1,63.7,31.1,63.7L31.1,63.7L31.1,63.7z"/>
						<polygon fill="#808181" points="35.8,60.7 35.8,60.7 35.8,60.7 						"/>
						<polygon fill="#808181" points="32.2,64 32.2,63.9 32.2,64 						"/>
						<path fill="#808181" d="M36.2,60.5L36.2,60.5C36.2,60.5,36.2,60.5,36.2,60.5z"/>
						<path fill="#808181" d="M36.2,60.3L36.2,60.3C36.2,60.3,36.2,60.3,36.2,60.3z"/>
						<polygon fill="#808181" points="36.3,60.2 36.3,60.2 36.3,60.2 						"/>
						<path fill="#808181" d="M35.4,62L35.4,62C35.4,62,35.4,62,35.4,62z"/>
						<path fill="#808181" d="M35.6,61.4C35.6,61.4,35.6,61.4,35.6,61.4C35.6,61.4,35.7,61.4,35.6,61.4z"/>
						<polygon fill="#808181" points="35,62.5 35,62.5 35,62.5 						"/>
						<path fill="#808181" d="M35.6,61.5C35.6,61.5,35.6,61.5,35.6,61.5C35.6,61.5,35.6,61.5,35.6,61.5z"/>
						<polygon fill="#808181" points="36.5,59.7 36.5,59.7 36.5,59.7 						"/>
						<path fill="#808181" d="M36.5,59.7L36.5,59.7C36.5,59.7,36.5,59.7,36.5,59.7z"/>
						<path fill="#808181" d="M36.5,59.7L36.5,59.7C36.5,59.7,36.5,59.7,36.5,59.7z"/>
						<path fill="#808181" d="M36.4,59.9L36.4,59.9C36.4,59.9,36.4,59.9,36.4,59.9z"/>
						<path fill="#808181" d="M36.4,59.9C36.4,59.9,36.4,59.9,36.4,59.9L36.4,59.9C36.5,59.9,36.4,59.9,36.4,59.9z"/>
						<path fill="#808181" d="M36.1,60L36.1,60C36.1,60,36.1,60,36.1,60C36,60,36.1,60,36.1,60z"/>
						<path fill="#808181" d="M36,60.1C36,60.1,36,60.1,36,60.1C36,60.1,36,60.1,36,60.1z"/>
						<path fill="#808181" d="M35.7,60.9L35.7,60.9C35.6,60.9,35.6,60.9,35.7,60.9z"/>
						<polygon fill="#808181" points="35.8,61.2 35.8,61.2 35.8,61.2 						"/>
						<polygon fill="#808181" points="35.4,61.1 35.4,61.1 35.4,61.2 						"/>
						<path fill="#808181" d="M34.5,62.3L34.5,62.3C34.6,62.3,34.5,62.3,34.5,62.3z"/>
						<path fill="#808181" d="M34.1,62.8C34.1,62.7,34,62.7,34.1,62.8C34.1,62.8,34.1,62.8,34.1,62.8z"/>
						<polygon fill="#808181" points="32.3,63.4 32.3,63.4 32.3,63.4 						"/>
					</g>
				</g>
			</g>
		</g>
	</g>
	<g>
		<g>
			<g>
				<g>
					<g>
						<path fill="#808181" d="M51,45.4C50.9,45.4,50.9,45.4,51,45.4L51,45.4L51,45.4z"/>
						<path fill="#808181" d="M50.8,45.5c0,0,0.1,0.1,0.1,0.1C50.9,45.5,50.9,45.5,50.8,45.5C50.8,45.5,50.9,45.5,50.8,45.5
							C50.9,45.5,50.9,45.5,50.8,45.5C50.8,45.5,50.8,45.5,50.8,45.5C50.8,45.5,50.8,45.5,50.8,45.5z"/>
						<path fill="#808181" d="M50.3,46.6L50.3,46.6L50.3,46.6z"/>
						<path fill="#808181" d="M49.9,47.2C49.9,47.2,49.9,47.2,49.9,47.2C49.9,47.2,49.9,47.2,49.9,47.2z"/>
						<path fill="#808181" d="M49.7,47.3L49.7,47.3C49.7,47.3,49.7,47.3,49.7,47.3z"/>
						<path fill="#808181" d="M50.3,46.6L50.3,46.6C50.2,46.6,50.2,46.6,50.3,46.6z"/>
						<path fill="#808181" d="M50.9,45.7C50.9,45.7,50.9,45.7,50.9,45.7C50.9,45.7,50.9,45.7,50.9,45.7L50.9,45.7z"/>
						<polygon fill="#808181" points="50.4,46.3 50.4,46.3 50.3,46.3 						"/>
						<path fill="#808181" d="M50.4,46C50.4,46,50.5,46.1,50.4,46C50.5,46.1,50.5,46.1,50.4,46C50.5,46,50.5,46,50.4,46z"/>
						<path fill="#808181" d="M50.7,45.7L50.7,45.7L50.7,45.7z"/>
						<path fill="#808181" d="M50.3,46.4C50.3,46.4,50.2,46.4,50.3,46.4L50.3,46.4z"/>
						<path fill="#808181" d="M44.4,49.9L44.4,49.9C44.4,49.9,44.4,49.9,44.4,49.9z"/>
						<polygon fill="#808181" points="44.2,49.5 44.2,49.5 44.2,49.5 						"/>
						<path fill="#808181" d="M49.5,47.5L49.5,47.5C49.5,47.5,49.5,47.5,49.5,47.5z"/>
						<path fill="#808181" d="M48,48.9c0,0,0,0.1,0.1,0.1C48,49,48,48.9,48,48.9z"/>
						<path fill="#808181" d="M50.9,45.7L50.9,45.7C50.9,45.7,50.9,45.7,50.9,45.7z"/>
						<polygon fill="#808181" points="48.1,49 48.1,49 48.1,49 						"/>
						<path fill="#808181" d="M49.2,47.9L49.2,47.9C49.2,47.9,49.2,47.9,49.2,47.9z"/>
						<path fill="#808181" d="M49.5,47.6L49.5,47.6C49.5,47.6,49.5,47.6,49.5,47.6z"/>
						<path fill="#808181" d="M49.1,48.1C49.1,48.1,49.1,48.1,49.1,48.1L49.1,48.1C49.1,48.1,49.1,48.1,49.1,48.1z"/>
						<polygon fill="#808181" points="49,48.3 49,48.3 49,48.2 						"/>
						<path fill="#808181" d="M45.1,49.9L45.1,49.9C45.1,49.9,45.1,49.9,45.1,49.9z"/>
						<path fill="#808181" d="M50.9,45.7C50.9,45.7,50.9,45.7,50.9,45.7L50.9,45.7C50.9,45.7,50.9,45.7,50.9,45.7z"/>
						<path fill="#808181" d="M49.4,48.4L49.4,48.4C49.4,48.4,49.4,48.4,49.4,48.4z"/>
						<path fill="#808181" d="M46.8,49.8L46.8,49.8C46.7,49.8,46.8,49.8,46.8,49.8z"/>
						<path fill="#808181" d="M49.3,48.5C49.3,48.5,49.3,48.5,49.3,48.5C49.3,48.5,49.3,48.5,49.3,48.5L49.3,48.5z"/>
						<path fill="#808181" d="M45.1,49.9L45.1,49.9L45.1,49.9z"/>
						<path fill="#808181" d="M44.8,50c0,0,0-0.1,0-0.1C44.9,49.9,44.9,49.9,44.8,50c0.1,0,0.1-0.1,0.1-0.1c0,0,0,0,0,0
							c0-0.1,0.1,0,0.1-0.1l0,0c0,0,0-0.1,0-0.1c0,0,0,0,0,0c0,0,0,0,0,0l0,0c0,0.1,0,0,0,0.1c0,0,0.1-0.1,0.1-0.1
							c0,0.1-0.1,0,0,0.1l0,0c0,0.1,0,0,0,0.1c0,0,0.1,0,0.1,0c0,0,0-0.1,0-0.1c0.1-0.1,0.1,0.2,0.1,0.1c0,0,0-0.1,0.1-0.1l0,0.1
							c0,0,0-0.1,0.1-0.1c0,0,0,0,0,0c0,0.1,0,0,0,0l0,0.1c0.1,0,0.1-0.1,0.2-0.1c0,0,0,0,0,0.1c0.1,0,0.2,0,0.2,0l0-0.1
							c0,0,0,0,0,0c0,0,0,0,0-0.1c0,0,0,0,0,0c0-0.1,0.1-0.1,0.2-0.1l0,0c0,0,0-0.1,0.1-0.1l0,0c0.1,0,0.2,0,0.2,0
							c0-0.1,0.1,0,0.1-0.1c0.1,0,0,0.1,0.1,0.1c0,0,0-0.1,0-0.1l0,0.1l0-0.1l0,0.1l0,0c0,0,0,0,0,0c0,0,0.1,0,0.1,0.1l0.1-0.1
							c0,0,0,0,0,0.1c0-0.1,0,0.1,0,0c0,0,0,0,0,0c0,0,0.1,0,0.1,0l0,0c0.1,0,0.1-0.1,0.2-0.1c0,0,0-0.1,0-0.1l0,0.1c0,0,0,0,0-0.1
							c0,0,0,0.1,0,0.1l0,0c0,0,0,0,0,0.1c0,0,0.1,0,0.1,0l0,0c0.1,0,0.1,0,0.1-0.1c0-0.1,0,0,0-0.1c0,0,0.1,0,0.1,0c0,0,0,0,0-0.1
							c0,0,0.1,0,0.1,0.1c0,0,0.1,0,0.1-0.1c0,0,0,0,0,0c0,0,0,0,0,0l0,0c0-0.1,0.2,0.1,0.2-0.1l0,0l0-0.1c0,0,0,0,0,0.1
							c0-0.1,0.1,0,0.1-0.1c0.1,0.1,0.1-0.1,0.2,0l0,0c0,0,0,0,0,0c0,0,0,0,0,0c0.1-0.1,0.3-0.1,0.4-0.2c0,0-0.1-0.2,0-0.1l0,0.1
							c0-0.1,0.2-0.1,0.2-0.2c0,0,0,0,0,0c0,0,0.1,0,0-0.1c0,0,0,0,0,0c0,0,0-0.1,0-0.1c0,0,0,0,0,0c0,0,0.1,0,0-0.1
							c0,0,0-0.1,0.1-0.1c0-0.1,0.1,0,0-0.1c0.1,0.1,0.1,0,0.1,0c0,0,0,0,0.1,0c0,0,0-0.1,0-0.1c0.1,0,0-0.1,0.1-0.1
							c0-0.1,0-0.2,0.1-0.2c0.1,0.1,0,0.1,0,0.1c0-0.1,0-0.2,0.1-0.2c0,0,0,0,0,0c0-0.1,0.1-0.1,0.1-0.2c0,0,0,0,0,0c0,0,0,0,0,0
							l0,0c-0.1,0-0.1-0.1-0.1-0.1c0.1,0.1,0.1,0,0.2,0.1c0,0,0,0,0,0c0,0,0,0,0,0c0,0,0-0.1,0-0.1c0,0,0,0,0,0c0,0,0-0.1,0-0.1
							c0,0,0,0,0,0c0,0,0-0.1,0-0.2c0.1,0.1,0,0,0.1,0l0,0l0,0c0,0,0-0.1,0-0.1l0,0l0-0.1l0,0c0,0-0.1,0,0-0.1c0,0,0,0,0.1,0l0,0
							c0,0,0,0,0-0.1c0,0,0.1,0,0.1,0.1c0,0,0-0.1,0-0.1c0,0,0,0,0.1,0l0,0c0,0,0,0,0.1,0c0,0-0.1,0,0-0.1c0,0,0,0,0,0
							c0,0,0-0.1,0.1-0.1c0.1,0,0,0,0.1,0.1c0-0.1,0-0.2,0-0.2l0,0c-0.1-0.1,0.1,0,0-0.1c0,0,0,0,0,0c0,0,0-0.1,0-0.2l0,0
							c0,0,0-0.1,0.1-0.1c0,0,0,0,0,0c0.2,0,0-0.2,0.1-0.2c0,0,0,0,0,0c0,0,0,0,0-0.1c0,0,0,0-0.1,0c0,0,0,0,0-0.1c0,0,0.1,0,0.1,0
							l0,0c0.1,0-0.1,0,0-0.1l0,0c0,0,0,0,0-0.1c0.1,0,0,0,0.1,0c0,0-0.1-0.1,0-0.1c0,0,0,0,0,0c0.1,0,0.1,0,0.1,0l0,0l0,0l0,0
							c-0.1-0.1,0-0.1-0.1-0.1c0.1,0.1,0,0,0.1,0c0,0,0,0,0.1,0c0,0,0,0,0-0.1c0,0,0,0,0.1,0c0,0,0,0-0.1,0c0-0.1,0.1-0.1,0-0.1
							c0-0.1-0.1-0.1-0.1-0.1c0,0,0.1,0,0.1,0c0,0,0,0,0-0.1c0,0,0,0,0.1,0c0,0-0.1,0,0,0c0,0,0,0,0.1,0c0,0,0-0.1,0-0.1
							c0,0,0,0,0.1,0c0,0,0-0.1-0.1-0.1l0,0c0,0,0,0,0.1,0c0,0,0,0,0,0l0,0c-0.1,0,0,0.1,0,0.1l-0.1,0l0.1,0.1c0,0-0.1,0-0.1,0
							c0,0,0,0,0,0c0,0,0,0,0,0l0,0c0,0-0.1,0,0,0c-0.1,0,0,0.1,0,0.1l0,0c0,0.1,0.1,0,0.1,0.1l-0.1,0l0.1,0c0,0,0,0,0,0
							c0,0,0,0,0.1,0c-0.1,0,0,0.1-0.1,0.1c0,0,0,0,0.1,0c-0.1,0,0,0,0,0c0,0,0,0-0.1,0c0.1,0,0,0,0,0.1c0.1,0,0,0.1,0,0.1
							c0,0-0.1,0-0.1,0.1l0,0c0.1,0,0,0.1,0,0.1c0,0-0.1,0-0.1,0l0,0c0,0,0,0,0,0l0,0c0,0,0,0.1,0,0.1c0,0,0.1,0,0.2,0.1
							c0,0-0.1,0-0.1,0c0,0,0,0,0,0l0,0c0,0,0,0,0,0c0,0,0,0-0.1,0c0,0,0,0,0,0c0,0,0,0-0.1,0c0,0,0,0,0,0c0,0,0,0-0.1,0
							c0,0,0,0,0,0c0,0,0,0,0,0c0,0,0,0.1,0,0.1l0,0l0,0l0,0l0,0c0,0.1-0.1,0.1-0.1,0.1l0,0c0,0,0,0.1,0,0.1c0,0,0,0-0.1,0
							c0,0,0,0,0,0.1c0,0,0,0,0,0c0,0-0.1,0,0,0.1c0,0-0.1,0-0.1,0l0,0c0,0,0,0,0,0l-0.1,0c-0.1,0,0.1,0.2-0.1,0.1c0,0,0,0,0.1,0
							c0,0-0.1,0-0.1,0c-0.1,0,0.1,0.1,0,0.1c0,0,0.1,0,0.1,0.1c0,0-0.1,0-0.1,0c0,0,0,0,0,0c0,0,0,0,0,0l0,0c0,0,0,0-0.1,0
							c0,0,0,0,0,0c0,0,0,0-0.1,0.1c0,0,0,0,0,0c-0.1,0,0,0,0,0.1c0,0-0.1-0.1-0.1,0c0,0-0.1,0-0.1,0c0,0.1-0.1,0-0.1,0l0,0
							c0,0,0,0,0,0l0,0c0,0,0,0,0,0c0,0,0.1,0,0.1,0.1c0,0,0,0.1-0.1,0c0,0-0.1,0,0-0.1c0,0,0,0,0,0c0,0,0,0,0,0c-0.1,0,0,0.1,0,0.1
							c0,0-0.1,0-0.1,0c0,0,0.1,0,0.1,0.1c0,0,0,0,0,0l0,0c0,0,0,0,0,0.1c0,0,0,0,0,0c0,0.1-0.1,0-0.1,0.1c0,0-0.1,0-0.1,0
							c0,0.1-0.1,0-0.1,0c0,0,0,0,0.1,0.1l0-0.1l0,0.1c0,0,0,0,0,0c0,0,0,0,0,0c-0.1,0,0,0.1-0.1,0.1l-0.1-0.1c-0.1,0,0,0.1-0.1,0.1
							l0,0c0,0,0,0,0,0.1c0,0,0,0-0.1,0c0,0,0,0,0,0.1l-0.1,0c0,0,0,0.1,0,0.1c0,0-0.1,0-0.1-0.1c0,0,0,0,0,0c0,0,0,0.1,0,0
							c0,0,0,0,0,0.1c0,0,0,0,0,0c0,0,0,0,0,0.1c-0.1-0.1-0.1,0.1-0.2,0.1c0,0,0,0.1-0.1,0.1c0,0,0,0,0,0c-0.1,0,0.1,0.1,0,0.1
							c-0.1,0,0,0,0,0c-0.1-0.1,0,0-0.1,0l0,0c0,0,0,0.1,0,0.1c0,0,0,0,0,0c0,0.1,0,0.1,0,0.2c0,0,0,0,0-0.1c0,0,0.1,0.1,0,0.1
							c0,0-0.1,0-0.1-0.1l0,0c-0.1,0,0,0,0,0l0,0c0,0,0,0.1,0,0.1l0,0c0,0.1,0,0,0,0l-0.1-0.1c0,0,0,0.1,0,0.1c0-0.1,0-0.1,0-0.1
							c0,0,0,0,0,0.1c0,0,0,0,0,0c0,0.1,0,0.1,0,0.1c-0.1-0.1-0.1,0-0.2-0.1c0,0.1-0.1,0-0.2,0.1c0.1,0.1,0,0,0,0.1c0,0,0,0,0,0
							l-0.1,0c0,0,0,0,0-0.1c0,0,0,0-0.1-0.1c0,0,0,0.1,0,0.1l0.1,0c0,0.1-0.1-0.1-0.1,0l0,0c0,0-0.1,0-0.1,0.1c0,0,0,0,0,0
							c-0.1,0-0.1,0.1-0.2,0.1l0,0c0,0,0,0.1,0,0c0,0,0,0,0,0c0,0,0,0.1,0,0.1l0,0c-0.1,0-0.1,0.1-0.1,0.2c0-0.1-0.1-0.1-0.1-0.1
							l0,0c-0.1,0-0.1,0.1-0.2,0.2c-0.1-0.1-0.1,0-0.2,0c0,0,0,0.1,0,0.1c0,0,0,0.1,0,0l0,0c0-0.1-0.1,0-0.1,0l0,0.1
							c-0.1-0.1-0.2,0.1-0.2,0c0,0,0,0,0,0.1l0-0.1c0,0-0.1,0-0.1,0l0,0c0,0,0,0.2,0,0.2l0-0.1c-0.1,0-0.1-0.1-0.2,0c0,0,0,0,0,0
							c0,0-0.1,0-0.1,0.1c0-0.1-0.1,0-0.1,0l0-0.1c0,0.1,0,0.1-0.1,0.1c0,0,0,0,0,0c0,0,0,0.1-0.1,0l0,0c0,0,0,0,0,0.1
							c0,0-0.1,0-0.1-0.1c0,0,0,0.1,0,0.1c0,0,0,0,0,0c0,0-0.1,0.1-0.1,0c0,0,0,0,0,0c0,0,0.1,0,0.1,0c0,0,0-0.1,0-0.1
							c0,0-0.1,0.1-0.1,0.1c0,0,0,0,0,0l0,0c0,0,0,0,0,0c0,0,0,0,0,0c0,0,0,0-0.1,0c0,0.1,0,0,0,0.1c0,0,0,0,0,0l0,0l0,0l0,0
							c0,0,0,0.1,0,0c0,0,0,0.1,0,0.1c0-0.1-0.1-0.1-0.1-0.2c0,0-0.1,0-0.1,0.1c0,0,0,0,0,0c0,0,0,0,0,0c0,0-0.1,0-0.1,0.1
							c0,0,0-0.1,0-0.1l0,0c-0.1-0.1-0.2,0.2-0.3,0c0,0,0,0,0,0c-0.1-0.1-0.2,0-0.3-0.1c0,0,0,0-0.1,0.1l0-0.1l0,0.1
							c-0.1,0-0.1-0.2-0.1-0.1l0,0c0,0-0.1,0-0.1,0c0,0,0,0,0,0l0,0l-0.1,0c0,0,0-0.1,0-0.1c0,0-0.1,0.1-0.1,0.1c0,0,0,0,0,0.1l0,0
							c0,0.1-0.1,0.2,0,0.2l0.1,0l0,0l0,0c0,0,0,0,0,0c0,0,0,0,0,0.1l0.1-0.1c0,0,0,0.1,0,0.1c0,0,0-0.1,0-0.1c0,0,0,0.1,0,0
							c0,0,0,0,0,0c0,0,0.1,0,0.1,0c0,0.1,0.1,0,0,0.1c0,0,0-0.1,0.1-0.1c0,0.1,0.1,0,0,0.1c0-0.1,0.1,0,0.1-0.1c0,0,0,0,0,0
							c0,0,0,0,0,0.1c0-0.1,0.1-0.1,0.1-0.1c0,0.1,0,0.1,0,0.2c0-0.1,0.1-0.1,0.1-0.1C44.8,49.9,44.8,49.9,44.8,50
							c0-0.1,0-0.1,0-0.1C44.9,49.9,44.8,49.9,44.8,50C44.9,50,44.8,50,44.8,50z M45.7,49.8L45.7,49.8
							C45.7,49.8,45.7,49.9,45.7,49.8C45.7,49.9,45.7,49.8,45.7,49.8z M45.7,49.8L45.7,49.8C45.7,49.8,45.7,49.8,45.7,49.8
							C45.7,49.8,45.7,49.8,45.7,49.8z M45.6,49.5C45.6,49.5,45.6,49.5,45.6,49.5C45.6,49.5,45.6,49.5,45.6,49.5L45.6,49.5
							C45.6,49.5,45.6,49.5,45.6,49.5z"/>
						<path fill="#808181" d="M45.6,49.5L45.6,49.5C45.6,49.6,45.6,49.6,45.6,49.5L45.6,49.5L45.6,49.5z"/>
						<polygon fill="#808181" points="50.3,46.6 50.3,46.6 50.3,46.6 						"/>
						<polygon fill="#808181" points="46.7,49.8 46.7,49.8 46.7,49.8 						"/>
						<path fill="#808181" d="M50.6,46.3L50.6,46.3C50.6,46.3,50.6,46.3,50.6,46.3z"/>
						<path fill="#808181" d="M50.7,46.2L50.7,46.2C50.7,46.2,50.7,46.2,50.7,46.2z"/>
						<polygon fill="#808181" points="50.7,46.1 50.7,46.1 50.7,46.1 						"/>
						<path fill="#808181" d="M49.8,47.9L49.8,47.9C49.8,47.9,49.8,47.9,49.8,47.9z"/>
						<path fill="#808181" d="M50.1,47.3C50.1,47.3,50.1,47.3,50.1,47.3C50.1,47.3,50.1,47.3,50.1,47.3z"/>
						<polygon fill="#808181" points="49.4,48.4 49.4,48.4 49.4,48.4 						"/>
						<path fill="#808181" d="M50.1,47.4C50.1,47.3,50.1,47.3,50.1,47.4C50.1,47.3,50.1,47.3,50.1,47.4z"/>
						<polygon fill="#808181" points="50.9,45.6 50.9,45.6 50.9,45.6 						"/>
						<path fill="#808181" d="M50.9,45.6L50.9,45.6C50.9,45.6,50.9,45.6,50.9,45.6z"/>
						<path fill="#808181" d="M50.9,45.6L50.9,45.6C50.9,45.6,50.9,45.6,50.9,45.6z"/>
						<path fill="#808181" d="M50.9,45.7L50.9,45.7C50.9,45.8,50.9,45.8,50.9,45.7z"/>
						<path fill="#808181" d="M50.8,45.8C50.9,45.8,50.9,45.8,50.8,45.8L50.8,45.8C50.9,45.8,50.8,45.8,50.8,45.8z"/>
						<path fill="#808181" d="M50.5,45.9L50.5,45.9C50.6,45.9,50.5,45.9,50.5,45.9C50.4,45.9,50.6,45.9,50.5,45.9z"/>
						<path fill="#808181" d="M50.5,46C50.5,46,50.4,46,50.5,46C50.4,46,50.5,46,50.5,46z"/>
						<path fill="#808181" d="M50.1,46.8L50.1,46.8C50.1,46.8,50.1,46.8,50.1,46.8z"/>
						<polygon fill="#808181" points="50.2,47.1 50.3,47.1 50.2,47.1 						"/>
						<polygon fill="#808181" points="49.9,47 49.9,47 49.9,47 						"/>
						<path fill="#808181" d="M49,48.2L49,48.2C49,48.2,49,48.2,49,48.2z"/>
						<path fill="#808181" d="M48.5,48.6C48.5,48.6,48.5,48.6,48.5,48.6C48.5,48.6,48.5,48.7,48.5,48.6z"/>
						<polygon fill="#808181" points="46.8,49.3 46.8,49.3 46.7,49.3 						"/>
					</g>
				</g>
			</g>
		</g>
	</g>
	<g>
		<g>
			<g>
				<g>
					<g>
						<path fill="#808181" d="M64.1,31.8C64.1,31.8,64.1,31.8,64.1,31.8L64.1,31.8L64.1,31.8z"/>
						<path fill="#808181" d="M64,31.9c0,0,0.1,0.1,0.1,0.1C64,31.9,64.1,31.9,64,31.9C64,31.9,64,31.9,64,31.9
							C64,31.9,64.1,31.9,64,31.9C64,31.8,64,31.9,64,31.9C64,31.9,64,31.9,64,31.9z"/>
						<path fill="#808181" d="M63.4,33L63.4,33L63.4,33z"/>
						<path fill="#808181" d="M63,33.6C63,33.6,63,33.6,63,33.6C63,33.6,63,33.6,63,33.6z"/>
						<path fill="#808181" d="M62.9,33.7L62.9,33.7C62.9,33.7,62.9,33.7,62.9,33.7z"/>
						<path fill="#808181" d="M63.4,33L63.4,33C63.4,33,63.4,33,63.4,33z"/>
						<path fill="#808181" d="M64.1,32.1C64.1,32.1,64.1,32.1,64.1,32.1C64.1,32.1,64.1,32.1,64.1,32.1L64.1,32.1z"/>
						<polygon fill="#808181" points="63.5,32.7 63.5,32.7 63.5,32.7 						"/>
						<path fill="#808181" d="M63.6,32.4C63.6,32.4,63.6,32.5,63.6,32.4C63.6,32.5,63.6,32.4,63.6,32.4
							C63.6,32.4,63.6,32.4,63.6,32.4z"/>
						<path fill="#808181" d="M63.8,32.1L63.8,32.1L63.8,32.1z"/>
						<path fill="#808181" d="M63.4,32.8C63.4,32.8,63.4,32.8,63.4,32.8L63.4,32.8z"/>
						<path fill="#808181" d="M57.6,36.3L57.6,36.3C57.6,36.3,57.6,36.3,57.6,36.3z"/>
						<polygon fill="#808181" points="57.3,35.9 57.3,35.9 57.3,35.9 						"/>
						<path fill="#808181" d="M62.7,33.9L62.7,33.9C62.7,33.8,62.7,33.8,62.7,33.9z"/>
						<path fill="#808181" d="M61.2,35.3c0,0,0,0.1,0.1,0.1C61.2,35.4,61.2,35.3,61.2,35.3z"/>
						<path fill="#808181" d="M64.1,32.1L64.1,32.1C64.1,32.1,64.1,32.1,64.1,32.1z"/>
						<polygon fill="#808181" points="61.2,35.4 61.2,35.4 61.2,35.4 						"/>
						<path fill="#808181" d="M62.4,34.3L62.4,34.3C62.4,34.3,62.4,34.3,62.4,34.3z"/>
						<path fill="#808181" d="M62.7,34L62.7,34C62.7,34,62.7,34,62.7,34z"/>
						<path fill="#808181" d="M62.3,34.5C62.3,34.5,62.3,34.5,62.3,34.5L62.3,34.5C62.3,34.5,62.3,34.5,62.3,34.5z"/>
						<polygon fill="#808181" points="62.2,34.6 62.2,34.6 62.2,34.6 						"/>
						<path fill="#808181" d="M58.3,36.3L58.3,36.3C58.3,36.3,58.2,36.3,58.3,36.3z"/>
						<path fill="#808181" d="M64,32.1C64,32.1,64.1,32.1,64,32.1L64,32.1C64,32.1,64,32.1,64,32.1z"/>
						<path fill="#808181" d="M62.6,34.8L62.6,34.8C62.6,34.8,62.6,34.8,62.6,34.8z"/>
						<path fill="#808181" d="M59.9,36.2L59.9,36.2C59.9,36.2,59.9,36.2,59.9,36.2z"/>
						<path fill="#808181" d="M62.5,34.9C62.5,34.9,62.5,34.9,62.5,34.9C62.5,34.9,62.5,34.9,62.5,34.9L62.5,34.9z"/>
						<path fill="#808181" d="M58.3,36.3L58.3,36.3L58.3,36.3z"/>
						<path fill="#808181" d="M58,36.4c0,0,0-0.1,0-0.1C58.1,36.3,58.1,36.3,58,36.4c0.1,0,0.1-0.1,0.1-0.1c0,0,0,0,0,0
							c0-0.1,0.1,0,0.1-0.1l0,0c0,0,0-0.1,0-0.1c0,0,0,0,0,0c0,0,0,0,0,0l0,0c0,0.1,0,0,0,0.1c0,0,0.1-0.1,0.1-0.1
							c0,0.1-0.1,0,0,0.1l0,0c0,0.1,0,0,0,0.1c0,0,0.1,0,0.1,0c0,0,0-0.1,0-0.1c0.1-0.1,0.1,0.2,0.1,0.1c0,0,0-0.1,0.1-0.1l0,0.1
							c0,0,0-0.1,0.1-0.1c0,0,0,0,0,0c0,0.1,0,0,0,0l0,0.1c0.1,0,0.1-0.1,0.2-0.1c0,0,0,0,0,0.1c0.1,0,0.2,0,0.2,0l0-0.1
							c0,0,0,0,0,0c0,0,0,0,0-0.1c0,0,0,0,0,0c0-0.1,0.1-0.1,0.2-0.1l0,0c0,0,0-0.1,0.1-0.1l0,0c0.1,0,0.2,0,0.2,0
							c0-0.1,0.1,0,0.1-0.1c0.1,0,0,0.1,0.1,0.1c0,0,0-0.1,0-0.1l0,0.1l0-0.1l0,0.1l0,0c0,0,0,0,0,0c0,0,0.1,0,0.1,0.1l0.1-0.1
							c0,0,0,0,0,0.1c0-0.1,0,0.1,0,0c0,0,0,0,0,0c0,0,0.1,0,0.1,0l0,0c0.1,0,0.1-0.1,0.2-0.1c0,0,0-0.1,0-0.1l0,0.1c0,0,0,0,0-0.1
							c0,0,0,0.1,0,0.1l0,0c0,0,0,0,0,0.1c0,0,0.1,0,0.1,0l0,0c0.1,0,0.1,0,0.1-0.1c0-0.1,0,0,0-0.1c0,0,0.1,0,0.1,0c0,0,0,0,0-0.1
							c0,0,0.1,0,0.1,0.1c0,0,0.1,0,0.1-0.1c0,0,0,0,0,0c0,0,0,0,0,0l0,0c0-0.1,0.2,0.1,0.2-0.1l0,0l0-0.1c0,0,0,0,0,0.1
							c0-0.1,0.1,0,0.1-0.1c0.1,0.1,0.1-0.1,0.2,0l0,0c0,0,0,0,0,0c0,0,0,0,0,0c0.1-0.1,0.3-0.1,0.4-0.2c0,0-0.1-0.2,0-0.1l0,0.1
							c0-0.1,0.2-0.1,0.2-0.2c0,0,0,0,0,0c0,0,0.1,0,0-0.1c0,0,0,0,0,0c0,0,0-0.1,0-0.1c0,0,0,0,0,0c0,0,0.1,0,0-0.1
							c0,0,0-0.1,0.1-0.1c0-0.1,0.1,0,0-0.1c0.1,0.1,0.1,0,0.1,0c0,0,0,0,0.1,0c0,0,0-0.1,0-0.1c0.1,0,0-0.1,0.1-0.1
							c0-0.1,0-0.2,0.1-0.2c0.1,0.1,0,0.1,0,0.1c0-0.1,0-0.2,0.1-0.2c0,0,0,0,0,0c0-0.1,0.1-0.1,0.1-0.2c0,0,0,0,0,0c0,0,0,0,0,0
							l0,0c-0.1,0-0.1-0.1-0.1-0.1c0.1,0.1,0.1,0,0.2,0.1c0,0,0,0,0,0c0,0,0,0,0,0c0,0,0-0.1,0-0.1c0,0,0,0,0,0c0,0,0-0.1,0-0.1
							c0,0,0,0,0,0c0,0,0-0.1,0-0.2c0.1,0.1,0,0,0.1,0l0,0l0,0c0,0,0-0.1,0-0.1l0,0l0-0.1l0,0c0,0-0.1,0,0-0.1c0,0,0,0,0.1,0l0,0
							c0,0,0,0,0-0.1c0,0,0.1,0,0.1,0.1c0,0,0-0.1,0-0.1c0,0,0,0,0.1,0l0,0c0,0,0,0,0.1,0c0,0-0.1,0,0-0.1c0,0,0,0,0,0
							c0,0,0-0.1,0.1-0.1c0.1,0,0,0,0.1,0.1c0-0.1,0-0.2,0-0.2l0,0c-0.1-0.1,0.1,0,0-0.1c0,0,0,0,0,0c0,0,0-0.1,0-0.2l0,0
							c0,0,0-0.1,0.1-0.1c0,0,0,0,0,0c0.2,0,0-0.2,0.1-0.2c0,0,0,0,0,0c0,0,0,0,0-0.1c0,0,0,0-0.1,0c0,0,0,0,0-0.1c0,0,0.1,0,0.1,0
							l0,0c0.1,0-0.1,0,0-0.1l0,0c0,0,0,0,0-0.1c0.1,0,0,0,0.1,0c0,0-0.1-0.1,0-0.1c0,0,0,0,0,0c0.1,0,0.1,0,0.1,0l0,0l0,0l0,0
							c-0.1-0.1,0-0.1-0.1-0.1c0.1,0.1,0,0,0.1,0c0,0,0,0,0.1,0c0,0,0,0,0-0.1c0,0,0,0,0.1,0c0,0,0,0-0.1,0c0-0.1,0.1-0.1,0-0.1
							c0-0.1-0.1-0.1-0.1-0.1c0,0,0.1,0,0.1,0c0,0,0,0,0-0.1c0,0,0,0,0.1,0c0,0-0.1,0,0,0c0,0,0,0,0.1,0c0,0,0-0.1,0-0.1
							c0,0,0,0,0.1,0c0,0,0-0.1-0.1-0.1l0,0c0,0,0,0,0.1,0c0,0,0,0,0,0l0,0c-0.1,0,0,0.1,0,0.1l-0.1,0l0.1,0.1c0,0-0.1,0-0.1,0
							c0,0,0,0,0,0c0,0,0,0,0,0l0,0c0,0-0.1,0,0,0c-0.1,0,0,0.1,0,0.1l0,0c0,0.1,0.1,0,0.1,0.1l-0.1,0l0.1,0c0,0,0,0,0,0
							c0,0,0,0,0.1,0c-0.1,0,0,0.1-0.1,0.1c0,0,0,0,0.1,0c-0.1,0,0,0,0,0c0,0,0,0-0.1,0c0.1,0,0,0,0,0.1c0.1,0,0,0.1,0,0.1
							c0,0-0.1,0-0.1,0.1l0,0c0.1,0,0,0.1,0,0.1c0,0-0.1,0-0.1,0l0,0c0,0,0,0,0,0l0,0c0,0,0,0.1,0,0.1c0,0,0.1,0,0.2,0.1
							c0,0-0.1,0-0.1,0c0,0,0,0,0,0l0,0c0,0,0,0,0,0c0,0,0,0-0.1,0c0,0,0,0,0,0c0,0,0,0-0.1,0c0,0,0,0,0,0c0,0,0,0-0.1,0
							c0,0,0,0,0,0c0,0,0,0,0,0c0,0,0,0.1,0,0.1l0,0l0,0l0,0l0,0c0,0.1-0.1,0.1-0.1,0.1l0,0c0,0,0,0.1,0,0.1c0,0,0,0-0.1,0
							c0,0,0,0,0,0.1c0,0,0,0,0,0c0,0-0.1,0,0,0.1c0,0-0.1,0-0.1,0l0,0c0,0,0,0,0,0l-0.1,0c-0.1,0,0.1,0.2-0.1,0.1c0,0,0,0,0.1,0
							c0,0-0.1,0-0.1,0c-0.1,0,0.1,0.1,0,0.1c0,0,0.1,0,0.1,0.1c0,0-0.1,0-0.1,0c0,0,0,0,0,0c0,0,0,0,0,0l0,0c0,0,0,0-0.1,0
							c0,0,0,0,0,0c0,0,0,0-0.1,0.1c0,0,0,0,0,0c-0.1,0,0,0,0,0.1c0,0-0.1-0.1-0.1,0c0,0-0.1,0-0.1,0c0,0.1-0.1,0-0.1,0l0,0
							c0,0,0,0,0,0l0,0c0,0,0,0,0,0c0,0,0.1,0,0.1,0.1c0,0,0,0.1-0.1,0c0,0-0.1,0,0-0.1c0,0,0,0,0,0c0,0,0,0,0,0c-0.1,0,0,0.1,0,0.1
							c0,0-0.1,0-0.1,0c0,0,0.1,0,0.1,0.1c0,0,0,0,0,0l0,0c0,0,0,0,0,0.1c0,0,0,0,0,0c0,0.1-0.1,0-0.1,0.1c0,0-0.1,0-0.1,0
							c0,0.1-0.1,0-0.1,0c0,0,0,0,0.1,0.1l0-0.1l0,0.1c0,0,0,0,0,0c0,0,0,0,0,0c-0.1,0,0,0.1-0.1,0.1l-0.1-0.1c-0.1,0,0,0.1-0.1,0.1
							l0,0c0,0,0,0,0,0.1c0,0,0,0-0.1,0c0,0,0,0,0,0.1l-0.1,0c0,0,0,0.1,0,0.1c0,0-0.1,0-0.1-0.1c0,0,0,0,0,0c0,0,0,0.1,0,0
							c0,0,0,0,0,0.1c0,0,0,0,0,0c0,0,0,0,0,0.1c-0.1-0.1-0.1,0.1-0.2,0.1c0,0,0,0.1-0.1,0.1c0,0,0,0,0,0c-0.1,0,0.1,0.1,0,0.1
							c-0.1,0,0,0,0,0c-0.1-0.1,0,0-0.1,0l0,0c0,0,0,0.1,0,0.1c0,0,0,0,0,0c0,0.1,0,0.1,0,0.2c0,0,0,0,0-0.1c0,0,0.1,0.1,0,0.1
							c0,0-0.1,0-0.1-0.1l0,0c-0.1,0,0,0,0,0l0,0c0,0,0,0.1,0,0.1l0,0c0,0.1,0,0,0,0l-0.1-0.1c0,0,0,0.1,0,0.1c0-0.1,0-0.1,0-0.1
							c0,0,0,0,0,0.1c0,0,0,0,0,0c0,0.1,0,0.1,0,0.1c-0.1-0.1-0.1,0-0.2-0.1c0,0.1-0.1,0-0.2,0.1c0.1,0.1,0,0,0,0.1c0,0,0,0,0,0
							l-0.1,0c0,0,0,0,0-0.1c0,0,0,0-0.1-0.1c0,0,0,0.1,0,0.1l0.1,0c0,0.1-0.1-0.1-0.1,0l0,0c0,0-0.1,0-0.1,0.1c0,0,0,0,0,0
							c-0.1,0-0.1,0.1-0.2,0.1l0,0c0,0,0,0.1,0,0c0,0,0,0,0,0c0,0,0,0.1,0,0.1l0,0c-0.1,0-0.1,0.1-0.1,0.2c0-0.1-0.1-0.1-0.1-0.1
							l0,0c-0.1,0-0.1,0.1-0.2,0.2c-0.1-0.1-0.1,0-0.2,0c0,0,0,0.1,0,0.1c0,0,0,0.1,0,0l0,0c0-0.1-0.1,0-0.1,0l0,0.1
							c-0.1-0.1-0.2,0.1-0.2,0c0,0,0,0,0,0.1l0-0.1c0,0-0.1,0-0.1,0l0,0c0,0,0,0.2,0,0.2l0-0.1c-0.1,0-0.1-0.1-0.2,0c0,0,0,0,0,0
							c0,0-0.1,0-0.1,0.1c0-0.1-0.1,0-0.1,0l0-0.1c0,0.1,0,0.1-0.1,0.1c0,0,0,0,0,0c0,0,0,0.1-0.1,0l0,0c0,0,0,0,0,0.1
							c0,0-0.1,0-0.1-0.1c0,0,0,0.1,0,0.1c0,0,0,0,0,0c0,0-0.1,0.1-0.1,0c0,0,0,0,0,0c0,0,0.1,0,0.1,0c0,0,0-0.1,0-0.1
							c0,0-0.1,0.1-0.1,0.1c0,0,0,0,0,0l0,0c0,0,0,0,0,0c0,0,0,0,0,0c0,0,0,0-0.1,0c0,0.1,0,0,0,0.1c0,0,0,0,0,0l0,0l0,0l0,0
							c0,0,0,0.1,0,0c0,0,0,0.1,0,0.1c0-0.1-0.1-0.1-0.1-0.2c0,0-0.1,0-0.1,0.1c0,0,0,0,0,0c0,0,0,0,0,0c0,0-0.1,0-0.1,0.1
							c0,0,0-0.1,0-0.1l0,0c-0.1-0.1-0.2,0.2-0.3,0c0,0,0,0,0,0c-0.1-0.1-0.2,0-0.3-0.1c0,0,0,0-0.1,0.1l0-0.1l0,0.1
							c-0.1,0-0.1-0.2-0.1-0.1l0,0c0,0-0.1,0-0.1,0c0,0,0,0,0,0l0,0l-0.1,0c0,0,0-0.1,0-0.1c0,0-0.1,0.1-0.1,0.1c0,0,0,0,0,0.1l0,0
							c0,0.1-0.1,0.2,0,0.2l0.1,0l0,0l0,0c0,0,0,0,0,0c0,0,0,0,0,0.1l0.1-0.1c0,0,0,0.1,0,0.1c0,0,0-0.1,0-0.1c0,0,0,0.1,0,0
							c0,0,0,0,0,0c0,0,0.1,0,0.1,0c0,0.1,0.1,0,0,0.1c0,0,0-0.1,0.1-0.1c0,0.1,0.1,0,0,0.1c0-0.1,0.1,0,0.1-0.1c0,0,0,0,0,0
							c0,0,0,0,0,0.1c0-0.1,0.1-0.1,0.1-0.1c0,0.1,0,0.1,0,0.2c0-0.1,0.1-0.1,0.1-0.1C57.9,36.3,57.9,36.3,58,36.4
							c0-0.1,0-0.1,0-0.1C58,36.3,58,36.3,58,36.4C58,36.3,58,36.4,58,36.4z M58.8,36.2L58.8,36.2C58.8,36.2,58.8,36.2,58.8,36.2
							C58.8,36.2,58.8,36.2,58.8,36.2z M58.9,36.2L58.9,36.2C58.9,36.2,58.9,36.2,58.9,36.2C58.9,36.2,58.9,36.2,58.9,36.2z
							 M58.8,35.9C58.8,35.9,58.8,35.9,58.8,35.9C58.8,35.9,58.8,35.9,58.8,35.9L58.8,35.9C58.8,35.9,58.8,35.9,58.8,35.9z"/>
						<path fill="#808181" d="M58.7,35.9L58.7,35.9C58.7,35.9,58.7,36,58.7,35.9L58.7,35.9L58.7,35.9z"/>
						<polygon fill="#808181" points="63.4,33 63.4,33 63.4,33 						"/>
						<polygon fill="#808181" points="59.9,36.2 59.8,36.2 59.8,36.2 						"/>
						<path fill="#808181" d="M63.8,32.7L63.8,32.7C63.8,32.7,63.8,32.7,63.8,32.7z"/>
						<path fill="#808181" d="M63.8,32.6L63.8,32.6C63.8,32.6,63.8,32.6,63.8,32.6z"/>
						<polygon fill="#808181" points="63.9,32.5 63.9,32.5 63.9,32.5 						"/>
						<path fill="#808181" d="M63,34.2L63,34.2C63,34.3,63,34.3,63,34.2z"/>
						<path fill="#808181" d="M63.2,33.7C63.2,33.7,63.2,33.7,63.2,33.7C63.3,33.7,63.3,33.7,63.2,33.7z"/>
						<polygon fill="#808181" points="62.6,34.8 62.6,34.8 62.6,34.8 						"/>
						<path fill="#808181" d="M63.2,33.7C63.2,33.7,63.3,33.7,63.2,33.7C63.2,33.7,63.2,33.7,63.2,33.7z"/>
						<polygon fill="#808181" points="64.1,32 64.1,32 64.1,32 						"/>
						<path fill="#808181" d="M64.1,32L64.1,32C64.1,32,64.1,32,64.1,32z"/>
						<path fill="#808181" d="M64.1,32L64.1,32C64.1,32,64.1,32,64.1,32z"/>
						<path fill="#808181" d="M64,32.1L64,32.1C64,32.1,64,32.1,64,32.1z"/>
						<path fill="#808181" d="M64,32.2C64,32.2,64.1,32.2,64,32.2L64,32.2C64.1,32.2,64,32.2,64,32.2z"/>
						<path fill="#808181" d="M63.7,32.3L63.7,32.3C63.7,32.3,63.7,32.3,63.7,32.3C63.6,32.3,63.7,32.2,63.7,32.3z"/>
						<path fill="#808181" d="M63.6,32.4C63.6,32.4,63.6,32.4,63.6,32.4C63.6,32.4,63.6,32.4,63.6,32.4z"/>
						<path fill="#808181" d="M63.3,33.2L63.3,33.2C63.2,33.2,63.2,33.2,63.3,33.2z"/>
						<polygon fill="#808181" points="63.4,33.5 63.4,33.5 63.4,33.5 						"/>
						<polygon fill="#808181" points="63.1,33.4 63.1,33.4 63.1,33.4 						"/>
						<path fill="#808181" d="M62.2,34.6L62.2,34.6C62.2,34.6,62.2,34.6,62.2,34.6z"/>
						<path fill="#808181" d="M61.7,35C61.7,35,61.7,35,61.7,35C61.7,35,61.7,35,61.7,35z"/>
						<polygon fill="#808181" points="59.9,35.7 59.9,35.7 59.9,35.7 						"/>
					</g>
				</g>
			</g>
		</g>
	</g>
</g>
</svg>
